<?xml version="1.0" encoding="UTF-8" standalone="no"?>
<!-- Created with Inkscape (http://www.inkscape.org/) -->

<svg
   xmlns:dc="http://purl.org/dc/elements/1.1/"
   xmlns:cc="http://creativecommons.org/ns#"
   xmlns:rdf="http://www.w3.org/1999/02/22-rdf-syntax-ns#"
   xmlns:svg="http://www.w3.org/2000/svg"
   xmlns="http://www.w3.org/2000/svg"
   xmlns:sodipodi="http://sodipodi.sourceforge.net/DTD/sodipodi-0.dtd"
   xmlns:inkscape="http://www.inkscape.org/namespaces/inkscape"
   width="116.62866"
   height="116.62866"
   viewBox="0 0 30.858 30.858"
   version="1.1"
   id="svg1933"
   inkscape:version="0.92.5 (2060ec1f9f, 2020-04-08)"
   sodipodi:docname="Unemployed % unemployed.svg">
  <defs
     id="defs1927">
    <mask
       maskUnits="userSpaceOnUse"
       id="mask2260">
      <rect
         style="opacity:1;fill:#ffffff;fill-opacity:1;stroke:none;stroke-width:0.56499994;stroke-miterlimit:4;stroke-dasharray:none;stroke-opacity:1"
         id="rect2262"
         width="86.248459"
         height="109.59391"
         x="10.399542"
         y="-2.1886201" />
    </mask>
    <symbol
       overflow="visible"
       id="t">
      <path
         id="path1200"
         d="m18.766-1.125c-0.96875 0.5-1.9805 0.875-3.0312 1.125-1.043 0.25781-2.1367 0.39062-3.2812 0.39062-3.3984 0-6.0898-0.94531-8.0781-2.8438-1.9922-1.9062-2.9844-4.4844-2.9844-7.7344 0-3.2578 0.99219-5.8359 2.9844-7.7344 1.9883-1.9062 4.6797-2.8594 8.0781-2.8594 1.1445 0 2.2383 0.13281 3.2812 0.39062 1.0508 0.25 2.0625 0.625 3.0312 1.125v4.2188c-0.98047-0.65625-1.9453-1.1406-2.8906-1.4531-0.94922-0.3125-1.9492-0.46875-3-0.46875-1.875 0-3.3516 0.60547-4.4219 1.8125-1.0742 1.1992-1.6094 2.8555-1.6094 4.9688 0 2.1055 0.53516 3.7617 1.6094 4.9688 1.0703 1.1992 2.5469 1.7969 4.4219 1.7969 1.0508 0 2.0508-0.14844 3-0.45312 0.94531-0.3125 1.9102-0.80078 2.8906-1.4688z" />
    </symbol>
    <symbol
       overflow="visible"
       id="c">
      <path
         id="path1203"
         d="m13.734-11.141c-0.4375-0.19531-0.87109-0.34375-1.2969-0.4375-0.41797-0.10156-0.83984-0.15625-1.2656-0.15625-1.2617 0-2.2305 0.40625-2.9062 1.2188-0.67969 0.80469-1.0156 1.9531-1.0156 3.4531v7.0625h-4.8906v-15.312h4.8906v2.5156c0.625-1 1.3438-1.7266 2.1562-2.1875 0.82031-0.46875 1.8008-0.70312 2.9375-0.70312 0.16406 0 0.34375 0.011719 0.53125 0.03125 0.19531 0.011719 0.47656 0.039062 0.84375 0.078125z" />
    </symbol>
    <symbol
       overflow="visible"
       id="a">
      <path
         id="path1206"
         d="m17.641-7.7031v1.4062h-11.453c0.125 1.1484 0.53906 2.0078 1.25 2.5781 0.70703 0.57422 1.7031 0.85938 2.9844 0.85938 1.0312 0 2.082-0.14844 3.1562-0.45312 1.082-0.3125 2.1914-0.77344 3.3281-1.3906v3.7656c-1.1562 0.4375-2.3125 0.76562-3.4688 0.98438-1.1562 0.22656-2.3125 0.34375-3.4688 0.34375-2.7734 0-4.9297-0.70312-6.4688-2.1094-1.5312-1.4062-2.2969-3.3789-2.2969-5.9219 0-2.5 0.75391-4.4609 2.2656-5.8906 1.5078-1.4375 3.582-2.1562 6.2188-2.1562 2.4062 0 4.332 0.73047 5.7812 2.1875 1.4453 1.4492 2.1719 3.3828 2.1719 5.7969zm-5.0312-1.625c0-0.92578-0.27344-1.6719-0.8125-2.2344-0.54297-0.57031-1.25-0.85938-2.125-0.85938-0.94922 0-1.7188 0.26562-2.3125 0.79688s-0.96484 1.2969-1.1094 2.2969z" />
    </symbol>
    <symbol
       overflow="visible"
       id="m">
      <path
         id="path1209"
         d="m9.2188-6.8906c-1.0234 0-1.793 0.17188-2.3125 0.51562-0.51172 0.34375-0.76562 0.85547-0.76562 1.5312 0 0.625 0.20703 1.1172 0.625 1.4688 0.41406 0.34375 0.98828 0.51562 1.7188 0.51562 0.92578 0 1.7031-0.32812 2.3281-0.98438 0.63281-0.66406 0.95312-1.4922 0.95312-2.4844v-0.5625zm7.4688-1.8438v8.7344h-4.9219v-2.2656c-0.65625 0.92969-1.3984 1.6055-2.2188 2.0312-0.82422 0.41406-1.8242 0.625-3 0.625-1.5859 0-2.8711-0.45703-3.8594-1.375-0.99219-0.92578-1.4844-2.1289-1.4844-3.6094 0-1.7891 0.61328-3.1016 1.8438-3.9375 1.2383-0.84375 3.1797-1.2656 5.8281-1.2656h2.8906v-0.39062c0-0.76953-0.30859-1.332-0.92188-1.6875-0.61719-0.36328-1.5703-0.54688-2.8594-0.54688-1.0547 0-2.0312 0.10547-2.9375 0.3125-0.89844 0.21094-1.7305 0.52344-2.5 0.9375v-3.7344c1.0391-0.25 2.0859-0.44141 3.1406-0.57812 1.0625-0.13281 2.125-0.20312 3.1875-0.20312 2.7578 0 4.75 0.54688 5.9688 1.6406 1.2266 1.0859 1.8438 2.8555 1.8438 5.3125z" />
    </symbol>
    <symbol
       overflow="visible"
       id="b">
      <path
         id="path1212"
         d="m7.7031-19.656v4.3438h5.0469v3.5h-5.0469v6.5c0 0.71094 0.14062 1.1875 0.42188 1.4375s0.83594 0.375 1.6719 0.375h2.5156v3.5h-4.1875c-1.9375 0-3.3125-0.39844-4.125-1.2031-0.80469-0.8125-1.2031-2.1797-1.2031-4.1094v-6.5h-2.4219v-3.5h2.4219v-4.3438z" />
    </symbol>
    <symbol
       overflow="visible"
       id="l">
      <path
         id="path1215"
         d="m12.766-13.078v-8.2031h4.9219v21.281h-4.9219v-2.2188c-0.66797 0.90625-1.4062 1.5703-2.2188 1.9844s-1.7578 0.625-2.8281 0.625c-1.8867 0-3.4336-0.75-4.6406-2.25-1.2109-1.5-1.8125-3.4258-1.8125-5.7812 0-2.3633 0.60156-4.2969 1.8125-5.7969 1.207-1.5 2.7539-2.25 4.6406-2.25 1.0625 0 2 0.21484 2.8125 0.64062 0.82031 0.42969 1.5664 1.0859 2.2344 1.9688zm-3.2188 9.9219c1.0391 0 1.8359-0.37891 2.3906-1.1406 0.55078-0.76953 0.82812-1.8828 0.82812-3.3438 0-1.457-0.27734-2.5664-0.82812-3.3281-0.55469-0.76953-1.3516-1.1562-2.3906-1.1562-1.043 0-1.8398 0.38672-2.3906 1.1562-0.55469 0.76172-0.82812 1.8711-0.82812 3.3281 0 1.4609 0.27344 2.5742 0.82812 3.3438 0.55078 0.76172 1.3477 1.1406 2.3906 1.1406z" />
    </symbol>
    <symbol
       overflow="visible"
       id="g">
      <path
         id="path1218"
         d="m10.5-3.1562c1.0508 0 1.8516-0.37891 2.4062-1.1406 0.55078-0.76953 0.82812-1.8828 0.82812-3.3438 0-1.457-0.27734-2.5664-0.82812-3.3281-0.55469-0.76953-1.3555-1.1562-2.4062-1.1562-1.0547 0-1.8594 0.38672-2.4219 1.1562-0.55469 0.77344-0.82812 1.8828-0.82812 3.3281 0 1.4492 0.27344 2.5586 0.82812 3.3281 0.5625 0.77344 1.3672 1.1562 2.4219 1.1562zm-3.25-9.9219c0.67578-0.88281 1.4219-1.5391 2.2344-1.9688 0.82031-0.42578 1.7656-0.64062 2.8281-0.64062 1.8945 0 3.4453 0.75 4.6562 2.25 1.207 1.5 1.8125 3.4336 1.8125 5.7969 0 2.3555-0.60547 4.2812-1.8125 5.7812-1.2109 1.5-2.7617 2.25-4.6562 2.25-1.0625 0-2.0078-0.21094-2.8281-0.625-0.8125-0.42578-1.5586-1.0859-2.2344-1.9844v2.2188h-4.8906v-21.281h4.8906z" />
    </symbol>
    <symbol
       overflow="visible"
       id="k">
      <path
         id="path1221"
         d="m0.34375-15.312h4.8906l4.125 10.391 3.5-10.391h4.8906l-6.4375 16.766c-0.64844 1.6953-1.4023 2.8828-2.2656 3.5625-0.86719 0.6875-2 1.0312-3.4062 1.0312h-2.8438v-3.2188h1.5312c0.83203 0 1.4375-0.13672 1.8125-0.40625 0.38281-0.26172 0.67969-0.73047 0.89062-1.4062l0.14062-0.42188z" />
    </symbol>
    <symbol
       overflow="visible"
       id="f">
      <path
         id="path1224"
         d="m16.547-12.766c0.61328-0.94531 1.3477-1.6719 2.2031-2.1719 0.85156-0.5 1.7891-0.75 2.8125-0.75 1.7578 0 3.0977 0.54688 4.0156 1.6406 0.92578 1.0859 1.3906 2.6562 1.3906 4.7188v9.3281h-4.9219v-7.9844-0.35938c0.007813-0.13281 0.015625-0.32031 0.015625-0.5625 0-1.082-0.16406-1.8633-0.48438-2.3438-0.3125-0.48828-0.82422-0.73438-1.5312-0.73438-0.92969 0-1.6484 0.38672-2.1562 1.1562-0.51172 0.76172-0.77344 1.8672-0.78125 3.3125v7.5156h-4.9219v-7.9844c0-1.6953-0.14844-2.7852-0.4375-3.2656-0.29297-0.48828-0.8125-0.73438-1.5625-0.73438-0.9375 0-1.6641 0.38672-2.1719 1.1562-0.51172 0.76172-0.76562 1.8594-0.76562 3.2969v7.5312h-4.9219v-15.312h4.9219v2.2344c0.60156-0.86328 1.2891-1.5156 2.0625-1.9531 0.78125-0.4375 1.6406-0.65625 2.5781-0.65625 1.0625 0 2 0.25781 2.8125 0.76562 0.8125 0.51172 1.4258 1.2305 1.8438 2.1562z" />
    </symbol>
    <symbol
       overflow="visible"
       id="j">
      <path
         id="path1227"
         d="m2.3594-15.312h4.8906v15.312h-4.8906zm0-5.9688h4.8906v4h-4.8906z" />
    </symbol>
    <symbol
       overflow="visible"
       id="i">
      <path
         id="path1230"
         d="m2.3594-15.312h4.8906v15.031c0 2.0508-0.49609 3.6172-1.4844 4.7031-0.98047 1.082-2.4062 1.625-4.2812 1.625h-2.4219v-3.2188h0.85938c0.92578 0 1.5625-0.21094 1.9062-0.625 0.35156-0.41797 0.53125-1.2461 0.53125-2.4844zm0-5.9688h4.8906v4h-4.8906z" />
    </symbol>
    <symbol
       overflow="visible"
       id="h">
      <path
         id="path1233"
         d="m17.75-9.3281v9.3281h-4.9219v-7.1406c0-1.3203-0.03125-2.2344-0.09375-2.7344s-0.16797-0.86719-0.3125-1.1094c-0.1875-0.3125-0.44922-0.55469-0.78125-0.73438-0.32422-0.17578-0.69531-0.26562-1.1094-0.26562-1.0234 0-1.8242 0.39844-2.4062 1.1875-0.58594 0.78125-0.875 1.8711-0.875 3.2656v7.5312h-4.8906v-15.312h4.8906v2.2344c0.73828-0.88281 1.5195-1.5391 2.3438-1.9688 0.83203-0.42578 1.75-0.64062 2.75-0.64062 1.7695 0 3.1133 0.54688 4.0312 1.6406 0.91406 1.0859 1.375 2.6562 1.375 4.7188z" />
    </symbol>
    <symbol
       overflow="visible"
       id="s">
      <path
         id="path1236"
         d="m2.3594-21.281h4.8906v21.281h-4.8906z" />
    </symbol>
    <symbol
       overflow="visible"
       id="e">
      <path
         id="path1239"
         d="m12.422-21.281v3.2188h-2.7031c-0.6875 0-1.1719 0.125-1.4531 0.375-0.27344 0.25-0.40625 0.6875-0.40625 1.3125v1.0625h4.1875v3.5h-4.1875v11.812h-4.8906v-11.812h-2.4375v-3.5h2.4375v-1.0625c0-1.6641 0.46094-2.8984 1.3906-3.7031 0.92578-0.80078 2.3672-1.2031 4.3281-1.2031z" />
    </symbol>
    <symbol
       overflow="visible"
       id="d">
      <path
         id="path1242"
         d="m9.6406-12.188c-1.0859 0-1.9141 0.39062-2.4844 1.1719-0.57422 0.78125-0.85938 1.9062-0.85938 3.375s0.28516 2.5938 0.85938 3.375c0.57031 0.77344 1.3984 1.1562 2.4844 1.1562 1.0625 0 1.875-0.38281 2.4375-1.1562 0.57031-0.78125 0.85938-1.9062 0.85938-3.375s-0.28906-2.5938-0.85938-3.375c-0.5625-0.78125-1.375-1.1719-2.4375-1.1719zm0-3.5c2.6328 0 4.6914 0.71484 6.1719 2.1406 1.4766 1.418 2.2188 3.3867 2.2188 5.9062 0 2.5117-0.74219 4.4805-2.2188 5.9062-1.4805 1.418-3.5391 2.125-6.1719 2.125-2.6484 0-4.7148-0.70703-6.2031-2.125-1.4922-1.4258-2.2344-3.3945-2.2344-5.9062 0-2.5195 0.74219-4.4883 2.2344-5.9062 1.4883-1.4258 3.5547-2.1406 6.2031-2.1406z" />
    </symbol>
    <symbol
       overflow="visible"
       id="r">
      <path
         id="path1245"
         d="m17.75-9.3281v9.3281h-4.9219v-7.1094c0-1.3438-0.03125-2.2656-0.09375-2.7656s-0.16797-0.86719-0.3125-1.1094c-0.1875-0.3125-0.44922-0.55469-0.78125-0.73438-0.32422-0.17578-0.69531-0.26562-1.1094-0.26562-1.0234 0-1.8242 0.39844-2.4062 1.1875-0.58594 0.78125-0.875 1.8711-0.875 3.2656v7.5312h-4.8906v-21.281h4.8906v8.2031c0.73828-0.88281 1.5195-1.5391 2.3438-1.9688 0.83203-0.42578 1.75-0.64062 2.75-0.64062 1.7695 0 3.1133 0.54688 4.0312 1.6406 0.91406 1.0859 1.375 2.6562 1.375 4.7188z" />
    </symbol>
    <symbol
       overflow="visible"
       id="q">
      <path
         id="path1248"
         d="m2.5781-20.406h5.875l7.4219 14v-14h4.9844v20.406h-5.875l-7.4219-14v14h-4.9844z" />
    </symbol>
    <symbol
       overflow="visible"
       id="p">
      <path
         id="path1251"
         d="m2.1875-5.9688v-9.3438h4.9219v1.5312c0 0.83594-0.007813 1.875-0.015625 3.125-0.011719 1.25-0.015625 2.0859-0.015625 2.5 0 1.2422 0.03125 2.1328 0.09375 2.6719 0.070313 0.54297 0.17969 0.93359 0.32812 1.1719 0.20703 0.32422 0.47266 0.57422 0.79688 0.75 0.32031 0.16797 0.69141 0.25 1.1094 0.25 1.0195 0 1.8203-0.39062 2.4062-1.1719 0.58203-0.78125 0.875-1.8672 0.875-3.2656v-7.5625h4.8906v15.312h-4.8906v-2.2188c-0.74219 0.89844-1.5234 1.5586-2.3438 1.9844-0.82422 0.41406-1.7344 0.625-2.7344 0.625-1.7617 0-3.1055-0.53906-4.0312-1.625-0.92969-1.082-1.3906-2.6602-1.3906-4.7344z" />
    </symbol>
    <symbol
       overflow="visible"
       id="o">
      <path
         id="path1254"
         d="m2.5781-20.406h8.7344c2.5938 0 4.582 0.57812 5.9688 1.7344 1.3945 1.1484 2.0938 2.7891 2.0938 4.9219 0 2.1367-0.69922 3.7812-2.0938 4.9375-1.3867 1.1562-3.375 1.7344-5.9688 1.7344h-3.4844v7.0781h-5.25zm5.25 3.8125v5.7031h2.9219c1.0195 0 1.8047-0.25 2.3594-0.75 0.5625-0.5 0.84375-1.2031 0.84375-2.1094 0-0.91406-0.28125-1.6172-0.84375-2.1094-0.55469-0.48828-1.3398-0.73438-2.3594-0.73438z" />
    </symbol>
    <symbol
       overflow="visible"
       id="n">
      <path
         id="path1257"
         d="m14.719-14.828v3.9844c-0.65625-0.45703-1.3242-0.79688-2-1.0156-0.66797-0.21875-1.3594-0.32812-2.0781-0.32812-1.3672 0-2.4336 0.40234-3.2031 1.2031-0.76172 0.79297-1.1406 1.9062-1.1406 3.3438 0 1.4297 0.37891 2.543 1.1406 3.3438 0.76953 0.79297 1.8359 1.1875 3.2031 1.1875 0.75781 0 1.4844-0.10938 2.1719-0.32812 0.6875-0.22656 1.3203-0.56641 1.9062-1.0156v4c-0.76172 0.28125-1.5391 0.48828-2.3281 0.625-0.78125 0.14453-1.5742 0.21875-2.375 0.21875-2.7617 0-4.9219-0.70703-6.4844-2.125-1.5547-1.4141-2.3281-3.3828-2.3281-5.9062 0-2.5312 0.77344-4.5039 2.3281-5.9219 1.5625-1.4141 3.7227-2.125 6.4844-2.125 0.80078 0 1.5938 0.074219 2.375 0.21875 0.78125 0.13672 1.5547 0.35156 2.3281 0.64062z" />
    </symbol>
    <symbol
       overflow="visible"
       id="t-4">
      <path
         id="path2048"
         d="m18.766-1.125c-0.96875 0.5-1.9805 0.875-3.0312 1.125-1.043 0.25781-2.1367 0.39062-3.2812 0.39062-3.3984 0-6.0898-0.94531-8.0781-2.8438-1.9922-1.9062-2.9844-4.4844-2.9844-7.7344 0-3.2578 0.99219-5.8359 2.9844-7.7344 1.9883-1.9062 4.6797-2.8594 8.0781-2.8594 1.1445 0 2.2383 0.13281 3.2812 0.39062 1.0508 0.25 2.0625 0.625 3.0312 1.125v4.2188c-0.98047-0.65625-1.9453-1.1406-2.8906-1.4531-0.94922-0.3125-1.9492-0.46875-3-0.46875-1.875 0-3.3516 0.60547-4.4219 1.8125-1.0742 1.1992-1.6094 2.8555-1.6094 4.9688 0 2.1055 0.53516 3.7617 1.6094 4.9688 1.0703 1.1992 2.5469 1.7969 4.4219 1.7969 1.0508 0 2.0508-0.14844 3-0.45312 0.94531-0.3125 1.9102-0.80078 2.8906-1.4688z" />
    </symbol>
    <symbol
       overflow="visible"
       id="d-4">
      <path
         id="path2051"
         d="m13.734-11.141c-0.4375-0.19531-0.87109-0.34375-1.2969-0.4375-0.41797-0.10156-0.83984-0.15625-1.2656-0.15625-1.2617 0-2.2305 0.40625-2.9062 1.2188-0.67969 0.80469-1.0156 1.9531-1.0156 3.4531v7.0625h-4.8906v-15.312h4.8906v2.5156c0.625-1 1.3438-1.7266 2.1562-2.1875 0.82031-0.46875 1.8008-0.70312 2.9375-0.70312 0.16406 0 0.34375 0.011719 0.53125 0.03125 0.19531 0.011719 0.47656 0.039062 0.84375 0.078125z" />
    </symbol>
    <symbol
       overflow="visible"
       id="a-7">
      <path
         id="path2054"
         d="m17.641-7.7031v1.4062h-11.453c0.125 1.1484 0.53906 2.0078 1.25 2.5781 0.70703 0.57422 1.7031 0.85938 2.9844 0.85938 1.0312 0 2.082-0.14844 3.1562-0.45312 1.082-0.3125 2.1914-0.77344 3.3281-1.3906v3.7656c-1.1562 0.4375-2.3125 0.76562-3.4688 0.98438-1.1562 0.22656-2.3125 0.34375-3.4688 0.34375-2.7734 0-4.9297-0.70312-6.4688-2.1094-1.5312-1.4062-2.2969-3.3789-2.2969-5.9219 0-2.5 0.75391-4.4609 2.2656-5.8906 1.5078-1.4375 3.582-2.1562 6.2188-2.1562 2.4062 0 4.332 0.73047 5.7812 2.1875 1.4453 1.4492 2.1719 3.3828 2.1719 5.7969zm-5.0312-1.625c0-0.92578-0.27344-1.6719-0.8125-2.2344-0.54297-0.57031-1.25-0.85938-2.125-0.85938-0.94922 0-1.7188 0.26562-2.3125 0.79688s-0.96484 1.2969-1.1094 2.2969z" />
    </symbol>
    <symbol
       overflow="visible"
       id="l-6">
      <path
         id="path2057"
         d="m9.2188-6.8906c-1.0234 0-1.793 0.17188-2.3125 0.51562-0.51172 0.34375-0.76562 0.85547-0.76562 1.5312 0 0.625 0.20703 1.1172 0.625 1.4688 0.41406 0.34375 0.98828 0.51562 1.7188 0.51562 0.92578 0 1.7031-0.32812 2.3281-0.98438 0.63281-0.66406 0.95312-1.4922 0.95312-2.4844v-0.5625zm7.4688-1.8438v8.7344h-4.9219v-2.2656c-0.65625 0.92969-1.3984 1.6055-2.2188 2.0312-0.82422 0.41406-1.8242 0.625-3 0.625-1.5859 0-2.8711-0.45703-3.8594-1.375-0.99219-0.92578-1.4844-2.1289-1.4844-3.6094 0-1.7891 0.61328-3.1016 1.8438-3.9375 1.2383-0.84375 3.1797-1.2656 5.8281-1.2656h2.8906v-0.39062c0-0.76953-0.30859-1.332-0.92188-1.6875-0.61719-0.36328-1.5703-0.54688-2.8594-0.54688-1.0547 0-2.0312 0.10547-2.9375 0.3125-0.89844 0.21094-1.7305 0.52344-2.5 0.9375v-3.7344c1.0391-0.25 2.0859-0.44141 3.1406-0.57812 1.0625-0.13281 2.125-0.20312 3.1875-0.20312 2.7578 0 4.75 0.54688 5.9688 1.6406 1.2266 1.0859 1.8438 2.8555 1.8438 5.3125z" />
    </symbol>
    <symbol
       overflow="visible"
       id="c-3">
      <path
         id="path2060"
         d="m7.7031-19.656v4.3438h5.0469v3.5h-5.0469v6.5c0 0.71094 0.14062 1.1875 0.42188 1.4375s0.83594 0.375 1.6719 0.375h2.5156v3.5h-4.1875c-1.9375 0-3.3125-0.39844-4.125-1.2031-0.80469-0.8125-1.2031-2.1797-1.2031-4.1094v-6.5h-2.4219v-3.5h2.4219v-4.3438z" />
    </symbol>
    <symbol
       overflow="visible"
       id="k-1">
      <path
         id="path2063"
         d="m12.766-13.078v-8.2031h4.9219v21.281h-4.9219v-2.2188c-0.66797 0.90625-1.4062 1.5703-2.2188 1.9844s-1.7578 0.625-2.8281 0.625c-1.8867 0-3.4336-0.75-4.6406-2.25-1.2109-1.5-1.8125-3.4258-1.8125-5.7812 0-2.3633 0.60156-4.2969 1.8125-5.7969 1.207-1.5 2.7539-2.25 4.6406-2.25 1.0625 0 2 0.21484 2.8125 0.64062 0.82031 0.42969 1.5664 1.0859 2.2344 1.9688zm-3.2188 9.9219c1.0391 0 1.8359-0.37891 2.3906-1.1406 0.55078-0.76953 0.82812-1.8828 0.82812-3.3438 0-1.457-0.27734-2.5664-0.82812-3.3281-0.55469-0.76953-1.3516-1.1562-2.3906-1.1562-1.043 0-1.8398 0.38672-2.3906 1.1562-0.55469 0.76172-0.82812 1.8711-0.82812 3.3281 0 1.4609 0.27344 2.5742 0.82812 3.3438 0.55078 0.76172 1.3477 1.1406 2.3906 1.1406z" />
    </symbol>
    <symbol
       overflow="visible"
       id="j-7">
      <path
         id="path2066"
         d="m10.5-3.1562c1.0508 0 1.8516-0.37891 2.4062-1.1406 0.55078-0.76953 0.82812-1.8828 0.82812-3.3438 0-1.457-0.27734-2.5664-0.82812-3.3281-0.55469-0.76953-1.3555-1.1562-2.4062-1.1562-1.0547 0-1.8594 0.38672-2.4219 1.1562-0.55469 0.77344-0.82812 1.8828-0.82812 3.3281 0 1.4492 0.27344 2.5586 0.82812 3.3281 0.5625 0.77344 1.3672 1.1562 2.4219 1.1562zm-3.25-9.9219c0.67578-0.88281 1.4219-1.5391 2.2344-1.9688 0.82031-0.42578 1.7656-0.64062 2.8281-0.64062 1.8945 0 3.4453 0.75 4.6562 2.25 1.207 1.5 1.8125 3.4336 1.8125 5.7969 0 2.3555-0.60547 4.2812-1.8125 5.7812-1.2109 1.5-2.7617 2.25-4.6562 2.25-1.0625 0-2.0078-0.21094-2.8281-0.625-0.8125-0.42578-1.5586-1.0859-2.2344-1.9844v2.2188h-4.8906v-21.281h4.8906z" />
    </symbol>
    <symbol
       overflow="visible"
       id="i-5">
      <path
         id="path2069"
         d="m0.34375-15.312h4.8906l4.125 10.391 3.5-10.391h4.8906l-6.4375 16.766c-0.64844 1.6953-1.4023 2.8828-2.2656 3.5625-0.86719 0.6875-2 1.0312-3.4062 1.0312h-2.8438v-3.2188h1.5312c0.83203 0 1.4375-0.13672 1.8125-0.40625 0.38281-0.26172 0.67969-0.73047 0.89062-1.4062l0.14062-0.42188z" />
    </symbol>
    <symbol
       overflow="visible"
       id="e-9">
      <path
         id="path2072"
         d="m2.5781-20.406h5.25v16.422h9.25v3.9844h-14.5z" />
    </symbol>
    <symbol
       overflow="visible"
       id="h-6">
      <path
         id="path2075"
         d="m16.547-12.766c0.61328-0.94531 1.3477-1.6719 2.2031-2.1719 0.85156-0.5 1.7891-0.75 2.8125-0.75 1.7578 0 3.0977 0.54688 4.0156 1.6406 0.92578 1.0859 1.3906 2.6562 1.3906 4.7188v9.3281h-4.9219v-7.9844-0.35938c0.007813-0.13281 0.015625-0.32031 0.015625-0.5625 0-1.082-0.16406-1.8633-0.48438-2.3438-0.3125-0.48828-0.82422-0.73438-1.5312-0.73438-0.92969 0-1.6484 0.38672-2.1562 1.1562-0.51172 0.76172-0.77344 1.8672-0.78125 3.3125v7.5156h-4.9219v-7.9844c0-1.6953-0.14844-2.7852-0.4375-3.2656-0.29297-0.48828-0.8125-0.73438-1.5625-0.73438-0.9375 0-1.6641 0.38672-2.1719 1.1562-0.51172 0.76172-0.76562 1.8594-0.76562 3.2969v7.5312h-4.9219v-15.312h4.9219v2.2344c0.60156-0.86328 1.2891-1.5156 2.0625-1.9531 0.78125-0.4375 1.6406-0.65625 2.5781-0.65625 1.0625 0 2 0.25781 2.8125 0.76562 0.8125 0.51172 1.4258 1.2305 1.8438 2.1562z" />
    </symbol>
    <symbol
       overflow="visible"
       id="b-2">
      <path
         id="path2078"
         d="m9.6406-12.188c-1.0859 0-1.9141 0.39062-2.4844 1.1719-0.57422 0.78125-0.85938 1.9062-0.85938 3.375s0.28516 2.5938 0.85938 3.375c0.57031 0.77344 1.3984 1.1562 2.4844 1.1562 1.0625 0 1.875-0.38281 2.4375-1.1562 0.57031-0.78125 0.85938-1.9062 0.85938-3.375s-0.28906-2.5938-0.85938-3.375c-0.5625-0.78125-1.375-1.1719-2.4375-1.1719zm0-3.5c2.6328 0 4.6914 0.71484 6.1719 2.1406 1.4766 1.418 2.2188 3.3867 2.2188 5.9062 0 2.5117-0.74219 4.4805-2.2188 5.9062-1.4805 1.418-3.5391 2.125-6.1719 2.125-2.6484 0-4.7148-0.70703-6.2031-2.125-1.4922-1.4258-2.2344-3.3945-2.2344-5.9062 0-2.5195 0.74219-4.4883 2.2344-5.9062 1.4883-1.4258 3.5547-2.1406 6.2031-2.1406z" />
    </symbol>
    <symbol
       overflow="visible"
       id="g-1">
      <path
         id="path2081"
         d="m17.75-9.3281v9.3281h-4.9219v-7.1406c0-1.3203-0.03125-2.2344-0.09375-2.7344s-0.16797-0.86719-0.3125-1.1094c-0.1875-0.3125-0.44922-0.55469-0.78125-0.73438-0.32422-0.17578-0.69531-0.26562-1.1094-0.26562-1.0234 0-1.8242 0.39844-2.4062 1.1875-0.58594 0.78125-0.875 1.8711-0.875 3.2656v7.5312h-4.8906v-15.312h4.8906v2.2344c0.73828-0.88281 1.5195-1.5391 2.3438-1.9688 0.83203-0.42578 1.75-0.64062 2.75-0.64062 1.7695 0 3.1133 0.54688 4.0312 1.6406 0.91406 1.0859 1.375 2.6562 1.375 4.7188z" />
    </symbol>
    <symbol
       overflow="visible"
       id="s-7">
      <path
         id="path2084"
         d="m2.3594-15.312h4.8906v15.312h-4.8906zm0-5.9688h4.8906v4h-4.8906z" />
    </symbol>
    <symbol
       overflow="visible"
       id="f-8">
      <path
         id="path2087"
         d="m2.1875-5.9688v-9.3438h4.9219v1.5312c0 0.83594-0.007813 1.875-0.015625 3.125-0.011719 1.25-0.015625 2.0859-0.015625 2.5 0 1.2422 0.03125 2.1328 0.09375 2.6719 0.070313 0.54297 0.17969 0.93359 0.32812 1.1719 0.20703 0.32422 0.47266 0.57422 0.79688 0.75 0.32031 0.16797 0.69141 0.25 1.1094 0.25 1.0195 0 1.8203-0.39062 2.4062-1.1719 0.58203-0.78125 0.875-1.8672 0.875-3.2656v-7.5625h4.8906v15.312h-4.8906v-2.2188c-0.74219 0.89844-1.5234 1.5586-2.3438 1.9844-0.82422 0.41406-1.7344 0.625-2.7344 0.625-1.7617 0-3.1055-0.53906-4.0312-1.625-0.92969-1.082-1.3906-2.6602-1.3906-4.7344z" />
    </symbol>
    <symbol
       overflow="visible"
       id="r-5">
      <path
         id="path2090"
         d="m12.422-21.281v3.2188h-2.7031c-0.6875 0-1.1719 0.125-1.4531 0.375-0.27344 0.25-0.40625 0.6875-0.40625 1.3125v1.0625h4.1875v3.5h-4.1875v11.812h-4.8906v-11.812h-2.4375v-3.5h2.4375v-1.0625c0-1.6641 0.46094-2.8984 1.3906-3.7031 0.92578-0.80078 2.3672-1.2031 4.3281-1.2031z" />
    </symbol>
    <symbol
       overflow="visible"
       id="q-7">
      <path
         id="path2093"
         d="m17.75-9.3281v9.3281h-4.9219v-7.1094c0-1.3438-0.03125-2.2656-0.09375-2.7656s-0.16797-0.86719-0.3125-1.1094c-0.1875-0.3125-0.44922-0.55469-0.78125-0.73438-0.32422-0.17578-0.69531-0.26562-1.1094-0.26562-1.0234 0-1.8242 0.39844-2.4062 1.1875-0.58594 0.78125-0.875 1.8711-0.875 3.2656v7.5312h-4.8906v-21.281h4.8906v8.2031c0.73828-0.88281 1.5195-1.5391 2.3438-1.9688 0.83203-0.42578 1.75-0.64062 2.75-0.64062 1.7695 0 3.1133 0.54688 4.0312 1.6406 0.91406 1.0859 1.375 2.6562 1.375 4.7188z" />
    </symbol>
    <symbol
       overflow="visible"
       id="p-4">
      <path
         id="path2096"
         d="m2.5781-20.406h5.875l7.4219 14v-14h4.9844v20.406h-5.875l-7.4219-14v14h-4.9844z" />
    </symbol>
    <symbol
       overflow="visible"
       id="o-1">
      <path
         id="path2099"
         d="m2.5781-20.406h8.7344c2.5938 0 4.582 0.57812 5.9688 1.7344 1.3945 1.1484 2.0938 2.7891 2.0938 4.9219 0 2.1367-0.69922 3.7812-2.0938 4.9375-1.3867 1.1562-3.375 1.7344-5.9688 1.7344h-3.4844v7.0781h-5.25zm5.25 3.8125v5.7031h2.9219c1.0195 0 1.8047-0.25 2.3594-0.75 0.5625-0.5 0.84375-1.2031 0.84375-2.1094 0-0.91406-0.28125-1.6172-0.84375-2.1094-0.55469-0.48828-1.3398-0.73438-2.3594-0.73438z" />
    </symbol>
    <symbol
       overflow="visible"
       id="n-8">
      <path
         id="path2102"
         d="m2.3594-15.312h4.8906v15.031c0 2.0508-0.49609 3.6172-1.4844 4.7031-0.98047 1.082-2.4062 1.625-4.2812 1.625h-2.4219v-3.2188h0.85938c0.92578 0 1.5625-0.21094 1.9062-0.625 0.35156-0.41797 0.53125-1.2461 0.53125-2.4844zm0-5.9688h4.8906v4h-4.8906z" />
    </symbol>
    <symbol
       overflow="visible"
       id="m-5">
      <path
         id="path2105"
         d="m14.719-14.828v3.9844c-0.65625-0.45703-1.3242-0.79688-2-1.0156-0.66797-0.21875-1.3594-0.32812-2.0781-0.32812-1.3672 0-2.4336 0.40234-3.2031 1.2031-0.76172 0.79297-1.1406 1.9062-1.1406 3.3438 0 1.4297 0.37891 2.543 1.1406 3.3438 0.76953 0.79297 1.8359 1.1875 3.2031 1.1875 0.75781 0 1.4844-0.10938 2.1719-0.32812 0.6875-0.22656 1.3203-0.56641 1.9062-1.0156v4c-0.76172 0.28125-1.5391 0.48828-2.3281 0.625-0.78125 0.14453-1.5742 0.21875-2.375 0.21875-2.7617 0-4.9219-0.70703-6.4844-2.125-1.5547-1.4141-2.3281-3.3828-2.3281-5.9062 0-2.5312 0.77344-4.5039 2.3281-5.9219 1.5625-1.4141 3.7227-2.125 6.4844-2.125 0.80078 0 1.5938 0.074219 2.375 0.21875 0.78125 0.13672 1.5547 0.35156 2.3281 0.64062z" />
    </symbol>
    <symbol
       overflow="visible"
       id="o-3">
      <path
         id="path2584"
         d="m29.312-1.75c-1.5117 0.78125-3.0898 1.3711-4.7344 1.7656-1.6367 0.40625-3.3398 0.60938-5.1094 0.60938-5.3125 0-9.5273-1.4844-12.641-4.4531-3.1055-2.9688-4.6562-7-4.6562-12.094s1.5508-9.125 4.6562-12.094c3.1133-2.9688 7.3281-4.4531 12.641-4.4531 1.7695 0 3.4727 0.19922 5.1094 0.59375 1.6445 0.39844 3.2227 0.99219 4.7344 1.7812v6.5938c-1.5312-1.0391-3.0391-1.8008-4.5156-2.2812-1.4805-0.48828-3.0391-0.73438-4.6719-0.73438-2.9375 0-5.2461 0.94531-6.9219 2.8281-1.6797 1.875-2.5156 4.4648-2.5156 7.7656 0 3.293 0.83594 5.8828 2.5156 7.7656 1.6758 1.875 3.9844 2.8125 6.9219 2.8125 1.6328 0 3.1914-0.23828 4.6719-0.71875 1.4766-0.48828 2.9844-1.2539 4.5156-2.2969z" />
    </symbol>
    <symbol
       overflow="visible"
       id="j-8">
      <path
         id="path2587"
         d="m21.453-17.406c-0.67969-0.3125-1.3516-0.53906-2.0156-0.6875-0.65625-0.15625-1.3203-0.23438-1.9844-0.23438-1.9688 0-3.4844 0.63281-4.5469 1.8906-1.0547 1.2617-1.5781 3.0703-1.5781 5.4219v11.016h-7.6562v-23.922h7.6562v3.9219c0.97656-1.5625 2.1016-2.7031 3.375-3.4219 1.2812-0.71875 2.8125-1.0781 4.5938-1.0781 0.25 0 0.52344 0.011719 0.82812 0.03125 0.30078 0.023438 0.73438 0.070312 1.2969 0.14062z" />
    </symbol>
    <symbol
       overflow="visible"
       id="b-8">
      <path
         id="path2590"
         d="m27.562-12.031v2.1875h-17.891c0.1875 1.793 0.83203 3.1367 1.9375 4.0312 1.1133 0.89844 2.6719 1.3438 4.6719 1.3438 1.6016 0 3.25-0.23438 4.9375-0.70312 1.6875-0.47656 3.4219-1.2031 5.2031-2.1719v5.8906c-1.8047 0.6875-3.6094 1.2031-5.4219 1.5469-1.8125 0.35156-3.6211 0.53125-5.4219 0.53125-4.3359 0-7.7031-1.0977-10.109-3.2969-2.3984-2.207-3.5938-5.2969-3.5938-9.2656 0-3.9062 1.1758-6.9727 3.5312-9.2031 2.3633-2.2383 5.6094-3.3594 9.7344-3.3594 3.7578 0 6.7695 1.1367 9.0312 3.4062 2.2578 2.2617 3.3906 5.2812 3.3906 9.0625zm-7.8594-2.5312c0-1.457-0.42969-2.6289-1.2812-3.5156-0.84375-0.89453-1.9492-1.3438-3.3125-1.3438-1.4922 0-2.6992 0.41797-3.625 1.25-0.91797 0.83594-1.4922 2.0391-1.7188 3.6094z" />
    </symbol>
    <symbol
       overflow="visible"
       id="a-3">
      <path
         id="path2593"
         d="m14.391-10.766c-1.5938 0-2.793 0.27344-3.5938 0.8125-0.80469 0.54297-1.2031 1.3398-1.2031 2.3906 0 0.96875 0.32031 1.7305 0.96875 2.2812 0.64453 0.54297 1.5469 0.8125 2.7031 0.8125 1.4375 0 2.6445-0.51562 3.625-1.5469 0.98828-1.0312 1.4844-2.3203 1.4844-3.875v-0.875zm11.688-2.8906v13.656h-7.7031v-3.5469c-1.0312 1.4492-2.1875 2.5078-3.4688 3.1719s-2.8398 1-4.6719 1c-2.4805 0-4.4961-0.72266-6.0469-2.1719-1.543-1.4453-2.3125-3.3203-2.3125-5.625 0-2.8125 0.96094-4.8672 2.8906-6.1719 1.9375-1.3125 4.9688-1.9688 9.0938-1.9688h4.5156v-0.60938c0-1.207-0.48047-2.0938-1.4375-2.6562-0.94922-0.5625-2.4375-0.84375-4.4688-0.84375-1.6367 0-3.1562 0.16797-4.5625 0.5-1.4062 0.32422-2.7188 0.8125-3.9375 1.4688v-5.8281c1.6445-0.40625 3.2891-0.70703 4.9375-0.90625 1.6562-0.20703 3.3047-0.3125 4.9531-0.3125 4.3203 0 7.4375 0.85547 9.3438 2.5625 1.9141 1.6992 2.875 4.4609 2.875 8.2812z" />
    </symbol>
    <symbol
       overflow="visible"
       id="i-1">
      <path
         id="path2596"
         d="m12.031-30.719v6.7969h7.875v5.4688h-7.875v10.141c0 1.1172 0.21875 1.8711 0.65625 2.2656 0.4375 0.38672 1.3125 0.57812 2.625 0.57812h3.9375v5.4688h-6.5625c-3.0234 0-5.1641-0.62891-6.4219-1.8906-1.2617-1.2578-1.8906-3.3984-1.8906-6.4219v-10.141h-3.7969v-5.4688h3.7969v-6.7969z" />
    </symbol>
    <symbol
       overflow="visible"
       id="h-8">
      <path
         id="path2599"
         d="m19.953-20.422v-12.812h7.6875v33.234h-7.6875v-3.4531c-1.0547 1.4062-2.2148 2.4375-3.4844 3.0938-1.2734 0.65625-2.7422 0.98438-4.4062 0.98438-2.9492 0-5.3711-1.1719-7.2656-3.5156-1.8867-2.3438-2.8281-5.3594-2.8281-9.0469s0.94141-6.7031 2.8281-9.0469c1.8945-2.3438 4.3164-3.5156 7.2656-3.5156 1.6562 0 3.1172 0.33594 4.3906 1 1.2812 0.65625 2.4453 1.6836 3.5 3.0781zm-5.0469 15.484c1.6445 0 2.8945-0.59766 3.75-1.7969 0.86328-1.1953 1.2969-2.9297 1.2969-5.2031 0-2.2812-0.43359-4.0195-1.2969-5.2188-0.85547-1.1953-2.1055-1.7969-3.75-1.7969-1.625 0-2.8711 0.60156-3.7344 1.7969-0.85547 1.1992-1.2812 2.9375-1.2812 5.2188 0 2.2734 0.42578 4.0078 1.2812 5.2031 0.86328 1.1992 2.1094 1.7969 3.7344 1.7969z" />
    </symbol>
    <symbol
       overflow="visible"
       id="g-9">
      <path
         id="path2602"
         d="m16.406-4.9375c1.6328 0 2.8828-0.59766 3.75-1.7969 0.86328-1.1953 1.2969-2.9297 1.2969-5.2031 0-2.2812-0.43359-4.0195-1.2969-5.2188-0.86719-1.1953-2.1172-1.7969-3.75-1.7969-1.6367 0-2.8906 0.60547-3.7656 1.8125-0.875 1.1992-1.3125 2.9336-1.3125 5.2031 0 2.2617 0.4375 3.9961 1.3125 5.2031 0.875 1.1992 2.1289 1.7969 3.7656 1.7969zm-5.0781-15.484c1.0508-1.3945 2.2188-2.4219 3.5-3.0781 1.2812-0.66406 2.7539-1 4.4219-1 2.9453 0 5.3672 1.1719 7.2656 3.5156 1.8945 2.3438 2.8438 5.3594 2.8438 9.0469s-0.94922 6.7031-2.8438 9.0469c-1.8984 2.3438-4.3203 3.5156-7.2656 3.5156-1.668 0-3.1406-0.33594-4.4219-1s-2.4492-1.6914-3.5-3.0781v3.4531h-7.6562v-33.234h7.6562z" />
    </symbol>
    <symbol
       overflow="visible"
       id="f-6">
      <path
         id="path2605"
         d="m0.53125-23.922h7.6562l6.4219 16.234 5.4688-16.234h7.6562l-10.062 26.188c-1.0117 2.6641-2.1953 4.5234-3.5469 5.5781-1.3438 1.0625-3.1211 1.5938-5.3281 1.5938h-4.4219v-5.0156h2.3906c1.3008 0 2.2422-0.21094 2.8281-0.625 0.59375-0.40625 1.0547-1.1484 1.3906-2.2188l0.20312-0.65625z" />
    </symbol>
    <symbol
       overflow="visible"
       id="e-4">
      <path
         id="path2608"
         d="m4.0156-31.891h8.2188v11.641l11.859-11.641h9.5469l-15.359 15.094 16.938 16.797h-10.281l-12.703-12.562v12.562h-8.2188z" />
    </symbol>
    <symbol
       overflow="visible"
       id="n-3">
      <path
         id="path2611"
         d="m25.844-19.953c0.96875-1.4766 2.1172-2.6016 3.4531-3.375 1.332-0.78125 2.7969-1.1719 4.3906-1.1719 2.75 0 4.8438 0.85156 6.2812 2.5469 1.4375 1.6875 2.1562 4.1523 2.1562 7.3906v14.562h-7.6875v-12.469c0.007812-0.1875 0.019531-0.37891 0.03125-0.57812 0.007812-0.19531 0.015625-0.48438 0.015625-0.85938 0-1.6953-0.25-2.9258-0.75-3.6875-0.5-0.75781-1.3086-1.1406-2.4219-1.1406-1.4492 0-2.5703 0.60156-3.3594 1.7969-0.79297 1.1992-1.2031 2.9297-1.2344 5.1875v11.75h-7.6875v-12.469c0-2.6562-0.23047-4.3633-0.6875-5.125-0.44922-0.75781-1.2578-1.1406-2.4219-1.1406-1.4688 0-2.6055 0.60547-3.4062 1.8125-0.79297 1.1992-1.1875 2.918-1.1875 5.1562v11.766h-7.7031v-23.922h7.7031v3.5c0.9375-1.3516 2.0156-2.3672 3.2344-3.0469 1.2188-0.6875 2.5547-1.0312 4.0156-1.0312 1.6562 0 3.1133 0.40234 4.375 1.2031 1.2695 0.79297 2.2344 1.9062 2.8906 3.3438z" />
    </symbol>
    <symbol
       overflow="visible"
       id="d-3">
      <path
         id="path2614"
         d="m3.6719-23.922h7.6562v23.922h-7.6562zm0-9.3125h7.6562v6.2344h-7.6562z" />
    </symbol>
    <symbol
       overflow="visible"
       id="c-38">
      <path
         id="path2617"
         d="m27.734-14.562v14.562h-7.7031v-11.156c0-2.0625-0.046875-3.4844-0.14062-4.2656-0.085937-0.78125-0.24219-1.3594-0.46875-1.7344-0.30469-0.5-0.71094-0.88281-1.2188-1.1562-0.51172-0.28125-1.0938-0.42188-1.75-0.42188-1.5938 0-2.8516 0.61719-3.7656 1.8438-0.90625 1.2305-1.3594 2.9375-1.3594 5.125v11.766h-7.6562v-23.922h7.6562v3.5c1.1445-1.3945 2.3633-2.4219 3.6562-3.0781 1.3008-0.66406 2.7383-1 4.3125-1 2.7578 0 4.8516 0.85156 6.2812 2.5469 1.4375 1.6875 2.1562 4.1523 2.1562 7.3906z" />
    </symbol>
    <symbol
       overflow="visible"
       id="m-6">
      <path
         id="path2620"
         d="m32.688-2.375c-2.0547 1-4.1836 1.75-6.3906 2.25-2.2109 0.5-4.4844 0.75-6.8281 0.75-5.3125 0-9.5273-1.4844-12.641-4.4531-3.1055-2.9688-4.6562-7-4.6562-12.094 0-5.1328 1.5781-9.1758 4.7344-12.125 3.1641-2.9453 7.5-4.4219 13-4.4219 2.125 0 4.1562 0.19922 6.0938 0.59375 1.9453 0.39844 3.7852 0.99219 5.5156 1.7812v6.5938c-1.7812-1.0078-3.5547-1.7656-5.3125-2.2656-1.7617-0.5-3.5273-0.75-5.2969-0.75-3.2734 0-5.793 0.91797-7.5625 2.75-1.7734 1.8359-2.6562 4.4492-2.6562 7.8438 0 3.375 0.85156 5.9844 2.5625 7.8281 1.707 1.8359 4.1328 2.75 7.2812 2.75 0.85156 0 1.6445-0.050781 2.375-0.15625 0.73828-0.10156 1.3984-0.26953 1.9844-0.5v-6.2031h-5.0312v-5.5h12.828z" />
    </symbol>
    <symbol
       overflow="visible"
       id="l-0">
      <path
         id="path2623"
         d="m3.6719-33.234h7.6562v18.094l8.7969-8.7812h8.8906l-11.688 10.969 12.594 12.953h-9.2656l-9.3281-9.9688v9.9688h-7.6562z" />
    </symbol>
    <symbol
       overflow="visible"
       id="k-4">
      <path
         id="path2626"
         d="m1.5312-23.922h7.4375l4.0156 16.484 4.0469-16.484h6.375l4.0156 16.312 4.0469-16.312h7.4375l-6.3125 23.922h-8.3438l-4.0469-16.453-4.0156 16.453h-8.3438z" />
    </symbol>
    <symbol
       overflow="visible"
       id="u">
      <path
         id="path3119"
         d="m18.766-1.125c-0.96875 0.5-1.9805 0.875-3.0312 1.125-1.043 0.25781-2.1367 0.39062-3.2812 0.39062-3.3984 0-6.0898-0.94531-8.0781-2.8438-1.9922-1.9062-2.9844-4.4844-2.9844-7.7344 0-3.2578 0.99219-5.8359 2.9844-7.7344 1.9883-1.9062 4.6797-2.8594 8.0781-2.8594 1.1445 0 2.2383 0.13281 3.2812 0.39062 1.0508 0.25 2.0625 0.625 3.0312 1.125v4.2188c-0.98047-0.65625-1.9453-1.1406-2.8906-1.4531-0.94922-0.3125-1.9492-0.46875-3-0.46875-1.875 0-3.3516 0.60547-4.4219 1.8125-1.0742 1.1992-1.6094 2.8555-1.6094 4.9688 0 2.1055 0.53516 3.7617 1.6094 4.9688 1.0703 1.1992 2.5469 1.7969 4.4219 1.7969 1.0508 0 2.0508-0.14844 3-0.45312 0.94531-0.3125 1.9102-0.80078 2.8906-1.4688z" />
    </symbol>
    <symbol
       overflow="visible"
       id="c-8">
      <path
         id="path3122"
         d="m13.734-11.141c-0.4375-0.19531-0.87109-0.34375-1.2969-0.4375-0.41797-0.10156-0.83984-0.15625-1.2656-0.15625-1.2617 0-2.2305 0.40625-2.9062 1.2188-0.67969 0.80469-1.0156 1.9531-1.0156 3.4531v7.0625h-4.8906v-15.312h4.8906v2.5156c0.625-1 1.3438-1.7266 2.1562-2.1875 0.82031-0.46875 1.8008-0.70312 2.9375-0.70312 0.16406 0 0.34375 0.011719 0.53125 0.03125 0.19531 0.011719 0.47656 0.039062 0.84375 0.078125z" />
    </symbol>
    <symbol
       overflow="visible"
       id="a-8">
      <path
         id="path3125"
         d="m17.641-7.7031v1.4062h-11.453c0.125 1.1484 0.53906 2.0078 1.25 2.5781 0.70703 0.57422 1.7031 0.85938 2.9844 0.85938 1.0312 0 2.082-0.14844 3.1562-0.45312 1.082-0.3125 2.1914-0.77344 3.3281-1.3906v3.7656c-1.1562 0.4375-2.3125 0.76562-3.4688 0.98438-1.1562 0.22656-2.3125 0.34375-3.4688 0.34375-2.7734 0-4.9297-0.70312-6.4688-2.1094-1.5312-1.4062-2.2969-3.3789-2.2969-5.9219 0-2.5 0.75391-4.4609 2.2656-5.8906 1.5078-1.4375 3.582-2.1562 6.2188-2.1562 2.4062 0 4.332 0.73047 5.7812 2.1875 1.4453 1.4492 2.1719 3.3828 2.1719 5.7969zm-5.0312-1.625c0-0.92578-0.27344-1.6719-0.8125-2.2344-0.54297-0.57031-1.25-0.85938-2.125-0.85938-0.94922 0-1.7188 0.26562-2.3125 0.79688s-0.96484 1.2969-1.1094 2.2969z" />
    </symbol>
    <symbol
       overflow="visible"
       id="b-89">
      <path
         id="path3128"
         d="m9.2188-6.8906c-1.0234 0-1.793 0.17188-2.3125 0.51562-0.51172 0.34375-0.76562 0.85547-0.76562 1.5312 0 0.625 0.20703 1.1172 0.625 1.4688 0.41406 0.34375 0.98828 0.51562 1.7188 0.51562 0.92578 0 1.7031-0.32812 2.3281-0.98438 0.63281-0.66406 0.95312-1.4922 0.95312-2.4844v-0.5625zm7.4688-1.8438v8.7344h-4.9219v-2.2656c-0.65625 0.92969-1.3984 1.6055-2.2188 2.0312-0.82422 0.41406-1.8242 0.625-3 0.625-1.5859 0-2.8711-0.45703-3.8594-1.375-0.99219-0.92578-1.4844-2.1289-1.4844-3.6094 0-1.7891 0.61328-3.1016 1.8438-3.9375 1.2383-0.84375 3.1797-1.2656 5.8281-1.2656h2.8906v-0.39062c0-0.76953-0.30859-1.332-0.92188-1.6875-0.61719-0.36328-1.5703-0.54688-2.8594-0.54688-1.0547 0-2.0312 0.10547-2.9375 0.3125-0.89844 0.21094-1.7305 0.52344-2.5 0.9375v-3.7344c1.0391-0.25 2.0859-0.44141 3.1406-0.57812 1.0625-0.13281 2.125-0.20312 3.1875-0.20312 2.7578 0 4.75 0.54688 5.9688 1.6406 1.2266 1.0859 1.8438 2.8555 1.8438 5.3125z" />
    </symbol>
    <symbol
       overflow="visible"
       id="d-7">
      <path
         id="path3131"
         d="m7.7031-19.656v4.3438h5.0469v3.5h-5.0469v6.5c0 0.71094 0.14062 1.1875 0.42188 1.4375s0.83594 0.375 1.6719 0.375h2.5156v3.5h-4.1875c-1.9375 0-3.3125-0.39844-4.125-1.2031-0.80469-0.8125-1.2031-2.1797-1.2031-4.1094v-6.5h-2.4219v-3.5h2.4219v-4.3438z" />
    </symbol>
    <symbol
       overflow="visible"
       id="l-7">
      <path
         id="path3134"
         d="m12.766-13.078v-8.2031h4.9219v21.281h-4.9219v-2.2188c-0.66797 0.90625-1.4062 1.5703-2.2188 1.9844s-1.7578 0.625-2.8281 0.625c-1.8867 0-3.4336-0.75-4.6406-2.25-1.2109-1.5-1.8125-3.4258-1.8125-5.7812 0-2.3633 0.60156-4.2969 1.8125-5.7969 1.207-1.5 2.7539-2.25 4.6406-2.25 1.0625 0 2 0.21484 2.8125 0.64062 0.82031 0.42969 1.5664 1.0859 2.2344 1.9688zm-3.2188 9.9219c1.0391 0 1.8359-0.37891 2.3906-1.1406 0.55078-0.76953 0.82812-1.8828 0.82812-3.3438 0-1.457-0.27734-2.5664-0.82812-3.3281-0.55469-0.76953-1.3516-1.1562-2.3906-1.1562-1.043 0-1.8398 0.38672-2.3906 1.1562-0.55469 0.76172-0.82812 1.8711-0.82812 3.3281 0 1.4609 0.27344 2.5742 0.82812 3.3438 0.55078 0.76172 1.3477 1.1406 2.3906 1.1406z" />
    </symbol>
    <symbol
       overflow="visible"
       id="k-6">
      <path
         id="path3137"
         d="m10.5-3.1562c1.0508 0 1.8516-0.37891 2.4062-1.1406 0.55078-0.76953 0.82812-1.8828 0.82812-3.3438 0-1.457-0.27734-2.5664-0.82812-3.3281-0.55469-0.76953-1.3555-1.1562-2.4062-1.1562-1.0547 0-1.8594 0.38672-2.4219 1.1562-0.55469 0.77344-0.82812 1.8828-0.82812 3.3281 0 1.4492 0.27344 2.5586 0.82812 3.3281 0.5625 0.77344 1.3672 1.1562 2.4219 1.1562zm-3.25-9.9219c0.67578-0.88281 1.4219-1.5391 2.2344-1.9688 0.82031-0.42578 1.7656-0.64062 2.8281-0.64062 1.8945 0 3.4453 0.75 4.6562 2.25 1.207 1.5 1.8125 3.4336 1.8125 5.7969 0 2.3555-0.60547 4.2812-1.8125 5.7812-1.2109 1.5-2.7617 2.25-4.6562 2.25-1.0625 0-2.0078-0.21094-2.8281-0.625-0.8125-0.42578-1.5586-1.0859-2.2344-1.9844v2.2188h-4.8906v-21.281h4.8906z" />
    </symbol>
    <symbol
       overflow="visible"
       id="j-4">
      <path
         id="path3140"
         d="m0.34375-15.312h4.8906l4.125 10.391 3.5-10.391h4.8906l-6.4375 16.766c-0.64844 1.6953-1.4023 2.8828-2.2656 3.5625-0.86719 0.6875-2 1.0312-3.4062 1.0312h-2.8438v-3.2188h1.5312c0.83203 0 1.4375-0.13672 1.8125-0.40625 0.38281-0.26172 0.67969-0.73047 0.89062-1.4062l0.14062-0.42188z" />
    </symbol>
    <symbol
       overflow="visible"
       id="g-3">
      <path
         id="path3143"
         d="m2.5781-20.406h8.7344c2.5938 0 4.582 0.57812 5.9688 1.7344 1.3945 1.1484 2.0938 2.7891 2.0938 4.9219 0 2.1367-0.69922 3.7812-2.0938 4.9375-1.3867 1.1562-3.375 1.7344-5.9688 1.7344h-3.4844v7.0781h-5.25zm5.25 3.8125v5.7031h2.9219c1.0195 0 1.8047-0.25 2.3594-0.75 0.5625-0.5 0.84375-1.2031 0.84375-2.1094 0-0.91406-0.28125-1.6172-0.84375-2.1094-0.55469-0.48828-1.3398-0.73438-2.3594-0.73438z" />
    </symbol>
    <symbol
       overflow="visible"
       id="t-0">
      <path
         id="path3146"
         d="m2.3594-21.281h4.8906v21.281h-4.8906z" />
    </symbol>
    <symbol
       overflow="visible"
       id="s-3">
      <path
         id="path3149"
         d="m2.3594-15.312h4.8906v15.312h-4.8906zm0-5.9688h4.8906v4h-4.8906z" />
    </symbol>
    <symbol
       overflow="visible"
       id="f-0">
      <path
         id="path3152"
         d="m17.75-9.3281v9.3281h-4.9219v-7.1406c0-1.3203-0.03125-2.2344-0.09375-2.7344s-0.16797-0.86719-0.3125-1.1094c-0.1875-0.3125-0.44922-0.55469-0.78125-0.73438-0.32422-0.17578-0.69531-0.26562-1.1094-0.26562-1.0234 0-1.8242 0.39844-2.4062 1.1875-0.58594 0.78125-0.875 1.8711-0.875 3.2656v7.5312h-4.8906v-15.312h4.8906v2.2344c0.73828-0.88281 1.5195-1.5391 2.3438-1.9688 0.83203-0.42578 1.75-0.64062 2.75-0.64062 1.7695 0 3.1133 0.54688 4.0312 1.6406 0.91406 1.0859 1.375 2.6562 1.375 4.7188z" />
    </symbol>
    <symbol
       overflow="visible"
       id="r-9">
      <path
         id="path3155"
         d="m2.5781-20.406h5.25v7.4375l7.5938-7.4375h6.1094l-9.8281 9.6562 10.844 10.75h-6.5938l-8.125-8.0469v8.0469h-5.25z" />
    </symbol>
    <symbol
       overflow="visible"
       id="i-2">
      <path
         id="path3158"
         d="m17.75-9.3281v9.3281h-4.9219v-7.1094c0-1.3438-0.03125-2.2656-0.09375-2.7656s-0.16797-0.86719-0.3125-1.1094c-0.1875-0.3125-0.44922-0.55469-0.78125-0.73438-0.32422-0.17578-0.69531-0.26562-1.1094-0.26562-1.0234 0-1.8242 0.39844-2.4062 1.1875-0.58594 0.78125-0.875 1.8711-0.875 3.2656v7.5312h-4.8906v-21.281h4.8906v8.2031c0.73828-0.88281 1.5195-1.5391 2.3438-1.9688 0.83203-0.42578 1.75-0.64062 2.75-0.64062 1.7695 0 3.1133 0.54688 4.0312 1.6406 0.91406 1.0859 1.375 2.6562 1.375 4.7188z" />
    </symbol>
    <symbol
       overflow="visible"
       id="h-5">
      <path
         id="path3161"
         d="m16.547-12.766c0.61328-0.94531 1.3477-1.6719 2.2031-2.1719 0.85156-0.5 1.7891-0.75 2.8125-0.75 1.7578 0 3.0977 0.54688 4.0156 1.6406 0.92578 1.0859 1.3906 2.6562 1.3906 4.7188v9.3281h-4.9219v-7.9844-0.35938c0.007813-0.13281 0.015625-0.32031 0.015625-0.5625 0-1.082-0.16406-1.8633-0.48438-2.3438-0.3125-0.48828-0.82422-0.73438-1.5312-0.73438-0.92969 0-1.6484 0.38672-2.1562 1.1562-0.51172 0.76172-0.77344 1.8672-0.78125 3.3125v7.5156h-4.9219v-7.9844c0-1.6953-0.14844-2.7852-0.4375-3.2656-0.29297-0.48828-0.8125-0.73438-1.5625-0.73438-0.9375 0-1.6641 0.38672-2.1719 1.1562-0.51172 0.76172-0.76562 1.8594-0.76562 3.2969v7.5312h-4.9219v-15.312h4.9219v2.2344c0.60156-0.86328 1.2891-1.5156 2.0625-1.9531 0.78125-0.4375 1.6406-0.65625 2.5781-0.65625 1.0625 0 2 0.25781 2.8125 0.76562 0.8125 0.51172 1.4258 1.2305 1.8438 2.1562z" />
    </symbol>
    <symbol
       overflow="visible"
       id="q-4">
      <path
         id="path3164"
         d="m12.422-21.281v3.2188h-2.7031c-0.6875 0-1.1719 0.125-1.4531 0.375-0.27344 0.25-0.40625 0.6875-0.40625 1.3125v1.0625h4.1875v3.5h-4.1875v11.812h-4.8906v-11.812h-2.4375v-3.5h2.4375v-1.0625c0-1.6641 0.46094-2.8984 1.3906-3.7031 0.92578-0.80078 2.3672-1.2031 4.3281-1.2031z" />
    </symbol>
    <symbol
       overflow="visible"
       id="e-0">
      <path
         id="path3167"
         d="m9.6406-12.188c-1.0859 0-1.9141 0.39062-2.4844 1.1719-0.57422 0.78125-0.85938 1.9062-0.85938 3.375s0.28516 2.5938 0.85938 3.375c0.57031 0.77344 1.3984 1.1562 2.4844 1.1562 1.0625 0 1.875-0.38281 2.4375-1.1562 0.57031-0.78125 0.85938-1.9062 0.85938-3.375s-0.28906-2.5938-0.85938-3.375c-0.5625-0.78125-1.375-1.1719-2.4375-1.1719zm0-3.5c2.6328 0 4.6914 0.71484 6.1719 2.1406 1.4766 1.418 2.2188 3.3867 2.2188 5.9062 0 2.5117-0.74219 4.4805-2.2188 5.9062-1.4805 1.418-3.5391 2.125-6.1719 2.125-2.6484 0-4.7148-0.70703-6.2031-2.125-1.4922-1.4258-2.2344-3.3945-2.2344-5.9062 0-2.5195 0.74219-4.4883 2.2344-5.9062 1.4883-1.4258 3.5547-2.1406 6.2031-2.1406z" />
    </symbol>
    <symbol
       overflow="visible"
       id="p-5">
      <path
         id="path3170"
         d="m2.5781-20.406h5.875l7.4219 14v-14h4.9844v20.406h-5.875l-7.4219-14v14h-4.9844z" />
    </symbol>
    <symbol
       overflow="visible"
       id="o-9">
      <path
         id="path3173"
         d="m2.1875-5.9688v-9.3438h4.9219v1.5312c0 0.83594-0.007813 1.875-0.015625 3.125-0.011719 1.25-0.015625 2.0859-0.015625 2.5 0 1.2422 0.03125 2.1328 0.09375 2.6719 0.070313 0.54297 0.17969 0.93359 0.32812 1.1719 0.20703 0.32422 0.47266 0.57422 0.79688 0.75 0.32031 0.16797 0.69141 0.25 1.1094 0.25 1.0195 0 1.8203-0.39062 2.4062-1.1719 0.58203-0.78125 0.875-1.8672 0.875-3.2656v-7.5625h4.8906v15.312h-4.8906v-2.2188c-0.74219 0.89844-1.5234 1.5586-2.3438 1.9844-0.82422 0.41406-1.7344 0.625-2.7344 0.625-1.7617 0-3.1055-0.53906-4.0312-1.625-0.92969-1.082-1.3906-2.6602-1.3906-4.7344z" />
    </symbol>
    <symbol
       overflow="visible"
       id="n-4">
      <path
         id="path3176"
         d="m2.3594-15.312h4.8906v15.031c0 2.0508-0.49609 3.6172-1.4844 4.7031-0.98047 1.082-2.4062 1.625-4.2812 1.625h-2.4219v-3.2188h0.85938c0.92578 0 1.5625-0.21094 1.9062-0.625 0.35156-0.41797 0.53125-1.2461 0.53125-2.4844zm0-5.9688h4.8906v4h-4.8906z" />
    </symbol>
    <symbol
       overflow="visible"
       id="m-69">
      <path
         id="path3179"
         d="m14.719-14.828v3.9844c-0.65625-0.45703-1.3242-0.79688-2-1.0156-0.66797-0.21875-1.3594-0.32812-2.0781-0.32812-1.3672 0-2.4336 0.40234-3.2031 1.2031-0.76172 0.79297-1.1406 1.9062-1.1406 3.3438 0 1.4297 0.37891 2.543 1.1406 3.3438 0.76953 0.79297 1.8359 1.1875 3.2031 1.1875 0.75781 0 1.4844-0.10938 2.1719-0.32812 0.6875-0.22656 1.3203-0.56641 1.9062-1.0156v4c-0.76172 0.28125-1.5391 0.48828-2.3281 0.625-0.78125 0.14453-1.5742 0.21875-2.375 0.21875-2.7617 0-4.9219-0.70703-6.4844-2.125-1.5547-1.4141-2.3281-3.3828-2.3281-5.9062 0-2.5312 0.77344-4.5039 2.3281-5.9219 1.5625-1.4141 3.7227-2.125 6.4844-2.125 0.80078 0 1.5938 0.074219 2.375 0.21875 0.78125 0.13672 1.5547 0.35156 2.3281 0.64062z" />
    </symbol>
    <symbol
       overflow="visible"
       id="o-2">
      <path
         id="path3655"
         d="m28.672-1.7188c-1.4805 0.77344-3.0234 1.3516-4.625 1.7344-1.5938 0.39453-3.2656 0.59375-5.0156 0.59375-5.1875 0-9.3047-1.4531-12.344-4.3594-3.043-2.9062-4.5625-6.8438-4.5625-11.812 0-4.9883 1.5195-8.9375 4.5625-11.844 3.0391-2.9062 7.1562-4.3594 12.344-4.3594 1.75 0 3.4219 0.19922 5.0156 0.59375 1.6016 0.38672 3.1445 0.96484 4.625 1.7344v6.4531c-1.4922-1.0195-2.9609-1.7656-4.4062-2.2344-1.4492-0.47656-2.9766-0.71875-4.5781-0.71875-2.875 0-5.1367 0.92188-6.7812 2.7656-1.6367 1.8359-2.4531 4.3711-2.4531 7.6094 0 3.2188 0.81641 5.75 2.4531 7.5938 1.6445 1.8359 3.9062 2.75 6.7812 2.75 1.6016 0 3.1289-0.23438 4.5781-0.70312 1.4453-0.47656 2.9141-1.2266 4.4062-2.25z" />
    </symbol>
    <symbol
       overflow="visible"
       id="i-24">
      <path
         id="path3658"
         d="m20.984-17.031c-0.65625-0.30078-1.3086-0.52344-1.9531-0.67188-0.64844-0.14453-1.2969-0.21875-1.9531-0.21875-1.9297 0-3.4141 0.61719-4.4531 1.8438-1.0312 1.2305-1.5469 2.9961-1.5469 5.2969v10.781h-7.4844v-23.406h7.4844v3.8438c0.95703-1.5312 2.0547-2.6445 3.2969-3.3438 1.25-0.70703 2.75-1.0625 4.5-1.0625 0.25 0 0.51953 0.011719 0.8125 0.03125 0.28906 0.023438 0.71094 0.070312 1.2656 0.14062z" />
    </symbol>
    <symbol
       overflow="visible"
       id="a-77">
      <path
         id="path3661"
         d="m26.953-11.766v2.125h-17.484c0.17578 1.7617 0.80469 3.0781 1.8906 3.9531 1.0938 0.875 2.6133 1.3125 4.5625 1.3125 1.5703 0 3.1797-0.22656 4.8281-0.6875 1.6562-0.46875 3.3516-1.1758 5.0938-2.125v5.7656c-1.7617 0.66797-3.5273 1.1719-5.2969 1.5156-1.7734 0.34375-3.543 0.51562-5.3125 0.51562-4.2422 0-7.5312-1.0703-9.875-3.2188-2.3438-2.1562-3.5156-5.1797-3.5156-9.0781 0-3.8125 1.1484-6.8125 3.4531-9 2.3008-2.1875 5.4727-3.2812 9.5156-3.2812 3.6758 0 6.6172 1.1094 8.8281 3.3281 2.207 2.2109 3.3125 5.168 3.3125 8.875zm-7.6875-2.4844c0-1.4258-0.41797-2.5703-1.25-3.4375-0.82422-0.875-1.9023-1.3125-3.2344-1.3125-1.4609 0-2.6406 0.41406-3.5469 1.2344-0.89844 0.8125-1.4609 1.9844-1.6875 3.5156z" />
    </symbol>
    <symbol
       overflow="visible"
       id="h-54">
      <path
         id="path3664"
         d="m14.078-10.531c-1.5547 0-2.7266 0.26562-3.5156 0.79688-0.79297 0.53125-1.1875 1.3125-1.1875 2.3438 0 0.94922 0.31641 1.6875 0.95312 2.2188 0.63281 0.53125 1.5195 0.79688 2.6562 0.79688 1.4062 0 2.5859-0.5 3.5469-1.5 0.95703-1.0078 1.4375-2.2734 1.4375-3.7969v-0.85938zm11.438-2.8281v13.359h-7.5469v-3.4688c-1 1.418-2.1328 2.4531-3.3906 3.1094-1.25 0.64453-2.7734 0.96875-4.5625 0.96875-2.4297 0-4.3984-0.70703-5.9062-2.125-1.5117-1.4141-2.2656-3.25-2.2656-5.5 0-2.75 0.94141-4.7656 2.8281-6.0469 1.8828-1.2812 4.8477-1.9219 8.8906-1.9219h4.4062v-0.57812c0-1.1875-0.46875-2.0547-1.4062-2.6094-0.92969-0.55078-2.3828-0.82812-4.3594-0.82812-1.6055 0-3.1016 0.16406-4.4844 0.48438-1.375 0.32422-2.6523 0.80469-3.8281 1.4375v-5.7031c1.6016-0.38281 3.2109-0.67578 4.8281-0.875 1.6133-0.20703 3.2266-0.3125 4.8438-0.3125 4.2188 0 7.2656 0.83594 9.1406 2.5 1.875 1.668 2.8125 4.3711 2.8125 8.1094z" />
    </symbol>
    <symbol
       overflow="visible"
       id="g-8">
      <path
         id="path3667"
         d="m11.766-30.047v6.6406h7.7031v5.3438h-7.7031v9.9375c0 1.0859 0.21094 1.8203 0.64062 2.2031 0.4375 0.38672 1.2969 0.57812 2.5781 0.57812h3.8438v5.3438h-6.4219c-2.9492 0-5.043-0.61328-6.2812-1.8438-1.2305-1.2383-1.8438-3.332-1.8438-6.2812v-9.9375h-3.7188v-5.3438h3.7188v-6.6406z" />
    </symbol>
    <symbol
       overflow="visible"
       id="f-1">
      <path
         id="path3670"
         d="m19.516-19.984v-12.531h7.5312v32.516h-7.5312v-3.3906c-1.0312 1.3867-2.168 2.4023-3.4062 3.0469-1.2422 0.63281-2.6719 0.95312-4.2969 0.95312-2.8867 0-5.2578-1.1445-7.1094-3.4375-1.8555-2.2891-2.7812-5.2422-2.7812-8.8594 0-3.6016 0.92578-6.5508 2.7812-8.8438 1.8516-2.2891 4.2227-3.4375 7.1094-3.4375 1.6133 0 3.0391 0.32422 4.2812 0.96875 1.25 0.64844 2.3906 1.6523 3.4219 3.0156zm-4.9219 15.156c1.5938 0 2.8125-0.58203 3.6562-1.75 0.84375-1.1758 1.2656-2.8789 1.2656-5.1094 0-2.2266-0.42188-3.9258-1.2656-5.0938-0.84375-1.1641-2.0625-1.75-3.6562-1.75s-2.8125 0.58594-3.6562 1.75c-0.84375 1.168-1.2656 2.8672-1.2656 5.0938 0 2.2305 0.42188 3.9336 1.2656 5.1094 0.84375 1.168 2.0625 1.75 3.6562 1.75z" />
    </symbol>
    <symbol
       overflow="visible"
       id="e-2">
      <path
         id="path3673"
         d="m16.047-4.8281c1.6016 0 2.8281-0.58203 3.6719-1.75 0.84375-1.1758 1.2656-2.8789 1.2656-5.1094 0-2.2266-0.42188-3.9258-1.2656-5.0938-0.84375-1.1641-2.0703-1.75-3.6719-1.75-1.6055 0-2.8359 0.58984-3.6875 1.7656-0.85547 1.1797-1.2812 2.8711-1.2812 5.0781 0 2.2188 0.42578 3.918 1.2812 5.0938 0.85156 1.1797 2.082 1.7656 3.6875 1.7656zm-4.9688-15.156c1.0312-1.3633 2.1719-2.3672 3.4219-3.0156 1.2578-0.64453 2.7031-0.96875 4.3281-0.96875 2.8828 0 5.2539 1.1484 7.1094 3.4375 1.8516 2.293 2.7812 5.2422 2.7812 8.8438 0 3.6172-0.92969 6.5703-2.7812 8.8594-1.8555 2.293-4.2266 3.4375-7.1094 3.4375-1.625 0-3.0703-0.32422-4.3281-0.96875-1.25-0.65625-2.3906-1.6641-3.4219-3.0312v3.3906h-7.4844v-32.516h7.4844z" />
    </symbol>
    <symbol
       overflow="visible"
       id="d-8">
      <path
         id="path3676"
         d="m0.51562-23.406h7.4844l6.2969 15.891 5.3438-15.891h7.4844l-9.8438 25.625c-0.99219 2.6016-2.1484 4.4219-3.4688 5.4531-1.3125 1.0391-3.0469 1.5625-5.2031 1.5625h-4.3281v-4.9062h2.3438c1.2695 0 2.1914-0.20312 2.7656-0.60938 0.58203-0.40625 1.0312-1.1328 1.3438-2.1719l0.21875-0.64062z" />
    </symbol>
    <symbol
       overflow="visible"
       id="c-9">
      <path
         id="path3679"
         d="m1.2812-31.203h7.7031l5.3906 22.672 5.3594-22.672h7.75l5.3438 22.672 5.3906-22.672h7.6562l-7.3594 31.203h-9.2812l-5.6562-23.719-5.6094 23.719h-9.2812z" />
    </symbol>
    <symbol
       overflow="visible"
       id="b-3">
      <path
         id="path3682"
         d="m14.734-18.625c-1.6562 0-2.9219 0.60156-3.7969 1.7969-0.86719 1.1875-1.2969 2.9023-1.2969 5.1406 0 2.25 0.42969 3.9688 1.2969 5.1562 0.875 1.1875 2.1406 1.7812 3.7969 1.7812 1.625 0 2.8672-0.59375 3.7344-1.7812 0.86328-1.1875 1.2969-2.9062 1.2969-5.1562 0-2.2383-0.43359-3.9531-1.2969-5.1406-0.86719-1.1953-2.1094-1.7969-3.7344-1.7969zm0-5.3438c4.0195 0 7.1602 1.0898 9.4219 3.2656 2.2695 2.168 3.4062 5.1719 3.4062 9.0156 0 3.8555-1.1367 6.8711-3.4062 9.0469-2.2617 2.168-5.4023 3.25-9.4219 3.25-4.043 0-7.2031-1.082-9.4844-3.25-2.2734-2.1758-3.4062-5.1914-3.4062-9.0469 0-3.8438 1.1328-6.8477 3.4062-9.0156 2.2812-2.1758 5.4414-3.2656 9.4844-3.2656z" />
    </symbol>
    <symbol
       overflow="visible"
       id="n-6">
      <path
         id="path3685"
         d="m27.125-14.25v14.25h-7.5312v-10.906c0-2.0195-0.046875-3.4102-0.14062-4.1719-0.085937-0.76953-0.23438-1.3359-0.45312-1.7031-0.29297-0.48828-0.69531-0.86719-1.2031-1.1406-0.5-0.26953-1.0703-0.40625-1.7031-0.40625-1.5625 0-2.793 0.60547-3.6875 1.8125-0.88672 1.1992-1.3281 2.8672-1.3281 5v11.516h-7.4844v-23.406h7.4844v3.4219c1.125-1.3633 2.3203-2.3672 3.5938-3.0156 1.2695-0.64453 2.6719-0.96875 4.2031-0.96875 2.6953 0 4.7422 0.82812 6.1406 2.4844 1.4062 1.6562 2.1094 4.0703 2.1094 7.2344z" />
    </symbol>
    <symbol
       overflow="visible"
       id="m-8">
      <path
         id="path3688"
         d="m25.281-19.516c0.94531-1.4453 2.0703-2.5508 3.375-3.3125 1.3008-0.75781 2.7344-1.1406 4.2969-1.1406 2.6875 0 4.7344 0.82812 6.1406 2.4844s2.1094 4.0703 2.1094 7.2344v14.25h-7.5156v-12.203c0.007812-0.17578 0.019531-0.36328 0.03125-0.5625 0.007812-0.19531 0.015625-0.47656 0.015625-0.84375 0-1.6562-0.24609-2.8516-0.73438-3.5938-0.49219-0.75-1.2773-1.125-2.3594-1.125-1.4297 0-2.5273 0.58984-3.2969 1.7656-0.77344 1.168-1.1719 2.8555-1.2031 5.0625v11.5h-7.5156v-12.203c0-2.5938-0.22656-4.2578-0.67188-5-0.44922-0.75-1.2461-1.125-2.3906-1.125-1.4297 0-2.5312 0.58984-3.3125 1.7656-0.78125 1.1797-1.1719 2.8594-1.1719 5.0469v11.516h-7.5312v-23.406h7.5312v3.4219c0.91406-1.3203 1.9688-2.3164 3.1562-2.9844 1.1953-0.66406 2.5156-1 3.9531-1 1.6133 0 3.0391 0.39062 4.2812 1.1719 1.2383 0.78125 2.1758 1.875 2.8125 3.2812z" />
    </symbol>
    <symbol
       overflow="visible"
       id="l-02">
      <path
         id="path3691"
         d="m19-32.516v4.9062h-4.1406c-1.0625 0-1.8047 0.19531-2.2188 0.57812-0.41797 0.38672-0.625 1.0547-0.625 2v1.625h6.3906v5.3438h-6.3906v18.062h-7.4844v-18.062h-3.7188v-5.3438h3.7188v-1.625c0-2.5508 0.70703-4.4375 2.125-5.6562 1.4258-1.2188 3.6289-1.8281 6.6094-1.8281z" />
    </symbol>
    <symbol
       overflow="visible"
       id="k-10">
      <path
         id="path3694"
         d="m27.125-14.25v14.25h-7.5312v-10.859c0-2.0508-0.046875-3.457-0.14062-4.2188-0.085937-0.76953-0.23438-1.3359-0.45312-1.7031-0.29297-0.48828-0.69531-0.86719-1.2031-1.1406-0.5-0.26953-1.0703-0.40625-1.7031-0.40625-1.5625 0-2.793 0.60547-3.6875 1.8125-0.88672 1.1992-1.3281 2.8672-1.3281 5v11.516h-7.4844v-32.516h7.4844v12.531c1.125-1.3633 2.3203-2.3672 3.5938-3.0156 1.2695-0.64453 2.6719-0.96875 4.2031-0.96875 2.6953 0 4.7422 0.82812 6.1406 2.4844 1.4062 1.6562 2.1094 4.0703 2.1094 7.2344z" />
    </symbol>
    <symbol
       overflow="visible"
       id="j-5">
      <path
         id="path3697"
         d="m3.5938-23.406h7.4844v22.984c0 3.1328-0.75781 5.5234-2.2656 7.1719-1.5 1.6562-3.6797 2.4844-6.5312 2.4844h-3.7031v-4.9062h1.2969c1.4141 0 2.3906-0.32422 2.9219-0.96875 0.53125-0.63672 0.79688-1.8984 0.79688-3.7812zm0-9.1094h7.4844v6.1094h-7.4844z" />
    </symbol>
  </defs>
  <sodipodi:namedview
     id="base"
     pagecolor="#ffffff"
     bordercolor="#666666"
     borderopacity="1.0"
     inkscape:pageopacity="0.0"
     inkscape:pageshadow="2"
     inkscape:zoom="3.959798"
     inkscape:cx="45.33229"
     inkscape:cy="21.638286"
     inkscape:document-units="mm"
     inkscape:current-layer="g3738"
     showgrid="false"
     units="px"
     showguides="true"
     inkscape:guide-bbox="true"
     inkscape:snap-global="true"
     inkscape:window-width="1848"
     inkscape:window-height="1016"
     inkscape:window-x="72"
     inkscape:window-y="27"
     inkscape:window-maximized="1"
     inkscape:snap-others="false"
     inkscape:snap-bbox="true"
     inkscape:bbox-nodes="true"
     inkscape:snap-nodes="false">
    <sodipodi:guide
       position="0,16.503893"
       orientation="1,0"
       id="guide2524"
       inkscape:locked="false"
       inkscape:label=""
       inkscape:color="rgb(0,0,255)" />
    <sodipodi:guide
       position="14.29892,0"
       orientation="0,1"
       id="guide2526"
       inkscape:locked="false"
       inkscape:label=""
       inkscape:color="rgb(0,0,255)" />
    <sodipodi:guide
       position="85.526248,30.858"
       orientation="0,1"
       id="guide7505"
       inkscape:locked="false"
       inkscape:label=""
       inkscape:color="rgb(0,0,255)" />
    <sodipodi:guide
       position="15.434815,33.542326"
       orientation="1,0"
       id="guide7585"
       inkscape:locked="false" />
  </sodipodi:namedview>
  <metadata
     id="metadata1930">
    <rdf:RDF>
      <cc:Work
         rdf:about="">
        <dc:format>image/svg+xml</dc:format>
        <dc:type
           rdf:resource="http://purl.org/dc/dcmitype/StillImage" />
        <dc:title></dc:title>
      </cc:Work>
    </rdf:RDF>
  </metadata>
  <g
     inkscape:label="Layer 1"
     inkscape:groupmode="layer"
     id="layer1"
     transform="translate(0,-266.14199)">
    <g
       style="fill:#ffffff"
       id="g1937"
       transform="matrix(0.05167643,0,0,0.05167643,2.2514744,267.80335)">
      <g
         id="g1924"
         style="fill:#ffffff">
        <path
           id="path1920"
           d="m 274.8,274.8 v 18.8 h -37.5 v -18.8 c 0,-10.3 8.4,-18.8 18.8,-18.8 10.4,0 18.7,8.4 18.7,18.8 z"
           inkscape:connector-curvature="0"
           style="fill:#ffffff" />
        <path
           id="path1922"
           d="m 256,68.5 -93.7,65.6 V 68.5 h -37.5 v 91.9 L 68.6,199.8 H 106 V 443.5 H 406 V 199.8 h 37.5 z m 56.3,318.7 H 199.8 c -10.4,0 -18.8,-8.4 -18.8,-18.8 v -75 h 18.8 v -15.7 c 0,-30.5 22.9,-57.7 53.3,-59.3 32.5,-1.6 59.2,24.1 59.2,56.2 v 18.8 H 331 v 75 c 0,10.5 -8.4,18.8 -18.7,18.8 z"
           inkscape:connector-curvature="0"
           style="fill:#ffffff" />
      </g>
    </g>
    <circle
       style="opacity:1;fill:#031d44;fill-opacity:1;stroke:none;stroke-width:0.5;stroke-miterlimit:4;stroke-dasharray:none;stroke-opacity:1"
       id="path853"
       cx="15.429177"
       cy="281.57117"
       r="15.429177" />
    <g
       id="g1338"
       transform="matrix(0.04655764,0,0,0.04655764,-2.6489218,269.44698)"
       style="stroke-width:7.57722664">
      <g
         id="g2184"
         transform="matrix(1.0637546,0,0,1.0637546,26.331645,-70.987052)"
         style="stroke-width:53.97331238">
        <g
           id="g3268"
           transform="matrix(1.0546029,0,0,1.0546029,66.80089,-93.019496)"
           style="stroke-width:364.55151367">
          <g
             id="g3738"
             transform="matrix(0.75187113,0,0,0.75187113,72.115002,122.29787)"
             style="stroke-width:3274.87963867">
            <path
               id="path3702"
               d="M 363.56214,132.75923 350.65273,67.739397 C 347.59265,51.898239 336.76039,38.670255 321.8364,32.54602 c -14.924,-6.120154 -31.92946,-4.308959 -45.22887,4.813793 l -8.34776,5.726081 c -10.47786,5.938648 -18.65726,15.21649 -23.23173,26.353936 -4.5747,11.137673 -5.27872,23.493613 -1.99724,35.07775 -6.25744,-2.108 -12.80738,-3.22401 -19.41003,-3.29929 -12.45254,-0.0265 -24.62278,3.73327 -34.88388,10.79224 -10.26087,7.05466 -18.13463,17.06782 -22.56739,28.70522 l 6.50108,2.4268 -6.50108,-2.4268 -25.03885,64.62984 c -3.95467,10.3849 -5.99624,21.39854 -6.01392,32.50992 -0.005,12.74049 2.67042,25.34041 7.8606,36.97781 l 40.6578,90.7355 V 663.788 h 152.5617 v -10.86751 l -33.19126,-25.8143 V 202.24164 c -0.0488,-20.54374 -5.72166,-40.67594 -16.39894,-58.22558 2.88299,0.50485 5.80578,0.76613 8.73299,0.77498 11.19968,0.0664 22.14678,-3.32139 31.34447,-9.70286 l 7.67014,10.2874 c 3.01133,4.19377 7.83408,6.71364 13.00238,6.79334 4.1185,-0.17714 8.02443,-1.87321 10.96501,-4.7562 3.40994,-2.96711 5.41602,-7.22732 5.5312,-11.74397 0.0133,-0.9787 -0.0841,-1.95303 -0.28785,-2.90953 z M 155.5853,269.21109 c -4.33549,-9.88448 -6.58078,-20.55734 -6.59846,-31.34901 0.15056,-9.44597 2.0283,-18.78537 5.5312,-27.55906 l 24.26339,-64.92233 c 3.43205,-8.82153 9.42387,-16.40801 17.20954,-21.78853 7.7809,-5.37623 17.00093,-8.30343 26.4605,-8.3964 v 159.73801 l -9.70287,19.41004 14.55668,36.19897 -31.63696,28.3379 z m 133.53825,-64.24438 h 0.005 c -9.66738,-1.62969 -18.44867,-6.62057 -24.79057,-14.10093 -6.34168,-7.47538 -9.83131,-16.95218 -9.85342,-26.75754 v -36.97328 c 22.01867,18.73209 34.68888,46.20272 34.64467,75.11201 z m 6.20881,-76.08132 0.005,-0.005 c -10.27413,-0.0177 -20.12313,-4.10523 -27.3856,-11.37212 -7.26269,-7.26723 -11.35058,-17.11656 -11.36305,-27.39014 -0.0177,-10.274136 4.04322,-20.136739 11.28823,-27.42188 1.28867,-1.213397 2.6482,-2.347094 4.07428,-3.396672 l 45.60866,62.592592 h 0.005 c -6.51877,4.55248 -14.27779,6.98822 -22.22615,6.98822 z"
               inkscape:connector-curvature="0"
               style="fill:#ffffff;stroke-width:3274.87988281" />
          </g>
        </g>
      </g>
    </g>
  </g>
</svg>
