<?xml version="1.0" encoding="UTF-8" standalone="no"?>
<svg
   xmlns:dc="http://purl.org/dc/elements/1.1/"
   xmlns:cc="http://creativecommons.org/ns#"
   xmlns:rdf="http://www.w3.org/1999/02/22-rdf-syntax-ns#"
   xmlns:svg="http://www.w3.org/2000/svg"
   xmlns="http://www.w3.org/2000/svg"
   id="svg1727"
   version="1.1"
   viewBox="0 0 30.858398 30.858398"
   height="30.858398mm"
   width="30.858398mm">
  <defs
     id="defs1721" />
  <metadata
     id="metadata1724">
    <rdf:RDF>
      <cc:Work
         rdf:about="">
        <dc:format>image/svg+xml</dc:format>
        <dc:type
           rdf:resource="http://purl.org/dc/dcmitype/StillImage" />
        <dc:title></dc:title>
      </cc:Work>
    </rdf:RDF>
  </metadata>
  <g
     transform="translate(-94.183899,-134.16008)"
     id="layer1">
    <circle
       style="fill:#254747;fill-opacity:1;stroke-width:0.46499997"
       id="circle1093-0-8"
       cx="109.6131"
       cy="149.58928"
       r="15.429199" />
    <g
       style="fill:#ffffff;stroke-width:2.40326858"
       transform="matrix(0.41609994,0,0,0.41609994,74.91866,88.552116)"
       id="g1895">
      <g
         id="g1890"
         transform="matrix(0.96937002,0,0,0.96937002,52.360197,114.69525)"
         style="fill:#ffffff;stroke-width:0.6559568">
        <path
           id="path1870"
           d="m 32,61.5 a 11.5,11.5 0 0 1 -6.5,-21 V 9 a 6.5,6.5 0 0 1 13,0 v 31.52 a 11.5,11.5 0 0 1 -6.5,21 z m 0,-56 A 3.5,3.5 0 0 0 28.5,9 v 33.21 l -0.75,0.44 a 8.5,8.5 0 1 0 8.5,0 L 35.5,42.21 V 9 A 3.5,3.5 0 0 0 32,5.5 Z"
           style="fill:#ffffff;stroke-width:0.6559568" />
        <path
           id="path1872"
           d="M 35.5,43.94 A 3,3 0 0 1 34,41.35 V 18 h -4 v 23.35 a 3,3 0 0 1 -1.5,2.59 7,7 0 1 0 7,0 z"
           style="fill:#ffffff;stroke-width:0.6559568" />
      </g>
    </g>
  </g>
</svg>
