<?xml version="1.0" encoding="UTF-8" standalone="no"?>
<svg
   xmlns:dc="http://purl.org/dc/elements/1.1/"
   xmlns:cc="http://creativecommons.org/ns#"
   xmlns:rdf="http://www.w3.org/1999/02/22-rdf-syntax-ns#"
   xmlns:svg="http://www.w3.org/2000/svg"
   xmlns="http://www.w3.org/2000/svg"
   id="svg1134"
   version="1.1"
   viewBox="0 0 30.858398 30.858398"
   height="30.858398mm"
   width="30.858398mm">
  <defs
     id="defs1128" />
  <metadata
     id="metadata1131">
    <rdf:RDF>
      <cc:Work
         rdf:about="">
        <dc:format>image/svg+xml</dc:format>
        <dc:type
           rdf:resource="http://purl.org/dc/dcmitype/StillImage" />
        <dc:title></dc:title>
      </cc:Work>
    </rdf:RDF>
  </metadata>
  <g
     transform="translate(-83.600563,-122.8208)"
     id="layer1">
    <circle
       style="fill:#254747;fill-opacity:1;stroke-width:0.46499997"
       id="circle1093-0"
       cx="99.029762"
       cy="138.25"
       r="15.429199" />
    <g
       style="fill:#ffffff;stroke-width:0.30231497"
       id="g2056"
       transform="matrix(0.2085237,0,0,0.2085237,88.603576,128.01309)">
      <path
         id="path2045"
         d="m 82.447,57.766 c -3.112,0 -5.937,1.255 -7.992,3.29 L 55.353,47.369 v -1.773 c 0,-2.015 -1.303,-3.692 -3.094,-4.333 V 22.592 C 57.78,21.824 62.028,17.083 62.028,11.356 62.027,5.09 56.946,0 50.667,0 44.401,0 39.319,5.091 39.319,11.355 c 0,5.727 4.247,10.468 9.77,11.236 v 18.688 c -1.76,0.662 -3.027,2.335 -3.027,4.316 v 1.604 L 25.906,61.064 c -2.071,-2.262 -5.049,-3.678 -8.355,-3.678 -6.277,0 -11.36,5.087 -11.36,11.357 0,6.27 5.083,11.356 11.36,11.356 6.265,0 11.348,-5.087 11.348,-11.356 0,-1.818 -0.436,-3.544 -1.193,-5.066 L 46.059,51.055 v 44.299 c 0,2.561 2.089,4.646 4.647,4.646 2.564,0 4.646,-2.085 4.646,-4.646 V 51.27 l 17.183,12.314 c -0.91,1.632 -1.437,3.524 -1.437,5.529 0,6.283 5.087,11.357 11.351,11.357 6.273,0 11.36,-5.074 11.36,-11.357 C 93.808,62.844 88.721,57.766 82.447,57.766 Z"
         style="fill:#ffffff;stroke-width:0.30231497" />
    </g>
  </g>
</svg>
