<svg width="116.629" height="116.629" viewBox="0 0 30.858 30.858"><circle cx="15.429" cy="15.429" r="15.429" fill="#115158"/><path d="M24.424 11.837h-.043c-.369-1.513-1.747-2.629-3.359-2.629a3.47 3.47 0 0 0-1.141.192c-.668-1.285-2-2.111-3.498-2.111-2.135 0-3.874 1.698-3.935 3.808-.809-.536-1.962-.77-3.115-.554-1.521.285-3.147 1.462-3.147 3.907a3.92 3.92 0 0 0 .052.642c-1.786.172-3.187 1.674-3.187 3.496 0 1.937 1.583 3.512 3.53 3.512h11.588c1.854 0 3.375-1.43 3.516-3.239h2.741c1.946 0 3.529-1.576 3.529-3.512s-1.583-3.512-3.53-3.512zm-6.257 9.037H6.579c-1.266 0-2.297-1.025-2.297-2.285s1.03-2.285 2.297-2.285h.463c.205 0 .397-.101.511-.27a.61.61 0 0 0 .06-.573 2.67 2.67 0 0 1-.196-1.009c0-2.075 1.499-2.58 2.143-2.701.753-.141 1.547-.008 2.089.296-1.363.487-2.342 1.782-2.342 3.304 0 1.937 1.583 3.512 3.529 3.512h7.61c-.136 1.132-1.105 2.013-2.279 2.013zm6.257-3.239H12.836c-1.266 0-2.296-1.025-2.296-2.285s1.03-2.285 2.296-2.285h.463c.205 0 .397-.101.511-.27a.61.61 0 0 0 .06-.573 2.67 2.67 0 0 1-.196-1.009c0-1.486 1.215-2.695 2.708-2.695 1.192 0 2.232.76 2.586 1.892.056.18.193.324.37.391a.62.62 0 0 0 .537-.048c.344-.207.741-.316 1.146-.316 1.164 0 2.138.904 2.218 2.058.022.322.291.571.615.571h.57c1.266 0 2.296 1.025 2.296 2.285s-1.03 2.285-2.297 2.285z" fill="#fff"/></svg>
