<?xml version="1.0" encoding="UTF-8" standalone="no"?>
<svg
   width="24"
   height="24"
   viewBox="0 0 24 24"
   version="1.1"
   id="svg4">
  <defs
     id="defs8" />
  <path
     d="M12 .02c-6.627 0-12 5.373-12 12s5.373 12 12 12 12-5.373 12-12-5.373-12-12-12zm6.99 6.98l-6.99 5.666-6.991-5.666h13.981zm.01 10h-14v-8.505l7 5.673 7-5.672v8.504z"
     id="path2" />
  <ellipse
     style="opacity:1;fill:#ffd768;fill-opacity:1;stroke:none;stroke-width:0.62362206;stroke-miterlimit:4;stroke-dasharray:none;stroke-dashoffset:0;stroke-opacity:0.99090911"
     id="path836"
     cx="12.072242"
     cy="12.004897"
     rx="10.606603"
     ry="9.603796" />
  <path
     style="fill:#000000;stroke-width:1.75748"
     d="M 10.562174,23.909874 C 7.1062685,23.411206 4.2146765,21.675591 2.2388468,18.91398 -0.64403757,14.884582 -0.6894964,9.5155144 2.1234642,5.2863416 2.7187635,4.3913328 4.2094418,2.8726581 5.1006549,2.253236 8.244753,0.0679855 12.139109,-0.51702379 15.699571,0.661069 c 4.170449,1.3799264 7.185754,4.8007843 8.068251,9.1534189 0.211779,1.0445271 0.19186,3.4922501 -0.03701,4.5473451 -0.249022,1.148017 -0.507251,1.879352 -1.059415,3.000391 -1.604058,3.256657 -4.574847,5.556958 -8.231422,6.373643 -0.552872,0.123483 -1.047621,0.165127 -2.180749,0.183558 -0.806102,0.01311 -1.569777,0.0088 -1.697057,-0.0096 z m 8.446712,-11.187941 c 0,-4.0821737 -0.0066,-4.2873771 -0.134993,-4.1753822 -0.719616,0.6278761 -6.784025,5.4843552 -6.85618,5.4905422 -0.05232,0.0045 -1.595741,-1.206781 -3.429826,-2.691705 C 6.7538016,9.8604635 5.18938,8.6001662 5.1113944,8.544728 4.9742565,8.4472383 4.9696026,8.5845919 4.9696026,12.729515 v 4.285583 h 7.0196414 7.019642 z m -3.456842,-2.8829805 3.472301,-2.8133444 -3.51755,-0.020063 c -1.934653,-0.011035 -5.094951,-0.011035 -7.0228851,0 L 4.978576,7.0256081 8.4646252,9.8561213 c 1.9173268,1.5567827 3.5150898,2.8227867 3.5505828,2.8133447 0.03549,-0.0094 1.62707,-1.283175 3.536836,-2.8305135 z"
     id="path835" />
</svg>
