<?xml version="1.0" encoding="UTF-8" standalone="no"?>
<svg
   id="svg4"
   version="1.1"
   viewBox="0 0 24 24"
   height="24"
   width="24"
   sodipodi:docname="faq_button_selected_yellow.svg"
   xml:space="preserve"
   inkscape:version="1.3 (0e150ed, 2023-07-21)"
   inkscape:export-filename="faq_button_selected_yellow.png"
   inkscape:export-xdpi="400"
   inkscape:export-ydpi="400"
   xmlns:inkscape="http://www.inkscape.org/namespaces/inkscape"
   xmlns:sodipodi="http://sodipodi.sourceforge.net/DTD/sodipodi-0.dtd"
   xmlns="http://www.w3.org/2000/svg"
   xmlns:svg="http://www.w3.org/2000/svg"><sodipodi:namedview
     id="namedview1"
     pagecolor="#ffffff"
     bordercolor="#000000"
     borderopacity="0.25"
     inkscape:showpageshadow="2"
     inkscape:pageopacity="0.0"
     inkscape:pagecheckerboard="0"
     inkscape:deskcolor="#d1d1d1"
     showguides="false"
     inkscape:zoom="12.732064"
     inkscape:cx="1.6493791"
     inkscape:cy="26.939858"
     inkscape:window-width="1920"
     inkscape:window-height="1027"
     inkscape:window-x="1440"
     inkscape:window-y="25"
     inkscape:window-maximized="0"
     inkscape:current-layer="svg4" /><defs
     id="defs8"><rect
       x="-56.440678"
       y="13.423729"
       width="20.237288"
       height="28.169492"
       id="rect1" /></defs><path
     id="path835"
     d="M 10.562174,23.909874 C 7.1062685,23.411206 4.2146765,21.675591 2.2388468,18.91398 -0.64403757,14.884582 -0.6894964,9.5155144 2.1234642,5.2863416 2.7187635,4.3913328 4.2094418,2.8726581 5.1006549,2.253236 8.244753,0.0679855 12.139109,-0.51702379 15.699571,0.661069 c 4.170449,1.3799264 7.185754,4.8007843 8.068251,9.1534189 0.211779,1.0445271 0.19186,3.4922501 -0.03701,4.5473451 -0.249022,1.148017 -0.507251,1.879352 -1.059415,3.000391 -1.604058,3.256657 -4.574847,5.556958 -8.231422,6.373643 -0.552872,0.123483 -1.047621,0.165127 -2.180749,0.183558 -0.806102,0.01311 -1.569777,0.0088 -1.697057,-0.0096 z"
     style="fill:#000000;stroke-width:1.75748"
     inkscape:label="path835"
     sodipodi:nodetypes="cssssssssscc" /><path
     d="M 10.108271,8.3432931 H 6.3820645 c -0.00307,-1.55033 0.5455966,-2.872348 1.645927,-3.9662817 1.105812,-1.0978169 2.4278295,-1.6464971 3.9662805,-1.6459261 1.54599,-5.614e-4 2.868122,0.5481092 3.966396,1.6459261 1.098275,1.0987307 1.65061,2.4207487 1.657234,3.9662817 0.0032,0.721257 -0.160583,1.32316 -0.491344,1.8060539 -0.351549,0.504137 -0.736219,0.961333 -1.154468,1.371586 -0.641421,0.641992 -1.247208,1.26514 -1.817589,1.86887 -0.56901,0.608072 -0.740558,1.459645 -0.514188,2.554721 l -3.7605834,0.01142 v -0.320025 c 0.00195,-1.143274 0.1906224,-2.051955 0.5658124,-2.726269 0.415736,-0.740787 0.958705,-1.432462 1.62868,-2.074569 0.367766,-0.352119 0.756548,-0.77505 1.165888,-1.2686799 0.410711,-0.486091 0.616523,-0.893718 0.617437,-1.22311 -0.0018,-0.99217 -0.860711,-1.880634 -1.874696,-1.874467 -1.029746,-0.0062 -1.870583,0.882184 -1.87458,1.874467 z M 9.6431943,19.026453 c 0,-1.230076 1.0209517,-2.209796 2.2533117,-2.209796 1.223224,0 2.253426,1.030202 2.253426,2.253426 0,1.233959 -1.024264,2.198832 -2.253426,2.198832 -1.238299,0 -2.2533117,-1.003934 -2.2533117,-2.242462 z"
     id="path1"
     style="fill:#ffd768;stroke-width:0.233909;fill-opacity:1" /></svg>
