<?xml version="1.0" encoding="UTF-8" standalone="no"?>
<svg
   id="svg4"
   version="1.1"
   viewBox="0 0 24 24"
   height="24"
   width="24"
   sodipodi:docname="faq_button.svg"
   xml:space="preserve"
   inkscape:version="1.3 (0e150ed, 2023-07-21)"
   inkscape:export-filename="faq_button.png"
   inkscape:export-xdpi="400"
   inkscape:export-ydpi="400"
   xmlns:inkscape="http://www.inkscape.org/namespaces/inkscape"
   xmlns:sodipodi="http://sodipodi.sourceforge.net/DTD/sodipodi-0.dtd"
   xmlns="http://www.w3.org/2000/svg"
   xmlns:svg="http://www.w3.org/2000/svg"><sodipodi:namedview
     id="namedview1"
     pagecolor="#ffffff"
     bordercolor="#000000"
     borderopacity="0.25"
     inkscape:showpageshadow="2"
     inkscape:pageopacity="0.0"
     inkscape:pagecheckerboard="0"
     inkscape:deskcolor="#d1d1d1"
     showguides="false"
     inkscape:zoom="12.732064"
     inkscape:cx="1.5708372"
     inkscape:cy="26.939858"
     inkscape:window-width="1920"
     inkscape:window-height="1027"
     inkscape:window-x="1440"
     inkscape:window-y="25"
     inkscape:window-maximized="0"
     inkscape:current-layer="svg4" /><defs
     id="defs8"><rect
       x="-56.440678"
       y="13.423729"
       width="20.237288"
       height="28.169492"
       id="rect1" /></defs><path
     id="path835"
     style="fill:#000000;stroke-width:1.75748"
     inkscape:label="path835"
     d="M 12.296875 0.068359375 C 9.7783783 0.0050693077 7.2631278 0.75154803 5.1015625 2.2539062 C 4.2103503 2.8733277 2.7183456 4.3921015 2.1230469 5.2871094 C -0.68991091 9.5162779 -0.64460024 14.884669 2.2382812 18.914062 C 4.214109 21.675671 7.106598 23.411489 10.5625 23.910156 C 10.68978 23.928556 11.453664 23.933032 12.259766 23.919922 C 13.392892 23.901491 13.886582 23.859811 14.439453 23.736328 C 18.096024 22.919644 21.067819 20.617982 22.671875 17.361328 C 23.224038 16.24029 23.481447 15.509344 23.730469 14.361328 C 23.959339 13.306234 23.979357 10.858979 23.767578 9.8144531 C 22.885082 5.4618229 19.869664 2.0400813 15.699219 0.66015625 C 14.586575 0.29200262 13.441646 0.097127587 12.296875 0.068359375 z M 11.994141 2.7304688 C 13.540129 2.7299074 14.862665 3.2791373 15.960938 4.3769531 C 17.059211 5.4756827 17.610564 6.7982185 17.617188 8.34375 C 17.620387 9.0650063 17.457714 9.6655441 17.126953 10.148438 C 16.775404 10.652574 16.390905 11.111232 15.972656 11.521484 C 15.331236 12.163476 14.724677 12.786896 14.154297 13.390625 C 13.585287 13.998696 13.414255 14.850238 13.640625 15.945312 L 9.8789062 15.955078 L 9.8789062 15.636719 C 9.8808562 14.493446 10.070123 13.58447 10.445312 12.910156 C 10.861048 12.16937 11.404244 11.478044 12.074219 10.835938 C 12.441984 10.483819 12.830895 10.060036 13.240234 9.5664062 C 13.650945 9.0803157 13.856508 8.6731417 13.857422 8.34375 C 13.855622 7.351581 12.996406 6.462583 11.982422 6.46875 C 10.952677 6.46255 10.111419 7.351468 10.107422 8.34375 L 6.3828125 8.34375 C 6.3797425 6.7934216 6.9270145 5.4708857 8.0273438 4.3769531 C 9.1331546 3.2791373 10.455691 2.7298978 11.994141 2.7304688 z M 11.896484 16.816406 C 13.119707 16.816406 14.150391 17.84709 14.150391 19.070312 C 14.150391 20.30427 13.125645 21.269531 11.896484 21.269531 C 10.658187 21.269531 9.6425781 20.265871 9.6425781 19.027344 C 9.6425781 17.797269 10.664126 16.816406 11.896484 16.816406 z " /></svg>
