<svg xmlns="http://www.w3.org/2000/svg" width="116.629" height="116.629" viewBox="0 0 30.858 30.858"><circle cx="15.429" cy="15.429" r="15.429" fill="#115158"/><g fill="#fff"><path d="M20.954 9.952c-.69-2.695-3.136-4.642-5.984-4.642a6.19 6.19 0 0 0-6.182 6.182c-1.704 0-3.091 1.387-3.091 3.091s1.387 3.091 3.091 3.091h12.364a3.87 3.87 0 0 0 3.864-3.864c0-2.196-1.85-3.98-4.062-3.858zm.198 6.177H8.788a1.55 1.55 0 0 1-1.546-1.546 1.55 1.55 0 0 1 1.546-1.546c.196 0 .388.037.573.111a.77.77 0 0 0 .774-.117c.218-.177.322-.457.274-.733a4.64 4.64 0 0 1-.075-.806c0-2.557 2.08-4.637 4.637-4.637 2.338 0 4.315 1.75 4.598 4.07a.77.77 0 0 0 .337.548c.186.125.417.163.634.104 1.529-.418 2.931.755 2.931 2.233a2.32 2.32 0 0 1-2.318 2.318z"/><use xlink:href="#B"/><use xlink:href="#B" x="-3.091"/><use xlink:href="#B" x="-6.182"/><use xlink:href="#B" x="3.091"/><use xlink:href="#B" x="6.182"/></g><defs ><path id="B" d="M15.742 19.22c-.427 0-.773.346-.773.773v3.864c0 .427.346.773.773.773s.773-.346.773-.773v-3.864c0-.427-.346-.773-.773-.773z"/></defs></svg>
