<svg width="116.629" height="116.629" viewBox="0 0 30.858 30.858""><circle cx="15.429" cy="15.429" r="15.429" fill="#115158"/><path d="M15.429 26.923a4.64 4.64 0 0 1-2.622-8.47V5.746a2.622 2.622 0 1 1 5.244 0V18.46a4.64 4.64 0 0 1-2.622 8.47zm0-22.588a1.41 1.41 0 0 0-1.412 1.412v13.395l-.303.177a3.43 3.43 0 1 0 3.428 0l-.303-.177V5.746a1.41 1.41 0 0 0-1.412-1.412zm1.412 15.505a1.21 1.21 0 0 1-.605-1.045V9.377h-1.613v9.418a1.21 1.21 0 0 1-.605 1.045c-1.107.639-1.646 1.942-1.316 3.176s1.449 2.093 2.727 2.093a2.82 2.82 0 0 0 2.727-2.093c.33-1.235-.209-2.537-1.316-3.176z" fill="#fff"/></svg>
