<svg xmlns="http://www.w3.org/2000/svg" viewBox="0 0 30.858 30.858" height="116.63" width="116.63"><g transform="translate(-94.184 -134.16)"><circle style="fill:#254747;fill-opacity:1;stroke-width:.46499997" cx="109.613" cy="149.589" r="15.429"/><g style="fill:#fff;stroke-width:2.40326858"><g style="fill:#fff;stroke-width:.6559568"><path d="M32 61.5a11.5 11.5 0 0 1-6.5-21V9a6.5 6.5 0 0 1 13 0v31.52a11.5 11.5 0 0 1-6.5 21zm0-56A3.5 3.5 0 0 0 28.5 9v33.21l-.75.44a8.5 8.5 0 1 0 8.5 0l-.75-.44V9A3.5 3.5 0 0 0 32 5.5Z" style="fill:#fff;stroke-width:.6559568" transform="matrix(.40335 0 0 .40335 96.706 136.277)"/><path d="M35.5 43.94a3 3 0 0 1-1.5-2.59V18h-4v23.35a3 3 0 0 1-1.5 2.59 7 7 0 1 0 7 0z" style="fill:#fff;stroke-width:.6559568" transform="matrix(.40335 0 0 .40335 96.706 136.277)"/></g></g></g></svg>