<svg width="116.629" height="116.629" viewBox="0 0 30.858 30.858"><circle cx="15.429" cy="15.429" r="15.429" fill="#115158"/><path d="M20.026 16.453c2.389 0 4.326-1.937 4.326-4.326s-1.937-4.326-4.326-4.326S15.7 9.738 15.7 12.127a.721.721 0 1 0 1.442 0c0-1.593 1.291-2.884 2.884-2.884s2.884 1.291 2.884 2.884-1.291 2.884-2.884 2.884H6.328a.721.721 0 1 0 0 1.442zm-7.931-2.523c1.394 0 2.523-1.13 2.523-2.523s-1.13-2.523-2.523-2.523c-1.021 0-1.929.612-2.322 1.534a.721.721 0 1 0 1.326.565 1.08 1.08 0 1 1 .996 1.505H5.607a.721.721 0 1 0 0 1.442zm6.489 5.046c1.195 0 2.163.968 2.163 2.163s-.968 2.163-2.163 2.163-2.163-.968-2.163-2.163a.721.721 0 1 0-1.442 0c0 1.991 1.614 3.605 3.605 3.605s3.605-1.614 3.605-3.605-1.614-3.605-3.605-3.605H7.409a.721.721 0 1 0 0 1.442z" fill="#fff" fill-rule="evenodd"/></svg>
