<?xml version="1.0" encoding="UTF-8" standalone="no"?>
<!-- Created with Inkscape (http://www.inkscape.org/) -->

<svg
   xmlns:dc="http://purl.org/dc/elements/1.1/"
   xmlns:cc="http://creativecommons.org/ns#"
   xmlns:rdf="http://www.w3.org/1999/02/22-rdf-syntax-ns#"
   xmlns:svg="http://www.w3.org/2000/svg"
   xmlns="http://www.w3.org/2000/svg"
   xmlns:sodipodi="http://sodipodi.sourceforge.net/DTD/sodipodi-0.dtd"
   xmlns:inkscape="http://www.inkscape.org/namespaces/inkscape"
   width="30.858mm"
   height="30.858mm"
   viewBox="0 0 30.858 30.858"
   version="1.1"
   id="svg1933"
   inkscape:version="0.92.5 (2060ec1f9f, 2020-04-08)"
   sodipodi:docname="Temperature.svg">
  <defs
     id="defs1927" />
  <sodipodi:namedview
     id="base"
     pagecolor="#ffffff"
     bordercolor="#666666"
     borderopacity="1.0"
     inkscape:pageopacity="0.0"
     inkscape:pageshadow="2"
     inkscape:zoom="2.8"
     inkscape:cx="22.867515"
     inkscape:cy="11.049758"
     inkscape:document-units="mm"
     inkscape:current-layer="g6282"
     showgrid="false"
     units="mm"
     showguides="true"
     inkscape:guide-bbox="true"
     inkscape:snap-global="true"
     inkscape:window-width="1848"
     inkscape:window-height="1016"
     inkscape:window-x="72"
     inkscape:window-y="27"
     inkscape:window-maximized="1">
    <sodipodi:guide
       position="0,16.503893"
       orientation="1,0"
       id="guide2524"
       inkscape:locked="false"
       inkscape:label=""
       inkscape:color="rgb(0,0,255)" />
    <sodipodi:guide
       position="14.29892,0"
       orientation="0,1"
       id="guide2526"
       inkscape:locked="false"
       inkscape:label=""
       inkscape:color="rgb(0,0,255)" />
  </sodipodi:namedview>
  <metadata
     id="metadata1930">
    <rdf:RDF>
      <cc:Work
         rdf:about="">
        <dc:format>image/svg+xml</dc:format>
        <dc:type
           rdf:resource="http://purl.org/dc/dcmitype/StillImage" />
        <dc:title />
      </cc:Work>
    </rdf:RDF>
  </metadata>
  <g
     inkscape:label="Layer 1"
     inkscape:groupmode="layer"
     id="layer1"
     transform="translate(0,-266.14199)">
    <g
       id="g6282"
       transform="translate(-2.0522003,-11.649424)">
      <circle
         style="fill:#115158;fill-opacity:1;stroke-width:0.46499997"
         id="circle1093-0-8"
         cx="17.4814"
         cy="293.22021"
         r="15.429199" />
      <g
         style="fill:#ffffff;stroke-width:2.40326858"
         transform="matrix(0.41609994,0,0,0.41609994,-17.213044,232.18252)"
         id="g1895">
        <g
           id="g1890"
           transform="matrix(0.96937002,0,0,0.96937002,52.360197,114.69525)"
           style="fill:#ffffff;stroke-width:0.6559568">
          <path
             id="path1870"
             d="m 32,61.5 a 11.5,11.5 0 0 1 -6.5,-21 V 9 a 6.5,6.5 0 0 1 13,0 v 31.52 a 11.5,11.5 0 0 1 -6.5,21 z m 0,-56 A 3.5,3.5 0 0 0 28.5,9 v 33.21 l -0.75,0.44 a 8.5,8.5 0 1 0 8.5,0 L 35.5,42.21 V 9 A 3.5,3.5 0 0 0 32,5.5 Z"
             inkscape:connector-curvature="0"
             style="fill:#ffffff;stroke-width:0.6559568" />
          <path
             id="path1872"
             d="M 35.5,43.94 A 3,3 0 0 1 34,41.35 V 18 h -4 v 23.35 a 3,3 0 0 1 -1.5,2.59 7,7 0 1 0 7,0 z"
             inkscape:connector-curvature="0"
             style="fill:#ffffff;stroke-width:0.6559568" />
        </g>
      </g>
    </g>
  </g>
</svg>
