<?xml version="1.0" encoding="UTF-8" standalone="no"?>
<!-- Created with Inkscape (http://www.inkscape.org/) -->

<svg
   xmlns:dc="http://purl.org/dc/elements/1.1/"
   xmlns:cc="http://creativecommons.org/ns#"
   xmlns:rdf="http://www.w3.org/1999/02/22-rdf-syntax-ns#"
   xmlns:svg="http://www.w3.org/2000/svg"
   xmlns="http://www.w3.org/2000/svg"
   xmlns:sodipodi="http://sodipodi.sourceforge.net/DTD/sodipodi-0.dtd"
   xmlns:inkscape="http://www.inkscape.org/namespaces/inkscape"
   width="30.858mm"
   height="30.858mm"
   viewBox="0 0 30.858 30.858"
   version="1.1"
   id="svg1933"
   inkscape:version="0.92.5 (2060ec1f9f, 2020-04-08)"
   sodipodi:docname="Active transport use.svg">
  <defs
     id="defs1927" />
  <sodipodi:namedview
     id="base"
     pagecolor="#ffffff"
     bordercolor="#666666"
     borderopacity="1.0"
     inkscape:pageopacity="0.0"
     inkscape:pageshadow="2"
     inkscape:zoom="2.8"
     inkscape:cx="89.474658"
     inkscape:cy="11.049758"
     inkscape:document-units="mm"
     inkscape:current-layer="layer1"
     showgrid="false"
     units="mm"
     showguides="true"
     inkscape:guide-bbox="true"
     inkscape:snap-global="true"
     inkscape:window-width="1090"
     inkscape:window-height="767"
     inkscape:window-x="144"
     inkscape:window-y="70"
     inkscape:window-maximized="0">
    <sodipodi:guide
       position="0,16.503893"
       orientation="1,0"
       id="guide2524"
       inkscape:locked="false"
       inkscape:label=""
       inkscape:color="rgb(0,0,255)" />
    <sodipodi:guide
       position="14.29892,0"
       orientation="0,1"
       id="guide2526"
       inkscape:locked="false"
       inkscape:label=""
       inkscape:color="rgb(0,0,255)" />
  </sodipodi:namedview>
  <metadata
     id="metadata1930">
    <rdf:RDF>
      <cc:Work
         rdf:about="">
        <dc:format>image/svg+xml</dc:format>
        <dc:type
           rdf:resource="http://purl.org/dc/dcmitype/StillImage" />
        <dc:title></dc:title>
      </cc:Work>
    </rdf:RDF>
  </metadata>
  <g
     inkscape:label="Layer 1"
     inkscape:groupmode="layer"
     id="layer1"
     transform="translate(0,-266.14199)">
    <g
       style="fill:#ffffff;stroke-width:1.20943701"
       id="g1829"
       transform="matrix(0.04272767,0,0,0.04272767,4.3256279,270.19715)">
      <path
         id="path1806"
         d="m 405.7,165.4 -16.9,6.4 c -6.3,2.4 -12.9,3.6 -19.6,3.6 -1.4,0 -2.9,-0.1 -4.3,-0.2 -18.8,-1.4 -51.9,-4 -73.2,-5.6 L 256,206.4 220,169.2 c -15.6,-16 -37,-25.1 -59.3,-25.1 -0.2,0 -0.5,0 -0.7,0 -10.6,0.1 -21.1,2.2 -30.8,6.4 l -0.8,0.3 c -9.6,4.2 -18.3,10.4 -25.5,18.1 -30.9,33.6 -30.5,85.4 1,118.4 l 48.4,50 c 21.2,1.6 54.7,4.2 73.8,5.6 11.9,0.9 22.3,8.5 26.7,19.6 l 0.2,0.5 c 6.3,15.8 -1.4,33.7 -17.2,40 -2.1,0.8 -4.3,1.4 -6.5,1.8 l -23.7,3.9 24.9,10.6 c 6,2.6 12.8,2.6 18.9,0 l 53,-22.7 105.7,-109.3 c 31.5,-33 31.9,-84.8 1,-118.4 -1.1,-1.2 -2.2,-2.4 -3.4,-3.5 z M 240,280 h -32 v 32 h -32 v -32 h -32 v -32 h 32 v -32 h 32 v 32 h 32 z m 96,8 -16,8 v 48 h -32 v -48 l -16,-8 v -30.1 c 0,-6.1 3.4,-11.6 8.8,-14.3 L 304,232 l -7.2,-3.6 c -5.4,-2.7 -8.8,-8.3 -8.8,-14.3 v -4.2 c 0,-8.8 7.2,-16 16,-16 8.8,0 16,7.2 16,16 v 4.2 c 0,6.1 -3.4,11.6 -8.8,14.3 l -7.2,3.6 23.2,11.6 c 5.4,2.7 8.8,8.3 8.8,14.3 z"
         inkscape:connector-curvature="0"
         style="fill:#ffffff;stroke-width:1.20943701" />
      <rect
         id="rect1808"
         height="88"
         width="32"
         y="376"
         x="32"
         style="fill:#ffffff;stroke-width:1.20943701" />
      <path
         id="path1810"
         d="M 407.3,45.1 378.7,33.7 C 375.9,32.6 372.8,32 369.8,32 h -121 c -4.3,0 -8.6,1.2 -12.3,3.4 l -132.1,79.3 c -6.3,3.8 -8.4,12 -4.6,18.3 3.4,5.7 10.6,8 16.7,5.4 l 4.4,-1.9 c 1.2,-0.5 2.3,-1 3.5,-1.5 L 272,71.3 l 63.9,27.2 14.9,-2.4 2.6,15.8 -68.2,11.1 c -8.1,1.3 -13.5,8.9 -12.2,17 0.2,1.1 0.5,2.1 0.9,3.1 l 0.2,0.5 c 2.1,5.5 7.2,9.2 13,9.6 20.8,1.5 58.4,4.4 78.9,6 5.8,0.5 11.6,-0.4 17.1,-2.4 L 432,138.5 V 48 h -9.8 c -5.1,0 -10.2,-1 -14.9,-2.9 z"
         inkscape:connector-curvature="0"
         style="fill:#ffffff;stroke-width:1.20943701" />
      <rect
         id="rect1812"
         height="88"
         width="32"
         y="48"
         x="448"
         style="fill:#ffffff;stroke-width:1.20943701" />
      <path
         id="path1814"
         d="M 395.9,373.9 255.7,434 c -10,4.3 -21.4,4.3 -31.4,0 l -48.1,-20.5 -14.9,2.4 -2.6,-15.8 68.1,-11.1 c 8.1,-1.3 13.5,-8.9 12.2,-17 -0.2,-1.1 -0.5,-2.1 -0.9,-3.1 l -0.2,-0.5 c -2.1,-5.5 -7.2,-9.2 -13,-9.6 -20.8,-1.5 -58.4,-4.4 -78.9,-6 -5.8,-0.5 -11.6,0.4 -17.1,2.4 L 80,373.5 V 464 h 9.8 c 5.1,0 10.1,1 14.9,2.9 l 28.6,11.4 c 2.8,1.1 5.9,1.7 8.9,1.7 h 121 c 4.3,0 8.6,-1.2 12.3,-3.4 l 132.3,-79.4 c 6.2,-3.7 8.2,-11.8 4.5,-18 -3.4,-5.6 -10.4,-7.9 -16.4,-5.3 z"
         inkscape:connector-curvature="0"
         style="fill:#ffffff;stroke-width:1.20943701" />
    </g>
    <g
       transform="translate(-89.964211,67.591756)"
       id="g6829">
      <circle
         style="fill:#40a073;fill-opacity:1;stroke-width:0.46499997"
         id="circle1093-0-8-8"
         cx="105.39341"
         cy="213.97903"
         r="15.429199" />
      <g
         transform="matrix(0.33315301,0,0,0.33315301,94.278988,206.68059)"
         id="g1885"
         style="fill:#ffffff;stroke-width:1.16791129">
        <path
           style="fill:#ffffff;fill-rule:evenodd;stroke-width:1.16791129"
           inkscape:connector-curvature="0"
           d="m 446.53513,702 h -4.68803 c -0.96201,6.23018 -6.34753,11 -12.8471,11 -7.1797,0 -13,-5.8203 -13,-13 0,-7.1797 5.8203,-13 13,-13 2.10652,0 4.09603,0.50103 5.85584,1.39043 l 4.39728,-5.41205 L 437.26393,679 H 433.9985 C 433.44749,679 433,678.54809 433,677.99063 v -1.98126 C 433,675.44335 433.44704,675 433.9985,675 h 11.003 c 0.55101,0 0.9985,0.45191 0.9985,1.00937 v 1.98126 C 446,678.55665 445.55295,679 445.0015,679 h -3.26543 l 8.50353,17.00706 c 0.0363,0.002 0.0725,0.005 0.10863,0.008 L 462.14246,679.16605 460.54208,674 h -4.55127 C 455.45353,674 455,673.54809 455,672.99063 v -1.98126 C 455,670.44335 455.44903,670 456.00293,670 H 462 c 0.86878,0 1.6382,0.56087 1.90406,1.38798 l 1.50469,4.84847 C 466.06055,674.91166 467.42381,674 469,674 h 1.99953 c 0.56235,0 1.00047,0.44639 1.00047,0.99703 v 6.00594 C 472,681.54696 471.55068,682 470.99641,682 H 469 c -0.71289,0 -1.38222,-0.18649 -1.96187,-0.51335 l 1.76823,5.69765 C 469.51948,687.06311 470.25237,687 471,687 c 7.1797,0 13,5.8203 13,13 0,7.1797 -5.8203,13 -13,13 -7.1797,0 -13,-5.8203 -13,-13 0,-5.0234 2.84923,-9.38132 7.01979,-11.54587 l -1.37942,-4.45279 -10.01474,14.30678 C 453.86583,698.82198 454,699.39532 454,700 c 0,2.20914 -1.79086,4 -4,4 -1.48057,0 -2.77325,-0.8044 -3.46487,-2 z m 19.6964,-9.63435 C 463.69017,693.95635 462,696.7808 462,700 c 0,4.97056 4.02944,9 9,9 4.97056,0 9,-4.02944 9,-9 0,-4.97056 -4.02944,-9 -9,-9 -0.33549,0 -0.66669,0.0184 -0.99266,0.0541 l 2.60239,8.38547 c 0.16012,0.51594 -0.1359,1.08668 -0.66662,1.25727 l -1.88622,0.60628 c -0.53886,0.17321 -1.09277,-0.11666 -1.25539,-0.64159 l -2.56997,-8.2959 z M 446.53513,698 v 0 c 0.0402,-0.0695 0.0824,-0.13765 0.12659,-0.20441 l -5.44521,-10.89044 -3.10534,3.82195 c 1.95063,1.91682 3.29917,4.44435 3.73593,7.2729 z m -14.28951,-6.397 C 431.23875,691.21356 430.14431,691 429,691 c -4.97056,0 -9,4.02944 -9,9 0,4.97056 4.02944,9 9,9 4.28318,0 7.86752,-2.99202 8.77698,-7 H 428 c -1.68407,0 -2.61419,-1.95416 -1.55223,-3.26118 z m 3.32689,2.24861 v 0 L 432.20194,698 h 5.57504 c -0.35884,-1.58143 -1.13413,-3.00469 -2.20447,-4.14839 z"
           transform="translate(-416,-670)"
           id="path1874" />
      </g>
    </g>
  </g>
</svg>
