<?xml version="1.0" encoding="UTF-8" standalone="no"?>
<!-- Created with Inkscape (http://www.inkscape.org/) -->

<svg
   xmlns:dc="http://purl.org/dc/elements/1.1/"
   xmlns:cc="http://creativecommons.org/ns#"
   xmlns:rdf="http://www.w3.org/1999/02/22-rdf-syntax-ns#"
   xmlns:svg="http://www.w3.org/2000/svg"
   xmlns="http://www.w3.org/2000/svg"
   xmlns:sodipodi="http://sodipodi.sourceforge.net/DTD/sodipodi-0.dtd"
   xmlns:inkscape="http://www.inkscape.org/namespaces/inkscape"
   width="30.858mm"
   height="30.858mm"
   viewBox="0 0 30.858 30.858"
   version="1.1"
   id="svg1933"
   inkscape:version="0.92.5 (2060ec1f9f, 2020-04-08)"
   sodipodi:docname="Disparities in access to education.svg">
  <defs
     id="defs1927" />
  <sodipodi:namedview
     id="base"
     pagecolor="#ffffff"
     bordercolor="#666666"
     borderopacity="1.0"
     inkscape:pageopacity="0.0"
     inkscape:pageshadow="2"
     inkscape:zoom="2.8"
     inkscape:cx="89.474658"
     inkscape:cy="11.049758"
     inkscape:document-units="mm"
     inkscape:current-layer="layer1"
     showgrid="false"
     units="mm"
     showguides="true"
     inkscape:guide-bbox="true"
     inkscape:snap-global="true"
     inkscape:window-width="1090"
     inkscape:window-height="767"
     inkscape:window-x="144"
     inkscape:window-y="70"
     inkscape:window-maximized="0">
    <sodipodi:guide
       position="0,16.503893"
       orientation="1,0"
       id="guide2524"
       inkscape:locked="false"
       inkscape:label=""
       inkscape:color="rgb(0,0,255)" />
    <sodipodi:guide
       position="14.29892,0"
       orientation="0,1"
       id="guide2526"
       inkscape:locked="false"
       inkscape:label=""
       inkscape:color="rgb(0,0,255)" />
  </sodipodi:namedview>
  <metadata
     id="metadata1930">
    <rdf:RDF>
      <cc:Work
         rdf:about="">
        <dc:format>image/svg+xml</dc:format>
        <dc:type
           rdf:resource="http://purl.org/dc/dcmitype/StillImage" />
        <dc:title></dc:title>
      </cc:Work>
    </rdf:RDF>
  </metadata>
  <g
     inkscape:label="Layer 1"
     inkscape:groupmode="layer"
     id="layer1"
     transform="translate(0,-266.14199)">
    <g
       style="fill:#ffffff;stroke-width:1.20943701"
       id="g1829"
       transform="matrix(0.04272767,0,0,0.04272767,4.3256279,270.19715)">
      <path
         id="path1806"
         d="m 405.7,165.4 -16.9,6.4 c -6.3,2.4 -12.9,3.6 -19.6,3.6 -1.4,0 -2.9,-0.1 -4.3,-0.2 -18.8,-1.4 -51.9,-4 -73.2,-5.6 L 256,206.4 220,169.2 c -15.6,-16 -37,-25.1 -59.3,-25.1 -0.2,0 -0.5,0 -0.7,0 -10.6,0.1 -21.1,2.2 -30.8,6.4 l -0.8,0.3 c -9.6,4.2 -18.3,10.4 -25.5,18.1 -30.9,33.6 -30.5,85.4 1,118.4 l 48.4,50 c 21.2,1.6 54.7,4.2 73.8,5.6 11.9,0.9 22.3,8.5 26.7,19.6 l 0.2,0.5 c 6.3,15.8 -1.4,33.7 -17.2,40 -2.1,0.8 -4.3,1.4 -6.5,1.8 l -23.7,3.9 24.9,10.6 c 6,2.6 12.8,2.6 18.9,0 l 53,-22.7 105.7,-109.3 c 31.5,-33 31.9,-84.8 1,-118.4 -1.1,-1.2 -2.2,-2.4 -3.4,-3.5 z M 240,280 h -32 v 32 h -32 v -32 h -32 v -32 h 32 v -32 h 32 v 32 h 32 z m 96,8 -16,8 v 48 h -32 v -48 l -16,-8 v -30.1 c 0,-6.1 3.4,-11.6 8.8,-14.3 L 304,232 l -7.2,-3.6 c -5.4,-2.7 -8.8,-8.3 -8.8,-14.3 v -4.2 c 0,-8.8 7.2,-16 16,-16 8.8,0 16,7.2 16,16 v 4.2 c 0,6.1 -3.4,11.6 -8.8,14.3 l -7.2,3.6 23.2,11.6 c 5.4,2.7 8.8,8.3 8.8,14.3 z"
         inkscape:connector-curvature="0"
         style="fill:#ffffff;stroke-width:1.20943701" />
      <rect
         id="rect1808"
         height="88"
         width="32"
         y="376"
         x="32"
         style="fill:#ffffff;stroke-width:1.20943701" />
      <path
         id="path1810"
         d="M 407.3,45.1 378.7,33.7 C 375.9,32.6 372.8,32 369.8,32 h -121 c -4.3,0 -8.6,1.2 -12.3,3.4 l -132.1,79.3 c -6.3,3.8 -8.4,12 -4.6,18.3 3.4,5.7 10.6,8 16.7,5.4 l 4.4,-1.9 c 1.2,-0.5 2.3,-1 3.5,-1.5 L 272,71.3 l 63.9,27.2 14.9,-2.4 2.6,15.8 -68.2,11.1 c -8.1,1.3 -13.5,8.9 -12.2,17 0.2,1.1 0.5,2.1 0.9,3.1 l 0.2,0.5 c 2.1,5.5 7.2,9.2 13,9.6 20.8,1.5 58.4,4.4 78.9,6 5.8,0.5 11.6,-0.4 17.1,-2.4 L 432,138.5 V 48 h -9.8 c -5.1,0 -10.2,-1 -14.9,-2.9 z"
         inkscape:connector-curvature="0"
         style="fill:#ffffff;stroke-width:1.20943701" />
      <rect
         id="rect1812"
         height="88"
         width="32"
         y="48"
         x="448"
         style="fill:#ffffff;stroke-width:1.20943701" />
      <path
         id="path1814"
         d="M 395.9,373.9 255.7,434 c -10,4.3 -21.4,4.3 -31.4,0 l -48.1,-20.5 -14.9,2.4 -2.6,-15.8 68.1,-11.1 c 8.1,-1.3 13.5,-8.9 12.2,-17 -0.2,-1.1 -0.5,-2.1 -0.9,-3.1 l -0.2,-0.5 c -2.1,-5.5 -7.2,-9.2 -13,-9.6 -20.8,-1.5 -58.4,-4.4 -78.9,-6 -5.8,-0.5 -11.6,0.4 -17.1,2.4 L 80,373.5 V 464 h 9.8 c 5.1,0 10.1,1 14.9,2.9 l 28.6,11.4 c 2.8,1.1 5.9,1.7 8.9,1.7 h 121 c 4.3,0 8.6,-1.2 12.3,-3.4 l 132.3,-79.4 c 6.2,-3.7 8.2,-11.8 4.5,-18 -3.4,-5.6 -10.4,-7.9 -16.4,-5.3 z"
         inkscape:connector-curvature="0"
         style="fill:#ffffff;stroke-width:1.20943701" />
    </g>
    <g
       transform="translate(-441.93634,67.788472)"
       id="g7290">
      <circle
         style="fill:#40a073;fill-opacity:1;stroke-width:0.46499997"
         id="circle1093-0-75-5-8"
         cx="457.36554"
         cy="213.78232"
         r="15.429199" />
      <g
         transform="matrix(0.19421465,0,0,0.19421465,448.32409,203.78154)"
         id="g3142"
         style="fill:#ffffff;stroke-width:1.36232436">
        <path
           style="fill:#ffffff;stroke-width:1.36232436"
           inkscape:connector-curvature="0"
           d="m 13.132,76.351 c -3.601,0 -6.519,-2.918 -6.519,-6.516 0,-3.604 2.918,-6.522 6.519,-6.522 3.603,0 6.521,2.919 6.521,6.522 0,3.598 -2.918,6.516 -6.521,6.516"
           id="path3107" />
        <path
           style="fill:#ffffff;stroke-width:1.36232436"
           inkscape:connector-curvature="0"
           d="M 0,100 V 87.223 c 0,-4.605 3.784,-8.351 8.398,-8.351 h 9.003 c 4.613,0 8.731,3.745 8.731,8.351 V 100 Z"
           id="path3109" />
        <path
           style="fill:#ffffff;stroke-width:1.36232436"
           inkscape:connector-curvature="0"
           d="m 80.738,75.799 c 3.602,0 6.521,-2.928 6.521,-6.522 0,-3.606 -2.919,-6.523 -6.521,-6.523 -3.604,0 -6.521,2.919 -6.521,6.523 0,3.594 2.917,6.522 6.521,6.522"
           id="path3111" />
        <path
           style="fill:#ffffff;stroke-width:1.36232436"
           inkscape:connector-curvature="0"
           d="M 93.864,100 V 87.223 c 0,-4.605 -3.785,-8.351 -8.402,-8.351 h -8.993 c -4.62,0 -8.733,3.745 -8.733,8.351 V 100 Z"
           id="path3113" />
        <path
           style="fill:#ffffff;stroke-width:1.36232436"
           inkscape:connector-curvature="0"
           d="m 46.925,63.234 c 3.641,0 6.596,2.928 6.596,6.543 0,3.611 -2.955,6.539 -6.596,6.539 -3.645,0 -6.597,-2.928 -6.597,-6.539 0,-3.615 2.952,-6.543 6.597,-6.543"
           id="path3115" />
        <path
           style="fill:#ffffff;stroke-width:1.36232436"
           inkscape:connector-curvature="0"
           d="m 31.039,100 5.192,-14.14 c 2.077,-7.224 8.131,-7.002 8.131,-7.002 h 2.572 2.568 c 0,0 6.048,-0.222 8.133,7.002 l 5.19,14.14 z"
           id="path3117" />
        <polygon
           style="fill:#ffffff;stroke-width:1.36232436"
           points="46.925,0.634 2.941,0.634 2.941,54.975 46.925,54.975 46.925,39.504 44.356,36.935 44.356,52.4 5.499,52.4 5.499,3.206 44.356,3.206 44.356,28.479 46.925,31.045 "
           id="polygon3119" />
        <path
           style="fill:#ffffff;stroke-width:1.36232436"
           inkscape:connector-curvature="0"
           d="m 80.738,26.508 c 3.602,0 6.521,-2.927 6.521,-6.522 0,-3.607 -2.919,-6.523 -6.521,-6.523 -3.604,0 -6.521,2.918 -6.521,6.523 0,3.595 2.917,6.522 6.521,6.522"
           id="path3121" />
        <path
           style="fill:#ffffff;stroke-width:1.36232436"
           inkscape:connector-curvature="0"
           d="m 85.461,28.588 h -8.993 c -1.621,0 -3.174,0.467 -4.516,1.266 -1.594,0.634 -2.942,1.739 -3.868,3.131 L 62.679,41.139 54.481,41.136 42.899,29.555 c -0.435,-0.438 -1.142,-0.438 -1.576,0 -0.438,0.435 -0.44,1.142 -0.003,1.579 l 11.019,11.02 c -0.238,0.394 -0.612,1.193 -0.612,1.698 0,1.521 1.229,2.743 2.744,2.743 H 63.5 c 1.024,0 2.375,-0.415 2.949,-1.277 0.429,-0.637 0.863,-1.281 1.286,-1.908 v 3.556 2.753 5.842 h 3.312 22.733 0.084 V 49.719 46.966 36.939 c 0,-4.606 -3.785,-8.351 -8.403,-8.351"
           id="path3123" />
      </g>
    </g>
  </g>
</svg>
