<?xml version="1.0" encoding="UTF-8" standalone="no"?>
<!-- Created with Inkscape (http://www.inkscape.org/) -->

<svg
   xmlns:i="http://ns.adobe.com/AdobeIllustrator/10.0/"
   xmlns:dc="http://purl.org/dc/elements/1.1/"
   xmlns:cc="http://creativecommons.org/ns#"
   xmlns:rdf="http://www.w3.org/1999/02/22-rdf-syntax-ns#"
   xmlns:svg="http://www.w3.org/2000/svg"
   xmlns="http://www.w3.org/2000/svg"
   xmlns:sodipodi="http://sodipodi.sourceforge.net/DTD/sodipodi-0.dtd"
   xmlns:inkscape="http://www.inkscape.org/namespaces/inkscape"
   width="30.858mm"
   height="30.858mm"
   viewBox="0 0 30.858 30.858"
   version="1.1"
   id="svg1933"
   inkscape:version="0.92.5 (2060ec1f9f, 2020-04-08)"
   sodipodi:docname="Equity in access to basic services.svg">
  <defs
     id="defs1927">
    <mask
       maskUnits="userSpaceOnUse"
       id="mask2260">
      <rect
         style="opacity:1;fill:#ffffff;fill-opacity:1;stroke:none;stroke-width:0.56499994;stroke-miterlimit:4;stroke-dasharray:none;stroke-opacity:1"
         id="rect2262"
         width="86.248459"
         height="109.59391"
         x="10.399542"
         y="-2.1886201" />
    </mask>
  </defs>
  <sodipodi:namedview
     id="base"
     pagecolor="#ffffff"
     bordercolor="#666666"
     borderopacity="1.0"
     inkscape:pageopacity="0.0"
     inkscape:pageshadow="2"
     inkscape:zoom="2.8"
     inkscape:cx="30.957852"
     inkscape:cy="84.886887"
     inkscape:document-units="mm"
     inkscape:current-layer="layer1"
     showgrid="false"
     units="mm"
     showguides="true"
     inkscape:guide-bbox="true"
     inkscape:snap-global="false"
     inkscape:window-width="1090"
     inkscape:window-height="767"
     inkscape:window-x="1197"
     inkscape:window-y="95"
     inkscape:window-maximized="0"
     inkscape:snap-others="false"
     inkscape:snap-bbox="true"
     inkscape:bbox-nodes="true"
     inkscape:snap-nodes="false">
    <sodipodi:guide
       position="0,16.503893"
       orientation="1,0"
       id="guide2524"
       inkscape:locked="false"
       inkscape:label=""
       inkscape:color="rgb(0,0,255)" />
    <sodipodi:guide
       position="14.29892,0"
       orientation="0,1"
       id="guide2526"
       inkscape:locked="false"
       inkscape:label=""
       inkscape:color="rgb(0,0,255)" />
    <sodipodi:guide
       position="85.526248,30.858"
       orientation="0,1"
       id="guide7505"
       inkscape:locked="false"
       inkscape:label=""
       inkscape:color="rgb(0,0,255)" />
    <sodipodi:guide
       position="15.434815,33.542326"
       orientation="1,0"
       id="guide7585"
       inkscape:locked="false" />
  </sodipodi:namedview>
  <metadata
     id="metadata1930">
    <rdf:RDF>
      <cc:Work
         rdf:about="">
        <dc:format>image/svg+xml</dc:format>
        <dc:type
           rdf:resource="http://purl.org/dc/dcmitype/StillImage" />
        <dc:title></dc:title>
      </cc:Work>
    </rdf:RDF>
  </metadata>
  <g
     inkscape:label="Layer 1"
     inkscape:groupmode="layer"
     id="layer1"
     transform="translate(0,-266.14199)">
    <g
       style="fill:#ffffff"
       id="g1937"
       transform="matrix(0.05167643,0,0,0.05167643,2.2514744,267.80335)">
      <g
         id="g1924"
         style="fill:#ffffff">
        <path
           id="path1920"
           d="m 274.8,274.8 v 18.8 h -37.5 v -18.8 c 0,-10.3 8.4,-18.8 18.8,-18.8 10.4,0 18.7,8.4 18.7,18.8 z"
           inkscape:connector-curvature="0"
           style="fill:#ffffff" />
        <path
           id="path1922"
           d="m 256,68.5 -93.7,65.6 V 68.5 h -37.5 v 91.9 L 68.6,199.8 H 106 V 443.5 H 406 V 199.8 h 37.5 z m 56.3,318.7 H 199.8 c -10.4,0 -18.8,-8.4 -18.8,-18.8 v -75 h 18.8 v -15.7 c 0,-30.5 22.9,-57.7 53.3,-59.3 32.5,-1.6 59.2,24.1 59.2,56.2 v 18.8 H 331 v 75 c 0,10.5 -8.4,18.8 -18.7,18.8 z"
           inkscape:connector-curvature="0"
           style="fill:#ffffff" />
      </g>
    </g>
    <g
       style="fill:#ffffff;stroke-width:1.25318074"
       id="g4815"
       transform="matrix(0.21112943,0,0,0.21112943,4.8210868,269.78482)">
      <g
         id="g4802"
         style="fill:#ffffff;stroke-width:1.25318074">
        <g
           id="g4800"
           i:extraneous="self"
           style="fill:#ffffff;stroke-width:1.25318074">
          <path
             id="path4798"
             d="M 94,84.5 H 81.5 v -7.9 h 2.9 c 1.9,0 3.5,-1.6 3.5,-3.5 0,-1.9 -1.6,-3.5 -3.5,-3.5 H 54.5 c -1.9,0 -3.5,1.6 -3.5,3.5 0,1.9 1.6,3.5 3.5,3.5 h 2.9 v 7.9 h -25 V 61.9 h 8.5 c 7.9,0 14.4,-6.4 14.4,-14.4 0,-4.7 -2.3,-8.9 -5.8,-11.5 0.8,-1.6 1.3,-3.4 1.3,-5.4 0,-6 -4.6,-10.9 -10.4,-11.5 C 40,13.2 35,8.5 28.9,8.5 22.8,8.5 17.8,13.2 17.4,19.1 11.5,19.7 7,24.6 7,30.6 c 0,1.9 0.5,3.8 1.3,5.4 -3.5,2.6 -5.8,6.8 -5.8,11.5 0,7.9 6.4,14.4 14.4,14.4 h 8.5 V 84.5 H 8.3 c -1.9,0 -3.5,1.6 -3.5,3.5 0,1.9 1.6,3.5 3.5,3.5 H 94 c 1.9,0 3.5,-1.6 3.5,-3.5 0,-1.9 -1.6,-3.5 -3.5,-3.5 z M 64.4,76.6 h 10 v 7.9 h -10 z"
             inkscape:connector-curvature="0"
             style="fill:#ffffff;stroke-width:1.25318074" />
        </g>
      </g>
    </g>
    <g
       transform="translate(-511.80365,-320.89295)"
       id="g2243">
      <circle
         style="fill:#40a073;fill-opacity:1;stroke-width:0.46499997"
         id="circle1093-0-75-5-6-0-1-2-9"
         cx="527.23285"
         cy="602.46375"
         r="15.429199" />
      <g
         transform="matrix(0.23154006,0,0,0.23154006,515.82683,591.58412)"
         id="g2236"
         style="fill:#ffffff;stroke-width:1.1427108">
        <path
           style="fill:#ffffff;stroke-width:1.1427108"
           inkscape:connector-curvature="0"
           d="m 1.4,32.7 c -0.1,-1.2 0.3,-2.4 1.2,-3.2 1.1,-0.9 2.9,-1.2 4.3,0.3 0.9,1.1 1.4,4.4 1.6,5.3 0.5,3.2 1.1,7.8 1.2,11 0,0.2 0,0.5 0,0.7 0.1,1.4 0.4,2.7 1,4 3.3,7.1 9.8,16.1 9.8,16.1 l 0.4,0.5 c 0.3,0.4 0.8,0.5 1.2,0.3 0.5,-0.3 0.6,-0.9 0.4,-1.3 L 13.8,52.3 c -0.9,-1.6 -0.4,-3.8 1.3,-4.8 1.7,-1 3.9,-0.5 4.9,1.1 l 9,11.6 c 0.6,0.8 1.7,1.9 2.5,2.4 8.1,5.8 9.2,11.8 9.9,14.8 0,0 0.1,0.7 0.1,1.7 v 0 0 c 0,0.8 0,1.8 -0.2,2.8 l -0.5,9.7 c 0,0.7 -0.6,1.3 -1.3,1.3 L 24.3,92.8 C 23.6,92.8 23,92.2 23,91.5 L 22.7,83.5 8.1,66 C 6,63.7 4.5,61.2 4.1,58.1 L 4,57.2 Z m 9.1,-1.2 c 0.3,0.9 0.4,1.7 0.6,2.6 0.5,2.8 1.1,7.8 1.2,10.4 0,0.3 0,0.5 0,0.8 0.3,-0.3 0.6,-0.5 1,-0.7 0.4,-0.3 0.9,-0.5 1.4,-0.6 0,0 0,-0.1 0.1,-0.1 -0.3,-2.5 -1.2,-7.3 -1.9,-9.8 -0.4,-1.3 -1.1,-2.2 -2.4,-2.6 z m 4.9,3.5 c 0.4,1.8 1.4,5.2 1.7,7 l 0.2,1.2 c 0,0.1 0,0.2 0,0.3 0.7,0 1.5,0.2 2.2,0.4 C 19.3,42.3 18.2,39 17.8,37.5 17.3,36.3 16.6,35.4 15.4,35 Z m 77.7,-5.2 c -0.9,1.1 -1.4,4.4 -1.6,5.3 -0.5,3.2 -1.1,7.8 -1.2,11 0,0.2 0,0.5 0,0.7 -0.1,1.4 -0.4,2.7 -1,4 -3.3,7.1 -9.8,16.1 -9.8,16.1 l -0.4,0.5 c -0.3,0.4 -0.8,0.5 -1.2,0.3 -0.5,-0.3 -0.6,-0.9 -0.4,-1.3 L 86.2,52.3 C 87.1,50.7 86.6,48.5 84.9,47.5 83.2,46.5 81,47 80,48.6 l -9,11.6 c -0.6,0.8 -1.7,1.9 -2.5,2.4 -8.1,5.8 -9.2,11.8 -9.9,14.8 0,0 -0.1,0.7 -0.1,1.7 v 0 c 0,0.8 0,1.8 0.2,2.8 l 0.5,9.7 c 0,0.7 0.6,1.3 1.3,1.3 l 15.2,-0.1 c 0.7,0 1.3,-0.6 1.3,-1.3 l 0.3,-8 L 91.9,66 C 94,63.7 95.5,61.2 96,58.1 l 0.1,-0.9 2.5,-24.5 c 0.1,-1.2 -0.3,-2.4 -1.2,-3.2 -1.2,-0.9 -3,-1.2 -4.3,0.3 z m -5.4,15.5 c 0,-0.3 0,-0.5 0,-0.8 0.1,-2.7 0.7,-7.6 1.2,-10.4 0.1,-0.8 0.3,-1.7 0.6,-2.6 -1.3,0.4 -2,1.3 -2.3,2.6 -0.7,2.5 -1.5,7.3 -1.9,9.8 0,0 0,0.1 0.1,0.1 0.5,0.2 0.9,0.4 1.4,0.6 0.3,0.1 0.6,0.4 0.9,0.7 z M 82.9,42 c 0.2,-1.8 1.3,-5.1 1.7,-7 -1.2,0.4 -1.9,1.3 -2.3,2.5 -0.4,1.5 -1.5,4.8 -1.7,6.4 0.7,-0.3 1.4,-0.4 2.2,-0.4 0,-0.1 0,-0.2 0,-0.3 z M 70.4,19.2 67.5,23.3 c 1,1.7 1.8,3.5 2.2,5.4 l 5,0.8 c 0.9,0.2 1.6,1 1.6,1.9 v 2.5 2.5 c 0,0.9 -0.7,1.7 -1.6,1.9 l -5,0.8 c -0.5,1.9 -1.2,3.7 -2.2,5.4 l 2.9,4.1 c 0.5,0.8 0.4,1.8 -0.2,2.5 l -1.8,1.8 -1.8,1.8 c -0.7,0.7 -1.7,0.7 -2.5,0.2 L 60,52 c -1.6,1 -3.4,1.7 -5.2,2.2 l -0.8,5 c -0.2,0.9 -1,1.6 -1.9,1.6 h -2.5 -2.5 c -0.9,0 -1.7,-0.7 -1.9,-1.6 L 44.4,54.3 C 42.6,53.8 40.7,53.1 39,52.1 l -4,2.7 c -0.8,0.5 -1.8,0.4 -2.5,-0.2 L 30.7,52.8 29,51.1 c -0.7,-0.7 -0.7,-1.7 -0.2,-2.5 l 2.9,-4.1 c -1,-1.7 -1.8,-3.5 -2.3,-5.3 l -5,-0.8 c -0.9,-0.2 -1.6,-1 -1.6,-1.9 V 34 31.5 c 0,-0.9 0.7,-1.7 1.6,-1.9 l 4.9,-0.8 c 0.5,-1.8 1.2,-3.7 2.2,-5.4 l -2.9,-4.1 c -0.5,-0.8 -0.4,-1.8 0.2,-2.5 l 1.8,-1.8 1.8,-1.8 c 0.7,-0.7 1.7,-0.7 2.5,-0.2 l 4.1,2.9 c 1.7,-1.1 3.6,-1.8 5.5,-2.3 l 0.8,-5 C 45.5,7.7 46.3,7 47.2,7 h 2.5 2.5 c 0.9,0 1.7,0.7 1.9,1.6 l 0.8,5 c 1.9,0.5 3.7,1.2 5.4,2.2 l 4.1,-2.9 c 0.7,-0.5 1.8,-0.4 2.4,0.2 l 1.8,1.8 1.8,1.8 c 0.5,0.7 0.5,1.7 0,2.5 z M 57.9,25.6 C 53.4,21 46,21 41.5,25.6 37,30.1 37,37.4 41.5,42 c 4.5,4.5 11.9,4.5 16.4,0 4.5,-4.6 4.5,-11.9 0,-16.4 z m -13,3.3 c -2.7,2.7 -2.7,7 0,9.7 2.7,2.7 7,2.7 9.7,0 2.7,-2.7 2.7,-7 0,-9.7 -2.7,-2.7 -7.1,-2.7 -9.7,0 z"
           id="path2225" />
      </g>
    </g>
  </g>
</svg>
