<?xml version="1.0" encoding="UTF-8" standalone="no"?>
<!-- Created with Inkscape (http://www.inkscape.org/) -->

<svg
   xmlns:dc="http://purl.org/dc/elements/1.1/"
   xmlns:cc="http://creativecommons.org/ns#"
   xmlns:rdf="http://www.w3.org/1999/02/22-rdf-syntax-ns#"
   xmlns:svg="http://www.w3.org/2000/svg"
   xmlns="http://www.w3.org/2000/svg"
   xmlns:sodipodi="http://sodipodi.sourceforge.net/DTD/sodipodi-0.dtd"
   xmlns:inkscape="http://www.inkscape.org/namespaces/inkscape"
   width="30.858mm"
   height="30.858mm"
   viewBox="0 0 30.858 30.858"
   version="1.1"
   id="svg1933"
   inkscape:version="0.92.5 (2060ec1f9f, 2020-04-08)"
   sodipodi:docname="Investment in walking &amp; cycling infrastructure.svg">
  <defs
     id="defs1927">
    <mask
       maskUnits="userSpaceOnUse"
       id="mask2260">
      <rect
         style="opacity:1;fill:#ffffff;fill-opacity:1;stroke:none;stroke-width:0.56499994;stroke-miterlimit:4;stroke-dasharray:none;stroke-opacity:1"
         id="rect2262"
         width="86.248459"
         height="109.59391"
         x="10.399542"
         y="-2.1886201" />
    </mask>
  </defs>
  <sodipodi:namedview
     id="base"
     pagecolor="#ffffff"
     bordercolor="#666666"
     borderopacity="1.0"
     inkscape:pageopacity="0.0"
     inkscape:pageshadow="2"
     inkscape:zoom="3.959798"
     inkscape:cx="79.004522"
     inkscape:cy="50.090754"
     inkscape:document-units="mm"
     inkscape:current-layer="layer1"
     showgrid="false"
     units="mm"
     showguides="true"
     inkscape:guide-bbox="true"
     inkscape:snap-global="true"
     inkscape:window-width="1090"
     inkscape:window-height="767"
     inkscape:window-x="824"
     inkscape:window-y="161"
     inkscape:window-maximized="0"
     inkscape:snap-others="false"
     inkscape:snap-bbox="true"
     inkscape:bbox-nodes="true"
     inkscape:snap-nodes="false">
    <sodipodi:guide
       position="0,16.503893"
       orientation="1,0"
       id="guide2524"
       inkscape:locked="false"
       inkscape:label=""
       inkscape:color="rgb(0,0,255)" />
    <sodipodi:guide
       position="14.29892,0"
       orientation="0,1"
       id="guide2526"
       inkscape:locked="false"
       inkscape:label=""
       inkscape:color="rgb(0,0,255)" />
    <sodipodi:guide
       position="85.526248,30.858"
       orientation="0,1"
       id="guide7505"
       inkscape:locked="false"
       inkscape:label=""
       inkscape:color="rgb(0,0,255)" />
    <sodipodi:guide
       position="15.434815,33.542326"
       orientation="1,0"
       id="guide7585"
       inkscape:locked="false" />
  </sodipodi:namedview>
  <metadata
     id="metadata1930">
    <rdf:RDF>
      <cc:Work
         rdf:about="">
        <dc:format>image/svg+xml</dc:format>
        <dc:type
           rdf:resource="http://purl.org/dc/dcmitype/StillImage" />
        <dc:title></dc:title>
      </cc:Work>
    </rdf:RDF>
  </metadata>
  <g
     inkscape:label="Layer 1"
     inkscape:groupmode="layer"
     id="layer1"
     transform="translate(0,-266.14199)">
    <g
       style="fill:#ffffff;stroke-width:1.20943701"
       id="g1829"
       transform="matrix(0.04272767,0,0,0.04272767,4.3256279,270.19715)">
      <path
         id="path1806"
         d="m 405.7,165.4 -16.9,6.4 c -6.3,2.4 -12.9,3.6 -19.6,3.6 -1.4,0 -2.9,-0.1 -4.3,-0.2 -18.8,-1.4 -51.9,-4 -73.2,-5.6 L 256,206.4 220,169.2 c -15.6,-16 -37,-25.1 -59.3,-25.1 -0.2,0 -0.5,0 -0.7,0 -10.6,0.1 -21.1,2.2 -30.8,6.4 l -0.8,0.3 c -9.6,4.2 -18.3,10.4 -25.5,18.1 -30.9,33.6 -30.5,85.4 1,118.4 l 48.4,50 c 21.2,1.6 54.7,4.2 73.8,5.6 11.9,0.9 22.3,8.5 26.7,19.6 l 0.2,0.5 c 6.3,15.8 -1.4,33.7 -17.2,40 -2.1,0.8 -4.3,1.4 -6.5,1.8 l -23.7,3.9 24.9,10.6 c 6,2.6 12.8,2.6 18.9,0 l 53,-22.7 105.7,-109.3 c 31.5,-33 31.9,-84.8 1,-118.4 -1.1,-1.2 -2.2,-2.4 -3.4,-3.5 z M 240,280 h -32 v 32 h -32 v -32 h -32 v -32 h 32 v -32 h 32 v 32 h 32 z m 96,8 -16,8 v 48 h -32 v -48 l -16,-8 v -30.1 c 0,-6.1 3.4,-11.6 8.8,-14.3 L 304,232 l -7.2,-3.6 c -5.4,-2.7 -8.8,-8.3 -8.8,-14.3 v -4.2 c 0,-8.8 7.2,-16 16,-16 8.8,0 16,7.2 16,16 v 4.2 c 0,6.1 -3.4,11.6 -8.8,14.3 l -7.2,3.6 23.2,11.6 c 5.4,2.7 8.8,8.3 8.8,14.3 z"
         inkscape:connector-curvature="0"
         style="fill:#ffffff;stroke-width:1.20943701" />
      <rect
         id="rect1808"
         height="88"
         width="32"
         y="376"
         x="32"
         style="fill:#ffffff;stroke-width:1.20943701" />
      <path
         id="path1810"
         d="M 407.3,45.1 378.7,33.7 C 375.9,32.6 372.8,32 369.8,32 h -121 c -4.3,0 -8.6,1.2 -12.3,3.4 l -132.1,79.3 c -6.3,3.8 -8.4,12 -4.6,18.3 3.4,5.7 10.6,8 16.7,5.4 l 4.4,-1.9 c 1.2,-0.5 2.3,-1 3.5,-1.5 L 272,71.3 l 63.9,27.2 14.9,-2.4 2.6,15.8 -68.2,11.1 c -8.1,1.3 -13.5,8.9 -12.2,17 0.2,1.1 0.5,2.1 0.9,3.1 l 0.2,0.5 c 2.1,5.5 7.2,9.2 13,9.6 20.8,1.5 58.4,4.4 78.9,6 5.8,0.5 11.6,-0.4 17.1,-2.4 L 432,138.5 V 48 h -9.8 c -5.1,0 -10.2,-1 -14.9,-2.9 z"
         inkscape:connector-curvature="0"
         style="fill:#ffffff;stroke-width:1.20943701" />
      <rect
         id="rect1812"
         height="88"
         width="32"
         y="48"
         x="448"
         style="fill:#ffffff;stroke-width:1.20943701" />
      <path
         id="path1814"
         d="M 395.9,373.9 255.7,434 c -10,4.3 -21.4,4.3 -31.4,0 l -48.1,-20.5 -14.9,2.4 -2.6,-15.8 68.1,-11.1 c 8.1,-1.3 13.5,-8.9 12.2,-17 -0.2,-1.1 -0.5,-2.1 -0.9,-3.1 l -0.2,-0.5 c -2.1,-5.5 -7.2,-9.2 -13,-9.6 -20.8,-1.5 -58.4,-4.4 -78.9,-6 -5.8,-0.5 -11.6,0.4 -17.1,2.4 L 80,373.5 V 464 h 9.8 c 5.1,0 10.1,1 14.9,2.9 l 28.6,11.4 c 2.8,1.1 5.9,1.7 8.9,1.7 h 121 c 4.3,0 8.6,-1.2 12.3,-3.4 l 132.3,-79.4 c 6.2,-3.7 8.2,-11.8 4.5,-18 -3.4,-5.6 -10.4,-7.9 -16.4,-5.3 z"
         inkscape:connector-curvature="0"
         style="fill:#ffffff;stroke-width:1.20943701" />
    </g>
    <g
       style="fill:#ffffff;stroke-width:1.27491653"
       id="g3556"
       transform="matrix(0.42010107,0,0,0.42010107,7.9079933,271.42233)">
      <path
         id="path3545"
         transform="translate(-494,-327.3)"
         d="m 512,327.3 a 18,18 0 0 0 -18,18 c 0,8.7 13.8,26.6 17.2,31 a 1,1 0 0 0 1.6,0 c 3.5,-4.4 17.2,-22.3 17.2,-31 a 18,18 0 0 0 -18,-18 z m 1.6,29.9 a 12,12 0 0 1 -13.5,-13.5 12.8,12.8 0 0 1 10.3,-10.3 12,12 0 0 1 13.5,13.5 12.8,12.8 0 0 1 -10.3,10.3 z m -5.7,-17.1 a 4.1,4.1 0 1 1 4.1,4.1 4.1,4.1 0 0 1 -4.1,-4.1 z m 4.1,5.9 a 8.8,8.8 0 0 0 -7.4,4.7 0.9,0.9 0 0 0 0.9,1.5 h 13 a 0.9,0.9 0 0 0 0.9,-1.5 8.8,8.8 0 0 0 -7.4,-4.6 z"
         inkscape:connector-curvature="0"
         style="fill:#ffffff;stroke-width:1.27491653" />
    </g>
    <g
       transform="translate(-160.03781,-243.33631)"
       id="g9635">
      <circle
         style="fill:#40a073;fill-opacity:1;stroke-width:0.46499997"
         id="circle1093-0-8-8-7-5"
         cx="175.46701"
         cy="524.9071"
         r="15.429199" />
      <g
         transform="matrix(0.23434523,0,0,0.23434523,163.56756,518.15808)"
         id="g3275"
         style="fill:#ffffff;stroke-width:1.12903225">
        <g
           style="fill:#ffffff;stroke-width:1.12903225"
           id="g3261">
          <path
             style="fill:#ffffff;stroke-width:1.12903225"
             inkscape:connector-curvature="0"
             d="m 41.667,34.723 c -3.064,0 -5.555,2.491 -5.555,5.556 0,3.063 2.491,5.555 5.555,5.555 3.064,0 5.556,-2.491 5.556,-5.555 -10e-4,-3.065 -2.493,-5.556 -5.556,-5.556 z"
             id="path3255" />
          <path
             style="fill:#ffffff;stroke-width:1.12903225"
             inkscape:connector-curvature="0"
             d="m 18.056,34.723 c -3.064,0 -5.556,2.491 -5.556,5.556 0,3.063 2.492,5.555 5.556,5.555 3.064,0 5.556,-2.491 5.556,-5.555 -10e-4,-3.065 -2.492,-5.556 -5.556,-5.556 z"
             id="path3257" />
          <path
             style="fill:#ffffff;stroke-width:1.12903225"
             inkscape:connector-curvature="0"
             d="M 69.444,0 C 62.057,0 55.283,2.622 50,6.985 44.716,2.622 37.941,0 30.555,0 13.683,0 0,13.68 0,30.556 0,47.429 13.683,61.112 30.555,61.112 37.941,61.112 44.716,58.49 50,54.126 55.284,58.49 62.057,61.112 69.445,61.112 86.32,61.111 100,47.429 100,30.556 100,13.68 86.32,0 69.444,0 Z m 0.521,12.5 c 1.534,0 2.778,1.244 2.778,2.778 0,1.534 -1.244,2.778 -2.778,2.778 -1.533,0 -2.777,-1.244 -2.777,-2.778 0,-1.534 1.244,-2.778 2.777,-2.778 z m -43.576,0 c 1.534,0 2.778,1.244 2.778,2.778 0,1.534 -1.244,2.778 -2.778,2.778 -1.534,0 -2.777,-1.244 -2.777,-2.778 0,-1.534 1.243,-2.778 2.777,-2.778 z m -8.333,36.111 c -4.595,0 -8.333,-3.738 -8.333,-8.333 0,-4.596 3.738,-8.334 8.333,-8.334 4.595,0 8.333,3.738 8.333,8.334 0,4.595 -3.738,8.333 -8.333,8.333 z m 13.888,-7.638 c 0,1.149 -0.933,2.083 -2.083,2.083 -1.15,0 -2.083,-0.934 -2.083,-2.083 V 31.25 c 0,-0.783 0.437,-1.457 1.074,-1.812 l -0.004,-0.008 4.646,-2.588 -3.635,-3.773 -2.074,2.909 c -0.315,0.448 -0.809,0.758 -1.397,0.758 h -6.944 c -0.959,0 -1.736,-0.776 -1.736,-1.736 0,-0.96 0.777,-1.736 1.736,-1.736 h 6.048 l 3.414,-4.815 c 0.509,-0.592 1.254,-0.976 2.097,-0.976 0.787,0 1.492,0.33 1.998,0.854 l 0.003,-0.003 6.497,6.745 -0.004,0.004 c 0.481,0.499 0.781,1.175 0.781,1.923 0,1.16 -0.712,2.151 -1.723,2.567 l -6.611,3.681 z m 9.723,7.638 c -4.595,0 -8.333,-3.738 -8.333,-8.333 0,-4.596 3.738,-8.334 8.333,-8.334 4.595,0 8.333,3.739 8.333,8.334 0,4.595 -3.738,8.333 -8.333,8.333 z M 81.424,30.556 c 0,0.959 -0.777,1.736 -1.736,1.736 -0.959,0 -1.736,-0.777 -1.736,-1.736 v -2.699 l -2.431,-2.189 v 6.27 l 5.392,13.779 c 0,0 0,0 0.002,0 l 0.019,0.052 -0.004,0.001 c 0.093,0.236 0.146,0.49 0.146,0.759 0,1.149 -0.933,2.083 -2.083,2.083 -0.882,0 -1.633,-0.551 -1.937,-1.325 l -0.003,10e-4 -5.222,-13.344 -7.692,13.61 -0.008,-0.005 c -0.358,0.631 -1.028,1.062 -1.806,1.062 -1.15,0 -2.083,-0.934 -2.083,-2.083 0,-0.373 0.105,-0.72 0.278,-1.021 L 60.511,45.503 68.574,31.236 V 26.6 l -4.222,5.066 -0.018,-0.016 c -0.317,0.383 -0.779,0.641 -1.316,0.641 -0.959,0 -1.735,-0.777 -1.735,-1.736 0,-0.423 0.169,-0.795 0.42,-1.096 l -0.018,-0.015 6.944,-8.333 c 1.804,-1.804 3.853,-2.449 5.272,-1.568 l 6.944,6.25 -0.01,0.011 c 0.354,0.317 0.585,0.767 0.585,1.279 v 3.473 z"
             id="path3259" />
        </g>
      </g>
    </g>
  </g>
</svg>
