<?xml version="1.0" encoding="UTF-8" standalone="no"?>
<!-- Created with Inkscape (http://www.inkscape.org/) -->

<svg
   xmlns:dc="http://purl.org/dc/elements/1.1/"
   xmlns:cc="http://creativecommons.org/ns#"
   xmlns:rdf="http://www.w3.org/1999/02/22-rdf-syntax-ns#"
   xmlns:svg="http://www.w3.org/2000/svg"
   xmlns="http://www.w3.org/2000/svg"
   xmlns:sodipodi="http://sodipodi.sourceforge.net/DTD/sodipodi-0.dtd"
   xmlns:inkscape="http://www.inkscape.org/namespaces/inkscape"
   width="30.858mm"
   height="30.858mm"
   viewBox="0 0 30.858 30.858"
   version="1.1"
   id="svg1933"
   inkscape:version="0.92.5 (2060ec1f9f, 2020-04-08)"
   sodipodi:docname="Local communicy social connection.svg">
  <defs
     id="defs1927">
    <mask
       maskUnits="userSpaceOnUse"
       id="mask2260">
      <rect
         style="opacity:1;fill:#ffffff;fill-opacity:1;stroke:none;stroke-width:0.56499994;stroke-miterlimit:4;stroke-dasharray:none;stroke-opacity:1"
         id="rect2262"
         width="86.248459"
         height="109.59391"
         x="10.399542"
         y="-2.1886201" />
    </mask>
  </defs>
  <sodipodi:namedview
     id="base"
     pagecolor="#ffffff"
     bordercolor="#666666"
     borderopacity="1.0"
     inkscape:pageopacity="0.0"
     inkscape:pageshadow="2"
     inkscape:zoom="3.959798"
     inkscape:cx="79.004522"
     inkscape:cy="50.090754"
     inkscape:document-units="mm"
     inkscape:current-layer="layer1"
     showgrid="false"
     units="mm"
     showguides="true"
     inkscape:guide-bbox="true"
     inkscape:snap-global="true"
     inkscape:window-width="1090"
     inkscape:window-height="767"
     inkscape:window-x="824"
     inkscape:window-y="161"
     inkscape:window-maximized="0"
     inkscape:snap-others="false"
     inkscape:snap-bbox="true"
     inkscape:bbox-nodes="true"
     inkscape:snap-nodes="false">
    <sodipodi:guide
       position="0,16.503893"
       orientation="1,0"
       id="guide2524"
       inkscape:locked="false"
       inkscape:label=""
       inkscape:color="rgb(0,0,255)" />
    <sodipodi:guide
       position="14.29892,0"
       orientation="0,1"
       id="guide2526"
       inkscape:locked="false"
       inkscape:label=""
       inkscape:color="rgb(0,0,255)" />
    <sodipodi:guide
       position="85.526248,30.858"
       orientation="0,1"
       id="guide7505"
       inkscape:locked="false"
       inkscape:label=""
       inkscape:color="rgb(0,0,255)" />
    <sodipodi:guide
       position="15.434815,33.542326"
       orientation="1,0"
       id="guide7585"
       inkscape:locked="false" />
  </sodipodi:namedview>
  <metadata
     id="metadata1930">
    <rdf:RDF>
      <cc:Work
         rdf:about="">
        <dc:format>image/svg+xml</dc:format>
        <dc:type
           rdf:resource="http://purl.org/dc/dcmitype/StillImage" />
        <dc:title></dc:title>
      </cc:Work>
    </rdf:RDF>
  </metadata>
  <g
     inkscape:label="Layer 1"
     inkscape:groupmode="layer"
     id="layer1"
     transform="translate(0,-266.14199)">
    <g
       style="fill:#ffffff;stroke-width:1.20943701"
       id="g1829"
       transform="matrix(0.04272767,0,0,0.04272767,4.3256279,270.19715)">
      <path
         id="path1806"
         d="m 405.7,165.4 -16.9,6.4 c -6.3,2.4 -12.9,3.6 -19.6,3.6 -1.4,0 -2.9,-0.1 -4.3,-0.2 -18.8,-1.4 -51.9,-4 -73.2,-5.6 L 256,206.4 220,169.2 c -15.6,-16 -37,-25.1 -59.3,-25.1 -0.2,0 -0.5,0 -0.7,0 -10.6,0.1 -21.1,2.2 -30.8,6.4 l -0.8,0.3 c -9.6,4.2 -18.3,10.4 -25.5,18.1 -30.9,33.6 -30.5,85.4 1,118.4 l 48.4,50 c 21.2,1.6 54.7,4.2 73.8,5.6 11.9,0.9 22.3,8.5 26.7,19.6 l 0.2,0.5 c 6.3,15.8 -1.4,33.7 -17.2,40 -2.1,0.8 -4.3,1.4 -6.5,1.8 l -23.7,3.9 24.9,10.6 c 6,2.6 12.8,2.6 18.9,0 l 53,-22.7 105.7,-109.3 c 31.5,-33 31.9,-84.8 1,-118.4 -1.1,-1.2 -2.2,-2.4 -3.4,-3.5 z M 240,280 h -32 v 32 h -32 v -32 h -32 v -32 h 32 v -32 h 32 v 32 h 32 z m 96,8 -16,8 v 48 h -32 v -48 l -16,-8 v -30.1 c 0,-6.1 3.4,-11.6 8.8,-14.3 L 304,232 l -7.2,-3.6 c -5.4,-2.7 -8.8,-8.3 -8.8,-14.3 v -4.2 c 0,-8.8 7.2,-16 16,-16 8.8,0 16,7.2 16,16 v 4.2 c 0,6.1 -3.4,11.6 -8.8,14.3 l -7.2,3.6 23.2,11.6 c 5.4,2.7 8.8,8.3 8.8,14.3 z"
         inkscape:connector-curvature="0"
         style="fill:#ffffff;stroke-width:1.20943701" />
      <rect
         id="rect1808"
         height="88"
         width="32"
         y="376"
         x="32"
         style="fill:#ffffff;stroke-width:1.20943701" />
      <path
         id="path1810"
         d="M 407.3,45.1 378.7,33.7 C 375.9,32.6 372.8,32 369.8,32 h -121 c -4.3,0 -8.6,1.2 -12.3,3.4 l -132.1,79.3 c -6.3,3.8 -8.4,12 -4.6,18.3 3.4,5.7 10.6,8 16.7,5.4 l 4.4,-1.9 c 1.2,-0.5 2.3,-1 3.5,-1.5 L 272,71.3 l 63.9,27.2 14.9,-2.4 2.6,15.8 -68.2,11.1 c -8.1,1.3 -13.5,8.9 -12.2,17 0.2,1.1 0.5,2.1 0.9,3.1 l 0.2,0.5 c 2.1,5.5 7.2,9.2 13,9.6 20.8,1.5 58.4,4.4 78.9,6 5.8,0.5 11.6,-0.4 17.1,-2.4 L 432,138.5 V 48 h -9.8 c -5.1,0 -10.2,-1 -14.9,-2.9 z"
         inkscape:connector-curvature="0"
         style="fill:#ffffff;stroke-width:1.20943701" />
      <rect
         id="rect1812"
         height="88"
         width="32"
         y="48"
         x="448"
         style="fill:#ffffff;stroke-width:1.20943701" />
      <path
         id="path1814"
         d="M 395.9,373.9 255.7,434 c -10,4.3 -21.4,4.3 -31.4,0 l -48.1,-20.5 -14.9,2.4 -2.6,-15.8 68.1,-11.1 c 8.1,-1.3 13.5,-8.9 12.2,-17 -0.2,-1.1 -0.5,-2.1 -0.9,-3.1 l -0.2,-0.5 c -2.1,-5.5 -7.2,-9.2 -13,-9.6 -20.8,-1.5 -58.4,-4.4 -78.9,-6 -5.8,-0.5 -11.6,0.4 -17.1,2.4 L 80,373.5 V 464 h 9.8 c 5.1,0 10.1,1 14.9,2.9 l 28.6,11.4 c 2.8,1.1 5.9,1.7 8.9,1.7 h 121 c 4.3,0 8.6,-1.2 12.3,-3.4 l 132.3,-79.4 c 6.2,-3.7 8.2,-11.8 4.5,-18 -3.4,-5.6 -10.4,-7.9 -16.4,-5.3 z"
         inkscape:connector-curvature="0"
         style="fill:#ffffff;stroke-width:1.20943701" />
    </g>
    <g
       style="fill:#ffffff;stroke-width:1.27491653"
       id="g3556"
       transform="matrix(0.42010107,0,0,0.42010107,7.9079933,271.42233)">
      <path
         id="path3545"
         transform="translate(-494,-327.3)"
         d="m 512,327.3 a 18,18 0 0 0 -18,18 c 0,8.7 13.8,26.6 17.2,31 a 1,1 0 0 0 1.6,0 c 3.5,-4.4 17.2,-22.3 17.2,-31 a 18,18 0 0 0 -18,-18 z m 1.6,29.9 a 12,12 0 0 1 -13.5,-13.5 12.8,12.8 0 0 1 10.3,-10.3 12,12 0 0 1 13.5,13.5 12.8,12.8 0 0 1 -10.3,10.3 z m -5.7,-17.1 a 4.1,4.1 0 1 1 4.1,4.1 4.1,4.1 0 0 1 -4.1,-4.1 z m 4.1,5.9 a 8.8,8.8 0 0 0 -7.4,4.7 0.9,0.9 0 0 0 0.9,1.5 h 13 a 0.9,0.9 0 0 0 0.9,-1.5 8.8,8.8 0 0 0 -7.4,-4.6 z"
         inkscape:connector-curvature="0"
         style="fill:#ffffff;stroke-width:1.27491653" />
    </g>
    <g
       transform="translate(-300.65359,-243.37043)"
       id="g10020">
      <circle
         style="fill:#40a073;fill-opacity:1;stroke-width:0.46499997"
         id="circle1093-0-75-5-4-2-7-5"
         cx="316.08279"
         cy="524.94122"
         r="15.429199" />
      <g
         transform="matrix(0.25121985,0,0,0.25121985,303.4184,513.21478)"
         id="g6821"
         style="fill:#ffffff;stroke-width:1.0531944">
        <g
           style="display:none;fill:#ffffff;stroke-width:1.0531944"
           display="none"
           id="g6767">
          <rect
             style="display:inline;fill:#ffffff;stroke-width:1.0531944"
             x="-60.876999"
             y="-277.172"
             display="inline"
             width="1370.931"
             height="1263.231"
             id="rect6765" />
        </g>
        <g
           style="display:none;opacity:0.31000001;fill:#ffffff;stroke-width:1.0531944"
           display="none"
           id="g6775">
          <g
             style="display:inline;fill:#ffffff;stroke-width:1.0531944"
             display="inline"
             id="g6773">
            <path
               style="fill:#ffffff;stroke-width:1.0531944"
               inkscape:connector-curvature="0"
               d="m 39.925,25.435 c 0,-6.23 -5.069,-11.299 -11.299,-11.299 -6.23,0 -11.299,5.069 -11.299,11.299 0,6.23 5.069,11.299 11.299,11.299 6.23,10e-4 11.299,-5.068 11.299,-11.299 z m -19.599,0 c 0,-4.576 3.723,-8.299 8.299,-8.299 4.576,0 8.299,3.723 8.299,8.299 0,4.576 -3.723,8.299 -8.299,8.299 -4.576,0 -8.299,-3.723 -8.299,-8.299 z"
               id="path6769" />
            <path
               style="fill:#ffffff;stroke-width:1.0531944"
               inkscape:connector-curvature="0"
               d="m 13.115,49.934 v 16.82 c 0,3.107 2.283,5.692 5.26,6.164 v 15.606 c 0,3.441 2.799,6.24 6.24,6.24 h 8.02 c 3.441,0 6.24,-2.799 6.24,-6.24 V 51.333 h 10.034 v 15.958 h 3 V 51.283 c 5.193,-0.494 9.27,-4.877 9.27,-10.198 v -2.862 h -9.27 V 27.112 h 12.267 v 5.907 H 86.885 L 81.008,22.657 86.73,11.143 H 71.38 V 5.236 H 48.909 v 2.5 19.376 11.112 H 24.825 c -6.457,0 -11.71,5.253 -11.71,11.71 z m 68.774,-35.791 -4.278,8.607 4.123,7.269 H 67.176 V 14.143 Z M 51.909,8.236 H 68.38 v 2.907 H 64.175 V 24.112 H 51.909 Z M 24.825,41.224 h 33.353 c -0.074,3.933 -3.295,7.109 -7.246,7.109 H 35.875 v 40.191 c 0,1.787 -1.454,3.24 -3.24,3.24 h -8.02 c -1.787,0 -3.24,-1.454 -3.24,-3.24 v -18.53 h -2.02 c -1.787,0 -3.24,-1.454 -3.24,-3.24 v -16.82 c 0,-4.803 3.907,-8.71 8.71,-8.71 z"
               id="path6771" />
          </g>
        </g>
        <g
           style="fill:#ffffff;stroke-width:1.0531944"
           id="g6795">
          <path
             style="fill:#ffffff;stroke-width:1.0531944"
             inkscape:connector-curvature="0"
             d="m 27.228,72.218 c 0.385,0.345 0.863,0.525 1.356,0.525 0.22,0 0.444,-0.036 0.662,-0.11 0.707,-0.239 1.212,-0.821 1.357,-1.578 0.133,-0.697 -0.106,-1.398 -0.64,-1.877 -3.304,-2.962 -5.956,-6.679 -7.671,-10.748 -0.319,-0.758 -1.051,-1.248 -1.903,-1.248 -0.686,0 -1.323,0.342 -1.704,0.915 -0.374,0.563 -0.442,1.269 -0.182,1.888 1.944,4.627 4.961,8.858 8.725,12.233 z"
             id="path6777" />
          <path
             style="fill:#ffffff;stroke-width:1.0531944"
             inkscape:connector-curvature="0"
             d="m 70.754,72.633 c 0.219,0.074 0.442,0.11 0.662,0.11 0.492,0 0.971,-0.181 1.356,-0.525 3.765,-3.375 6.782,-7.605 8.725,-12.232 0.26,-0.62 0.193,-1.326 -0.182,-1.889 -0.381,-0.573 -1.018,-0.915 -1.704,-0.915 h -0.036 c -0.816,0 -1.548,0.49 -1.866,1.247 -1.714,4.069 -4.366,7.786 -7.671,10.749 -0.533,0.478 -0.772,1.18 -0.636,1.899 0.14,0.736 0.645,1.317 1.352,1.556 z"
             id="path6779" />
          <path
             style="fill:#ffffff;stroke-width:1.0531944"
             inkscape:connector-curvature="0"
             d="m 67.441,17.468 v 0 C 62.174,14.324 56.143,12.662 50,12.662 c -6.143,0 -12.174,1.662 -17.441,4.805 -0.604,0.36 -0.977,0.995 -0.998,1.697 -0.02,0.7 0.314,1.354 0.914,1.761 0.342,0.232 0.733,0.348 1.126,0.348 0.359,0 0.72,-0.097 1.048,-0.292 4.638,-2.768 9.946,-4.232 15.351,-4.232 5.405,0 10.713,1.463 15.351,4.232 0.685,0.409 1.518,0.387 2.193,-0.069 0.58,-0.394 0.915,-1.047 0.895,-1.748 -0.021,-0.701 -0.394,-1.336 -0.998,-1.696 z"
             id="path6781" />
          <path
             style="fill:#ffffff;stroke-width:1.0531944"
             inkscape:connector-curvature="0"
             d="m 19.147,10.519 h -1.63 c -0.03,0 -0.059,0.004 -0.089,0.005 -4.191,0.048 -7.586,3.468 -7.586,7.669 v 3.303 c 0,4.232 3.442,7.674 7.674,7.674 h 1.63 c 4.232,0 7.674,-3.442 7.674,-7.674 v -3.303 c 0,-0.862 -0.149,-1.688 -0.413,-2.463 -1.027,-3.026 -3.89,-5.211 -7.26,-5.211 z"
             id="path6783" />
          <path
             style="fill:#ffffff;stroke-width:1.0531944"
             inkscape:connector-curvature="0"
             d="m 31.664,48.056 v -6.183 c 0,-5.33 -4.336,-9.666 -9.666,-9.666 h -7.333 c -1.77,0 -3.426,0.487 -4.854,1.321 -1.1,0.642 -2.06,1.494 -2.828,2.503 C 5.745,37.656 5,39.677 5,41.873 v 6.183 h 12.614 z"
             id="path6785" />
          <path
             style="fill:#ffffff;stroke-width:1.0531944"
             inkscape:connector-curvature="0"
             d="m 80.852,30.714 h 1.631 c 4.231,0 7.674,-3.442 7.674,-7.674 v -3.303 c 0,-4.231 -3.442,-7.674 -7.674,-7.674 h -1.631 c -0.463,0 -0.914,0.048 -1.354,0.127 -1.853,0.332 -3.477,1.326 -4.614,2.734 -1.064,1.318 -1.705,2.991 -1.705,4.812 v 3.303 c -0.001,4.232 3.442,7.675 7.673,7.675 z"
             id="path6787" />
          <path
             style="fill:#ffffff;stroke-width:1.0531944"
             inkscape:connector-curvature="0"
             d="m 91.556,36.031 c -0.573,-0.484 -1.205,-0.897 -1.88,-1.238 -1.307,-0.661 -2.779,-1.042 -4.342,-1.042 h -7.333 c -5.33,0 -9.666,4.336 -9.666,9.666 V 49.6 H 81.232 95 v -6.183 c 0,-2.96 -1.341,-5.611 -3.444,-7.386 z"
             id="path6789" />
          <path
             style="fill:#ffffff;stroke-width:1.0531944"
             inkscape:connector-curvature="0"
             d="m 50.815,70.595 c 4.232,0 7.674,-3.442 7.674,-7.674 v -3.303 c 0,-4.232 -3.442,-7.674 -7.674,-7.674 h -1.63 c -4.231,0 -7.674,3.442 -7.674,7.674 v 3.303 c 0,4.231 3.442,7.674 7.674,7.674 z"
             id="path6791" />
          <path
             style="fill:#ffffff;stroke-width:1.0531944"
             inkscape:connector-curvature="0"
             d="m 36.667,83.298 v 6.183 h 26.665 v -6.183 c 0,-5.33 -4.336,-9.666 -9.666,-9.666 h -7.333 c -5.33,10e-4 -9.666,4.337 -9.666,9.666 z"
             id="path6793" />
        </g>
      </g>
    </g>
  </g>
</svg>
