<?xml version="1.0" encoding="UTF-8" standalone="no"?>
<!-- Created with Inkscape (http://www.inkscape.org/) -->

<svg
   xmlns:dc="http://purl.org/dc/elements/1.1/"
   xmlns:cc="http://creativecommons.org/ns#"
   xmlns:rdf="http://www.w3.org/1999/02/22-rdf-syntax-ns#"
   xmlns:svg="http://www.w3.org/2000/svg"
   xmlns="http://www.w3.org/2000/svg"
   xmlns:sodipodi="http://sodipodi.sourceforge.net/DTD/sodipodi-0.dtd"
   xmlns:inkscape="http://www.inkscape.org/namespaces/inkscape"
   width="30.858mm"
   height="30.858mm"
   viewBox="0 0 30.858 30.858"
   version="1.1"
   id="svg1933"
   inkscape:version="0.92.5 (2060ec1f9f, 2020-04-08)"
   sodipodi:docname="Proportion of people getting enough daily exercise.svg">
  <defs
     id="defs1927">
    <mask
       maskUnits="userSpaceOnUse"
       id="mask2260">
      <rect
         style="opacity:1;fill:#ffffff;fill-opacity:1;stroke:none;stroke-width:0.56499994;stroke-miterlimit:4;stroke-dasharray:none;stroke-opacity:1"
         id="rect2262"
         width="86.248459"
         height="109.59391"
         x="10.399542"
         y="-2.1886201" />
    </mask>
  </defs>
  <sodipodi:namedview
     id="base"
     pagecolor="#ffffff"
     bordercolor="#666666"
     borderopacity="1.0"
     inkscape:pageopacity="0.0"
     inkscape:pageshadow="2"
     inkscape:zoom="2.8"
     inkscape:cx="75.6566"
     inkscape:cy="49.641564"
     inkscape:document-units="mm"
     inkscape:current-layer="layer1"
     showgrid="false"
     units="mm"
     showguides="true"
     inkscape:guide-bbox="true"
     inkscape:snap-global="true"
     inkscape:window-width="1090"
     inkscape:window-height="767"
     inkscape:window-x="726"
     inkscape:window-y="123"
     inkscape:window-maximized="0"
     inkscape:snap-others="false"
     inkscape:snap-bbox="true"
     inkscape:bbox-nodes="true"
     inkscape:snap-nodes="false">
    <sodipodi:guide
       position="0,16.503893"
       orientation="1,0"
       id="guide2524"
       inkscape:locked="false"
       inkscape:label=""
       inkscape:color="rgb(0,0,255)" />
    <sodipodi:guide
       position="14.29892,0"
       orientation="0,1"
       id="guide2526"
       inkscape:locked="false"
       inkscape:label=""
       inkscape:color="rgb(0,0,255)" />
    <sodipodi:guide
       position="85.526248,30.858"
       orientation="0,1"
       id="guide7505"
       inkscape:locked="false"
       inkscape:label=""
       inkscape:color="rgb(0,0,255)" />
    <sodipodi:guide
       position="15.434815,33.542326"
       orientation="1,0"
       id="guide7585"
       inkscape:locked="false" />
  </sodipodi:namedview>
  <metadata
     id="metadata1930">
    <rdf:RDF>
      <cc:Work
         rdf:about="">
        <dc:format>image/svg+xml</dc:format>
        <dc:type
           rdf:resource="http://purl.org/dc/dcmitype/StillImage" />
        <dc:title></dc:title>
      </cc:Work>
    </rdf:RDF>
  </metadata>
  <g
     inkscape:label="Layer 1"
     inkscape:groupmode="layer"
     id="layer1"
     transform="translate(0,-266.14199)">
    <g
       style="fill:#ffffff"
       id="g1937"
       transform="matrix(0.05167643,0,0,0.05167643,2.2514744,267.80335)">
      <g
         id="g1924"
         style="fill:#ffffff">
        <path
           id="path1920"
           d="m 274.8,274.8 v 18.8 h -37.5 v -18.8 c 0,-10.3 8.4,-18.8 18.8,-18.8 10.4,0 18.7,8.4 18.7,18.8 z"
           inkscape:connector-curvature="0"
           style="fill:#ffffff" />
        <path
           id="path1922"
           d="m 256,68.5 -93.7,65.6 V 68.5 h -37.5 v 91.9 L 68.6,199.8 H 106 V 443.5 H 406 V 199.8 h 37.5 z m 56.3,318.7 H 199.8 c -10.4,0 -18.8,-8.4 -18.8,-18.8 v -75 h 18.8 v -15.7 c 0,-30.5 22.9,-57.7 53.3,-59.3 32.5,-1.6 59.2,24.1 59.2,56.2 v 18.8 H 331 v 75 c 0,10.5 -8.4,18.8 -18.7,18.8 z"
           inkscape:connector-curvature="0"
           style="fill:#ffffff" />
      </g>
    </g>
    <g
       transform="translate(-19.988575,-320.73262)"
       id="g10292">
      <circle
         style="fill:#40a073;fill-opacity:1;stroke-width:0.46499997"
         id="circle1093-0-8-8-7-4-8"
         cx="35.417774"
         cy="602.30341"
         r="15.429199" />
      <g
         transform="matrix(0.2052988,0,0,0.2052988,25.086373,593.49813)"
         id="g3839"
         style="fill:#ffffff;stroke-width:1.28881061">
        <path
           style="fill:#ffffff;stroke-width:1.28881061"
           inkscape:connector-curvature="0"
           d="m 71.046,17.12 c 3.911,0 7.078,-3.167 7.078,-7.078 0,-3.889 -3.167,-7.055 -7.078,-7.055 -3.889,0 -7.055,3.166 -7.055,7.055 10e-4,3.912 3.167,7.078 7.055,7.078 z"
           id="path3819" />
        <path
           style="fill:#ffffff;stroke-width:1.28881061"
           inkscape:connector-curvature="0"
           d="M 76.308,18.704 H 65.994 L 48.415,1.125 C 47.041,-0.318 44.76,-0.388 43.316,1.009 41.872,2.383 41.802,4.664 43.176,6.108 l 18.37,18.394 v 60.955 c 0,2.212 1.77,3.981 3.958,3.981 2.212,0 3.981,-1.77 3.981,-3.981 V 52.394 h 3.213 l 0.023,33.062 c 0,2.212 1.793,3.981 3.981,3.981 2.188,0 3.958,-1.77 3.958,-3.981 L 80.637,24.501 99.009,6.107 c 1.373,-1.444 1.303,-3.725 -0.141,-5.099 -1.443,-1.397 -3.725,-1.327 -5.099,0.116 z"
           id="path3821" />
        <path
           style="fill:#ffffff;stroke-width:1.28881061"
           inkscape:connector-curvature="0"
           d="M 38.938,45.595 C 37.867,44.501 36.4,43.849 34.771,43.849 H 19.975 c -1.63,0 -3.097,0.652 -4.145,1.746 L 0.999,60.427 c -1.374,1.443 -1.327,3.725 0.116,5.099 1.443,1.374 3.749,1.327 5.099,-0.116 L 17.715,53.908 V 69.274 H 4.817 c -2.375,0 -4.284,1.909 -4.284,4.284 0,1.234 0.466,2.328 1.304,3.12 l 14.529,14.528 c 1.28,1.887 3.795,2.491 5.797,1.327 2.119,-1.21 2.817,-3.888 1.606,-5.983 l -8.289,-8.266 0.163,0.023 H 39.45 l -8.312,8.266 c -1.188,2.096 -0.489,4.772 1.606,5.983 2.002,1.164 4.541,0.559 5.821,-1.327 L 53.094,76.701 c 0.838,-0.792 1.303,-1.886 1.303,-3.12 0,-2.375 -1.908,-4.284 -4.284,-4.284 H 37.239 V 54.093 l 11.292,11.339 c 1.374,1.444 3.656,1.49 5.099,0.116 1.443,-1.373 1.49,-3.654 0.116,-5.099 z"
           id="path3823" />
        <path
           style="fill:#ffffff;stroke-width:1.28881061"
           inkscape:connector-curvature="0"
           d="m 27.518,42.335 c 3.9,0 7.043,-3.166 7.043,-7.055 0,-3.911 -3.144,-7.055 -7.043,-7.055 -3.888,0 -7.055,3.144 -7.055,7.055 0,3.889 3.167,7.055 7.055,7.055 z"
           id="path3825" />
      </g>
    </g>
  </g>
</svg>
