<?xml version="1.0" encoding="UTF-8" standalone="no"?>
<!-- Created with Inkscape (http://www.inkscape.org/) -->

<svg
   xmlns:dc="http://purl.org/dc/elements/1.1/"
   xmlns:cc="http://creativecommons.org/ns#"
   xmlns:rdf="http://www.w3.org/1999/02/22-rdf-syntax-ns#"
   xmlns:svg="http://www.w3.org/2000/svg"
   xmlns="http://www.w3.org/2000/svg"
   xmlns:sodipodi="http://sodipodi.sourceforge.net/DTD/sodipodi-0.dtd"
   xmlns:inkscape="http://www.inkscape.org/namespaces/inkscape"
   width="30.858mm"
   height="30.858mm"
   viewBox="0 0 30.858 30.858"
   version="1.1"
   id="svg1933"
   inkscape:version="0.92.5 (2060ec1f9f, 2020-04-08)"
   sodipodi:docname="rain.svg">
  <defs
     id="defs1927" />
  <sodipodi:namedview
     id="base"
     pagecolor="#ffffff"
     bordercolor="#666666"
     borderopacity="1.0"
     inkscape:pageopacity="0.0"
     inkscape:pageshadow="2"
     inkscape:zoom="2.8"
     inkscape:cx="89.474658"
     inkscape:cy="11.049758"
     inkscape:document-units="mm"
     inkscape:current-layer="layer1"
     showgrid="false"
     units="mm"
     showguides="true"
     inkscape:guide-bbox="true"
     inkscape:snap-global="true"
     inkscape:window-width="1090"
     inkscape:window-height="767"
     inkscape:window-x="144"
     inkscape:window-y="70"
     inkscape:window-maximized="0">
    <sodipodi:guide
       position="0,16.503893"
       orientation="1,0"
       id="guide2524"
       inkscape:locked="false"
       inkscape:label=""
       inkscape:color="rgb(0,0,255)" />
    <sodipodi:guide
       position="14.29892,0"
       orientation="0,1"
       id="guide2526"
       inkscape:locked="false"
       inkscape:label=""
       inkscape:color="rgb(0,0,255)" />
  </sodipodi:namedview>
  <metadata
     id="metadata1930">
    <rdf:RDF>
      <cc:Work
         rdf:about="">
        <dc:format>image/svg+xml</dc:format>
        <dc:type
           rdf:resource="http://purl.org/dc/dcmitype/StillImage" />
        <dc:title></dc:title>
      </cc:Work>
    </rdf:RDF>
  </metadata>
  <g
     inkscape:label="Layer 1"
     inkscape:groupmode="layer"
     id="layer1"
     transform="translate(0,-266.14199)">
    <g
       transform="translate(-159.86069,222.62164)"
       id="g6312">
      <circle
         style="fill:#254747;fill-opacity:1;stroke-width:0.46499997"
         id="circle1093-0-85"
         cx="175.28989"
         cy="58.949146"
         r="15.429199" />
      <g
         id="g1974"
         style="fill:#ffffff;stroke-width:0.68478221"
         transform="matrix(0.38637591,0,0,0.38637591,163.23928,46.512115)">
        <g
           id="g1972"
           style="fill:#ffffff;stroke-width:0.68478221">
          <path
             id="path1960"
             d="M 45.488,18.014 C 43.702,11.038 37.371,6 30,6 21.178,6 14,13.178 14,22 c -4.411,0 -8,3.589 -8,8 0,4.411 3.589,8 8,8 H 46 C 51.514,38 56,33.514 56,28 56,22.316 51.213,17.699 45.488,18.014 Z M 46,34 H 14 c -2.206,0 -4,-1.794 -4,-4 0,-2.206 1.794,-4 4,-4 0.506,0 1.005,0.097 1.482,0.288 0.675,0.27 1.441,0.153 2.003,-0.304 0.563,-0.457 0.834,-1.184 0.709,-1.898 C 18.063,23.338 18,22.656 18,22 c 0,-6.617 5.383,-12 12,-12 6.052,0 11.168,4.528 11.9,10.534 0.07,0.577 0.388,1.094 0.871,1.418 0.481,0.324 1.08,0.421 1.642,0.269 C 48.37,21.139 52,24.174 52,28 c 0,3.309 -2.691,6 -6,6 z"
             inkscape:connector-curvature="0"
             style="fill:#ffffff;stroke-width:0.68478221" />
          <path
             id="path1962"
             d="m 32,42 c -1.104,0 -2,0.896 -2,2 v 10 c 0,1.104 0.896,2 2,2 1.104,0 2,-0.896 2,-2 V 44 c 0,-1.104 -0.896,-2 -2,-2 z"
             inkscape:connector-curvature="0"
             style="fill:#ffffff;stroke-width:0.68478221" />
          <path
             id="path1964"
             d="m 24,42 c -1.104,0 -2,0.896 -2,2 v 10 c 0,1.104 0.896,2 2,2 1.104,0 2,-0.896 2,-2 V 44 c 0,-1.104 -0.896,-2 -2,-2 z"
             inkscape:connector-curvature="0"
             style="fill:#ffffff;stroke-width:0.68478221" />
          <path
             id="path1966"
             d="m 16,42 c -1.104,0 -2,0.896 -2,2 v 10 c 0,1.104 0.896,2 2,2 1.104,0 2,-0.896 2,-2 V 44 c 0,-1.104 -0.896,-2 -2,-2 z"
             inkscape:connector-curvature="0"
             style="fill:#ffffff;stroke-width:0.68478221" />
          <path
             id="path1968"
             d="m 40,42 c -1.104,0 -2,0.896 -2,2 v 10 c 0,1.104 0.896,2 2,2 1.104,0 2,-0.896 2,-2 V 44 c 0,-1.104 -0.896,-2 -2,-2 z"
             inkscape:connector-curvature="0"
             style="fill:#ffffff;stroke-width:0.68478221" />
          <path
             id="path1970"
             d="m 48,42 c -1.104,0 -2,0.896 -2,2 v 10 c 0,1.104 0.896,2 2,2 1.104,0 2,-0.896 2,-2 V 44 c 0,-1.104 -0.896,-2 -2,-2 z"
             inkscape:connector-curvature="0"
             style="fill:#ffffff;stroke-width:0.68478221" />
        </g>
      </g>
    </g>
  </g>
</svg>
