<?xml version="1.0" encoding="UTF-8" standalone="no"?>
<!-- Created with Inkscape (http://www.inkscape.org/) -->

<svg
   xmlns:i="http://ns.adobe.com/AdobeIllustrator/10.0/"
   xmlns:dc="http://purl.org/dc/elements/1.1/"
   xmlns:cc="http://creativecommons.org/ns#"
   xmlns:rdf="http://www.w3.org/1999/02/22-rdf-syntax-ns#"
   xmlns:svg="http://www.w3.org/2000/svg"
   xmlns="http://www.w3.org/2000/svg"
   xmlns:sodipodi="http://sodipodi.sourceforge.net/DTD/sodipodi-0.dtd"
   xmlns:inkscape="http://www.inkscape.org/namespaces/inkscape"
   width="30.858mm"
   height="30.858mm"
   viewBox="0 0 30.858 30.858"
   version="1.1"
   id="svg1933"
   inkscape:version="0.92.5 (2060ec1f9f, 2020-04-08)"
   sodipodi:docname="Resilience to economic, social &amp; environmental shocks.svg">
  <defs
     id="defs1927">
    <mask
       maskUnits="userSpaceOnUse"
       id="mask2260">
      <rect
         style="opacity:1;fill:#ffffff;fill-opacity:1;stroke:none;stroke-width:0.56499994;stroke-miterlimit:4;stroke-dasharray:none;stroke-opacity:1"
         id="rect2262"
         width="86.248459"
         height="109.59391"
         x="10.399542"
         y="-2.1886201" />
    </mask>
  </defs>
  <sodipodi:namedview
     id="base"
     pagecolor="#ffffff"
     bordercolor="#666666"
     borderopacity="1.0"
     inkscape:pageopacity="0.0"
     inkscape:pageshadow="2"
     inkscape:zoom="2.8"
     inkscape:cx="30.957852"
     inkscape:cy="84.886887"
     inkscape:document-units="mm"
     inkscape:current-layer="layer1"
     showgrid="false"
     units="mm"
     showguides="true"
     inkscape:guide-bbox="true"
     inkscape:snap-global="false"
     inkscape:window-width="1090"
     inkscape:window-height="767"
     inkscape:window-x="954"
     inkscape:window-y="156"
     inkscape:window-maximized="0"
     inkscape:snap-others="false"
     inkscape:snap-bbox="true"
     inkscape:bbox-nodes="true"
     inkscape:snap-nodes="false">
    <sodipodi:guide
       position="0,16.503893"
       orientation="1,0"
       id="guide2524"
       inkscape:locked="false"
       inkscape:label=""
       inkscape:color="rgb(0,0,255)" />
    <sodipodi:guide
       position="14.29892,0"
       orientation="0,1"
       id="guide2526"
       inkscape:locked="false"
       inkscape:label=""
       inkscape:color="rgb(0,0,255)" />
    <sodipodi:guide
       position="85.526248,30.858"
       orientation="0,1"
       id="guide7505"
       inkscape:locked="false"
       inkscape:label=""
       inkscape:color="rgb(0,0,255)" />
    <sodipodi:guide
       position="15.434815,33.542326"
       orientation="1,0"
       id="guide7585"
       inkscape:locked="false" />
  </sodipodi:namedview>
  <metadata
     id="metadata1930">
    <rdf:RDF>
      <cc:Work
         rdf:about="">
        <dc:format>image/svg+xml</dc:format>
        <dc:type
           rdf:resource="http://purl.org/dc/dcmitype/StillImage" />
        <dc:title></dc:title>
      </cc:Work>
    </rdf:RDF>
  </metadata>
  <g
     inkscape:label="Layer 1"
     inkscape:groupmode="layer"
     id="layer1"
     transform="translate(0,-266.14199)">
    <g
       style="fill:#ffffff"
       id="g1937"
       transform="matrix(0.05167643,0,0,0.05167643,2.2514744,267.80335)">
      <g
         id="g1924"
         style="fill:#ffffff">
        <path
           id="path1920"
           d="m 274.8,274.8 v 18.8 h -37.5 v -18.8 c 0,-10.3 8.4,-18.8 18.8,-18.8 10.4,0 18.7,8.4 18.7,18.8 z"
           inkscape:connector-curvature="0"
           style="fill:#ffffff" />
        <path
           id="path1922"
           d="m 256,68.5 -93.7,65.6 V 68.5 h -37.5 v 91.9 L 68.6,199.8 H 106 V 443.5 H 406 V 199.8 h 37.5 z m 56.3,318.7 H 199.8 c -10.4,0 -18.8,-8.4 -18.8,-18.8 v -75 h 18.8 v -15.7 c 0,-30.5 22.9,-57.7 53.3,-59.3 32.5,-1.6 59.2,24.1 59.2,56.2 v 18.8 H 331 v 75 c 0,10.5 -8.4,18.8 -18.7,18.8 z"
           inkscape:connector-curvature="0"
           style="fill:#ffffff" />
      </g>
    </g>
    <g
       style="fill:#ffffff;stroke-width:1.25318074"
       id="g4815"
       transform="matrix(0.21112943,0,0,0.21112943,4.8210868,269.78482)">
      <g
         id="g4802"
         style="fill:#ffffff;stroke-width:1.25318074">
        <g
           id="g4800"
           i:extraneous="self"
           style="fill:#ffffff;stroke-width:1.25318074">
          <path
             id="path4798"
             d="M 94,84.5 H 81.5 v -7.9 h 2.9 c 1.9,0 3.5,-1.6 3.5,-3.5 0,-1.9 -1.6,-3.5 -3.5,-3.5 H 54.5 c -1.9,0 -3.5,1.6 -3.5,3.5 0,1.9 1.6,3.5 3.5,3.5 h 2.9 v 7.9 h -25 V 61.9 h 8.5 c 7.9,0 14.4,-6.4 14.4,-14.4 0,-4.7 -2.3,-8.9 -5.8,-11.5 0.8,-1.6 1.3,-3.4 1.3,-5.4 0,-6 -4.6,-10.9 -10.4,-11.5 C 40,13.2 35,8.5 28.9,8.5 22.8,8.5 17.8,13.2 17.4,19.1 11.5,19.7 7,24.6 7,30.6 c 0,1.9 0.5,3.8 1.3,5.4 -3.5,2.6 -5.8,6.8 -5.8,11.5 0,7.9 6.4,14.4 14.4,14.4 h 8.5 V 84.5 H 8.3 c -1.9,0 -3.5,1.6 -3.5,3.5 0,1.9 1.6,3.5 3.5,3.5 H 94 c 1.9,0 3.5,-1.6 3.5,-3.5 0,-1.9 -1.6,-3.5 -3.5,-3.5 z M 64.4,76.6 h 10 v 7.9 h -10 z"
             inkscape:connector-curvature="0"
             style="fill:#ffffff;stroke-width:1.25318074" />
        </g>
      </g>
    </g>
    <g
       transform="translate(-441.8703,-321.00825)"
       id="g2100">
      <circle
         style="fill:#40a073;fill-opacity:1;stroke-width:0.46499997"
         id="circle1093-0-75-5-6-0-1-2"
         cx="457.2995"
         cy="602.57904"
         r="15.429199" />
      <g
         transform="matrix(0.39066806,0,0,0.39066806,438.21662,583.24639)"
         id="g4889"
         style="fill:#ffffff;stroke-width:0.67725867">
        <g
           style="fill:#ffffff;stroke-width:0.67725867"
           id="g4876">
          <path
             style="fill:#ffffff;stroke-width:0.67725867"
             inkscape:connector-curvature="0"
             d="M 68.3,43.9 C 68,43.1 67.3,42.6 66.4,42.6 H 55.8 L 63.7,25.9 C 64,25.3 63.9,24.6 63.6,24 63.2,23.4 62.6,23.1 61.9,23.1 H 45.2 c -0.8,0 -1.5,0.4 -1.8,1.2 L 31.7,49.1 c -0.3,0.6 -0.2,1.3 0.1,1.9 0.4,0.6 1,0.9 1.7,0.9 H 41 l -8.5,22.4 c -0.3,0.9 0,1.9 0.8,2.4 0.3,0.2 0.7,0.3 1.1,0.3 0.5,0 1,-0.2 1.4,-0.5 l 32,-30.4 c 0.7,-0.6 0.8,-1.5 0.5,-2.2 z M 39.4,67.5 45.8,50.6 C 46,50 45.9,49.3 45.6,48.8 45.3,48.3 44.6,47.9 44,47.9 H 36.7 L 46.4,27 h 12.3 l -7.9,16.7 c -0.3,0.6 -0.2,1.3 0.1,1.9 0.4,0.6 1,0.9 1.7,0.9 h 8.9 z"
             id="path4872" />
          <path
             style="fill:#ffffff;stroke-width:0.67725867"
             inkscape:connector-curvature="0"
             d="m 48.3,30.2 c -0.5,-0.2 -1.1,0 -1.3,0.4 l -5.2,10.5 c -0.2,0.5 0,1.1 0.5,1.3 0.1,0.1 0.3,0.1 0.4,0.1 0.4,0 0.7,-0.2 0.9,-0.6 l 5.2,-10.5 c 0.2,-0.3 0,-0.9 -0.5,-1.2 z"
             id="path4874" />
        </g>
      </g>
    </g>
  </g>
</svg>
