<?xml version="1.0" encoding="UTF-8" standalone="no"?>
<!-- Created with Inkscape (http://www.inkscape.org/) -->

<svg
   xmlns:dc="http://purl.org/dc/elements/1.1/"
   xmlns:cc="http://creativecommons.org/ns#"
   xmlns:rdf="http://www.w3.org/1999/02/22-rdf-syntax-ns#"
   xmlns:svg="http://www.w3.org/2000/svg"
   xmlns="http://www.w3.org/2000/svg"
   xmlns:sodipodi="http://sodipodi.sourceforge.net/DTD/sodipodi-0.dtd"
   xmlns:inkscape="http://www.inkscape.org/namespaces/inkscape"
   width="30.858mm"
   height="30.858mm"
   viewBox="0 0 30.858 30.858"
   version="1.1"
   id="svg1933"
   inkscape:version="0.92.5 (2060ec1f9f, 2020-04-08)"
   sodipodi:docname="Communicable diseases.svg">
  <defs
     id="defs1927" />
  <sodipodi:namedview
     id="base"
     pagecolor="#ffffff"
     bordercolor="#666666"
     borderopacity="1.0"
     inkscape:pageopacity="0.0"
     inkscape:pageshadow="2"
     inkscape:zoom="2.8"
     inkscape:cx="89.474658"
     inkscape:cy="11.049758"
     inkscape:document-units="mm"
     inkscape:current-layer="layer1"
     showgrid="false"
     units="mm"
     showguides="true"
     inkscape:guide-bbox="true"
     inkscape:snap-global="true"
     inkscape:window-width="1090"
     inkscape:window-height="767"
     inkscape:window-x="144"
     inkscape:window-y="70"
     inkscape:window-maximized="0">
    <sodipodi:guide
       position="0,16.503893"
       orientation="1,0"
       id="guide2524"
       inkscape:locked="false"
       inkscape:label=""
       inkscape:color="rgb(0,0,255)" />
    <sodipodi:guide
       position="14.29892,0"
       orientation="0,1"
       id="guide2526"
       inkscape:locked="false"
       inkscape:label=""
       inkscape:color="rgb(0,0,255)" />
  </sodipodi:namedview>
  <metadata
     id="metadata1930">
    <rdf:RDF>
      <cc:Work
         rdf:about="">
        <dc:format>image/svg+xml</dc:format>
        <dc:type
           rdf:resource="http://purl.org/dc/dcmitype/StillImage" />
        <dc:title></dc:title>
      </cc:Work>
    </rdf:RDF>
  </metadata>
  <g
     inkscape:label="Layer 1"
     inkscape:groupmode="layer"
     id="layer1"
     transform="translate(0,-266.14199)">
    <g
       transform="translate(-160.1387,145.93483)"
       id="g6596">
      <circle
         style="fill:#44263a;fill-opacity:1;stroke-width:0.46499997"
         id="circle1093-0-85-7"
         cx="175.5679"
         cy="135.63596"
         r="15.429199" />
      <g
         transform="matrix(0.18389205,0,0,0.18389205,166.21703,125.41039)"
         id="g1474"
         style="fill:#ffffff;stroke-width:1.438797">
        <path
           style="fill:#ffffff;stroke-width:1.438797"
           inkscape:connector-curvature="0"
           d="m 28.212,30.225 c 5.377,-2.407 7.789,-8.72 5.377,-14.095 -2.407,-5.378 -8.73,-7.786 -14.107,-5.378 -5.385,2.407 -7.796,8.72 -5.382,14.098 2.412,5.381 8.734,7.785 14.112,5.375 z"
           id="path1412" />
        <path
           style="fill:#ffffff;stroke-width:1.438797"
           inkscape:connector-curvature="0"
           d="m 43.494,18.484 c 0.595,-1.024 0.253,-2.333 -0.778,-2.939 -1.027,-0.595 -2.343,-0.246 -2.938,0.778 -0.603,1.02 -0.25,2.339 0.767,2.935 1.034,0.595 2.353,0.249 2.949,-0.774 z"
           id="path1414" />
        <path
           style="fill:#ffffff;stroke-width:1.438797"
           inkscape:connector-curvature="0"
           d="M 63.308,7.042 C 63.904,6.019 63.561,4.703 62.531,4.104 61.504,3.508 60.184,3.858 59.589,4.881 c -0.6,1.023 -0.246,2.339 0.771,2.935 1.039,0.603 2.348,0.257 2.948,-0.774 z"
           id="path1416" />
        <path
           style="fill:#ffffff;stroke-width:1.438797"
           inkscape:connector-curvature="0"
           d="M 56.703,10.855 C 57.302,9.828 56.952,8.522 55.922,7.923 54.895,7.324 53.582,7.67 52.986,8.69 c -0.599,1.032 -0.246,2.344 0.774,2.947 1.031,0.595 2.34,0.249 2.943,-0.782 z"
           id="path1418" />
        <path
           style="fill:#ffffff;stroke-width:1.438797"
           inkscape:connector-curvature="0"
           d="m 69.912,3.23 c 0.596,-1.023 0.249,-2.335 -0.774,-2.942 -1.03,-0.592 -2.347,-0.243 -2.945,0.781 -0.596,1.027 -0.25,2.34 0.777,2.935 1.027,0.599 2.342,0.253 2.942,-0.774 z"
           id="path1420" />
        <path
           style="fill:#ffffff;stroke-width:1.438797"
           inkscape:connector-curvature="0"
           d="m 49.688,15.174 c 0.874,-0.802 0.938,-2.154 0.135,-3.031 -0.799,-0.874 -2.161,-0.938 -3.035,-0.139 -0.881,0.802 -0.938,2.161 -0.139,3.031 0.807,0.878 2.165,0.942 3.039,0.139 z"
           id="path1422" />
        <path
           style="fill:#ffffff;stroke-width:1.438797"
           inkscape:connector-curvature="0"
           d="m 43.494,22.463 c 0.595,1.027 0.253,2.34 -0.778,2.942 -1.027,0.596 -2.343,0.25 -2.938,-0.774 -0.603,-1.023 -0.25,-2.339 0.767,-2.942 1.034,-0.591 2.353,-0.245 2.949,0.774 z"
           id="path1424" />
        <path
           style="fill:#ffffff;stroke-width:1.438797"
           inkscape:connector-curvature="0"
           d="m 56.703,30.096 c 0.599,1.027 0.249,2.336 -0.781,2.935 -1.027,0.596 -2.34,0.253 -2.936,-0.774 -0.599,-1.027 -0.246,-2.339 0.774,-2.938 1.031,-0.599 2.34,-0.254 2.943,0.777 z"
           id="path1426" />
        <g
           style="fill:#ffffff;stroke-width:1.438797"
           id="g1430">
          <path
             style="fill:#ffffff;stroke-width:1.438797"
             inkscape:connector-curvature="0"
             d="m 86.234,34.312 c -3.748,0 -23.797,0 -27.449,0 -7.563,0 -14.311,6.134 -14.311,13.695 0,3.855 0,30.564 0,33.146 0,2.59 2.029,4.697 4.611,4.697 2.589,0 4.682,-2.107 4.682,-4.697 0,-3.003 0,-29.883 0,-29.883 h 3.873 v 47.829 h 12.571 v -12.96 h 3.997 v 12.96 H 86.786 V 51.27 h 3.912 c 0,0 0,26.88 0,29.883 0,2.59 2.094,4.697 4.668,4.697 2.589,0 4.633,-2.107 4.633,-4.697 0,-2.582 0,-29.291 0,-33.146 C 100,40.445 93.795,34.312 86.234,34.312 Z M 63.731,39.29 c -1.027,0.599 -2.347,0.253 -2.945,-0.774 -0.596,-1.027 -0.242,-2.339 0.771,-2.935 1.041,-0.603 2.354,-0.257 2.952,0.774 0.592,1.023 0.25,2.343 -0.778,2.935 z m 6.605,3.816 c -1.026,0.596 -2.343,0.246 -2.941,-0.774 -0.596,-1.031 -0.25,-2.347 0.777,-2.943 1.026,-0.596 2.343,-0.25 2.941,0.777 0.596,1.024 0.25,2.338 -0.777,2.94 z"
             id="path1428" />
        </g>
        <path
           style="fill:#ffffff;stroke-width:1.438797"
           inkscape:connector-curvature="0"
           d="m 49.688,25.776 c 0.874,0.803 0.938,2.155 0.135,3.036 -0.799,0.87 -2.161,0.934 -3.035,0.139 -0.881,-0.802 -0.938,-2.168 -0.139,-3.039 0.807,-0.873 2.165,-0.938 3.039,-0.136 z"
           id="path1432" />
        <path
           style="fill:#ffffff;stroke-width:1.438797"
           inkscape:connector-curvature="0"
           d="m 52.045,18.74 c 1.031,0.589 1.381,1.897 0.796,2.935 -0.593,1.027 -1.908,1.387 -2.936,0.799 -1.034,-0.584 -1.383,-1.9 -0.802,-2.928 0.596,-1.034 1.912,-1.39 2.942,-0.806 z"
           id="path1434" />
        <g
           style="fill:#ffffff;stroke-width:1.438797"
           id="g1438">
          <path
             style="fill:#ffffff;stroke-width:1.438797"
             inkscape:connector-curvature="0"
             d="m 72.13,9.818 c -5.905,0 -10.691,4.79 -10.691,10.691 0,5.902 4.786,10.689 10.691,10.689 5.902,0 10.691,-4.787 10.691,-10.689 0,-5.902 -4.789,-10.691 -10.691,-10.691 z m -5.318,3.641 c 0.596,-1.031 1.904,-1.391 2.938,-0.799 1.027,0.592 1.384,1.897 0.796,2.935 -0.592,1.027 -1.904,1.387 -2.936,0.799 -1.029,-0.592 -1.385,-1.904 -0.798,-2.935 z m -2.856,9.019 c -1.03,-0.592 -1.384,-1.908 -0.802,-2.935 0.595,-1.034 1.907,-1.391 2.941,-0.799 1.031,0.588 1.384,1.894 0.788,2.931 -0.583,1.031 -1.9,1.391 -2.927,0.803 z M 70.65,27.6 c -0.593,1.031 -1.904,1.388 -2.936,0.803 -1.03,-0.592 -1.387,-1.905 -0.799,-2.936 0.596,-1.031 1.904,-1.391 2.938,-0.799 1.029,0.588 1.385,1.897 0.797,2.932 z m 3.866,-5.925 c -0.592,1.031 -1.904,1.391 -2.935,0.803 -1.034,-0.592 -1.384,-1.908 -0.799,-2.932 0.596,-1.038 1.908,-1.395 2.938,-0.802 1.024,0.589 1.391,1.901 0.796,2.931 z"
             id="path1436" />
        </g>
        <path
           style="fill:#ffffff;stroke-width:1.438797"
           inkscape:connector-curvature="0"
           d="m 58.461,18.512 c 1.159,0.257 1.89,1.395 1.637,2.561 -0.257,1.152 -1.405,1.89 -2.564,1.637 -1.158,-0.256 -1.89,-1.409 -1.637,-2.561 0.267,-1.163 1.409,-1.897 2.564,-1.637 z"
           id="path1440" />
        <path
           style="fill:#ffffff;stroke-width:1.438797"
           inkscape:connector-curvature="0"
           d="m 61.485,27.168 c 1.155,0.26 1.89,1.398 1.637,2.561 -0.261,1.152 -1.409,1.894 -2.564,1.637 -1.162,-0.253 -1.89,-1.409 -1.633,-2.561 0.257,-1.162 1.404,-1.893 2.56,-1.637 z"
           id="path1442" />
        <path
           style="fill:#ffffff;stroke-width:1.438797"
           inkscape:connector-curvature="0"
           d="m 60.903,10.278 c 1.159,0.26 1.894,1.398 1.638,2.561 -0.257,1.155 -1.405,1.894 -2.564,1.637 -1.159,-0.253 -1.887,-1.405 -1.637,-2.557 0.264,-1.167 1.408,-1.898 2.563,-1.641 z"
           id="path1444" />
        <path
           style="fill:#ffffff;stroke-width:1.438797"
           inkscape:connector-curvature="0"
           d="m 26.868,60.525 c 0.767,1.419 2.257,2.368 4.005,2.368 1.976,0 3.677,-1.178 4.358,-2.914 l 8.135,-23.874 c 0.831,-2.436 -0.475,-5.079 -2.907,-5.91 -2.443,-0.831 -5.082,0.478 -5.909,2.91 L 29.889,46.811 24.84,37.766 C 23.645,35.887 21.823,34.385 19.548,33.622 14.284,31.864 8.596,34.703 6.838,39.963 L 0.736,58.223 C 0.289,59.333 0,61.303 0,62.337 V 99.099 H 18.259 V 69.013 l 5.021,-14.93 z"
           id="path1446" />
      </g>
    </g>
  </g>
</svg>
