<?xml version="1.0" encoding="UTF-8"?>
<!-- Created with Inkscape (http://www.inkscape.org/) -->
<svg id="svg1933" width="116.63" height="116.63" version="1.1" viewBox="0 0 30.858 30.858" xmlns="http://www.w3.org/2000/svg" xmlns:cc="http://creativecommons.org/ns#" xmlns:dc="http://purl.org/dc/elements/1.1/" xmlns:rdf="http://www.w3.org/1999/02/22-rdf-syntax-ns#" xmlns:serif="http://www.serif.com/">
 <defs id="defs1927">
  <style id="style10671">.cls-1{fill:#000000;}</style>
 </defs>
 <metadata id="metadata1930">
  <rdf:RDF>
   <cc:Work rdf:about="">
    <dc:format>image/svg+xml</dc:format>
    <dc:type rdf:resource="http://purl.org/dc/dcmitype/StillImage"/>
    <dc:title/>
   </cc:Work>
  </rdf:RDF>
 </metadata>
 <g id="layer1" transform="translate(0 -266.14)">
  <circle id="path853-5" cx="15.429" cy="281.57" r="15.429" fill="#266334"/>
  <circle id="path853" cx="15.429" cy="281.57" r="0" fill="#031d44"/>
 </g>
 <g id="layer2">
  <g id="g31135" transform="matrix(.064367 0 0 .064367 5.086 5.7398)" clip-rule="evenodd" fill-rule="evenodd" stroke-linejoin="round" stroke-miterlimit="2">
   <rect id="rect31121" x="2.083" width="416.67" height="416.67" fill="none" stroke-width="4.1106" serif:id="Pagina 2"/>
   <g id="g32653" transform="matrix(4.9099 0 0 4.9099 -27.238 -83.231)" fill="#f9f9f9" stroke-width="3.6942">
    <path id="path32633" d="m39.8 8.4c-0.8-0.7-1.9-0.7-2.7 0-1 0.9-25 22.6-25 50.8 0 14.5 11.8 26.3 26.3 26.3s26.3-11.8 26.3-26.3c0.1-28.3-23.9-49.9-24.9-50.8zm-1.3 73.1c-12.3 0-22.3-10-22.3-22.3 0-22.8 17.3-41.6 22.3-46.6 5 5 22.3 23.8 22.3 46.6 0 12.3-10 22.3-22.3 22.3z"/>
    <path id="path32635" d="m27.7 72.1c-0.6 0-1.1 0.5-1.1 1.1s0.5 1.1 1.1 1.1 1.1-0.5 1.1-1.1-0.5-1.1-1.1-1.1z"/>
    <path id="path32637" d="m29.2 47.4c0.6 0 1.1-0.5 1.1-1.1s-0.5-1.1-1.1-1.1-1.1 0.5-1.1 1.1 0.5 1.1 1.1 1.1z"/>
    <path id="path32639" d="m40.2 24.2c0.6 0 1.1-0.5 1.1-1.1s-0.5-1.1-1.1-1.1-1.1 0.5-1.1 1.1 0.5 1.1 1.1 1.1z"/>
    <path id="path32641" d="m55.1 53.2c-0.6 0-1.1 0.5-1.1 1.1s0.5 1.1 1.1 1.1 1.1-0.5 1.1-1.1-0.5-1.1-1.1-1.1z"/>
    <path id="path32643" d="m42.4 38.7c0.6 0 1.1-0.5 1.1-1.1s-0.5-1.1-1.1-1.1-1.1 0.5-1.1 1.1 0.5 1.1 1.1 1.1z"/>
    <path id="path32645" d="m51.2 61.3c-1.5-1-3.4-1.4-5.2-1-4.6 0.9-10.3-1.6-13.2-4.4-2.8-2.6-7.2-2.5-9.8 0.3-2.6 2.7-2.5 7 0.1 9.6l0.1 0.1c4.6 4.3 12.6 8.3 20.8 8.3 1.5 0 3.1-0.1 4.6-0.4 1.8-0.4 3.4-1.4 4.4-2.9s1.4-3.4 1-5.2c-0.2-1.8-1.3-3.3-2.8-4.4zm-2.1 10.1c-0.2-0.5-0.7-0.9-1.3-0.8s-1 0.7-0.9 1.3c-0.5 0.1-1.1 0.1-1.7 0.1 0-0.6-0.5-1.1-1.1-1.1h-0.1c-0.5 0.1-1 0.5-1 1.1-0.6 0-1.1-0.1-1.7-0.1 0.1-0.6-0.3-1.2-0.9-1.3s-1.1 0.3-1.3 0.9c-0.6-0.1-1.1-0.2-1.7-0.4 0.2-0.6-0.2-1.2-0.7-1.4-0.6-0.2-1.2 0.1-1.4 0.7-0.5-0.2-1.1-0.4-1.6-0.6 0.2-0.6 0-1.2-0.6-1.5-0.5-0.3-1.2 0-1.5 0.5-0.5-0.3-1-0.5-1.5-0.8 0.3-0.5 0.1-1.2-0.4-1.5s-1.2-0.2-1.5 0.3c-0.5-0.3-1-0.7-1.4-1 0.4-0.5 0.3-1.2-0.2-1.6s-1.1-0.3-1.6 0.1l-0.3-0.3c-0.3-0.3-0.6-0.7-0.8-1 0.5-0.2 0.8-0.8 0.6-1.3s-0.7-0.9-1.2-0.8c0-0.6 0.1-1.1 0.3-1.7 0.2 0.1 0.3 0.1 0.5 0.1 0.4 0 0.7-0.2 0.9-0.5 0.3-0.5 0.2-1.1-0.2-1.4 0.4-0.4 0.9-0.7 1.4-0.9 0.1 0.5 0.6 0.8 1.1 0.8h0.2c0.6-0.1 0.9-0.6 0.9-1.1 0.6 0.1 1.1 0.2 1.7 0.5-0.3 0.5-0.2 1.1 0.2 1.4 0.2 0.2 0.5 0.3 0.7 0.3 0.3 0 0.6-0.1 0.8-0.4 0.4 0.4 0.9 0.7 1.4 1-0.3 0.5-0.2 1.2 0.4 1.5 0.2 0.1 0.4 0.2 0.6 0.2 0.4 0 0.8-0.2 1-0.5 0.5 0.3 1 0.5 1.6 0.7-0.2 0.6 0.1 1.2 0.6 1.5 0.1 0.1 0.3 0.1 0.4 0.1 0.5 0 0.9-0.3 1.1-0.7 0.5 0.2 1.1 0.3 1.7 0.5-0.1 0.6 0.3 1.2 0.9 1.3h0.2c0.5 0 1-0.4 1.1-1 0.6 0.1 1.2 0.1 1.7 0.1 0.1 0.6 0.6 1 1.1 1h0.1c0.6-0.1 1.1-0.6 1-1.2 0.6-0.1 1.2-0.1 1.7 0-0.2 0.5 0.1 1.1 0.6 1.4 0 0.1 0.2 0.1 0.4 0.1 0.4 0 0.7-0.2 0.9-0.5 0.5 0.4 0.8 0.8 1.1 1.3-0.5 0.2-0.8 0.8-0.6 1.3 0.1 0.5 0.6 0.8 1.1 0.8h0.2c0 0.6-0.1 1.2-0.3 1.7-0.5-0.2-1.1-0.1-1.4 0.4s-0.2 1.1 0.2 1.4c-0.4 0.5-0.9 0.8-1.5 1z"/>
    <path id="path32647" d="m34.4 63.6c-1.5-0.7-2.8-1.6-3.9-2.4-0.3-0.2-0.6-0.3-0.9-0.3-0.2 0-0.6 0.1-0.8 0.5-0.4 0.5-0.3 1.3 0.2 1.7 1.2 1 2.7 1.9 4.4 2.7 0.6 0.3 1.3 0.1 1.6-0.5 0.2-0.7 0-1.4-0.6-1.7z"/>
    <path id="path32649" d="m37.6 45.5 0.7 0.8c-0.4 0.5-0.7 1.1-1 1.7l-1-0.2c-0.6-0.1-1.2 0.3-1.3 0.9s0.3 1.2 0.9 1.3l1 0.2c0 0.7 0.1 1.3 0.3 1.9l-0.9 0.5c-0.5 0.3-0.7 1-0.4 1.5 0.2 0.4 0.6 0.6 1 0.6 0.2 0 0.4 0 0.6-0.2l0.9-0.5c0.4 0.5 0.9 0.9 1.5 1.2l-0.3 1c-0.2 0.6 0.1 1.2 0.7 1.4 0.1 0 0.3 0.1 0.4 0.1 0.5 0 0.9-0.3 1.1-0.7l0.3-1c0.3 0.1 0.6 0.1 1 0.1 0.3 0 0.7 0 1-0.1l0.3 1c0.2 0.5 0.6 0.7 1.1 0.7 0.1 0 0.3 0 0.4-0.1 0.6-0.2 0.9-0.9 0.7-1.4l-0.3-1c0.6-0.3 1.1-0.8 1.5-1.2l0.9 0.5c0.2 0.1 0.4 0.2 0.6 0.2 0.4 0 0.8-0.2 1-0.6 0.3-0.5 0.1-1.2-0.4-1.5l-0.9-0.5c0.2-0.6 0.3-1.2 0.3-1.9l1-0.2c0.6-0.1 1-0.7 0.9-1.3s-0.7-1-1.3-0.9l-1 0.2c-0.2-0.6-0.6-1.2-1-1.7l0.7-0.8c0.4-0.5 0.3-1.2-0.1-1.6-0.5-0.4-1.2-0.3-1.6 0.1l-0.7 0.8c-0.6-0.3-1.2-0.5-1.8-0.7v-1c0-0.6-0.5-1.1-1.1-1.1s-1.1 0.5-1.1 1.1v1c-0.7 0.1-1.3 0.4-1.8 0.7l-0.7-0.8c-0.4-0.5-1.1-0.5-1.6-0.1-0.9 0.4-0.9 1.1-0.5 1.6zm9.1 4.6c0 2.1-1.7 3.8-3.8 3.8s-3.8-1.7-3.8-3.8 1.7-3.8 3.8-3.8 3.8 1.7 3.8 3.8z"/>
    <path id="path32651" d="m33.8 35.2c2.1 0 3.8-1.7 3.8-3.8s-1.7-3.8-3.8-3.8-3.8 1.8-3.8 3.9 1.7 3.7 3.8 3.7zm0-5.3c0.8 0 1.5 0.7 1.5 1.5s-0.7 1.5-1.5 1.5-1.5-0.7-1.5-1.5 0.7-1.5 1.5-1.5z"/>
   </g>
  </g>
 </g>
</svg>
