<?xml version="1.0" encoding="UTF-8"?>
<!-- Created with Inkscape (http://www.inkscape.org/) -->
<svg id="svg1933" width="116.63" height="116.63" version="1.1" viewBox="0 0 30.858 30.858" xmlns="http://www.w3.org/2000/svg" xmlns:cc="http://creativecommons.org/ns#" xmlns:dc="http://purl.org/dc/elements/1.1/" xmlns:rdf="http://www.w3.org/1999/02/22-rdf-syntax-ns#">
 <defs id="defs1927">
  <style id="style10671">.cls-1{fill:#000000;}</style>
 </defs>
 <metadata id="metadata1930">
  <rdf:RDF>
   <cc:Work rdf:about="">
    <dc:format>image/svg+xml</dc:format>
    <dc:type rdf:resource="http://purl.org/dc/dcmitype/StillImage"/>
    <dc:title/>
   </cc:Work>
  </rdf:RDF>
 </metadata>
 <g id="layer1" transform="translate(0 -266.14)">
  <circle id="path853-5" cx="15.429" cy="281.57" r="15.429" fill="#266334"/>
  <circle id="path853" cx="15.429" cy="281.57" r="0" fill="#031d44"/>
 </g>
 <g id="layer2">
  <g id="g42449" transform="matrix(.52262 0 0 .52262 2.8833 1.9913)" fill="#fff" stroke-width="1.0547">
   <g id="g42436" fill="#fff" stroke-width="1.0547" data-name="Layer 14">
    <path id="path42432" d="m34 33h-1v-7a1 1 0 0 0-1-1h-24a1 1 0 0 0-1 1v7h-1a1 1 0 0 0-1 1v3a1 1 0 0 0 1 1h1v4a1 1 0 0 0 1 1h3a1 1 0 0 0 1-1v-4h16v4a1 1 0 0 0 1 1h3a1 1 0 0 0 1-1v-4h1a1 1 0 0 0 1-1v-3a1 1 0 0 0-1-1zm-3-6v2h-22v-2zm-22 4h22v2h-22zm1 10h-1v-3h1zm21 0h-1v-3h1zm2-5h-26v-1h26z"/>
    <path id="path42434" d="m41 31v-20a6 6 0 0 0-12 0 3 3 0 0 0-2.43 1.33l-1.4 2.11a1.07 1.07 0 0 0-0.13 0.82l2 7a1 1 0 0 0 0.96 0.74h4a1 1 0 0 0 1-0.73l2-7a1.07 1.07 0 0 0-0.13-0.82l-1.4-2.11a3 3 0 0 0-2.47-1.34 4 4 0 0 1 8 0v20a2 2 0 0 0-2 2v9a1 1 0 0 0 1 1h4a1 1 0 0 0 1-1v-9a2 2 0 0 0-2-2zm-13.67-15h1.67v5h-0.25zm3.92 5h-0.25v-5h1.67zm0.51-7.55 0.37 0.55h-4.26l0.37-0.55a1 1 0 0 1 0.83-0.45h1.86a1 1 0 0 1 0.83 0.45zm9.24 27.55h-2v-8h2z"/>
   </g>
  </g>
 </g>
</svg>
