<?xml version="1.0" encoding="UTF-8"?>
<!-- Created with Inkscape (http://www.inkscape.org/) -->
<svg id="svg1933" width="116.63" height="116.63" version="1.1" viewBox="0 0 30.858 30.858" xmlns="http://www.w3.org/2000/svg" xmlns:cc="http://creativecommons.org/ns#" xmlns:dc="http://purl.org/dc/elements/1.1/" xmlns:rdf="http://www.w3.org/1999/02/22-rdf-syntax-ns#">
 <metadata id="metadata1930">
  <rdf:RDF>
   <cc:Work rdf:about="">
    <dc:format>image/svg+xml</dc:format>
    <dc:type rdf:resource="http://purl.org/dc/dcmitype/StillImage"/>
    <dc:title/>
   </cc:Work>
  </rdf:RDF>
 </metadata>
 <g id="layer1" transform="translate(0 -266.14)">
  <circle id="path853-5" cx="15.429" cy="281.57" r="15.429" fill="#266334"/>
  <circle id="path853" cx="15.429" cy="281.57" r="0" fill="#031d44"/>
 </g>
 <g id="layer2">
  <g id="g6146" transform="matrix(.36357 0 0 .36357 3.8673 3.7272)" fill="#fff" stroke-width=".72773">
   <g id="g6144" fill="#fff" stroke-width=".72773">
    <path id="path6124" d="m58.124 9.008-16-2c-0.041-6e-3 -0.083-8e-3 -0.124-8e-3h-2c-0.553 0-1 0.448-1 1 0 3.86-3.141 7-7 7-3.86 0-7-3.14-7-7 0-0.552-0.448-1-1-1h-2c-0.042 0-0.083 2e-3 -0.124 8e-3l-16 2c-0.501 0.062-0.876 0.488-0.876 0.992v12c0 0.552 0.448 1 1 1h9v35c0 0.553 0.448 1 1 1h32c0.553 0 1-0.447 1-1v-35h9c0.553 0 1-0.448 1-1v-12c0-0.504-0.376-0.93-0.876-0.992zm-1.124 11.992h-9c-0.553 0-1 0.448-1 1v35h-30v-35c0-0.552-0.448-1-1-1h-9v-10.117l15.062-1.883h0.993c0.499 4.494 4.32 8 8.945 8s8.445-3.506 8.944-8h0.993l15.063 1.883z"/>
    <path id="path6126" d="m32 27c-2.757 0-5 2.243-5 5s2.243 5 5 5 5-2.243 5-5-2.243-5-5-5zm0 8c-1.654 0-3-1.346-3-3s1.346-3 3-3 3 1.346 3 3-1.346 3-3 3z"/>
    <path id="path6128" d="m25 32c0-0.552-0.448-1-1-1h-2c-0.552 0-1 0.448-1 1s0.448 1 1 1h2c0.552 0 1-0.448 1-1z"/>
    <path id="path6130" d="m32 25c0.552 0 1-0.448 1-1v-2c0-0.552-0.448-1-1-1s-1 0.448-1 1v2c0 0.552 0.448 1 1 1z"/>
    <path id="path6132" d="m32 39c-0.552 0-1 0.447-1 1v2c0 0.553 0.448 1 1 1s1-0.447 1-1v-2c0-0.553-0.448-1-1-1z"/>
    <path id="path6134" d="m39 32c0 0.552 0.447 1 1 1h2c0.553 0 1-0.448 1-1s-0.447-1-1-1h-2c-0.553 0-1 0.448-1 1z"/>
    <path id="path6136" d="m25.636 27.05c0.195 0.195 0.451 0.293 0.707 0.293s0.512-0.098 0.707-0.293c0.391-0.391 0.391-1.023 0-1.414l-1.415-1.415c-0.391-0.391-1.023-0.391-1.414 0s-0.391 1.023 0 1.414z"/>
    <path id="path6138" d="m37.657 27.343c0.256 0 0.512-0.098 0.707-0.293l1.414-1.415c0.391-0.391 0.391-1.024 0-1.414-0.391-0.391-1.023-0.391-1.414 0l-1.414 1.415c-0.391 0.391-0.391 1.024 0 1.414 0.196 0.196 0.451 0.293 0.707 0.293z"/>
    <path id="path6140" d="m25.636 36.95-1.415 1.414c-0.391 0.391-0.391 1.023 0 1.414 0.195 0.195 0.451 0.293 0.707 0.293s0.512-0.098 0.707-0.293l1.415-1.414c0.391-0.391 0.391-1.023 0-1.414s-1.023-0.39-1.414 0z"/>
    <path id="path6142" d="m38.364 36.95c-0.391-0.391-1.023-0.391-1.414 0s-0.391 1.023 0 1.414l1.414 1.414c0.195 0.195 0.451 0.293 0.707 0.293s0.512-0.098 0.707-0.293c0.391-0.391 0.391-1.023 0-1.414z"/>
   </g>
  </g>
 </g>
</svg>
