<?xml version="1.0" encoding="UTF-8"?>
<!-- Created with Inkscape (http://www.inkscape.org/) -->
<svg id="svg1933" width="116.63" height="116.63" version="1.1" viewBox="0 0 30.858 30.858" xmlns="http://www.w3.org/2000/svg" xmlns:cc="http://creativecommons.org/ns#" xmlns:dc="http://purl.org/dc/elements/1.1/" xmlns:rdf="http://www.w3.org/1999/02/22-rdf-syntax-ns#">
 <defs id="defs1927">
  <style id="style10671">.cls-1{fill:#000000;}</style>
 </defs>
 <metadata id="metadata1930">
  <rdf:RDF>
   <cc:Work rdf:about="">
    <dc:format>image/svg+xml</dc:format>
    <dc:type rdf:resource="http://purl.org/dc/dcmitype/StillImage"/>
    <dc:title/>
   </cc:Work>
  </rdf:RDF>
 </metadata>
 <g id="layer1" transform="translate(0 -266.14)">
  <circle id="path853-5" cx="15.429" cy="281.57" r="15.429" fill="#266334"/>
  <circle id="path853" cx="15.429" cy="281.57" r="0" fill="#031d44"/>
 </g>
 <g id="layer2">
  <g id="g18584" transform="matrix(.36382 0 0 .36382 3.0886 7.2317)" fill="#fff" stroke-width="1.0695">
   <path id="path18573" transform="translate(-416,-670)" d="m446.54 702h-4.688c-0.96201 6.2302-6.3475 11-12.847 11-7.1797 0-13-5.8203-13-13s5.8203-13 13-13c2.1065 0 4.096 0.50103 5.8558 1.3904l4.3973-5.412-1.9892-3.9784h-3.2654c-0.55101 0-0.9985-0.45191-0.9985-1.0094v-1.9813c0-0.56602 0.44704-1.0094 0.9985-1.0094h11.003c0.55101 0 0.9985 0.45191 0.9985 1.0094v1.9813c0 0.56602-0.44705 1.0094-0.9985 1.0094h-3.2654l8.5035 17.007c0.0363 2e-3 0.0725 5e-3 0.10863 8e-3l11.794-16.849-1.6004-5.166h-4.5513c-0.53728 0-0.99081-0.45191-0.99081-1.0094v-1.9813c0-0.56602 0.44903-1.0094 1.0029-1.0094h5.9971c0.86878 0 1.6382 0.56087 1.9041 1.388l1.5047 4.8485c0.6518-1.3248 2.0151-2.2364 3.5912-2.2364h1.9995c0.56235 0 1.0005 0.44639 1.0005 0.99703v6.0059c0 0.54399-0.44932 0.99703-1.0036 0.99703h-1.9964c-0.71289 0-1.3822-0.18649-1.9619-0.51335l1.7682 5.6976c0.71312-0.12119 1.446-0.1843 2.1936-0.1843 7.1797 0 13 5.8203 13 13s-5.8203 13-13 13-13-5.8203-13-13c0-5.0234 2.8492-9.3813 7.0198-11.546l-1.3794-4.4528-10.015 14.307c0.2402 0.51386 0.37437 1.0872 0.37437 1.6919 0 2.2091-1.7909 4-4 4-1.4806 0-2.7732-0.8044-3.4649-2zm19.696-9.6344c-2.5414 1.5907-4.2315 4.4152-4.2315 7.6344 0 4.9706 4.0294 9 9 9s9-4.0294 9-9-4.0294-9-9-9c-0.33549 0-0.66669 0.0184-0.99266 0.0541l2.6024 8.3855c0.16012 0.51594-0.1359 1.0867-0.66662 1.2573l-1.8862 0.60628c-0.53886 0.17321-1.0928-0.11666-1.2554-0.64159l-2.57-8.2959zm-19.696 5.6344c0.0402-0.0695 0.0824-0.13765 0.12659-0.20441l-5.4452-10.89-3.1053 3.822c1.9506 1.9168 3.2992 4.4444 3.7359 7.2729zm-14.29-6.397c-1.0069-0.38944-2.1013-0.603-3.2456-0.603-4.9706 0-9 4.0294-9 9s4.0294 9 9 9c4.2832 0 7.8675-2.992 8.777-7h-9.777c-1.6841 0-2.6142-1.9542-1.5522-3.2612zm3.3269 2.2486-3.3706 4.1484h5.575c-0.35884-1.5814-1.1341-3.0047-2.2045-4.1484z" fill="#fff" fill-rule="evenodd" stroke-width="1.0695"/>
  </g>
 </g>
</svg>
