<?xml version="1.0" encoding="UTF-8"?>
<!-- Created with Inkscape (http://www.inkscape.org/) -->
<svg id="svg1933" width="116.63" height="116.63" version="1.1" viewBox="0 0 30.858 30.858" xmlns="http://www.w3.org/2000/svg" xmlns:cc="http://creativecommons.org/ns#" xmlns:dc="http://purl.org/dc/elements/1.1/" xmlns:rdf="http://www.w3.org/1999/02/22-rdf-syntax-ns#">
 <metadata id="metadata1930">
  <rdf:RDF>
   <cc:Work rdf:about="">
    <dc:format>image/svg+xml</dc:format>
    <dc:type rdf:resource="http://purl.org/dc/dcmitype/StillImage"/>
    <dc:title/>
   </cc:Work>
  </rdf:RDF>
 </metadata>
 <g id="layer1" transform="translate(0 -266.14)">
  <circle id="path853-5" cx="15.429" cy="281.57" r="15.429" fill="#351431"/>
  <circle id="path853" cx="15.429" cy="281.57" r="0" fill="#031d44"/>
 </g>
 <g id="layer2">
  <g id="g30542" transform="matrix(.039727 0 0 .039727 5.2786 5.2118)" fill="#fff" stroke-width="6.66">
   <path id="path30528" d="m366 0h-220a146 146 0 0 0-146 146v220a146 146 0 0 0 146 146h220a146 146 0 0 0 146-146v-220a146 146 0 0 0-146-146zm-110 81h0.29a43.21 43.21 0 1 1-0.29 0zm143.08 286.44c-5.2 4.57-11.34 5.22-17.85 3.45a21 21 0 0 1-7.52-3.81 16.94 16.94 0 0 1-6-8.79q-6-20.79-12.05-41.58-10-34.3-19.93-68.56a4.54 4.54 0 0 0-0.36-1.15h-15.2l34.83 184h-200l34.86-184h-13.31a12.21 12.21 0 0 1-0.57 1.91q-15.71 54.2-31.43 108.46c-2.13 7.39-7.12 11.58-14.18 13.62a18.76 18.76 0 0 1-13.16-0.78 18 18 0 0 1-10-21.32c3.55-12.54 7.23-25.06 10.86-37.6q14.69-50.59 29.39-101.17c1.1-3.78 2.28-7.52 3.27-11.35 1.72-6.64 6.1-10.54 12.52-12.3a31.1 31.1 0 0 1 6.72-1.07c5.54-0.26 11.1-0.41 16.65-0.42q72.5 0 145 0a77.08 77.08 0 0 1 16.71 1.68c0.86 0.19 1.72 0.44 2.56 0.72a14.66 14.66 0 0 1 10.11 10.44c2 6.88 4 13.75 6 20.62l37.5 129.35c2.22 7.67 0.6 14.36-5.42 19.65z"/>
   <path id="path30530" d="m256.18 270h-0.18a65.16 65.16 0 1 0 65 65.36c0.08-35.89-28.93-64.36-64.82-65.36zm26.72 111.54c-11.5 7.16-24.92 6.47-34.43-1.84a25.6 25.6 0 0 1-8-13.64c-0.21-0.88-0.49-1.75-0.68-2.63a2.54 2.54 0 0 0-3.19-2.21c-1.8 0.33-2.52 1.62-2.28 3.42 0.28 2.05 0.64 4.1 0.85 6.21 0.55 5.23-2.56 9.21-7.38 9.53-5.25 0.35-8.85-3.14-8.89-8.66 0-5.26-0.57-10.58 0-15.76 1.27-10.74 13.4-16.78 23-11.81 2.17 1.13 4.29 2.39 6.47 3.5a13.54 13.54 0 0 0 18.29-5.65c3.55-6.6 1.21-14.38-5.52-18.25-12.56 14.76-31.13 10.79-39.24 0.64a25 25 0 0 1 4.85-35.91c11.33-8 29-6 37.25 10.16a28.33 28.33 0 0 1 14.31-3.47c10.73 0.55 18.62 5.76 23.63 15.09a54.11 54.11 0 0 1-19.04 71.28z"/>
  </g>
 </g>
</svg>
