<?xml version="1.0" encoding="UTF-8"?>
<!-- Created with Inkscape (http://www.inkscape.org/) -->
<svg id="svg1933" width="116.63" height="116.63" version="1.1" viewBox="0 0 30.858 30.858" xmlns="http://www.w3.org/2000/svg" xmlns:cc="http://creativecommons.org/ns#" xmlns:dc="http://purl.org/dc/elements/1.1/" xmlns:rdf="http://www.w3.org/1999/02/22-rdf-syntax-ns#">
 <metadata id="metadata1930">
  <rdf:RDF>
   <cc:Work rdf:about="">
    <dc:format>image/svg+xml</dc:format>
    <dc:type rdf:resource="http://purl.org/dc/dcmitype/StillImage"/>
    <dc:title/>
   </cc:Work>
  </rdf:RDF>
 </metadata>
 <g id="layer1" transform="translate(0 -266.14)">
  <circle id="path853-5" cx="15.429" cy="281.57" r="15.429" fill="#351431"/>
  <circle id="path853" cx="15.429" cy="281.57" r="0" fill="#031d44"/>
 </g>
 <g id="layer2">
  <path id="path12363" d="m25.457 13.182a1.9657 1.9657 0 0 0-1.848 1.3126h-7.9965a0.65591 0.65591 0 0 0-0.60311 0.3977l-1.3536 3.1584-3.9993-9.7128a0.65631 0.65631 0 0 0-1.2565 0.15702l-1.5984 11.188-1.7292-4.7559a0.6564 0.6564 0 0 0-1.2338 0.44864l2.6252 7.2193a0.65639 0.65639 0 0 0 0.61656 0.43198c0.022436 0 0.045188-0.0013 0.067928-0.0036a0.65575 0.65575 0 0 0 0.58195-0.55985l1.6286-11.4 3.6779 8.9318a0.65667 0.65667 0 0 0 0.60214 0.40634 0.72431 0.72431 0 0 0 0.60791-0.39769l1.7984-4.1964h7.564a1.9655 1.9655 0 1 0 1.8479-2.6252z" fill="#fff" stroke-width=".26458"/>
 </g>
</svg>
