<?xml version="1.0" encoding="UTF-8"?>
<!-- Created with Inkscape (http://www.inkscape.org/) -->
<svg id="svg1933" width="116.63" height="116.63" version="1.1" viewBox="0 0 30.858 30.858" xmlns="http://www.w3.org/2000/svg" xmlns:cc="http://creativecommons.org/ns#" xmlns:dc="http://purl.org/dc/elements/1.1/" xmlns:rdf="http://www.w3.org/1999/02/22-rdf-syntax-ns#">
 <metadata id="metadata1930">
  <rdf:RDF>
   <cc:Work rdf:about="">
    <dc:format>image/svg+xml</dc:format>
    <dc:type rdf:resource="http://purl.org/dc/dcmitype/StillImage"/>
    <dc:title/>
   </cc:Work>
  </rdf:RDF>
 </metadata>
 <g id="layer1" transform="translate(0 -266.14)">
  <circle id="path853-5" cx="15.429" cy="281.57" r="15.429" fill="#266334"/>
  <circle id="path853" cx="15.429" cy="281.57" r="0" fill="#031d44"/>
 </g>
 <g id="layer2">
  <g id="g7700" transform="matrix(.18623 0 0 .18623 3.5802 2.9021)" fill="#fff" stroke-width="1.4207">
   <path id="path7680-9" d="m51 20.35a5.68 5.68 0 0 0 10.4 3.93c0.89 9.19-4.59 13.55-5.71 14.34a46.82 46.82 0 0 1 8.16-0.73 47.32 47.32 0 0 1 7.86 0.67c-4.63-4.56-4.87-11.24-4.62-14.76a7.06 7.06 0 0 0 11.34-7.53 7.06 7.06 0 0 0-8.18-10.07 9 9 0 0 0-17.31 0.72 7.06 7.06 0 0 0-1.94 13.43zm2.46-9.47a4 4 0 0 0 3.37-3.21 4.77 4.77 0 0 1 4.86-3.67 4.83 4.83 0 0 1 4.72 3.31 4 4 0 0 0 4.93 2.69 3.05 3.05 0 0 1 3.9 3 3 3 0 0 1-0.35 1.42 4 4 0 0 0-0.26 3.1 3.06 3.06 0 0 1-2.91 4 3 3 0 0 1-2.25-1 4 4 0 0 0-2.94-1.29h-4.53a4 4 0 0 0-3.73 2.56 1.7 1.7 0 0 1-3.27-0.59 1.85 1.85 0 0 1 0-0.26 4 4 0 0 0-2.31-4.24 3.06 3.06 0 0 1 0.82-5.83z"/>
   <path id="path7682" d="m110.58 33.23a5.07 5.07 0 0 0-1.22-0.68 6.34 6.34 0 0 0-2.23-7.26 6.57 6.57 0 0 0-4-1.34 6 6 0 0 0-4 1.53 5.07 5.07 0 0 0-6.9 6.88 4.07 4.07 0 0 0 0.39 6.19 4.07 4.07 0 0 0 2.46 0.82 4.11 4.11 0 0 0 1.43-0.26 11.24 11.24 0 0 1-8.16 5.68 47 47 0 0 1 7.78 6c-0.23-4.22 2.29-7.77 3.84-9.53a5 5 0 0 0 4.94 4 5.07 5.07 0 0 0 4.8-3.43 5.07 5.07 0 0 0 0.89-8.64zm-2.2 4.7a1.06 1.06 0 0 1-0.4 0.32 4 4 0 0 0-2.07 2.32 1.06 1.06 0 0 1-0.16 0.3 1.08 1.08 0 0 1-0.86 0.43 1 1 0 0 1-0.64-0.22 1.07 1.07 0 0 1-0.42-0.75 4 4 0 0 0-1.57-2.8l-2.61-2a4 4 0 0 0-4.52-0.21h-0.06a0.15 0.15 0 0 1 0-0.1 4 4 0 0 0 0.71-4.78 1.08 1.08 0 0 1 0.08-1.17 1.07 1.07 0 0 1 0.86-0.42 1.06 1.06 0 0 1 0.52 0.13 4 4 0 0 0 4.62-0.53 2 2 0 0 1 1.37-0.49 2.55 2.55 0 0 1 1.55 0.53 2.34 2.34 0 0 1 0.9 2.64 4 4 0 0 0 2.29 5.15 1.07 1.07 0 0 1 0.47 1.65z"/>
   <path id="path7684" d="m26.16 43.52a5 5 0 0 0 1.88-3c1.63 1.86 4.31 5.68 3.77 10.19a47 47 0 0 1 8.85-6.58c-1.48 0-6-0.56-9.15-5.75a4.11 4.11 0 0 0 1.41 0.26 4.08 4.08 0 0 0 2.85-7 5.07 5.07 0 0 0-6.9-6.88 6 6 0 0 0-4-1.53 6.57 6.57 0 0 0-4 1.34 6.34 6.34 0 0 0-2.23 7.26 5.07 5.07 0 0 0-0.33 9.31 5.07 5.07 0 0 0 7.86 2.41zm-4.07-3.7a4 4 0 0 0-2.09-2.33 1.06 1.06 0 0 1-0.4-0.32 1.07 1.07 0 0 1 0.47-1.65 4 4 0 0 0 2.29-5.15 2.34 2.34 0 0 1 0.9-2.64 2.55 2.55 0 0 1 1.55-0.53 2 2 0 0 1 1.37 0.49 4 4 0 0 0 4.62 0.53 1.06 1.06 0 0 1 0.52-0.13 1.07 1.07 0 0 1 0.86 0.42 1.08 1.08 0 0 1 0.08 1.17 4 4 0 0 0 0.74 4.77 0.11 0.11 0 0 1 0 0.13h-0.06a4 4 0 0 0-4.52 0.21l-2.61 2a4 4 0 0 0-1.57 2.8 1.07 1.07 0 0 1-0.42 0.75 1 1 0 0 1-0.64 0.22 1.08 1.08 0 0 1-0.86-0.43 1.06 1.06 0 0 1-0.23-0.32z"/>
   <path id="path7686-8" d="m104.45 71.72c-0.11-0.33-0.22-0.67-0.34-1a42.56 42.56 0 1 0-76.73 35.8 42.37 42.37 0 0 0 79.22-21.37 42.93 42.93 0 0 0-2-13zm-77.58 23.76a17.06 17.06 0 0 0 1.54 1.6 1.71 1.71 0 0 0 1.49 0.72 9.64 9.64 0 0 0 1.78-0.23 3 3 0 0 1 0.59-0.05c2.55 0 6.33 2.78 8.25 5.34 1.18 1.58 6.19 1.44 7.2 3.14 0.83 1.38-0.49 6.44-0.49 6.44s-2.51 1.23-3.36 5.19a38.74 38.74 0 0 1-6.31-4.81c-0.46-0.82-0.9-1.66-1.3-2.53-0.89-1.91-4.7-4.36-5.56-6.28-0.51-1.13 1-4.62-0.16-5a1.29 1.29 0 0 0-0.36-0.05c-0.51 0-0.79 0.34-1.28 0.34a1.62 1.62 0 0 1-0.79-0.27 38.09 38.09 0 0 1-1.24-3.55zm28.73-48.48a5.43 5.43 0 0 1 0.6 0.68c0.25 0.33-3.36 2.15-2.7 5.45 0 0-0.08 1.65-1.23 1.9 0 0-1.22 0.16-1.23 0.5 0 0.82 2.2 0.88 0.65 3.22-0.82 1.24-2.26 1.5-3 2-0.37 0.23-0.89 1-1.23 1.24-1.25 1-4 1.9-4.09 5 0 0-0.25 1-0.88 1a1.46 1.46 0 0 1-1-0.62s-2.37-5 0-5.62a0.2 0.2 0 0 0 0.1 0c0.26 0 0.92-0.49 0.31-5.81a1 1 0 0 0-1-0.87 2.62 2.62 0 0 0-1.3 0.46 0.87 0.87 0 0 1-0.32-0.43 38.45 38.45 0 0 1 16.32-8.1zm-18.67 33.81a10.15 10.15 0 0 0 2.87-3.81c0.85-2 0.39-4.14-0.31-6.11a4.93 4.93 0 0 0 3 1 5 5 0 0 0 4.76-4 4 4 0 0 0 0.12-0.89 1 1 0 0 1 0-0.11 5.64 5.64 0 0 1 1.22-0.9 13.49 13.49 0 0 0 1.41-0.9 8.12 8.12 0 0 0 1-1h0.07a8.46 8.46 0 0 0 3.93-3.09 6.41 6.41 0 0 0 1.19-4 6.65 6.65 0 0 0 1.27-3.6 4 4 0 0 0-0.08-1 4.31 4.31 0 0 1 1-1.12c2-1.83 2-3.59 1.62-4.73a38.07 38.07 0 0 1 22.69 4.61l-1.19 1.33a25.32 25.32 0 0 1-3.09 3.17 5.8 5.8 0 0 1-3.21 1 9.61 9.61 0 0 1-5.06-1.74 4 4 0 0 0-2.23-0.92h-0.46c-4.9 0-7.78 3.9-9.15 7.34a5.63 5.63 0 0 0-2.72 2.83 6.31 6.31 0 0 0 0.55 6 47.63 47.63 0 0 0-4 2.6 4 4 0 0 0-1.71 3.53 4.53 4.53 0 0 0-1.47 1.26 7.15 7.15 0 0 0-0.76 7.25q0.11 0.23 0.24 0.44l-0.24 0.21c-4.36 4.08-6.19 9.54-4.83 14.54-2.25-2.76-6.75-6.47-11.09-6.48a7 7 0 0 0-1.37 0.13h-0.25a8.22 8.22 0 0 1-1.52-1.93c2.8-2 3.32-3.35 3.51-3.85 1.86-4.87 3.21-6.07 4.29-7.06zm24.91 41.39a4 4 0 0 0 1.25 0.95l0.13 0.06a38.39 38.39 0 0 1-15.58-3.56c0.17-2.43 1.16-3.4 1.45-3.63a3.28 3.28 0 0 0 2-2.56 23.23 23.23 0 0 0 0.89-6h0.24c0.93 0 1.92-0.08 2.88-0.17s1.76-0.15 2.49-0.15h0.46a8.26 8.26 0 0 1 0.64 3.29c-1.82 5.9 2.63 11.18 3.15 11.77zm17.86-13.12v-0.14c0.35-0.29 0.79-0.61 1.07-0.82a19 19 0 0 0 1.61-1.28s4.17-3.94 3.8-7.67a13 13 0 0 0 2.4-2.24l0.63 2a4 4 0 0 0 5.08 2.56 5.34 5.34 0 0 0 3.22-3.17 3.78 3.78 0 0 0 2 1.16 38.69 38.69 0 0 1-28.28 23.08 19.92 19.92 0 0 0 4.7-5.11c0.33-0.47 0.79-1.11 1.1-1.49a4.7 4.7 0 0 0 2.35-2.21 7.62 7.62 0 0 0 0.32-4.67zm22.41-19.33c-0.53 0.61-1 1.09-1 1.09s0.53 4.42-0.62 4.71c-0.5 0-1.42-4.77-2.8-5h-0.08c-1.32 0-3.35 4.09-3.35 4.09s-0.12 2.6-1.23 3l-1.72-5.33-1.84-2.48a8 8 0 0 1-1.47 0.17 5.07 5.07 0 0 1-2.62-0.62h-0.21a3.55 3.55 0 0 1-2.86-1.62s-1.1 2.48 2.09 3c0 0 2.09 0.95 2.09 1.61 0 1.75-3.6 4.86-5.6 4.86a1.35 1.35 0 0 1-0.67-0.16c-1.1-0.62-2.4-7.11-4.54-7.68h-0.1c-0.62 0-1.79 1.31-1.91 1.41-2.37 1.91 2.91 8.43 5 9.38a0.77 0.77 0 0 0 0.31 0.06c0.87 0 2.49-0.9 3-0.9a0.13 0.13 0 0 1 0.11 0c0.55 0.81-1.51 3.7-2.46 4.59s-3.4 2.32-3.93 3.53c-0.45 1 0.55 3.51 0.06 4.52-0.14 0.29-0.86 0.43-1.1 0.64-2 1.7-4.33 7.39-8 7.39a4.11 4.11 0 0 1-1.81-0.45s-3.56-4-2.29-7.93c0.62-1.91-0.43-6.5-2-7.77a4.78 4.78 0 0 0-3-0.7c-1.75 0-3.81 0.32-5.37 0.32a6 6 0 0 1-1.32-0.12c-3.63-0.84-6.77-8.61 0-15 0 0 6.54-2.76 9.24-2.76a1.29 1.29 0 0 1 1.05 0.33c0.74 1-0.39 1.31-0.18 1.67 0.71 1.22 2.15 0.12 5.16 2.23 0.22 0 0.32-1.19 0.32-1.19a3.45 3.45 0 0 1 1-0.5 3.68 3.68 0 0 1 1.11 0.56 9.14 9.14 0 0 0 3.33 0.86 2.74 2.74 0 0 0 1.28-0.27c0.59-0.32 2-3.32 2.12-5.11a7.12 7.12 0 0 1-2 0.31 3.31 3.31 0 0 1-3.61-3.29l-1.11 2.73s-2.22-5.3-5.58-5.6h-0.44c-3.8 0-4.78 4.58-6.8 5.35a5.82 5.82 0 0 1-2 0.44c-2.58 0-2.65-2.83-1.64-4.16 0.58-0.76 3.26 0 3.68-0.87 1-2-1.35-3.1-1.35-3.1s5.9-4.24 8.32-4.23h0.28l3.79-0.76s0.49-3.84 2.09-3.84c0 0-4.42 0-1.35-4.21a1.8 1.8 0 0 0-0.66-0.12c-0.8 0-2 0.58-1.68 4.21 0.08 0.92-0.78 3.86-1.56 3.86a0.38 0.38 0 0 1-0.28-0.15c-1.35-1.49-0.82-2.25-1.47-2.6a0.26 0.26 0 0 0-0.13 0c-0.3 0-0.57 0.56-1.1 0.56-0.3 0-0.7-0.19-1.24-0.77a2 2 0 0 1 1.78-3.23h0.19s1.42-6.7 6-6.7h0.25a13.57 13.57 0 0 0 7.52 2.58 9.8 9.8 0 0 0 5.4-1.59c1.64-1.05 3.82-3.87 5.63-5.77a39 39 0 0 1 4.93 4.17 38.31 38.31 0 0 1 11.29 27.27 38.7 38.7 0 0 1-0.34 5.08zm-67.48-30.16c0.84 1.9-0.71 6.15-0.49 8.08s2.73 5.92 2 7.77c-1.31 3.14-3.77 2-7.2 11.07-0.34 0.89-2.47 2.28-3.29 2.78a39.16 39.16 0 0 1-0.28-4.63 38.38 38.38 0 0 1 9.26-25.07z"/>
  </g>
 </g>
</svg>
