<?xml version="1.0" encoding="UTF-8"?>
<!-- Created with Inkscape (http://www.inkscape.org/) -->
<svg id="svg1933" width="116.63" height="116.63" version="1.1" viewBox="0 0 30.858 30.858" xmlns="http://www.w3.org/2000/svg" xmlns:cc="http://creativecommons.org/ns#" xmlns:dc="http://purl.org/dc/elements/1.1/" xmlns:rdf="http://www.w3.org/1999/02/22-rdf-syntax-ns#">
 <defs id="defs1927">
  <style id="style10671">.cls-1{fill:#000000;}</style>
 </defs>
 <metadata id="metadata1930">
  <rdf:RDF>
   <cc:Work rdf:about="">
    <dc:format>image/svg+xml</dc:format>
    <dc:type rdf:resource="http://purl.org/dc/dcmitype/StillImage"/>
    <dc:title/>
   </cc:Work>
  </rdf:RDF>
 </metadata>
 <g id="layer1" transform="translate(0 -266.14)">
  <circle id="path853-5" cx="15.429" cy="281.57" r="15.429" fill="#266334"/>
  <circle id="path853" cx="15.429" cy="281.57" r="0" fill="#031d44"/>
 </g>
 <g id="layer2">
  <path id="path21628" d="m8.3589 13.909v-2.0395c0-0.34281 0.2779-0.62071 0.62071-0.62071 0.34281 0 0.62071 0.2779 0.62071 0.62071v0.85717l2.6755-2.5481c0.23972-0.22831 0.61643-0.22831 0.85615 0l6.5174 6.2071c0.24824 0.23642 0.25782 0.62931 0.02141 0.87755-0.23642 0.24824-0.62931 0.25782-0.87755 0.02141l-0.19264-0.18346v7.1825c0 0.34281-0.2779 0.62071-0.62071 0.62071h-10.552c-0.34281 0-0.62071-0.2779-0.62071-0.62071v-7.1825l-0.19263 0.18346c-0.24824 0.23642-0.64113 0.22684-0.87755-0.02141-0.23642-0.24824-0.22684-0.64113 0.021404-0.87755zm-0.31035 2.0099v7.7441h9.3106v-7.7441l-4.6553-4.4336zm10.552-6.8426c0 0.34281-0.2779 0.62071-0.62071 0.62071-0.34281 0-0.62071-0.2779-0.62071-0.62071 0-2.2284 1.8061-4.0346 4.0346-4.0346 2.2284 0 4.0346 1.8061 4.0346 4.0346 0 0.34281-0.2779 0.62071-0.62071 0.62071-0.34281 0-0.62071-0.2779-0.62071-0.62071 0-1.5429-1.2504-2.7932-2.7932-2.7932-1.5429 0-2.7932 1.2504-2.7932 2.7932zm2.5485 0.03248 0.62057-1.2411c0.15331-0.30662 0.52615-0.4309 0.83277-0.27759 0.30662 0.15331 0.4309 0.52615 0.27759 0.83277l-0.62056 1.2411c0.0422 0.10626 0.06538 0.22213 0.06538 0.34341 0 0.51421-0.41685 0.93106-0.93106 0.93106-0.51421 0-0.93106-0.41685-0.93106-0.93106 0-0.42953 0.29086-0.79113 0.68638-0.89858z" fill="#fff" stroke-width=".26458"/>
 </g>
</svg>
