<?xml version="1.0" encoding="UTF-8"?>
<!-- Created with Inkscape (http://www.inkscape.org/) -->
<svg id="svg1933" width="116.63" height="116.63" version="1.1" viewBox="0 0 30.858 30.858" xmlns="http://www.w3.org/2000/svg" xmlns:cc="http://creativecommons.org/ns#" xmlns:dc="http://purl.org/dc/elements/1.1/" xmlns:rdf="http://www.w3.org/1999/02/22-rdf-syntax-ns#">
 <metadata id="metadata1930">
  <rdf:RDF>
   <cc:Work rdf:about="">
    <dc:format>image/svg+xml</dc:format>
    <dc:type rdf:resource="http://purl.org/dc/dcmitype/StillImage"/>
    <dc:title/>
   </cc:Work>
  </rdf:RDF>
 </metadata>
 <g id="layer1" transform="translate(0 -266.14)">
  <circle id="path853-5" cx="15.429" cy="281.57" r="15.429" fill="#351431"/>
  <circle id="path853" cx="15.429" cy="281.57" r="0" fill="#031d44"/>
 </g>
 <g id="layer2">
  <g id="g22971" transform="matrix(.25868 0 0 .25868 3.0769 3.5959)" fill="#fff" stroke-width="1.0228">
   <path id="path22933" d="m53.623 64.798c-5.135 4.203-11.694 6.729-18.832 6.729-16.426 0-29.789-13.363-29.789-29.789 0-16.427 13.363-29.79 29.789-29.79 9.547 0 18.051 4.519 23.507 11.521 0.916-0.985 1.932-1.877 3.027-2.664-6.198-7.842-15.787-12.889-26.534-12.889-18.647 0-33.821 15.171-33.821 33.821 0 18.647 15.174 33.82 33.821 33.82 6.966 0 13.447-2.119 18.832-5.743z"/>
   <path id="path22935" d="m34.935 49.127-3.1 5.593c-0.287 0.517-0.83 0.831-1.41 0.831-0.076 0-0.152-7e-3 -0.229-0.02-0.662-0.092-1.197-0.586-1.344-1.238l-2.35-10.413-2.195 4.184c-0.279 0.531-0.828 0.863-1.428 0.863h-5.557c3.283 5.673 9.273 10.947 16.662 13.443 7.3-2.468 13.23-7.645 16.536-13.243z"/>
   <path id="path22937" d="m21.904 45.7 3.78-7.197c0.313-0.598 0.966-0.939 1.638-0.85 0.67 0.089 1.214 0.586 1.362 1.244l2.383 10.557 1.508-2.721c0.284-0.513 0.824-0.83 1.41-0.83h18.129c2.212-5.563 1.67-11.108-2.847-14.48-8.37-6.246-15.282 2.625-15.282 2.625s-6.912-8.871-15.284-2.625c-4.462 3.332-5.045 8.783-2.925 14.277z"/>
   <path id="path22939" d="m72.993 21.081c-8.861 0-16.041 7.181-16.041 16.039 0 8.857 7.18 16.038 16.041 16.038 8.857 0 16.036-7.181 16.036-16.038 0-8.858-7.178-16.039-16.036-16.039zm-13.195 10.918c0.579-1.484 1.39-2.848 2.403-4.039h4.255c-0.176 0.746-0.232 1.531-0.139 2.337 0.072 0.6 0.227 1.167 0.44 1.702zm13.803 2.625c-2.829 0.334-5.391-1.686-5.728-4.513-0.335-2.826 1.684-5.39 4.509-5.726 2.828-0.335 5.39 1.684 5.726 4.51 0.336 2.827-1.683 5.391-4.507 5.729zm5.632-2.625c0.404-1.01 0.569-2.133 0.433-3.289-0.03-0.256-0.079-0.505-0.136-0.75h4.251c1.016 1.191 1.828 2.555 2.403 4.039z"/>
   <circle id="circle22941" cx="72.991" cy="29.503" r="1.903"/>
   <path id="path22943" d="m65.651 63.645 5.314 4.029-2.358-12.067h-3.885l2.61 5.842c0.146 0.326 0.06 0.71-0.214 0.94z"/>
   <path id="path22945" d="m79.601 55.606h-3.887l-2.356 12.067 5.313-4.029-1.465-1.256c-0.274-0.23-0.36-0.614-0.215-0.94z"/>
   <polygon id="polygon22947" points="74.072 55.606 70.251 55.606 72.161 65.389"/>
   <path id="path22949" d="m83.035 55.606h-1.669l-2.657 5.95 1.771 1.512c0.184 0.157 0.287 0.392 0.28 0.637-7e-3 0.242-0.123 0.472-0.318 0.618l-7.476 5.671v12.09h10.065c2.925 0 5.29-2.367 5.29-5.293v-15.894c3e-3 -2.922-2.362-5.291-5.286-5.291zm2.009 20.023h-2.397v2.395h-3.251v-2.395h-2.397v-3.253h2.397v-2.396h3.251v2.396h2.397z"/>
   <path id="path22951" d="m71.356 69.994-7.475-5.671c-0.195-0.146-0.312-0.376-0.318-0.618-7e-3 -0.245 0.098-0.479 0.282-0.637l1.771-1.512-2.66-5.95h-0.01c-2.924 0-5.292 2.368-5.292 5.291v15.894c0 2.926 2.368 5.293 5.294 5.293h8.408z"/>
  </g>
 </g>
</svg>
