<?xml version="1.0" encoding="UTF-8"?>
<!-- Created with Inkscape (http://www.inkscape.org/) -->
<svg id="svg1933" width="116.63" height="116.63" version="1.1" viewBox="0 0 30.858 30.858" xmlns="http://www.w3.org/2000/svg" xmlns:cc="http://creativecommons.org/ns#" xmlns:dc="http://purl.org/dc/elements/1.1/" xmlns:rdf="http://www.w3.org/1999/02/22-rdf-syntax-ns#">
 <metadata id="metadata1930">
  <rdf:RDF>
   <cc:Work rdf:about="">
    <dc:format>image/svg+xml</dc:format>
    <dc:type rdf:resource="http://purl.org/dc/dcmitype/StillImage"/>
    <dc:title/>
   </cc:Work>
  </rdf:RDF>
 </metadata>
 <g id="layer1" transform="translate(0 -266.14)">
  <circle id="path853-5" cx="15.429" cy="281.57" r="15.429" fill="#351431"/>
  <circle id="path853" cx="15.429" cy="281.57" r="0" fill="#031d44"/>
 </g>
 <g id="layer2">
  <g id="g9413" transform="matrix(.26458 0 0 .26458 3.4964 4.7776)" fill="#fff">
   <path id="path9399" d="m47.128 52.492-6.942 12.522c-0.642 1.16-1.857 1.86-3.157 1.86-0.171 0-0.341-0.013-0.513-0.038-1.484-0.212-2.682-1.316-3.011-2.779l-5.262-23.32-4.919 9.369c-0.622 1.188-1.854 1.933-3.196 1.933h-12.443c7.351 12.708 20.771 24.519 37.318 30.114 16.348-5.527 29.637-17.127 37.042-29.661z"/>
   <path id="path9401" d="m17.944 44.818 8.464-16.127c0.705-1.338 2.166-2.104 3.67-1.898 1.5 0.199 2.719 1.309 3.052 2.785l5.334 23.646 3.38-6.095c0.636-1.149 1.844-1.86 3.158-1.86h40.604c4.955-12.459 3.742-24.881-6.369-32.43-18.75-13.994-34.234 5.879-34.234 5.879s-15.484-19.873-34.232-5.879c-9.996 7.459-11.304 19.674-6.556 31.979z"/>
  </g>
 </g>
</svg>
