<?xml version="1.0" encoding="UTF-8"?>
<!-- Created with Inkscape (http://www.inkscape.org/) -->
<svg id="svg1933" width="116.63" height="116.63" version="1.1" viewBox="0 0 30.858 30.858" xmlns="http://www.w3.org/2000/svg" xmlns:cc="http://creativecommons.org/ns#" xmlns:dc="http://purl.org/dc/elements/1.1/" xmlns:rdf="http://www.w3.org/1999/02/22-rdf-syntax-ns#">
 <metadata id="metadata1930">
  <rdf:RDF>
   <cc:Work rdf:about="">
    <dc:format>image/svg+xml</dc:format>
    <dc:type rdf:resource="http://purl.org/dc/dcmitype/StillImage"/>
    <dc:title/>
   </cc:Work>
  </rdf:RDF>
 </metadata>
 <g id="layer1" transform="translate(0 -266.14)">
  <circle id="path853-5" cx="15.429" cy="281.57" r="15.429" fill="#351431"/>
  <circle id="path853" cx="15.429" cy="281.57" r="0" fill="#031d44"/>
 </g>
 <g id="layer2">
  <g id="g10894" transform="matrix(.26458 0 0 .26458 3.3547 3.9746)" fill="#fff">
   <path id="path10880" d="m88.702 36.673c-0.711-3.896-2.677-7.423-5.581-10.066 3e-3 -1.002-0.087-2.002-0.268-2.992-1.346-7.352-7.467-12.845-14.811-13.483-3.728-4.152-9.472-6.162-14.978-5.157-1.058 0.195-2.088 0.492-3.076 0.882-3.666-2.045-8.003-2.784-12.122-2.033-4.525 0.825-8.559 3.348-11.278 7-0.969 0.025-1.936 0.128-2.882 0.302-8.125 1.486-14.328 8.014-15.482 16.099-5.467 4.229-8.167 11.166-6.916 18.018 1.384 7.586 7.487 13.592 15.025 14.937 3.364 3.563 8.209 5.346 13.053 4.789 4.363 4.535 8.886 5.898 14.362 6.096 0.187 0.055 0.383 0.091 0.586 0.102 0.049 5e-3 0.229 0.01 0.519 0.01 0.203 0 0.461-5e-3 0.76-0.021 1.15 1.534 3.568 5.099 5.916 10.729 0.625 1.496 1.572 3.768 3.979 4.416 0.41 0.11 0.82 0.161 1.229 0.161 2.07 0 4.07-1.291 5.654-2.493 2.396-1.82 3.196-5.145 2.434-10.103 0.193 0.011 0.393 0.024 0.59 0.024 2.154 0 4.342-0.621 6.322-1.84 2.441-1.496 4.21-3.676 4.955-6.033 6.304-2.877 10.103-9.437 9.432-16.365 2.462-3.812 3.399-8.483 2.578-12.979zm-68.979 19.343c-0.433-0.527-1.052-0.865-1.73-0.947-5.719-0.683-10.436-5.116-11.468-10.776-0.712-3.896 0.367-7.833 2.812-10.802 1.12 2.561 3.232 5.475 7.176 6.718 0.682 0.213 1.304 0.31 1.873 0.31 3.173 0 4.691-2.979 5.655-4.87 1.444-2.84 2.822-5.542 7.726-5.832-0.318 1.066-0.392 1.864-0.408 2.045-0.099 1.461 1.002 2.73 2.463 2.828 0.062 5e-3 0.123 0.01 0.185 0.01 1.382 0 2.547-1.071 2.643-2.471 2e-3 -0.021 0.226-2.205 1.934-3.637 1.376-1.156 3.443-1.597 6.14-1.308 1.458 0.151 2.762-0.899 2.915-2.355 0.156-1.456-0.896-2.763-2.354-2.917-4.185-0.446-7.586 0.405-10.108 2.517-0.031 0.026-0.059 0.057-0.092 0.082-10.839-1.025-13.92 5.001-15.767 8.631-0.331 0.648-0.81 1.586-1.115 1.938-0.027-0.011-0.06-0.018-0.096-0.028-3.721-1.174-4.555-5.435-4.705-6.48 0.563-6.163 5.16-11.217 11.26-12.33 1.041-0.189 2.113-0.256 3.185-0.205 0.965 0.051 1.881-0.431 2.39-1.251 1.896-3.065 5.024-5.198 8.583-5.844 2.108-0.384 4.296-0.215 6.329 0.458-1.073 1.41-2.013 3.271-2.4 5.627-0.237 1.44 0.742 2.804 2.188 3.04 0.146 0.025 0.29 0.041 0.43 0.041 1.277 0 2.402-0.923 2.615-2.225 0.563-3.43 2.916-4.711 3.02-4.765l-0.038 0.018h-3e-3c0.018-0.01 0.036-0.013 0.055-0.023 0.939-0.484 1.95-0.828 3.006-1.02 3.983-0.728 8.151 0.897 10.625 4.14 0.496 0.648 1.265 1.033 2.082 1.041 5.233 0.051 9.728 3.745 10.83 8.833-2.819-0.543-6.744-0.708-10.367 1.182-1.756-1.397-4.764-3.061-8.799-2.602-1.453 0.167-2.5 1.481-2.332 2.935 0.166 1.456 1.479 2.5 2.935 2.335 3.548-0.405 5.7 2.209 5.774 2.299 0.435 0.559 1.066 0.92 1.767 1.01 0.11 0.013 0.221 0.018 0.331 0.018 0.587 0 1.16-0.195 1.63-0.559 3.797-2.958 9.257-1.205 10.569-0.718 2.315 1.907 3.886 4.558 4.427 7.516 0.608 3.338-0.156 6.798-2.093 9.556-0.717 0.538-3.439 2.117-7.986-0.486-1.27-0.733-2.889-0.293-3.619 0.977-0.727 1.27-0.287 2.893 0.98 3.617 2.814 1.617 5.297 2.168 7.373 2.168 0.947 0 1.805-0.118 2.578-0.303-0.547 3.07-2.39 5.783-5.088 7.429-6.466 3.829-15.514-0.972-15.601-1.019-1.159-0.633-2.606-0.314-3.396 0.746-3.076 4.133-7.772 5.201-10.289 5.477-0.028 0-0.055-6e-3 -0.082 0-4.62 0.092-7.93-0.362-11.052-2.705 1.772-1.115 3.486-2.857 4.446-5.434 0.273 0.018 0.548 0.026 0.829 0.026 1.77 0 3.654-0.354 5.6-1.229 1.336-0.601 1.934-2.168 1.332-3.502-0.6-1.332-2.168-1.936-3.503-1.332-5.91 2.652-10.481-2.396-10.694-2.639-0.958-1.1-2.626-1.218-3.732-0.264-1.107 0.956-1.23 2.63-0.273 3.738 1.062 1.23 2.9 2.765 5.25 3.854-1.292 2.671-4.034 3.14-4.414 3.193-0.069 8e-3 -0.139 0.021-0.207 0.036-0.013 2e-3 -0.022 2e-3 -0.035 5e-3 -0.115 0.024-0.233 0.049-0.349 0.071-3.639 0.663-7.375-0.708-9.746-3.587zm39.465 23.731c-1.166 0.881-1.848 1.215-2.187 1.338-0.21-0.36-0.466-0.976-0.576-1.243-1.8-4.31-3.646-7.539-5.063-9.71 1.975-0.628 4.133-1.623 6.152-3.202 2.174 5.97 3.009 11.8 1.674 12.817zm4.328-11.483c-0.203-0.68-0.41-1.32-0.613-1.923 1.841 0.527 4.02 0.956 6.332 1.013-0.088 0.06-0.172 0.125-0.264 0.183-1.757 1.074-3.737 1.333-5.455 0.727z"/>
   <path id="path10882" d="m48.168 46.796c1.42 0.699 3.275 1.196 5.206 1.196 2.401 0 4.919-0.771 6.862-2.875 1.486 0.709 3.507 1.31 5.68 0.908 1.705-0.318 4.125-1.4 5.96-4.749 0.702-1.284 0.235-2.894-1.048-3.599-1.282-0.705-2.895-0.236-3.6 1.046-0.672 1.223-1.434 1.922-2.27 2.084-1.439 0.279-3.245-0.877-3.752-1.29-0.618-0.523-1.443-0.733-2.238-0.569-0.789 0.156-1.466 0.671-1.832 1.395-1.89 3.711-5.854 2.062-6.642 1.688-1.312-0.636-2.892-0.095-3.538 1.215-0.642 1.312-0.102 2.9 1.212 3.55z"/>
  </g>
 </g>
</svg>
