<?xml version="1.0" encoding="UTF-8"?>
<!-- Created with Inkscape (http://www.inkscape.org/) -->
<svg id="svg1933" width="116.63" height="116.63" version="1.1" viewBox="0 0 30.858 30.858" xmlns="http://www.w3.org/2000/svg" xmlns:cc="http://creativecommons.org/ns#" xmlns:dc="http://purl.org/dc/elements/1.1/" xmlns:rdf="http://www.w3.org/1999/02/22-rdf-syntax-ns#">
 <metadata id="metadata1930">
  <rdf:RDF>
   <cc:Work rdf:about="">
    <dc:format>image/svg+xml</dc:format>
    <dc:type rdf:resource="http://purl.org/dc/dcmitype/StillImage"/>
    <dc:title/>
   </cc:Work>
  </rdf:RDF>
 </metadata>
 <g id="layer1" transform="translate(0 -266.14)">
  <circle id="path853-5" cx="15.429" cy="281.57" r="15.429" fill="#115158"/>
  <circle id="path853" cx="15.429" cy="281.57" r="0" fill="#031d44"/>
 </g>
 <g id="layer2">
  <path id="path3704" d="m24.424 11.837h-0.04327c-0.36871-1.5128-1.7469-2.629-3.359-2.629-0.39065 0-0.77625 0.0655-1.1408 0.19236-0.66807-1.2855-2.0001-2.1106-3.4983-2.1106-2.1346 0-3.8738 1.6983-3.9352 3.8078-0.80915-0.53588-1.9624-0.76973-3.1154-0.55366-1.5214 0.28543-3.1471 1.4615-3.1471 3.9067 0 0.21666 0.017487 0.43125 0.052461 0.64199-1.7864 0.17191-3.1874 1.674-3.1874 3.4957 0 1.9366 1.5833 3.5122 3.5297 3.5122h11.588c1.8536 0 3.3747-1.4301 3.5158-3.2393h2.741c1.9461 0 3.5294-1.5756 3.5294-3.5123 0-1.9366-1.5833-3.512-3.5297-3.512zm-6.2568 9.0367h-11.588c-1.2665 0-2.2967-1.0252-2.2967-2.2855s1.0303-2.2855 2.2967-2.2855h0.46267c0.20481 0 0.39657-0.10137 0.51098-0.27031 0.1147-0.16894 0.13723-0.38383 0.060464-0.57293-0.13012-0.3204-0.19621-0.66007-0.19621-1.0092 0-2.075 1.4986-2.5804 2.1426-2.701 0.75313-0.14108 1.5466-8e-3 2.0887 0.2958-1.3631 0.48668-2.3421 1.7822-2.3421 3.3039 0 1.9366 1.5833 3.512 3.5294 3.512h7.6099c-0.13604 1.1322-1.1052 2.0128-2.2787 2.0128zm6.2568-3.2393h-11.588c-1.2665 0-2.2964-1.0252-2.2964-2.2855 0-1.26 1.0303-2.2852 2.2964-2.2852h0.46297c0.20481 0 0.39657-0.10137 0.51098-0.27031 0.1147-0.16894 0.13723-0.38383 0.06046-0.57293-0.13012-0.3204-0.19621-0.66007-0.19621-1.0092 0-1.4861 1.2149-2.6951 2.7084-2.6951 1.1924 0 2.2318 0.76025 2.5863 1.8919 0.05631 0.17991 0.19266 0.32396 0.3699 0.39094 0.17695 0.06699 0.37523 0.0492 0.53706-0.04832 0.34441-0.20688 0.74068-0.31625 1.1459-0.31625 1.1639 0 2.1382 0.904 2.2176 2.0579 0.02223 0.32159 0.29106 0.57115 0.61502 0.57115h0.56967c1.2665 0 2.2964 1.0252 2.2964 2.2855s-1.0303 2.2855-2.2967 2.2855z" fill="#fff" stroke-width=".26458"/>
 </g>
</svg>
