<?xml version="1.0" encoding="UTF-8"?>
<!-- Created with Inkscape (http://www.inkscape.org/) -->
<svg id="svg1933" width="116.63" height="116.63" version="1.1" viewBox="0 0 30.858 30.858" xmlns="http://www.w3.org/2000/svg" xmlns:cc="http://creativecommons.org/ns#" xmlns:dc="http://purl.org/dc/elements/1.1/" xmlns:rdf="http://www.w3.org/1999/02/22-rdf-syntax-ns#">
 <metadata id="metadata1930">
  <rdf:RDF>
   <cc:Work rdf:about="">
    <dc:format>image/svg+xml</dc:format>
    <dc:type rdf:resource="http://purl.org/dc/dcmitype/StillImage"/>
    <dc:title/>
   </cc:Work>
  </rdf:RDF>
 </metadata>
 <g id="layer1" transform="translate(0 -266.14)">
  <circle id="path853-5" cx="15.429" cy="281.57" r="15.429" fill="#351431"/>
  <circle id="path853" cx="15.429" cy="281.57" r="0" fill="#031d44"/>
 </g>
 <g id="layer2">
  <g id="g16833" transform="matrix(.19555 0 0 .19555 2.3006 2.66)" fill="#fff" stroke-width="1.353" data-name="Layer 5">
   <path id="path16831" d="m95.831 98.053c-0.273-4.3 1.029-10.247 3.662-13.663 10.5-13.626 15.158-25.432 12.96-39.962-3.562-23.548-20.193-36.021-43.187-37.201-25.129-1.3-46.65 14.84-45.957 37.1 0.091 2.938 0.605 7.265 0.593 10.092-0.023 10.042-8.712 14.167-8.879 17.363-0.275 5.248 5.89 3.609 8.064 11.033 2.76 9.425-1.2 20.173 11.648 19.509 5.125-0.206 13.454-2.195 17.023 1.124 2.276 2.116 4.109 11.352 4.824 15.439a2.368 2.368 0 0 0 2.337 1.958h38.569a2.369 2.369 0 0 0 2.282-3.029c-1.283-4.416-3.501-12.85-3.939-19.763zm-35.068-45.527a3 3 0 0 1-2.058-0.876l-0.073 3.143a2.209 2.209 0 0 1-2.284 2.132l-3.948-0.092a2.972 2.972 0 1 0-5.041-2.21 3 3 0 0 0 0.792 2.111l-3.215-0.075a2.233 2.233 0 0 1-2.181-2.285l0.242-10.344a2.234 2.234 0 0 1 2.286-2.182l3.215 0.077a2.972 2.972 0 1 1 4.249 0.1l3.952 0.092a2.21 2.21 0 0 1 2.183 2.236l-0.082 3.147a3 3 0 0 1 2.1-0.779 2.907 2.907 0 1 1-0.135 5.81zm3.69-21.338a2.019 2.019 0 0 1-1.312 1.882l-1.088 0.413a2.03 2.03 0 0 1-2.595-1.083c-0.964-2.207-2.386-5.814-1.9-6.784 0.729-1.423 4.57-2.246 5.653-1.284 1.107 0.98 1.255 4.761 1.242 6.856zm4.307-1.165c0.289-1.742 0.857-4.535 1.547-4.923 1.016-0.588 3.71 0.442 3.99 1.463 0.282 1.054-1.143 3.433-1.975 4.716a1.509 1.509 0 0 1-1.575 0.634l-0.833-0.18a1.5 1.5 0 0 1-1.154-1.71zm18.422 26.136-3.144 0.072a2.992 2.992 0 0 1 0.876 2.058 2.907 2.907 0 1 1-5.81 0.136 3 3 0 0 1 0.78-2.1l-3.144 0.075a2.21 2.21 0 0 1-2.24-2.18l-0.092-3.952a2.972 2.972 0 1 1-0.1-4.249l-0.071-3.219a2.234 2.234 0 0 1 2.181-2.286l10.344-0.242a2.234 2.234 0 0 1 2.286 2.181l0.074 3.215a2.975 2.975 0 1 0-1.956 5.15 2.96 2.96 0 0 0 2.055-0.9l0.093 3.953a2.211 2.211 0 0 1-2.132 2.288z" fill="#fff" stroke-width="1.353"/>
  </g>
 </g>
</svg>
