<?xml version="1.0" encoding="UTF-8"?>
<!-- Created with Inkscape (http://www.inkscape.org/) -->
<svg id="svg1933" width="116.63" height="116.63" version="1.1" viewBox="0 0 30.858 30.858" xmlns="http://www.w3.org/2000/svg" xmlns:cc="http://creativecommons.org/ns#" xmlns:dc="http://purl.org/dc/elements/1.1/" xmlns:rdf="http://www.w3.org/1999/02/22-rdf-syntax-ns#">
 <metadata id="metadata1930">
  <rdf:RDF>
   <cc:Work rdf:about="">
    <dc:format>image/svg+xml</dc:format>
    <dc:type rdf:resource="http://purl.org/dc/dcmitype/StillImage"/>
    <dc:title/>
   </cc:Work>
  </rdf:RDF>
 </metadata>
 <g id="layer1" transform="translate(0 -266.14)">
  <circle id="path853-5" cx="15.429" cy="281.57" r="15.429" fill="#351431"/>
  <circle id="path853" cx="15.429" cy="281.57" r="0" fill="#031d44"/>
 </g>
 <g id="layer2">
  <g id="g4758" transform="matrix(.28691 0 0 .28691 .24173 1.2584)" fill="#fff" stroke-width=".92217">
   <path id="path4754" d="m72.9 57.8h3.1v-3h-4.2v-3h4.2v-3h-4.2v-3h4.2v-3h-4.2v-3h4.2v-3h-4.2v-3h4.2v-3h-4.2v-3h4.2v-3h-4.2v-3h4.2v-3h-4.2v-0.2c0-5.9-4.8-10.8-10.8-10.8s-10.8 4.8-10.8 10.8v9.9l-0.9 3.8-2.5 1.5 1.2-5.3-2.1-0.5-1.5-1.6-4 3.7v-2.9l6-5.6-2-2.2-4 3.7v-7.1h-3v7.1l-4-3.7-2 2.2 6 5.6v2.9l-4-3.7-1.3 1.6-2.1 0.5 1.2 5.3-2.5-1.5-1.8-8-3 0.7 1.2 5.3-6.1-3.6-1.5 2.6 6.1 3.5-5.2 1.6 0.9 2.9 7.8-2.4 2.5 1.5-5.2 1.6 0.6 2.1-0.6 2.1 5.2 1.6-2.5 1.5-7.8-2.4-0.9 2.9 5.2 1.6-6.1 3.5 1.5 2.6 6.1-3.5-1.2 5 2.9 0.7 1.8-8 2.5-1.5-1.1 5.3 2.1 0.5 1.5 1.6 4-3.7v2.9l-6 5.6 2 2.2 4-3.7v7.1h3v-7.1l4 3.7 2-2.2-6-5.6v-2.9l4 3.7 1.5-1.6 2.1-0.5-1.2-5.3 2.5 1.5 0.9 3.8v5.2c-4.3 3.3-6.8 8.5-6.8 13.9 0 9.7 7.9 17.6 17.6 17.6s17.6-7.9 17.6-17.6c-0.2-4.9-2.3-9.5-5.9-12.8zm-30.9-17.8 2.8-1.6 5.2 1.6-5.2 1.6zm8.2 3.1v1.7l-1.9-1.1zm-1.9-6.8 1.9-1.1v1.7zm-3.8-5.8-1.2 5.3-2.8 1.6v-3.2zm-11 0 4 3.7v3.2l-2.8-1.6zm-5.5 9.5 5.2-1.6 2.8 1.6-2.8 1.6zm5.5 9.5 1.2-5.3 2.8-1.6v3.2zm11 0-4-3.7v-3.2l2.8 1.6zm16.5 35.7c-8 0-14.6-6.5-14.6-14.6 0-4.7 2.3-9.2 6.2-11.9l0.6-0.4v-39.8c0-4.3 3.5-7.8 7.8-7.8s7.8 3.5 7.8 7.8v39.8l0.6 0.4c3.9 2.7 6.2 7.2 6.2 11.9 0 8.1-6.6 14.6-14.6 14.6z"/>
   <path id="path4756" d="m66.5 60v-4h-11v4c-3.9 2-6.5 6-6.5 10.7 0 6.6 5.4 12 12 12s12-5.4 12-12c0-4.7-2.6-8.7-6.5-10.7z"/>
  </g>
 </g>
</svg>
