<?xml version="1.0" encoding="UTF-8"?>
<!-- Created with Inkscape (http://www.inkscape.org/) -->
<svg id="svg1933" width="116.63" height="116.63" version="1.1" viewBox="0 0 30.858 30.858" xmlns="http://www.w3.org/2000/svg" xmlns:cc="http://creativecommons.org/ns#" xmlns:dc="http://purl.org/dc/elements/1.1/" xmlns:rdf="http://www.w3.org/1999/02/22-rdf-syntax-ns#">
 <metadata id="metadata1930">
  <rdf:RDF>
   <cc:Work rdf:about="">
    <dc:format>image/svg+xml</dc:format>
    <dc:type rdf:resource="http://purl.org/dc/dcmitype/StillImage"/>
    <dc:title/>
   </cc:Work>
  </rdf:RDF>
 </metadata>
 <g id="layer1" transform="translate(0 -266.14)">
  <circle id="path853-5" cx="15.429" cy="281.57" r="15.429" fill="#351431"/>
  <circle id="path853" cx="15.429" cy="281.57" r="0" fill="#031d44"/>
 </g>
 <g id="layer2">
  <path id="path26054" d="m15.438 11.459-1.187 0.68531-0.98744-0.69012 0.98136-0.68354zm-0.75546 2.4632 1.0923-0.5098v-1.3701l-1.1976 0.69114zm1.0913-4.4239-1.0867-0.5098-0.10536 1.1992 1.1921 0.6881zm7.0638 9.0481c-1.0784 1.7434-1.0275 4.8719-0.50499 6.8356l6e-3 0.02279h-8.8971l-0.18711-0.85271c-0.175-0.88943-0.65087-1.2665-1.7561-1.2665l-2.4872-0.0028c-0.72251-0.022268-1.3002-0.61489-1.3002-1.342l-5.063e-4 -0.08357c0.00833-1.1911 0.017727-3.3382 0.021269-4.2344l-1.2724-0.0066h-0.11852c-0.3971-0.035442-0.70836-0.36848-0.70836-0.7747 0-0.13296 0.025327-0.25857 0.084079-0.36798 0.31024-0.56881 0.97098-1.7358 1.4296-2.4885 0.52373-0.86183 0.50145-0.99124 0.29985-1.6527-0.25857-0.84866-0.00105-2.1476 0.68911-3.4645 1.345-2.7022 4.4317-4.589 8.0046-4.589 3.7672 0 6.9873 2.1116 8.2057 5.053 0.12511 0.30137 0.2292 0.61187 0.31049 0.92869 0 0 0.14689 0.35456 0.22692 1.0158 0.44446 2.6855-0.40698 5.0203-2.0453 7.2702zm-1.5922-4.5135-0.96364-0.5559 0.60553-0.42192-0.38495-0.55286-0.86512 0.60275-1.012-0.58401 1.5132-1.0606-1.5236-1.0604 1.0171-0.58705 0.87753 0.61111 0.38495-0.55286-0.61744-0.43028 0.96744-0.55919c0.38875-0.22489 0.05192-0.80814-0.33632-0.5835l-0.96364 0.55666-0.0623-0.7352-0.67062 0.05724 0.08965 1.05-1.0125 0.58502-0.1631-1.8386-1.6788 0.78231v-1.1685l0.96719-0.45459-0.28618-0.60959-0.68151 0.32037v-1.1186c0-0.44928-0.67366-0.44902-0.67366 0l7.6e-4 1.1123-0.6686-0.31328-0.28593 0.60984 0.95452 0.44725 5.06e-4 1.1736-1.6725-0.78459-0.16335 1.8465-1.012-0.58401 0.089908-1.0652-0.67113-0.056732-0.063318 0.75014-0.96896-0.55919c-0.38875-0.22413-0.72507 0.35886-0.33658 0.58325l0.96338 0.55564-0.60579 0.42218 0.3852 0.55235 0.86461-0.6025 1.0166 0.58654-1.5142 1.0553 1.5213 1.0624-1.0176 0.58781-0.87728-0.61085-0.3852 0.55235 0.61794 0.43054-0.9682 0.55969c-0.38875 0.22464-0.05192 0.80763 0.33683 0.58325l0.96313-0.5564 0.06281 0.73495 0.67088-0.05749-0.08965-1.0503 1.012-0.58451 0.16183 1.8336 1.6801-0.78382v1.1751l-0.96769 0.45459 0.28643 0.60959 0.68176-0.32088v1.1189c0 0.44877 0.67341 0.44852 0.67341-5.07e-4l-5.07e-4 -1.1118 0.6686 0.31277 0.28592-0.60984-0.95452-0.44725-5.06e-4 -1.1688 1.6748 0.77902 0.15601-1.848 1.0163 0.58629-0.08965 1.0657 0.67087 0.05673 0.06432-0.75014 0.96845 0.55919c0.38925 0.22438 0.72532-0.35861 0.33683-0.58299zm-3.7061-5.0431-1.0923 0.50904 5.07e-4 1.3767 1.1974-0.69164zm0.43206 1.7829-1.1873 0.68582 1.1976 0.69113 0.9801-0.68683zm-1.5231 2.6523 1.0847 0.50499 0.10181-1.203-1.1873-0.68506z" fill="#fff" stroke-width=".26458"/>
 </g>
</svg>
