<?xml version="1.0" encoding="UTF-8"?>
<svg id="svg1933" width="116.63" height="116.63" version="1.1" viewBox="0 0 30.858 30.858" xmlns="http://www.w3.org/2000/svg" xmlns:cc="http://creativecommons.org/ns#" xmlns:dc="http://purl.org/dc/elements/1.1/" xmlns:rdf="http://www.w3.org/1999/02/22-rdf-syntax-ns#">
 <metadata id="metadata1930">
  <rdf:RDF>
   <cc:Work rdf:about="">
    <dc:format>image/svg+xml</dc:format>
    <dc:type rdf:resource="http://purl.org/dc/dcmitype/StillImage"/>
    <dc:title/>
   </cc:Work>
  </rdf:RDF>
 </metadata>
 <g id="layer1" transform="translate(0 -266.14)">
  <circle id="path853-5" cx="15.429" cy="281.57" r="15.429" fill="#42273b" fill-opacity=".95909"/>
  <circle id="path853" cx="15.429" cy="281.57" r="0" fill="#031d44"/>
 </g>
 <g id="layer2">
  <g id="g18404" transform="matrix(.01367 0 0 .01367 5.3171 4.7547)" fill="#fff" stroke-width="19.355">
   <g id="g18376">
    <g id="g18374" fill="#fff" stroke-width="19.355">
     <g id="g18368">
      <g id="g18358">
       <path id="path18356" d="m760.47 322.3h-67c-47.86 0-86.79-38.93-86.79-86.79 0-47.6 38.72-86.54 86.31-86.79h0.13 119.48c13.26 0 24 10.74 24 24s-10.74 24-24 24h-119.43c-21.23 0.15-38.5 17.54-38.5 38.79 0 21.39 17.4 38.79 38.79 38.79h67c13.26 0 24 10.74 24 24s-10.74 24-23.99 24z" fill="#fff" stroke-width="19.355"/>
      </g>
      <g id="g18362">
       <path id="path18360" d="m760.47 451.83h-120.9c-48.95 0-88.77-39.82-88.77-88.77 0-23.74 9.26-46.06 26.06-62.83 16.76-16.73 39.03-25.94 62.7-25.94h0.18 131.88c13.26 0 24 10.74 24 24s-10.74 24-24 24h-131.93-0.08c-10.92 0-21.14 4.23-28.84 11.91-7.72 7.7-11.97 17.95-11.97 28.85 0 22.48 18.29 40.77 40.77 40.77h120.9c13.26 0 24 10.74 24 24s-10.75 24.01-24 24.01z" fill="#fff" stroke-width="19.355"/>
      </g>
      <g id="g18366">
       <path id="path18364" d="m999.84 716.31h-327.57c-13.26 0-24-10.74-24-24 0-30.46 8.25-60.3 23.85-86.28 7.02-11.7 15.46-22.53 25.09-32.18 31.57-31.66 73.57-49.19 118.28-49.34h0.08c13.22 0 23.95 10.69 24 23.92 0.04 13.26-10.67 24.04-23.92 24.08-31.91 0.1-61.91 12.62-84.45 35.23-6.88 6.89-12.9 14.62-17.92 22.98-6.98 11.63-11.9 24.34-14.59 37.57h301.16c53.15 0 103.28-20.18 141.16-56.82 0.69-0.69 1.34-1.31 1.96-1.88 17.77-17.16 34.56-32.27 51.32-46.16l1.35-1.11c59.13-48.75 134.05-75.6 210.97-75.6h16.38v-274.27c-92.94-3.94-183.88-30.69-264.38-77.97-3.86-2.27-7.66-4.52-11.43-6.75l-3.83-2.27c-50.02-29.68-89.52-53.12-144.82-54.85-7.51-0.23-54.93-0.46-120.77-0.59l-127.17-0.02h-0.01c-10.5 0-20.37 4.09-27.79 11.51s-11.52 17.3-11.52 27.8c0 21.67 17.63 39.31 39.31 39.31h35.8c13.25 0 24 10.74 24 24s-10.75 24-24 24h-35.8c-48.14 0-87.31-39.17-87.31-87.31 0-23.32 9.08-45.25 25.58-61.74 16.49-16.49 38.41-25.57 61.73-25.57h0.02l127.21 0.02c68.33 0.14 113.99 0.37 122.19 0.61 67.69 2.12 116.34 30.99 167.84 61.55l3.82 2.27c3.71 2.2 7.45 4.42 11.25 6.65 80.06 47.02 171.37 71.87 264.07 71.87 13.26 0 24 10.74 24 24v321.77c0 13.26-10.74 24-24 24h-40.38c-65.8 0-129.88 22.95-180.43 64.63l-1.26 1.04c-15.89 13.17-31.85 27.54-48.81 43.93-0.18 0.17-0.35 0.34-0.54 0.5-0.26 0.24-0.52 0.5-0.78 0.75-0.09 0.09-0.18 0.17-0.26 0.26-23.26 22.54-50.35 40.12-80.5 52.25-30.03 12.08-61.72 18.21-94.18 18.21z" fill="#fff" stroke-width="19.355"/>
      </g>
     </g>
     <g id="g18372">
      <path id="path18370" d="m426.3 573.6c-22.68 0-43.98-8.83-60.01-24.89-16.08-16.1-24.88-37.51-24.79-60.27 0.19-46.61 38.22-84.46 84.8-84.46h0.2c95.83 0.22 269.98 0.49 359.61-0.16h0.18c13.18 0 23.9 10.63 24 23.83 0.1 13.25-10.57 24.08-23.83 24.17-89.83 0.65-264.15 0.38-360.07 0.16h-0.09c-20.22 0-36.72 16.43-36.8 36.66-0.04 9.88 3.78 19.17 10.76 26.16 6.96 6.97 16.2 10.8 26.04 10.8h0.09c72.95-0.18 181.67-0.56 286.82-0.93 122.3-0.43 237.81-0.84 275.54-0.84 13.26 0 24 10.74 24 24s-10.74 24-24 24c-37.65 0-153.12 0.41-275.37 0.84-105.16 0.37-213.9 0.76-286.87 0.93h-0.21z" fill="#fff" stroke-width="19.355"/>
     </g>
    </g>
   </g>
   <g id="g18402">
    <g id="g18380">
     <path id="path18378" d="m670.3 1558h-492.08c-38.15 0-69.2-31.04-69.2-69.19v-534.38c0-38.15 31.04-69.19 69.2-69.19h189.1c13.26 0 24 10.74 24 24s-10.74 24-24 24h-189.1c-11.69 0-21.2 9.51-21.2 21.19v534.38c0 11.69 9.51 21.19 21.2 21.19h492.08c11.69 0 21.2-9.51 21.2-21.19v-534.38c0-11.69-9.51-21.19-21.2-21.19h-189.1c-13.26 0-24-10.74-24-24s10.74-24 24-24h189.1c38.15 0 69.2 31.04 69.2 69.19v534.38c-0.01 38.15-31.05 69.19-69.2 69.19z" fill="#fff" stroke-width="19.355"/>
    </g>
    <g id="g18384">
     <path id="path18382" d="m620.58 1463.1h-392.65c-13.26 0-24-10.74-24-24v-324.86c0-13.26 10.74-24 24-24h392.65c13.26 0 24 10.74 24 24v324.86c0 13.26-10.74 24-24 24zm-368.65-48h344.65v-276.86h-344.65z" fill="#fff" stroke-width="19.355"/>
    </g>
    <g id="g18388">
     <path id="path18386" d="m424.26 1380.6c-42.23 0-76.6-34.36-76.6-76.6 0-21.54 10.02-48.99 29.77-81.59 13.78-22.73 27.46-40.01 28.03-40.73 4.55-5.73 11.47-9.06 18.79-9.06s14.23 3.34 18.79 9.06c0.58 0.72 14.26 17.99 28.03 40.73 19.76 32.59 29.77 60.05 29.77 81.59 0.01 42.24-34.35 76.6-76.58 76.6zm0.01-142.61c-14.95 23.23-28.61 50.18-28.61 66.02 0 15.77 12.83 28.6 28.6 28.6s28.6-12.83 28.6-28.6c-0.01-15.9-13.65-42.82-28.59-66.02z" fill="#fff" stroke-width="19.355"/>
    </g>
    <g id="g18392">
     <path id="path18390" d="m522.69 1035.7h-196.87c-13.26 0-24-10.74-24-24s10.74-24 24-24h196.87c13.26 0 24 10.74 24 24s-10.74 24-24 24z" fill="#fff" stroke-width="19.355"/>
    </g>
    <g id="g18396">
     <path id="path18394" d="m481.2 1035.7h-113.89c-13.26 0-24-10.74-24-24v-332.87c0-13.26 10.74-24 24-24h113.89c13.26 0 24 10.74 24 24v332.87c0 13.25-10.74 24-24 24zm-89.89-48h65.89v-284.87h-65.89z" fill="#fff" stroke-width="19.355"/>
    </g>
    <g id="g18400">
     <path id="path18398" d="m481.2 790.96h-113.89c-13.26 0-24-10.74-24-24s10.74-24 24-24h113.89c13.26 0 24 10.74 24 24s-10.74 24-24 24z" fill="#fff" stroke-width="19.355"/>
    </g>
   </g>
  </g>
 </g>
</svg>
