<?xml version="1.0" encoding="UTF-8"?>
<!-- Created with Inkscape (http://www.inkscape.org/) -->
<svg id="svg1933" width="116.63" height="116.63" version="1.1" viewBox="0 0 30.858 30.858" xmlns="http://www.w3.org/2000/svg" xmlns:cc="http://creativecommons.org/ns#" xmlns:dc="http://purl.org/dc/elements/1.1/" xmlns:rdf="http://www.w3.org/1999/02/22-rdf-syntax-ns#">
 <defs id="defs1927">
  <style id="style10671">.cls-1{fill:#000000;}</style>
 </defs>
 <metadata id="metadata1930">
  <rdf:RDF>
   <cc:Work rdf:about="">
    <dc:format>image/svg+xml</dc:format>
    <dc:type rdf:resource="http://purl.org/dc/dcmitype/StillImage"/>
    <dc:title/>
   </cc:Work>
  </rdf:RDF>
 </metadata>
 <g id="layer1" transform="translate(0 -266.14)">
  <circle id="path853-5" cx="15.429" cy="281.57" r="15.429" fill="#266334"/>
  <circle id="path853" cx="15.429" cy="281.57" r="0" fill="#031d44"/>
 </g>
 <g id="layer2">
  <g id="g17022" transform="matrix(.045443 0 0 .045443 3.8513 3.803)" fill="#fff" stroke-width="5.8223">
   <g id="g17020" fill="#fff" stroke-width="5.8223">
    <g id="g16992">
     <path id="path16988" d="m304.3 443.59c-1.639 1.729-3.285 3.465-4.926 5.208 0 5e-3 -6e-3 7e-3 -8e-3 0.01-10.713 11.354-23.006 24.564-33.25 36.378-2.572 2.952-6.246 4.615-10.114 4.615-1.94 0-3.832-0.422-5.559-1.209-4.552-2.08-2.472-2.396-42.741-45.002-59.915 7.104-85.949 24.937-85.949 32.818 0 10.648 45.674 35.59 134.25 35.59s134.25-24.941 134.25-35.59c1e-3 -7.882-26.034-25.717-85.95-32.818z"/>
     <path id="path16990" d="m256 456.22c71.483-79.329 183.46-177.18 183.46-273.68 0-100.65-82.299-182.53-183.46-182.53-101.16 0-183.46 81.888-183.46 182.53 0 96.339 111.48 193.9 183.46 273.68zm-157.67-273.7c0-86.572 70.731-157 157.67-157 86.931 0 157.66 70.432 157.66 157 0 86.581-70.727 157.02-157.66 157.02-86.941 0-157.67-70.436-157.67-157.02z"/>
    </g>
    <g id="g17018">
     <rect id="rect16994" x="314.74" y="118.85" width="28.191" height="9.396"/>
     <path id="path16996" d="m256 241.03c19.934 0 36.506-14.679 39.473-33.795 8e-3 -0.049 0.014-0.094 0.02-0.141 0.092-0.608 0.172-1.221 0.234-1.833 6e-3 -0.075 0.016-0.155 0.023-0.23 0.059-0.608 0.107-1.216 0.139-1.828 4e-3 -0.066 4e-3 -0.132 8e-3 -0.2 0.029-0.637 0.049-1.274 0.049-1.92 0-0.612-0.02-1.226-0.049-1.833-4e-3 -0.15-0.012-0.299-0.027-0.452-0.027-0.582-0.068-1.161-0.127-1.734-4e-3 -0.023-4e-3 -0.049-4e-3 -0.07-0.064-0.631-0.146-1.256-0.24-1.88-0.012-0.08-0.021-0.155-0.035-0.235-2.994-19.088-19.549-33.738-39.463-33.738-19.912 0-36.468 14.65-39.457 33.738-0.014 0.078-0.023 0.155-0.037 0.235-0.092 0.624-0.175 1.249-0.24 1.88 0 0.021-6e-3 0.047-6e-3 0.07-0.056 0.573-0.096 1.152-0.131 1.734-0.01 0.153-0.02 0.302-0.026 0.452-0.026 0.607-0.047 1.221-0.047 1.833 0 0.646 0.021 1.283 0.052 1.92 2e-3 0.068 2e-3 0.134 7e-3 0.2 0.033 0.612 0.083 1.22 0.137 1.828 9e-3 0.075 0.019 0.155 0.026 0.23 0.063 0.612 0.141 1.225 0.232 1.833 0.01 0.047 0.015 0.092 0.023 0.141 2.963 19.117 19.53 33.795 39.466 33.795zm0-65.794c14.25 0 25.846 11.597 25.846 25.847 0 1.3-1.047 2.351-2.348 2.351-1.299 0-2.346-1.051-2.346-2.351 0-11.658-9.49-21.145-21.153-21.145-11.658 0-21.146 9.486-21.146 21.145 0 11.665 9.488 21.148 21.146 21.148 1.299 0 2.354 1.051 2.354 2.349 0 1.299-1.055 2.352-2.354 2.352-14.249 0-25.844-11.598-25.844-25.849 1e-3 -14.25 11.595-25.847 25.845-25.847z"/>
     <polygon id="polygon16998" points="285.49 128.25 276.54 104.75 226.07 104.75 217.12 128.25"/>
     <polygon id="polygon17000" points="324.14 132.95 312.4 132.95 291.25 132.95 291.25 161.14 324.14 161.14"/>
     <rect id="rect17002" x="164.37" y="118.85" width="23.493" height="9.396"/>
     <path id="path17004" d="m328.84 165.84h-45.42c8.992 6.976 14.959 17.1 16.695 28.377 6e-3 0.032 0.012 0.07 0.016 0.105 0.043 0.28 0.082 0.567 0.123 0.851 0.016 0.127 0.031 0.259 0.047 0.386 0.033 0.24 0.061 0.477 0.084 0.714 0.02 0.182 0.039 0.36 0.055 0.545 0.02 0.204 0.037 0.414 0.055 0.619 0.016 0.219 0.033 0.438 0.047 0.655 0.014 0.181 0.023 0.36 0.037 0.541 0.01 0.262 0.023 0.525 0.031 0.785 8e-3 0.146 0.016 0.287 0.016 0.434 0.014 0.409 0.018 0.821 0.018 1.229 0 0.678-0.018 1.352-0.045 2.021-4e-3 0.062-4e-3 0.12-0.01 0.18-0.031 0.631-0.074 1.253-0.135 1.877-4e-3 0.104-0.014 0.21-0.025 0.313-0.057 0.584-0.127 1.159-0.205 1.736-0.021 0.15-0.039 0.299-0.063 0.45-0.078 0.532-0.166 1.06-0.264 1.585-0.041 0.202-0.076 0.407-0.121 0.61-0.09 0.469-0.193 0.933-0.297 1.395-0.066 0.273-0.131 0.542-0.199 0.811-0.076 0.282-0.148 0.567-0.229 0.853-0.129 0.462-0.258 0.919-0.398 1.376-0.02 0.061-0.041 0.127-0.063 0.19-1.994 6.367-5.396 12.229-10.029 17.151h40.279z"/>
     <path id="path17006" d="m211.39 199.42c0.013-0.26 0.021-0.523 0.036-0.785 9e-3 -0.181 0.023-0.36 0.035-0.541 0.015-0.217 0.026-0.437 0.047-0.655 0.017-0.205 0.035-0.415 0.055-0.619 0.019-0.185 0.037-0.363 0.056-0.545 0.026-0.237 0.05-0.474 0.078-0.714 0.017-0.127 0.038-0.259 0.055-0.386 0.037-0.285 0.075-0.57 0.115-0.851 0.01-0.035 0.014-0.073 0.019-0.105 1.738-11.277 7.708-21.401 16.697-28.377h-45.417v65.789h40.274c-4.626-4.918-8.028-10.777-10.025-17.14-0.02-0.07-0.045-0.137-0.066-0.207-0.139-0.452-0.269-0.905-0.394-1.362-0.082-0.289-0.16-0.577-0.23-0.866-0.068-0.267-0.132-0.532-0.198-0.806-0.108-0.46-0.207-0.929-0.302-1.399-0.039-0.2-0.08-0.403-0.117-0.604-0.097-0.527-0.184-1.055-0.264-1.587-0.021-0.151-0.04-0.297-0.062-0.448-0.08-0.574-0.148-1.154-0.21-1.74-9e-3 -0.102-0.014-0.208-0.028-0.309-0.056-0.627-0.101-1.249-0.129-1.88-3e-3 -0.06-3e-3 -0.118-7e-3 -0.18-0.033-0.669-0.048-1.343-0.048-2.021 0-0.408 5e-3 -0.82 0.015-1.229 3e-3 -0.146 0.013-0.288 0.015-0.433z"/>
     <rect id="rect17008" x="154.96" y="165.84" width="23.498" height="65.789"/>
     <path id="path17010" d="m256 156.44c7.155 0 13.924 1.696 19.922 4.697h10.625v-28.192h-131.58v28.192h81.112c6.003-3 12.765-4.697 19.922-4.697z"/>
     <polygon id="polygon17012" points="345.29 132.95 328.84 132.95 328.84 161.14 357.04 161.14 357.04 132.95"/>
     <rect id="rect17014" x="333.54" y="165.84" width="23.496" height="65.789"/>
     <path id="path17016" d="m256 245.73c-10.303 0-19.804-3.512-27.365-9.401h-73.669v18.799h202.07v-18.799h-73.666c-7.561 5.89-17.061 9.401-27.37 9.401z"/>
    </g>
   </g>
  </g>
 </g>
</svg>
