<?xml version="1.0" encoding="UTF-8" standalone="no"?>
<!-- Created with Inkscape (http://www.inkscape.org/) -->

<svg
   xmlns:dc="http://purl.org/dc/elements/1.1/"
   xmlns:cc="http://creativecommons.org/ns#"
   xmlns:rdf="http://www.w3.org/1999/02/22-rdf-syntax-ns#"
   xmlns:svg="http://www.w3.org/2000/svg"
   xmlns="http://www.w3.org/2000/svg"
   xmlns:sodipodi="http://sodipodi.sourceforge.net/DTD/sodipodi-0.dtd"
   xmlns:inkscape="http://www.inkscape.org/namespaces/inkscape"
   width="30.858mm"
   height="30.858mm"
   viewBox="0 0 30.858 30.858"
   version="1.1"
   id="svg1933"
   inkscape:version="0.92.5 (2060ec1f9f, 2020-04-08)"
   sodipodi:docname="Feeling safe during active transport.svg">
  <defs
     id="defs1927">
    <mask
       maskUnits="userSpaceOnUse"
       id="mask2260">
      <rect
         style="opacity:1;fill:#ffffff;fill-opacity:1;stroke:none;stroke-width:0.56499994;stroke-miterlimit:4;stroke-dasharray:none;stroke-opacity:1"
         id="rect2262"
         width="86.248459"
         height="109.59391"
         x="10.399542"
         y="-2.1886201" />
    </mask>
  </defs>
  <sodipodi:namedview
     id="base"
     pagecolor="#ffffff"
     bordercolor="#666666"
     borderopacity="1.0"
     inkscape:pageopacity="0.0"
     inkscape:pageshadow="2"
     inkscape:zoom="3.959798"
     inkscape:cx="79.004522"
     inkscape:cy="50.090754"
     inkscape:document-units="mm"
     inkscape:current-layer="layer1"
     showgrid="false"
     units="mm"
     showguides="true"
     inkscape:guide-bbox="true"
     inkscape:snap-global="true"
     inkscape:window-width="1090"
     inkscape:window-height="767"
     inkscape:window-x="824"
     inkscape:window-y="161"
     inkscape:window-maximized="0"
     inkscape:snap-others="false"
     inkscape:snap-bbox="true"
     inkscape:bbox-nodes="true"
     inkscape:snap-nodes="false">
    <sodipodi:guide
       position="0,16.503893"
       orientation="1,0"
       id="guide2524"
       inkscape:locked="false"
       inkscape:label=""
       inkscape:color="rgb(0,0,255)" />
    <sodipodi:guide
       position="14.29892,0"
       orientation="0,1"
       id="guide2526"
       inkscape:locked="false"
       inkscape:label=""
       inkscape:color="rgb(0,0,255)" />
    <sodipodi:guide
       position="85.526248,30.858"
       orientation="0,1"
       id="guide7505"
       inkscape:locked="false"
       inkscape:label=""
       inkscape:color="rgb(0,0,255)" />
    <sodipodi:guide
       position="15.434815,33.542326"
       orientation="1,0"
       id="guide7585"
       inkscape:locked="false" />
  </sodipodi:namedview>
  <metadata
     id="metadata1930">
    <rdf:RDF>
      <cc:Work
         rdf:about="">
        <dc:format>image/svg+xml</dc:format>
        <dc:type
           rdf:resource="http://purl.org/dc/dcmitype/StillImage" />
        <dc:title></dc:title>
      </cc:Work>
    </rdf:RDF>
  </metadata>
  <g
     inkscape:label="Layer 1"
     inkscape:groupmode="layer"
     id="layer1"
     transform="translate(0,-266.14199)">
    <g
       style="fill:#ffffff;stroke-width:1.20943701"
       id="g1829"
       transform="matrix(0.04272767,0,0,0.04272767,4.3256279,270.19715)">
      <path
         id="path1806"
         d="m 405.7,165.4 -16.9,6.4 c -6.3,2.4 -12.9,3.6 -19.6,3.6 -1.4,0 -2.9,-0.1 -4.3,-0.2 -18.8,-1.4 -51.9,-4 -73.2,-5.6 L 256,206.4 220,169.2 c -15.6,-16 -37,-25.1 -59.3,-25.1 -0.2,0 -0.5,0 -0.7,0 -10.6,0.1 -21.1,2.2 -30.8,6.4 l -0.8,0.3 c -9.6,4.2 -18.3,10.4 -25.5,18.1 -30.9,33.6 -30.5,85.4 1,118.4 l 48.4,50 c 21.2,1.6 54.7,4.2 73.8,5.6 11.9,0.9 22.3,8.5 26.7,19.6 l 0.2,0.5 c 6.3,15.8 -1.4,33.7 -17.2,40 -2.1,0.8 -4.3,1.4 -6.5,1.8 l -23.7,3.9 24.9,10.6 c 6,2.6 12.8,2.6 18.9,0 l 53,-22.7 105.7,-109.3 c 31.5,-33 31.9,-84.8 1,-118.4 -1.1,-1.2 -2.2,-2.4 -3.4,-3.5 z M 240,280 h -32 v 32 h -32 v -32 h -32 v -32 h 32 v -32 h 32 v 32 h 32 z m 96,8 -16,8 v 48 h -32 v -48 l -16,-8 v -30.1 c 0,-6.1 3.4,-11.6 8.8,-14.3 L 304,232 l -7.2,-3.6 c -5.4,-2.7 -8.8,-8.3 -8.8,-14.3 v -4.2 c 0,-8.8 7.2,-16 16,-16 8.8,0 16,7.2 16,16 v 4.2 c 0,6.1 -3.4,11.6 -8.8,14.3 l -7.2,3.6 23.2,11.6 c 5.4,2.7 8.8,8.3 8.8,14.3 z"
         inkscape:connector-curvature="0"
         style="fill:#ffffff;stroke-width:1.20943701" />
      <rect
         id="rect1808"
         height="88"
         width="32"
         y="376"
         x="32"
         style="fill:#ffffff;stroke-width:1.20943701" />
      <path
         id="path1810"
         d="M 407.3,45.1 378.7,33.7 C 375.9,32.6 372.8,32 369.8,32 h -121 c -4.3,0 -8.6,1.2 -12.3,3.4 l -132.1,79.3 c -6.3,3.8 -8.4,12 -4.6,18.3 3.4,5.7 10.6,8 16.7,5.4 l 4.4,-1.9 c 1.2,-0.5 2.3,-1 3.5,-1.5 L 272,71.3 l 63.9,27.2 14.9,-2.4 2.6,15.8 -68.2,11.1 c -8.1,1.3 -13.5,8.9 -12.2,17 0.2,1.1 0.5,2.1 0.9,3.1 l 0.2,0.5 c 2.1,5.5 7.2,9.2 13,9.6 20.8,1.5 58.4,4.4 78.9,6 5.8,0.5 11.6,-0.4 17.1,-2.4 L 432,138.5 V 48 h -9.8 c -5.1,0 -10.2,-1 -14.9,-2.9 z"
         inkscape:connector-curvature="0"
         style="fill:#ffffff;stroke-width:1.20943701" />
      <rect
         id="rect1812"
         height="88"
         width="32"
         y="48"
         x="448"
         style="fill:#ffffff;stroke-width:1.20943701" />
      <path
         id="path1814"
         d="M 395.9,373.9 255.7,434 c -10,4.3 -21.4,4.3 -31.4,0 l -48.1,-20.5 -14.9,2.4 -2.6,-15.8 68.1,-11.1 c 8.1,-1.3 13.5,-8.9 12.2,-17 -0.2,-1.1 -0.5,-2.1 -0.9,-3.1 l -0.2,-0.5 c -2.1,-5.5 -7.2,-9.2 -13,-9.6 -20.8,-1.5 -58.4,-4.4 -78.9,-6 -5.8,-0.5 -11.6,0.4 -17.1,2.4 L 80,373.5 V 464 h 9.8 c 5.1,0 10.1,1 14.9,2.9 l 28.6,11.4 c 2.8,1.1 5.9,1.7 8.9,1.7 h 121 c 4.3,0 8.6,-1.2 12.3,-3.4 l 132.3,-79.4 c 6.2,-3.7 8.2,-11.8 4.5,-18 -3.4,-5.6 -10.4,-7.9 -16.4,-5.3 z"
         inkscape:connector-curvature="0"
         style="fill:#ffffff;stroke-width:1.20943701" />
    </g>
    <g
       style="fill:#ffffff;stroke-width:1.27491653"
       id="g3556"
       transform="matrix(0.42010107,0,0,0.42010107,7.9079933,271.42233)">
      <path
         id="path3545"
         transform="translate(-494,-327.3)"
         d="m 512,327.3 a 18,18 0 0 0 -18,18 c 0,8.7 13.8,26.6 17.2,31 a 1,1 0 0 0 1.6,0 c 3.5,-4.4 17.2,-22.3 17.2,-31 a 18,18 0 0 0 -18,-18 z m 1.6,29.9 a 12,12 0 0 1 -13.5,-13.5 12.8,12.8 0 0 1 10.3,-10.3 12,12 0 0 1 13.5,13.5 12.8,12.8 0 0 1 -10.3,10.3 z m -5.7,-17.1 a 4.1,4.1 0 1 1 4.1,4.1 4.1,4.1 0 0 1 -4.1,-4.1 z m 4.1,5.9 a 8.8,8.8 0 0 0 -7.4,4.7 0.9,0.9 0 0 0 0.9,1.5 h 13 a 0.9,0.9 0 0 0 0.9,-1.5 8.8,8.8 0 0 0 -7.4,-4.6 z"
         inkscape:connector-curvature="0"
         style="fill:#ffffff;stroke-width:1.27491653" />
    </g>
    <g
       transform="translate(-230.5916,-243.02485)"
       id="g9880">
      <circle
         style="fill:#40a073;fill-opacity:1;stroke-width:0.46499997"
         id="circle1093-0-8-8-7-3-9-1"
         cx="246.0208"
         cy="524.59564"
         r="15.429199" />
      <g
         transform="matrix(0.24885645,0,0,0.24885645,233.90275,514.12529)"
         id="g9857"
         style="fill:#ffffff;stroke-width:1.06319654">
        <g
           style="fill:#ffffff;stroke-width:1.06319654"
           id="g9802">
          <path
             style="fill:#ffffff;stroke-width:1.06319654"
             inkscape:connector-curvature="0"
             d="m 49.744,39.906 h -5.255 c -0.874,0 -1.507,0.71 -1.406,1.579 l 0.429,3.665 c 0.101,0.869 0.9,1.579 1.774,1.579 h 4.458 c 0.875,0 1.59,-0.715 1.59,-1.59 v -3.644 c 0,-0.874 -0.715,-1.589 -1.59,-1.589 z"
             id="path9792" />
          <path
             style="fill:#ffffff;stroke-width:1.06319654"
             inkscape:connector-curvature="0"
             d="m 90.506,39.906 h -5.254 c -0.875,0 -1.59,0.715 -1.59,1.59 v 3.644 c 0,0.875 0.715,1.59 1.59,1.59 h 4.458 c 0.875,0 1.674,-0.71 1.774,-1.579 l 0.428,-3.665 c 0.101,-0.87 -0.531,-1.58 -1.406,-1.58 z"
             id="path9794" />
          <path
             style="fill:#ffffff;stroke-width:1.06319654"
             inkscape:connector-curvature="0"
             d="m 89.769,16.921 c 0.164,0.405 0.656,0.737 1.093,0.737 h 1.612 c 0.438,0 0.836,-0.355 0.887,-0.79 l 0.274,-2.345 c 0.051,-0.435 -0.266,-0.79 -0.703,-0.79 h -3.66 c -0.437,0 -0.66,0.332 -0.496,0.737 z"
             id="path9796" />
          <path
             style="fill:#ffffff;stroke-width:1.06319654"
             inkscape:connector-curvature="0"
             d="M 93.325,28.035 85.276,7.136 C 84.962,6.321 83.989,5.653 83.114,5.653 H 51.887 c -0.875,0 -1.848,0.668 -2.162,1.483 l -8.053,20.899 c -0.314,0.816 -0.489,2.195 -0.388,3.063 l 0.727,6.233 c 0.101,0.869 0.9,1.58 1.774,1.58 h 47.426 c 0.875,0 1.674,-0.711 1.774,-1.58 l 0.728,-6.233 c 0.1,-0.868 -0.073,-2.246 -0.388,-3.063 z M 48.644,16.42 l 0.92,-2.521 c 0.607,0.779 1.552,1.282 2.618,1.282 1.834,0 3.321,-1.485 3.321,-3.32 0,-1.834 -1.487,-3.322 -3.321,-3.322 -0.09,0 -0.178,0.007 -0.267,0.014 0.407,-0.312 0.903,-0.515 1.379,-0.515 h 28.411 c 0.875,0 1.836,0.672 2.136,1.494 l 2.513,6.889 c 0.3,0.822 -0.17,1.494 -1.045,1.494 L 57.86,17.914 57.09,16.113 c -0.344,-0.805 -1.285,-1.186 -2.092,-0.848 l -5.943,2.494 c -0.441,-0.242 -0.626,-0.75 -0.411,-1.339 z m 1.247,16.995 c 0,0.558 -0.456,1.015 -1.016,1.015 h -3.266 c -0.559,0 -1.016,-0.457 -1.016,-1.015 v -1.276 c 0,-0.558 0.457,-1.015 1.016,-1.015 h 3.266 c 0.56,0 1.016,0.457 1.016,1.015 z m 40.51,0 c 0,0.558 -0.456,1.015 -1.016,1.015 H 86.12 c -0.559,0 -1.017,-0.457 -1.017,-1.015 v -1.276 c 0,-0.558 0.458,-1.015 1.017,-1.015 h 3.265 c 0.56,0 1.016,0.457 1.016,1.015 z"
             id="path9798" />
          <path
             style="fill:#ffffff;stroke-width:1.06319654"
             inkscape:connector-curvature="0"
             d="m 43.777,20.465 c 0.301,-0.82 0.38,-2.188 0.174,-3.037 L 42.098,9.777 C 41.892,8.927 41.018,8.113 40.156,7.968 L 30.518,6.349 c -0.862,-0.145 -1.684,0.443 -1.825,1.306 0,0 -1.275,7.774 -1.275,12.798 0,0.243 0.003,0.503 0.009,0.77 0.676,0.427 1.251,1.007 1.582,1.658 l 6.335,12.504 3.993,-1.198 c 0.838,-0.252 1.438,-1.167 1.334,-2.036 l -0.102,-0.849 c -0.104,-0.869 0.057,-2.251 0.358,-3.071 z m -3.318,-1.786 -9.335,0.048 c -0.875,0.006 -1.505,-0.702 -1.401,-1.57 L 30.591,9.899 C 30.695,9.03 31.485,8.441 32.347,8.59 l 6.539,1.13 c 0.862,0.148 1.696,0.975 1.854,1.834 l 1.022,5.553 c 0.158,0.86 -0.429,1.567 -1.303,1.572 z"
             id="path9800" />
        </g>
        <g
           style="fill:#ffffff;stroke-width:1.06319654"
           id="g9806">
          <circle
             style="fill:#ffffff;stroke-width:1.06319654"
             cx="20.204"
             cy="15.279"
             r="4.6719999"
             id="circle9804" />
        </g>
        <g
           style="fill:#ffffff;stroke-width:1.06319654"
           id="g9810">
          <path
             style="fill:#ffffff;stroke-width:1.06319654"
             inkscape:connector-curvature="0"
             d="m 18.565,52.473 c 0,0.562 0.459,1.022 1.022,1.022 h 1.233 c 0.562,0 1.022,-0.46 1.022,-1.022 v -5.306 c 0,-0.562 -0.46,-1.022 -1.022,-1.022 h -1.233 c -0.562,0 -1.022,0.46 -1.022,1.022 z"
             id="path9808" />
        </g>
        <g
           style="fill:#ffffff;stroke-width:1.06319654"
           id="g9814">
          <path
             style="fill:#ffffff;stroke-width:1.06319654"
             inkscape:connector-curvature="0"
             d="m 18.806,81.106 c 0,0.562 0.46,1.022 1.022,1.022 h 0.752 c 0.562,0 1.022,-0.46 1.022,-1.022 V 56.961 c 0,-0.562 -0.46,-1.022 -1.022,-1.022 h -0.752 c -0.562,0 -1.022,0.46 -1.022,1.022 z"
             id="path9812" />
        </g>
        <g
           style="fill:#ffffff;stroke-width:1.06319654"
           id="g9818">
          <path
             style="fill:#ffffff;stroke-width:1.06319654"
             inkscape:connector-curvature="0"
             d="m 23.225,70.057 c -0.565,0 -1.022,-0.457 -1.022,-1.022 V 55.539 c 0,-0.563 -0.458,-1.022 -1.022,-1.022 h -1.952 c -0.563,0 -1.022,0.459 -1.022,1.022 v 13.495 c 0,0.565 -0.458,1.022 -1.022,1.022 -0.564,0 -1.022,-0.457 -1.022,-1.022 V 55.539 c 0,-1.69 1.375,-3.066 3.066,-3.066 h 1.952 c 1.69,0 3.066,1.376 3.066,3.066 v 13.495 c 0,0.566 -0.458,1.023 -1.022,1.023 z"
             id="path9816" />
        </g>
        <g
           style="fill:#ffffff;stroke-width:1.06319654"
           id="g9824">
          <path
             style="fill:#ffffff;stroke-width:1.06319654"
             inkscape:connector-curvature="0"
             d="m 9.611,39.757 -0.48,0.982 c -0.151,0.309 -0.356,0.573 -0.595,0.798 0.895,0.355 1.992,0.764 3.203,1.156 0.327,-0.561 0.595,-1.28 0.716,-1.923 -1.054,-0.339 -2.024,-0.694 -2.844,-1.013 z"
             id="path9820" />
          <path
             style="fill:#ffffff;stroke-width:1.06319654"
             inkscape:connector-curvature="0"
             d="m 31.166,40.727 -0.447,-0.934 c -0.812,0.315 -1.767,0.663 -2.801,0.996 0.089,0.623 0.333,1.352 0.646,1.944 1.219,-0.392 2.326,-0.802 3.233,-1.163 -0.256,-0.232 -0.473,-0.514 -0.631,-0.843 z"
             id="path9822" />
        </g>
        <g
           style="fill:#ffffff;stroke-width:1.06319654"
           id="g9828">
          <path
             style="fill:#ffffff;stroke-width:1.06319654"
             inkscape:connector-curvature="0"
             d="M 8.436,40.398 C 7.942,41.409 6.734,41.789 5.751,41.242 L 5.538,41.124 C 4.555,40.578 4.171,39.312 4.684,38.313 l 7.685,-14.972 c 0.513,-1 1.853,-1.818 2.978,-1.818 h 9.713 c 1.124,0 2.459,0.82 2.968,1.823 l 7.58,14.961 c 0.508,1.003 0.12,2.271 -0.863,2.816 l -0.213,0.118 c -0.983,0.547 -2.184,0.164 -2.669,-0.851 l -3.877,-8.1 c -0.485,-1.015 -0.882,-0.924 -0.882,0.2 v 7.832 c 0,1.124 0.595,2.745 1.322,3.603 0,0 1.455,1.716 1.455,4.021 0,4.277 0,14.297 0,14.297 0,1.124 -0.919,2.044 -2.044,2.044 h -0.81 c -1.124,0 -2.044,-0.92 -2.044,-2.044 0,0 0,-11.23 0,-12.279 0,-1.048 -0.018,-4.916 -4.781,-4.916 -4.761,0 -4.778,3.771 -4.778,4.916 0,1.148 0,21.401 0,21.401 0,1.124 -0.92,2.044 -2.044,2.044 h -0.811 c -1.125,0 -2.044,-0.92 -2.044,-2.044 0,0 0,-20.209 0,-23.419 0,-2.528 1.455,-4.242 1.455,-4.242 0.728,-0.856 1.323,-2.478 1.323,-3.602 V 32.49 c 0,-1.124 -0.404,-1.218 -0.898,-0.208 z"
             id="path9826" />
        </g>
      </g>
    </g>
  </g>
</svg>
