<?xml version="1.0" encoding="UTF-8"?>
<!-- Created with Inkscape (http://www.inkscape.org/) -->
<svg id="svg1933" width="116.63" height="116.63" version="1.1" viewBox="0 0 30.858 30.858" xmlns="http://www.w3.org/2000/svg" xmlns:cc="http://creativecommons.org/ns#" xmlns:dc="http://purl.org/dc/elements/1.1/" xmlns:rdf="http://www.w3.org/1999/02/22-rdf-syntax-ns#" xmlns:serif="http://www.serif.com/">
 <defs id="defs1927">
  <style id="style10671">.cls-1{fill:#000000;}</style>
 </defs>
 <metadata id="metadata1930">
  <rdf:RDF>
   <cc:Work rdf:about="">
    <dc:format>image/svg+xml</dc:format>
    <dc:type rdf:resource="http://purl.org/dc/dcmitype/StillImage"/>
    <dc:title/>
   </cc:Work>
  </rdf:RDF>
 </metadata>
 <g id="layer1" transform="translate(0 -266.14)">
  <circle id="path853-5" cx="15.429" cy="281.57" r="15.429" fill="#266334"/>
  <circle id="path853" cx="15.429" cy="281.57" r="0" fill="#031d44"/>
 </g>
 <g id="layer2">
  <g id="g31135" transform="matrix(.059962 0 0 .059962 5.7493 5.8742)" clip-rule="evenodd" fill-rule="evenodd" stroke-linejoin="round" stroke-miterlimit="2" stroke-width="4.4125">
   <rect id="rect31121" x="2.083" width="416.67" height="416.67" fill="none" serif:id="Pagina 2"/>
   <path id="path31123" d="m251.98 68.275v-71.759c0-5.3081-4.3023-9.6115-9.6115-9.6115h-161.61c-5.3081 0-9.6115 4.3034-9.6115 9.6115v71.759h-71.758c-5.3092 0-9.6126 4.3023-9.6126 9.6115v161.61c0 5.308 4.3034 9.6115 9.6126 9.6115h71.758v71.758c0 5.3092 4.3034 9.6126 9.6115 9.6126h161.61c5.3092 0 9.6115-4.3034 9.6115-9.6126v-71.758h71.759c5.3081 0 9.6115-4.3034 9.6115-9.6115v-161.61c0-5.3092-4.3034-9.6115-9.6115-9.6115zm-19.223 9.6115c0 5.3081 4.3034 9.6115 9.6115 9.6115h71.758v142.39h-71.758c-5.308 0-9.6115 4.3034-9.6115 9.6126v71.758h-142.39v-71.758c0-5.3092-4.3034-9.6126-9.6126-9.6126h-71.758v-142.39h71.758c5.3092 0 9.6126-4.3034 9.6126-9.6115v-71.758h142.39v71.758zm-200.78 92.339h49.272c2.8386 0 5.5307-1.2538 7.3565-3.4257l9.0475-10.758 21.203 39.245c1.9032 3.5237 5.7925 5.4984 9.7603 4.9551 3.9678-0.54327 7.1835-3.4903 8.0694-7.3969l17.292-76.214 13.031 146.76c0.41062 4.6229 4.0647 8.292 8.6853 8.721 4.6206 0.42908 8.8883-2.5041 10.143-6.9724l30.364-108.13 11.094 10.563c1.7878 1.7013 4.1604 2.6506 6.6287 2.6506h57.217c5.3058 0 9.6126-4.3069 9.6126-9.6115 0-5.3046-4.3069-9.6115-9.6126-9.6115h-53.372l-19.875-18.925c-2.4418-2.3242-5.9228-3.1996-9.1743-2.3068-3.2504 0.89275-5.796 3.4234-6.7083 6.6703l-20.494 72.984-13.803-155.43c-0.41754-4.714-4.2054-8.4211-8.9275-8.7395-4.7221-0.31834-8.9725 2.8478-10.02 7.4638l-25.164 110.92-15.755-29.161c-1.5121-2.7994-4.3126-4.6691-7.4776-4.9932-3.1662-0.32296-6.2873 0.94119-8.3346 3.3761l-15.262 18.15h-44.797c-5.3046 0-9.6115 4.3069-9.6115 9.6115 0 5.3046 4.3069 9.6115 9.6115 9.6115z" fill="#fff"/>
  </g>
 </g>
</svg>
