<?xml version="1.0" encoding="UTF-8"?>
<!-- Created with Inkscape (http://www.inkscape.org/) -->
<svg id="svg1933" width="116.63" height="116.63" version="1.1" viewBox="0 0 30.858 30.858" xmlns="http://www.w3.org/2000/svg" xmlns:cc="http://creativecommons.org/ns#" xmlns:dc="http://purl.org/dc/elements/1.1/" xmlns:rdf="http://www.w3.org/1999/02/22-rdf-syntax-ns#">
 <defs id="defs1927">
  <style id="style10671">.cls-1{fill:#000000;}</style>
  <style id="style10671-0">.cls-1{fill:#000000;}</style>
  <style id="style10671-05">.cls-1{fill:#000000;}</style>
  <style id="style10671-1">.cls-1{fill:#000000;}</style>
 </defs>
 <metadata id="metadata1930">
  <rdf:RDF>
   <cc:Work rdf:about="">
    <dc:format>image/svg+xml</dc:format>
    <dc:type rdf:resource="http://purl.org/dc/dcmitype/StillImage"/>
    <dc:title/>
   </cc:Work>
  </rdf:RDF>
 </metadata>
 <g id="layer1" transform="translate(0 -266.14)">
  <circle id="path853-5" cx="15.429" cy="281.57" r="15.429" fill="#266334"/>
  <circle id="path853" cx="15.429" cy="281.57" r="0" fill="#031d44"/>
 </g>
 <g id="layer2">
  <g id="g82968" transform="matrix(.69747 0 0 .69747 4.2488 3.2305)" fill="#fff" stroke-width=".37935" data-name="Layer 4">
   <path id="path82958" d="m28.54 15-1.66 1.66a1.47 1.47 0 0 1-1.2 0.45 1.58 1.58 0 0 1-1-0.45l-8.68-8.66-8.67 8.65a1.63 1.63 0 0 1-1.08 0.46 1.56 1.56 0 0 1-1.14-0.46l-1.65-1.65a1.55 1.55 0 0 1 0-2.21l11.44-11.44a1.55 1.55 0 0 1 2.21 0l11.43 11.43a1.55 1.55 0 0 1 0 2.22z"/>
   <path id="path82960" d="m28.54 12.78-11.44-11.43a1.55 1.55 0 0 0-2.21 0l-11.43 11.43a1.55 1.55 0 0 0 0 2.21l1.65 1.66a1.56 1.56 0 0 0 1.14 0.46 1.63 1.63 0 0 0 1.08-0.46l8.67-8.65 8.67 8.68a1.58 1.58 0 0 0 1 0.45 1.47 1.47 0 0 0 1.2-0.45l1.67-1.68a1.55 1.55 0 0 0 0-2.22zm-0.79 1.43-1.65 1.65a0.44 0.44 0 0 1-0.64 0l-9.46-9.47-9.46 9.47a0.44 0.44 0 0 1-0.64 0l-1.65-1.65a0.44 0.44 0 0 1 0-0.64l11.44-11.43a0.43 0.43 0 0 1 0.62 0l11.44 11.43a0.44 0.44 0 0 1 0 0.64z"/>
   <path id="path82962" d="m28.54 15-1.66 1.66a1.47 1.47 0 0 1-1.2 0.45 1.58 1.58 0 0 1-1-0.45l-8.68-8.66-8.67 8.65a1.63 1.63 0 0 1-1.08 0.46 1.56 1.56 0 0 1-1.14-0.46l-1.65-1.65a1.55 1.55 0 0 1 0-2.21l11.44-11.44a1.55 1.55 0 0 1 2.21 0l11.43 11.43a1.55 1.55 0 0 1 0 2.22z"/>
   <path id="path82964" d="m25.74 18.22a2.72 2.72 0 0 1-1.85-0.78l-7.89-7.89-7.89 7.89a2.7 2.7 0 0 1-1.86 0.78v10.15a2.74 2.74 0 0 0 2.75 2.74h14.31a2.24 2.24 0 0 0 2.44-2.43zm-3 2.49a0.65 0.65 0 0 1-0.66 0.66h-0.64a5.55 5.55 0 0 1-0.82 2l0.45 0.45a0.67 0.67 0 0 1 0 0.94l-0.59 0.58a0.65 0.65 0 0 1-0.94 0l-0.45-0.45a5.6 5.6 0 0 1-2 0.84v0.64a0.67 0.67 0 0 1-0.67 0.66h-0.82a0.67 0.67 0 0 1-0.67-0.66v-0.64a5.6 5.6 0 0 1-2-0.84l-0.45 0.45a0.65 0.65 0 0 1-0.94 0l-0.59-0.58a0.67 0.67 0 0 1 0-0.94l0.45-0.45a5.55 5.55 0 0 1-0.82-2h-0.65a0.65 0.65 0 0 1-0.66-0.66v-0.82a0.66 0.66 0 0 1 0.66-0.67h0.64a5.42 5.42 0 0 1 0.82-2l-0.45-0.45a0.68 0.68 0 0 1 0-0.95l0.59-0.58a0.67 0.67 0 0 1 0.94 0l0.45 0.45a5.6 5.6 0 0 1 2-0.84v-0.62a0.67 0.67 0 0 1 0.67-0.67h0.82a0.67 0.67 0 0 1 0.67 0.67v0.62a5.6 5.6 0 0 1 2 0.84l0.45-0.45a0.67 0.67 0 0 1 0.94 0l0.59 0.58a0.68 0.68 0 0 1 0 0.95l-0.45 0.45a5.42 5.42 0 0 1 0.82 2h0.64a0.66 0.66 0 0 1 0.66 0.67zm-6.74-12.71 8.67 8.68a1.58 1.58 0 0 0 1 0.45l-9.75-9.41-9.67 9.17v0.21a1.63 1.63 0 0 0 1.08-0.46z"/>
   <circle id="circle82966" cx="16" cy="20.29" r="3.19"/>
  </g>
 </g>
</svg>
