<?xml version="1.0" encoding="UTF-8"?>
<!-- Created with Inkscape (http://www.inkscape.org/) -->
<svg id="svg1933" width="116.63" height="116.63" version="1.1" viewBox="0 0 30.858 30.858" xmlns="http://www.w3.org/2000/svg" xmlns:cc="http://creativecommons.org/ns#" xmlns:dc="http://purl.org/dc/elements/1.1/" xmlns:rdf="http://www.w3.org/1999/02/22-rdf-syntax-ns#">
 <defs id="defs1927">
  <style id="style10671">.cls-1{fill:#000000;}</style>
 </defs>
 <metadata id="metadata1930">
  <rdf:RDF>
   <cc:Work rdf:about="">
    <dc:format>image/svg+xml</dc:format>
    <dc:type rdf:resource="http://purl.org/dc/dcmitype/StillImage"/>
    <dc:title/>
   </cc:Work>
  </rdf:RDF>
 </metadata>
 <g id="layer1" transform="translate(0 -266.14)">
  <circle id="path853-5" cx="15.429" cy="281.57" r="15.429" fill="#266334"/>
  <circle id="path853" cx="15.429" cy="281.57" r="0" fill="#031d44"/>
 </g>
 <g id="layer2">
  <g id="g13814" transform="matrix(.22308 0 0 .22308 4.7656 4.0757)" fill="#fff" stroke-width="1.1861">
   <path id="path13766" d="m4 18h8c1.1 0 2-0.9 2-2s-0.9-2-2-2h-8c-1.1 0-2 0.9-2 2s0.9 2 2 2z"/>
   <path id="path13768" d="m4 26h8c1.1 0 2-0.9 2-2s-0.9-2-2-2h-8c-1.1 0-2 0.9-2 2s0.9 2 2 2z"/>
   <path id="path13770" d="m4 34h8c1.1 0 2-0.9 2-2s-0.9-2-2-2h-8c-1.1 0-2 0.9-2 2s0.9 2 2 2z"/>
   <path id="path13772" d="m4 42h8c1.1 0 2-0.9 2-2s-0.9-2-2-2h-8c-1.1 0-2 0.9-2 2s0.9 2 2 2z"/>
   <path id="path13774" d="m4 50h8c1.1 0 2-0.9 2-2s-0.9-2-2-2h-8c-1.1 0-2 0.9-2 2s0.9 2 2 2z"/>
   <path id="path13776" d="m4 58h8c1.1 0 2-0.9 2-2s-0.9-2-2-2h-8c-1.1 0-2 0.9-2 2s0.9 2 2 2z"/>
   <path id="path13778" d="m14 64c0-1.1-0.9-2-2-2h-8c-1.1 0-2 0.9-2 2s0.9 2 2 2h8c1.1 0 2-0.9 2-2z"/>
   <g id="g13784">
    <path id="path13780" d="m31 72.3-2.1-1.5c-0.5-0.4-0.9-1-0.9-1.6v-51.2h-2v51.1c0 0.7-0.3 1.3-0.9 1.6l-2.1 1.6c-1.9 1.3-3 3.5-3 5.7 0 3.9 3.1 7 7 7s7-3.1 7-7c0-2.3-1.1-4.4-3-5.7z"/>
    <path id="path13782" d="m28 12c0-0.6-0.4-1-1-1s-1 0.4-1 1v2h2z"/>
   </g>
   <path id="path13786" d="m37 65.5v-53.5c0-5.5-4.5-10-10-10s-10 4.5-10 10v53.5c-3.8 3-6 7.6-6 12.5 0 8.8 7.2 16 16 16s16-7.2 16-16c0-4.9-2.2-9.5-6-12.5zm-10 23.5c-6.1 0-11-4.9-11-11 0-3.6 1.8-7 4.7-9l1.3-0.9v-56.1c0-2.8 2.2-5 5-5s5 2.2 5 5v56.1l1.3 0.9c3 2.1 4.7 5.4 4.7 9 0 6.1-4.9 11-11 11z"/>
   <circle id="circle13788" cx="66" cy="30" r="13"/>
   <path id="path13790" d="m66 14c1.1 0 2-0.9 2-2v-8c0-1.1-0.9-2-2-2s-2 0.9-2 2v8c0 1.1 0.9 2 2 2z"/>
   <path id="path13792" d="m66 46c-1.1 0-2 0.9-2 2v8c0 1.1 0.9 2 2 2s2-0.9 2-2v-8c0-1.1-0.9-2-2-2z"/>
   <path id="path13794" d="m78.7 19.3c0.5 0 1-0.2 1.4-0.6l5.7-5.7c0.8-0.8 0.8-2 0-2.8s-2-0.8-2.8 0l-5.7 5.7c-0.8 0.8-0.8 2 0 2.8 0.4 0.4 0.9 0.6 1.4 0.6z"/>
   <path id="path13796" d="m51.9 41.3-5.7 5.7c-0.8 0.8-0.8 2 0 2.8 0.4 0.4 0.9 0.6 1.4 0.6s1-0.2 1.4-0.6l5.7-5.7c0.8-0.8 0.8-2 0-2.8s-2.1-0.8-2.8 0z"/>
   <path id="path13798" d="m84.4 50.4c0.5 0 1-0.2 1.4-0.6 0.8-0.8 0.8-2 0-2.8l-5.7-5.7c-0.8-0.8-2-0.8-2.8 0s-0.8 2 0 2.8l5.7 5.7c0.4 0.4 0.9 0.6 1.4 0.6z"/>
   <path id="path13800" d="m51.9 18.7c0.4 0.4 0.9 0.6 1.4 0.6s1-0.2 1.4-0.6c0.8-0.8 0.8-2 0-2.8l-5.7-5.7c-0.8-0.8-2-0.8-2.8 0s-0.8 2 0 2.8z"/>
   <path id="path13802" d="m92 28h-8c-1.1 0-2 0.9-2 2s0.9 2 2 2h8c1.1 0 2-0.9 2-2s-0.9-2-2-2z"/>
   <path id="path13804" d="m40 32h8c1.1 0 2-0.9 2-2s-0.9-2-2-2h-8c-1.1 0-2 0.9-2 2s0.9 2 2 2z"/>
   <path id="path13806" d="m53.8 68c0-1.7-0.8-2.7-1.3-3.3-0.4-0.4-0.4-0.5-0.4-0.7 0-1.1-0.9-2-2-2s-2 0.9-2 2c0 1.7 0.8 2.7 1.3 3.3 0.4 0.4 0.4 0.5 0.4 0.7s0 0.3-0.4 0.7c-0.5 0.6-1.3 1.6-1.3 3.3s0.8 2.7 1.3 3.3c0.4 0.4 0.4 0.5 0.4 0.7 0 0.3 0 0.3-0.4 0.7-0.5 0.6-1.3 1.6-1.3 3.3s0.8 2.7 1.3 3.3c0.4 0.4 0.4 0.5 0.4 0.7 0 0.3 0 0.3-0.4 0.7-0.5 0.6-1.3 1.6-1.3 3.3s0.8 2.7 1.3 3.3c0.4 0.4 0.4 0.5 0.4 0.7 0 1.1 0.9 2 2 2s2-0.9 2-2c0-1.7-0.8-2.7-1.3-3.3-0.4-0.4-0.4-0.5-0.4-0.7s0-0.3 0.4-0.7c0.5-0.6 1.3-1.6 1.3-3.3s-0.8-2.7-1.3-3.3c-0.4-0.4-0.4-0.5-0.4-0.7s0-0.3 0.4-0.7c0.5-0.6 1.3-1.6 1.3-3.3s-0.8-2.7-1.3-3.3c-0.4-0.4-0.4-0.5-0.4-0.7s0-0.3 0.4-0.7c0.5-0.6 1.3-1.6 1.3-3.3z"/>
   <path id="path13808" d="m64.8 68c0-1.7-0.8-2.7-1.3-3.3-0.4-0.4-0.4-0.5-0.4-0.7 0-1.1-0.9-2-2-2s-2 0.9-2 2c0 1.7 0.8 2.7 1.3 3.3 0.4 0.4 0.4 0.5 0.4 0.7s0 0.3-0.4 0.7c-0.5 0.6-1.3 1.6-1.3 3.3s0.8 2.7 1.3 3.3c0.4 0.4 0.4 0.5 0.4 0.7 0 0.3 0 0.3-0.4 0.7-0.5 0.6-1.3 1.6-1.3 3.3s0.8 2.7 1.3 3.3c0.4 0.4 0.4 0.5 0.4 0.7 0 0.3 0 0.3-0.4 0.7-0.5 0.6-1.3 1.6-1.3 3.3s0.8 2.7 1.3 3.3c0.4 0.4 0.4 0.5 0.4 0.7 0 1.1 0.9 2 2 2s2-0.9 2-2c0-1.7-0.8-2.7-1.3-3.3-0.4-0.4-0.4-0.5-0.4-0.7s0-0.3 0.4-0.7c0.5-0.6 1.3-1.6 1.3-3.3s-0.8-2.7-1.3-3.3c-0.4-0.4-0.4-0.5-0.4-0.7s0-0.3 0.4-0.7c0.5-0.6 1.3-1.6 1.3-3.3s-0.8-2.7-1.3-3.3c-0.4-0.4-0.4-0.5-0.4-0.7s0-0.3 0.4-0.7c0.5-0.6 1.3-1.6 1.3-3.3z"/>
   <path id="path13810" d="m75.8 68c0-1.7-0.8-2.7-1.3-3.3-0.4-0.4-0.4-0.5-0.4-0.7 0-1.1-0.9-2-2-2s-2 0.9-2 2c0 1.7 0.8 2.7 1.3 3.3 0.4 0.4 0.4 0.5 0.4 0.7s0 0.3-0.4 0.7c-0.5 0.6-1.3 1.6-1.3 3.3s0.8 2.7 1.3 3.3c0.4 0.4 0.4 0.5 0.4 0.7 0 0.3 0 0.3-0.4 0.7-0.5 0.6-1.3 1.6-1.3 3.3s0.8 2.7 1.3 3.3c0.4 0.4 0.4 0.5 0.4 0.7 0 0.3 0 0.3-0.4 0.7-0.5 0.6-1.3 1.6-1.3 3.3s0.8 2.7 1.3 3.3c0.4 0.4 0.4 0.5 0.4 0.7 0 1.1 0.9 2 2 2s2-0.9 2-2c0-1.7-0.8-2.7-1.3-3.3-0.4-0.4-0.4-0.5-0.4-0.7s0-0.3 0.4-0.7c0.5-0.6 1.3-1.6 1.3-3.3s-0.8-2.7-1.3-3.3c-0.4-0.4-0.4-0.5-0.4-0.7s0-0.3 0.4-0.7c0.5-0.6 1.3-1.6 1.3-3.3s-0.8-2.7-1.3-3.3c-0.4-0.4-0.4-0.5-0.4-0.7s0-0.3 0.4-0.7c0.5-0.6 1.3-1.6 1.3-3.3z"/>
   <path id="path13812" d="m86.8 68c0-1.7-0.8-2.7-1.3-3.3-0.4-0.4-0.4-0.5-0.4-0.7 0-1.1-0.9-2-2-2s-2 0.9-2 2c0 1.7 0.8 2.7 1.3 3.3 0.4 0.4 0.4 0.5 0.4 0.7s0 0.3-0.4 0.7c-0.5 0.6-1.3 1.6-1.3 3.3s0.8 2.7 1.3 3.3c0.4 0.4 0.4 0.5 0.4 0.7 0 0.3 0 0.3-0.4 0.7-0.5 0.6-1.3 1.6-1.3 3.3s0.8 2.7 1.3 3.3c0.4 0.4 0.4 0.5 0.4 0.7 0 0.3 0 0.3-0.4 0.7-0.5 0.6-1.3 1.6-1.3 3.3s0.8 2.7 1.3 3.3c0.4 0.4 0.4 0.5 0.4 0.7 0 1.1 0.9 2 2 2s2-0.9 2-2c0-1.7-0.8-2.7-1.3-3.3-0.4-0.4-0.4-0.5-0.4-0.7s0-0.3 0.4-0.7c0.5-0.6 1.3-1.6 1.3-3.3s-0.8-2.7-1.3-3.3c-0.4-0.4-0.4-0.5-0.4-0.7s0-0.3 0.4-0.7c0.5-0.6 1.3-1.6 1.3-3.3s-0.8-2.7-1.3-3.3c-0.4-0.4-0.4-0.5-0.4-0.7s0-0.3 0.4-0.7c0.5-0.6 1.3-1.6 1.3-3.3z"/>
  </g>
 </g>
</svg>
