<?xml version="1.0" encoding="UTF-8"?>
<!-- Created with Inkscape (http://www.inkscape.org/) -->
<svg id="svg1933" width="116.63" height="116.63" version="1.1" viewBox="0 0 30.858 30.858" xmlns="http://www.w3.org/2000/svg" xmlns:cc="http://creativecommons.org/ns#" xmlns:dc="http://purl.org/dc/elements/1.1/" xmlns:rdf="http://www.w3.org/1999/02/22-rdf-syntax-ns#">
 <defs id="defs1927">
  <style id="style10671">.cls-1{fill:#000000;}</style>
 </defs>
 <metadata id="metadata1930">
  <rdf:RDF>
   <cc:Work rdf:about="">
    <dc:format>image/svg+xml</dc:format>
    <dc:type rdf:resource="http://purl.org/dc/dcmitype/StillImage"/>
    <dc:title/>
   </cc:Work>
  </rdf:RDF>
 </metadata>
 <g id="layer1" transform="translate(0 -266.14)">
  <circle id="path853-5" cx="15.429" cy="281.57" r="15.429" fill="#266334"/>
  <circle id="path853" cx="15.429" cy="281.57" r="0" fill="#031d44"/>
 </g>
 <g id="layer2">
  <g id="g24800" transform="matrix(.040541 0 0 .040541 5.3862 4.7491)" fill="#fff" stroke-width="6.5262">
   <path id="path24784" d="m496 288v-16c0-8.822-7.178-16-16-16h-48.938l-2-16h26.938c13.234 0 24-10.766 24-24v-64c0-13.234-10.766-24-24-24h-112c-13.234 0-24 10.766-24 24v44.305c-4.711-2.732-10.173-4.305-16-4.305h-112c-17.645 0-32 14.355-32 32v32h-48v-17.389c8.125-2.884 14.259-10.014 15.685-18.719 9.941-5.593 16.315-16.209 16.315-27.892 0-12.801-7.415-24.063-18.826-29.174-5.111-11.411-16.373-18.826-29.174-18.826-5.665 0-11.17 1.495-16 4.287-4.83-2.792-10.336-4.287-16-4.287-12.801 0-24.063 7.415-29.174 18.826-11.411 5.112-18.826 16.373-18.826 29.174 0 11.683 6.374 22.299 16.315 27.893 1.426 8.705 7.559 15.834 15.685 18.718v17.389h-32c-8.822 0-16 7.178-16 16v16c0 8.822 7.178 16 16 16h44.578l-59.278 163.02c-0.862 2.374-1.3 4.857-1.3 7.381 0 11.912 9.691 21.603 21.604 21.603h8.592c9.313 0 17.55-5.937 20.495-14.772l59.075-177.23h50.234v16c0 7.203 2.394 13.857 6.426 19.211-3.892 2.921-6.426 7.559-6.426 12.789v16c0 8.822 7.178 16 16 16h48v48h-48c-8.822 0-16 7.178-16 16v32c0 8.822 7.178 16 16 16h16c8.822 0 16-7.178 16-16v-32h16v32c0 8.822 7.178 16 16 16h16c8.822 0 16-7.178 16-16v-32h16v32c0 8.822 7.178 16 16 16h16c8.822 0 16-7.178 16-16v-32c0-8.822-7.178-16-16-16h-48v-48h48c8.822 0 16-7.178 16-16v-16c0-5.23-2.534-9.868-6.426-12.789 4.032-5.354 6.426-12.008 6.426-19.211v-16h50.234l59.076 177.23c2.945 8.835 11.181 14.772 20.495 14.772h8.592c11.912 0 21.604-9.691 21.604-21.604 0-2.524-0.438-5.007-1.3-7.383l-59.279-163.01h44.578c8.822 0 16-7.178 16-16zm-304 192h-16v-32h16zm120-32h8v32h-16v-32zm24-209.38c2.504 0.888 5.196 1.376 8 1.376h26.938l-2 16h-32.938zm0-86.624c0-4.411 3.589-8 8-8h112c4.411 0 8 3.589 8 8v64c0 4.411-3.589 8-8 8h-28.938l-2.248-17.984c-0.999-7.99-7.824-14.016-15.876-14.016h-17.875c-8.052 0-14.878 6.025-15.876 14.016l-2.249 17.984h-28.938c-4.411 0-8-3.589-8-8zm78.938 104h-29.876l6-48h17.875zm-238.94-32c0-8.822 7.178-16 16-16h112c8.822 0 16 7.178 16 16v32h-144zm-144-32c0-6.991 4.668-13.288 11.351-15.313l4.096-1.241 1.241-4.096c2.024-6.682 8.321-11.35 15.312-11.35 3.94 0 7.728 1.448 10.664 4.077l5.336 4.777 5.336-4.778c2.936-2.628 6.724-4.076 10.664-4.076 6.991 0 13.288 4.668 15.313 11.351l1.241 4.096 4.096 1.241c6.682 2.024 11.35 8.321 11.35 15.312 0 6.789-4.305 12.858-10.712 15.101l-5.849 2.048 0.521 6.175c0.019 0.224 0.04 0.448 0.04 0.676 0 4.411-3.589 8-8 8h-48c-4.411 0-8-3.589-8-8 0-0.231 0.021-0.458 0.041-0.685l0.513-6.168-5.842-2.045c-6.407-2.244-10.712-8.313-10.712-15.102zm32 48h32v16h-32zm-48 32h464l0.01 16h-0.01-464zm19.511 204.17c-0.764 2.292-2.9 3.832-5.316 3.832h-8.592c-3.09 0-5.604-2.514-5.604-5.604 0-0.655 0.114-1.3 0.337-1.915l61.268-168.48h15.297zm220.49 3.832h-16v-32h16zm0-48h-16v-48h16zm64-64h-144v-16h144l0.01 16h-0.01zm0-48c0 8.822-7.178 16-16 16h-112c-8.822 0-16-7.178-16-16v-16h144zm159.66 152.48c0.224 0.617 0.338 1.262 0.338 1.917 0 3.09-2.514 5.604-5.604 5.604h-8.592c-2.416 0-4.552-1.54-5.316-3.832l-57.389-172.17h15.297z"/>
   <rect id="rect24786" y="80" width="112" height="16"/>
   <rect id="rect24788" x="128" y="80" width="16" height="16"/>
   <path id="path24790" d="m240 56c0-4.411 3.589-8 8-8s8 3.589 8 8c0 13.233-10.767 24-24 24h-72v16h72c22.056 0 40-17.944 40-40 0-13.233-10.767-24-24-24s-24 10.767-24 24v8h16z"/>
   <path id="path24792" d="m160 24c0-13.234-10.766-24-24-24s-24 10.766-24 24v8h16v-8c0-4.411 3.589-8 8-8s8 3.589 8 8c0 13.234-10.766 24-24 24h-120v16h120c22.056 0 40-17.944 40-40z"/>
   <path id="path24794" d="m192 144v8c0 13.234 10.766 24 24 24s24-10.766 24-24c0-22.056-17.944-40-40-40h-120v16h120c13.234 0 24 10.766 24 24 0 4.411-3.589 8-8 8s-8-3.589-8-8v-8z"/>
   <rect id="rect24796" x="48" y="112" width="16" height="16"/>
   <rect id="rect24798" y="112" width="32" height="16"/>
  </g>
 </g>
</svg>
