<?xml version="1.0" encoding="UTF-8"?>
<!-- Created with Inkscape (http://www.inkscape.org/) -->
<svg id="svg1933" width="116.63" height="116.63" version="1.1" viewBox="0 0 30.858 30.858" xmlns="http://www.w3.org/2000/svg" xmlns:cc="http://creativecommons.org/ns#" xmlns:dc="http://purl.org/dc/elements/1.1/" xmlns:rdf="http://www.w3.org/1999/02/22-rdf-syntax-ns#">
 <defs id="defs1927">
  <style id="style10671">.cls-1{fill:#000000;}</style>
 </defs>
 <metadata id="metadata1930">
  <rdf:RDF>
   <cc:Work rdf:about="">
    <dc:format>image/svg+xml</dc:format>
    <dc:type rdf:resource="http://purl.org/dc/dcmitype/StillImage"/>
    <dc:title/>
   </cc:Work>
  </rdf:RDF>
 </metadata>
 <g id="layer1" transform="translate(0 -266.14)">
  <circle id="path853-5" cx="15.429" cy="281.57" r="15.429" fill="#266334"/>
  <circle id="path853" cx="15.429" cy="281.57" r="0" fill="#031d44"/>
 </g>
 <g id="layer2">
  <g id="g43983" transform="matrix(.36237 0 0 .36237 3.8431 3.4106)" clip-rule="evenodd" fill="#fff" fill-rule="evenodd" stroke-linejoin="round" stroke-miterlimit="2" stroke-width=".73014">
   <path id="path43954" d="m32 31.332c-4.94 0-8.951 4.011-8.951 8.951s4.011 8.951 8.951 8.951 8.951-4.011 8.951-8.951-4.011-8.951-8.951-8.951zm0 1.5c4.112 0 7.451 3.339 7.451 7.451s-3.339 7.451-7.451 7.451-7.451-3.339-7.451-7.451 3.339-7.451 7.451-7.451z"/>
   <path id="path43956" d="m33.949 54.367v-2.397c0-1.076-0.874-1.949-1.949-1.949s-1.949 0.873-1.949 1.949v2.397c0 1.076 0.874 1.949 1.949 1.949s1.949-0.873 1.949-1.949zm9.388-5.503-1.695-1.695c-0.761-0.761-1.995-0.761-2.756 0-0.76 0.76-0.76 1.995 0 2.756l1.695 1.695c0.761 0.76 1.996 0.76 2.756 0 0.76-0.761 0.76-1.995 0-2.756zm-19.918 2.756 1.695-1.695c0.76-0.761 0.76-1.996 0-2.756-0.761-0.761-1.995-0.761-2.756 0l-1.695 1.695c-0.76 0.761-0.76 1.995 0 2.756 0.76 0.76 1.995 0.76 2.756 0zm-5.503-9.388h2.397c1.076 0 1.949-0.874 1.949-1.949 0-1.076-0.873-1.949-1.949-1.949h-2.397c-1.076 0-1.949 0.873-1.949 1.949 0 1.075 0.873 1.949 1.949 1.949zm28.168-3.898h-2.397c-1.076 0-1.949 0.873-1.949 1.949 0 1.075 0.873 1.949 1.949 1.949h2.397c1.076 0 1.949-0.874 1.949-1.949 0-1.076-0.873-1.949-1.949-1.949zm-5.503-9.388-1.695 1.695c-0.76 0.761-0.76 1.995 0 2.756 0.761 0.76 1.995 0.76 2.756 0l1.695-1.695c0.76-0.761 0.76-1.996 0-2.756-0.76-0.761-1.995-0.761-2.756 0zm-19.918 2.756 1.695 1.695c0.761 0.76 1.995 0.76 2.756 0 0.76-0.761 0.76-1.995 0-2.756l-1.695-1.695c-0.761-0.761-1.996-0.761-2.756 0-0.76 0.76-0.76 1.995 0 2.756zm9.388-5.503v2.397c0 1.075 0.874 1.949 1.949 1.949s1.949-0.874 1.949-1.949v-2.397c0-1.076-0.874-1.949-1.949-1.949s-1.949 0.873-1.949 1.949z"/>
   <path id="path43958" d="m32 31.332c-0.414 0-0.75 0.336-0.75 0.75v16.402c0 0.414 0.336 0.75 0.75 0.75 4.94 0 8.951-4.011 8.951-8.951s-4.011-8.951-8.951-8.951z"/>
   <path id="path43960" d="m58.137 21.535c0-0.256-0.13-0.493-0.345-0.631s-0.486-0.157-0.718-0.051c-0.483 0.221-1.012 0.339-1.554 0.339h-47.04c-0.542 0-1.071-0.118-1.554-0.339-0.232-0.106-0.503-0.087-0.718 0.051s-0.345 0.375-0.345 0.631v33.016c0 1.387 0.551 2.717 1.532 3.698s2.311 1.532 3.698 1.532h41.814c1.387 0 2.717-0.551 3.698-1.532s1.532-2.311 1.532-3.698v-33.016zm-1.5 1.037v31.979c0 0.989-0.393 1.938-1.093 2.638-0.699 0.699-1.648 1.092-2.637 1.092h-41.814c-0.989 0-1.938-0.393-2.637-1.092-0.7-0.7-1.093-1.649-1.093-2.638v-31.979c0.364 0.079 0.739 0.12 1.117 0.12h47.04c0.378 0 0.753-0.041 1.117-0.12z"/>
   <path id="path43962" d="m46.804 12.016c0.013 0.404 0.345 0.725 0.749 0.725h3.069c0.405 0 0.737-0.321 0.75-0.725 0.069-2.089-0.76-3.99-2.085-5.405-1.348-1.44-3.264-2.319-5.39-2.388h-1e-3c-2.162-0.068-4.129 0.793-5.591 2.168-1.485 1.397-2.386 3.381-2.45 5.578v1e-3c-0.061 2.23 0.828 4.261 2.257 5.757 1.446 1.513 3.492 2.428 5.747 2.469h0.014c1.65 0 2.99-1.339 2.99-2.99 0-1.65-1.34-2.99-2.99-2.99h-0.014c-0.626 0.012-1.205-0.21-1.624-0.611-0.438-0.418-0.757-0.982-0.775-1.635v-1e-3c-0.02-0.683 0.204-1.323 0.638-1.785 0.457-0.485 1.08-0.833 1.798-0.855h1e-3c0.754-0.025 1.459 0.224 1.97 0.703 0.536 0.502 0.911 1.192 0.937 1.984zm1.411-0.775c-0.192-0.904-0.675-1.697-1.323-2.304-0.791-0.741-1.876-1.146-3.043-1.107-1.132 0.035-2.124 0.562-2.843 1.326-0.698 0.742-1.078 1.76-1.046 2.856 0.03 1.064 0.525 1.996 1.238 2.677 0.694 0.663 1.644 1.043 2.677 1.027 0.821 2e-3 1.488 0.669 1.488 1.49 0 0.819-0.663 1.485-1.48 1.49-1.84-0.035-3.509-0.773-4.686-2.005-1.162-1.217-1.892-2.866-1.843-4.679 0.053-1.782 0.775-3.395 1.979-4.528 1.181-1.112 2.768-1.817 4.516-1.762 1.711 0.056 3.257 0.755 4.343 1.914 0.907 0.969 1.53 2.218 1.659 3.605z"/>
   <path id="path43964" d="m23.576 12.016c0.013 0.404 0.345 0.725 0.749 0.725h3.07c0.404 0 0.736-0.321 0.749-0.725 0.069-2.089-0.759-3.99-2.085-5.405-1.348-1.44-3.264-2.319-5.39-2.388h-1e-3c-2.162-0.068-4.129 0.793-5.591 2.168-1.485 1.397-2.386 3.381-2.45 5.578v1e-3c-0.061 2.23 0.828 4.261 2.257 5.757 1.446 1.513 3.492 2.428 5.747 2.469h0.014c1.65 0 2.99-1.339 2.99-2.99 0-1.65-1.34-2.99-2.99-2.99h-0.014c-0.626 0.012-1.205-0.21-1.624-0.611-0.438-0.418-0.757-0.982-0.775-1.635v-1e-3c-0.02-0.683 0.204-1.323 0.638-1.785 0.457-0.485 1.08-0.833 1.798-0.855h1e-3c0.754-0.025 1.459 0.224 1.97 0.703 0.536 0.502 0.911 1.192 0.937 1.984zm1.411-0.775c-0.192-0.904-0.675-1.697-1.323-2.304-0.791-0.741-1.876-1.146-3.043-1.107-1.132 0.035-2.124 0.562-2.843 1.326-0.698 0.742-1.078 1.76-1.046 2.856 0.03 1.064 0.525 1.996 1.238 2.677 0.694 0.663 1.644 1.043 2.677 1.027 0.821 2e-3 1.488 0.669 1.488 1.49 0 0.819-0.663 1.485-1.48 1.49-1.84-0.035-3.509-0.773-4.686-2.005-1.162-1.217-1.892-2.866-1.843-4.679 0.053-1.782 0.775-3.395 1.979-4.528 1.181-1.112 2.768-1.817 4.516-1.762 1.711 0.056 3.258 0.755 4.343 1.914 0.907 0.969 1.53 2.218 1.659 3.605z"/>
   <path id="path43966" d="m14.126 12.012c6e-3 -0.203-0.071-0.399-0.212-0.544s-0.335-0.227-0.537-0.227h-4.897c-1.387 0-2.717 0.551-3.698 1.532s-1.532 2.311-1.532 3.698v0.991c0 1.387 0.551 2.718 1.532 3.698 0.981 0.981 2.311 1.532 3.698 1.532h47.04c1.387 0 2.717-0.551 3.698-1.532 0.981-0.98 1.532-2.311 1.532-3.698v-0.991c0-1.387-0.551-2.717-1.532-3.698s-2.311-1.532-3.698-1.532h-14.81c-0.202 0-0.396 0.082-0.538 0.227-0.141 0.145-0.217 0.341-0.212 0.544 0.029 1.063 0.525 1.996 1.238 2.677 0.694 0.663 1.644 1.043 2.677 1.027 0.821 2e-3 1.488 0.669 1.488 1.49 0 0.819-0.663 1.485-1.48 1.49-1.84-0.035-3.509-0.773-4.686-2.005-1.163-1.217-1.892-2.866-1.843-4.679 6e-3 -0.203-0.071-0.399-0.212-0.544s-0.335-0.227-0.537-0.227h-19.123c-0.202 0-0.396 0.082-0.537 0.227-0.142 0.145-0.218 0.341-0.213 0.544 0.03 1.063 0.525 1.996 1.238 2.677 0.694 0.663 1.644 1.043 2.677 1.027 0.821 2e-3 1.488 0.669 1.488 1.49 0 0.819-0.663 1.485-1.48 1.49-1.84-0.035-3.509-0.773-4.686-2.005-1.162-1.217-1.892-2.866-1.843-4.679z"/>
  </g>
 </g>
</svg>
