<?xml version="1.0" encoding="UTF-8"?>
<!-- Created with Inkscape (http://www.inkscape.org/) -->
<svg id="svg1933" width="116.63" height="116.63" version="1.1" viewBox="0 0 30.858 30.858" xmlns="http://www.w3.org/2000/svg" xmlns:cc="http://creativecommons.org/ns#" xmlns:dc="http://purl.org/dc/elements/1.1/" xmlns:rdf="http://www.w3.org/1999/02/22-rdf-syntax-ns#">
 <defs id="defs1927">
  <style id="style10671">.cls-1{fill:#000000;}</style>
 </defs>
 <metadata id="metadata1930">
  <rdf:RDF>
   <cc:Work rdf:about="">
    <dc:format>image/svg+xml</dc:format>
    <dc:type rdf:resource="http://purl.org/dc/dcmitype/StillImage"/>
    <dc:title/>
   </cc:Work>
  </rdf:RDF>
 </metadata>
 <g id="layer1" transform="translate(0 -266.14)">
  <circle id="path853-5" cx="15.429" cy="281.57" r="15.429" fill="#266334"/>
  <circle id="path853" cx="15.429" cy="281.57" r="0" fill="#031d44"/>
 </g>
 <g id="layer2">
  <path id="path15397" d="m24.61 9.3614-0.59452-0.59452a0.57374 0.57374 0 0 1-0.16806-0.40567v-1.1224s0.21477-2.8633-2.3622-2.8633h-5.8698c-2.577 0-2.3623 2.8633-2.3623 2.8633v1.1224a0.5737 0.5737 0 0 1-0.16802 0.40567l-0.33304 0.33304h-0.18648c-2.577 0-2.3623 2.8633-2.3623 2.8633v1.1224a0.5737 0.5737 0 0 1-0.16802 0.40567l-0.33304 0.33304h-0.31462c-2.577 0-2.3622 2.8633-2.3622 2.8633v1.1225a0.57368 0.57368 0 0 1-0.16802 0.40563l-0.59452 0.59452a0.57364 0.57364 0 0 0-0.16806 0.40567v3.1039a0.57364 0.57364 0 0 0 0.16806 0.40567l0.093419 0.09342a0.57377 0.57377 0 0 1 0.16802 0.40567v1.4794a0.57371 0.57371 0 0 0 0.57369 0.57369h0.85694a0.57368 0.57368 0 0 0 0.57369-0.57369v-1.1433a0.57371 0.57371 0 0 1 0.57369-0.57369h6.4405a0.57367 0.57367 0 0 1 0.57365 0.57369v1.1433a0.57371 0.57371 0 0 0 0.57369 0.57369h0.85698a0.57367 0.57367 0 0 0 0.57365-0.57369v-1.4794a0.57381 0.57381 0 0 1 0.16806-0.40567l0.09342-0.09342a0.57377 0.57377 0 0 0 0.16802-0.40567v-3.1039a0.57377 0.57377 0 0 0-0.16802-0.40567l-0.5478-0.54781h0.88626a0.57368 0.57368 0 0 1 0.57369 0.57369v1.1433a0.57367 0.57367 0 0 0 0.57369 0.57365h0.85695a0.57365 0.57365 0 0 0 0.57369-0.57365v-1.4794a0.57377 0.57377 0 0 1 0.16802-0.40567l0.09346-0.09342a0.57377 0.57377 0 0 0 0.16802-0.40567v-3.1039a0.57371 0.57371 0 0 0-0.16802-0.40567l-0.54781-0.54781h0.75813a0.57368 0.57368 0 0 1 0.57369 0.57369v1.1433a0.57367 0.57367 0 0 0 0.57369 0.57365h0.85694a0.57365 0.57365 0 0 0 0.57369-0.57365v-1.4794a0.5737 0.5737 0 0 1 0.16802-0.40567l0.09346-0.09342a0.57377 0.57377 0 0 0 0.16802-0.40567v-3.1039a0.5737 0.5737 0 0 0-0.16802-0.40567zm-8.6367 8.3285h-7.3015s-0.859 0-0.859-0.57266 0-2.2907 1.718-2.2907h5.5835c1.718 0 1.718 1.718 1.718 2.2907s-0.859 0.57266-0.859 0.57266zm3.1779-4.7245h-7.3015s-0.859 0-0.859-0.57266c0-0.57267 0-2.2907 1.718-2.2907h5.5835c1.718 0 1.718 1.718 1.718 2.2907 0 0.57266-0.859 0.57266-0.859 0.57266zm3.0498-4.7245h-7.3015s-0.859 0-0.859-0.57266c0-0.57266 0-2.2907 1.718-2.2907h5.5835c1.718 0 1.718 1.718 1.718 2.2907 0 0.57266-0.859 0.57266-0.859 0.57266z" fill="#fff" stroke-width=".26458"/>
 </g>
</svg>
