<?xml version="1.0" encoding="UTF-8"?>
<!-- Created with Inkscape (http://www.inkscape.org/) -->
<svg id="svg1933" width="116.63" height="116.63" version="1.1" viewBox="0 0 30.858 30.858" xmlns="http://www.w3.org/2000/svg" xmlns:cc="http://creativecommons.org/ns#" xmlns:dc="http://purl.org/dc/elements/1.1/" xmlns:rdf="http://www.w3.org/1999/02/22-rdf-syntax-ns#">
 <defs id="defs1927">
  <style id="style10671">.cls-1{fill:#000000;}</style>
  <style id="style10671-0">.cls-1{fill:#000000;}</style>
  <style id="style10671-05">.cls-1{fill:#000000;}</style>
  <style id="style10671-1">.cls-1{fill:#000000;}</style>
  <style id="style10671-2">.cls-1{fill:#000000;}</style>
  <style id="style10671-0-6">.cls-1{fill:#000000;}</style>
  <style id="style10671-05-6">.cls-1{fill:#000000;}</style>
  <style id="style10671-1-5">.cls-1{fill:#000000;}</style>
 </defs>
 <metadata id="metadata1930">
  <rdf:RDF>
   <cc:Work rdf:about="">
    <dc:format>image/svg+xml</dc:format>
    <dc:type rdf:resource="http://purl.org/dc/dcmitype/StillImage"/>
    <dc:title/>
   </cc:Work>
  </rdf:RDF>
 </metadata>
 <g id="layer1" transform="translate(0 -266.14)">
  <circle id="path853-5" cx="15.429" cy="281.57" r="15.429" fill="#266334"/>
  <circle id="path853" cx="15.429" cy="281.57" r="0" fill="#031d44"/>
 </g>
 <g id="layer2">
  <g id="g83192" transform="matrix(.78265 0 0 .78265 -5.0092 -9.6456)" fill="#fff" shape-rendering="auto" stroke-width=".33806">
   <path id="path83188" d="m30.365 26.821a2.829 3.0609 0 0 1 1.4145-2.6508 2.829 3.0609 0 0 1 2.829 0 2.829 3.0609 0 0 1 1.4145 2.6508" color="#000000" color-rendering="auto" image-rendering="auto" solid-color="#000000" style="isolation:auto;mix-blend-mode:normal"/>
   <path id="path83190" d="m33.556 26.821a3.6283 4.9999 0 0 1 1.8142-4.3301 3.6283 4.9999 0 0 1 3.6283 0 3.6283 4.9999 0 0 1 1.8142 4.3301" color="#000000" color-rendering="auto" image-rendering="auto" solid-color="#000000" style="isolation:auto;mix-blend-mode:normal"/>
  </g>
  <g id="g111404" transform="matrix(1.7525 0 0 1.7525 -48.281 .99545)" stroke-width=".57063">
   <g id="layer2-7" stroke-width=".57063">
    <g id="g82321" transform="translate(-12.216 2.6545)" stroke-width=".57063">
     <g id="g111409" transform="translate(22.885 -.30068)" fill="#fff" stroke-width=".15098">
      <path id="path13780" d="m26.177 8.6364-0.25799-0.18427c-0.06142-0.04914-0.11056-0.12285-0.11056-0.19656v-6.2899h-0.2457v6.2776c0 0.085995-0.03685 0.15971-0.11056 0.19656l-0.25798 0.19656c-0.23342 0.15971-0.36855 0.42998-0.36855 0.70025 0 0.47912 0.38084 0.85995 0.85995 0.85995s0.85995-0.38083 0.85995-0.85995c0-0.28256-0.13514-0.54054-0.36855-0.70025z"/>
      <path id="path13782" d="m25.808 1.2285c0-0.07371-0.04914-0.12285-0.12285-0.12285s-0.12285 0.04914-0.12285 0.12285v0.2457h0.2457z"/>
      <path id="path13786" d="m26.914 7.801v-6.5725c0-0.67568-0.55282-1.2285-1.2285-1.2285-0.67568 0-1.2285 0.55283-1.2285 1.2285v6.5725c-0.46683 0.36855-0.7371 0.93366-0.7371 1.5356 0 1.0811 0.88452 1.9656 1.9656 1.9656 1.0811 0 1.9656-0.88452 1.9656-1.9656 0-0.60197-0.27027-1.1671-0.7371-1.5356zm-1.2285 2.887c-0.74938 0-1.3514-0.60197-1.3514-1.3514 0-0.44226 0.22113-0.85995 0.5774-1.1057l0.1597-0.11056v-6.8919c0-0.34398 0.27027-0.61425 0.61425-0.61425s0.61425 0.27027 0.61425 0.61425v6.8919l0.1597 0.11056c0.36855 0.25799 0.5774 0.66339 0.5774 1.1057 0 0.74939-0.60197 1.3514-1.3514 1.3514z"/>
     </g>
    </g>
   </g>
  </g>
  <path id="path83180" d="m11.969 18.263a2.7387 2.9632 0 0 0-1.3694-2.5662 2.7387 2.9632 0 0 0-2.7387 0 2.7387 2.9632 0 0 0-1.3693 2.5662" color="#000000" color-rendering="auto" fill="#fff" image-rendering="auto" shape-rendering="auto" solid-color="#000000" style="isolation:auto;mix-blend-mode:normal"/>
  <path id="path83182" d="m8.88 18.263a3.5124 4.8402 0 0 0-1.7562-4.1918 3.5124 4.8402 0 0 0-3.5124 0 3.5124 4.8402 0 0 0-1.7562 4.1918" color="#000000" color-rendering="auto" fill="#fff" image-rendering="auto" shape-rendering="auto" solid-color="#000000" style="isolation:auto;mix-blend-mode:normal"/>
 </g>
</svg>
