<?xml version="1.0" encoding="UTF-8"?>
<!-- Created with Inkscape (http://www.inkscape.org/) -->
<svg id="svg1933" width="116.63" height="116.63" version="1.1" viewBox="0 0 30.858 30.858" xmlns="http://www.w3.org/2000/svg" xmlns:cc="http://creativecommons.org/ns#" xmlns:dc="http://purl.org/dc/elements/1.1/" xmlns:rdf="http://www.w3.org/1999/02/22-rdf-syntax-ns#">
 <defs id="defs1927">
  <style id="style10671">.cls-1{fill:#000000;}</style>
 </defs>
 <metadata id="metadata1930">
  <rdf:RDF>
   <cc:Work rdf:about="">
    <dc:format>image/svg+xml</dc:format>
    <dc:type rdf:resource="http://purl.org/dc/dcmitype/StillImage"/>
    <dc:title/>
   </cc:Work>
  </rdf:RDF>
 </metadata>
 <g id="layer1" transform="translate(0 -266.14)">
  <circle id="path853-5" cx="15.429" cy="281.57" r="15.429" fill="#266334"/>
  <circle id="path853" cx="15.429" cy="281.57" r="0" fill="#031d44"/>
 </g>
 <g id="layer2">
  <g id="g40854" transform="matrix(.34402 0 0 .34402 4.394 2.8317)" fill="#fff" stroke-width="1.2017">
   <g id="g40810" fill="#fff" stroke-width="1.2017">
    <g id="g40788">
     <g id="g40746">
      <path id="path40744" d="m63 54h-62c-0.308 0-0.599-0.142-0.788-0.385-0.189-0.242-0.257-0.559-0.182-0.857l7-28c0.133-0.537 0.675-0.865 1.212-0.728 0.536 0.134 0.862 0.677 0.728 1.212l-6.689 26.758h59.438l-4.271-17.084c-0.135-0.535 0.191-1.078 0.728-1.212 0.532-0.136 1.078 0.191 1.212 0.728l4.582 18.326c0.075 0.299 8e-3 0.615-0.182 0.857-0.189 0.243-0.48 0.385-0.788 0.385z" fill="#fff" stroke-width="1.2017"/>
     </g>
     <g id="g40750">
      <path id="path40748" d="m32 54c-0.553 0-1-0.447-1-1 0-7.412 5.693-10.615 11.721-14.007l0.902-0.508c0.479-0.271 1.091-0.104 1.362 0.378 0.272 0.48 0.103 1.091-0.378 1.362l-0.906 0.511c-5.978 3.365-10.701 6.021-10.701 12.264 0 0.553-0.447 1-1 1z" fill="#fff" stroke-width="1.2017"/>
     </g>
     <g id="g40754">
      <path id="path40752" d="m1 58c-0.553 0-1-0.447-1-1v-4c0-0.553 0.447-1 1-1s1 0.447 1 1v4c0 0.553-0.447 1-1 1z" fill="#fff" stroke-width="1.2017"/>
     </g>
     <g id="g40758">
      <path id="path40756" d="m63 58h-62c-0.553 0-1-0.447-1-1s0.447-1 1-1h62c0.553 0 1 0.447 1 1s-0.447 1-1 1z" fill="#fff" stroke-width="1.2017"/>
     </g>
     <g id="g40762">
      <path id="path40760" d="m63 57.584c-0.553 0-1-0.447-1-1v-3.584c0-0.553 0.447-1 1-1s1 0.447 1 1v3.584c0 0.553-0.447 1-1 1z" fill="#fff" stroke-width="1.2017"/>
     </g>
     <g id="g40766">
      <path id="path40764" d="m32 58c-0.553 0-1-0.447-1-1v-4c0-0.553 0.447-1 1-1s1 0.447 1 1v4c0 0.553-0.447 1-1 1z" fill="#fff" stroke-width="1.2017"/>
     </g>
     <g id="g40770">
      <path id="path40768" d="m2.001 50c-0.329 0-0.651-0.162-0.842-0.459-0.299-0.465-0.164-1.084 0.3-1.382 4.857-3.123 9.588-4.518 13.762-5.748 8.318-2.452 14.888-4.39 19.842-17.759 0.192-0.518 0.764-0.784 1.285-0.59 0.518 0.191 0.782 0.767 0.59 1.285-5.302 14.309-12.646 16.475-21.151 18.981-4.242 1.251-8.629 2.544-13.245 5.512-0.169 0.109-0.355 0.16-0.541 0.16z" fill="#fff" stroke-width="1.2017"/>
     </g>
     <g id="g40774">
      <path id="path40772" d="m20 35c-2.898 0-11-12.333-11-18 0-6.065 4.935-11 11-11s11 4.935 11 11c0 5.667-8.102 18-11 18zm0-27c-4.963 0-9 4.037-9 9 0 5.054 7.229 15.218 9 15.979 1.771-0.762 9-10.926 9-15.979 0-4.963-4.037-9-9-9z" fill="#fff" stroke-width="1.2017"/>
     </g>
     <g id="g40778">
      <path id="path40776" d="m50 47c-2.898 0-11-12.333-11-18 0-6.065 4.935-11 11-11s11 4.935 11 11c0 5.667-8.102 18-11 18zm0-27c-4.963 0-9 4.037-9 9 0 5.054 7.229 15.218 9 15.979 1.771-0.762 9-10.926 9-15.979 0-4.963-4.037-9-9-9z" fill="#fff" stroke-width="1.2017"/>
     </g>
     <g id="g40782">
      <path id="path40780" d="m12.742 26h-4.742c-0.553 0-1-0.447-1-1s0.447-1 1-1h4.742c0.553 0 1 0.447 1 1s-0.447 1-1 1z" fill="#fff" stroke-width="1.2017"/>
     </g>
     <g id="g40786">
      <path id="path40784" d="m40.834 26h-13.574c-0.553 0-1-0.447-1-1s0.447-1 1-1h13.574c0.553 0 1 0.447 1 1s-0.447 1-1 1z" fill="#fff" stroke-width="1.2017"/>
     </g>
    </g>
    <g id="g40798">
     <g id="g40792">
      <path id="path40790" d="m20 19.826c-0.553 0-1-0.447-1-1v-5.83c0-0.553 0.447-1 1-1s1 0.447 1 1v5.83c0 0.553-0.447 1-1 1z" fill="#fff" stroke-width="1.2017"/>
     </g>
     <g id="g40796">
      <path id="path40794" d="m20.03 22.998c-0.553 0-1.005-0.447-1.005-1s0.442-1 0.994-1h0.011c0.552 0 1 0.447 1 1s-0.448 1-1 1z" fill="#fff" stroke-width="1.2017"/>
     </g>
    </g>
    <g id="g40808">
     <g id="g40802">
      <path id="path40800" d="m50.016 31.828c-0.553 0-1-0.447-1-1v-5.83c0-0.553 0.447-1 1-1s1 0.447 1 1v5.83c0 0.553-0.448 1-1 1z" fill="#fff" stroke-width="1.2017"/>
     </g>
     <g id="g40806">
      <path id="path40804" d="m50.046 35c-0.553 0-1.005-0.447-1.005-1s0.442-1 0.994-1h0.011c0.552 0 1 0.447 1 1s-0.448 1-1 1z" fill="#fff" stroke-width="1.2017"/>
     </g>
    </g>
   </g>
  </g>
 </g>
</svg>
