<?xml version="1.0" encoding="UTF-8" standalone="no"?>
<!-- Created with Inkscape (http://www.inkscape.org/) -->

<svg
   xmlns:dc="http://purl.org/dc/elements/1.1/"
   xmlns:cc="http://creativecommons.org/ns#"
   xmlns:rdf="http://www.w3.org/1999/02/22-rdf-syntax-ns#"
   xmlns:svg="http://www.w3.org/2000/svg"
   xmlns="http://www.w3.org/2000/svg"
   xmlns:sodipodi="http://sodipodi.sourceforge.net/DTD/sodipodi-0.dtd"
   xmlns:inkscape="http://www.inkscape.org/namespaces/inkscape"
   width="30.858mm"
   height="30.858mm"
   viewBox="0 0 30.858 30.858"
   version="1.1"
   id="svg1933"
   inkscape:version="0.92.5 (2060ec1f9f, 2020-04-08)"
   sodipodi:docname="Local crime.svg">
  <defs
     id="defs1927">
    <mask
       maskUnits="userSpaceOnUse"
       id="mask2260">
      <rect
         style="opacity:1;fill:#ffffff;fill-opacity:1;stroke:none;stroke-width:0.56499994;stroke-miterlimit:4;stroke-dasharray:none;stroke-opacity:1"
         id="rect2262"
         width="86.248459"
         height="109.59391"
         x="10.399542"
         y="-2.1886201" />
    </mask>
  </defs>
  <sodipodi:namedview
     id="base"
     pagecolor="#ffffff"
     bordercolor="#666666"
     borderopacity="1.0"
     inkscape:pageopacity="0.0"
     inkscape:pageshadow="2"
     inkscape:zoom="1.979899"
     inkscape:cx="74.922616"
     inkscape:cy="74.025098"
     inkscape:document-units="mm"
     inkscape:current-layer="layer1"
     showgrid="false"
     units="mm"
     showguides="true"
     inkscape:guide-bbox="true"
     inkscape:snap-global="false"
     inkscape:window-width="1090"
     inkscape:window-height="767"
     inkscape:window-x="146"
     inkscape:window-y="94"
     inkscape:window-maximized="0"
     inkscape:snap-others="false"
     inkscape:snap-bbox="true"
     inkscape:bbox-nodes="true">
    <sodipodi:guide
       position="0,16.503893"
       orientation="1,0"
       id="guide2524"
       inkscape:locked="false"
       inkscape:label=""
       inkscape:color="rgb(0,0,255)" />
    <sodipodi:guide
       position="14.29892,0"
       orientation="0,1"
       id="guide2526"
       inkscape:locked="false"
       inkscape:label=""
       inkscape:color="rgb(0,0,255)" />
    <sodipodi:guide
       position="85.526248,30.858"
       orientation="0,1"
       id="guide7505"
       inkscape:locked="false"
       inkscape:label=""
       inkscape:color="rgb(0,0,255)" />
    <sodipodi:guide
       position="15.434815,33.542326"
       orientation="1,0"
       id="guide7585"
       inkscape:locked="false" />
  </sodipodi:namedview>
  <metadata
     id="metadata1930">
    <rdf:RDF>
      <cc:Work
         rdf:about="">
        <dc:format>image/svg+xml</dc:format>
        <dc:type
           rdf:resource="http://purl.org/dc/dcmitype/StillImage" />
        <dc:title></dc:title>
      </cc:Work>
    </rdf:RDF>
  </metadata>
  <g
     inkscape:label="Layer 1"
     inkscape:groupmode="layer"
     id="layer1"
     transform="translate(0,-266.14199)">
    <g
       style="fill:#ffffff;stroke-width:1.20943701"
       id="g1829"
       transform="matrix(0.04272767,0,0,0.04272767,4.3256279,270.19715)">
      <path
         id="path1806"
         d="m 405.7,165.4 -16.9,6.4 c -6.3,2.4 -12.9,3.6 -19.6,3.6 -1.4,0 -2.9,-0.1 -4.3,-0.2 -18.8,-1.4 -51.9,-4 -73.2,-5.6 L 256,206.4 220,169.2 c -15.6,-16 -37,-25.1 -59.3,-25.1 -0.2,0 -0.5,0 -0.7,0 -10.6,0.1 -21.1,2.2 -30.8,6.4 l -0.8,0.3 c -9.6,4.2 -18.3,10.4 -25.5,18.1 -30.9,33.6 -30.5,85.4 1,118.4 l 48.4,50 c 21.2,1.6 54.7,4.2 73.8,5.6 11.9,0.9 22.3,8.5 26.7,19.6 l 0.2,0.5 c 6.3,15.8 -1.4,33.7 -17.2,40 -2.1,0.8 -4.3,1.4 -6.5,1.8 l -23.7,3.9 24.9,10.6 c 6,2.6 12.8,2.6 18.9,0 l 53,-22.7 105.7,-109.3 c 31.5,-33 31.9,-84.8 1,-118.4 -1.1,-1.2 -2.2,-2.4 -3.4,-3.5 z M 240,280 h -32 v 32 h -32 v -32 h -32 v -32 h 32 v -32 h 32 v 32 h 32 z m 96,8 -16,8 v 48 h -32 v -48 l -16,-8 v -30.1 c 0,-6.1 3.4,-11.6 8.8,-14.3 L 304,232 l -7.2,-3.6 c -5.4,-2.7 -8.8,-8.3 -8.8,-14.3 v -4.2 c 0,-8.8 7.2,-16 16,-16 8.8,0 16,7.2 16,16 v 4.2 c 0,6.1 -3.4,11.6 -8.8,14.3 l -7.2,3.6 23.2,11.6 c 5.4,2.7 8.8,8.3 8.8,14.3 z"
         inkscape:connector-curvature="0"
         style="fill:#ffffff;stroke-width:1.20943701" />
      <rect
         id="rect1808"
         height="88"
         width="32"
         y="376"
         x="32"
         style="fill:#ffffff;stroke-width:1.20943701" />
      <path
         id="path1810"
         d="M 407.3,45.1 378.7,33.7 C 375.9,32.6 372.8,32 369.8,32 h -121 c -4.3,0 -8.6,1.2 -12.3,3.4 l -132.1,79.3 c -6.3,3.8 -8.4,12 -4.6,18.3 3.4,5.7 10.6,8 16.7,5.4 l 4.4,-1.9 c 1.2,-0.5 2.3,-1 3.5,-1.5 L 272,71.3 l 63.9,27.2 14.9,-2.4 2.6,15.8 -68.2,11.1 c -8.1,1.3 -13.5,8.9 -12.2,17 0.2,1.1 0.5,2.1 0.9,3.1 l 0.2,0.5 c 2.1,5.5 7.2,9.2 13,9.6 20.8,1.5 58.4,4.4 78.9,6 5.8,0.5 11.6,-0.4 17.1,-2.4 L 432,138.5 V 48 h -9.8 c -5.1,0 -10.2,-1 -14.9,-2.9 z"
         inkscape:connector-curvature="0"
         style="fill:#ffffff;stroke-width:1.20943701" />
      <rect
         id="rect1812"
         height="88"
         width="32"
         y="48"
         x="448"
         style="fill:#ffffff;stroke-width:1.20943701" />
      <path
         id="path1814"
         d="M 395.9,373.9 255.7,434 c -10,4.3 -21.4,4.3 -31.4,0 l -48.1,-20.5 -14.9,2.4 -2.6,-15.8 68.1,-11.1 c 8.1,-1.3 13.5,-8.9 12.2,-17 -0.2,-1.1 -0.5,-2.1 -0.9,-3.1 l -0.2,-0.5 c -2.1,-5.5 -7.2,-9.2 -13,-9.6 -20.8,-1.5 -58.4,-4.4 -78.9,-6 -5.8,-0.5 -11.6,0.4 -17.1,2.4 L 80,373.5 V 464 h 9.8 c 5.1,0 10.1,1 14.9,2.9 l 28.6,11.4 c 2.8,1.1 5.9,1.7 8.9,1.7 h 121 c 4.3,0 8.6,-1.2 12.3,-3.4 l 132.3,-79.4 c 6.2,-3.7 8.2,-11.8 4.5,-18 -3.4,-5.6 -10.4,-7.9 -16.4,-5.3 z"
         inkscape:connector-curvature="0"
         style="fill:#ffffff;stroke-width:1.20943701" />
    </g>
    <g
       style="fill:#ffffff;stroke-width:1.27491653"
       id="g3556"
       transform="matrix(0.42010107,0,0,0.42010107,7.9079933,271.42233)">
      <path
         id="path3545"
         transform="translate(-494,-327.3)"
         d="m 512,327.3 a 18,18 0 0 0 -18,18 c 0,8.7 13.8,26.6 17.2,31 a 1,1 0 0 0 1.6,0 c 3.5,-4.4 17.2,-22.3 17.2,-31 a 18,18 0 0 0 -18,-18 z m 1.6,29.9 a 12,12 0 0 1 -13.5,-13.5 12.8,12.8 0 0 1 10.3,-10.3 12,12 0 0 1 13.5,13.5 12.8,12.8 0 0 1 -10.3,10.3 z m -5.7,-17.1 a 4.1,4.1 0 1 1 4.1,4.1 4.1,4.1 0 0 1 -4.1,-4.1 z m 4.1,5.9 a 8.8,8.8 0 0 0 -7.4,4.7 0.9,0.9 0 0 0 0.9,1.5 h 13 a 0.9,0.9 0 0 0 0.9,-1.5 8.8,8.8 0 0 0 -7.4,-4.6 z"
         inkscape:connector-curvature="0"
         style="fill:#ffffff;stroke-width:1.27491653" />
    </g>
    <g
       transform="translate(-300.54498,-10.460887)"
       id="g7813">
      <circle
         style="fill:#40a073;fill-opacity:1;stroke-width:0.46499997"
         id="circle1093-0-75-5-6-2-6"
         cx="315.97418"
         cy="292.03168"
         r="15.429199" />
      <g
         transform="matrix(0.34241806,0,0,0.34241806,304.97486,279.29111)"
         id="g4060"
         style="fill:#ffffff;stroke-width:1.20732963">
        <g
           style="fill:#ffffff;stroke-width:1.20732963"
           id="g4016">
          <g
             style="fill:#ffffff;stroke-width:1.20732963"
             id="g3994">
            <g
               style="fill:#ffffff;stroke-width:1.20732963"
               id="g3952">
              <path
                 style="fill:#ffffff;stroke-width:1.20732963"
                 inkscape:connector-curvature="0"
                 d="M 63,54 H 1 C 0.692,54 0.401,53.858 0.212,53.615 0.023,53.373 -0.045,53.056 0.03,52.758 l 7,-28 c 0.133,-0.537 0.675,-0.865 1.212,-0.728 0.536,0.134 0.862,0.677 0.728,1.212 L 2.281,52 H 61.719 L 57.448,34.916 c -0.135,-0.535 0.191,-1.078 0.728,-1.212 0.532,-0.136 1.078,0.191 1.212,0.728 l 4.582,18.326 c 0.075,0.299 0.008,0.615 -0.182,0.857 C 63.599,53.858 63.308,54 63,54 Z"
                 id="path3950" />
            </g>
            <g
               style="fill:#ffffff;stroke-width:1.20732963"
               id="g3956">
              <path
                 style="fill:#ffffff;stroke-width:1.20732963"
                 inkscape:connector-curvature="0"
                 d="m 32,54 c -0.553,0 -1,-0.447 -1,-1 0,-7.412 5.693,-10.615 11.721,-14.007 l 0.902,-0.508 c 0.479,-0.271 1.091,-0.104 1.362,0.378 0.272,0.48 0.103,1.091 -0.378,1.362 l -0.906,0.511 C 37.723,44.101 33,46.757 33,53 c 0,0.553 -0.447,1 -1,1 z"
                 id="path3954" />
            </g>
            <g
               style="fill:#ffffff;stroke-width:1.20732963"
               id="g3960">
              <path
                 style="fill:#ffffff;stroke-width:1.20732963"
                 inkscape:connector-curvature="0"
                 d="M 1,58 C 0.447,58 0,57.553 0,57 v -4 c 0,-0.553 0.447,-1 1,-1 0.553,0 1,0.447 1,1 v 4 c 0,0.553 -0.447,1 -1,1 z"
                 id="path3958" />
            </g>
            <g
               style="fill:#ffffff;stroke-width:1.20732963"
               id="g3964">
              <path
                 style="fill:#ffffff;stroke-width:1.20732963"
                 inkscape:connector-curvature="0"
                 d="M 63,58 H 1 C 0.447,58 0,57.553 0,57 0,56.447 0.447,56 1,56 h 62 c 0.553,0 1,0.447 1,1 0,0.553 -0.447,1 -1,1 z"
                 id="path3962" />
            </g>
            <g
               style="fill:#ffffff;stroke-width:1.20732963"
               id="g3968">
              <path
                 style="fill:#ffffff;stroke-width:1.20732963"
                 inkscape:connector-curvature="0"
                 d="m 63,57.584 c -0.553,0 -1,-0.447 -1,-1 V 53 c 0,-0.553 0.447,-1 1,-1 0.553,0 1,0.447 1,1 v 3.584 c 0,0.553 -0.447,1 -1,1 z"
                 id="path3966" />
            </g>
            <g
               style="fill:#ffffff;stroke-width:1.20732963"
               id="g3972">
              <path
                 style="fill:#ffffff;stroke-width:1.20732963"
                 inkscape:connector-curvature="0"
                 d="m 32,58 c -0.553,0 -1,-0.447 -1,-1 v -4 c 0,-0.553 0.447,-1 1,-1 0.553,0 1,0.447 1,1 v 4 c 0,0.553 -0.447,1 -1,1 z"
                 id="path3970" />
            </g>
            <g
               style="fill:#ffffff;stroke-width:1.20732963"
               id="g3976">
              <path
                 style="fill:#ffffff;stroke-width:1.20732963"
                 inkscape:connector-curvature="0"
                 d="M 2.001,50 C 1.672,50 1.35,49.838 1.159,49.541 0.86,49.076 0.995,48.457 1.459,48.159 c 4.857,-3.123 9.588,-4.518 13.762,-5.748 8.318,-2.452 14.888,-4.39 19.842,-17.759 0.192,-0.518 0.764,-0.784 1.285,-0.59 0.518,0.191 0.782,0.767 0.59,1.285 C 31.636,39.656 24.292,41.822 15.787,44.328 11.545,45.579 7.158,46.872 2.542,49.84 2.373,49.949 2.187,50 2.001,50 Z"
                 id="path3974" />
            </g>
            <g
               style="fill:#ffffff;stroke-width:1.20732963"
               id="g3980">
              <path
                 style="fill:#ffffff;stroke-width:1.20732963"
                 inkscape:connector-curvature="0"
                 d="M 20,35 C 17.102,35 9,22.667 9,17 9,10.935 13.935,6 20,6 c 6.065,0 11,4.935 11,11 0,5.667 -8.102,18 -11,18 z M 20,8 c -4.963,0 -9,4.037 -9,9 0,5.054 7.229,15.218 9,15.979 C 21.771,32.217 29,22.053 29,17 29,12.037 24.963,8 20,8 Z"
                 id="path3978" />
            </g>
            <g
               style="fill:#ffffff;stroke-width:1.20732963"
               id="g3984">
              <path
                 style="fill:#ffffff;stroke-width:1.20732963"
                 inkscape:connector-curvature="0"
                 d="M 50,47 C 47.102,47 39,34.667 39,29 c 0,-6.065 4.935,-11 11,-11 6.065,0 11,4.935 11,11 0,5.667 -8.102,18 -11,18 z m 0,-27 c -4.963,0 -9,4.037 -9,9 0,5.054 7.229,15.218 9,15.979 1.771,-0.762 9,-10.926 9,-15.979 0,-4.963 -4.037,-9 -9,-9 z"
                 id="path3982" />
            </g>
            <g
               style="fill:#ffffff;stroke-width:1.20732963"
               id="g3988">
              <path
                 style="fill:#ffffff;stroke-width:1.20732963"
                 inkscape:connector-curvature="0"
                 d="M 12.742,26 H 8 C 7.447,26 7,25.553 7,25 7,24.447 7.447,24 8,24 h 4.742 c 0.553,0 1,0.447 1,1 0,0.553 -0.447,1 -1,1 z"
                 id="path3986" />
            </g>
            <g
               style="fill:#ffffff;stroke-width:1.20732963"
               id="g3992">
              <path
                 style="fill:#ffffff;stroke-width:1.20732963"
                 inkscape:connector-curvature="0"
                 d="M 40.834,26 H 27.26 c -0.553,0 -1,-0.447 -1,-1 0,-0.553 0.447,-1 1,-1 h 13.574 c 0.553,0 1,0.447 1,1 0,0.553 -0.447,1 -1,1 z"
                 id="path3990" />
            </g>
          </g>
          <g
             style="fill:#ffffff;stroke-width:1.20732963"
             id="g4004">
            <g
               style="fill:#ffffff;stroke-width:1.20732963"
               id="g3998">
              <path
                 style="fill:#ffffff;stroke-width:1.20732963"
                 inkscape:connector-curvature="0"
                 d="m 20,19.826 c -0.553,0 -1,-0.447 -1,-1 v -5.83 c 0,-0.553 0.447,-1 1,-1 0.553,0 1,0.447 1,1 v 5.83 c 0,0.553 -0.447,1 -1,1 z"
                 id="path3996" />
            </g>
            <g
               style="fill:#ffffff;stroke-width:1.20732963"
               id="g4002">
              <path
                 style="fill:#ffffff;stroke-width:1.20732963"
                 inkscape:connector-curvature="0"
                 d="m 20.03,22.998 c -0.553,0 -1.005,-0.447 -1.005,-1 0,-0.553 0.442,-1 0.994,-1 h 0.011 c 0.552,0 1,0.447 1,1 0,0.553 -0.448,1 -1,1 z"
                 id="path4000" />
            </g>
          </g>
          <g
             style="fill:#ffffff;stroke-width:1.20732963"
             id="g4014">
            <g
               style="fill:#ffffff;stroke-width:1.20732963"
               id="g4008">
              <path
                 style="fill:#ffffff;stroke-width:1.20732963"
                 inkscape:connector-curvature="0"
                 d="m 50.016,31.828 c -0.553,0 -1,-0.447 -1,-1 v -5.83 c 0,-0.553 0.447,-1 1,-1 0.553,0 1,0.447 1,1 v 5.83 c 0,0.553 -0.448,1 -1,1 z"
                 id="path4006" />
            </g>
            <g
               style="fill:#ffffff;stroke-width:1.20732963"
               id="g4012">
              <path
                 style="fill:#ffffff;stroke-width:1.20732963"
                 inkscape:connector-curvature="0"
                 d="m 50.046,35 c -0.553,0 -1.005,-0.447 -1.005,-1 0,-0.553 0.442,-1 0.994,-1 h 0.011 c 0.552,0 1,0.447 1,1 0,0.553 -0.448,1 -1,1 z"
                 id="path4010" />
            </g>
          </g>
        </g>
      </g>
    </g>
  </g>
</svg>
