<?xml version="1.0" encoding="UTF-8"?>
<!-- Created with Inkscape (http://www.inkscape.org/) -->
<svg id="svg1933" width="116.63" height="116.63" version="1.1" viewBox="0 0 30.858 30.858" xmlns="http://www.w3.org/2000/svg" xmlns:cc="http://creativecommons.org/ns#" xmlns:dc="http://purl.org/dc/elements/1.1/" xmlns:rdf="http://www.w3.org/1999/02/22-rdf-syntax-ns#">
 <metadata id="metadata1930">
  <rdf:RDF>
   <cc:Work rdf:about="">
    <dc:format>image/svg+xml</dc:format>
    <dc:type rdf:resource="http://purl.org/dc/dcmitype/StillImage"/>
    <dc:title/>
   </cc:Work>
  </rdf:RDF>
 </metadata>
 <g id="layer1" transform="translate(0 -266.14)">
  <circle id="path853-5" cx="15.429" cy="281.57" r="15.429" fill="#351431"/>
  <circle id="path853" cx="15.429" cy="281.57" r="0" fill="#031d44"/>
 </g>
 <g id="layer2">
  <path id="path2270" d="m26.275 17.072c0-0.74501-0.06985-1.49-0.2561-2.2117-0.069841-0.27938-0.16297-0.55876-0.23282-0.83814-0.23282-0.90798-0.6286-1.7228-1.0942-2.5144-0.34922-0.60532-0.72173-1.1874-1.1175-1.7694-0.51219-0.74501-1.071-1.4435-1.7228-2.0721-0.48891-0.46563-1.0011-0.8847-1.6297-1.1641-0.53547-0.23282-1.0942-0.32594-1.6763-0.11641-0.39579 0.13969-0.65188 0.41907-0.8847 0.74501-0.30266 0.39579-0.44235 0.83813-0.53548 1.3038-0.09313 0.3725-0.18625 0.74501-0.30266 1.1175-0.02328 0.046566-0.04657 0.093127-0.09313 0.13969h-0.06985c-0.06984-0.20953-0.16297-0.39579-0.18625-0.60532-0.04657-0.53548-0.06984-1.0477-0.06984-1.5831 0-0.55876 0.06985-1.1408 0.06985-1.6996 0-0.41907 0-0.83813-0.02328-1.2572-0.023292-0.34922-0.11642-0.67516-0.34923-0.95454-0.13969-0.20953-0.34922-0.32594-0.60532-0.34922-0.2561 0.023281-0.46563 0.13969-0.60532 0.34922-0.20953 0.27938-0.32594 0.60532-0.34922 0.95454-0.02328 0.41907-0.04657 0.83813-0.02328 1.2572 0.02328 0.55876 0.06984 1.1408 0.06984 1.6996 0 0.53548-0.02328 1.0477-0.06984 1.5831-0.02328 0.20953-0.11641 0.39579-0.18625 0.60532h-0.06985c-0.02327-0.046566-0.06984-0.093126-0.09312-0.13969-0.093128-0.3725-0.20954-0.74501-0.30266-1.1175-0.093126-0.46563-0.23282-0.90798-0.51219-1.3038-0.23282-0.32594-0.51219-0.60532-0.8847-0.74501-0.58204-0.18625-1.1408-0.11641-1.6763 0.11641-0.6286 0.27938-1.1408 0.69845-1.6297 1.1641-0.65188 0.6286-1.2106 1.327-1.7228 2.0721-0.39579 0.58204-0.76829 1.1641-1.1175 1.7694-0.46563 0.79157-0.86142 1.6297-1.0942 2.5144-0.069849 0.27938-0.16297 0.55876-0.23282 0.83814-0.18625 0.72173-0.23281 1.4667-0.2561 2.2117-0.023283 1.0011 0 2.0022 0 3.0266 0 0.11641 0.023283 0.23282 0.023283 0.34922 0.06984 0.41907 0.11641 0.83814 0.20953 1.2339 0.11641 0.46563 0.30266 0.90798 0.69845 1.2339 0.46563 0.41907 1.0244 0.48891 1.6064 0.46563 0.39579-0.02328 0.81485-0.11641 1.2106-0.23282 0.3725-0.11641 0.76829-0.23282 1.1175-0.39578 0.74501-0.32594 1.4435-0.76829 2.0953-1.3038 0.79157-0.6286 1.49-1.3503 2.0022-2.2117 0.41907-0.69844 0.67516-1.4202 0.81485-2.2117 0.11641-0.69844 0.11641-1.4202 0.06984-2.1186-0.04657-0.83814-0.06984-1.6996-0.06984-2.561 0-0.18625 0.02328-0.41907 0.13969-0.55876 0.2561-0.30266 0.55876-0.53548 0.83814-0.79157 0.27938 0.2561 0.58204 0.51219 0.83814 0.79157 0.11641 0.13969 0.13969 0.3725 0.13969 0.55876 0 0.86142-0.02328 1.6996-0.06985 2.561-0.04657 0.72173-0.02328 1.4202 0.06985 2.1186 0.11641 0.79157 0.39578 1.5366 0.81485 2.2117 0.53548 0.86142 1.2106 1.5831 2.0022 2.2117 0.65188 0.51219 1.327 0.95454 2.0953 1.3038 0.3725 0.16297 0.74501 0.30266 1.1175 0.39578 0.39579 0.11641 0.79157 0.20953 1.2106 0.23282 0.58204 0.02328 1.1408-0.04657 1.6064-0.46563 0.39579-0.32594 0.58204-0.76829 0.69844-1.2339 0.09313-0.39578 0.16297-0.81485 0.20953-1.2339 0.02328-0.11641 0.02328-0.23282 0.02328-0.34922 0.02328-1.0011 0.02328-2.0022 0.02328-3.0266zm-4.5632-1.6763c0.20953 0 0.3725 0.16297 0.3725 0.3725 0 0.20953-0.16297 0.3725-0.3725 0.3725s-0.3725-0.16297-0.3725-0.3725c0-0.20953 0.16297-0.3725 0.3725-0.3725zm-1.8392 0.3725c0-0.27938 0.23282-0.51219 0.51219-0.51219 0.27938 0 0.51219 0.23282 0.51219 0.51219 0 0.27938-0.23282 0.51219-0.51219 0.51219-0.30266 0-0.51219-0.23282-0.51219-0.51219zm1.4667 2.6541c-0.53547 0-0.97782-0.44235-0.97782-0.97782 0-0.53548 0.44235-0.97782 0.97782-0.97782 0.53548 0 0.97782 0.44235 0.97782 0.97782 0 0.53547-0.44235 0.97782-0.97782 0.97782z" fill="#fff" stroke-width=".26458"/>
 </g>
</svg>
