<?xml version="1.0" encoding="UTF-8"?>
<!-- Created with Inkscape (http://www.inkscape.org/) -->
<svg id="svg1933" width="116.63" height="116.63" version="1.1" viewBox="0 0 30.858 30.858" xmlns="http://www.w3.org/2000/svg" xmlns:cc="http://creativecommons.org/ns#" xmlns:dc="http://purl.org/dc/elements/1.1/" xmlns:rdf="http://www.w3.org/1999/02/22-rdf-syntax-ns#">
 <metadata id="metadata1930">
  <rdf:RDF>
   <cc:Work rdf:about="">
    <dc:format>image/svg+xml</dc:format>
    <dc:type rdf:resource="http://purl.org/dc/dcmitype/StillImage"/>
    <dc:title/>
   </cc:Work>
  </rdf:RDF>
 </metadata>
 <g id="layer1" transform="translate(0 -266.14)">
  <circle id="path853-5" cx="15.429" cy="281.57" r="15.429" fill="#351431"/>
  <circle id="path853" cx="15.429" cy="281.57" r="0" fill="#031d44"/>
 </g>
 <g id="layer2">
  <path id="path15352" d="m23.204 17.623c1.2117-1.9909 1.561-4.4247 0.95855-6.6769-1.0024-3.7458-4.4101-6.3616-8.2877-6.3616h-0.55266c-4.6535 0-8.4394 3.7859-8.4394 8.4394v1.1196l-1.5696 2.4117c-0.1831 0.28157-0.23477 0.6283-0.14228 0.95106 0.09286 0.32239 0.32014 0.58861 0.62455 0.72977l1.127 0.52421 0.44632 2.5413c0.22691 1.2918 1.3435 2.2294 2.6551 2.2294h2.0657c0.27072 0 0.50698 0.19246 0.56202 0.45718l0.33362 1.6044c0.03594 0.17374 0.18909 0.29842 0.36657 0.29842h7.9567c0.1127 0 0.21942-0.05092 0.29056-0.13816 0.07114-0.08725 0.09922-0.20219 0.07601-0.31228l-0.50923-2.4514c-0.20145-0.96941-0.02882-1.9691 0.48601-2.8154zm-11.933-3.0797c-0.35684 0.27783-0.81739 0.4306-1.297 0.4306-0.48002 0-0.94058-0.15277-1.2974-0.4306-0.16325-0.12693-0.19246-0.36245-0.065525-0.52533 0.12731-0.16288 0.36245-0.19246 0.52533-0.06552 0.45194 0.35122 1.2225 0.35197 1.6745 0 0.16288-0.12768 0.39802-0.09773 0.52533 0.06552 0.12731 0.16288 0.09811 0.3984-0.06515 0.52533zm7.3726-0.68521c-0.07301 0.07301-0.16887 0.1097-0.26472 0.1097-0.09585 0-0.19171-0.03669-0.26473-0.1097-0.1464-0.14641-0.1464-0.38305 0-0.52945 1.4034-1.4034 1.4034-3.6874 0-5.0908-0.68034-0.68035-1.5842-1.0552-2.545-1.0552-0.9608 0-1.8647 0.37481-2.5454 1.0552-0.49276 0.49275-0.76422 1.1469-0.76422 1.843 0 0.69532 0.27146 1.3498 0.76422 1.8426 0.49275 0.49276 1.1469 0.76422 1.8426 0.76422s1.3498-0.27184 1.8426-0.76422c0.62867-0.62905 0.62867-1.6516 0-2.2807-0.62867-0.6283-1.6516-0.6283-2.2803 0-0.24151 0.24151-0.24151 0.63429 0 0.8758 0.23402 0.23402 0.6414 0.23402 0.87543 0 0.14603-0.1464 0.38304-0.1464 0.52945 0 0.1464 0.1464 0.1464 0.38304 0 0.52945-0.51672 0.51709-1.4176 0.51709-1.9343 0-0.53357-0.53357-0.53357-1.4011 0-1.9347 0.92073-0.92073 2.4185-0.92073 3.3392 0 0.92073 0.92073 0.92073 2.4188 0 3.3396-0.63392 0.63392-1.4764 0.98364-2.372 0.98364s-1.7381-0.34972-2.372-0.98364c-0.63429-0.63392-0.98326-1.4764-0.98326-2.372 0-0.89602 0.34935-1.7385 0.98326-2.3724 0.82188-0.82188 1.9137-1.2746 3.0748-1.2746 1.1607 0 2.253 0.45269 3.0745 1.2746 1.6954 1.6958 1.6954 4.4543 0 6.1497z" fill="#fff" stroke-width=".26458"/>
 </g>
</svg>
