<?xml version="1.0" encoding="UTF-8"?>
<!-- Created with Inkscape (http://www.inkscape.org/) -->
<svg id="svg1933" width="116.63" height="116.63" version="1.1" viewBox="0 0 30.858 30.858" xmlns="http://www.w3.org/2000/svg" xmlns:cc="http://creativecommons.org/ns#" xmlns:dc="http://purl.org/dc/elements/1.1/" xmlns:rdf="http://www.w3.org/1999/02/22-rdf-syntax-ns#">
 <defs id="defs1927">
  <style id="style10671">.cls-1{fill:#000000;}</style>
 </defs>
 <metadata id="metadata1930">
  <rdf:RDF>
   <cc:Work rdf:about="">
    <dc:format>image/svg+xml</dc:format>
    <dc:type rdf:resource="http://purl.org/dc/dcmitype/StillImage"/>
    <dc:title/>
   </cc:Work>
  </rdf:RDF>
 </metadata>
 <g id="layer1" transform="translate(0 -266.14)">
  <circle id="path853-5" cx="15.429" cy="281.57" r="15.429" fill="#266334"/>
  <circle id="path853" cx="15.429" cy="281.57" r="0" fill="#031d44"/>
 </g>
 <g id="layer2">
  <g id="g49950" transform="matrix(.081373 0 0 .081373 2.6795 6.0164)" fill="#fff" stroke-width="3.2515">
   <circle id="circle49856" cx="210.33" cy="159.86" r="4.071"/>
   <ellipse id="ellipse49858" cx="210.33" cy="147.31" rx="2.714" ry="6.446"/>
   <ellipse id="ellipse49860" cx="210.33" cy="172.41" rx="2.714" ry="6.447"/>
   <ellipse id="ellipse49862" transform="matrix(.707 -.7072 .7072 .707 -42.552 199.26)" cx="219.2" cy="150.98" rx="6.446" ry="2.715"/>
   <ellipse id="ellipse49864" transform="matrix(.7071 -.7071 .7071 .7071 -60.311 191.88)" cx="201.45" cy="168.74" rx="6.446" ry="2.714"/>
   <ellipse id="ellipse49866" cx="222.88" cy="159.86" rx="6.446" ry="2.714"/>
   <ellipse id="ellipse49868" cx="197.77" cy="159.86" rx="6.446" ry="2.714"/>
   <ellipse id="ellipse49870" transform="matrix(.7071 -.7071 .7071 .7071 -55.11 204.44)" cx="219.2" cy="168.74" rx="2.715" ry="6.446"/>
   <ellipse id="ellipse49872" transform="matrix(.7071 -.7071 .7071 .7071 -47.76 186.66)" cx="201.45" cy="150.98" rx="2.714" ry="6.446"/>
   <path id="path49874" d="m218.3 192.25c0.584-1.705-0.348-3.568-5.889-5.465-5.541-1.898-13.594-3.111-14.178-1.406s6.523 5.683 12.064 7.58c5.542 1.897 7.421 0.996 8.003-0.709z"/>
   <path id="path49876" d="m225.99 191.15c1.684 0.644 3.58-0.221 5.672-5.691 2.094-5.471 3.594-13.475 1.91-14.119-1.684-0.645-5.912 6.316-8.006 11.787-2.092 5.469-1.258 7.378 0.424 8.023z"/>
   <path id="path49878" d="m221.94 209.3c0.623-3.466 0.887-6.813 0.887-9.961-6e-3 -14.167-5.131-24.412-5.168-24.494-0.248-0.495-0.85-0.694-1.342-0.447-0.496 0.246-0.693 0.848-0.445 1.341h-2e-3c0 2e-3 0.297 0.591 0.758 1.73 1.395 3.419 4.201 11.61 4.199 21.87 0 3.157-0.275 6.515-0.928 9.988-4.707 0.212-13.57 1.476-13.57 5.965h13.428c2e-3 0 6e-3 1e-3 8e-3 1e-3s4e-3 -1e-3 6e-3 -1e-3h16.559c-1e-3 -4.765-9.991-5.896-14.39-5.992z"/>
   <path id="path49880" d="m277.56 172.32c-4.81 2.213-10.838 6.439-10.156 7.92 0.682 1.48 7.813-0.348 12.623-2.561 4.809-2.212 5.477-3.974 4.795-5.453-0.68-1.48-2.451-2.119-7.262 0.094z"/>
   <path id="path49882" d="m253.76 161.82c-1.41 0.642-2.025 2.324 0.061 6.911 2.086 4.585 6.082 10.338 7.494 9.696 1.41-0.642-0.299-7.435-2.385-12.021-2.086-4.585-3.757-5.228-5.17-4.586z"/>
   <path id="path49884" d="m264.82 209.35c-0.131-0.604-0.27-1.295-0.41-2.064-0.563-3.076-1.127-7.371-1.127-12.214 0-9.072 1.975-20.009 9.486-28.604 0.361-0.415 0.318-1.047-0.096-1.41-0.418-0.363-1.049-0.319-1.412 0.096-7.959 9.122-9.979 20.577-9.979 29.918 2e-3 5.947 0.818 11.046 1.484 14.226-4.185 0.04-14.752 1.097-14.752 5.998h30c1e-3 -4.371-8.407-5.685-13.194-5.946z"/>
   <path id="path49886" d="m273.78 133.27c-0.244-0.506-0.605-0.852-1.082-1.035-0.477-0.184-0.959-0.157-1.449 0.078-0.488 0.238-0.807 0.602-0.957 1.096-0.15 0.49-0.104 0.986 0.137 1.484 0.213 0.436 1.063 1.833 2.555 4.191s2.897 4.656 4.217 6.893l1.021-0.494c-0.908-2.436-1.824-4.97-2.744-7.605-0.92-2.636-1.487-4.171-1.698-4.608z"/>
   <path id="path49888" d="m284.96 157.46c-1.492-2.358-2.896-4.656-4.217-6.893l-1.021 0.494c0.91 2.436 1.824 4.971 2.744 7.605 0.922 2.636 1.486 4.171 1.697 4.608 0.244 0.505 0.607 0.851 1.084 1.034 0.477 0.184 0.959 0.157 1.447-0.078 0.49-0.237 0.807-0.602 0.957-1.095 0.15-0.491 0.105-0.986-0.137-1.484-0.21-0.437-1.062-1.834-2.554-4.191z"/>
   <path id="path49890" d="m280.26 130.59c-0.543-0.041-1 0.116-1.377 0.469-0.373 0.351-0.582 0.802-0.623 1.354-0.035 0.484 4e-3 2.119 0.117 4.908 0.113 2.787 0.182 5.48 0.205 8.077l1.131 0.083c0.43-2.564 0.906-5.217 1.426-7.96 0.521-2.741 0.799-4.354 0.834-4.839 0.041-0.56-0.098-1.039-0.42-1.437-0.321-0.397-0.752-0.616-1.293-0.655z"/>
   <path id="path49892" d="m276.8 159.02c-0.522 2.742-0.799 4.355-0.834 4.839-0.041 0.56 0.1 1.04 0.42 1.437s0.752 0.616 1.293 0.657c0.543 0.039 1-0.117 1.377-0.47 0.375-0.351 0.582-0.802 0.623-1.355 0.035-0.483-4e-3 -2.119-0.115-4.907-0.113-2.788-0.184-5.48-0.207-8.078l-1.131-0.082c-0.43 2.564-0.907 5.216-1.426 7.959z"/>
   <path id="path49894" d="m288.93 133.6c-0.449-0.304-0.924-0.398-1.426-0.281s-0.906 0.404-1.217 0.861c-0.273 0.4-1.057 1.836-2.354 4.308s-2.584 4.838-3.861 7.099l0.94 0.637c1.654-2.005 3.392-4.064 5.215-6.18 1.822-2.113 2.867-3.371 3.139-3.772 0.318-0.466 0.435-0.951 0.357-1.455-0.081-0.506-0.344-0.911-0.793-1.217z"/>
   <path id="path49896" d="m269.01 162.94c0.449 0.305 0.926 0.397 1.426 0.281 0.502-0.116 0.908-0.403 1.217-0.86 0.274-0.401 1.057-1.837 2.354-4.309s2.584-4.837 3.861-7.099l-0.94-0.637c-1.652 2.005-3.392 4.064-5.213 6.18-1.822 2.114-2.869 3.372-3.141 3.773-0.316 0.465-0.436 0.949-0.357 1.454 0.08 0.507 0.343 0.911 0.793 1.217z"/>
   <path id="path49898" d="m281.26 146.5 0.494 1.021c2.434-0.909 4.969-1.824 7.605-2.745 2.635-0.919 4.17-1.486 4.608-1.697 0.506-0.244 0.85-0.605 1.035-1.082 0.184-0.477 0.156-0.959-0.08-1.447-0.236-0.49-0.6-0.809-1.094-0.958-0.492-0.148-0.986-0.105-1.484 0.138-0.435 0.21-1.834 1.061-4.191 2.554-2.359 1.49-4.656 2.895-6.893 4.216z"/>
   <path id="path49900" d="m276.68 150.04-0.494-1.021c-2.438 0.909-4.971 1.825-7.607 2.745-2.635 0.92-4.17 1.485-4.607 1.697-0.506 0.245-0.85 0.605-1.033 1.083-0.184 0.475-0.158 0.958 0.078 1.447s0.601 0.808 1.094 0.957c0.492 0.149 0.986 0.104 1.484-0.137 0.438-0.211 1.834-1.063 4.191-2.555 2.358-1.49 4.655-2.896 6.894-4.216z"/>
   <path id="path49902" d="m294.83 147.56c-0.484-0.036-2.119 3e-3 -4.908 0.115-2.789 0.113-5.48 0.182-8.078 0.206l-0.082 1.132c2.563 0.43 5.217 0.905 7.959 1.426s4.355 0.798 4.838 0.834c0.56 0.04 1.041-0.1 1.438-0.42 0.398-0.321 0.617-0.752 0.656-1.295 0.039-0.541-0.117-0.999-0.469-1.375-0.352-0.375-0.803-0.583-1.354-0.623z"/>
   <path id="path49904" d="m261.94 145.69c-0.398 0.321-0.615 0.753-0.656 1.295-0.039 0.541 0.117 1 0.469 1.376 0.352 0.374 0.803 0.582 1.353 0.622 0.484 0.035 2.119-3e-3 4.908-0.116 2.789-0.111 5.48-0.181 8.078-0.205l0.082-1.131c-2.565-0.431-5.217-0.905-7.959-1.426s-4.354-0.8-4.838-0.834c-0.56-0.042-1.04 0.099-1.437 0.419z"/>
   <path id="path49906" d="m293.06 155.58c-0.4-0.271-1.838-1.057-4.309-2.353-2.471-1.297-4.838-2.583-7.098-3.86l-0.637 0.939c2.004 1.652 4.064 3.391 6.178 5.213 2.115 1.822 3.373 2.869 3.775 3.142 0.465 0.316 0.949 0.434 1.455 0.355 0.504-0.079 0.908-0.344 1.215-0.792 0.305-0.449 0.398-0.925 0.281-1.425-0.115-0.503-0.403-0.908-0.86-1.219z"/>
   <path id="path49908" d="m265.52 137.52c-0.504 0.079-0.91 0.344-1.215 0.792-0.305 0.45-0.4 0.925-0.281 1.425 0.115 0.502 0.402 0.907 0.859 1.219 0.402 0.272 1.838 1.057 4.309 2.353 2.471 1.297 4.838 2.583 7.1 3.86l0.637-0.938c-2.006-1.654-4.066-3.392-6.18-5.214-2.115-1.822-3.373-2.869-3.773-3.141-0.465-0.317-0.952-0.435-1.456-0.356z"/>
   <path id="path49910" d="m89.488 140.98c0.065-1.917 0.096-3.775 0.094-5.571 0-3.466-0.111-6.697-0.293-9.68 2.338 2.157 6.186 6.085 9.908 11.555 0.801 1.177 1.592 2.423 2.367 3.728 8.293-0.877 16.514-3.399 24.969-6.371-2.316-4.716-4.871-8.889-7.412-12.493-1.041 0.061-2.086 0.103-3.145 0.103-2.775 0-5.553-0.224-8.313-0.675-14.266-2.764-22.436-12.416-22.676-15.253-0.066-0.799 0.268-1.533 0.859-1.972 0.416-0.337 0.939-0.517 1.504-0.517 1.166 0 2.295 0.734 4.549 2.199 3.565 2.317 9.527 6.195 17.365 7.838 1.25 0.252 2.529 0.441 3.828 0.57-1.762-2.032-3.414-3.761-4.889-5.212-7.311-22.396-3.213-34.139 5.324-48.36 9.367 2.64 27.729 9.813 47.078 28.518 1.553 1.502 3.557 2.249 5.561 2.249 2.092 0 4.182-0.815 5.75-2.438 3.072-3.177 2.986-8.242-0.189-11.312-19.129-18.488-37.664-27.128-49.596-31.103-4.396 6.579-11.891 10.923-20.381 10.923-12.396 0-22.666-9.256-24.275-21.216-1.715-0.381-3.428-0.763-5.143-1.144-0.178-0.041-0.377-0.06-0.576-0.082-0.764-0.242-1.576-0.375-2.422-0.375v-3e-3c-3.299 9e-3 -6.24 0.919-8.875 2.139-4.607 2.17-8.605 5.329-12.783 8.869-6.215 5.318-12.709 11.62-19.727 17.109-7.006 5.499-14.449 10.089-22.148 12.275-4.248 1.213-6.707 5.641-5.492 9.891 1.003 3.511 4.206 5.801 7.691 5.801 0.726 0 1.467-0.1 2.201-0.309 16.258-4.718 28.814-15.683 39.051-24.772 2.164-1.938 4.215-3.793 6.152-5.505-1.141 16.698 1.859 30.198 6.221 48.365 0.072 0.392 0.16 0.785 0.271 1.177v-2e-3h2e-3c0.182 0.681 2.162 8.404 2.596 20.693 4.619 3.139 11.748 7.674 20.912 9.696 1.352 0.289 2.711 0.5 4.082 0.667z"/>
   <path id="path49912" d="m64.474 140.65c-0.592 15.815-3.988 36.367-14.541 58.867-2.932 6.251-0.242 13.693 6.01 16.627 1.715 0.805 3.521 1.186 5.299 1.186 4.697 0 9.199-2.661 11.326-7.196 10.422-22.217 14.871-42.992 16.373-60.179-1.805-0.148-3.606-0.372-5.399-0.681-8.107-1.656-14.46-5.066-19.068-8.624z"/>
   <path id="path49914" d="m110.62 173.67c-4e-3 7.879-1.396 16.758-5.1 26.84-2.383 6.479 0.936 13.663 7.414 16.047 1.424 0.524 2.881 0.772 4.314 0.772 5.09 0 9.873-3.132 11.736-8.186 4.664-12.67 6.639-24.595 6.637-35.473 4e-3 -12.036-2.408-22.644-5.898-31.696-7.766 2.994-15.73 5.727-24.059 7.153 2.911 6.895 4.952 15.063 4.956 24.543z"/>
   <circle id="circle49916" cx="101.75" cy="33.206" r="22.5"/>
   <rect id="rect49918" transform="matrix(.9517 -.3071 .3071 .9517 -22.83 40.683)" x="116.62" y="72.389" width="2.499" height="41"/>
   <rect id="rect49920" transform="matrix(.7879 -.6159 .6159 .7879 -23.91 99.867)" x="131.75" y="64.138" width="2.499" height="41"/>
   <path id="path49922" d="m124.61 83.735-2.049 1.113 14.281 26.309c0.756-0.23 1.512-0.466 2.27-0.71z"/>
   <path id="path49924" d="m108.87 115.83c-12.893-2.701-20.748-11.038-21.805-9.89-0.967 0.364 6.123 10.792 20.976 13.672 23.018 3.748 41.893-10.097 61.988-14.062 20.736-3.087 41.996 2.897 61.65 9.775 12.738 4.994 12.898 4.748 0.25-0.591-19.57-7.37-40.572-14.03-62.309-11.402-21.01 3.82-40.246 16.626-60.75 12.498z"/>
   <path id="path49926" d="m240.57 140.82c-24.742-9.827-51.293-18.708-78.775-15.202-26.563 5.091-50.881 22.165-76.805 16.661-16.299-3.602-26.23-14.716-27.564-13.187-1.223 0.486 7.74 14.39 26.518 18.23 29.1 4.997 52.963-13.463 78.369-18.749 26.217-4.116 53.092 3.862 77.941 13.033 16.103 6.66 16.306 6.332 0.316-0.786z"/>
   <path id="path49928" d="m114.67 6.858c1.543 0.052 3.303 0.502 4.609 3.563 0.158 0.388 0.531 0.621 0.926 0.621 0.127 0 0.256-0.024 0.381-0.075 0.51-0.21 0.754-0.794 0.545-1.306-1.494-3.753-4.363-4.853-6.461-4.803-1.768 7e-3 -3.055 0.61-3.131 0.642-0.5 0.233-0.719 0.828-0.484 1.329 0.234 0.502 0.828 0.718 1.33 0.484h-2e-3s0.211-0.099 0.631-0.218c0.419-0.118 1.011-0.237 1.656-0.237z"/>
   <path id="path49930" d="m124.12 8.906c0.113 0 0.229-0.02 0.342-0.061 0.52-0.19 0.785-0.765 0.596-1.283-2.18-6.09-6.633-7.618-9.758-7.56-2.254 2e-3 -3.895 0.66-3.967 0.688-0.514 0.206-0.764 0.786-0.557 1.301 0.205 0.512 0.787 0.762 1.301 0.557l-2e-3 -2e-3c2e-3 0 0.307-0.123 0.891-0.263 0.582-0.144 1.408-0.283 2.334-0.283 2.6 0.058 5.867 0.913 7.879 6.249 0.148 0.405 0.531 0.657 0.941 0.657z"/>
   <path id="path49932" d="m154.91 56.451c0.131 0.536 0.676 0.864 1.211 0.731 0 0 0.086-0.022 0.297-0.053 0.209-0.029 0.516-0.062 0.881-0.062 1.676 0.085 4.117 0.412 4.99 4.492 0.094 0.477 0.512 0.807 0.979 0.807 0.064 0 0.131-7e-3 0.195-0.02 0.543-0.106 0.896-0.634 0.787-1.176-0.951-5.104-4.871-6.188-6.951-6.104-0.951 0-1.602 0.158-1.658 0.171-0.536 0.134-0.864 0.678-0.731 1.214z"/>
   <path id="path49934" d="m163.9 51.958c-2.105-1.353-4.35-1.609-5.822-1.611-1.008 0-1.666 0.123-1.713 0.132-0.543 0.104-0.898 0.628-0.795 1.171 0.104 0.541 0.627 0.896 1.168 0.793 2e-3 0 0.496-0.096 1.34-0.096 1.242-2e-3 3.105 0.232 4.736 1.29 1.629 1.064 3.129 2.914 3.719 6.545 0.076 0.492 0.504 0.844 0.986 0.844 0.053 0 0.104-4e-3 0.156-0.012 0.547-0.088 0.92-0.601 0.832-1.146-0.634-4.072-2.495-6.562-4.607-7.91z"/>
   <polygon id="polygon49936" points="156.73 52.442 156.74 52.442"/>
   <path id="path49938" d="m56.605 158.49c0.434-0.338 0.514-0.966 0.176-1.402s-0.965-0.516-1.402-0.176c-2.33 1.78-3.172 3.896-3.154 5.694 0.023 2.719 1.648 4.568 1.705 4.656 0.197 0.232 0.479 0.352 0.762 0.352 0.229 0 0.461-0.078 0.648-0.237 0.42-0.357 0.473-0.989 0.115-1.409v-2e-3s-0.057-0.063-0.172-0.229c-0.355-0.502-1.066-1.749-1.059-3.13 0.018-1.218 0.454-2.601 2.381-4.117z"/>
   <path id="path49940" d="m52.308 153.69c-3.834 2.713-5.088 5.954-5.066 8.671 0.018 3.674 2.055 6.301 2.107 6.389 0.197 0.258 0.494 0.394 0.795 0.394 0.211 0 0.424-0.066 0.605-0.204 0.441-0.336 0.525-0.962 0.191-1.4l-2e-3 -2e-3s-0.084-0.109-0.242-0.366c-0.484-0.766-1.463-2.643-1.455-4.809 0.02-2.134 0.838-4.595 4.227-7.047 0.447-0.32 0.553-0.944 0.232-1.394-0.321-0.452-0.944-0.554-1.392-0.232z"/>
   <path id="path49942" d="m22.902 56.154c-3.063-0.025-4.963 1.604-5.871 3.159-0.935 1.554-1.074 3.015-1.084 3.098-0.057 0.549 0.344 1.039 0.895 1.095 0.033 3e-3 0.066 5e-3 0.102 5e-3 0.506 0 0.941-0.386 0.992-0.901 0-3e-3 0.021-0.242 0.141-0.678 0.416-1.358 1.357-3.763 4.826-3.777 0.373 0 0.773 0.025 1.207 0.091 0.545 0.081 1.055-0.295 1.137-0.841 0.08-0.547-0.295-1.054-0.84-1.137-0.536-0.082-1.034-0.116-1.505-0.114z"/>
   <path id="path49944" d="m24.588 51.819c-0.998-0.188-1.924-0.271-2.783-0.271-4.31-0.019-6.973 2.186-8.367 4.322-1.414 2.137-1.727 4.195-1.744 4.276-0.084 0.546 0.291 1.058 0.838 1.142 0.051 8e-3 0.102 0.011 0.15 0.011 0.486 0 0.914-0.353 0.992-0.848l-2e-3 -2e-3s0.057-0.392 0.271-1.054c0.705-2.03 2.5-5.839 7.861-5.848 0.731 0 1.533 0.07 2.416 0.233 0.543 0.101 1.064-0.257 1.166-0.798 0.104-0.541-0.255-1.063-0.798-1.163z"/>
   <path id="path49946" d="m139.9 155.29c-0.508-0.221-1.096 9e-3 -1.318 0.515-0.221 0.507 0.01 1.097 0.514 1.317 0 0 0.154 0.064 0.443 0.241 0.902 0.553 2.572 1.886 2.553 4.101 0 0.787-0.197 1.735-0.762 2.884-0.244 0.496-0.041 1.096 0.457 1.341 0.141 0.07 0.291 0.102 0.439 0.102 0.371 0 0.727-0.205 0.9-0.559 0.674-1.374 0.967-2.635 0.967-3.768-0.072-4.43-4.126-6.125-4.193-6.174z"/>
   <path id="path49948" d="m143.37 151.95c-0.494-0.249-1.098-0.051-1.344 0.443-0.25 0.492-0.053 1.095 0.441 1.345 0 0 0.248 0.122 0.678 0.415 1.316 0.9 3.852 3.116 3.836 6.653 0 1.4-0.381 3.061-1.443 5.03-0.264 0.484-0.082 1.093 0.404 1.355 0.15 0.081 0.314 0.12 0.475 0.12 0.355 0 0.699-0.191 0.883-0.524 1.191-2.207 1.684-4.211 1.682-5.982-0.061-6.11-5.542-8.799-5.612-8.855z"/>
  </g>
 </g>
</svg>
