<?xml version="1.0" encoding="UTF-8"?>
<!-- Created with Inkscape (http://www.inkscape.org/) -->
<svg id="svg1933" width="116.63" height="116.63" version="1.1" viewBox="0 0 30.858 30.858" xmlns="http://www.w3.org/2000/svg" xmlns:cc="http://creativecommons.org/ns#" xmlns:dc="http://purl.org/dc/elements/1.1/" xmlns:rdf="http://www.w3.org/1999/02/22-rdf-syntax-ns#">
 <defs id="defs1927">
  <style id="style10671">.cls-1{fill:#000000;}</style>
  <style id="style10671-0">.cls-1{fill:#000000;}</style>
  <style id="style10671-05">.cls-1{fill:#000000;}</style>
 </defs>
 <metadata id="metadata1930">
  <rdf:RDF>
   <cc:Work rdf:about="">
    <dc:format>image/svg+xml</dc:format>
    <dc:type rdf:resource="http://purl.org/dc/dcmitype/StillImage"/>
    <dc:title/>
   </cc:Work>
  </rdf:RDF>
 </metadata>
 <g id="layer1" transform="translate(0 -266.14)">
  <circle id="path853-5" cx="15.429" cy="281.57" r="15.429" fill="#266334"/>
  <circle id="path853" cx="15.429" cy="281.57" r="0" fill="#031d44"/>
 </g>
 <g id="layer2" fill="#fff">
  <g id="g73483" transform="matrix(.14996 0 0 .14996 12.463 16.817)" stroke-width="1.7644">
   <path id="path73477" d="m80.131 47.553c2.58-1.521 2.667-2.13 2.74-2.643 0.075-0.533-0.114-1.067-0.512-1.432-3.99-3.654-8.141-6.486-12.426-8.502-3.982-7.954-7.418-12.267-13.785-12.267l-0.373 5e-3c-1.217 0.031-2.145 0.408-2.756 1.122-0.997 1.164-0.793 2.739-0.613 4.128 0.254 1.968 0.168 2.486-0.464 2.771l-1.624 0.732c-12.54 1.14-22.337 8.122-26.569 11.674-1.703-8.326-10.147-11.636-14.842-12.223-0.427-0.054-0.856 0.079-1.179 0.364s-0.507 0.694-0.507 1.125c0 7.878 2.712 11.709 5.333 13.572-0.739 0.441-1.412 1-2.015 1.673-4.309 4.814-3.351 13.931-3.309 14.317 0.044 0.398 0.247 0.763 0.562 1.012 0.266 0.21 0.594 0.322 0.929 0.322 0.062 0 0.124-4e-3 0.186-0.012 4.695-0.587 13.14-3.896 14.842-12.224 1.718 1.442 4.355 3.452 7.718 5.408 0.178 2.575 0.966 8.753 4.444 10.438 0.516 0.25 1.047 0.377 1.58 0.377 2.906 0 4.575-3.684 5.328-5.95 3.384 0.958 7.059 1.577 10.97 1.577h4e-3c10.126 0 19.737-4.1 28.568-12.188 0.418-0.384 0.618-1.059 0.463-1.604-0.269-0.946-1.02-1.229-2.693-1.572zm-59.077 0.416c0 8.424-7.563 11.212-10.941 12.036-0.065-2.92 0.342-7.761 2.662-10.353 1.151-1.287 2.653-1.912 4.592-1.912 0.829 0 1.5-0.672 1.5-1.5 0-0.829-0.671-1.5-1.5-1.5-0.068 0-6.417-0.127-7.088-10.5 3.452 0.863 10.775 3.677 10.775 12 0 0.316 0.1 0.617 0.274 0.864-0.175 0.249-0.274 0.548-0.274 0.865zm34.22-22.16c1e-3 -1e-3 0.136-0.085 0.577-0.097l0.297-4e-3c3.739 0 6.284 1.919 9.472 7.535-2.232-0.75-4.498-1.283-6.794-1.599l-3.499-0.598c0.348-1.197 0.178-2.511 0.054-3.468-0.075-0.582-0.201-1.559-0.107-1.769zm-17.783 38.482c-0.075 0-0.167-0.025-0.271-0.076-1.295-0.628-2.141-3.376-2.54-6.021 1.639 0.81 3.403 1.568 5.28 2.236-0.715 2.118-1.787 3.861-2.469 3.861zm37.201-15.783c0.334 1.089 1.381 1.318 3.648 1.753-7.697 6.411-15.942 9.657-24.548 9.657h-4e-3c-4.16 0-8.073-0.769-11.62-1.928l-8.343-3.677c-5.489-3.058-9.145-6.386-10.01-7.209 1.687-1.61 14.009-12.814 29.972-12.814 1.604 0 3.195 0.117 4.772 0.342l1.772 0.298 7.895 2.563c3.745 1.705 7.39 4.084 10.916 7.138-0.95 0.587-2.391 1.37-3.65 1.993-0.146 0.073-0.28 0.169-0.396 0.284-0.421 0.424-0.576 1.037-0.404 1.6z"/>
   <path id="path73479" d="m58.062 53.201c-0.873 0.96-3.792 3.495-5.709 2.564-2.093-1.016-2.731-4.392-2.801-5.607-0.045-0.825-0.759-1.44-1.576-1.416-0.827 0.043-1.463 0.749-1.42 1.576 0.013 0.25 0.367 6.148 4.488 8.146 0.733 0.356 1.479 0.505 2.21 0.505 3.59 0 6.867-3.572 7.032-3.755 0.555-0.614 0.506-1.56-0.106-2.116-0.614-0.553-1.56-0.507-2.118 0.103z"/>
   <path id="path73481" d="m70.899 41.123c-0.586-0.586-1.535-0.586-2.121 0l-1.155 1.155-1.155-1.156c-0.586-0.586-1.535-0.586-2.121 0-0.586 0.585-0.586 1.536 0 2.121l1.155 1.155-1.155 1.155c-0.586 0.586-0.586 1.535 0 2.121 0.293 0.293 0.677 0.439 1.061 0.439s0.768-0.146 1.061-0.439l1.155-1.155 1.155 1.155c0.293 0.293 0.677 0.439 1.061 0.439s0.768-0.146 1.061-0.439c0.586-0.586 0.586-1.535 0-2.121l-1.155-1.155 1.155-1.155c0.584-0.584 0.584-1.534-2e-3 -2.12z"/>
  </g>
  <g id="g73517" transform="matrix(.034771 0 0 .034771 2.9988 2.2627)" stroke-width="7.6094">
   <path id="path73497" d="m242.96 357.48c3.432 0.595 7.616 2 8.067 5.318a6.54 6.54 0 0 1-1.692 5.016 6 6 0 0 0-5.013 10.83 9.866 9.866 0 0 0 5.1 1.425 11.365 11.365 0 0 0 6.683-2.312 18.106 18.106 0 0 0 6.536-18.091c-0.994-4.263-4.607-11.75-17.626-14.01a6.0005 6.0005 0 1 0-2.053 11.824z"/>
   <path id="path73499" d="m247.73 339.52c0.087 0 2.2 0.074 5.346 2.88a6.0003 6.0003 0 0 0 7.981-8.962c-7.122-6.341-13.205-6-14.35-5.864l1.385 11.92a1.277 1.277 0 0 1-0.362 0.026z"/>
   <path id="path73501" d="m257.46 383.24c-4.2 3.775-10.866 2.937-11.069 2.912a6.0004 6.0004 0 0 0-1.8 11.865 25.223 25.223 0 0 0 3.686 0.246c4.292 0 11.431-0.91 17.2-6.1a6 6 0 1 0-8.023-8.923z"/>
   <path id="path73503" d="m38.751 498.25h434.5a6 6 0 0 0 6-6 37.318 37.318 0 0 0-40.964-37.136q-5.817 0.57-11.478 1.146c-18.006 1.814-35.418 3.567-49.242 3.7-6.923-1.38-77.67-16.938-84.808-75.346-2.308-18.876-4.781-35.141-6.964-49.492-4.823-31.716-8.308-54.631-2.324-62.44 9.694-12.651 32.64-26.515 32.871-26.654a6 6 0 0 0 2.024-8.283l-9.841-16.031a6 6 0 0 0-5.1-2.861h-0.014a6 6 0 0 0-5.1 2.838c-2.144 3.457-7.612 6.755-15.4 9.285a3.186 3.186 0 0 1-3.078-0.581 2.971 2.971 0 0 1-1.061-2.764c1.881-13.487 6-38.63 12.469-55.479a53.117 53.117 0 0 0 2.827-10.365 6.021 6.021 0 0 0 0.132-0.787c1.891-12.542-1.12-23.424-3.462-31.876-1.762-6.363-3.284-11.858-2.054-15.252 3.6-9.948 29.824-26.125 40.177-28.944a6 6 0 0 0 4.189-7.452l-5.463-18.936a6 6 0 0 0-6.436-4.3c-23.151 2.604-48.17 24.319-57.851 33.535a2.264 2.264 0 0 1-3.382-0.33 2.183 2.183 0 0 1-0.295-2.015c2.458-7.187 6.322-17.476 10.771-25.674a16.3 16.3 0 0 1 13.3-8.9 6 6 0 0 0 5.384-5.981l-0.038-17.432a6 6 0 0 0-5.119-5.922c-0.876-0.13-21.644-2.984-34.811 14.856-3.009 4.078-7.873 6.3-11.423 7.449-2.067 0.667-3.883 0.567-4.986-0.277s-1.665-2.528-1.557-4.717a99.88 99.88 0 0 1 2.417-17.6 6 6 0 0 0-6.63-7.434l-17.752 2.442a6 6 0 0 0-5.029 4.591c-2.729 11.793-2.459 28.8 0.782 49.171 3.153 19.817 13.45 43.54 19.307 55.917a104.84 104.84 0 0 1 8.857 28c1.874 11.559 0.25 14.98-0.128 15.586-3.844 0.383-14.032-4.244-30.266-18.551a3.756 3.756 0 0 1-0.082-5.549l4.727-4.465a6 6 0 0 0 0.405-8.3l-12.302-14.127a6 6 0 0 0-4.525-2.06h-0.016a6 6 0 0 0-4.53 2.084l-5.953 6.911a3.828 3.828 0 0 1-3.988 0.017l-30.338-12.38a6 6 0 0 0-7.973 3.744l-6.2 19.5a6 6 0 0 0 4.286 7.644c0.289 0.071 29.078 7.349 45.4 29.294 14.255 19.163 32.515 23.352 41.291 25.364a6.223 6.223 0 0 1 4.9 6.081c-0.029 8.889-1.064 25.656-7.681 38.077-4.068 7.634-5.564 18.548-5.664 30.1 0 0.116-6e-3 0.231 0 0.346a220.89 220.89 0 0 0 2.482 31.974 4.247 4.247 0 0 1-5.129 4.751l-14.38-3.174a6 6 0 0 0-7.01 4.037l-5.658 17.777a6 6 0 0 0 3.823 7.516c10.039 3.34 23.564 17.741 28.854 37.852 2.645 10.054 4.92 29.309-9.556 45.317-27.8 30.741-97.3 31.337-98 31.339v0.12c-18.356-1.931-36.548 1.524-49.828 5.314a37.794 37.794 0 0 0-27.306 36.192 6 6 0 0 0 6 6zm178.03-70.917c13.539-14.972 17.894-35.008 12.262-56.418-5.012-19.052-17.616-36.421-31.216-43.8l2.368-7.428 9.035 1.994a16.247 16.247 0 0 0 19.592-18.18 226.92 226.92 0 0 1-2.25-23.759 27.529 27.529 0 0 0 17.229-6.328 6 6 0 0 0-7.639-9.253 15.732 15.732 0 0 1-9.537 3.6c0.444-8.434 1.814-15.051 4.094-19.331 7.444-13.97 9.052-31.465 9.091-43.68a18.159 18.159 0 0 0-14.221-17.816c-7.944-1.822-22.729-5.213-34.345-20.831-14.128-18.993-35.586-28.3-46.045-31.915l2.4-7.55 23.067 9.35a15.866 15.866 0 0 0 17.572-1.395 6.054 6.054 0 0 0 0.817-0.784l1.889-2.194 3.974 4.564-0.539 0.508a15.756 15.756 0 0 0 0.388 23.275c6.491 5.722 26.235 23.132 39.786 21.446a11.537 11.537 0 0 0 7.975-4.635c3.606-4.811 4.371-12.681 2.412-24.768a116.86 116.86 0 0 0-9.854-31.215c-5.584-11.8-15.386-34.328-18.3-52.67-2.635-16.557-3.208-30.458-1.695-40.576l5.206-0.716c-0.475 3.189-0.923 7.094-1.137 11.412-0.3 6.155 1.973 11.563 6.245 14.836s10.1 4.068 15.975 2.168c7.493-2.421 13.5-6.48 17.387-11.74a25.229 25.229 0 0 1 18.288-10.115l0.014 6.572a28.3 28.3 0 0 0-17.224 14.068c-4.846 8.93-8.971 19.892-11.577 27.514a14.249 14.249 0 0 0 23.305 14.919c21.486-20.454 37.664-27.151 46-29.34l2.388 8.276a125.41 125.41 0 0 0-20.645 11.495c-8.255 5.632-18.76 14.176-21.918 22.893-2.535 7-0.443 14.548 1.772 22.544 1.836 6.63 3.817 13.834 3.608 21.75a11.993 11.993 0 0 1-8.86-8.341 6.0006 6.0006 0 0 0-11.611 3.035 24.241 24.241 0 0 0 18.405 17.149c-0.211 0.642-0.425 1.283-0.674 1.933-6.55 17.065-10.767 41.026-13.15 58.121a14.966 14.966 0 0 0 5.238 13.623 15.147 15.147 0 0 0 14.5 2.8 52.27 52.27 0 0 0 15.739-7.77l2.678 4.363c-7.913 5.187-22.987 15.818-31.1 26.4-9.089 11.863-5.866 33.061-0.013 71.543 2.17 14.269 4.63 30.442 6.915 49.144 3.36 27.5 19.4 50.542 46.484 66.93a257.27 257.27 0 0 0-28.141 0.729 33.769 33.769 0 0 1-17.258-14.039 6.001 6.001 0 0 0-10.562 5.7 43.6 43.6 0 0 0 8.331 10.292c-20.4 2.522-37.294 5.985-41.272 7.053-3.873 1.038-17.288 1.747-34.45 1.358 5.34-1.738 10.877-3.337 15.968-4.433 17.527-3.772 22.974-17.513 25.3-23.38 0.192-0.483 0.434-1.094 0.611-1.5a6 6 0 0 0-7.1-9.423c-2.6 1.3-3.556 3.709-4.663 6.5-2.154 5.435-5.41 13.647-16.669 16.071-16.951 3.647-37.584 12.126-43.174 14.491-8.948-0.816-18.035-1.949-26.705-3.474 23.475-4.131 52.323-12.92 69.236-31.622zm-153.43 40.267c15.587-4.448 38.473-8.44 58.973-2.2 39.773 12.1 105.75 12.546 119.21 8.934 12.277-3.292 82.482-15.649 109.48-5.6 15.276 5.686 42.51 2.941 76.991-0.532q5.639-0.569 11.447-1.143a25.363 25.363 0 0 1 27.089 19.194h-421.08a25.763 25.763 0 0 1 17.883-18.653z"/>
  </g>
 </g>
</svg>
