<?xml version="1.0" encoding="UTF-8"?>
<!-- Created with Inkscape (http://www.inkscape.org/) -->
<svg id="svg1933" width="30.858mm" height="30.858mm" version="1.1" viewBox="0 0 30.858 30.858" xmlns="http://www.w3.org/2000/svg" xmlns:cc="http://creativecommons.org/ns#" xmlns:dc="http://purl.org/dc/elements/1.1/" xmlns:rdf="http://www.w3.org/1999/02/22-rdf-syntax-ns#">
 <metadata id="metadata1930">
  <rdf:RDF>
   <cc:Work rdf:about="">
    <dc:format>image/svg+xml</dc:format>
    <dc:type rdf:resource="http://purl.org/dc/dcmitype/StillImage"/>
    <dc:title/>
   </cc:Work>
  </rdf:RDF>
 </metadata>
 <g id="layer1" transform="translate(0 -266.14)">
  <g id="g6510" transform="translate(-90.166 145.86)">
   <circle id="circle1093-0-8-1" cx="105.59" cy="135.71" r="15.429" fill="#351431" stroke-width=".465"/>
   <g id="g1333" transform="matrix(.085071 0 0 .085071 97.25 124.77)" fill="#fff" stroke-width="1.2453">
    <g id="g1315" fill="#fff" stroke-width="1.2453">
     <path id="path1301" d="m4.755 131.3c0 5.836 0.188 12.185 0.594 19.103 0.217 3.72 3.301 6.591 6.98 6.591 0.138 0 0.278-5e-3 0.417-0.013 3.858-0.228 6.805-3.537 6.579-7.396-0.392-6.671-0.569-12.748-0.569-18.284-0.012-8.959 0.461-16.483 1.241-22.78-3.571-0.196-9.124-0.782-13.796-2.501-0.919 7.145-1.441 15.488-1.446 25.28z"/>
     <path id="path1303" d="m26.72 237.39c0 6.831 5.537 12.364 12.363 12.364 6.828 0 12.365-5.533 12.365-12.364v-33.145c-5.16-0.156-15.18-0.822-24.729-2.868v36.013z"/>
     <path id="path1305" d="m56.083 237.39c0 6.831 5.537 12.364 12.363 12.364 6.828 0 12.365-5.533 12.365-12.364v-36.013c-9.551 2.046-19.57 2.712-24.728 2.868z"/>
     <path id="path1307" d="m191.26 16.332c0-0.829-0.671-1.5-1.498-1.5-0.829 0-1.5 0.671-1.5 1.5-0.01 4.212-3.066 7.691-7.084 8.373-0.052-0.137-0.093-0.289-0.148-0.42-0.373-0.86-0.828-1.612-1.439-2.217-0.598-0.598-1.441-1.071-2.412-1.068-0.975-3e-3 -1.815 0.471-2.414 1.068-0.705 0.729-1.247 1.672-1.654 2.766h-10.182v-21.334c0-1.934-1.566-3.5-3.5-3.5-1.932 0-3.5 1.566-3.5 3.5v21.333l-10.203-1e-3c-0.067-0.18-0.122-0.376-0.195-0.547-0.374-0.86-0.828-1.612-1.439-2.217-0.601-0.598-1.44-1.071-2.413-1.068-0.975-3e-3 -1.814 0.471-2.415 1.068-0.676 0.699-1.206 1.593-1.607 2.631-4.007-0.688-7.054-4.162-7.062-8.367 0-0.829-0.674-1.5-1.5-1.5-0.829 0-1.5 0.671-1.5 1.5 0 5.608 4.013 10.27 9.322 11.289-0.144 0.947-0.227 1.949-0.239 3.004 3e-3 1.386 0.15 2.683 0.403 3.875h-1.402c-2.209 0-4 1.791-4 4v32c0 2.209 1.791 4 4 4h3.583v1.666h-0.75c-1.15 0-2.083 0.934-2.083 2.084s0.933 2.084 2.083 2.084h2.206c0.011 0.841 0.02 1.915 0.02 3.205 0 9.003-0.441 28.026-3.673 44.712-1.61 8.339-3.931 16.093-7.169 21.662-3.266 5.592-7.279 8.872-12.43 8.875-4.124 0.011-9.24-2.149-15.414-7.443 0.061-0.307 0.107-0.619 0.127-0.94 0.402-6.917 0.589-13.262 0.589-19.1-0.011-9.786-0.532-18.129-1.448-25.28-4.674 1.718-10.229 2.304-13.799 2.499 0.777 6.305 1.251 13.824 1.248 22.781 0 5.537-0.178 11.612-0.568 18.283-0.225 3.858 2.721 7.17 6.581 7.398 0.138 8e-3 0.274 0.012 0.41 0.012 2.626 0 4.943-1.465 6.14-3.652 6.132 5.123 11.441 7.432 16.135 7.444h6e-3c6.107 0 10.758-3.989 14.153-9.871 10.198-17.66 11.082-53.745 11.112-67.379 0-1.283-9e-3 -2.359-0.02-3.205h2.128c1.15 0 2.083-0.934 2.083-2.084s-0.933-2.084-2.083-2.084h-0.75v-1.667h3.583c2.209 0 4-1.791 4-4v-32c0-2.209-1.791-4-4-4h-1.387c0.244-1.188 0.369-2.492 0.386-3.875-1e-3 -0.978-0.085-1.903-0.212-2.791h9.463v194.55c-17.539 0.838-22.815 8.274-23.22 9.108l-0.419 0.707v3.827c-1.957 0.968-3.306 2.978-3.306 5.308 0 3.273 2.652 5.924 5.924 5.924s5.924-2.65 5.924-5.924c0-2.015-1.008-3.791-2.544-4.861v-2.378c1.314-1.372 5.803-4.997 17.641-5.671v7.945c-1.623 1.057-2.698 2.884-2.698 4.965 0 3.273 2.651 5.924 5.923 5.924 3.271 0 5.924-2.65 5.924-5.924 0-1.837-0.837-3.478-2.148-4.565v-8.378c7.414 0.381 11.984 1.971 14.687 3.418 1.551 0.831 2.5 1.62 3.039 2.147 0.044 0.044 0.086 0.086 0.125 0.126v2.253c-1.654 1.051-2.754 2.894-2.754 4.998 0 3.273 2.652 5.924 5.924 5.924 3.271 0 5.924-2.65 5.924-5.924 0-2.247-1.252-4.202-3.096-5.206v-3.927l-0.42-0.709c-0.404-0.837-5.725-8.328-23.43-9.116v-194.54h9.453c-0.123 0.884-0.193 1.816-0.205 2.791 3e-3 1.386 0.151 2.683 0.404 3.875h-1.402c-2.209 0-4 1.791-4 4v32c0 2.209 1.791 4 4 4h3.584v1.666h-0.75c-1.15 0-2.084 0.934-2.084 2.084s0.934 2.084 2.084 2.084h6.334c1.15 0 2.082-0.934 2.082-2.084s-0.932-2.084-2.082-2.084h-0.75v-1.666h3.582c2.209 0 4-1.791 4-4v-32c0-2.209-1.791-4-4-4h-1.387c0.244-1.188 0.369-2.491 0.385-3.875h2e-3c-2e-3 -1.055-0.094-2.055-0.242-3.003 5.308-1.019 9.323-5.682 9.323-11.29zm-49.582 7.668s2e-3 -1e-3 4e-3 -1e-3c0.018 0 0.1 0.013 0.307 0.208 0.148 0.128 0.305 0.354 0.461 0.625h-1.544c0.163-0.277 0.325-0.495 0.46-0.625 0.237-0.225 0.312-0.203 0.312-0.207zm8.001 27.668v18.832c0 1.104-0.897 2.002-2 2.002h-11.999c-1.105 0-2.002-0.898-2.002-2.002v-18.832s1.494 0.892 7 0.99v2.342h-2.5v1.168h2.5v3.166h-2.5v1.166h2.5v3.166h-2.5v1.168h2.5v2.916h2v-2.916h2.5v-1.168h-2.5v-3.166h2.5v-1.166h-2.5v-3.166h2.5v-1.168h-2.5v-2.342c5.506-0.098 7.001-0.99 7.001-0.99zm-6.003-21.043c4e-3 1.441-0.182 2.78-0.472 3.875h-3.044c-0.297-1.096-0.503-2.435-0.483-3.875-2e-3 -0.994 0.087-1.939 0.235-2.791h3.523c0.157 0.854 0.255 1.796 0.241 2.791zm33.191-6.418c0.238-0.225 0.31-0.203 0.31-0.209 0 2e-3 0.073-0.016 0.311 0.209 0.148 0.128 0.307 0.354 0.463 0.628h-1.547c0.164-0.278 0.327-0.497 0.463-0.628zm8.313 18.436v27.857c0 1.104-0.899 2.002-2 2.002h-12c-1.104 0-2.002-0.898-2.002-2.002v-27.857s1.494 0.892 7 0.99v2.701h-2.5v1.168h2.5v3.166h-2.5v1.166h2.5v3.166h-2.5v1.168h2.5v3.166h-2.5v1.166h2.5v3.166h-2.5v1.168h2.5v2.916h2v-2.916h2.5v-1.168h-2.5v-3.166h2.5v-1.166h-2.5v-3.166h2.5v-1.168h-2.5v-3.166h2.5v-1.166h-2.5v-3.166h2.5v-1.168h-2.5v-2.701c5.505-0.099 7.002-0.99 7.002-0.99zm-9.522-8.143c-0.297-1.096-0.502-2.435-0.482-3.875 0-0.994 0.088-1.939 0.236-2.791h3.523c0.156 0.854 0.254 1.796 0.24 2.791h2e-3c2e-3 1.441-0.184 2.78-0.475 3.875z"/>
     <path id="path1309" d="m107.02 100.12c0.177-0.163 0.353-0.327 0.516-0.499-5.759-26.67-24.187-33.774-27.487-34.845-2.744-1.173-5.099-1.463-6.578-1.485-0.128-7e-3 -0.254-0.02-0.383-0.02h-3.92c-2.48 1.827-5.299 3.22-8.343 4.076-1.224 9.406-4.376 31.94-6.487 31.94-2.088 0-5.195-22.057-6.447-31.64-3.495-0.809-6.721-2.317-9.519-4.377h-3.919c-0.127 0-0.249 0.013-0.373 0.019-1.48 0.021-3.845 0.31-6.6 1.49-3.335 1.086-21.725 8.207-27.476 34.842 0.163 0.172 0.339 0.336 0.516 0.499 6.704 6.148 23.151 5.834 23.151 5.834s-0.058 0.959-0.155 2.669c-0.632 11.031-2.976 53.691-2.89 77.21 0.017 4.728 0.131 8.688 0.378 11.454 12.667 3.666 28.333 4.334 32.766 4.334s20.099-0.668 32.766-4.334c0.247-2.767 0.361-6.727 0.378-11.454 0.086-23.518-2.258-66.179-2.89-77.21-0.098-1.71-0.155-2.669-0.155-2.669s16.446 0.315 23.151-5.834z"/>
     <path id="path1311" d="m76.257 36.575c2e-3 -0.113 8e-3 -0.226 8e-3 -0.339 0-12.428-10.072-22.5-22.5-22.5-12.426 0-22.5 10.072-22.5 22.5 0 0.113 8e-3 0.226 9e-3 0.339 9.474-6.699 35.508-6.699 44.983 0z"/>
     <path id="path1313" d="m53.765 65.57c12.428 0 22.5-10.074 22.5-22.5 0-12.428-45-12.428-45 0 0 12.426 10.074 22.5 22.5 22.5z"/>
    </g>
   </g>
  </g>
 </g>
</svg>
