<?xml version="1.0" encoding="UTF-8"?>
<!-- Created with Inkscape (http://www.inkscape.org/) -->
<svg id="svg1933" width="116.63" height="116.63" version="1.1" viewBox="0 0 30.858 30.858" xmlns="http://www.w3.org/2000/svg" xmlns:cc="http://creativecommons.org/ns#" xmlns:dc="http://purl.org/dc/elements/1.1/" xmlns:rdf="http://www.w3.org/1999/02/22-rdf-syntax-ns#">
 <metadata id="metadata1930">
  <rdf:RDF>
   <cc:Work rdf:about="">
    <dc:format>image/svg+xml</dc:format>
    <dc:type rdf:resource="http://purl.org/dc/dcmitype/StillImage"/>
    <dc:title/>
   </cc:Work>
  </rdf:RDF>
 </metadata>
 <g id="layer1" transform="translate(0 -266.14)">
  <circle id="path853-5" cx="15.429" cy="281.57" r="15.429" fill="#351431"/>
  <circle id="path853" cx="15.429" cy="281.57" r="0" fill="#031d44"/>
 </g>
 <g id="layer2">
  <g id="g27538" transform="matrix(.073705 0 0 .073705 4.2936 4.1418)" fill="#fff" stroke-width="3.5898">
   <g id="g27534">
    <path id="path27532" d="m150 15.8c-72.2 0-130.9 23.6-132.2 53 0 0.7 0 1.3 0.1 2l21 199.9c0.8 7.7 7.3 13.6 15.1 13.6h192.1c7.8 0 14.3-5.9 15.1-13.6l21-199.9c0.1-0.7 0.1-1.3 0.1-2-1.4-29.4-60.1-53-132.3-53zm68.8 75.8-11.7 33c-2.9 8.3-10.8 13.8-19.5 13.8h-75.3c-8.8 0-16.6-5.5-19.5-13.8l-11.7-33v-0.9c0-20.4 35.5-31.4 68.8-31.4s68.8 11 68.8 31.4v0.9z" fill="#fff" stroke-width="3.5898"/>
   </g>
   <path id="path27536" d="m161.9 109.2 13.9-32.4-26.3 28.9c-12 0.3-21.6 10.1-21.6 22.2h44.4c-0.1-7.9-4.2-14.8-10.4-18.7z"/>
  </g>
 </g>
</svg>
