<?xml version="1.0" encoding="UTF-8"?>
<!-- Created with Inkscape (http://www.inkscape.org/) -->
<svg id="svg1933" width="116.63" height="116.63" version="1.1" viewBox="0 0 30.858 30.858" xmlns="http://www.w3.org/2000/svg" xmlns:cc="http://creativecommons.org/ns#" xmlns:dc="http://purl.org/dc/elements/1.1/" xmlns:rdf="http://www.w3.org/1999/02/22-rdf-syntax-ns#">
 <metadata id="metadata1930">
  <rdf:RDF>
   <cc:Work rdf:about="">
    <dc:format>image/svg+xml</dc:format>
    <dc:type rdf:resource="http://purl.org/dc/dcmitype/StillImage"/>
    <dc:title/>
   </cc:Work>
  </rdf:RDF>
 </metadata>
 <g id="layer1" transform="translate(0 -266.14)">
  <circle id="path853-5" cx="15.429" cy="281.57" r="15.429" fill="#351431"/>
  <circle id="path853" cx="15.429" cy="281.57" r="0" fill="#031d44"/>
 </g>
 <g id="layer2">
  <g id="g7906" transform="matrix(.26458 0 0 .26458 2.5986 2.6988)" fill="#fff">
   <path id="path7868" d="m72.991 21.081c-8.857 0-16.038 7.181-16.038 16.038 0 8.858 7.181 16.039 16.038 16.039s16.037-7.181 16.037-16.039c0-8.857-7.179-16.038-16.037-16.038zm-13.192 10.916c0.576-1.483 1.391-2.847 2.402-4.04h4.256c-0.178 0.748-0.236 1.533-0.14 2.34 0.07 0.601 0.227 1.168 0.44 1.7zm13.802 2.625c-2.826 0.336-5.391-1.683-5.728-4.511-0.334-2.826 1.685-5.389 4.511-5.726 2.825-0.336 5.388 1.684 5.725 4.511 0.336 2.826-1.681 5.388-4.508 5.726zm5.633-2.625c0.402-1.008 0.568-2.131 0.432-3.287-0.03-0.255-0.076-0.505-0.136-0.753h4.251c1.013 1.193 1.827 2.557 2.401 4.04z"/>
   <circle id="circle7870" cx="72.99" cy="29.504" r="1.903"/>
   <path id="path7872" d="m65.654 63.642 5.313 4.032-2.358-12.069h-3.888l2.612 5.842c0.146 0.327 0.059 0.709-0.212 0.943z"/>
   <polygon id="polygon7874" points="70.252 55.604 72.164 65.389 74.075 55.604"/>
   <path id="path7876" d="m79.602 55.604h-3.885l-2.357 12.07 5.312-4.032-1.469-1.252c-0.271-0.234-0.358-0.616-0.212-0.943z"/>
   <path id="path7878" d="m71.356 69.994-7.473-5.671c-0.194-0.147-0.313-0.375-0.32-0.616-7e-3 -0.247 0.097-0.479 0.281-0.639l1.771-1.515-2.659-5.949h-0.012c-2.924 0-5.292 2.371-5.291 5.292v15.897c0 2.924 2.368 5.291 5.292 5.291h8.41v-12.09z"/>
   <path id="path7880" d="m83.035 55.604h-1.669l-2.658 5.949 1.771 1.515c0.187 0.159 0.29 0.392 0.283 0.639-8e-3 0.241-0.125 0.469-0.319 0.616l-7.476 5.671v12.091h10.066c2.923 0 5.291-2.367 5.291-5.291v-15.898c1e-3 -2.92-2.366-5.292-5.289-5.292zm2.008 20.023h-2.394v2.397h-3.253v-2.397h-2.397v-3.252h2.397v-2.397h3.253v2.397h2.394z"/>
   <path id="path7882" d="m53.54 43.048c-0.146-0.202-1.662-2.272-4.142-4.638l3.25-3.252c0.586-0.587 0.586-1.542 0-2.13-0.589-0.587-1.543-0.587-2.129 0l-3.389 3.389c-1.185-0.955-2.5-1.889-3.928-2.703l2.185-3.607c0.429-0.713 0.201-1.639-0.512-2.07-0.711-0.433-1.639-0.202-2.069 0.509l-2.323 3.841c-1.348-0.551-2.765-0.961-4.24-1.178v-4.347c0-0.833-0.671-1.506-1.504-1.506-0.832 0-1.508 0.673-1.508 1.506v4.2c-2.014 0.1-3.939 0.591-5.737 1.327l-2.321-3.843c-0.431-0.712-1.357-0.943-2.069-0.51-0.711 0.432-0.942 1.357-0.508 2.069l2.18 3.608c-1.428 0.815-2.743 1.749-3.926 2.704l-3.388-3.39c-0.587-0.587-1.544-0.587-2.13 0-0.59 0.588-0.59 1.543 0 2.13l3.251 3.253c-2.482 2.364-3.999 4.435-4.145 4.637-0.336 0.463-0.336 1.089 0 1.551 0.354 0.49 8.794 12.013 19.553 12.013 10.758 0 19.194-11.522 19.549-12.013 0.335-0.461 0.335-1.087 0-1.55zm-19.549 9.752c-4.953 0-8.978-4.028-8.978-8.976 0-4.952 4.024-8.979 8.978-8.979 4.949 0 8.976 4.026 8.976 8.979 0 4.947-4.027 8.976-8.976 8.976zm-16.798-8.976c1.266-1.558 4.411-5.115 8.52-7.573-1.831 2.001-2.96 4.651-2.96 7.573 0 2.917 1.129 5.569 2.962 7.569-4.11-2.456-7.256-6.014-8.522-7.569zm25.062 7.585c1.838-2.002 2.972-4.661 2.972-7.585 0-2.922-1.128-5.572-2.955-7.573 4.104 2.459 7.252 6.018 8.515 7.573-1.264 1.558-4.415 5.127-8.532 7.585z"/>
   <path id="path7884" d="m33.991 38.632c-0.366 0-0.724 0.037-1.066 0.108 0.753 0.495 1.255 1.345 1.255 2.314 0 1.529-1.239 2.769-2.769 2.769-1.04 0-1.937-0.582-2.408-1.429-0.13 0.452-0.203 0.932-0.203 1.43 0 2.866 2.325 5.19 5.191 5.19 2.867 0 5.19-2.324 5.19-5.19 1e-3 -2.869-2.323-5.192-5.19-5.192z"/>
   <path id="path7886" d="m53.625 64.799c-5.138 4.203-11.695 6.728-18.833 6.728-16.428 0-29.79-13.363-29.79-29.789s13.362-29.792 29.79-29.792c9.545 0 18.05 4.519 23.506 11.521 0.916-0.984 1.932-1.877 3.027-2.661-6.198-7.844-15.784-12.891-26.533-12.891-18.649 0-33.82 15.173-33.82 33.822 0 18.647 15.171 33.821 33.82 33.821 6.966 0 13.446-2.12 18.833-5.746z"/>
  </g>
 </g>
</svg>
