<?xml version="1.0" encoding="UTF-8"?>
<!-- Created with Inkscape (http://www.inkscape.org/) -->
<svg id="svg1933" width="116.63" height="116.63" version="1.1" viewBox="0 0 30.858 30.858" xmlns="http://www.w3.org/2000/svg" xmlns:cc="http://creativecommons.org/ns#" xmlns:dc="http://purl.org/dc/elements/1.1/" xmlns:rdf="http://www.w3.org/1999/02/22-rdf-syntax-ns#">
 <defs id="defs1927">
  <style id="style10671">.cls-1{fill:#000000;}</style>
  <style id="style10671-0">.cls-1{fill:#000000;}</style>
  <style id="style10671-05">.cls-1{fill:#000000;}</style>
  <style id="style10671-1">.cls-1{fill:#000000;}</style>
 </defs>
 <metadata id="metadata1930">
  <rdf:RDF>
   <cc:Work rdf:about="">
    <dc:format>image/svg+xml</dc:format>
    <dc:type rdf:resource="http://purl.org/dc/dcmitype/StillImage"/>
    <dc:title/>
   </cc:Work>
  </rdf:RDF>
 </metadata>
 <g id="layer1" transform="translate(0 -266.14)">
  <circle id="path853-5" cx="15.429" cy="281.57" r="15.429" fill="#266334"/>
  <circle id="path853" cx="15.429" cy="281.57" r="0" fill="#031d44"/>
 </g>
 <g id="layer2">
  <g id="g82796" transform="matrix(.31793 0 0 .31793 5.1816 3.7699)" fill="#fff" stroke-width=".83221">
   <path id="path82756" d="m49 29h-2c-1.103 0-2 0.897-2 2v2c0 1.103 0.897 2 2 2h2c1.103 0 2-0.897 2-2v-2c0-1.103-0.897-2-2-2zm-2 4v-2h2l1e-3 2z"/>
   <path id="path82758" d="m57 29h-2c-1.103 0-2 0.897-2 2v2c0 1.103 0.897 2 2 2h2c1.103 0 2-0.897 2-2v-2c0-1.103-0.897-2-2-2zm-2 4v-2h2l1e-3 2z"/>
   <path id="path82760" d="m49 37h-2c-1.103 0-2 0.897-2 2v2c0 1.103 0.897 2 2 2h2c1.103 0 2-0.897 2-2v-2c0-1.103-0.897-2-2-2zm-2 4v-2h2l1e-3 2z"/>
   <path id="path82762" d="m57 37h-2c-1.103 0-2 0.897-2 2v2c0 1.103 0.897 2 2 2h2c1.103 0 2-0.897 2-2v-2c0-1.103-0.897-2-2-2zm-2 4v-2h2l1e-3 2z"/>
   <path id="path82764" d="m49 45h-2c-1.103 0-2 0.897-2 2v2c0 1.103 0.897 2 2 2h2c1.103 0 2-0.897 2-2v-2c0-1.103-0.897-2-2-2zm-2 4v-2h2l1e-3 2z"/>
   <path id="path82766" d="m57 45h-2c-1.103 0-2 0.897-2 2v2c0 1.103 0.897 2 2 2h2c1.103 0 2-0.897 2-2v-2c0-1.103-0.897-2-2-2zm-2 4v-2h2l1e-3 2z"/>
   <path id="path82768" d="m57 53h-2c-1.103 0-2 0.897-2 2v2c0 1.103 0.897 2 2 2h2c1.103 0 2-0.897 2-2v-2c0-1.103-0.897-2-2-2zm-2 4v-2h2l1e-3 2z"/>
   <path id="path82770" d="m62.399 25.2-1.999-2.666c-0.563-0.751-1.46-1.2-2.4-1.2h-12c-0.94 0-1.837 0.449-2.399 1.2l-2 2.667c-0.388 0.515-0.601 1.154-0.601 1.799v24h-6v-6.59c0-1.265-0.8-2.4-1.991-2.826l-9e-3 -3e-3v-4.581h2v-2h-2v-2h2v-2h-2v-2c0-1.103-0.897-2-2-2h-2c-1.103 0-2 0.897-2 2v2h-2v2h2v2h-2v2h2v2.438l-4-1.429v-6.325c0-1.48-1.204-2.684-2.684-2.684-0.333 0-0.66 0.062-0.974 0.183l-16.431 6.39c-1.16 0.451-1.911 1.549-1.911 2.795v24.632h62v-36c0-0.645-0.213-1.284-0.601-1.8zm-17.198-1.467c0.187-0.25 0.485-0.399 0.799-0.399h12c0.313 0 0.612 0.149 0.8 0.4l1.2 1.6h-16zm1.799 31.267h2v2h-2zm-2 6h-2v-4c0-1.103-0.897-2-2-2h-2c-1.103 0-2 0.897-2 2v4h-2v-4c0-1.103-0.897-2-2-2h-2c-1.103 0-2 0.897-2 2v4h-2v-8h18zm-4 0h-2v-4h2zm-8 0h-2v-4h2zm-4-32h2v2h-2zm0 4h2v2h-2zm0 4h2v3.867l-2-0.714zm-26 1.368c0-0.409 0.257-0.784 0.638-0.932l16.429-6.389c0.441-0.169 0.933 0.174 0.933 0.637v5.611l-0.388-0.138c-0.293-0.104-0.598-0.157-0.907-0.157-0.245 0-0.479 0.043-0.705 0.105v-0.123c0-0.658-0.328-1.271-0.878-1.64-0.558-0.375-1.264-0.446-1.885-0.191l-10.001 4.088c-0.751 0.307-1.236 1.026-1.236 1.831v19.93h-2zm3.993 2.722 4.007-1.645v3.555h-4.006zm1e-3 3.91h4.006v4h-4.004zm10.006 10h-4v-4h4zm0-6h-4v-4h4zm-10.004 2h4.004v4h-4.002zm2e-3 6h4.002v4h-4zm6.002 0h4v4h-4zm4-14h-4v-4.376l4-1.642v3.434zm4 14v4h-2v-21.295c0-0.47 0.502-0.818 0.942-0.664l12.395 4.427c0.396 0.141 0.663 0.52 0.663 0.942v6.59h-6c-1.103 0-2 0.897-2 2v8h-2v-4zm26 4v-2h2c1.103 0 2-0.897 2-2v-2c0-1.103-0.897-2-2-2h-2c0-1.103-0.897-2-2-2h-2v-23.667h18v33.667z"/>
   <rect id="rect82772" x="21" y="45" width="2" height="4"/>
   <rect id="rect82774" x="21" y="51" width="2" height="4"/>
   <rect id="rect82776" x="25" y="45" width="2" height="4"/>
   <rect id="rect82778" x="29" y="45" width="2" height="4"/>
   <path id="path82780" d="m9.283 16.495 3.323 1.424 0.787-1.838-3.323-1.424c-1.865-0.8-3.07-2.628-3.07-4.657 0-1.654 1.346-3 3-3s3 1.346 3 3v0.146c0 0.471-0.384 0.854-0.854 0.854-0.325 0-0.618-0.181-0.764-0.472l-0.487-0.975-1.789 0.895 0.487 0.976c0.487 0.972 1.466 1.576 2.553 1.576 1.574 0 2.854-1.28 2.854-2.854v-0.146c0-2.757-2.243-5-5-5s-5 2.243-5 5c0 2.83 1.681 5.379 4.283 6.495z"/>
   <path id="path82782" d="m5.579 27.426 3.269 0.817c1.266 0.317 2.152 1.45 2.152 2.757h2c0-2.226-1.508-4.158-3.668-4.698l-3.268-0.817c-0.626-0.156-1.064-0.717-1.064-1.362 0-0.707 0.529-1.306 1.23-1.394l5.894-0.737-0.248-1.984-5.894 0.737c-1.7 0.212-2.982 1.664-2.982 3.378 0 1.564 1.061 2.922 2.579 3.303z"/>
   <path id="path82784" d="m16.735 18.632c0.159 0.053 0.265 0.201 0.265 0.368s-0.106 0.315-0.265 0.368l-2.052 0.684 0.633 1.897 2.052-0.684c0.977-0.326 1.632-1.236 1.632-2.265s-0.655-1.939-1.632-2.265l-2.052-0.684-0.633 1.897z"/>
   <path id="path82786" d="m20.286 12.261 0.438 0.219c1.585 0.792 2.766 2.154 3.327 3.836l1.896-0.633c-0.729-2.188-2.267-3.961-4.329-4.992l-0.438-0.219c-1.344-0.672-2.18-2.024-2.18-3.528 0-2.174 1.77-3.944 3.944-3.944h0.15c1.052 0 1.906 0.855 1.906 1.906 0 0.821-0.523 1.548-1.304 1.808l-1.013 0.338 0.633 1.897 1.013-0.338c1.598-0.533 2.671-2.022 2.671-3.705 0-2.154-1.752-3.906-3.905-3.906h-0.15c-3.278 0-5.945 2.667-5.945 5.944 0 2.266 1.259 4.304 3.286 5.317z"/>
   <path id="path82788" d="m20.02 25.804 1.961 0.393c0.528-2.641 2.575-4.688 5.216-5.216l-0.393-1.961c-3.435 0.687-6.098 3.35-6.784 6.784z"/>
   <path id="path82790" d="m30.705 12.759 1.066 0.427c0.747 0.298 1.229 1.01 1.229 1.814s-0.482 1.516-1.229 1.814l-3.143 1.257 0.742 1.856 3.143-1.257c1.511-0.603 2.487-2.044 2.487-3.67s-0.976-3.067-2.486-3.671l-1.066-0.427c-1.11-0.444-2.018-1.278-2.553-2.349l-1.789 0.895c0.754 1.509 2.033 2.685 3.599 3.311z"/>
   <path id="path82792" d="m57 12.172c0 2.255-1.685 4.185-3.918 4.49l-11.439 1.56c-3.974 0.541-7.437 2.824-9.5 6.264l1.715 1.029c1.75-2.917 4.686-4.853 8.055-5.312l11.439-1.56c3.22-0.439 5.648-3.221 5.648-6.471 0-2.901-1.948-5.483-4.737-6.279l-2.988-0.854-0.549 1.923 2.988 0.854c1.934 0.552 3.286 2.344 3.286 4.356z"/>
   <path id="path82794" d="m43 13c2.206 0 4-1.794 4-4h-2c0 1.103-0.897 2-2 2s-2-0.897-2-2 0.897-2 2-2h6v-2h-6c-2.206 0-4 1.794-4 4s1.794 4 4 4z"/>
  </g>
 </g>
</svg>
