<?xml version="1.0" encoding="UTF-8"?>
<!-- Created with Inkscape (http://www.inkscape.org/) -->
<svg id="svg1933" width="116.63" height="116.63" version="1.1" viewBox="0 0 30.858 30.858" xmlns="http://www.w3.org/2000/svg" xmlns:cc="http://creativecommons.org/ns#" xmlns:dc="http://purl.org/dc/elements/1.1/" xmlns:rdf="http://www.w3.org/1999/02/22-rdf-syntax-ns#">
 <defs id="defs1927">
  <style id="style10671">.cls-1{fill:#000000;}</style>
  <style id="style10671-0">.cls-1{fill:#000000;}</style>
  <style id="style10671-05">.cls-1{fill:#000000;}</style>
  <style id="style10671-1">.cls-1{fill:#000000;}</style>
 </defs>
 <metadata id="metadata1930">
  <rdf:RDF>
   <cc:Work rdf:about="">
    <dc:format>image/svg+xml</dc:format>
    <dc:type rdf:resource="http://purl.org/dc/dcmitype/StillImage"/>
    <dc:title/>
   </cc:Work>
  </rdf:RDF>
 </metadata>
 <g id="layer1" transform="translate(0 -266.14)">
  <circle id="path853-5" cx="15.429" cy="281.57" r="15.429" fill="#266334"/>
  <circle id="path853" cx="15.429" cy="281.57" r="0" fill="#031d44"/>
 </g>
 <g id="layer2" fill="#fff">
  <g id="g73638" transform="matrix(.20816 0 0 .20816 4.7596 7.3426)" stroke-width="1.2711">
   <path id="path73612" d="m23.505 62.368h10.275c1.6367 0 3.0447 0.9783 3.6719 2.3819l8.3947 16.802c2.3546 4.7299-4.8372 8.3103-7.1919 3.5802l-0.40241-0.80536 0.05059 0.85117c0.30953 5.2672-7.6987 5.7376-8.0083 0.471l-0.90591-15.241-13.661-0.015786c-2.2113 0-4.0041-1.7928-4.0041-4.0042l8.4e-5 -32.051c-0.48532-6.2595 10.383-3.8084 11.247-2.3157l8.5449 14.724 6.4001-2.5397c4.8954-1.9414 7.8471 5.5017 2.952 7.4431l-9.6131 3.8146c-1.8695 0.74151-3.9116-0.02362-4.8883-1.7148l-2.8617-4.8279z"/>
   <circle id="circle73614" cx="17.849" cy="18.481" r="7.8513"/>
   <polygon id="polygon73616" points="8.4546 38.462 5 38.462 5 73.623 5 77.077 8.4546 77.077 26.769 77.077 26.769 73.623 8.4546 73.623"/>
   <path id="path73618" d="m72.191 62.368h10.275c1.6367 0 3.0447 0.9783 3.6719 2.3819l8.3947 16.802c2.3546 4.7299-4.8372 8.3103-7.1919 3.5802l-0.4024-0.80536 0.05058 0.85117c0.30953 5.2672-7.6987 5.7376-8.0083 0.471l-0.90591-15.241-13.661-0.01579c-2.2113 0-4.0041-1.7928-4.0041-4.0042l8e-5 -32.051c-0.48532-6.2595 10.383-3.8084 11.247-2.3157l8.5449 14.724 6.4001-2.5397c4.8954-1.9414 7.8471 5.5017 2.952 7.4431l-9.6131 3.8146c-1.8695 0.74151-3.9116-0.02362-4.8883-1.7148l-2.8617-4.8279z"/>
   <circle id="circle73620" cx="66.535" cy="18.481" r="7.8513"/>
   <polygon id="polygon73622" points="57.141 38.462 53.687 38.462 53.687 73.623 53.687 77.077 57.141 77.077 75.456 77.077 75.456 73.623 57.141 73.623"/>
  </g>
  <g id="g82295" transform="translate(-26.855 -4.4436)" stroke-width=".26458">
   <path id="path13808" d="m44.464 10.915c0-0.15574-0.07329-0.24735-0.1191-0.30232-0.03664-0.03664-0.03664-0.04581-0.03664-0.06413 0-0.10077-0.08245-0.18322-0.18322-0.18322-0.10077 0-0.18322 0.08245-0.18322 0.18322 0 0.15574 0.07329 0.24735 0.1191 0.30232 0.03665 0.03665 0.03665 0.04581 0.03665 0.06413s0 0.02748-0.03665 0.06413c-0.04581 0.05497-0.1191 0.14658-0.1191 0.30232s0.07329 0.24735 0.1191 0.30232c0.03665 0.03665 0.03665 0.04581 0.03665 0.06413 0 0.02748 0 0.02748-0.03665 0.06413-0.04581 0.05497-0.1191 0.14658-0.1191 0.30232s0.07329 0.24735 0.1191 0.30232c0.03665 0.03665 0.03665 0.04581 0.03665 0.06413 0 0.02748 0 0.02748-0.03665 0.06413-0.04581 0.05497-0.1191 0.14658-0.1191 0.30232s0.07329 0.24735 0.1191 0.30232c0.03665 0.03664 0.03665 0.04581 0.03665 0.06413 0 0.10077 0.08245 0.18322 0.18322 0.18322 0.10077 0 0.18322-0.08245 0.18322-0.18322 0-0.15574-0.07329-0.24735-0.1191-0.30232-0.03664-0.03664-0.03664-0.04581-0.03664-0.06413 0-0.01833 0-0.02748 0.03664-0.06413 0.04581-0.05497 0.1191-0.14658 0.1191-0.30232s-0.07329-0.24735-0.1191-0.30232c-0.03664-0.03665-0.03664-0.04581-0.03664-0.06413s0-0.02748 0.03664-0.06413c0.04581-0.05497 0.1191-0.14658 0.1191-0.30232s-0.07329-0.24735-0.1191-0.30232c-0.03664-0.03665-0.03664-0.04581-0.03664-0.06413s0-0.02748 0.03664-0.06413c0.04581-0.05497 0.1191-0.14658 0.1191-0.30232z"/>
   <path id="path13810" d="m45.471 10.915c0-0.15574-0.07329-0.24735-0.1191-0.30232-0.03665-0.03664-0.03665-0.04581-0.03665-0.06413 0-0.10077-0.08245-0.18322-0.18322-0.18322s-0.18322 0.08245-0.18322 0.18322c0 0.15574 0.07329 0.24735 0.1191 0.30232 0.03665 0.03665 0.03665 0.04581 0.03665 0.06413s0 0.02748-0.03665 0.06413c-0.04581 0.05497-0.1191 0.14658-0.1191 0.30232s0.07329 0.24735 0.1191 0.30232c0.03665 0.03665 0.03665 0.04581 0.03665 0.06413 0 0.02748 0 0.02748-0.03665 0.06413-0.04581 0.05497-0.1191 0.14658-0.1191 0.30232s0.07329 0.24735 0.1191 0.30232c0.03665 0.03665 0.03665 0.04581 0.03665 0.06413 0 0.02748 0 0.02748-0.03665 0.06413-0.04581 0.05497-0.1191 0.14658-0.1191 0.30232s0.07329 0.24735 0.1191 0.30232c0.03665 0.03664 0.03665 0.04581 0.03665 0.06413 0 0.10077 0.08245 0.18322 0.18322 0.18322 0.10077 0 0.18322-0.08245 0.18322-0.18322 0-0.15574-0.07329-0.24735-0.1191-0.30232-0.03665-0.03664-0.03665-0.04581-0.03665-0.06413 0-0.01833 0-0.02748 0.03665-0.06413 0.04581-0.05497 0.1191-0.14658 0.1191-0.30232s-0.07329-0.24735-0.1191-0.30232c-0.03665-0.03665-0.03665-0.04581-0.03665-0.06413s0-0.02748 0.03665-0.06413c0.04581-0.05497 0.1191-0.14658 0.1191-0.30232s-0.07329-0.24735-0.1191-0.30232c-0.03665-0.03665-0.03665-0.04581-0.03665-0.06413s0-0.02748 0.03665-0.06413c0.04581-0.05497 0.1191-0.14658 0.1191-0.30232z"/>
   <path id="path13812" d="m46.479 10.915c0-0.15574-0.07329-0.24735-0.1191-0.30232-0.03665-0.03664-0.03665-0.04581-0.03665-0.06413 0-0.10077-0.08245-0.18322-0.18322-0.18322-0.10077 0-0.18322 0.08245-0.18322 0.18322 0 0.15574 0.07329 0.24735 0.1191 0.30232 0.03665 0.03665 0.03665 0.04581 0.03665 0.06413s0 0.02748-0.03665 0.06413c-0.04581 0.05497-0.1191 0.14658-0.1191 0.30232s0.07329 0.24735 0.1191 0.30232c0.03665 0.03665 0.03665 0.04581 0.03665 0.06413 0 0.02748 0 0.02748-0.03665 0.06413-0.04581 0.05497-0.1191 0.14658-0.1191 0.30232s0.07329 0.24735 0.1191 0.30232c0.03665 0.03665 0.03665 0.04581 0.03665 0.06413 0 0.02748 0 0.02748-0.03665 0.06413-0.04581 0.05497-0.1191 0.14658-0.1191 0.30232s0.07329 0.24735 0.1191 0.30232c0.03665 0.03664 0.03665 0.04581 0.03665 0.06413 0 0.10077 0.08245 0.18322 0.18322 0.18322 0.10077 0 0.18322-0.08245 0.18322-0.18322 0-0.15574-0.07329-0.24735-0.1191-0.30232-0.03665-0.03664-0.03665-0.04581-0.03665-0.06413 0-0.01833 0-0.02748 0.03665-0.06413 0.04581-0.05497 0.1191-0.14658 0.1191-0.30232s-0.07329-0.24735-0.1191-0.30232c-0.03665-0.03665-0.03665-0.04581-0.03665-0.06413s0-0.02748 0.03665-0.06413c0.04581-0.05497 0.1191-0.14658 0.1191-0.30232s-0.07329-0.24735-0.1191-0.30232c-0.03665-0.03665-0.03665-0.04581-0.03665-0.06413s0-0.02748 0.03665-0.06413c0.04581-0.05497 0.1191-0.14658 0.1191-0.30232z"/>
   <path id="path13808-0" d="m34.527 10.838c0-0.15574-0.07329-0.24735-0.1191-0.30232-0.03664-0.03664-0.03664-0.04581-0.03664-0.06413 0-0.10077-0.08245-0.18322-0.18322-0.18322-0.10077 0-0.18322 0.08245-0.18322 0.18322 0 0.15574 0.07329 0.24735 0.1191 0.30232 0.03665 0.03665 0.03665 0.04581 0.03665 0.06413s0 0.02748-0.03665 0.06413c-0.04581 0.05497-0.1191 0.14658-0.1191 0.30232s0.07329 0.24735 0.1191 0.30232c0.03665 0.03665 0.03665 0.04581 0.03665 0.06413 0 0.02748 0 0.02748-0.03665 0.06413-0.04581 0.05497-0.1191 0.14658-0.1191 0.30232s0.07329 0.24735 0.1191 0.30232c0.03665 0.03665 0.03665 0.04581 0.03665 0.06413 0 0.02748 0 0.02748-0.03665 0.06413-0.04581 0.05497-0.1191 0.14658-0.1191 0.30232s0.07329 0.24735 0.1191 0.30232c0.03665 0.03664 0.03665 0.04581 0.03665 0.06413 0 0.10077 0.08245 0.18322 0.18322 0.18322 0.10077 0 0.18322-0.08245 0.18322-0.18322 0-0.15574-0.07329-0.24735-0.1191-0.30232-0.03664-0.03664-0.03664-0.04581-0.03664-0.06413 0-0.01833 0-0.02748 0.03664-0.06413 0.04581-0.05497 0.1191-0.14658 0.1191-0.30232s-0.07329-0.24735-0.1191-0.30232c-0.03664-0.03665-0.03664-0.04581-0.03664-0.06413s0-0.02748 0.03664-0.06413c0.04581-0.05497 0.1191-0.14658 0.1191-0.30232s-0.07329-0.24735-0.1191-0.30232c-0.03664-0.03665-0.03664-0.04581-0.03664-0.06413s0-0.02748 0.03664-0.06413c0.04581-0.05497 0.1191-0.14658 0.1191-0.30232z"/>
   <path id="path13810-5" d="m35.535 10.838c0-0.15574-0.07329-0.24735-0.1191-0.30232-0.03665-0.03664-0.03665-0.04581-0.03665-0.06413 0-0.10077-0.08245-0.18322-0.18322-0.18322s-0.18322 0.08245-0.18322 0.18322c0 0.15574 0.07329 0.24735 0.1191 0.30232 0.03665 0.03665 0.03665 0.04581 0.03665 0.06413s0 0.02748-0.03665 0.06413c-0.04581 0.05497-0.1191 0.14658-0.1191 0.30232s0.07329 0.24735 0.1191 0.30232c0.03665 0.03665 0.03665 0.04581 0.03665 0.06413 0 0.02748 0 0.02748-0.03665 0.06413-0.04581 0.05497-0.1191 0.14658-0.1191 0.30232s0.07329 0.24735 0.1191 0.30232c0.03665 0.03665 0.03665 0.04581 0.03665 0.06413 0 0.02748 0 0.02748-0.03665 0.06413-0.04581 0.05497-0.1191 0.14658-0.1191 0.30232s0.07329 0.24735 0.1191 0.30232c0.03665 0.03664 0.03665 0.04581 0.03665 0.06413 0 0.10077 0.08245 0.18322 0.18322 0.18322 0.10077 0 0.18322-0.08245 0.18322-0.18322 0-0.15574-0.07329-0.24735-0.1191-0.30232-0.03665-0.03664-0.03665-0.04581-0.03665-0.06413 0-0.01833 0-0.02748 0.03665-0.06413 0.04581-0.05497 0.1191-0.14658 0.1191-0.30232s-0.07329-0.24735-0.1191-0.30232c-0.03665-0.03665-0.03665-0.04581-0.03665-0.06413s0-0.02748 0.03665-0.06413c0.04581-0.05497 0.1191-0.14658 0.1191-0.30232s-0.07329-0.24735-0.1191-0.30232c-0.03665-0.03665-0.03665-0.04581-0.03665-0.06413s0-0.02748 0.03665-0.06413c0.04581-0.05497 0.1191-0.14658 0.1191-0.30232z"/>
   <path id="path13812-2" d="m36.543 10.838c0-0.15574-0.07329-0.24735-0.1191-0.30232-0.03665-0.03664-0.03665-0.04581-0.03665-0.06413 0-0.10077-0.08245-0.18322-0.18322-0.18322-0.10077 0-0.18322 0.08245-0.18322 0.18322 0 0.15574 0.07329 0.24735 0.1191 0.30232 0.03665 0.03665 0.03665 0.04581 0.03665 0.06413s0 0.02748-0.03665 0.06413c-0.04581 0.05497-0.1191 0.14658-0.1191 0.30232s0.07329 0.24735 0.1191 0.30232c0.03665 0.03665 0.03665 0.04581 0.03665 0.06413 0 0.02748 0 0.02748-0.03665 0.06413-0.04581 0.05497-0.1191 0.14658-0.1191 0.30232s0.07329 0.24735 0.1191 0.30232c0.03665 0.03665 0.03665 0.04581 0.03665 0.06413 0 0.02748 0 0.02748-0.03665 0.06413-0.04581 0.05497-0.1191 0.14658-0.1191 0.30232s0.07329 0.24735 0.1191 0.30232c0.03665 0.03664 0.03665 0.04581 0.03665 0.06413 0 0.10077 0.08245 0.18322 0.18322 0.18322 0.10077 0 0.18322-0.08245 0.18322-0.18322 0-0.15574-0.07329-0.24735-0.1191-0.30232-0.03665-0.03664-0.03665-0.04581-0.03665-0.06413 0-0.01833 0-0.02748 0.03665-0.06413 0.04581-0.05497 0.1191-0.14658 0.1191-0.30232s-0.07329-0.24735-0.1191-0.30232c-0.03665-0.03665-0.03665-0.04581-0.03665-0.06413s0-0.02748 0.03665-0.06413c0.04581-0.05497 0.1191-0.14658 0.1191-0.30232s-0.07329-0.24735-0.1191-0.30232c-0.03665-0.03665-0.03665-0.04581-0.03665-0.06413s0-0.02748 0.03665-0.06413c0.04581-0.05497 0.1191-0.14658 0.1191-0.30232z"/>
  </g>
  <g id="g82321" transform="translate(-12.216 2.6545)" stroke-width=".26458">
   <path id="path13780" d="m26.177 8.6364-0.25799-0.18427c-0.06142-0.04914-0.11056-0.12285-0.11056-0.19656v-6.2899h-0.2457v6.2776c0 0.085995-0.03685 0.15971-0.11056 0.19656l-0.25798 0.19656c-0.23342 0.15971-0.36855 0.42998-0.36855 0.70025 0 0.47912 0.38084 0.85995 0.85995 0.85995s0.85995-0.38083 0.85995-0.85995c0-0.28256-0.13514-0.54054-0.36855-0.70025z"/>
   <path id="path13782" d="m25.808 1.2285c0-0.07371-0.04914-0.12285-0.12285-0.12285s-0.12285 0.04914-0.12285 0.12285v0.2457h0.2457z"/>
   <path id="path13786" d="m26.914 7.801v-6.5725c0-0.67568-0.55282-1.2285-1.2285-1.2285-0.67568 0-1.2285 0.55283-1.2285 1.2285v6.5725c-0.46683 0.36855-0.7371 0.93366-0.7371 1.5356 0 1.0811 0.88452 1.9656 1.9656 1.9656 1.0811 0 1.9656-0.88452 1.9656-1.9656 0-0.60197-0.27027-1.1671-0.7371-1.5356zm-1.2285 2.887c-0.74938 0-1.3514-0.60197-1.3514-1.3514 0-0.44226 0.22113-0.85995 0.5774-1.1057l0.1597-0.11056v-6.8919c0-0.34398 0.27027-0.61425 0.61425-0.61425s0.61425 0.27027 0.61425 0.61425v6.8919l0.1597 0.11056c0.36855 0.25799 0.5774 0.66339 0.5774 1.1057 0 0.74939-0.60197 1.3514-1.3514 1.3514z"/>
  </g>
 </g>
</svg>
