<?xml version="1.0" encoding="UTF-8"?>
<!-- Created with Inkscape (http://www.inkscape.org/) -->
<svg id="svg1933" width="116.63" height="116.63" version="1.1" viewBox="0 0 30.858 30.858" xmlns="http://www.w3.org/2000/svg" xmlns:cc="http://creativecommons.org/ns#" xmlns:dc="http://purl.org/dc/elements/1.1/" xmlns:rdf="http://www.w3.org/1999/02/22-rdf-syntax-ns#">
 <defs id="defs1927">
  <style id="style10671">.cls-1{fill:#000000;}</style>
 </defs>
 <metadata id="metadata1930">
  <rdf:RDF>
   <cc:Work rdf:about="">
    <dc:format>image/svg+xml</dc:format>
    <dc:type rdf:resource="http://purl.org/dc/dcmitype/StillImage"/>
    <dc:title/>
   </cc:Work>
  </rdf:RDF>
 </metadata>
 <g id="layer1" transform="translate(0 -266.14)">
  <circle id="path853-5" cx="15.429" cy="281.57" r="15.429" fill="#266334"/>
  <circle id="path853" cx="15.429" cy="281.57" r="0" fill="#031d44"/>
 </g>
 <g id="layer2">
  <g id="g29638" transform="matrix(.098803 0 0 .098803 6.5515 9.2906)" fill="#fff" stroke-width="2.6779">
   <path id="path29621" d="m13.643 131.43 3.908 30.988h38.549c-2.463-26.235-4.538-53.131-8.715-77.688-0.87-8.455-8.303-37.146-18.046-38.199-20.772-3.488-0.263 31.136-4.828 38.414-12.881-2.985-16.071-30.42-16.678-40.324-0.599-9.716 0.137-19.495 1.778-29.081 1.729-6.368 4.619-16.597-3.504-18.946 0.037 0.011 0.072 0.021 0.108 0.032-0.038-0.012-0.069-0.022-0.112-0.034-16.224-4.875-19.777 43.004-20.842 53.216-2.309 22.142-1.199 46.957 11.86 65.897 2.282 3.309 16.283 13.408 16.522 15.725z"/>
   <path id="path29623" d="m163.51 162.42 3.908-30.988c0.238-2.316 14.24-12.416 16.521-15.725 13.061-18.94 14.17-43.756 11.861-65.897-1.064-10.212-4.619-58.091-20.842-53.216-0.043 0.013-0.076 0.022-0.113 0.034 0.035-0.011 0.072-0.021 0.109-0.032-8.125 2.35-5.234 12.578-3.506 18.946 1.643 9.586 2.377 19.365 1.779 29.081-0.607 9.904-3.799 37.339-16.68 40.323-4.564-7.278 15.945-41.902-4.828-38.414-9.742 1.054-17.177 29.744-18.047 38.199-4.177 24.558-6.252 51.453-8.716 77.688h38.554z"/>
   <polygon id="polygon29625" points="133.23 7.422 140.61 0.043 90.536 -50.036 70.653 -30.156 70.653 -38.511 60.219 -38.511 60.219 -19.721 40.455 0.043 47.835 7.422 57.732 -2.475 57.732 38.023 79.072 38.023 79.072 8.955 101.99 8.955 101.99 38.023 123.33 38.024 123.33 -2.477"/>
  </g>
 </g>
</svg>
