<?xml version="1.0" encoding="UTF-8"?>
<!-- Created with Inkscape (http://www.inkscape.org/) -->
<svg id="svg1933" width="116.63" height="116.63" version="1.1" viewBox="0 0 30.858 30.858" xmlns="http://www.w3.org/2000/svg" xmlns:cc="http://creativecommons.org/ns#" xmlns:dc="http://purl.org/dc/elements/1.1/" xmlns:rdf="http://www.w3.org/1999/02/22-rdf-syntax-ns#">
 <defs id="defs1927">
  <style id="style10671">.cls-1{fill:#000000;}</style>
  <style id="style10671-0">.cls-1{fill:#000000;}</style>
 </defs>
 <metadata id="metadata1930">
  <rdf:RDF>
   <cc:Work rdf:about="">
    <dc:format>image/svg+xml</dc:format>
    <dc:type rdf:resource="http://purl.org/dc/dcmitype/StillImage"/>
    <dc:title/>
   </cc:Work>
  </rdf:RDF>
 </metadata>
 <g id="layer1" transform="translate(0 -266.14)">
  <circle id="path853-5" cx="15.429" cy="281.57" r="15.429" fill="#266334"/>
  <circle id="path853" cx="15.429" cy="281.57" r="0" fill="#031d44"/>
 </g>
 <g id="layer2">
  <g id="g53430" transform="matrix(.14537 0 0 .14537 11.812 4.1255)" stroke-width="1.8201">
   <rect id="rect53416" width="100" height="100" fill="none"/>
   <path id="path53418" d="m41.525 45.373-1.775-3.068c0.933-0.7 1.761-1.527 2.463-2.461l3.069 1.77c0.237 0.137 0.497 0.203 0.753 0.203 0.52 0 1.025-0.269 1.305-0.753 0.417-0.72 0.168-1.639-0.554-2.055l-3.026-1.747c0.451-1.056 0.705-2.204 0.848-3.385h3.554c0.836 0 1.507-0.674 1.507-1.507s-0.671-1.501-1.507-1.501h-3.554c-0.143-1.182-0.399-2.329-0.848-3.388l3.026-1.744c0.722-0.417 0.97-1.338 0.554-2.061-0.42-0.72-1.336-0.971-2.058-0.551l-3.069 1.773c-0.705-0.934-1.53-1.758-2.463-2.46l1.775-3.072c0.419-0.719 0.174-1.638-0.548-2.055-0.722-0.419-1.644-0.171-2.055 0.548l-1.755 3.034c-1.056-0.451-2.204-0.705-3.382-0.851v-3.56c0-0.831-0.677-1.504-1.507-1.504s-1.504 0.674-1.504 1.504v3.56c-1.182 0.146-2.329 0.399-3.385 0.854l-1.747-3.032c-0.411-0.725-1.335-0.97-2.055-0.554-0.719 0.414-0.97 1.336-0.554 2.055l1.773 3.072c-0.934 0.705-1.756 1.53-2.458 2.46l-3.077-1.773c-0.722-0.419-1.641-0.168-2.055 0.551-0.414 0.722-0.168 1.644 0.551 2.061l3.031 1.744c-0.451 1.059-0.705 2.207-0.848 3.388h-3.557c-0.833 0-1.507 0.668-1.507 1.501s0.674 1.507 1.507 1.507h3.557c0.143 1.182 0.396 2.329 0.848 3.385l-3.031 1.747c-0.719 0.414-0.965 1.335-0.551 2.055 0.28 0.485 0.785 0.753 1.305 0.753 0.257 0 0.514-0.066 0.75-0.203l3.074-1.77c0.705 0.934 1.527 1.761 2.461 2.461l-1.773 3.068c-0.417 0.719-0.168 1.641 0.551 2.058 0.24 0.137 0.497 0.203 0.753 0.203 0.52 0 1.025-0.274 1.304-0.756l1.747-3.029c1.056 0.454 2.204 0.708 3.385 0.851v3.557c0 0.833 0.674 1.507 1.504 1.507s1.507-0.674 1.507-1.507v-3.557c1.179-0.143 2.326-0.396 3.382-0.851l1.755 3.031c0.28 0.485 0.782 0.754 1.302 0.754 0.257 0 0.517-0.066 0.753-0.206 0.723-0.416 0.969-1.335 0.549-2.054zm-18.719-13.005c0-5.221 4.25-9.471 9.471-9.471 5.224 0 9.474 4.25 9.474 9.471 0 5.224-4.25 9.474-9.474 9.474-5.221 0-9.471-4.25-9.471-9.474zm52.173 22.453v-38.175c0-6.422-5.223-11.646-11.646-11.646s-11.646 5.224-11.646 11.646v38.175c-6.297 3.982-10.136 10.869-10.136 18.397 0 12.014 9.77 21.782 21.782 21.782s21.782-9.768 21.782-21.782c0-7.53-3.842-14.418-10.136-18.397zm-11.646 34.161c-8.691 0-15.762-7.073-15.762-15.765 0-5.9 3.263-11.255 8.512-13.983 0.999-0.517 1.624-1.548 1.624-2.672v-39.916c0-3.1 2.523-5.623 5.626-5.623s5.623 2.523 5.623 5.623v39.917c0 1.124 0.628 2.155 1.624 2.675 5.253 2.726 8.512 8.08 8.512 13.98 0 8.691-7.068 15.764-15.759 15.764zm1.504-26.819v-45.483c0-0.833-0.671-1.504-1.504-1.504s-1.507 0.671-1.507 1.504v45.483c-5.464 0.747-9.702 5.395-9.702 11.055 0 6.183 5.029 11.209 11.209 11.209s11.209-5.027 11.209-11.209c0-5.66-4.241-10.308-9.705-11.055zm-1.504 19.256c-4.521 0-8.198-3.677-8.198-8.201 0-4.519 3.677-8.195 8.198-8.195 4.519 0 8.198 3.677 8.198 8.195 0 4.524-3.679 8.201-8.198 8.201z" fill="#fff"/>
  </g>
  <g id="g63432" transform="matrix(1.1595 0 0 1.1595 -30.319 -14.311)" stroke-width=".86244">
   <g id="g63454" transform="matrix(1.3306 0 0 1.3306 -14.085 -13.101)" fill="#fff" stroke-width=".17149">
    <path id="path37537" d="m38.902 31.34c0.20539 0 0.37748-0.16019 0.38959-0.36772 0.01957-0.33844 0.0287-0.64906 0.02885-0.93498-2e-3 -1.4731-0.23726-2.2885-0.55817-2.7787-0.16038-0.24331-0.34786-0.39945-0.52118-0.48589-0.164-0.08258-0.30828-0.1024-0.39667-0.10401-0.0073-4.39e-4 -0.01454-0.0011-0.02191-0.0011h-1.8857c-0.0075 0-0.01474 6.82e-4 -0.02211 0.0011-0.08844 0.0017-0.23277 0.02133-0.39672 0.10396-0.26254 0.13022-0.54553 0.41497-0.7437 0.91955-0.2005 0.50654-0.33502 1.239-0.3357 2.345 0 0.28587 0.0093 0.59673 0.02919 0.93527 0.01225 0.20734 0.18425 0.36748 0.38935 0.36748 0.0078 0 0.01552-2.44e-4 0.02338-6.88e-4 0.21525-0.01269 0.37949-0.19743 0.36699-0.41272-0.01913-0.32453-0.02797-0.62026-0.02797-0.88934-0.0016-1.1822 0.17078-1.8462 0.3401-2.1926v7.3216c0 0.33336 0.27025 0.60342 0.60342 0.60342 0.33326 0 0.60352-0.27006 0.60352-0.60342v-4.406h0.22623v4.406c0 0.33336 0.27025 0.60342 0.60342 0.60342 0.33326 0 0.60352-0.27006 0.60352-0.60342v-7.3192c0.02894 0.05935 0.05808 0.12734 0.08683 0.2067 0.13754 0.38139 0.25322 1.007 0.25288 1.9836 0 0.26918-0.0087 0.56496-0.02753 0.88958-0.01254 0.21529 0.1518 0.39999 0.36709 0.41248 0.0077 4.76e-4 0.01542 6.87e-4 0.02304 6.87e-4z"/>
    <circle id="circle37539" cx="36.879" cy="25.291" r="1.0982"/>
   </g>
  </g>
 </g>
</svg>
