<?xml version="1.0" encoding="UTF-8"?>
<!-- Created with Inkscape (http://www.inkscape.org/) -->
<svg id="svg1933" width="116.63" height="116.63" version="1.1" viewBox="0 0 30.858 30.858" xmlns="http://www.w3.org/2000/svg" xmlns:cc="http://creativecommons.org/ns#" xmlns:dc="http://purl.org/dc/elements/1.1/" xmlns:rdf="http://www.w3.org/1999/02/22-rdf-syntax-ns#">
 <defs id="defs1927">
  <style id="style10671">.cls-1{fill:#000000;}</style>
 </defs>
 <metadata id="metadata1930">
  <rdf:RDF>
   <cc:Work rdf:about="">
    <dc:format>image/svg+xml</dc:format>
    <dc:type rdf:resource="http://purl.org/dc/dcmitype/StillImage"/>
    <dc:title/>
   </cc:Work>
  </rdf:RDF>
 </metadata>
 <g id="layer1" transform="translate(0 -266.14)">
  <circle id="path853-5" cx="15.429" cy="281.57" r="15.429" fill="#266334"/>
  <circle id="path853" cx="15.429" cy="281.57" r="0" fill="#031d44"/>
 </g>
 <g id="layer2" fill="#fff">
  <g id="g28037" transform="matrix(.33131 0 0 .33131 -1.4912 -4.037)" stroke-width=".79859">
   <path id="path27990" d="m50.492 62.488c-3.609-12.109-5.325-11.896-11.281-11.896-4.222 0-5.092 2.2-8.045-2.42 0 0 0.774-0.712 3.898-3.856 0.668-0.672 1.316-1.854-0.264-2.427-1.265-0.459-3.227 1.43-5.365 3.08-3.337 2.576-2.359 4.132-1.318 5.701 0.694 1.045 3.357 4.043 4.693 5.378 1.265 1.265 1.628 1.733 1.69 4.461 0.23 10.191-1.868 11.881-3.894 31.527-0.182 1.761 3 2.264 3.535-0.297 2.472-11.856 3.725-18.595 5.179-18.595s2.707 6.739 5.179 18.595c0.534 2.562 3.716 2.058 3.535 0.297-2.026-19.646-3.893-21.334-3.893-31.527 0-6.439 3.941 6.441 5.758 11.497 0.436 1.213 1.141 1.587 2.189 1.146 1.071-0.45 0.795-2.64-1.596-10.664z"/>
   <ellipse id="ellipse27992" cx="39.2" cy="44.559" rx="3.663" ry="4.308"/>
   <circle id="circle27994" cx="34.163" cy="38.987" r=".782"/>
   <circle id="circle27996" cx="36.131" cy="36.664" r="1.048"/>
   <circle id="circle27998" cx="33.317" cy="35.186" r=".846"/>
  </g>
  <g id="g28083" transform="matrix(1.0679 0 0 1.0679 .21768 4.4271)" stroke-width=".24776">
   <path id="path28000" d="m16.099 4.1062h1.0468c0.20228 0 0.36795-0.16567 0.36795-0.36795 0-0.20228-0.16567-0.36795-0.36795-0.36795h-1.0468c-0.20228 0-0.36795 0.16567-0.36795 0.36795 0 0.20259 0.16536 0.36795 0.36795 0.36795z"/>
   <path id="path28002" d="m17.645 6.5819 0.65276-0.81843c0.12627-0.15823 0.0999-0.39091-0.05833-0.51718-0.15823-0.12627-0.39091-0.0999-0.51718 0.058326l-0.65276 0.81843c-0.12627 0.15823-0.0999 0.39091 0.05833 0.51718 0.15823 0.12627 0.39091 0.10021 0.51718-0.058326z"/>
   <path id="path28004" d="m20.545 6.9164-0.233-1.0207c-0.044986-0.19732-0.24323-0.32204-0.44086-0.27705-0.19732 0.044986-0.32204 0.24323-0.27705 0.44086l0.233 1.0207c0.04499 0.19732 0.24323 0.32204 0.44086 0.27705 0.19763-0.045296 0.32204-0.24354 0.27705-0.44086z"/>
   <path id="path28006" d="m22.615 4.8573-0.94315-0.4542c-0.18242-0.0878-0.40332-0.010549-0.49143 0.17188-0.0878 0.18243-0.01055 0.40332 0.17188 0.49143l0.94315 0.4542c0.18242 0.0878 0.40332 0.010549 0.49143-0.17188 0.08811-0.18243 0.01055-0.40363-0.17188-0.49143z"/>
   <path id="path28008" d="m22.295 1.9555-0.94315 0.4542c-0.18242 0.0878-0.25968 0.30901-0.17188 0.49143 0.0878 0.18243 0.30901 0.25968 0.49143 0.17188l0.94315-0.4542c0.18243-0.0878 0.25968-0.30901 0.17188-0.49143-0.0878-0.18243-0.30901-0.25968-0.49143-0.17188z"/>
   <path id="path28010" d="m19.827 0.39623-0.23268 1.0207c-0.04499 0.19732 0.07973 0.39557 0.27705 0.44055 0.19732 0.044986 0.39557-0.079733 0.44055-0.27705l0.23269-1.0207c0.044986-0.19732-0.079734-0.39557-0.27705-0.44055-0.19701-0.044986-0.39556 0.079734-0.44055 0.27705z"/>
   <path id="path28012" d="m17.069 1.3536 0.65276 0.81843c0.12627 0.15823 0.35896 0.18429 0.51718 0.058327 0.15823-0.12627 0.18429-0.35896 0.05833-0.51718l-0.65276-0.81843c-0.12627-0.15823-0.35896-0.18429-0.51718-0.058326-0.15823 0.12627-0.1846 0.35896-0.058327 0.51718z"/>
   <circle id="circle28014" cx="19.442" cy="3.7382" r="1.4287"/>
  </g>
 </g>
</svg>
