<?xml version="1.0" encoding="UTF-8"?>
<!-- Created with Inkscape (http://www.inkscape.org/) -->
<svg id="svg1933" width="116.63" height="116.63" version="1.1" viewBox="0 0 30.858 30.858" xmlns="http://www.w3.org/2000/svg" xmlns:cc="http://creativecommons.org/ns#" xmlns:dc="http://purl.org/dc/elements/1.1/" xmlns:rdf="http://www.w3.org/1999/02/22-rdf-syntax-ns#">
 <defs id="defs1927">
  <style id="style10671">.cls-1{fill:#000000;}</style>
 </defs>
 <metadata id="metadata1930">
  <rdf:RDF>
   <cc:Work rdf:about="">
    <dc:format>image/svg+xml</dc:format>
    <dc:type rdf:resource="http://purl.org/dc/dcmitype/StillImage"/>
    <dc:title/>
   </cc:Work>
  </rdf:RDF>
 </metadata>
 <g id="layer1" transform="translate(0 -266.14)">
  <circle id="path853-5" cx="15.429" cy="281.57" r="15.429" fill="#266334"/>
  <circle id="path853" cx="15.429" cy="281.57" r="0" fill="#031d44"/>
 </g>
 <g id="layer2">
  <g id="g26399" transform="matrix(.048239 0 0 .048239 3.0039 7.1247)" fill="#fff" stroke-width="5.4849">
   <path id="path26357" d="m444.54 197.77c-0.721 0-1.434-0.03-2.141-0.084v2.752c0.456 1.158 0.867 2.287 1.228 3.378 2.543 7.688 3.197 14.435 3.127 19.597 1.978-4.247 3.804-12.047 3.162-26.178-1.739 0.344-3.535 0.535-5.376 0.535z"/>
   <path id="path26359" d="m464.45 182.86 1.457-2.273 1.751 2.055c5.197 6.1 12.907 9.963 21.544 9.963 15.624-0.027 28.264-12.668 28.291-28.292 2e-3 -12.098-7.595-22.414-18.273-26.461l-1.446-0.549 0.165-1.535c0.091-0.837 0.14-1.678 0.14-2.524-0.023-12.835-10.407-23.222-23.246-23.244-1.495 0-2.957 0.146-4.38 0.417l-1.372 0.261-0.717-1.195c-5.972-9.929-16.835-16.57-29.261-16.57-3.54 1e-3 -6.951 0.539-10.159 1.538 0.192 1.467 0.304 2.959 0.304 4.479 1e-3 1.685-0.123 3.34-0.359 4.96 16.03 2.862 28.19 16.858 28.194 33.705-3e-3 18.916-15.334 34.247-34.25 34.249h-7e-3c7.513 7.435 12.665 14.686 16.18 21.271 1.775 0.427 3.627 0.656 5.536 0.656 1.767 0 3.483-0.204 5.139-0.571-0.072-0.995-0.152-2.009-0.248-3.061l-0.96-10.526 7.737 7.203c0.824 0.767 1.617 1.537 2.39 2.311 2.306-1.715 4.294-3.838 5.85-6.267z"/>
   <path id="path26361" d="m389.14 175.71c-0.355-2.51-0.861-5.001-1.531-7.47-0.185 0.093-0.374 0.181-0.56 0.271 0.378 2.526 1.093 4.939 2.091 7.199z"/>
   <path id="path26363" d="m269.4 161.52c-1.794-3.587-2.81-7.639-2.808-11.917 0-14.741 11.949-26.688 26.691-26.69 0.695 0 1.382 0.035 2.064 0.088 2.927-6.203 7.662-11.381 13.526-14.863-1.255-1.884-2.689-3.64-4.285-5.236-6.18-6.176-14.698-9.99-24.125-9.992-12.426 0-23.291 6.642-29.262 16.57l-0.72 1.195-1.368-0.261c-1.423-0.271-2.885-0.417-4.38-0.417-12.839 0.022-23.223 10.409-23.247 23.244 0 0.847 0.049 1.687 0.14 2.524l0.166 1.535-1.447 0.549c-10.679 4.047-18.278 14.363-18.273 26.461 0.024 14.005 10.185 25.605 23.543 27.881-0.147-4.863-0.787-10.273-1.519-16.445l-0.061-0.505-1.123-9.481 7.044 6.444c6.216 5.686 10.98 11.256 14.619 16.561 2.775-1.618 5.256-3.689 7.332-6.125l1.751-2.057 0.029 0.046c0.088-0.605 0.2-1.2 0.332-1.788-1.284-3.648-2.952-7.24-5.032-10.765l-6.238-10.568 10.917 5.608c2.459 1.264 4.792 2.541 7.03 3.828 2.455-2.385 5.408-4.26 8.704-5.424z"/>
   <path id="path26365" d="m373.1 171.82c4.319 5.747 7.461 11.257 9.719 16.392v-18.017c-3.073 0.989-6.336 1.55-9.719 1.625z"/>
   <path id="path26367" d="m422.83 167.84c16.706-0.029 30.219-13.543 30.248-30.248 5e-3 -15.52-11.697-28.308-26.749-30.039l-2.179-0.252 0.451-2.145c0.42-2.013 0.645-4.095 0.645-6.229 2e-3 -12.491-7.572-23.206-18.372-27.826l-2.155-0.921 1.248-1.982c2.384-3.798 3.765-8.276 3.765-13.093-0.025-13.623-11.045-24.643-24.666-24.668-12.584-4e-3 -22.964 9.432-24.471 21.603l-0.279 2.25-2.198-0.557c-2.705-0.687-5.534-1.054-8.455-1.054-9.463 2e-3 -18.012 3.83-24.216 10.031-6.201 6.205-10.031 14.753-10.031 24.218 0 6.697 1.926 12.927 5.245 18.205l1.495 2.375-2.005 0.468c9.827 1.351 17.401 9.756 17.403 19.953 0 3.137-0.722 6.113-2.004 8.763 7.486 4.053 12.568 11.979 12.57 21.088 0 0.273-0.015 0.543-0.024 0.814l1.234-1.257 1.427 1.452c0.441 0.448 0.9 0.877 1.367 1.298l-0.045-0.374-1.278-10.797 8.02 7.338c4.249 3.887 7.898 7.725 11.036 11.479 0.816 0.066 1.639 0.109 2.472 0.109 5.09-1e-3 9.875-1.268 14.08-3.488-1.484-4.341-3.444-8.612-5.916-12.801l-7.104-12.034 12.432 6.386c13.581 6.977 24.125 14.311 32.325 21.563 1.527 0.238 3.089 0.372 4.684 0.372z"/>
   <path id="path26369" d="m305.66 207.86v10.439c1.21 4.958 1.561 9.346 1.513 12.88 1.745-3.744 3.354-10.63 2.771-23.133-0.407 0.02-0.815 0.031-1.227 0.031-1.037 0-2.053-0.088-3.057-0.217z"/>
   <path id="path26371" d="m345.43 164.29-2.18-0.252 0.45-2.144c0.278-1.328 0.426-2.702 0.426-4.112 2e-3 -8.247-4.998-15.318-12.127-18.368l-2.154-0.92 1.247-1.982c1.563-2.49 2.466-5.42 2.468-8.58-0.017-8.928-7.239-16.147-16.165-16.165-8.247-4e-3 -15.047 6.184-16.036 14.155l-0.277 2.249-2.199-0.555c-1.792-0.456-3.668-0.698-5.6-0.698-12.532 0.021-22.668 10.159-22.692 22.689 0 4.44 1.274 8.563 3.476 12.062l1.493 2.375-2.731 0.639c-3.219 0.752-6.134 2.29-8.545 4.392 17.68 10.804 28.085 22.171 34.169 32.143 3.002 1.809 6.503 2.868 10.268 2.869 0.327 0 0.651-0.013 0.975-0.028-0.053-0.689-0.104-1.374-0.169-2.094l-0.843-9.244 6.795 6.325c0.943 0.878 1.835 1.763 2.702 2.65 2.39-1.292 4.492-3.052 6.175-5.167l1.565-1.968 1.567 1.968c3.665 4.606 9.294 7.556 15.633 7.556 1.352-2e-3 2.671-0.142 3.947-0.399 7.869-9.944 7.596-21.104 5.836-36.949-2.261-1.276-4.782-2.137-7.474-2.447z"/>
   <path id="path26373" d="m453.46 189.77c3.981 43.763-11.949 43.112-11.949 43.112s14.604-46.325-57.53-83.383c22.569 38.242-0.884 72.146-0.884 72.146s9.292-29.221-26.996-62.412c3.097 26.111 5.258 42.691-19.03 58.417-28.444 18.417-13.577 50.576-7.251 61.632h-5.323c0.11-0.212 0.224-0.433 0.338-0.658-2.121-4.02-4.626-9.542-6.39-15.835-0.768 7.527-3.266 14.577-6.558 16.493h-95.062c-2.173-5.064-4.007-11.408-2.957-16.587 0.466-2.297 1.624-5.336 6.486-8.484 7.435-4.814 17.505-16.041 14.59-27.116 0 0 18.655 9.035 18.946 26.524 13.99-3.79 21.545-19.7 24.192-38.184 26.814 28.273 4.858 57.517 4.858 57.517s24.581-13.699 32.451-28.563c0.314 0.428 0.596 0.901 0.862 1.397 0.086-2.095 0.32-4.203 0.734-6.307 1.452-7.368 4.918-13.778 10.318-19.156-3.139-6.309-7.73-12.62-14.246-18.686 3.497 38.432-10.493 37.86-10.493 37.86s12.825-40.682-50.521-73.225c19.82 33.583-0.776 63.357-0.776 63.357s8.16-25.661-23.707-54.808c2.72 22.93 4.617 37.49-16.712 51.3-24.198 15.668-12.702 42.661-6.909 53.16h-65.376c1.697 2.998 3.66 5.872 5.904 8.626h338.63v-8.626h-17.193c6.888-12.749 24.97-54.692-12.442-89.511zm-112.95 69.527c0.53-2.615 1.849-6.076 7.386-9.661 8.466-5.482 19.934-18.267 16.614-30.878 0 0 21.243 10.289 21.574 30.204 15.931-4.315 24.534-22.434 27.549-43.48 30.534 32.195 5.531 65.495 5.531 65.495s27.991-15.6 36.953-32.525c7.302 9.957 2.986 37.063-4.63 40.051h-107.48c-2.533-5.816-4.719-13.201-3.501-19.206z"/>
   <path id="path26375" d="m75.643 279.28-4.021 8.626h34.392c-1.249-2.818-2.343-5.698-3.286-8.626z"/>
   <polygon id="polygon26377" points="35.211 287.91 39.232 279.28 0 279.28 0 287.91"/>
   <ellipse id="ellipse26379" transform="matrix(.9739 -.2268 .2268 .9739 -29.929 22.485)" cx="82.885" cy="141.49" rx="22.495" ry="22.494"/>
   <path id="path26381" d="m127.54 253c0-1.174 0.038-2.264 0.1-3.256 4.098-2.465 7.455-6.865 8.966-14.641 2.586-22.213 1.123-35.346-5.682-55.52-1e-3 -2e-3 -2e-3 -4e-3 -2e-3 -6e-3 2.381 0.486 4.854 1.1 7.359 1.873 10.187 3.139 20.657 8.736 28.275 18.67 1.576 2.053 3.952 3.131 6.354 3.131 1.699 0 3.412-0.539 4.864-1.652 3.505-2.691 4.166-7.713 1.476-11.219-10.234-13.322-23.973-20.449-36.265-24.223-12.332-3.781-23.42-4.35-29.409-4.357-2.785 0-4.468 0.131-4.652 0.145-0.014 0-0.026 4e-3 -0.04 4e-3 -1.359 0.016-2.674 0.178-3.907 0.484-8.535 2.127-12.289 14.039-9.42 23.992 0.236 1.208 0.491 2.472 0.753 3.765 0.384-0.439 0.762-0.9 1.122-1.394 2.411-3.252 3.759-7.027 3.901-7.439 0.014-0.049 0.027-0.1 0.046-0.145 1.358-4.189 5.163-6.963 9.522-6.963 0.995 0 1.987 0.148 2.945 0.443 5.267 1.623 8.232 7.228 6.614 12.496-0.387 1.217-1.474 4.338-3.57 8.18-3.418 6.17-7.458 10.764-12.365 14.057-1.171 0.787-2.618 1.626-4.312 2.381 0.832 6.099 1.357 12.361 1.198 18.439l-31.72 5.701c-3.99 0.717-7.407 3.348-9.118 7.021l-22.423 48.104c-2.917 6.258-0.208 13.693 6.05 16.611 6.257 2.916 13.693 0.209 16.61-6.049v-2e-3l19.684-42.227 22.081-3.969c0.294 9.682 2.445 22.445 9.489 35.846 7.619 14.564 21.038 29.57 42.657 41.834 1.95 1.109 4.074 1.637 6.169 1.637 4.348 0 8.572-2.272 10.877-6.32 3.414-6.002 1.317-13.633-4.684-17.047-17.961-10.258-27.473-21.494-32.89-31.734-5.383-10.244-6.648-19.805-6.653-26.651z"/>
   <path id="path26383" d="m103.41 207.77c5.854-3.932 9.409-9.182 11.723-13.355 2.292-4.199 3.302-7.457 3.414-7.809 1.298-4.223-1.072-8.699-5.292-9.998-4.211-1.297-8.676 1.061-9.987 5.262l-1e-3 -2e-3s-3e-3 4e-3 -0.012 0.033l2e-3 2e-3v-2e-3h1e-3c0 2e-3 -1e-3 2e-3 -1e-3 2e-3 -0.13 0.426-1.598 4.549-4.211 8.074-1.349 1.848-2.966 3.496-4.648 4.568-1.711 1.074-3.368 1.662-5.597 1.678-3.563 0.027-9.67-1.826-18.509-9.881-3.266-2.978-8.326-2.742-11.303 0.524s-2.744 8.322 0.524 11.301c10.494 9.574 20.169 14.029 29.287 14.059h0.083c5.646-1e-3 10.667-1.868 14.527-4.456z"/>
   <path id="path26385" d="m136.93 136c2.384-10.814-19.584-8.205-19.584-8.205s17.948 15.623 19.584 8.205z"/>
   <path id="path26387" d="m126.57 95.609c-8.132-7.518-16.969 12.764-16.969 12.764s22.548-7.608 16.969-12.764z"/>
   <path id="path26389" d="m142.52 117.3s22.646 7.305 21.233-0.158c-2.062-10.881-21.233 0.158-21.233 0.158z"/>
   <path id="path26391" d="m250.07 48.423c-11.568-13.023-24.565 6.855-24.565 6.855s-20.993-11.107-24.816 5.887c8.371-7.323 21.904-1.263 26.752 1.617 2.848-4.865 11.76-16.718 22.629-14.359z"/>
   <path id="path26393" d="m267.44 78.283c2.849-4.865 11.761-16.719 22.63-14.359-11.568-13.022-24.565 6.855-24.565 6.855s-20.993-11.107-24.816 5.887c8.371-7.324 21.904-1.263 26.751 1.617z"/>
   <path id="path26395" d="m307.07 4.423c-11.568-13.022-24.565 6.855-24.565 6.855s-20.993-11.107-24.816 5.887c8.371-7.323 21.904-1.263 26.752 1.617 2.848-4.865 11.76-16.718 22.629-14.359z"/>
   <path id="path26397" d="m463.63 46.788s-19.122-24.343-35.832-14.094c15.799 0.633 28.892 15.477 33.089 21.343 7.027-1.618 26.668-4.075 38.928 5.909-5.738-18.743-36.185-13.158-36.185-13.158z"/>
  </g>
 </g>
</svg>
