<?xml version="1.0" encoding="UTF-8"?>
<!-- Created with Inkscape (http://www.inkscape.org/) -->
<svg id="svg1933" width="116.63" height="116.63" version="1.1" viewBox="0 0 30.858 30.858" xmlns="http://www.w3.org/2000/svg" xmlns:cc="http://creativecommons.org/ns#" xmlns:dc="http://purl.org/dc/elements/1.1/" xmlns:rdf="http://www.w3.org/1999/02/22-rdf-syntax-ns#">
 <defs id="defs1927">
  <style id="style10671">.cls-1{fill:#000000;}</style>
 </defs>
 <metadata id="metadata1930">
  <rdf:RDF>
   <cc:Work rdf:about="">
    <dc:format>image/svg+xml</dc:format>
    <dc:type rdf:resource="http://purl.org/dc/dcmitype/StillImage"/>
    <dc:title/>
   </cc:Work>
  </rdf:RDF>
 </metadata>
 <g id="layer1" transform="translate(0 -266.14)">
  <circle id="path853-5" cx="15.429" cy="281.57" r="15.429" fill="#266334"/>
  <circle id="path853" cx="15.429" cy="281.57" r="0" fill="#031d44"/>
 </g>
 <g id="layer2">
  <g id="g34368" transform="matrix(.065371 0 0 .065371 3.613 8.4614)" fill="#fff" stroke-width="4.0474">
   <polygon id="polygon34304" points="86.182 149.44 61.454 143.4 61.454 210.68 86.182 210.68"/>
   <path id="path34306" d="m61.454 118.57 27.046 5.105 27.046-5.105v-48.99l58.041-55.818c3.185-3.063 3.284-8.127 0.222-11.312-3.063-3.184-8.128-3.283-11.312-0.221l-54.885 52.783h-38.224l-54.885-52.782c-3.184-3.063-8.249-2.964-11.312 0.221s-2.963 8.249 0.222 11.312l58.041 55.818z"/>
   <polygon id="polygon34308" points="115.54 143.4 90.817 149.44 90.817 210.68 115.54 210.68"/>
   <circle id="circle34310" cx="88.5" cy="26.819" r="22.5"/>
   <path id="path34312" d="m329.04 28.173c-6.482-7.295-13.765 3.842-13.765 3.842s-11.761-6.224-13.904 3.297c4.69-4.103 12.273-0.706 14.989 0.906 1.598-2.726 6.591-9.366 12.68-8.045z"/>
   <path id="path34314" d="m329.38 47.359c4.69-4.105 12.272-0.707 14.989 0.906 1.596-2.727 6.59-9.367 12.679-8.046-6.481-7.296-13.764 3.841-13.764 3.841s-11.763-6.223-13.904 3.299z"/>
   <path id="path34316" d="m348.85 16.048c1.596-2.727 6.588-9.368 12.68-8.045-6.482-7.298-13.765 3.84-13.765 3.84s-11.763-6.223-13.904 3.298c4.691-4.103 12.272-0.706 14.989 0.907z"/>
   <path id="path34318" d="m255.93 96.207c0-11.045-8.955-20-20-20-11.046 0-20 8.955-20 20 0 2.125 0.338 4.17 0.952 6.092h-92.134v4.352h248.99v-4.352h-118.76c0.614-1.922 0.952-3.967 0.952-6.092zm-36.189 4e-3c0-8.93 7.26-16.193 16.188-16.193 8.925 0 16.188 7.264 16.188 16.193 0 2.154-0.431 4.207-1.199 6.088h-29.979c-0.767-1.882-1.198-3.934-1.198-6.088z"/>
   <rect id="rect34320" x=".768" y="102.3" width="51.637" height="4.352"/>
   <path id="path34322" d="m57.085 195.64c-0.54 0.068-1.085 0.139-1.632 0.212-12.441 1.668-26.453 4.87-26.453 10.829 0 3.479 4.554 6.277 13.922 8.555l0.709-2.916c-9.182-2.231-11.631-4.595-11.631-5.639 0-1.889 6.295-5.452 23.453-7.801 0.654-0.09 1.319-0.178 2.005-0.264z"/>
   <path id="path34324" d="m88.5 219.51c8.71 0 17.092-0.366 24.913-1.09l-0.275-2.986c-7.73 0.714-16.02 1.076-24.638 1.076-13.549 0-26.702-0.935-37.037-2.632l-0.486 2.961c10.491 1.722 23.817 2.671 37.523 2.671z"/>
   <path id="path34326" d="m120.1 198.68c0.491 0.063 0.969 0.127 1.443 0.192 17.172 2.35 23.455 5.922 23.455 7.8 0 0.977-1.787 2.465-6.079 4-3.608 1.29-8.985 2.612-16.577 3.69l0.422 2.971c8.552-1.214 18.319-3.281 22.779-6.661 1.544-1.17 2.456-2.496 2.456-4 0-5.976-14.135-9.176-26.455-10.829-0.356-0.048-0.71-0.095-1.063-0.14z"/>
   <path id="path34328" d="m57.99 228.92 0.256-2.988c-4.543-0.389-8.815-0.854-12.812-1.382-27.913-3.684-42.434-10.429-42.434-15.87 0-5.731 16.204-13.477 51.781-16.936l-0.291-2.986c-12.782 1.243-54.49 6.352-54.49 19.922 0 9.582 21.694 15.772 45.434 18.884 4.159 0.545 8.378 0.998 12.556 1.356z"/>
   <path id="path34330" d="m88.5 227.18c-5.374 0-10.759-0.114-16.003-0.34l-0.129 2.998c5.287 0.227 10.715 0.342 16.132 0.342 18.66 0 36.474-1.335 51.515-3.86l-0.496-2.959c-14.88 2.498-32.522 3.819-51.019 3.819z"/>
   <path id="path34332" d="m143.69 222.61 0.561 2.947c1.875-0.357 3.702-0.735 5.434-1.126l-0.66-2.926c-1.699 0.382-3.493 0.755-5.335 1.105z"/>
   <path id="path34334" d="m123.18 188.82-0.297 2.984c35.119 3.497 51.115 11.197 51.115 16.872 0 2.299-2.588 4.746-7.232 7.049-3.139 1.557-7.209 3.048-12.089 4.38l0.791 2.895c4.452-1.216 8.22-2.521 11.298-3.911 6.799-3.07 10.232-6.555 10.232-10.413 0-13.455-41.193-18.6-53.818-19.856z"/>
   <polygon id="polygon34336" points="215.77 113.57 221.64 113.57 221.64 111.84 215.77 111.84 204.77 111.84 204.77 113.57"/>
   <rect id="rect34338" x="133.77" y="111.84" width="16.875" height="1.726"/>
   <rect id="rect34340" x="243.93" y="111.84" width="13.458" height="1.726"/>
   <polygon id="polygon34342" points="265.77 111.84 259.77 111.84 259.77 113.57 265.77 113.57 267.77 113.57 267.77 111.84"/>
   <rect id="rect34344" x="315.1" y="111.84" width="13.458" height="1.726"/>
   <rect id="rect34346" x="330.93" y="111.84" width="8" height="1.726"/>
   <rect id="rect34348" x="226.52" y="111.84" width="11.25" height="1.726"/>
   <rect id="rect34350" x="181.27" y="116.7" width="27.723" height="2.48"/>
   <polygon id="polygon34352" points="265.77 116.7 245.61 116.7 245.61 117.68 245.61 119.18 267.72 119.18 267.72 116.7"/>
   <rect id="rect34354" x="271.62" y="116.7" width="13.143" height="2.48"/>
   <polygon id="polygon34356" points="235.48 117.68 235.48 116.7 217 116.7 217 117.68 217 119.18 235.48 119.18"/>
   <rect id="rect34358" x="193.77" y="125.26" width="36.75" height="3"/>
   <rect id="rect34360" x="237.02" y="125.26" width="36.75" height="3"/>
   <rect id="rect34362" x="143.43" y="153.01" width="84" height="4"/>
   <rect id="rect34364" x="278.43" y="153.01" width="27.333" height="4"/>
   <rect id="rect34366" x="240.43" y="153.01" width="25" height="4"/>
  </g>
 </g>
</svg>
