<?xml version="1.0" encoding="UTF-8"?>
<!-- Created with Inkscape (http://www.inkscape.org/) -->
<svg id="svg1933" width="116.63" height="116.63" version="1.1" viewBox="0 0 30.858 30.858" xmlns="http://www.w3.org/2000/svg" xmlns:cc="http://creativecommons.org/ns#" xmlns:dc="http://purl.org/dc/elements/1.1/" xmlns:rdf="http://www.w3.org/1999/02/22-rdf-syntax-ns#">
 <metadata id="metadata1930">
  <rdf:RDF>
   <cc:Work rdf:about="">
    <dc:format>image/svg+xml</dc:format>
    <dc:type rdf:resource="http://purl.org/dc/dcmitype/StillImage"/>
    <dc:title/>
   </cc:Work>
  </rdf:RDF>
 </metadata>
 <g id="layer1" transform="translate(0 -266.14)">
  <circle id="path853-5" cx="15.429" cy="281.57" r="15.429" fill="#266334"/>
  <circle id="path853" cx="15.429" cy="281.57" r="0" fill="#031d44"/>
 </g>
 <g id="layer2">
  <g id="g3056" transform="matrix(.20128 0 0 .20128 5.1028 6.4646)" fill="#fff" stroke-width="1.3146">
   <path id="path3036" d="m71.046 17.12c3.911 0 7.078-3.167 7.078-7.078 0-3.889-3.167-7.055-7.078-7.055-3.889 0-7.055 3.166-7.055 7.055 1e-3 3.912 3.167 7.078 7.055 7.078z"/>
   <path id="path3038" d="m76.308 18.704h-10.314l-17.579-17.579c-1.374-1.443-3.655-1.513-5.099-0.116-1.444 1.374-1.514 3.655-0.14 5.099l18.37 18.394v60.955c0 2.212 1.77 3.981 3.958 3.981 2.212 0 3.981-1.77 3.981-3.981v-33.063h3.213l0.023 33.062c0 2.212 1.793 3.981 3.981 3.981s3.958-1.77 3.958-3.981l-0.023-60.955 18.372-18.394c1.373-1.444 1.303-3.725-0.141-5.099-1.443-1.397-3.725-1.327-5.099 0.116z"/>
   <path id="path3040" d="m38.938 45.595c-1.071-1.094-2.538-1.746-4.167-1.746h-14.796c-1.63 0-3.097 0.652-4.145 1.746l-14.831 14.832c-1.374 1.443-1.327 3.725 0.116 5.099s3.749 1.327 5.099-0.116l11.501-11.502v15.366h-12.898c-2.375 0-4.284 1.909-4.284 4.284 0 1.234 0.466 2.328 1.304 3.12l14.529 14.528c1.28 1.887 3.795 2.491 5.797 1.327 2.119-1.21 2.817-3.888 1.606-5.983l-8.289-8.266 0.163 0.023h23.807l-8.312 8.266c-1.188 2.096-0.489 4.772 1.606 5.983 2.002 1.164 4.541 0.559 5.821-1.327l14.529-14.528c0.838-0.792 1.303-1.886 1.303-3.12 0-2.375-1.908-4.284-4.284-4.284h-12.874v-15.204l11.292 11.339c1.374 1.444 3.656 1.49 5.099 0.116 1.443-1.373 1.49-3.654 0.116-5.099z"/>
   <path id="path3042" d="m27.518 42.335c3.9 0 7.043-3.166 7.043-7.055 0-3.911-3.144-7.055-7.043-7.055-3.888 0-7.055 3.144-7.055 7.055 0 3.889 3.167 7.055 7.055 7.055z"/>
  </g>
 </g>
</svg>
