<?xml version="1.0" encoding="UTF-8"?>
<!-- Created with Inkscape (http://www.inkscape.org/) -->
<svg id="svg1933" width="116.63" height="116.63" version="1.1" viewBox="0 0 30.858 30.858" xmlns="http://www.w3.org/2000/svg" xmlns:cc="http://creativecommons.org/ns#" xmlns:dc="http://purl.org/dc/elements/1.1/" xmlns:rdf="http://www.w3.org/1999/02/22-rdf-syntax-ns#">
 <defs id="defs1927">
  <style id="style10671">.cls-1{fill:#000000;}</style>
 </defs>
 <metadata id="metadata1930">
  <rdf:RDF>
   <cc:Work rdf:about="">
    <dc:format>image/svg+xml</dc:format>
    <dc:type rdf:resource="http://purl.org/dc/dcmitype/StillImage"/>
    <dc:title/>
   </cc:Work>
  </rdf:RDF>
 </metadata>
 <g id="layer1" transform="translate(0 -266.14)">
  <circle id="path853-5" cx="15.429" cy="281.57" r="15.429" fill="#266334"/>
  <circle id="path853" cx="15.429" cy="281.57" r="0" fill="#031d44"/>
 </g>
 <g id="layer2">
  <g id="g51773" transform="matrix(.059156 0 0 .059156 10.449 2.3851)" fill="#fff" stroke-width="4.4727">
   <path id="path51757" d="m37.371 95.146h9.852v6.084h120.67v-76.667h-120.67v6.084h-9.852v-30.647h-10.891v418.35h-26.48v10.893h63.851v-10.892h-26.48zm15.852-64.583h108.67v64.667h-108.67zm-6 10.083v44.499h-9.852v-44.499z"/>
   <path id="path51759" d="m60.973 77.666h18.093c0.09-3.857 3.237-6.957 7.116-6.957s7.026 3.1 7.116 6.957h30.852c0.09-3.857 3.235-6.957 7.116-6.957 3.877 0 7.026 3.1 7.116 6.957h4.009l11.75-4.166v-30.666h-93.168zm67.418-30.582h20.957v11.332h-20.957zm-24.063 0h20.957v11.332h-20.957zm-24.062 0h20.957v11.332h-20.957zm-14.5 0h10.332v26.332h-10.332z"/>
   <circle id="circle51761" cx="86.182" cy="77.833" r="5.125"/>
   <circle id="circle51763" cx="131.27" cy="77.833" r="5.125"/>
   <path id="path51765" d="m152.55 246.68c-2.736-1.48-5.716-2.593-9.046-2.86-0.374-0.056-0.755-0.094-1.146-0.094h-1.57c-4.466 4.697-10.768 7.635-17.746 7.635-6.979 0-13.28-2.938-17.748-7.635h-1.197c-0.175-0.019-0.374-0.04-0.622-0.068-2.956-0.327-10.664-1.35-17.083-3.115-2.017-0.54-3.909-1.184-5.384-1.802 1.298-0.882 3.099-1.953 5.439-3.058 3.152-1.541 7.247-3.256 12.373-5.118-0.185-1.208-0.28-2.444-0.28-3.703 0-5.549 1.857-10.671 4.979-14.783-12.867 4.118-21.843 7.791-28.188 11.375-3.509 2.006-6.258 3.963-8.492 6.371-2.178 2.345-4.067 5.588-4.078 9.52-0.018 3.641 1.742 6.748 3.573 8.658 3.288 3.392 6.944 4.936 10.797 6.395 5.763 2.065 12.121 3.313 17.206 4.146 0.572 0.093 1.124 0.178 1.658 0.259v159.04c0 6.83 5.537 12.363 12.363 12.363 6.828 0 12.365-5.533 12.365-12.363v-90.271h4.635v90.271c0 6.83 5.537 12.363 12.363 12.363 6.828 0 12.365-5.533 12.365-12.363v-118.35c-7.41 2.394-16.543 3.574-27.732 3.592h-2e-3c-5.516 0-10.002-4.484-10.002-9.999 0-5.516 4.486-10 10.002-10 8.42 0 15.57-0.814 20.748-2.351 3.73-1.101 5.833-2.365 6.986-3.308v-12.332c0.442 0.521 0.865 1.059 1.244 1.614 1.801 2.572 2.717 5.332 2.682 7.214 0 0.531-0.057 1.016-0.17 1.479 0 2e-3 -1e-3 3e-3 -1e-3 5e-3 -0.223 0.845-0.585 1.617-1.429 2.565-0.113 0.127-0.252 0.262-0.388 0.395-1.372 1.345-3.913 2.975-8.357 4.284-2.288 0.68-5.061 1.258-8.332 1.682 0.229 0.779 0.529 1.848 0.857 3.151 1.72 0.424 3.039 1.605 3.264 3.172 0.204 1.423-0.546 2.797-1.831 3.704 0.299 1.841 0.535 3.778 0.66 5.721 6.409-0.894 11.76-2.38 16.272-4.455 2.268-1.052 4.318-2.275 6.144-3.664 1.314-1 2.517-2.082 3.581-3.259 2.543-2.799 4.281-6.114 5.102-9.498 1e-3 -3e-3 1e-3 -6e-3 2e-3 -9e-3 0-3e-3 1e-3 -5e-3 2e-3 -8e-3 0.426-1.757 0.625-3.53 0.623-5.265-0.094-8.312-4.074-15.29-9.004-20.617-2.508-2.664-5.338-4.923-8.457-6.629z"/>
   <circle id="circle51767" cx="123.04" cy="226.86" r="22.5"/>
   <path id="path51769" d="m133.74 295.39c-2.157-0.169-3.919-1.482-4.184-3.318-0.241-1.693 0.86-3.32 2.615-4.166-0.223-0.863-0.43-1.612-0.601-2.2-0.116-0.402-0.208-0.71-0.283-0.955-2.698 0.215-5.669 0.335-8.938 0.333-4.418 0-8.002 3.583-8.002 8.001s3.584 8.001 8.002 8.001c4.329-7e-3 8.303-0.188 11.962-0.537-0.099-1.723-0.305-3.473-0.571-5.159z"/>
   <path id="path51771" d="m116.38 155.24c0.12-0.686 0.175-1.309 0.199-1.899 1.071-1.066 2.083-2.19 2.983-3.411 3.099-4.204-1.41-7.386-4.693-9.373-12.28-7.436-32.84-8.492-43.845 1.9-2.603 2.458-4.134 5.563-4.713 8.838-2.968 1.593-5.726 3.381-8.15 5.273-4.152 3.24-8.033 8.01-7.229 13.585 0.809 5.603 5.764 7.882 10.803 7.34 1.992 3.436 7.347 4.123 11.418 3.813 1.344 1.111 3.006 1.55 4.802 1.534 0.01 0.199 0.031 0.399 0.075 0.602 0.238 1.088 1.093 1.707 2.285 2.011-1.339 2.143-1.682 4.046 1.001 4.293 5.59 0.516 11.857-2.674 16.665-5.125 2.226-1.136 7.592-4.11 10.584-7.396 0.974 1.801 1.114 4.066 0.3 5.965-0.901 2.103-2.814 3.708-4.98 4.914-3.04-2.705-10.398 1.339-12.925 3.204-0.239 0.178-0.134 0.379 0.116 0.434 3.399 0.755 7.224 0.01 10.732-1.457 0.802 1.488 0.598 3.458 0.145 4.993-0.289 0.98-0.853 1.852-1.567 2.57-1.966 0.63-2.046 0.187-0.24-1.331 0.526-0.269 0.73-0.544 1.201-1.012 0.595-0.592-2.136-0.244-2.619 0.236-1.22 1.213-2.295 1.347-3.075 2.915-0.095 0.191 0.102 0.245 0.234 0.292 5.176 1.829 9.662-2.423 9.317-7.6-0.066-1.003-0.29-1.792-0.636-2.4 1.716-0.94 3.295-2.018 4.622-3.129 4.064-3.401 3.721-7.904 0.886-10.678 0.631-1.2 0.814-2.398 0.284-3.526-0.365-0.777-1.063-1.283-1.972-1.586 6e-3 -0.043 0.013-0.086 0.018-0.129 4.074-4.462 7.093-9.612 7.974-14.66zm-21.8 35.59c0.558-0.959 1.373-1.612 2.446-1.961 1.768-0.915 3.149-0.582 4.142 0.514-1.077 0.428-2.143 0.772-3.113 1.041-1.141 0.312-2.299 0.448-3.475 0.406zm17.955-31.522c-1.038 2.768-2.611 5.375-4.506 7.787-9e-3 -0.021-0.013-0.041-0.021-0.061-0.202-0.488-0.494-0.916-0.824-1.316 1.473-1.398 2.913-2.815 4.31-4.241 0.593-0.605-2.143-0.25-2.619 0.236-0.949 0.97-1.92 1.925-2.9 2.873-0.66-0.476-1.422-0.868-2.262-1.187 0.145-0.146 0.29-0.295 0.434-0.442 1.714-1.107 3.351-2.267 4.88-3.391 1.424-1.047 2.853-2.115 4.232-3.242-0.125 1.004-0.361 2.014-0.724 2.984zm-27.745 23.361c1.05 0.014 2.08-0.07 3.028-0.248 4.922-0.923 10.287-3.648 15.04-7.382-0.879 1.006-1.81 1.882-2.532 2.516-4.023 3.526-8.808 6.186-14.188 6.703-0.775 0.074-1.781 0.059-2.704-0.12 0.401-0.481 0.859-0.974 1.356-1.469zm-10.522-4.106c-1.096-1.482-1.479-3.113-1.408-4.756 0.766-0.392 1.522-0.802 2.27-1.23-0.32 1.517-0.311 3.067 0.222 4.605 0.352 1.016 0.898 1.862 1.573 2.571-0.412 0.103-0.824 0.199-1.238 0.279-0.503-0.391-0.979-0.875-1.419-1.469zm-9.901-2.451c-1.712-2.586 1.998-4.97 3.82-6.041 1.09-0.64 2.248-1.209 3.431-1.746-1.134 1.889-1.81 3.841-1.847 5.786-0.259 0.125-0.514 0.265-0.773 0.385-1.454 0.673-3.032 1.275-4.631 1.616zm4.528-24.81c0.295-0.145 0.589-0.289 0.874-0.426 7.421-3.55 16.614-6.205 24.873-4.68 2.135 0.395 3.731 1.208 4.856 2.285-2.662 0.894-5.02 1.916-6.504 2.65-4.037 1.998-8.543 4.524-11.783 7.942-2.89 1.886-5.573 4.118-7.619 6.528-1.528-1.602-2.746-3.537-3.561-5.482-1.315-3.136-1.611-6.105-1.136-8.817zm44.457 3.214c-1.639 1.571-3.623 3.128-5.727 4.594 1.951-2.358 3.712-4.854 5.168-7.491 0.015-0.027 0.026-0.056 0.041-0.083 0.324 0.914 0.49 1.927 0.518 2.98zm-4.27-0.878c-1.982 3.361-4.563 6.364-7.285 9.171-4e-3 3e-3 -8e-3 5e-3 -0.012 7e-3 -0.668-0.158-1.357-0.286-2.063-0.385 2.455-2.213 4.363-4.884 5.025-8.013 0.531-2.51-0.188-4.488-1.554-5.99 0.726-0.314 1.454-0.603 2.186-0.857 2.685-0.472 4.664 0.186 5.973 1.517-0.579 1.726-1.814 3.776-2.27 4.55zm-3.471 16.027c-0.975-3e-3 -2.015 0.08-3.072 0.232 0.87-0.742 1.728-1.497 2.575-2.265 0.384 0.643 0.528 1.329 0.497 2.033zm-2.78 2.936c-1.389 0.015-2.821 0.192-4.261 0.511 0.784-0.598 1.556-1.214 2.321-1.838 1.158-0.126 2.311-0.159 3.442-0.083-0.491 0.481-0.993 0.951-1.502 1.41zm-3.415-2.115c-2.245 0.509-4.216 1.113-5.175 1.395-0.239 0.07-0.514 0.154-0.813 0.248 0.756-0.554 1.499-1.113 2.229-1.675 2.139-1.644 4.241-3.426 6.259-5.316 0.694 0.336 1.351 0.716 1.943 1.154 0.062 0.045 0.113 0.093 0.171 0.139-1.499 1.392-3.039 2.746-4.614 4.055zm-13.302-12.955c0.773-0.465 1.586-0.894 2.413-1.299-2.462 1.9-4.797 3.958-6.946 6.161-0.147 0.15-0.298 0.311-0.448 0.468 0.313-1.336 1.402-2.656 2.413-3.689 0.852-0.575 1.713-1.126 2.568-1.641zm11.685 4.352c-0.109 0.111-0.234 0.213-0.347 0.322-3.259-0.202-6.482 0.063-8.475 0.37 3.037-2.682 5.833-5.659 7.837-8.997 0.162-0.271-0.357-0.321-0.484-0.318-0.57 0.013-1.191 0.079-1.842 0.183 1.912-1.352 3.936-2.625 6.015-3.72 2.177 3.424 0.92 8.474-2.704 12.16zm-4.636-7.338c1.009-0.221-2.084 3.386-2.454 3.799-1.476 1.65-3.059 3.244-4.727 4.768-1.177 0.233-2.353 0.494-3.527 0.784 1.989-2.23 4.218-4.182 5.89-5.623 1.387-1.196 2.906-2.435 4.518-3.644 0.1-0.025 0.199-0.062 0.3-0.084zm-13.214 12.584c0.207 0.148 0.427 0.286 0.658 0.416-0.504 0.376-1.024 0.729-1.539 1.09 0.267-0.509 0.558-1.011 0.881-1.506zm1.527-2.081c0.014-0.017 0.027-0.034 0.042-0.052 1.031-0.251 2.059-0.477 3.084-0.685-0.719 0.623-1.45 1.232-2.196 1.827-0.375-0.314-0.689-0.676-0.93-1.09zm-3.137-0.017c-0.689 0.21-1.375 0.428-2.058 0.654 0.625-0.807 1.318-1.565 2.05-2.293-0.149 0.599-0.131 1.142 8e-3 1.639zm-3.033 2.023c0.069-0.106 0.15-0.205 0.222-0.311 1.016-0.355 2.048-0.676 3.087-0.977-0.604 0.776-1.179 1.591-1.687 2.438-0.579-0.315-1.132-0.682-1.66-1.089 0.012-0.02 0.025-0.042 0.038-0.061zm6.569 1.119c9e-3 -7e-3 0.019-0.014 0.027-0.02 1.063 0.409 2.213 0.672 3.255 0.807-0.731 0.176-1.461 0.32-2.186 0.419-0.949 0.129-1.864 0.097-2.748-0.043 0.556-0.385 1.107-0.772 1.652-1.163zm1.732-1.27c1.341-0.997 2.687-2.047 4.006-3.15 0.406-0.068 0.817-0.144 1.218-0.206 2.169-0.339 4.714-0.392 7.21-0.067-2.219 1.842-4.851 3.371-7.602 4.439-1.659-0.035-3.425-0.332-4.832-1.016zm14.422-3.078c0.455 0.1 0.904 0.213 1.346 0.342-3.181 1.723-5.88 2.941-7.15 3.325-0.263 0.079-0.566 0.146-0.886 0.206 2.257-1.002 4.595-2.293 6.69-3.873zm11.215-17.28c0.288-0.052 0.575-0.109 0.862-0.148 0.633-0.086 1.03 0.04 1.27 0.299-0.672-0.108-1.386-0.155-2.132-0.151zm-9.231 2.514c-0.042 0.021-0.085 0.041-0.126 0.062-2.973 1.466-5.854 3.186-8.604 5.097-1.164 0.363-2.38 0.82-3.622 1.364 3.648-2.752 7.972-5.031 12.329-6.55 7e-3 8e-3 0.015 0.017 0.023 0.027zm-25.891 20.104c0.616 0.309 1.249 0.563 1.898 0.758-0.152 0.331-0.292 0.666-0.417 1.003-0.852 0.524-1.714 1.023-2.583 1.505 0.212-1.116 0.602-2.219 1.102-3.266zm3.799 6.138c-0.38-1.53-0.225-3.079 0.269-4.603 0.145-0.094 0.29-0.187 0.435-0.281 3.012 0.278 6.192-0.348 9.183-1.347 3.587-0.099 7.131-1.202 10.495-2.806-2.56 2.428-5.439 4.927-8.535 7.141-3.309 1.269-7.297 3.13-9.692 5.362-0.121 0.046-0.241 0.1-0.362 0.144-0.792-0.898-1.413-2.079-1.793-3.61zm3.597 5.054c0.421-0.705 0.978-1.357 1.634-1.959 2.541-1.187 4.981-2.628 7.318-4.193 0.854-0.346 1.671-0.653 2.401-0.924 1.553-0.574 3.218-1.093 4.918-1.48-1.117 0.89-2.251 1.757-3.407 2.592-3.092 1.196-6.006 2.863-8.289 4.637-0.236 0.184-0.706 0.6-1.29 1.16-0.646 0.273-1.302 0.517-1.96 0.709-0.461-0.139-0.906-0.316-1.325-0.542zm6.525-0.585c0.885-0.446 1.697-0.885 2.383-1.267 1.971-1.099 3.889-2.321 5.755-3.634 1.702-0.605 3.489-1.02 5.261-1.06-1.7 1.427-3.459 2.733-5.202 3.895-2.645 1.764-6.456 3.367-9.953 3.556 0.575-0.512 1.169-1.013 1.756-1.49zm-0.776-43.36c9.723-1.126 20.975 1.406 28.6 7.72 2.283 1.891 2.104 4.277 0.521 6.8-0.334-1.417-1.055-2.429-2.048-3.121 0.203-0.76 0.366-1.53 0.431-2.32-0.054-0.1-0.139-0.154-0.256-0.163-3.475-0.547-7.121 0.482-10.482 1.881-0.563 0.125-1.125 0.264-1.685 0.414-1.829-1.516-4.366-2.414-6.726-2.762-8.44-1.242-18.031 1.039-26.379 4.972 2.105-7.323 9.906-12.48 18.024-13.421zm-30.484 38.403c-2.666-1.999-3.486-6.063-2.853-9.145 1.193-5.796 6.884-10.008 12.183-12.924-0.425 4.713 1.062 9.628 4.204 13.385 0.399 0.478 0.821 0.895 1.253 1.284-0.275 0.11-0.557 0.217-0.83 0.33-2.945 1.222-10.847 4.18-9.488 8.648-1.568-0.08-3.091-0.544-4.469-1.578zm8.198 2.045c1.652-0.425 3.264-0.982 4.838-1.642 0.189 1.719 0.927 3.419 2.311 5.055-2.642-0.26-5.42-1.505-7.149-3.413zm11.791 3.844c0.309-0.077 0.615-0.16 0.922-0.248 0.219 0.175 0.445 0.338 0.682 0.489-0.045 0.094-0.087 0.188-0.125 0.281-0.509-0.107-1.001-0.286-1.479-0.522zm4.207 1.753c0.229-0.051 0.457-0.1 0.686-0.159 0.309 0.072 0.621 0.134 0.936 0.186-0.293 0.329-0.582 0.668-0.862 1.013-0.384-0.265-0.656-0.606-0.76-1.04zm17.998 0.311c-3.182 1.998-12.626 7.801-16.428 5.517-0.889-0.534-0.828-1.471-0.209-2.592 4.076 0.054 9.736-1.784 11.199-2.414 3.142-1.352 9.15-4.588 12.502-8.556 0.298 0.152 0.574 0.331 0.835 0.526-1.874 3.015-6.637 6.726-7.899 7.519zm8.633-9.281c-0.165-0.073-0.326-0.151-0.498-0.217 0.15-0.235 0.29-0.473 0.418-0.712 0.11 0.28 0.131 0.592 0.08 0.929z"/>
  </g>
 </g>
</svg>
