<?xml version="1.0" encoding="UTF-8"?>
<!-- Created with Inkscape (http://www.inkscape.org/) -->
<svg id="svg1933" width="116.63" height="116.63" version="1.1" viewBox="0 0 30.858 30.858" xmlns="http://www.w3.org/2000/svg" xmlns:cc="http://creativecommons.org/ns#" xmlns:dc="http://purl.org/dc/elements/1.1/" xmlns:rdf="http://www.w3.org/1999/02/22-rdf-syntax-ns#">
 <defs id="defs1927">
  <style id="style10671">.cls-1{fill:#000000;}</style>
  <style id="style10671-0">.cls-1{fill:#000000;}</style>
  <style id="style10671-05">.cls-1{fill:#000000;}</style>
  <style id="style10671-1">.cls-1{fill:#000000;}</style>
 </defs>
 <metadata id="metadata1930">
  <rdf:RDF>
   <cc:Work rdf:about="">
    <dc:format>image/svg+xml</dc:format>
    <dc:type rdf:resource="http://purl.org/dc/dcmitype/StillImage"/>
    <dc:title/>
   </cc:Work>
  </rdf:RDF>
 </metadata>
 <g id="layer1" transform="translate(0 -266.14)">
  <circle id="path853-5" cx="15.429" cy="281.57" r="15.429" fill="#266334"/>
  <circle id="path853" cx="15.429" cy="281.57" r="0" fill="#031d44"/>
 </g>
 <g id="layer2">
  <g id="g83077" transform="matrix(.23845 0 0 .23845 3.6452 2.4515)" fill="#fff" stroke-width="1.1096">
   <path id="path83075" d="m82.892 91.681-2.606-2.574c-0.077-0.125-0.186-0.249-0.293-0.356-3.646-3.568-7.26-7.058-10.889-10.579h3.413c4.325 0 8.033-3.38 8.033-7.661v-53.77c0-2.187-1.209-3.971-2.637-5.103-1.443-1.148-3.104-1.831-4.685-2.436-7.531-2.822-15.166-4.202-22.852-4.202h-0.255c-7.708 0-15.464 1.427-23.249 4.156-0.062 0.016-0.139 0.031-0.202 0.047-0.077 0.031-0.138 0.047-0.202 0.079h-0.029c-1.553 0.558-3.149 1.224-4.529 2.326-1.427 1.148-2.606 2.963-2.606 5.134v53.77c0 4.28 3.708 7.661 8.034 7.661h3.072l-10.64 10.763c-0.155 0.155-0.279 0.326-0.387 0.48l-2.251 2.265c-0.775 0.759-0.775 2.002 0 2.761 0.374 0.371 0.87 0.558 1.366 0.558 0.495 0 0.992-0.187 1.38-0.558l2.124-2.126h56.004l2.125 2.126c0.372 0.371 0.867 0.558 1.363 0.558 0.514 0 1.009-0.187 1.397-0.558 0.745-0.759 0.745-2.002 1e-3 -2.761m-17.108-23.139c-3.272 0-5.956-2.684-5.956-5.956 0-3.256 2.684-5.954 5.956-5.954s5.956 2.698 5.956 5.954c0 3.272-2.683 5.956-5.956 5.956m-14.175-43.116h24.955v19.882h-24.955zm11.787 52.745 2.946 2.855h-33.174l2.838-2.855zm-40.122-52.745h24.363v19.882h-24.363zm4.747 37.145c0-3.272 2.698-5.972 5.954-5.972 3.272 0 5.971 2.7 5.971 5.972 0 3.256-2.698 5.938-5.971 5.938-3.256 0-5.954-2.682-5.954-5.938m-2.079 25.776 3.318-3.352h41.177l3.443 3.352z" fill="#fff" stroke-width="1.1096"/>
  </g>
 </g>
</svg>
