<?xml version="1.0" encoding="UTF-8"?>
<!-- Created with Inkscape (http://www.inkscape.org/) -->
<svg id="svg1933" width="116.63" height="116.63" version="1.1" viewBox="0 0 30.858 30.858" xmlns="http://www.w3.org/2000/svg" xmlns:cc="http://creativecommons.org/ns#" xmlns:dc="http://purl.org/dc/elements/1.1/" xmlns:rdf="http://www.w3.org/1999/02/22-rdf-syntax-ns#">
 <defs id="defs1927">
  <style id="style10671">.cls-1{fill:#000000;}</style>
 </defs>
 <metadata id="metadata1930">
  <rdf:RDF>
   <cc:Work rdf:about="">
    <dc:format>image/svg+xml</dc:format>
    <dc:type rdf:resource="http://purl.org/dc/dcmitype/StillImage"/>
    <dc:title/>
   </cc:Work>
  </rdf:RDF>
 </metadata>
 <g id="layer1" transform="translate(0 -266.14)">
  <circle id="path853-5" cx="15.429" cy="281.57" r="15.429" fill="#266334"/>
  <circle id="path853" cx="15.429" cy="281.57" r="0" fill="#031d44"/>
 </g>
 <g id="layer2">
  <g id="g39133" transform="matrix(.061889 0 0 .061889 3.9994 6.5258)" fill="#fff" stroke-width="4.2751">
   <path id="path39109" d="m300.34 177.55-0.203-16.465 3.638 1.212 6.466 2.424 2.742-6.857 0.466 0.339 3.352-1.892 2.393 1.712 3.059 1.318-0.091-3.206 2.568-1.468-0.427-2.593-1.425-3.712 4.082-0.506 3.653-0.139 0.814-2.196 0.877 1.519 4.076-1.271 0.436 3.479 2.692 0.53 2.785 0.406-0.433 1.924 0.788-1.656-0.066-2.898-1.648-2.42-1.274-2.572 0.274-2.456 1.329-2.142 0.839-2.264-0.86-2.695-1.17-2.141 0.123-2.274-0.291-2.74 0.119-2.813-1.576-2.502-0.593-2.681 2.882-4.237-3.343 2.434-2.597-0.775-2.394 1.879-2.788-3.419-1.471 0.652 0.209-2.033-4.627-1.421-0.165-2.87-0.382-2.044-1.563 1.3-3.265-3.122-2.495 0.624-1.65 4.715-1.973-4.102-0.48-1.173-2.236-1.782-2.116-1.85-1.043-3.641-3.406 1.216-1.887 1.818-3.074-0.52-1.342 2.886-1.143 3.982-4.198-4.126-1.804 5.301-3.006-3.291-2.899 0.17-2.86 0.993-0.457 0.879-2.476 0.283-1.741 1.652-2.986-0.11-2.93-0.75-2.701-0.47-2.703-0.399-2.717 0.756-2.619-0.199-1.029 2.446 0.807 3.269-1.128 2.494-3.286 1.631-0.575 2.712-0.128 2.57-0.127 2.286 1.011 2.135-1.122 3.138 3.584 0.982 0.811 3.555-5.099 0.613-0.936 2.644 2.457 4.294-4.82 1.118-0.488 2.968 1.559 2.495-0.668 2.62-1.063 2.633 4.529 2.33-2.697 3.852 3.697 0.183 2.263-0.481 1.887-2.136 2.64 1.217 2.179-3.32 1.615 2.787 2.32 1.736 0.216 3.202 2.291 1.754 1.648 0.046 1.151 0.076 2.289-1.511 2.33-1.429 4.382 2.218-0.67-4.997-0.06-1.384 0.014-2e-3 9.653 10.958 3.637 8.888-2.153 16.469h-41.247l-1.52-8.094-0.108-8.833 1.951 0.65 3.469 1.301 1.471-3.679 0.25 0.182 1.799-1.015 1.283 0.919 1.641 0.706-0.049-1.72 1.379-0.787-0.229-1.391-0.765-1.992 2.19-0.271 1.961-0.075 0.436-1.178 0.471 0.815 2.188-0.682 0.232 1.866 1.445 0.285 1.494 0.218-0.233 1.033 0.423-0.889-0.036-1.555-0.885-1.298-0.684-1.379 0.051-0.45-0.653-0.017-0.648-0.02-0.513-0.392-2.291-1.754-0.72-0.552-0.061-0.903-0.153-2.285-1.584-1.186-0.328-0.243-0.195-0.338-0.401 0.61-0.946 1.439-1.562-0.72-1.288-0.593-0.901 1.02-0.438 0.495-0.646 0.139-2.263 0.48-0.255 0.054-0.261-0.013-3.696-0.183-3.614-0.179 2.075-2.965 1.382-1.974-2.491-1.283-1.621-0.834 0.682-1.692 1.017-2.52 0.421-1.648-1.107-1.771-0.292-0.465-0.381 1.329-2.253-2.213-0.967 2.844-1.613-1.766-1.556 0.091-1.534 0.533-0.244 0.471-1.328 0.152-0.935 0.886-1.603-0.059-1.571-0.402-1.448-0.253-1.451-0.214-1.457 0.405-1.404-0.107-0.553 1.313 0.433 1.754-0.604 1.338-1.764 0.875-0.309 1.455-0.068 1.379-0.068 1.227 0.543 1.145-0.602 1.683 1.923 0.527 0.435 1.907-2.735 0.329-0.502 1.418 1.318 2.303-2.586 0.6-0.262 1.592 0.836 1.339-0.359 1.405-0.569 1.413 2.43 1.25-1.446 2.066 1.982 0.098 1.215-0.258 1.012-1.146 1.416 0.653 1.168-1.781 0.867 1.495 1.244 0.931 0.116 1.717 1.229 0.941 0.884 0.024 0.618 0.041 1.227-0.811 1.25-0.766 2.351 1.19-0.359-2.681-0.031-0.742 7e-3 -2e-3 5.179 5.878 1.951 4.768-1.052 8.041h-89.317v3.75h206.05v-3.75h-58.648zm6.375-25.5 2.888-1.751 1.011 1.769-4.01 8.21-1.344-1.747 0.027-1.188-0.023-2.453-0.424-2.526zm-18.697 7.015-2.24-2.239 0.581-0.124-0.629-2.564-0.378-2.504 2.457 0.929 1.147 1.168zm-35.036 13.281 1.55-0.94 0.542 0.949-2.151 4.404-0.721-0.938 0.015-0.637-0.013-1.316-0.228-1.355zm-11.231 2.562 0.313-0.067-0.338-1.376-0.203-1.343 1.318 0.499 0.616 0.627-0.505 2.86z"/>
   <path id="path39111" d="m17.008 157.79c1.678 0.485 3.481 0.894 5.396 1.241v-16.352c-1.692-0.432-3.027-0.909-4.009-1.387-1.609-0.756-2.235-1.421-2.376-1.616-4e-3 -5e-3 -7e-3 -9e-3 -0.01-0.014 0.011-0.064 0.034-0.167 0.087-0.316 0.251-0.999 2.271-3.632 5.479-5.498 0.88-0.538 1.836-1.017 2.829-1.439v156.35c0 6.83 5.537 12.363 12.363 12.363 6.828 0 12.365-5.533 12.365-12.363v-90.271h4.635v90.271c0 6.83 5.537 12.363 12.363 12.363 6.828 0 12.365-5.533 12.365-12.363v-148.44c0.659-0.161 1.329-0.325 2.002-0.49 3.101-0.762 6.337-1.574 9.706-2.441 4.679 1.468 10.099 2.62 16.223 2.638 0.047 0 0.096 1e-3 0.143 1e-3 9.423 0 20.22-2.917 31.87-10.475 2.467-1.593 3.757-4.314 3.648-7.05 51.659-16.385 114.91-41.267 170.99-77.074l-1.076-1.686c-55.767 35.613-118.75 60.416-170.25 76.766-0.211-0.696-0.515-1.375-0.929-2.017-2.398-3.711-7.35-4.778-11.06-2.38-9.659 6.197-17.054 7.885-23.336 7.915-6.274 0-11.739-1.814-17.135-3.995-2.696-1.085-5.344-2.259-8.143-3.263-2.547-0.894-5.263-1.708-8.408-1.864-0.631-0.166-1.29-0.264-1.974-0.264h-38.633c-0.322 0-0.639 0.026-0.95 0.064-7.585 0.3-14.569 3.01-20.169 6.952-2.946 2.102-5.528 4.578-7.534 7.529-1.981 2.939-3.465 6.484-3.478 10.563-0.031 3.309 1.132 6.825 3.26 9.585 3.22 4.19 7.926 6.748 13.746 8.461zm69.74-21.587c-2.139 0.542-4.227 1.065-6.25 1.564-0.676 0.166-1.34 0.329-2.002 0.49v-5.384c2.325 0.95 5.084 2.165 8.252 3.33z"/>
   <circle id="circle39113" cx="51.45" cy="86.439" r="22.5"/>
   <path id="path39115" d="m355.38 15.75-28.25-15.75-9.916 30.911 31.166 20.339zm-35.583 14.417s5.491-4.381 14.345-8.187c-1.73-4.229-3.239-9.062-4.095-14.338 2.763 4.461 5.12 8.965 7.083 13.131 4.493-1.703 9.674-3.162 15.334-3.857-4.776 2.708-9.579 4.97-13.98 6.816 4.072 9.153 6.064 16.04 6.064 16.04s-4.868-5.637-9.104-14.803c-8.993 3.549-15.647 5.198-15.647 5.198z"/>
   <path id="path39117" d="m324.38 51.45c8.228 4.746 11.734 14.106 11.748 27.299h2.002c0.015-13.473-3.648-23.778-12.751-29.033-6.316-3.601-7.06-11.135-7.053-14.218 0-0.819 0.05-1.27 0.047-1.272l-1.987-0.204h-2e-3c-2e-3 0.028-0.058 0.576-0.058 1.476 9e-3 3.3 0.707 11.668 8.054 15.952z"/>
   <path id="path39119" d="m366.94 32.81c-1.611-13.301-9.634-16.23-9.857-16.264l-0.633 1.897h-2e-3s0.059 0.019 0.237 0.1c1.244 0.589 6.895 3.575 8.268 14.515 1.613 13.219 9.1 21.616 18.385 25.616l0.795-1.836c-8.709-3.794-15.623-11.458-17.193-24.028z"/>
   <path id="path39121" d="m360.64 71.893c-9.54-5.768-10.286-14.222-10.304-16.948-2e-3 -0.562 0.034-0.833 0.03-0.835l-1.986-0.22c-4e-3 0.032-0.045 0.41-0.045 1.056-0.017 3.059 0.943 12.428 11.271 18.66 11.515 6.876 16.84 24.72 17.774 32.027l1.986-0.263c-1.066-7.693-6.239-25.85-18.726-33.477z"/>
   <path id="path39123" d="m182.74 36.652c0.564-0.657 1.24-1.214 2.003-1.638 2e-3 -0.167 0.016-0.331 0.024-0.496-4.4-1.694-7.536-5.955-7.536-10.944 0-6.473 5.264-11.739 11.735-11.739 4.963 0 9.206 3.102 10.92 7.464-0.852 1.05-1.58 2.202-2.19 3.423 4.093 0.156 7.683 2.268 9.845 5.443-2.243-2.155-5.283-3.487-8.639-3.487-5.892 0-10.817 4.086-12.13 9.574 0.493-0.105 1.004-0.162 1.528-0.162 4.049 0 7.331 3.281 7.331 7.33 0 0.251-0.013 0.499-0.037 0.743-0.373-3.7-3.496-6.587-7.294-6.587s-6.92 2.887-7.293 6.587c-0.024 0.245-0.037 0.492-0.037 0.743 0 4.049 3.281 7.331 7.33 7.331 1.919 0 3.659-0.743 4.966-1.949 1.694 0.859 3.605 1.354 5.636 1.354 2.555 0 4.928-0.771 6.906-2.088 2.561 1.326 5.462 2.088 8.545 2.088 0.268 0 0.528-0.029 0.793-0.04 9.916-0.419 17.834-8.566 17.834-18.585 0-10.018-7.918-18.167-17.834-18.585-0.265-0.011-0.525-0.04-0.793-0.04-4.77 0-9.105 1.808-12.4 4.757-2.37-4.782-7.287-8.078-12.986-8.078-8.007 0-14.5 6.492-14.5 14.5-1e-3 5.778 3.386 10.75 8.273 13.081z"/>
   <path id="path39125" d="m113.32 71.084c2.011 0 3.832-0.803 5.167-2.103 2.189 1.827 5.005 2.929 8.079 2.929 2.976 0 5.705-1.036 7.862-2.758 1.855 1.707 4.323 2.758 7.042 2.758 5.754 0 10.418-4.663 10.418-10.415 0-5.753-4.664-10.416-10.418-10.416-0.718 0-1.418 0.073-2.095 0.211 0.966 1.784 1.515 3.827 1.515 5.998 0 3.58-1.497 6.803-3.891 9.1 1.378-2.022 2.186-4.465 2.186-7.097 0-6.97-5.648-12.619-12.619-12.619-3.393 0-6.465 1.346-8.732 3.523-1.71 1.642-2.951 3.758-3.524 6.139-0.324-0.043-0.653-0.074-0.989-0.074-4.094 0-7.41 3.318-7.41 7.412-1e-3 4.095 3.315 7.412 7.409 7.412z"/>
   <path id="path39127" d="m226.88 46.072c1.89 2.184 4.675 3.572 7.789 3.572 5.689 0 10.303-4.612 10.303-10.303s-4.613-10.303-10.303-10.303c-0.069 0-0.137 9e-3 -0.206 0.01 0.068 0.648 0.106 1.305 0.106 1.97 0 6.196-3.037 11.668-7.689 15.054z"/>
   <circle id="circle39129" cx="120.56" cy="170.14" r="17.5"/>
   <path id="path39131" d="m169.85 157.85c-2.563-2.101-6.342-1.724-8.442 0.838l-27.483 33.542c-0.284-0.05-0.573-0.088-0.872-0.088h-25c-0.147 0-0.286 0.031-0.43 0.044-0.749-0.055-1.519 0.027-2.276 0.271h-2e-3c-1.126 0.324-5.992 2.435-10.163 9.329-4.197 6.881-7.767 18.18-7.769 37.009 0 2.768 0.078 5.705 0.243 8.822 0.172 3.2 2.821 5.678 5.988 5.679 0.108 0 0.218-3e-3 0.327-9e-3 3.308-0.178 5.848-3.004 5.67-6.314-0.159-2.908-0.228-5.63-0.23-8.178 0-12.391 1.694-20.515 3.642-25.753v80.101c0 4.418 3.582 8 8 8s8-3.582 8-8v-41h3v41c0 4.418 3.582 8 8 8s8-3.582 8-8v-87.226c0.318-0.256 0.618-0.544 0.888-0.872l31.748-38.75c2.103-2.565 1.725-6.344-0.839-8.445z"/>
  </g>
 </g>
</svg>
