<?xml version="1.0" encoding="UTF-8"?>
<!-- Created with Inkscape (http://www.inkscape.org/) -->
<svg id="svg1933" width="116.63" height="116.63" version="1.1" viewBox="0 0 30.858 30.858" xmlns="http://www.w3.org/2000/svg" xmlns:cc="http://creativecommons.org/ns#" xmlns:dc="http://purl.org/dc/elements/1.1/" xmlns:rdf="http://www.w3.org/1999/02/22-rdf-syntax-ns#">
 <metadata id="metadata1930">
  <rdf:RDF>
   <cc:Work rdf:about="">
    <dc:format>image/svg+xml</dc:format>
    <dc:type rdf:resource="http://purl.org/dc/dcmitype/StillImage"/>
    <dc:title/>
   </cc:Work>
  </rdf:RDF>
 </metadata>
 <g id="layer1" transform="translate(0 -266.14)">
  <circle id="path853-5" cx="15.429" cy="281.57" r="15.429" fill="#351431"/>
  <circle id="path853" cx="15.429" cy="281.57" r="0" fill="#031d44"/>
 </g>
 <g id="layer2">
  <g id="g35059" transform="matrix(.24498 0 0 .24498 4.4107 3.2488)" fill="#fff" stroke-width="1.08">
   <path id="path35042" d="m38.629 48.881-4.723 1.213c0.204 1.553 0.352 2.493 0.369 2.608 1.868 12.594 1.509 15.486-6.826 20.368-1.071 0.625-2.156 1.292-3.244 1.957-4.249 2.606-8.64 5.305-11.783 5.303-1.1 0-4.019 0-5.563-8.092-4.835-25.292 4.487-42.01 13.158-51.58 1.87-2.063 3.729-3.154 5.376-3.154 3.497 0 6.699 5.264 6.854 11.266 0.083 3.305 0.25 6.433 0.452 9.27l4.712-2.084c-0.146-2.3-0.263-4.752-0.331-7.31-0.201-7.854-4.625-15.978-11.687-15.978-3.094 0-6.109 1.596-8.96 4.743-9.411 10.385-19.535 28.485-14.326 55.736 1.524 7.975 4.995 12.019 10.315 12.019 4.508 0 9.493-3.059 14.313-6.017 1.058-0.649 2.116-1.296 3.157-1.908 11.375-6.657 11-12.892 9.165-25.273-9e-3 -0.034-0.184-1.16-0.428-3.087z"/>
   <path id="path35044" d="m73.567 17.411c-2.851-3.147-5.864-4.743-8.959-4.743-7.062 0-11.488 8.124-11.688 15.977-0.066 2.539-0.184 4.975-0.327 7.261l4.712 2.085c0.2-2.825 0.366-5.935 0.45-9.222 0.152-6 3.354-11.265 6.854-11.265 1.647 0 3.507 1.091 5.375 3.154 8.673 9.57 17.995 26.288 13.158 51.582-1.545 8.09-4.464 8.09-5.563 8.09-3.142 0-7.536-2.696-11.783-5.303-1.088-0.667-2.173-1.332-3.242-1.957-8.335-4.882-8.693-7.774-6.831-20.344 0.019-0.124 0.17-1.08 0.378-2.663l-4.723-1.21c-0.25 1.95-0.428 3.097-0.435 3.139-1.833 12.357-2.209 18.592 9.166 25.249 1.043 0.612 2.099 1.259 3.157 1.908 4.819 2.958 9.805 6.017 14.313 6.017 5.321 0 8.79-4.044 10.313-12.017 5.21-27.253-4.913-45.353-14.325-55.738z"/>
   <path id="path35046" d="m75.69 49.546-7.761-2.9 4.609-4.047c0.272-0.275 0.307-0.705 0.083-1.022-0.225-0.313-0.642-0.448-0.989-0.264l-6.715 4.124-4.117-1.659 5.731-9.34c0.189-0.367 0.066-0.814-0.279-1.039-0.344-0.225-0.803-0.149-1.06 0.172l-7.087 9.125-9.564-4.271v-33.592h-6.887v33.59l-9.565 4.271-7.086-9.125c-0.257-0.321-0.716-0.396-1.06-0.172-0.346 0.225-0.469 0.672-0.28 1.039l5.732 9.34-4.119 1.659-6.714-4.124c-0.348-0.184-0.767-0.049-0.99 0.264-0.223 0.317-0.189 0.747 0.083 1.022l4.61 4.047-7.761 2.9c-0.391 0.158-0.593 0.591-0.465 0.991s0.544 0.631 0.952 0.535l10.495-2.974-4.893 10.389c-0.174 0.384-0.021 0.837 0.348 1.035 0.024 0.011 0.051 0.024 0.076 0.034 0.355 0.147 0.771 0.021 0.982-0.309l6.697-11.11c0.242-0.346 0.403-0.635 0.525-0.857l0.076-0.107 15.799-4.013 15.803 4.013 0.075 0.107c0.123 0.223 0.283 0.512 0.525 0.857l6.697 11.11c0.211 0.329 0.625 0.456 0.98 0.309 0.026-0.01 0.053-0.023 0.075-0.034 0.37-0.198 0.521-0.651 0.352-1.035l-4.896-10.389 10.496 2.974c0.408 0.096 0.822-0.135 0.952-0.535 0.129-0.398-0.075-0.831-0.465-0.989z"/>
  </g>
 </g>
</svg>
