<?xml version="1.0" encoding="UTF-8"?>
<!-- Created with Inkscape (http://www.inkscape.org/) -->
<svg id="svg1933" width="116.63" height="116.63" version="1.1" viewBox="0 0 30.858 30.858" xmlns="http://www.w3.org/2000/svg" xmlns:cc="http://creativecommons.org/ns#" xmlns:dc="http://purl.org/dc/elements/1.1/" xmlns:rdf="http://www.w3.org/1999/02/22-rdf-syntax-ns#">
 <metadata id="metadata1930">
  <rdf:RDF>
   <cc:Work rdf:about="">
    <dc:format>image/svg+xml</dc:format>
    <dc:type rdf:resource="http://purl.org/dc/dcmitype/StillImage"/>
    <dc:title/>
   </cc:Work>
  </rdf:RDF>
 </metadata>
 <g id="layer1" transform="translate(0 -266.14)">
  <circle id="path853-5" cx="15.429" cy="281.57" r="15.429" fill="#351431"/>
  <circle id="path853" cx="15.429" cy="281.57" r="0" fill="#031d44"/>
 </g>
 <g id="layer2">
  <g id="g32058" transform="matrix(.25197 0 0 .25197 3.474 3.2159)" fill="#fff" stroke-width="1.0501">
   <path id="path32023" d="m72.991 21.082c-8.858 0-16.039 7.18-16.039 16.039 0 8.857 7.181 16.038 16.039 16.038s16.038-7.181 16.038-16.038c0-8.859-7.179-16.039-16.038-16.039zm-13.192 10.917c0.576-1.484 1.388-2.847 2.4-4.039h4.258c-0.177 0.746-0.236 1.532-0.142 2.337 0.071 0.6 0.227 1.167 0.44 1.702h-6.956zm13.801 2.625c-2.826 0.334-5.39-1.685-5.727-4.513-0.335-2.826 1.684-5.389 4.508-5.726 2.829-0.334 5.392 1.684 5.729 4.51 0.335 2.827-1.684 5.391-4.51 5.729zm5.634-2.625c0.404-1.01 0.569-2.132 0.434-3.289-0.032-0.256-0.081-0.505-0.139-0.75h4.253c1.012 1.192 1.823 2.555 2.401 4.039z"/>
   <circle id="circle32025" cx="72.991" cy="29.503" r="1.903"/>
   <path id="path32027" d="m65.653 63.645 5.311 4.029-2.356-12.067h-3.884l2.608 5.842c0.147 0.326 0.059 0.71-0.211 0.94z"/>
   <polygon id="polygon32029" points="70.25 55.606 72.16 65.389 74.071 55.606"/>
   <path id="path32031" d="m79.601 55.606h-3.886l-2.358 12.067 5.313-4.029-1.467-1.256c-0.27-0.23-0.358-0.614-0.211-0.94z"/>
   <path id="path32033" d="m71.356 69.994-7.473-5.671c-0.196-0.146-0.313-0.376-0.321-0.618-7e-3 -0.245 0.097-0.479 0.282-0.637l1.771-1.512-2.658-5.95h-0.012c-2.926 0-5.293 2.368-5.291 5.291v15.894c0 2.926 2.367 5.293 5.292 5.293h8.409v-12.09z"/>
   <path id="path32035" d="m83.032 55.606h-1.666l-2.658 5.95 1.771 1.512c0.185 0.157 0.287 0.392 0.28 0.637-7e-3 0.242-0.126 0.472-0.319 0.618l-7.473 5.671v12.09h10.062c2.925 0 5.295-2.367 5.295-5.293v-15.894c1e-3 -2.922-2.367-5.291-5.292-5.291zm2.011 20.023h-2.396v2.395h-3.252v-2.395h-2.396v-3.253h2.396v-2.396h3.252v2.396h2.396z"/>
   <path id="path32037" d="m53.623 64.798c-5.136 4.203-11.693 6.729-18.833 6.729-16.425 0-29.789-13.363-29.789-29.789 0-16.427 13.364-29.79 29.789-29.79 9.546 0 18.051 4.518 23.508 11.521 0.915-0.986 1.931-1.878 3.028-2.665-6.202-7.841-15.787-12.888-26.536-12.888-18.646 0-33.819 15.171-33.819 33.821 0 18.647 15.173 33.82 33.819 33.82 6.966 0 13.449-2.119 18.833-5.743z"/>
   <path id="path32039" d="m59.721 52.156c-0.488-0.433-0.954-0.888-1.398-1.364h-1e-3c-3.347-3.586-5.4-8.393-5.4-13.672 0-3.88 1.111-7.504 3.024-10.578-4.726-6.567-12.428-10.848-21.133-10.855v21.517l3.986 1.781 2.954-3.803c0.106-0.135 0.297-0.166 0.439-0.073 0.145 0.095 0.195 0.282 0.117 0.435l-2.39 3.892 1.718 0.69 2.797-1.718c0.146-0.077 0.32-0.021 0.414 0.11 0.091 0.132 0.077 0.311-0.035 0.426l-1.92 1.686 3.231 1.21c0.164 0.065 0.248 0.245 0.194 0.412-0.055 0.167-0.227 0.263-0.397 0.224l-4.372-1.239 2.039 4.329c0.073 0.16 8e-3 0.349-0.146 0.432-8e-3 5e-3 -0.021 0.01-0.029 0.014-0.148 0.062-0.321 0.01-0.409-0.129l-2.791-4.629c-0.102-0.145-0.168-0.266-0.218-0.357l-0.033-0.045-6.584-1.673-6.585 1.673-0.032 0.045c-0.05 0.092-0.118 0.213-0.221 0.357l-2.789 4.629c-0.088 0.139-0.26 0.19-0.407 0.129-0.012-4e-3 -0.022-9e-3 -0.034-0.014-0.151-0.083-0.216-0.271-0.142-0.432l2.036-4.329-4.374 1.239c-0.169 0.039-0.341-0.057-0.395-0.224-0.055-0.167 0.03-0.347 0.191-0.412l3.235-1.21-1.922-1.686c-0.113-0.115-0.126-0.294-0.033-0.426 0.093-0.131 0.269-0.188 0.412-0.11l2.797 1.718 1.719-0.69-2.391-3.892c-0.077-0.152-0.025-0.34 0.116-0.435 0.146-0.093 0.335-0.062 0.442 0.073l2.951 3.803 3.989-1.781v-21.36c-13.044 1.419-23.199 12.467-23.199 25.892 0 14.386 11.661 26.052 26.047 26.052 7.46 0 14.182-3.141 18.932-8.166 0.272-2.003 1.175-3.859 2.632-5.317 0.533-0.532 1.13-0.965 1.756-1.344 0.516-0.315 1.046-0.598 1.612-0.805zm-32.679 1.226c-0.436 0.253-0.874 0.523-1.316 0.794-2.009 1.231-4.084 2.506-5.964 2.506h-1e-3c-2.217 0-3.663-1.684-4.297-5.008-2.172-11.355 2.047-18.898 5.97-23.226 1.188-1.311 2.443-1.976 3.731-1.976 2.943 0 4.788 3.385 4.872 6.658 0.028 1.065 0.076 2.087 0.138 3.046l-1.964 0.868c-0.086-1.182-0.153-2.485-0.188-3.862-0.067-2.501-1.398-4.694-2.858-4.694-0.685 0-1.459 0.455-2.24 1.314-3.614 3.988-7.497 10.953-5.481 21.495 0.644 3.371 1.859 3.371 2.318 3.371 1.308 0 3.14-1.123 4.909-2.209 0.454-0.278 0.907-0.556 1.351-0.817 3.474-2.033 3.623-3.238 2.847-8.486-8e-3 -0.049-0.068-0.44-0.154-1.088l1.967-0.506c0.103 0.804 0.175 1.273 0.18 1.287 0.763 5.158 0.919 7.755-3.82 10.533zm24.169-1.708c-0.636 3.324-2.08 5.008-4.297 5.008-1.88 0-3.957-1.274-5.966-2.506-0.44-0.271-0.88-0.541-1.316-0.794-4.739-2.777-4.583-5.375-3.819-10.523 4e-3 -0.018 0.079-0.495 0.181-1.309l1.969 0.506c-0.087 0.658-0.148 1.057-0.156 1.109-0.778 5.238-0.627 6.443 2.846 8.477 0.445 0.262 0.898 0.539 1.35 0.816 1.772 1.086 3.602 2.21 4.913 2.21 0.459 0 1.675 0 2.316-3.371 2.017-10.542-1.868-17.507-5.482-21.495-0.778-0.859-1.555-1.314-2.241-1.314-1.456 0-2.792 2.193-2.854 4.694-0.034 1.369-0.104 2.665-0.186 3.843l-1.965-0.868c0.061-0.953 0.109-1.968 0.136-3.026 0.084-3.273 1.928-6.658 4.869-6.658 1.291 0 2.547 0.665 3.735 1.976 3.919 4.327 8.139 11.869 5.967 23.225z"/>
  </g>
 </g>
</svg>
