<?xml version="1.0" encoding="UTF-8"?>
<!-- Created with Inkscape (http://www.inkscape.org/) -->
<svg id="svg1933" width="116.63" height="116.63" version="1.1" viewBox="0 0 30.858 30.858" xmlns="http://www.w3.org/2000/svg" xmlns:cc="http://creativecommons.org/ns#" xmlns:dc="http://purl.org/dc/elements/1.1/" xmlns:rdf="http://www.w3.org/1999/02/22-rdf-syntax-ns#">
 <defs id="defs1927">
  <style id="style10671">.cls-1{fill:#000000;}</style>
 </defs>
 <metadata id="metadata1930">
  <rdf:RDF>
   <cc:Work rdf:about="">
    <dc:format>image/svg+xml</dc:format>
    <dc:type rdf:resource="http://purl.org/dc/dcmitype/StillImage"/>
    <dc:title/>
   </cc:Work>
  </rdf:RDF>
 </metadata>
 <g id="layer1" transform="translate(0 -266.14)">
  <circle id="path853-5" cx="15.429" cy="281.57" r="15.429" fill="#266334"/>
  <circle id="path853" cx="15.429" cy="281.57" r="0" fill="#031d44"/>
 </g>
 <g id="layer2">
  <g id="g12199" transform="matrix(.28233 0 0 .28233 1.6005 -2.616)" fill="#fff" stroke-width=".93714">
   <rect id="rect12181" x="36.333" y="31.823" width="7.75" height="2.835"/>
   <rect id="rect12183" x="40.333" y="37.37" width="3.75" height="2.835"/>
   <rect id="rect12185" x="36.333" y="42.916" width="7.75" height="2.835"/>
   <rect id="rect12187" x="40.333" y="48.462" width="3.75" height="2.834"/>
   <rect id="rect12189" x="36.333" y="54.01" width="7.75" height="2.834"/>
   <path id="path12191" d="m56.989 65.584c1.413 0 2.078 0.665 2.999 1.585 1.076 1.076 2.415 2.415 5.003 2.415 2.587 0 3.926-1.339 5.002-2.415 0.92-0.92 1.585-1.585 2.998-1.585 1.414 0 2.079 0.665 3 1.585 1.076 1.076 2.416 2.415 5.005 2.415s3.929-1.339 5.005-2.415c0.921-0.92 1.586-1.585 3-1.585 0.783 0 1.417-0.634 1.417-1.417s-0.634-1.417-1.417-1.417c-2.588 0-3.928 1.339-5.004 2.414-0.921 0.921-1.586 1.586-3.001 1.586s-2.08-0.665-3.001-1.586c-1.076-1.075-2.416-2.414-5.004-2.414-2.587 0-3.926 1.339-5.002 2.415-0.92 0.92-1.585 1.585-2.998 1.585s-2.078-0.665-2.999-1.585c-1.076-1.076-2.415-2.415-5.003-2.415-0.783 0-1.417 0.634-1.417 1.417s0.634 1.417 1.417 1.417z"/>
   <path id="path12193" d="m9 65.584c1.413 0 2.078 0.665 2.998 1.585 1.076 1.076 2.415 2.415 5.002 2.415s3.925-1.339 5.001-2.415c0.919-0.92 1.584-1.585 2.997-1.585s2.077 0.665 2.997 1.585c1.076 1.076 2.415 2.415 5 2.415 2.586 0 3.925-1.339 5.001-2.415 0.919-0.92 1.584-1.585 2.996-1.585 0.783 0 1.417-0.634 1.417-1.417s-0.635-1.417-1.417-1.417c-2.586 0-3.925 1.339-5.001 2.415-0.919 0.92-1.584 1.585-2.996 1.585s-2.076-0.665-2.995-1.585c-1.076-1.076-2.415-2.415-5.001-2.415s-3.925 1.339-5.001 2.415c-0.919 0.92-1.584 1.585-2.997 1.585s-2.078-0.665-2.998-1.585c-1.077-1.076-2.416-2.415-5.003-2.415-0.783 0-1.417 0.634-1.417 1.417s0.634 1.417 1.417 1.417z"/>
   <path id="path12195" d="m89.001 72.75c-2.588 0-3.928 1.339-5.004 2.414-0.921 0.921-1.586 1.586-3.001 1.586s-2.08-0.665-3.001-1.586c-1.076-1.075-2.416-2.414-5.004-2.414-2.587 0-3.926 1.339-5.002 2.415-0.92 0.92-1.585 1.585-2.998 1.585s-2.078-0.665-2.999-1.585c-0.987-0.987-2.208-2.183-4.398-2.376-0.365-2.884-2.165-5.376-4.834-6.618v-37.804c0-1.981-1.611-3.593-3.591-3.593-1.981 0-3.592 1.612-3.592 3.593v37.803c-2.663 1.238-4.46 3.721-4.833 6.596-2.417 0.086-3.713 1.358-4.752 2.398-0.919 0.92-1.584 1.585-2.996 1.585s-2.077-0.664-2.996-1.584c-1.076-1.076-2.415-2.415-5.001-2.415s-3.926 1.339-5.001 2.415c-0.919 0.92-1.584 1.585-2.997 1.585s-2.078-0.665-2.998-1.585c-1.077-1.076-2.416-2.415-5.003-2.415-0.783 0-1.417 0.634-1.417 1.417s0.634 1.417 1.417 1.417c1.413 0 2.078 0.665 2.998 1.585 1.076 1.076 2.415 2.415 5.002 2.415s3.926-1.339 5.001-2.415c0.919-0.92 1.584-1.585 2.997-1.585s2.077 0.665 2.997 1.585c1.076 1.076 2.415 2.415 5 2.415 2.586 0 3.925-1.339 5.001-2.415 0.884-0.885 1.54-1.527 2.843-1.575 0.797 3.867 4.228 6.785 8.329 6.785 4.092 0 7.518-2.907 8.323-6.764 1.083 0.142 1.692 0.75 2.497 1.554 1.076 1.076 2.415 2.415 5.003 2.415 2.587 0 3.926-1.339 5.002-2.415 0.92-0.92 1.585-1.585 2.998-1.585 1.414 0 2.079 0.665 3 1.585 1.076 1.076 2.416 2.415 5.005 2.415s3.929-1.339 5.005-2.415c0.921-0.92 1.586-1.585 3-1.585 0.783 0 1.417-0.634 1.417-1.417s-0.634-1.417-1.417-1.417zm-42.007-44.383c0-1.2 0.976-2.176 2.175-2.176 1.198 0 2.173 0.976 2.173 2.176v20.711h-4.348z"/>
   <path id="path12197" d="m89.001 83.75c-2.588 0-3.928 1.339-5.004 2.414-0.921 0.921-1.586 1.586-3.001 1.586s-2.08-0.665-3.001-1.586c-1.076-1.075-2.416-2.414-5.004-2.414-2.587 0-3.926 1.339-5.002 2.415-0.92 0.92-1.585 1.585-2.998 1.585s-2.078-0.665-2.999-1.585c-1.076-1.076-2.415-2.415-5.003-2.415-2.587 0-3.927 1.339-5.002 2.415-0.92 0.92-1.585 1.585-2.997 1.585-1.413 0-2.077-0.665-2.998-1.585-1.076-1.076-2.415-2.415-5-2.415-2.586 0-3.925 1.339-5.001 2.415-0.919 0.92-1.584 1.585-2.996 1.585s-2.076-0.665-2.995-1.585c-1.076-1.076-2.415-2.415-5.001-2.415s-3.925 1.339-5.001 2.415c-0.919 0.92-1.584 1.585-2.997 1.585s-2.078-0.665-2.998-1.585c-1.077-1.076-2.416-2.415-5.003-2.415-0.783 0-1.417 0.634-1.417 1.417s0.634 1.417 1.417 1.417c1.413 0 2.078 0.665 2.998 1.585 1.076 1.076 2.415 2.415 5.002 2.415s3.926-1.339 5.001-2.415c0.919-0.92 1.584-1.585 2.997-1.585s2.077 0.665 2.997 1.585c1.076 1.076 2.415 2.415 5 2.415 2.586 0 3.925-1.339 5.001-2.415 0.919-0.92 1.584-1.585 2.996-1.585s2.076 0.665 2.996 1.585c1.076 1.076 2.415 2.415 5.002 2.415s3.926-1.339 5.001-2.415c0.92-0.92 1.585-1.585 2.998-1.585s2.078 0.665 2.999 1.585c1.076 1.076 2.415 2.415 5.003 2.415 2.587 0 3.926-1.339 5.002-2.415 0.92-0.92 1.585-1.585 2.998-1.585 1.414 0 2.079 0.665 3 1.585 1.076 1.076 2.416 2.415 5.005 2.415s3.929-1.339 5.005-2.415c0.921-0.92 1.586-1.585 3-1.585 0.783 0 1.417-0.634 1.417-1.417s-0.634-1.417-1.417-1.417z"/>
  </g>
 </g>
</svg>
