<?xml version="1.0" encoding="UTF-8"?>
<!-- Created with Inkscape (http://www.inkscape.org/) -->
<svg id="svg1933" width="116.63" height="116.63" version="1.1" viewBox="0 0 30.858 30.858" xmlns="http://www.w3.org/2000/svg" xmlns:cc="http://creativecommons.org/ns#" xmlns:dc="http://purl.org/dc/elements/1.1/" xmlns:rdf="http://www.w3.org/1999/02/22-rdf-syntax-ns#">
 <metadata id="metadata1930">
  <rdf:RDF>
   <cc:Work rdf:about="">
    <dc:format>image/svg+xml</dc:format>
    <dc:type rdf:resource="http://purl.org/dc/dcmitype/StillImage"/>
    <dc:title/>
   </cc:Work>
  </rdf:RDF>
 </metadata>
 <g id="layer1" transform="translate(0 -266.14)">
  <circle id="path853-5" cx="15.429" cy="281.57" r="15.429" fill="#351431"/>
  <circle id="path853" cx="15.429" cy="281.57" r="0" fill="#031d44"/>
 </g>
 <g id="layer2">
  <g id="g24537" transform="matrix(.42969 0 0 .42969 1.7544 2.7179)" fill="#fff" stroke-width=".61575" data-name="11">
   <path id="path24493" d="m25.82 26a4.9 4.9 0 0 0 4.18-2.32 7.27 7.27 0 0 1 1-1.32l0.07-0.09a7.49 7.49 0 0 1 10.74 0l0.07 0.09a7.27 7.27 0 0 1 1 1.32 4.9 4.9 0 0 0 4.3 2.32h13.82a1 1 0 0 0 0-2h-13.82a2.93 2.93 0 0 1-2.51-1.34 9.37 9.37 0 0 0-1.23-1.66l-0.08-0.08a9.47 9.47 0 0 0-13.72 0l-0.08 0.09a8.94 8.94 0 0 0-1.23 1.63 2.93 2.93 0 0 1-2.51 1.36h-22.82a1 1 0 0 0 0 2z"/>
   <path id="path24495" d="m9 29a1 1 0 0 0-1-1h-4a1 1 0 0 0 0 2h4a1 1 0 0 0 1-1z"/>
   <path id="path24497" d="m17 29a1 1 0 0 0-1-1h-4a1 1 0 0 0 0 2h4a1 1 0 0 0 1-1z"/>
   <path id="path24499" d="m6 34h4a1 1 0 0 0 0-2h-4a1 1 0 0 0 0 2z"/>
   <path id="path24501" d="m25 29a1 1 0 0 0-1-1h-4a1 1 0 0 0 0 2h4a1 1 0 0 0 1-1z"/>
   <path id="path24503" d="m54 29a1 1 0 0 0-1-1h-4a1 1 0 0 0 0 2h4a1 1 0 0 0 1-1z"/>
   <path id="path24505" d="m60 29a1 1 0 0 0-1-1h-2a1 1 0 0 0 0 2h2a1 1 0 0 0 1-1z"/>
   <path id="path24507" d="m14 34h4a1 1 0 0 0 0-2h-4a1 1 0 0 0 0 2z"/>
   <path id="path24509" d="m22 34h4a1 1 0 0 0 0-2h-4a1 1 0 0 0 0 2z"/>
   <path id="path24511" d="m30 32a1 1 0 0 0 0 2h4a1 1 0 0 0 0-2z"/>
   <path id="path24513" d="m38 32a1 1 0 0 0 0 2h4a1 1 0 0 0 0-2z"/>
   <path id="path24515" d="m46 34h4a1 1 0 0 0 0-2h-4a1 1 0 0 0 0 2z"/>
   <path id="path24517" d="m54 34h4a1 1 0 0 0 0-2h-4a1 1 0 0 0 0 2z"/>
   <path id="path24519" d="m6 36h-2a1 1 0 0 0 0 2h2a1 1 0 0 0 0-2z"/>
   <path id="path24521" d="m14 36h-4a1 1 0 0 0 0 2h4a1 1 0 0 0 0-2z"/>
   <path id="path24523" d="m22 36h-4a1 1 0 0 0 0 2h4a1 1 0 0 0 0-2z"/>
   <path id="path24525" d="m30 36h-4a1 1 0 0 0 0 2h4a1 1 0 0 0 0-2z"/>
   <path id="path24527" d="m38 36h-4a1 1 0 0 0 0 2h4a1 1 0 0 0 0-2z"/>
   <path id="path24529" d="m46 36h-4a1 1 0 0 0 0 2h4a1 1 0 0 0 0-2z"/>
   <path id="path24531" d="m54 36h-4a1 1 0 0 0 0 2h4a1 1 0 0 0 0-2z"/>
   <path id="path24533" d="m61 36h-3a1 1 0 0 0 0 2h3a1 1 0 0 0 0-2z"/>
   <path id="path24535" d="m44 30h1a1 1 0 0 0 0-2h-1.29a2.88 2.88 0 0 1-2.49-1.31 5.49 5.49 0 0 0-9.44 0 2.88 2.88 0 0 1-2.49 1.31h-1.29a1 1 0 0 0 0 2z"/>
  </g>
 </g>
</svg>
