<?xml version="1.0" encoding="UTF-8"?>
<!-- Created with Inkscape (http://www.inkscape.org/) -->
<svg id="svg1933" width="116.63" height="116.63" version="1.1" viewBox="0 0 30.858 30.858" xmlns="http://www.w3.org/2000/svg" xmlns:cc="http://creativecommons.org/ns#" xmlns:dc="http://purl.org/dc/elements/1.1/" xmlns:rdf="http://www.w3.org/1999/02/22-rdf-syntax-ns#">
 <metadata id="metadata1930">
  <rdf:RDF>
   <cc:Work rdf:about="">
    <dc:format>image/svg+xml</dc:format>
    <dc:type rdf:resource="http://purl.org/dc/dcmitype/StillImage"/>
    <dc:title/>
   </cc:Work>
  </rdf:RDF>
 </metadata>
 <g id="layer1" transform="translate(0 -266.14)">
  <circle id="path853-5" cx="15.429" cy="281.57" r="15.429" fill="#351431"/>
  <circle id="path853" cx="15.429" cy="281.57" r="0" fill="#031d44"/>
 </g>
 <g id="layer2">
  <g id="g19941" transform="matrix(.040059 0 0 .040059 5.2875 4.3964)" fill="#fff" stroke-width="6.6048">
   <path id="path19933" d="m270.4 324.34c2.59 0 4.762-1.963 5.023-4.539l2.904-28.686c0.473 0.047 0.967 0.047 1.439 0.047 16.764 0 31.814-7.605 41.828-19.553 12.281 12 30.73 38.807 35.326 93.525 4.373-3.889 10.115-6.27 16.426-6.27h63.111v-46.002c0-4.973 4.029-9 9-9h44.477c4.971 0 9 4.027 9 9v177.08c0 4.971-4.029 9-9 9h-44.477c-4.971 0-9-4.029-9-9v-33.584h-360.91v33.586c0 4.971-4.033 9-9 9h-44.477c-4.971 0-9-4.029-9-9v-95.031c0-4.971 4.029-9 9-9h4.486v-33.367c0-15.613 12.689-28.305 28.305-28.305h159.08c-3.422 4.949-5.4 10.936-5.4 17.393 0 16.986 13.816 30.779 30.777 30.779h20.348v-13.49h-20.342c-4.156 0-7.961-1.475-10.943-3.918-0.018-0.016-0.039-0.029-0.057-0.045-0.389-0.32-0.756-0.66-1.115-1.014-0.041-0.039-0.082-0.074-0.121-0.113-0.334-0.334-0.648-0.686-0.955-1.049-0.055-0.064-0.115-0.127-0.17-0.193-0.285-0.346-0.547-0.709-0.807-1.078-0.063-0.092-0.133-0.176-0.193-0.27-0.238-0.354-0.455-0.723-0.666-1.096-0.066-0.117-0.141-0.23-0.205-0.35-0.193-0.361-0.363-0.732-0.531-1.107-0.066-0.143-0.137-0.281-0.195-0.426-0.152-0.363-0.281-0.736-0.406-1.111-0.059-0.168-0.121-0.332-0.172-0.504-0.109-0.363-0.197-0.734-0.285-1.107-0.045-0.191-0.096-0.379-0.133-0.572-0.072-0.365-0.123-0.738-0.168-1.113-0.029-0.209-0.061-0.416-0.08-0.627-0.035-0.369-0.045-0.744-0.057-1.119-4e-3 -0.16-0.023-0.316-0.023-0.477 0-0.066 8e-3 -0.127 0.01-0.193 0-0.113-0.01-0.225-8e-3 -0.338 8e-3 -0.256 0.043-0.502 0.063-0.752 0.018-0.236 0.031-0.475 0.061-0.707 0.029-0.277 0.076-0.549 0.125-0.82 0.057-0.354 0.117-0.705 0.199-1.053 0.02-0.09 0.045-0.178 0.068-0.268 1.854-7.541 8.648-13.148 16.76-13.148z"/>
   <path id="path19935" d="m279.77 277.65c22.697 0 41.096-18.398 41.096-41.094s-18.398-41.095-41.096-41.095c-22.691 0-41.092 18.399-41.092 41.095s18.401 41.094 41.092 41.094z"/>
   <path id="path19937" d="m13.073 246.86c0 5.039 4.096 9.156 9.137 9.156h173.04c5.041 0 9.137-4.117 9.137-9.156v-70.264h8e-3v-13.5h-8e-3v-54.364c0-26.415-10.709-50.333-28.014-67.635-15.818-15.84-37.146-26.145-60.883-27.787-2.229-0.158-4.479-0.247-6.75-0.247s-4.521 0.089-6.75 0.247c-49.703 3.441-88.922 44.865-88.922 95.422v54.364h-8e-3v13.5h8e-3zm13.49-9.549v-60.714h75.432v65.905h-70.24c-2.867 0-5.192-2.325-5.192-5.191zm164.34 0c0 2.866-2.322 5.191-5.189 5.191h-70.215v-65.905h75.404zm0-128.58v54.362h-75.404v-136.25c42.154 3.45 75.404 38.856 75.404 81.887zm-164.34 1.543c0-43.271 32.859-79.913 75.432-83.423v136.24h-75.432z"/>
   <path id="path19939" d="m70.634 101.75c0-7.463 3.406-14.126 8.746-18.523 1.684-1.385 1.125-4.109-0.977-4.669-1.975-0.525-4.047-0.805-6.186-0.805-13.813 0-24.902 11.672-23.939 25.69 0.828 12.06 10.797 21.76 22.873 22.28 2.521 0.11 4.957-0.169 7.258-0.782 2.1-0.561 2.652-3.285 0.973-4.667-5.342-4.397-8.748-11.06-8.748-18.524z"/>
  </g>
 </g>
</svg>
