<?xml version="1.0" encoding="UTF-8"?>
<!-- Created with Inkscape (http://www.inkscape.org/) -->
<svg id="svg1933" width="30.858mm" height="30.858mm" version="1.1" viewBox="0 0 30.858 30.858" xmlns="http://www.w3.org/2000/svg" xmlns:cc="http://creativecommons.org/ns#" xmlns:dc="http://purl.org/dc/elements/1.1/" xmlns:rdf="http://www.w3.org/1999/02/22-rdf-syntax-ns#">
 <metadata id="metadata1930">
  <rdf:RDF>
   <cc:Work rdf:about="">
    <dc:format>image/svg+xml</dc:format>
    <dc:type rdf:resource="http://purl.org/dc/dcmitype/StillImage"/>
    <dc:title/>
   </cc:Work>
  </rdf:RDF>
 </metadata>
 <g id="layer1" transform="translate(0 -266.14)">
  <g id="g6282" transform="translate(-2.0522 -11.649)">
   <circle id="circle1093-0-8" cx="17.481" cy="293.22" r="15.429" fill="#115158" stroke-width=".465"/>
   <g id="g1895" transform="matrix(.4161 0 0 .4161 -17.213 232.18)" fill="#fff" stroke-width="2.4033">
    <g id="g1890" transform="matrix(.96937 0 0 .96937 52.36 114.7)" fill="#fff" stroke-width=".65596">
     <path id="path1870" d="m32 61.5a11.5 11.5 0 0 1-6.5-21v-31.5a6.5 6.5 0 0 1 13 0v31.52a11.5 11.5 0 0 1-6.5 21zm0-56a3.5 3.5 0 0 0-3.5 3.5v33.21l-0.75 0.44a8.5 8.5 0 1 0 8.5 0l-0.75-0.44v-33.21a3.5 3.5 0 0 0-3.5-3.5z"/>
     <path id="path1872" d="m35.5 43.94a3 3 0 0 1-1.5-2.59v-23.35h-4v23.35a3 3 0 0 1-1.5 2.59 7 7 0 1 0 7 0z"/>
    </g>
   </g>
  </g>
 </g>
</svg>
