<?xml version="1.0" encoding="UTF-8"?>
<!-- Created with Inkscape (http://www.inkscape.org/) -->
<svg id="svg1933" width="116.63" height="116.63" version="1.1" viewBox="0 0 30.858 30.858" xmlns="http://www.w3.org/2000/svg" xmlns:cc="http://creativecommons.org/ns#" xmlns:dc="http://purl.org/dc/elements/1.1/" xmlns:rdf="http://www.w3.org/1999/02/22-rdf-syntax-ns#">
 <defs id="defs1927">
  <style id="style10671">.cls-1{fill:#000000;}</style>
 </defs>
 <metadata id="metadata1930">
  <rdf:RDF>
   <cc:Work rdf:about="">
    <dc:format>image/svg+xml</dc:format>
    <dc:type rdf:resource="http://purl.org/dc/dcmitype/StillImage"/>
    <dc:title/>
   </cc:Work>
  </rdf:RDF>
 </metadata>
 <g id="layer1" transform="translate(0 -266.14)">
  <circle id="path853-5" cx="15.429" cy="281.57" r="15.429" fill="#266334"/>
  <circle id="path853" cx="15.429" cy="281.57" r="0" fill="#031d44"/>
 </g>
 <g id="layer2">
  <g id="g23187" transform="matrix(.25225 0 0 .25225 2.9139 3.1182)" fill="#fff" stroke-width="1.0489">
   <path id="path23149" d="m13.301 18.529c0.209 0.449 0.657 0.721 1.132 0.721 0.115 0 0.232-0.016 0.347-0.049 0.591-0.171 0.97-0.747 0.893-1.358-0.12-0.942-0.143-3.805 1.264-4.581l-1.207-2.189c-1.542 0.851-2.197 2.459-2.456 3.934-2.11-1.19-4.6-0.932-4.748-0.915l0.276 2.485c0.035-5e-3 3.43-0.334 4.499 1.952z"/>
   <path id="path23151" d="m20.679 24.797c-0.121 0.604 0.215 1.206 0.792 1.419 0.142 0.052 0.289 0.077 0.433 0.077 0.442 0 0.866-0.235 1.092-0.641 0.463-0.83 2.148-3.16 3.736-2.938l0.327-2.479c-1.747-0.228-3.227 0.676-4.311 1.709-0.993-2.209-3.15-3.479-3.279-3.553l-1.252 2.164c0.03 0.018 2.959 1.768 2.462 4.242z"/>
   <rect id="rect23153" x="60.436" y="53.173" width="4.189" height="2.5"/>
   <rect id="rect23155" x="61.28" y="45.75" width="2.5" height="5.25"/>
   <rect id="rect23157" x="45" y="48.75" width="2.25" height="2.5"/>
   <rect id="rect23159" x="45" y="52.702" width="2.25" height="2.5"/>
   <rect id="rect23161" x="45" y="56.34" width="2.25" height="2.5"/>
   <rect id="rect23163" x="45" y="60.292" width="2.25" height="2.5"/>
   <rect id="rect23165" x="45" y="64.375" width="7.875" height="2.5"/>
   <path id="path23167" d="m68.238 25.513h15.243c2.969 0 5.384-2.415 5.384-5.383s-2.415-5.383-5.384-5.383h-0.063c-0.782-3.575-3.954-6.211-7.739-6.211-3.43 0-6.422 2.197-7.499 5.363-3.175 0.031-5.749 2.624-5.749 5.807 1e-3 3.201 2.605 5.807 5.807 5.807zm0-9.116c0.208 0 0.417 0.021 0.639 0.065l1.242 0.247 0.23-1.245c0.475-2.566 2.717-4.429 5.33-4.429 2.909 0 5.289 2.274 5.418 5.178l0.071 1.585 1.524-0.44c0.258-0.075 0.522-0.112 0.788-0.112 1.59 0 2.884 1.293 2.884 2.883s-1.294 2.883-2.884 2.883h-15.242c-1.823 0-3.307-1.484-3.307-3.308s1.484-3.307 3.307-3.307z"/>
   <rect id="rect23169" x="13.125" y="75.125" width="59.875" height="2.5"/>
   <rect id="rect23171" x="76.266" y="75.125" width="10.234" height="2.5"/>
   <rect id="rect23173" x="21.625" y="81.75" width="7.25" height="2.5"/>
   <rect id="rect23175" x="32.375" y="81.75" width="43.891" height="2.5"/>
   <rect id="rect23177" x="33.75" y="88.375" width="33" height="2.5"/>
   <path id="path23179" d="m33.026 36.555c-1.119 0.61-2.651 1.446-2.651 3.278h2.5c0-0.323 0.559-0.653 1.348-1.083 1.119-0.61 2.652-1.446 2.652-3.279s-1.533-2.668-2.651-3.279c-0.79-0.43-1.349-0.76-1.349-1.083 0-0.322 0.559-0.651 1.348-1.082 1.12-0.61 2.652-1.445 2.652-3.277h-2.5c0 0.323-0.559 0.652-1.348 1.082-1.119 0.61-2.652 1.445-2.652 3.277 0 1.833 1.533 2.668 2.651 3.279 0.79 0.43 1.349 0.76 1.349 1.083s-0.559 0.654-1.349 1.084z"/>
   <path id="path23181" d="m48.339 31.797c-1.119 0.61-2.651 1.446-2.651 3.278h2.5c0-0.323 0.559-0.653 1.348-1.083 1.119-0.61 2.652-1.446 2.652-3.279s-1.533-2.668-2.651-3.279c-0.79-0.43-1.349-0.76-1.349-1.083 0-0.322 0.559-0.651 1.348-1.082 1.12-0.61 2.652-1.445 2.652-3.277h-2.5c0 0.323-0.559 0.652-1.348 1.082-1.119 0.61-2.652 1.445-2.652 3.277 0 1.833 1.533 2.668 2.651 3.279 0.79 0.43 1.349 0.76 1.349 1.083s-0.56 0.654-1.349 1.084z"/>
   <path id="path23183" d="m63.083 35.941c-1.119 0.61-2.651 1.446-2.651 3.279h2.5c0-0.323 0.559-0.653 1.349-1.083 1.119-0.61 2.651-1.446 2.651-3.278s-1.532-2.668-2.651-3.279c-0.79-0.43-1.349-0.76-1.349-1.083s0.559-0.652 1.349-1.082c1.119-0.61 2.651-1.445 2.651-3.277h-2.5c0 0.322-0.559 0.651-1.348 1.082-1.119 0.61-2.652 1.445-2.652 3.277s1.532 2.668 2.651 3.279c0.79 0.43 1.349 0.76 1.349 1.083s-0.559 0.652-1.349 1.082z"/>
   <path id="path23185" d="m88.865 60.5h-2.5v7.263h-1.495v-19.729c5.156-0.62 9.167-5.014 9.167-10.334 0-5.744-4.673-10.416-10.417-10.416s-10.417 4.672-10.417 10.416c0 5.32 4.011 9.714 9.167 10.334v19.729h-1.287v-4.59h-2.5v4.59h-1.133c0.039-0.604 0.065-1.21 0.065-1.812 0-15.429-12.552-27.981-27.979-27.981-15.428 0-27.98 12.552-27.98 27.981 0 0.604 0.026 1.209 0.065 1.812h-4.038v-19.729c5.155-0.621 9.167-5.014 9.167-10.334 0-5.744-4.673-10.416-10.417-10.416s-10.416 4.672-10.416 10.416c0 5.32 4.011 9.714 9.167 10.334v19.729h-1.334v-7.263h-2.5v7.263h-1.333v-4.59h-2.5v4.59h-1.131v2.5h86.5v-2.5h-3.921zm-13.162-22.8c0-4.365 3.552-7.916 7.917-7.916s7.917 3.551 7.917 7.916c0 3.939-2.895 7.206-6.667 7.809v-5.675h-2.5v5.675c-3.772-0.603-6.667-3.87-6.667-7.809zm-67.286 0c0-4.365 3.551-7.916 7.917-7.916s7.917 3.551 7.917 7.916c0 3.939-2.895 7.206-6.667 7.809v-5.675h-2.5v5.675c-3.772-0.603-6.667-3.87-6.667-7.809zm15.639 28.251c0-14.05 11.43-25.481 25.48-25.481s25.479 11.431 25.479 25.481c0 0.602-0.028 1.208-0.071 1.812h-9.069v-11.679h-6.689v11.679h-2.111v-7.013h-5.825v-15.833h-10.319v22.846h-0.973v-11.679h-9.541v11.679h-6.29c-0.042-0.602-0.071-1.206-0.071-1.812zm39.319 1.812h-1.689v-9.179h1.689zm-8.801-4.513v4.513h-11.143v-20.346h5.319v15.833zm-20.636-2.75v7.263h-1.021v-9.179h4.541v9.179h-1.021v-7.263z"/>
  </g>
 </g>
</svg>
