<?xml version="1.0" encoding="UTF-8"?>
<!-- Created with Inkscape (http://www.inkscape.org/) -->
<svg id="svg1933" width="116.63" height="116.63" version="1.1" viewBox="0 0 30.858 30.858" xmlns="http://www.w3.org/2000/svg" xmlns:cc="http://creativecommons.org/ns#" xmlns:dc="http://purl.org/dc/elements/1.1/" xmlns:rdf="http://www.w3.org/1999/02/22-rdf-syntax-ns#">
 <metadata id="metadata1930">
  <rdf:RDF>
   <cc:Work rdf:about="">
    <dc:format>image/svg+xml</dc:format>
    <dc:type rdf:resource="http://purl.org/dc/dcmitype/StillImage"/>
    <dc:title/>
   </cc:Work>
  </rdf:RDF>
 </metadata>
 <g id="layer1" transform="translate(0 -266.14)">
  <circle id="path853-5" cx="15.429" cy="281.57" r="15.429" fill="#351431"/>
  <circle id="path853" cx="15.429" cy="281.57" r="0" fill="#031d44"/>
 </g>
 <g id="layer2">
  <g id="g6322" transform="matrix(.93015 0 0 .93015 4.288 4.3881)" fill="#fff" stroke-width=".28445">
   <g id="g6280">
    <path id="path6278" d="m4.391 12.438c-1.076 0-2.098-0.18-2.82-0.695-0.711-0.508-1.071-1.263-1.071-2.243 0-1.167 0.557-1.777 1.025-2.083 2.362-1.55 8.036 0.847 8.675 1.125 0.253 0.11 0.369 0.405 0.259 0.658-0.11 0.252-0.405 0.37-0.658 0.259-1.601-0.696-6.109-2.268-7.728-1.206-0.391 0.256-0.573 0.652-0.573 1.247 0 0.648 0.213 1.115 0.652 1.429 1.601 1.144 5.73 0.098 7.186-0.402 0.26-0.088 0.545 0.05 0.635 0.311 0.089 0.261-0.05 0.545-0.311 0.635-0.162 0.055-2.853 0.965-5.271 0.965z" fill="#fff" stroke-width=".28445"/>
   </g>
   <g id="g6284">
    <path id="path6282" d="m10.5 9c-0.095 0-0.191-0.027-0.277-0.084l-3-2c-0.093-0.062-0.162-0.152-0.197-0.258l-1.463-4.388-0.917-0.916c-0.195-0.195-0.195-0.512 0-0.707s0.512-0.195 0.707 0l1 1c0.055 0.054 0.097 0.121 0.121 0.195l1.446 4.337 2.857 1.905c0.23 0.153 0.292 0.463 0.139 0.693-0.096 0.145-0.255 0.223-0.416 0.223z" fill="#fff" stroke-width=".28445"/>
   </g>
   <g id="g6288">
    <path id="path6286" d="m4 19.5c-0.276 0-0.5-0.224-0.5-0.5s0.224-0.5 0.5-0.5c1.819 0 2.43-4.091 2.5-5.524 0.01-0.195 0.132-0.367 0.314-0.44l2.5-1c0.255-0.102 0.547 0.022 0.65 0.279 0.103 0.256-0.022 0.547-0.279 0.65l-2.207 0.883c-0.107 1.4-0.679 6.152-3.478 6.152z" fill="#fff" stroke-width=".28445"/>
   </g>
   <g id="g6292">
    <path id="path6290" d="m5 23.5c-0.18 0-0.354-0.097-0.443-0.267-0.129-0.245-0.035-0.547 0.209-0.675 0.725-0.381 1.734-1.538 1.734-2.558 0-1.39 1.95-6.785 3.276-7.447 0.248-0.122 0.547-0.023 0.671 0.224s0.023 0.547-0.224 0.671c-0.807 0.403-2.723 5.283-2.723 6.552 0 1.535-1.353 2.961-2.267 3.442-0.074 0.039-0.154 0.058-0.233 0.058z" fill="#fff" stroke-width=".28445"/>
   </g>
   <g id="g6296">
    <path id="path6294" d="m12 21.5c-0.459 0-0.872-0.192-1.194-0.554-1.345-1.517-0.914-6.02-0.814-6.904l-0.973-3.404c-0.038-0.134-0.019-0.277 0.052-0.395l1.5-2.5c0.091-0.151 0.253-0.243 0.429-0.243h2c0.176 0 0.338 0.092 0.429 0.243l1.5 2.5c0.071 0.119 0.09 0.262 0.052 0.395l-0.973 3.404c0.1 0.885 0.531 5.387-0.814 6.904-0.322 0.362-0.735 0.554-1.194 0.554zm-1.959-10.929 0.94 3.292c0.018 0.064 0.023 0.131 0.016 0.197-0.229 1.905-0.28 5.278 0.558 6.223 0.267 0.302 0.624 0.301 0.891 0 0.839-0.946 0.788-4.319 0.558-6.222-8e-3 -0.066-2e-3 -0.133 0.016-0.197l0.94-3.292-1.243-2.072h-1.434z" fill="#fff" stroke-width=".28445"/>
   </g>
   <g id="g6300">
    <path id="path6298" d="m13 8.5c-0.128 0-0.256-0.049-0.354-0.146-0.195-0.195-0.195-0.512 0-0.707 0.265-0.265 0.354-0.554 0.354-1.147 0-0.259-0.184-1-1-1s-1 0.741-1 1c0 0.593 0.089 0.882 0.354 1.146 0.195 0.195 0.195 0.512 0 0.707s-0.512 0.195-0.707 0c-0.569-0.567-0.647-1.226-0.647-1.853 0-0.831 0.621-2 2-2s2 1.169 2 2c0 0.627-0.078 1.286-0.646 1.854-0.098 0.097-0.226 0.146-0.354 0.146z" fill="#fff" stroke-width=".28445"/>
   </g>
   <g id="g6304">
    <path id="path6302" d="m19.609 12.438c-2.419 0-5.11-0.91-5.271-0.965-0.261-0.09-0.4-0.374-0.311-0.635 0.09-0.261 0.373-0.399 0.635-0.311 1.457 0.499 5.59 1.544 7.186 0.402 0.439-0.314 0.652-0.781 0.652-1.429 0-0.595-0.182-0.991-0.573-1.247-1.621-1.063-6.128 0.509-7.728 1.206-0.254 0.112-0.548-6e-3 -0.658-0.259s6e-3 -0.547 0.259-0.658c0.639-0.278 6.313-2.673 8.675-1.125 0.468 0.306 1.025 0.916 1.025 2.083 0 0.98-0.36 1.735-1.071 2.243-0.721 0.515-1.743 0.695-2.82 0.695z" fill="#fff" stroke-width=".28445"/>
   </g>
   <g id="g6308">
    <path id="path6306" d="m13.5 9c-0.162 0-0.32-0.078-0.417-0.223-0.153-0.23-0.091-0.54 0.139-0.693l2.857-1.905 1.446-4.337c0.024-0.074 0.066-0.141 0.121-0.195l1-1c0.195-0.195 0.512-0.195 0.707 0s0.195 0.512 0 0.707l-0.916 0.916-1.463 4.388c-0.035 0.105-0.104 0.196-0.197 0.258l-3 2c-0.085 0.057-0.181 0.084-0.277 0.084z" fill="#fff" stroke-width=".28445"/>
   </g>
   <g id="g6312">
    <path id="path6310" d="m20 19.5c-2.799 0-3.371-4.752-3.479-6.153l-2.207-0.883c-0.256-0.103-0.381-0.394-0.279-0.65 0.102-0.257 0.396-0.381 0.65-0.279l2.5 1c0.182 0.073 0.304 0.245 0.314 0.44 0.07 1.433 0.682 5.524 2.5 5.524 0.276 0 0.5 0.224 0.5 0.5s-0.223 0.501-0.499 0.501z" fill="#fff" stroke-width=".28445"/>
   </g>
   <g id="g6316">
    <path id="path6314" d="m19 23.5c-0.079 0-0.158-0.019-0.232-0.058-0.915-0.481-2.268-1.907-2.268-3.442 0-1.269-1.916-6.149-2.724-6.553-0.247-0.124-0.347-0.424-0.224-0.671s0.424-0.346 0.671-0.224c1.327 0.663 3.277 6.058 3.277 7.448 0 1.02 1.009 2.177 1.733 2.558 0.244 0.128 0.338 0.431 0.209 0.675-0.089 0.17-0.263 0.267-0.442 0.267z" fill="#fff" stroke-width=".28445"/>
   </g>
   <g id="g6320">
    <path id="path6318" d="m12 5.5c-0.276 0-0.5-0.224-0.5-0.5v-2c0-0.276 0.224-0.5 0.5-0.5s0.5 0.224 0.5 0.5v2c0 0.276-0.224 0.5-0.5 0.5z" fill="#fff" stroke-width=".28445"/>
   </g>
  </g>
 </g>
</svg>
