<?xml version="1.0" encoding="UTF-8"?>
<!-- Created with Inkscape (http://www.inkscape.org/) -->
<svg id="svg1933" width="30.858mm" height="30.858mm" version="1.1" viewBox="0 0 30.858 30.858" xmlns="http://www.w3.org/2000/svg" xmlns:cc="http://creativecommons.org/ns#" xmlns:dc="http://purl.org/dc/elements/1.1/" xmlns:rdf="http://www.w3.org/1999/02/22-rdf-syntax-ns#">
 <metadata id="metadata1930">
  <rdf:RDF>
   <cc:Work rdf:about="">
    <dc:format>image/svg+xml</dc:format>
    <dc:type rdf:resource="http://purl.org/dc/dcmitype/StillImage"/>
    <dc:title/>
   </cc:Work>
  </rdf:RDF>
 </metadata>
 <g id="layer1" transform="translate(0 -266.14)">
  <g id="g6707" transform="translate(-230.47 145.93)">
   <circle id="circle1093-0-85-7-6" cx="245.89" cy="135.64" r="15.429" fill="#351431" stroke-width=".465"/>
   <g id="g1713" transform="matrix(.22024 0 0 .22024 234.89 127.06)" fill="#fff" stroke-width="1.2014">
    <path id="path1696" d="m50 90.4c-0.5 0-1-0.2-1.4-0.5l-36.1-32.3c-7.9-7.2-12.5-17.3-12.5-28 0-7.9 3.1-15.3 8.6-20.9 5.7-5.6 13.1-8.7 21-8.7 7.7 0 14.9 2.9 20.4 8.2 5.5-5.3 12.7-8.2 20.4-8.2 7.9 0 15.3 3.1 20.9 8.7l0.1 0.1c5.6 5.6 8.6 13 8.6 20.9 0 10.7-4.6 20.9-12.5 28l-36.2 32.2c-0.4 0.4-0.8 0.5-1.3 0.5zm-20.4-86.2c-6.8 0-13.1 2.6-17.9 7.4s-7.5 11.2-7.5 18c0 9.5 4 18.5 11.1 24.9l34.7 31 34.7-31.1c7.1-6.3 11.1-15.4 11.1-24.8 0-6.8-2.6-13.1-7.4-17.9l-0.1-0.1c-4.8-4.8-11.1-7.4-17.9-7.4s-13.1 2.6-17.9 7.4l-1 1c-0.4 0.4-0.9 0.6-1.5 0.6s-1.1-0.2-1.5-0.6l-1-1c-4.8-4.8-11.1-7.4-17.9-7.4z"/>
    <path id="path1698" d="m50 76.4c-0.5 0-1-0.2-1.4-0.5l-29.1-26.1c-5.7-5.1-9-12.5-9-20.2 0-5.1 2-9.9 5.6-13.5s8.4-5.6 13.5-5.6 9.9 2 13.5 5.6l6.9 6.9 7-6.9c3.6-3.6 8.4-5.6 13.5-5.6s9.9 2 13.5 5.6 5.6 8.4 5.6 13.5c0 7.7-3.3 15-9 20.2l-29.2 26c-0.4 0.4-0.9 0.6-1.4 0.6zm-20.4-61.7c-4 0-7.7 1.6-10.6 4.4-2.8 2.8-4.3 6.5-4.3 10.5 0 6.5 2.8 12.7 7.6 17.1l27.7 24.8 27.7-24.8c4.8-4.3 7.6-10.5 7.6-17 0-4-1.6-7.7-4.4-10.6-2.8-2.8-6.5-4.4-10.5-4.4s-7.7 1.5-10.5 4.3l-8.4 8.4c-0.4 0.4-0.9 0.6-1.5 0.6s-1.1-0.2-1.5-0.6l-8.4-8.4c-2.8-2.8-6.5-4.3-10.5-4.3z"/>
    <path id="path1700" d="m50 62.3c-0.5 0-1-0.2-1.4-0.5l-22.1-19.8c-3.5-3.2-5.5-7.7-5.5-12.4 0-2.3 0.9-4.4 2.5-6.1 1.7-1.7 3.8-2.6 6.1-2.6s4.4 0.9 6.1 2.5l14.3 14.4 14.4-14.3c1.6-1.6 3.7-2.5 6.1-2.5 2.3 0 4.4 0.9 6.1 2.5 1.7 1.7 2.6 3.8 2.6 6.1 0 4.7-2 9.2-5.5 12.4l-22.3 19.8c-0.4 0.3-0.9 0.5-1.4 0.5zm-20.7-23.5 20.7 18.6 20.7-18.5c2.6-2.4 4.1-5.7 4.1-9.2 0-1.2-0.5-2.3-1.3-3.2-1.7-1.7-4.5-1.7-6.2 0l-15.8 15.8c-0.4 0.4-0.9 0.6-1.5 0.6s-1.1-0.2-1.5-0.6l-15.8-15.9c-1.7-1.7-4.5-1.7-6.3 0.1-0.8 0.8-1.3 1.9-1.3 3.1 0.1 3.5 1.6 6.9 4.2 9.2z"/>
   </g>
  </g>
 </g>
</svg>
