<?xml version="1.0" encoding="UTF-8"?>
<!-- Created with Inkscape (http://www.inkscape.org/) -->
<svg id="svg1933" width="116.63" height="116.63" version="1.1" viewBox="0 0 30.858 30.858" xmlns="http://www.w3.org/2000/svg" xmlns:cc="http://creativecommons.org/ns#" xmlns:dc="http://purl.org/dc/elements/1.1/" xmlns:rdf="http://www.w3.org/1999/02/22-rdf-syntax-ns#">
 <metadata id="metadata1930">
  <rdf:RDF>
   <cc:Work rdf:about="">
    <dc:format>image/svg+xml</dc:format>
    <dc:type rdf:resource="http://purl.org/dc/dcmitype/StillImage"/>
    <dc:title/>
   </cc:Work>
  </rdf:RDF>
 </metadata>
 <g id="layer1" transform="translate(0 -266.14)">
  <circle id="path853-5" cx="15.429" cy="281.57" r="15.429" fill="#266334"/>
  <circle id="path853" cx="15.429" cy="281.57" r="0" fill="#031d44"/>
 </g>
 <g id="layer2">
  <path id="path9185" d="m22.977 16.004s0.81351-2.1708 0.16713-3.7111c2.2907 1.6256 0.6695 3.871-0.16713 3.7111zm2.4646 8.2387h-2.2787c-0.07779-0.06864-0.87709-0.82242-0.73886-2.7168-0.70514 1.2858-0.45661 2.7168-0.45661 2.7168h-1.2234c0.74656-2.8885-1.3375-4.4589-1.3375-4.4589s0.46287 1.018 0.12812 2.2433c-0.39664 1.4517-1.4129 2.1472-1.5174 2.2156h-12.039v-0.6825h4.7147v-3.7952l-1.0707-1.1194c-0.34751-0.36317-0.53873-0.84-0.53873-1.3426v-0.88817c-1.3734-0.16737-2.4374-1.3366-2.4374-2.7551 0-0.24853 0.033234-0.48912 0.094403-0.71838-1.2282-0.28682-2.1434-1.3876-2.1434-2.7033 0-1.3065 0.90262-2.4015 2.1181-2.6973 0.044794-1.1955 1.0274-2.1511 2.2339-2.1511 0.046239 0 0.091995 0.00192 0.13751 0.00458 0.31476-0.85376 1.1355-1.4628 2.0986-1.4628 1.0014 0 1.8488 0.65818 2.1335 1.5656 0.3887-0.20711 0.8323-0.32488 1.3034-0.32488 1.5333 0 2.7765 1.2431 2.7765 2.7765 0 0.30705-0.05057 0.60207-0.14257 0.87805 0.99389 0.42265 1.6908 1.4079 1.6908 2.5561 0 1.5333-1.2431 2.7765-2.7765 2.7765-0.18182 0-0.35955-0.01805-0.5315-0.05154 0.04166 0.19146 0.06429 0.3899 0.06429 0.59364 0 1.5333-1.2431 2.7765-2.7765 2.7765-0.31765 0-0.61074-0.06574-0.87877-0.18014v6.262h3.2242c-0.89202-2.1667-0.30994-4.9882 1.2285-6.0021-0.38556 1.3624 0.08212 2.4906 0.98956 2.7553-0.24661-0.6642-0.95777-2.7365 0.2389-4.5598 0.01493-0.02288 0.03035-0.04431 0.04552-0.06622l-0.0019 1e-3c0.80267-1.2027 2.9711-3.1399 2.5997-4.0967 0.49899 0.38026 0.87035 0.85879 0.6076 2.0485-0.45588 1.818-0.30127 3.136 0.69671 4.6308-0.05299-0.69864 0.04166-1.4731 0.68009-2.3211-0.08237 1.4105 1.4353 3.1095 1.8743 5.1033-0.08646-0.91394-0.02915-2.5732 1.3041-3.5295-1.4519 2.0738 2.3225 4.4172-0.09344 6.7193zm-14.748-5.3353v-2.8379c-0.2401 0.17412-0.65047 0.30561-1.0168 0.34992v0.88335c0 0.3492 0.13294 0.68058 0.37448 0.93296z" fill="#fff" stroke-width=".26458"/>
 </g>
</svg>
