<?xml version="1.0" encoding="UTF-8" standalone="no"?>
<!-- Created with Inkscape (http://www.inkscape.org/) -->

<svg
   xmlns:dc="http://purl.org/dc/elements/1.1/"
   xmlns:cc="http://creativecommons.org/ns#"
   xmlns:rdf="http://www.w3.org/1999/02/22-rdf-syntax-ns#"
   xmlns:svg="http://www.w3.org/2000/svg"
   xmlns="http://www.w3.org/2000/svg"
   xmlns:sodipodi="http://sodipodi.sourceforge.net/DTD/sodipodi-0.dtd"
   xmlns:inkscape="http://www.inkscape.org/namespaces/inkscape"
   width="30.858mm"
   height="30.858mm"
   viewBox="0 0 30.858 30.858"
   version="1.1"
   id="svg1933"
   inkscape:version="0.92.5 (2060ec1f9f, 2020-04-08)"
   sodipodi:docname="Women's access to economic resources.svg">
  <defs
     id="defs1927">
    <mask
       maskUnits="userSpaceOnUse"
       id="mask2260">
      <rect
         style="opacity:1;fill:#ffffff;fill-opacity:1;stroke:none;stroke-width:0.56499994;stroke-miterlimit:4;stroke-dasharray:none;stroke-opacity:1"
         id="rect2262"
         width="86.248459"
         height="109.59391"
         x="10.399542"
         y="-2.1886201" />
    </mask>
  </defs>
  <sodipodi:namedview
     id="base"
     pagecolor="#ffffff"
     bordercolor="#666666"
     borderopacity="1.0"
     inkscape:pageopacity="0.0"
     inkscape:pageshadow="2"
     inkscape:zoom="1.979899"
     inkscape:cx="74.922616"
     inkscape:cy="74.025098"
     inkscape:document-units="mm"
     inkscape:current-layer="layer1"
     showgrid="false"
     units="mm"
     showguides="true"
     inkscape:guide-bbox="true"
     inkscape:snap-global="false"
     inkscape:window-width="1090"
     inkscape:window-height="767"
     inkscape:window-x="146"
     inkscape:window-y="94"
     inkscape:window-maximized="0"
     inkscape:snap-others="false"
     inkscape:snap-bbox="true"
     inkscape:bbox-nodes="true">
    <sodipodi:guide
       position="0,16.503893"
       orientation="1,0"
       id="guide2524"
       inkscape:locked="false"
       inkscape:label=""
       inkscape:color="rgb(0,0,255)" />
    <sodipodi:guide
       position="14.29892,0"
       orientation="0,1"
       id="guide2526"
       inkscape:locked="false"
       inkscape:label=""
       inkscape:color="rgb(0,0,255)" />
    <sodipodi:guide
       position="85.526248,30.858"
       orientation="0,1"
       id="guide7505"
       inkscape:locked="false"
       inkscape:label=""
       inkscape:color="rgb(0,0,255)" />
    <sodipodi:guide
       position="15.434815,33.542326"
       orientation="1,0"
       id="guide7585"
       inkscape:locked="false" />
  </sodipodi:namedview>
  <metadata
     id="metadata1930">
    <rdf:RDF>
      <cc:Work
         rdf:about="">
        <dc:format>image/svg+xml</dc:format>
        <dc:type
           rdf:resource="http://purl.org/dc/dcmitype/StillImage" />
        <dc:title></dc:title>
      </cc:Work>
    </rdf:RDF>
  </metadata>
  <g
     inkscape:label="Layer 1"
     inkscape:groupmode="layer"
     id="layer1"
     transform="translate(0,-266.14199)">
    <g
       style="fill:#ffffff;stroke-width:1.20943701"
       id="g1829"
       transform="matrix(0.04272767,0,0,0.04272767,4.3256279,270.19715)">
      <path
         id="path1806"
         d="m 405.7,165.4 -16.9,6.4 c -6.3,2.4 -12.9,3.6 -19.6,3.6 -1.4,0 -2.9,-0.1 -4.3,-0.2 -18.8,-1.4 -51.9,-4 -73.2,-5.6 L 256,206.4 220,169.2 c -15.6,-16 -37,-25.1 -59.3,-25.1 -0.2,0 -0.5,0 -0.7,0 -10.6,0.1 -21.1,2.2 -30.8,6.4 l -0.8,0.3 c -9.6,4.2 -18.3,10.4 -25.5,18.1 -30.9,33.6 -30.5,85.4 1,118.4 l 48.4,50 c 21.2,1.6 54.7,4.2 73.8,5.6 11.9,0.9 22.3,8.5 26.7,19.6 l 0.2,0.5 c 6.3,15.8 -1.4,33.7 -17.2,40 -2.1,0.8 -4.3,1.4 -6.5,1.8 l -23.7,3.9 24.9,10.6 c 6,2.6 12.8,2.6 18.9,0 l 53,-22.7 105.7,-109.3 c 31.5,-33 31.9,-84.8 1,-118.4 -1.1,-1.2 -2.2,-2.4 -3.4,-3.5 z M 240,280 h -32 v 32 h -32 v -32 h -32 v -32 h 32 v -32 h 32 v 32 h 32 z m 96,8 -16,8 v 48 h -32 v -48 l -16,-8 v -30.1 c 0,-6.1 3.4,-11.6 8.8,-14.3 L 304,232 l -7.2,-3.6 c -5.4,-2.7 -8.8,-8.3 -8.8,-14.3 v -4.2 c 0,-8.8 7.2,-16 16,-16 8.8,0 16,7.2 16,16 v 4.2 c 0,6.1 -3.4,11.6 -8.8,14.3 l -7.2,3.6 23.2,11.6 c 5.4,2.7 8.8,8.3 8.8,14.3 z"
         inkscape:connector-curvature="0"
         style="fill:#ffffff;stroke-width:1.20943701" />
      <rect
         id="rect1808"
         height="88"
         width="32"
         y="376"
         x="32"
         style="fill:#ffffff;stroke-width:1.20943701" />
      <path
         id="path1810"
         d="M 407.3,45.1 378.7,33.7 C 375.9,32.6 372.8,32 369.8,32 h -121 c -4.3,0 -8.6,1.2 -12.3,3.4 l -132.1,79.3 c -6.3,3.8 -8.4,12 -4.6,18.3 3.4,5.7 10.6,8 16.7,5.4 l 4.4,-1.9 c 1.2,-0.5 2.3,-1 3.5,-1.5 L 272,71.3 l 63.9,27.2 14.9,-2.4 2.6,15.8 -68.2,11.1 c -8.1,1.3 -13.5,8.9 -12.2,17 0.2,1.1 0.5,2.1 0.9,3.1 l 0.2,0.5 c 2.1,5.5 7.2,9.2 13,9.6 20.8,1.5 58.4,4.4 78.9,6 5.8,0.5 11.6,-0.4 17.1,-2.4 L 432,138.5 V 48 h -9.8 c -5.1,0 -10.2,-1 -14.9,-2.9 z"
         inkscape:connector-curvature="0"
         style="fill:#ffffff;stroke-width:1.20943701" />
      <rect
         id="rect1812"
         height="88"
         width="32"
         y="48"
         x="448"
         style="fill:#ffffff;stroke-width:1.20943701" />
      <path
         id="path1814"
         d="M 395.9,373.9 255.7,434 c -10,4.3 -21.4,4.3 -31.4,0 l -48.1,-20.5 -14.9,2.4 -2.6,-15.8 68.1,-11.1 c 8.1,-1.3 13.5,-8.9 12.2,-17 -0.2,-1.1 -0.5,-2.1 -0.9,-3.1 l -0.2,-0.5 c -2.1,-5.5 -7.2,-9.2 -13,-9.6 -20.8,-1.5 -58.4,-4.4 -78.9,-6 -5.8,-0.5 -11.6,0.4 -17.1,2.4 L 80,373.5 V 464 h 9.8 c 5.1,0 10.1,1 14.9,2.9 l 28.6,11.4 c 2.8,1.1 5.9,1.7 8.9,1.7 h 121 c 4.3,0 8.6,-1.2 12.3,-3.4 l 132.3,-79.4 c 6.2,-3.7 8.2,-11.8 4.5,-18 -3.4,-5.6 -10.4,-7.9 -16.4,-5.3 z"
         inkscape:connector-curvature="0"
         style="fill:#ffffff;stroke-width:1.20943701" />
    </g>
    <g
       style="fill:#ffffff;stroke-width:1.27491653"
       id="g3556"
       transform="matrix(0.42010107,0,0,0.42010107,7.9079933,271.42233)">
      <path
         id="path3545"
         transform="translate(-494,-327.3)"
         d="m 512,327.3 a 18,18 0 0 0 -18,18 c 0,8.7 13.8,26.6 17.2,31 a 1,1 0 0 0 1.6,0 c 3.5,-4.4 17.2,-22.3 17.2,-31 a 18,18 0 0 0 -18,-18 z m 1.6,29.9 a 12,12 0 0 1 -13.5,-13.5 12.8,12.8 0 0 1 10.3,-10.3 12,12 0 0 1 13.5,13.5 12.8,12.8 0 0 1 -10.3,10.3 z m -5.7,-17.1 a 4.1,4.1 0 1 1 4.1,4.1 4.1,4.1 0 0 1 -4.1,-4.1 z m 4.1,5.9 a 8.8,8.8 0 0 0 -7.4,4.7 0.9,0.9 0 0 0 0.9,1.5 h 13 a 0.9,0.9 0 0 0 0.9,-1.5 8.8,8.8 0 0 0 -7.4,-4.6 z"
         inkscape:connector-curvature="0"
         style="fill:#ffffff;stroke-width:1.27491653" />
    </g>
    <g
       transform="translate(-371.02234,-10.443217)"
       id="g7969">
      <circle
         style="fill:#40a073;fill-opacity:1;stroke-width:0.46499997"
         id="circle1093-0-8-8-7-5-9"
         cx="386.45154"
         cy="292.01401"
         r="15.429199" />
      <g
         transform="matrix(0.24973093,0,0,0.24973093,372.52828,279.19081)"
         id="g3462"
         style="fill:#ffffff;stroke-width:1.05947363">
        <g
           style="fill:#ffffff;stroke-width:1.05947363"
           id="g3450">
          <path
             style="fill:#ffffff;stroke-width:1.05947363"
             inkscape:connector-curvature="0"
             d="m 35.231,47.739 h 4.771 l -0.278,1.19 h -4.667 c -0.006,0.117 -0.003,0.818 0.009,1.014 h 4.415 l -0.277,1.189 h -3.956 c 0.672,3.053 4.598,2.393 5.578,1.291 v 2.349 c -4.196,1.624 -7.743,-0.784 -8.258,-3.64 h -1.284 l 0.277,-1.189 h 0.851 C 32.406,49.82 32.409,49.108 32.42,48.929 h -1.136 l 0.277,-1.19 h 1.033 c 1.446,-5.216 7.318,-4.177 8.292,-3.64 l -0.512,2.127 C 39.83,45.492 36.085,44.717 35.231,47.739 Z M 53.414,20.368 v 2.514 l 4.681,5.003 4.72,-5.003 v -2.485 c 4.675,0 6.146,-4.01 6.146,-4.01 C 65.13,14.905 67.218,12.94 67.141,10.323 67.209,5.711 65.008,0.189 58.167,0 c -6.841,0.189 -9.045,5.711 -8.976,10.322 -0.078,2.617 2.01,4.582 -1.822,6.064 0,0.001 1.438,3.982 6.045,3.982 z m 23.365,44.4 c -2.611,0.354 -3.646,-1.383 -4.1,-3.734 0,0 -1.031,-9.072 -2.25,-16.709 -1.071,-6.717 -2.273,-8.072 -2.564,-8.76 0.178,0.485 0.813,4.633 -0.705,7.441 -2.288,4.231 3.441,4.959 3.441,20.086 h -2.475 l -0.953,31.794 c 0,2.824 -1.791,5.114 -4.246,5.114 -2.456,0 -4.048,-2.29 -4.048,-5.114 V 63.092 h -1.43 v 31.794 c 0,2.824 -1.591,5.114 -4.048,5.114 -2.455,0 -4.246,-2.29 -4.246,-5.114 L 48.201,63.092 h -2.475 c 0,-2.434 0.139,-4.541 0.361,-6.381 -2.1,2.615 -5.322,4.291 -8.938,4.291 -6.328,0 -11.458,-5.129 -11.458,-11.458 0,-1.216 0.191,-2.386 0.542,-3.485 -1.1,0.943 -3.083,2.158 -4.755,0.57 -2.463,-2.337 -0.157,-4.751 -0.157,-4.751 0,0 10.062,-9.979 11.562,-11.499 1.253,-1.27 9.245,-3.012 19.108,-6.852 l -1.134,4.182 4.092,-0.058 3.279,3.942 3.152,-3.942 4.093,0.058 -1.134,-4.182 c 9.525,2.699 12.289,15.136 12.289,15.136 0.488,3.013 2.938,21.246 2.938,21.246 0.358,2.13 -0.295,4.521 -2.787,4.859 z M 46.266,49.544 c 0,-5.034 -4.081,-9.114 -9.115,-9.114 -5.034,0 -9.115,4.08 -9.115,9.114 0,5.034 4.081,9.114 9.115,9.114 5.034,0 9.115,-4.08 9.115,-9.114 z m 2.507,-8.315 C 47.254,38.42 48.104,33.715 48.122,33.622 l -10.767,1.596 -3.418,3.329 c 1.02,-0.298 2.098,-0.46 3.214,-0.46 5.552,0 10.182,3.949 11.233,9.192 0.894,-2.56 1.429,-4.127 0.389,-6.05 z"
             id="path3448" />
        </g>
      </g>
    </g>
  </g>
</svg>
