<?xml version="1.0" encoding="UTF-8"?>
<!-- Created with Inkscape (http://www.inkscape.org/) -->
<svg id="svg1933" width="116.63" height="116.63" version="1.1" viewBox="0 0 30.858 30.858" xmlns="http://www.w3.org/2000/svg" xmlns:cc="http://creativecommons.org/ns#" xmlns:dc="http://purl.org/dc/elements/1.1/" xmlns:rdf="http://www.w3.org/1999/02/22-rdf-syntax-ns#">
 <metadata id="metadata1930">
  <rdf:RDF>
   <cc:Work rdf:about="">
    <dc:format>image/svg+xml</dc:format>
    <dc:type rdf:resource="http://purl.org/dc/dcmitype/StillImage"/>
    <dc:title/>
   </cc:Work>
  </rdf:RDF>
 </metadata>
 <g id="layer1" transform="translate(0 -266.14)">
  <circle id="path853-5" cx="15.429" cy="281.57" r="15.429" fill="#266334"/>
  <circle id="path853" cx="15.429" cy="281.57" r="0" fill="#031d44"/>
 </g>
 <g id="layer2">
  <g id="g4614" transform="matrix(.54011 0 0 .54011 2.5467 1.1653)" fill="#fff" stroke-width=".48987" data-name="work performance">
   <path id="path4612" d="m38.28 24.267a3.1906 3.1906 0 0 1 1.2e-4 6.3809 3.1906 3.1906 0 0 1-1.2e-4 -6.3809zm-25.571 7.4268h-5.9683a3.2786 3.2786 0 0 0-3.376 3.1636v3.5005a2 2 0 0 0 2 2h8.71a2 2 0 0 0 2-2v-3.5098a3.2688 3.2688 0 0 0-3.3657-3.1543zm-2.9893-1.0459a3.1906 3.1906 0 0 0-1.2e-4 -6.3809 3.1906 3.1906 0 0 0 1.2e-4 6.3809zm21.256-17.923-4.2232-0.9964a0.34646 0.34646 0 0 1-0.22-0.16315l-2.1799-3.7511a0.34659 0.34659 0 0 0-0.59589-0.0058l-2.2526 3.7086a0.34681 0.34681 0 0 1-0.22327 0.15887l-4.2414 0.91358a0.34656 0.34656 0 0 0-0.18964 0.56494l2.8311 3.2882a0.3467 0.3467 0 0 1 0.08215 0.26141l-0.44159 4.3162a0.34656 0.34656 0 0 0 0.4787 0.35492l4.0016-1.6764a0.34637 0.34637 0 0 1 0.274 0.0027l3.9692 1.7538a0.34661 0.34661 0 0 0 0.48548-0.34558l-0.35761-4.3238a0.34653 0.34653 0 0 1 0.08716-0.25971l2.8943-3.2327a0.34656 0.34656 0 0 0-0.17866-0.56854zm-6.9753 17.923a3.1906 3.1906 0 0 0-1.2e-4 -6.3809 3.1906 3.1906 0 0 0 1.2e-4 6.3809zm2.9893 1.0459h-5.9688a3.2782 3.2782 0 0 0-3.3755 3.1636v3.5005a2 2 0 0 0 2 2h8.71a2 2 0 0 0 2-2v-3.5098a3.2688 3.2688 0 0 0-3.3658-3.1543zm14.28 0h-5.9688a3.2782 3.2782 0 0 0-3.3755 3.1636v3.5005a2 2 0 0 0 2 2h8.71a2 2 0 0 0 2-2v-3.5098a3.2688 3.2688 0 0 0-3.3658-3.1543z" fill="#fff" stroke-width=".48987"/>
  </g>
 </g>
</svg>
