<?xml version="1.0" encoding="UTF-8" standalone="no"?>
<svg
   xmlns:dc="http://purl.org/dc/elements/1.1/"
   xmlns:cc="http://creativecommons.org/ns#"
   xmlns:rdf="http://www.w3.org/1999/02/22-rdf-syntax-ns#"
   xmlns:svg="http://www.w3.org/2000/svg"
   xmlns="http://www.w3.org/2000/svg"
   xmlns:sodipodi="http://sodipodi.sourceforge.net/DTD/sodipodi-0.dtd"
   xmlns:inkscape="http://www.inkscape.org/namespaces/inkscape"
   id="Layer_1"
   data-name="Layer 1"
   viewBox="0 0 154.27 141.43"
   version="1.1"
   sodipodi:docname="Cornwall Council Logo purple.svg"
   inkscape:version="0.92.5 (2060ec1f9f, 2020-04-08)">
  <metadata
     id="metadata541">
    <rdf:RDF>
      <cc:Work
         rdf:about="">
        <dc:format>image/svg+xml</dc:format>
        <dc:type
           rdf:resource="http://purl.org/dc/dcmitype/StillImage" />
        <dc:title></dc:title>
      </cc:Work>
    </rdf:RDF>
  </metadata>
  <sodipodi:namedview
     pagecolor="#ffffff"
     bordercolor="#666666"
     borderopacity="1"
     objecttolerance="10"
     gridtolerance="10"
     guidetolerance="10"
     inkscape:pageopacity="0"
     inkscape:pageshadow="2"
     inkscape:window-width="1848"
     inkscape:window-height="1016"
     id="namedview539"
     showgrid="false"
     inkscape:zoom="9.4394235"
     inkscape:cx="31.252646"
     inkscape:cy="95.312959"
     inkscape:window-x="72"
     inkscape:window-y="27"
     inkscape:window-maximized="1"
     inkscape:current-layer="Layer_1" />
  <defs
     id="defs4">
    <style
       id="style2">.cls-1,.cls-2,.cls-3{fill-rule:evenodd;}.cls-2,.cls-5{fill:#fdb913;}.cls-3,.cls-4{fill:#fff;}.cls-6{fill:none;stroke:#000;stroke-linecap:square;stroke-miterlimit:2.41;stroke-width:0.32px;}</style>
  </defs>
  <path
     class="cls-1"
     d="M90.28,38.23l-1-1.28a4.33,4.33,0,0,0-2.84-1.58,8,8,0,0,0-2.27-1.22c-.38-.17-.61-.55-1.06-.57a1.53,1.53,0,0,0-1.57-.53c-.11-.06-.19-.21-.32-.16a1.13,1.13,0,0,1-.86-.38,33.17,33.17,0,0,1,.92-4.32c.47-.31,0-1,.4-1.3.11-.17.28-.07.4-.11a.83.83,0,0,1-.08-.52c.06-.07.08.08.19.06a1.34,1.34,0,0,1-.07-.63l.19.08c-.06-.27-.16-.67.07-.9.14,0,.29.08.46,0-.11-.4.42-.09.59-.21.08-.4.61.08.86-.25.07,0-.06-.05,0-.11.27-.13.74.08,1-.21.42-.27.78.32,1.12.57l3.93,4.59a1.29,1.29,0,0,0,1.24.63l.66.54c.4.47,1,.43,1.55.43a7.35,7.35,0,0,0,1.39.37c.34-.31.91.13,1.18-.27a.81.81,0,0,0-.13-.61c-1.6-1.89-3.28-3.68-4.9-5.56,0-.06.06-.06.11-.1a28.06,28.06,0,0,0,5.15.61c.15,0,.42.06.46-.15-.42-1-1.7-1.16-2.27-2.1a20.4,20.4,0,0,1-2-1.75v-.1a31.83,31.83,0,0,0,3.92,0l.13-.13c.14-.34-.34-.4-.57-.55-2-.9-4-1.83-6-2.61a24,24,0,0,0-3.12-1.22,9.7,9.7,0,0,0-1.72-1.53,16.69,16.69,0,0,0-2-1.83,32.67,32.67,0,0,0-3.35-4.09,20,20,0,0,0-4-2.69L74.66,3.91a7.26,7.26,0,0,0-1.26-2.4C72-.22,68.92-.43,67,.71A10,10,0,0,1,64.47,2C62.5,2.58,60.37,3.19,59,5c-.06.17-.33.29-.23.53.38,0,.76-.42,1.1-.57,1.89-.65,3.55-1.29,5.53-.82,1.43.65,1.39,2.12,1.73,3.41a10.24,10.24,0,0,0-.93,4.4c-.19,2.33,1,4.12,2.21,5.89a25.35,25.35,0,0,0,3.18,3.28c0-.13-.11-.25-.06-.36l.06,0v-.21a1.94,1.94,0,0,1,.48.47,12.33,12.33,0,0,0,3.46,2.14.7.7,0,0,1,.54.61c.13.4-.35.49-.27.85-.08.12-.21,0-.34,0-.65.06-1.22,0-1.83,0a1.33,1.33,0,0,0-1.07,0,2,2,0,0,0-1.14,0,2.26,2.26,0,0,0-1-.09,3,3,0,0,0-1.32-.33c-.19-.11-.47-.26-.68-.11a1.89,1.89,0,0,0-1.66.59c-.15.21-.48.15-.72.34-.23.5-.8.76-.94,1.32a.69.69,0,0,0,.19.76c0-.36-.07-.82.27-1.09.15-.11.15.17.21.21.32.19.51-.21.72-.28l-.07.53c-.21.08-.48.06-.65.25s-.4.44-.36.76a1,1,0,0,0,.36,1c-.08.32-.4.46-.27.88,0,.53.46.7.78.91.21.06.46,0,.61,0a2.65,2.65,0,0,1-2.61,1.16.89.89,0,0,0,.16-.25,1,1,0,0,0-.12-.85,1.09,1.09,0,0,0-.59-.33c.15-.19.08-.49.08-.74a.75.75,0,0,0-.52-.61,1.33,1.33,0,0,0-1.08.21c-.12-.23-.16-.57-.46-.63s-.65-.13-.84.06c-.38.19-.4.68-.38,1.08a.85.85,0,0,0-.72.71,1,1,0,0,0,.7,1,1.67,1.67,0,0,0-.13,1.14,1.3,1.3,0,0,0,1.12.61,1,1,0,0,0,.65-.53,5.13,5.13,0,0,1,.78,1L63,34l.59.23.38.49a4.35,4.35,0,0,0,.71,1.83.31.31,0,0,1,.3.12,2.77,2.77,0,0,0-1.12,1.52s-9.34,0-9.34,0,0,4.25,0,6.29h0V59.21a27.37,27.37,0,0,0,3.41,13.07c3.36,6.65,10.35,11.87,16.92,14.92a11.29,11.29,0,0,0,2.82,1,44.35,44.35,0,0,0,5.17-2.44c9.79-4.88,17-14.54,17.52-25.25l.08-15.28v-7Zm-21.53-12a2.12,2.12,0,0,0-.57-.7c.13-.23.47-.06.68-.17.38.26.88,0,1.11.42.36.21.09.76.09,1.08,0,0,0,.06,0,.06-.25-.15-.27-.65-.65-.71-.19,0-.46-.11-.61,0m1.57,3.66a1.64,1.64,0,0,1-.92-.59c.44,0,.73-.29,1-.55.19.11.14.41.08.59l0,.07c.47-.44.09-1.1.28-1.62A1.07,1.07,0,0,0,71,26.7c.37-.34-.13-1.07.52-1.13,1.9-.3,3.6.37,5.41.52.13,0,.27-.21.36,0a1,1,0,0,0,.52-.13l0,.15a1.7,1.7,0,0,0,.5-.5l.23.21.07-.61h.19a3.78,3.78,0,0,0,.06-.47l.15.07c0-.28-.09-.61.19-.82.29.08.25.44.4.65a13,13,0,0,1,.46,3c-.17,1.41-.38,2.86-.55,4.21a.83.83,0,0,1-.46.54c-.46.09-.8-.21-1.29-.1a1.65,1.65,0,0,0-1.22,0c-.16.42-.75.06-.88.51-.27-.07-.46.14-.65.33l-.36,0c-.11-.38,0-.82-.29-1.07l0-.51.61-.75-.55-.93c.13-.15.27.13.46.1a1.24,1.24,0,0,0,.74-.16,1.73,1.73,0,0,0,.44-1.25l-.21-.4c.28-.21.17-.54.23-.82a.9.9,0,0,0-.78-.65c.13-.48-.29-.71-.58-.92a1.38,1.38,0,0,0-1.14.27,1.45,1.45,0,0,0-1.22.06.84.84,0,0,0-.3.7.48.48,0,0,0,.13.44,1.39,1.39,0,0,0-.48,1.45c.06.46.42.63.75.82a2.7,2.7,0,0,1-2.21.4m11.85,8.34L73,38.2s0-.08,0-.13l.36-.5c1,0,2.29.06,3-.8,1.2.52,3,.92,4.08,0,1,.59,2.23,1.24,3.47.78l.42.71Z"
     id="path6"
     style="fill:#44263a;fill-opacity:1" />
  <path
     class="cls-2"
     d="M79.13,50.12A1.86,1.86,0,0,1,79,52.06a2,2,0,0,1-2,.73,1.85,1.85,0,0,1-1.35-1.34,1.75,1.75,0,0,1,.63-1.92A1.94,1.94,0,0,1,78,49.2a1.81,1.81,0,0,1,1.12.92"
     id="path8"
     style="fill:#ffffff;fill-opacity:1" />
  <path
     class="cls-2"
     d="M75.75,55.2A2,2,0,0,1,76,56.78a1.91,1.91,0,0,1-.86,1.11,2,2,0,0,1-1.45.21,2.12,2.12,0,0,1-1.39-1.39A2,2,0,0,1,73,54.78a1.91,1.91,0,0,1,1.73-.36,1.88,1.88,0,0,1,1,.78"
     id="path10"
     style="fill:#ffffff;fill-opacity:1" />
  <path
     class="cls-2"
     d="M79,60.68a1.87,1.87,0,0,1-1.39,2.69,2,2,0,0,1-2-.95,1.9,1.9,0,0,1,.12-2,2,2,0,0,1,1.56-.8A2,2,0,0,1,79,60.68"
     id="path12"
     style="fill:#ffffff;fill-opacity:1" />
  <path
     class="cls-2"
     d="M76.05,65.4a2.59,2.59,0,0,1,.21,2.13,2.35,2.35,0,0,1-2,1.53,2.65,2.65,0,0,1-2.08-.82A2.31,2.31,0,0,1,71.63,66a2.43,2.43,0,0,1,1.66-1.62,2.57,2.57,0,0,1,2.76,1.05"
     id="path14"
     style="fill:#ffffff;fill-opacity:1" />
  <path
     class="cls-2"
     d="M79.23,70.5a2.4,2.4,0,0,1-1.12,3.77,2.43,2.43,0,0,1-2.42-.5A2.34,2.34,0,0,1,75,71.43a2.3,2.3,0,0,1,1.33-1.64,2.52,2.52,0,0,1,3,.71"
     id="path16"
     style="fill:#ffffff;fill-opacity:1" />
  <path
     class="cls-3"
     d="M74.55,78.18c-1.29.51-2.44,1.33-3.81,1.75a14.64,14.64,0,0,1-3.81.59,28.06,28.06,0,0,1-4.44-4.34l.06-.06a12.59,12.59,0,0,0,6.86-1.58,53.39,53.39,0,0,0,5.14,3.64"
     id="path18" />
  <path
     class="cls-3"
     d="M76,79.08c-.08.17-.33.15-.52.23-2.23,1-4.4,2.21-7,2.4a.4.4,0,0,1-.31-.21l.25-.14a15.42,15.42,0,0,0,5.37-1.84,13.58,13.58,0,0,1,1.7-.61.48.48,0,0,1,.48.17"
     id="path20" />
  <path
     class="cls-3"
     d="M81.83,81.31a25,25,0,0,0,3.36,1.13l-.48.34c-2-.4-3.7-1.56-5.6-2.31l-1.24-.3a6.24,6.24,0,0,0-3.54.72,22,22,0,0,1-4.12,1.68l-.59.06c-.17-.12-.36-.21-.51-.33a9.05,9.05,0,0,0,3.22-1A17.85,17.85,0,0,0,75,80.07a6.4,6.4,0,0,1,3.45-.24l2.19.78Z"
     id="path22" />
  <path
     class="cls-3"
     d="M84.18,83.08a.59.59,0,0,1-.76.17c-1.68-.52-3.26-1.28-4.88-2-1.83-.37-3.39.59-4.91,1.29a15.21,15.21,0,0,1-2.8.88c-.14-.06-.23-.21-.35-.29a14.24,14.24,0,0,0,1.6-.53c2.08-.55,3.85-2.33,6.18-1.7,2.09.48,3.79,1.79,5.92,2.14"
     id="path24" />
  <path
     class="cls-3"
     d="M82,83.63a4.73,4.73,0,0,1,.89.32.92.92,0,0,1-.49.31c-1.75-.48-3.24-1.7-5.2-1.7-1.68.36-3,1.56-4.71,1.7-.17-.12-.46-.14-.46-.33a28.48,28.48,0,0,0,4.39-1.75c2.15-.61,3.79.82,5.58,1.45"
     id="path26" />
  <path
     class="cls-3"
     d="M81.45,84.68c-.27.36-.69.15-1,0a6.79,6.79,0,0,0-3.74-.8c-1.12.22-2,.87-3.12,1.14a1.37,1.37,0,0,1-.42-.27l.06-.07c1.43-.18,2.42-1.34,3.94-1.32a9.11,9.11,0,0,1,4.27,1.3"
     id="path28" />
  <path
     class="cls-3"
     d="M80.33,85.36c0,.15-.21.17-.34.23-.86-.21-1.6-.74-2.63-.55a5.64,5.64,0,0,0-2.3.76,2.24,2.24,0,0,1-.5-.27,5.64,5.64,0,0,1,4-1,7.54,7.54,0,0,1,1.73.8"
     id="path30" />
  <path
     class="cls-3"
     d="M79.23,86c-.43.5-1,0-1.46,0-.73-.06-1.45.55-2.14.08a3.85,3.85,0,0,1,3.6-.1"
     id="path32"
     style="fill:#44263a;fill-opacity:1" />
  <path
     class="cls-1"
     d="M55.47,72.41c-.11.25-.4.4-.49.65a19.79,19.79,0,0,0-.82,4.12c-.17,1.62-.23,3.24-.31,4.89.19.33.92-.19,1,.29a15,15,0,0,1-1.88.42l0-.34a46.52,46.52,0,0,1,1.37-10l.15-.21c.36,0,.75,0,1,.13"
     id="path34"
     style="fill:#44263a;fill-opacity:1" />
  <path
     class="cls-1"
     d="M52.92,72.46a3.41,3.41,0,0,0-.87,1.83,53.77,53.77,0,0,0-.8,7.87c.34.19,1-.3,1,.19a13.48,13.48,0,0,1-1.85.42l-.06-.07a52,52,0,0,1,1.43-10.29l.15-.12c.33.08.73,0,1,.17"
     id="path36"
     style="fill:#44263a;fill-opacity:1" />
  <path
     class="cls-1"
     d="M140.6,72.48c0,.25-.34.38-.43.61a25.58,25.58,0,0,0-1,6.78L139,82.2c.32.21.72-.17,1,.13-.05.34-.55.23-.85.32a4.77,4.77,0,0,1-1,.21c0-1.33.21-2.76.3-4a29.05,29.05,0,0,1,1.13-6.4l.13-.07Z"
     id="path38"
     style="fill:#44263a;fill-opacity:1" />
  <path
     class="cls-1"
     d="M143.2,72.46c-.09.27-.47.46-.53.75a39.05,39.05,0,0,0-1,9.05c.29.09.63-.1.93,0a.19.19,0,0,1,0,.23l-1.81.33c-.21-.08.08-.19-.07-.29.34-3.43.42-7,1.39-10.12.32-.13.68,0,1.05,0Z"
     id="path40"
     style="fill:#44263a;fill-opacity:1" />
  <path
     class="cls-1"
     d="M42.51,72.66c0,.23-.27.42-.33.65a37.08,37.08,0,0,0-.76,8.84c.23.14.57-.17.71.06-.31.23-.8.23-1.15.44-.13,0-.21.11-.32.09-.06-.76,0-1.71,0-2.53l0,0a5.25,5.25,0,0,1-2.15,2.48.73.73,0,0,1-.75-.14c-.7-1.12.14-2.32.54-3.31.51-.73,1.12-1.79,2.09-1.87.08,0,.21,0,.21.15s-.44.06-.61.23a4.67,4.67,0,0,0-1.64,3.76.59.59,0,0,0,.31.49c.7-.06,1.14-.82,1.47-1.39a8.71,8.71,0,0,0,.72-2.25,24,24,0,0,1,.74-5.64l.12-.07Z"
     id="path42"
     style="fill:#44263a;fill-opacity:1" />
  <path
     class="cls-1"
     d="M119.26,72.76c-.17.25-.56.46-.63.84a28.1,28.1,0,0,0-1,6.9l0,0a2.23,2.23,0,0,0,.57-.69L120,77.45a.63.63,0,0,1,.65,0L120.42,82c.17.42.67-.27.7.21-.57.17-1.14.47-1.73.61,0-.29.19-.54.19-.86.15-1.16.17-2.4.21-3.49l-.06,0a13.24,13.24,0,0,0-2.13,3.22l-.34,1.22c-.14.14-.38.08-.52.06l-.11-.13c.28-3.45.42-6.94,1.48-10.06l.14-.06c.36.06.74-.08,1,.09"
     id="path44"
     style="fill:#44263a;fill-opacity:1" />
  <path
     class="cls-1"
     d="M24,77.68a2.36,2.36,0,0,1-.11,1.81,18.75,18.75,0,0,1-2.23.42,3.1,3.1,0,0,0,.11,1.71,1.05,1.05,0,0,0,1,.52,1.36,1.36,0,0,0,1-.54c.26-.24.19-.57.38-.8.21-.07.17.23.13.35a2.68,2.68,0,0,1-1,1.29,2,2,0,0,1-1.94-.13C20.48,81.45,20.67,80,21,79c.27-.8.8-1.75,1.77-1.86a1.29,1.29,0,0,1,1.24.57m-.55.06A1.68,1.68,0,0,1,23,79.37a2.76,2.76,0,0,1-1.31.14c.11-.84.3-1.79,1.12-2.14a.59.59,0,0,1,.65.37"
     id="path46"
     style="fill:#44263a;fill-opacity:1" />
  <path
     class="cls-1"
     d="M17.18,77.28a12,12,0,0,0-.4,3.41l.13-.08a21.32,21.32,0,0,1,2.48-3.33.7.7,0,0,1,.53,0c-.07,1.5-.17,3-.32,4.57.15.38.55-.15.74.15-.13.19-.4.19-.57.19l0,0-1.14.42-.06-.09a18,18,0,0,0,.54-4.31L19,78.21a13.16,13.16,0,0,0-2.31,3.41l-.32.88a.86.86,0,0,1-.55,0l0-.29c.21-1.44.23-2.89.36-4.32-.27-.19-.65.15-.88-.06l.06-.13a10.65,10.65,0,0,0,1.79-.46Z"
     id="path48"
     style="fill:#44263a;fill-opacity:1" />
  <path
     class="cls-1"
     d="M33.64,77.43a15.66,15.66,0,0,0-.34,3.39c.44-.59.8-1.24,1.26-1.83l1.2-1.52a.81.81,0,0,1,.74,0c-.13,1.45-.21,3-.36,4.48.13.38.53-.08.74.15l-.07.13c-.59.1-1.11.4-1.7.54l0-.1a17.61,17.61,0,0,0,.55-4.27c-.15-.15-.24.1-.32.17a11.46,11.46,0,0,0-2.34,4c-.14.1-.4.06-.59.06l-.06-.08a41.09,41.09,0,0,0,.3-4.57c-.24-.21-.68.08-.85-.13l0-.08a12.7,12.7,0,0,0,1.77-.46Z"
     id="path50"
     style="fill:#44263a;fill-opacity:1" />
  <path
     class="cls-1"
     d="M14.7,77.76a4.61,4.61,0,0,1,0,3.09,2.39,2.39,0,0,1-1.36,1.64,3.37,3.37,0,0,1-2-.15c-.47-.42-.32-1.15-.3-1.7.21-1.07.34-2.27,1.24-3a3.41,3.41,0,0,1,2.11-.27Zm-.82.23a4.75,4.75,0,0,1-.46,4.06,1,1,0,0,1-1,.27.79.79,0,0,1-.52-.52A5.67,5.67,0,0,1,12.58,78a1.12,1.12,0,0,1,.52-.38.87.87,0,0,1,.78.4"
     id="path52"
     style="fill:#44263a;fill-opacity:1" />
  <path
     class="cls-1"
     d="M108.06,77.66c.48.54.25,1.39.08,2l-.31.19-2,.29a2.46,2.46,0,0,0,.23,1.83,1,1,0,0,0,.86.38,1.41,1.41,0,0,0,1.12-.76c.12-.17,0-.61.36-.59a1.89,1.89,0,0,1-.66,1.39,1.84,1.84,0,0,1-1.74.38,1.52,1.52,0,0,1-.89-.8,4.52,4.52,0,0,1,1-4.21,1.56,1.56,0,0,1,2-.1m-.42.25a1.67,1.67,0,0,1-.42,1.62,2.43,2.43,0,0,1-1.33.21c0-.84.3-1.87,1.2-2.17.23,0,.51.11.55.34"
     id="path54"
     style="fill:#44263a;fill-opacity:1" />
  <path
     class="cls-1"
     d="M31.18,77.51,30.85,82c.17.19.44,0,.67,0,.06,0,.06.15,0,.17a7.75,7.75,0,0,1-1.43.48c0-.78.23-1.56.23-2.4l-.06-.13-.07,0a8,8,0,0,1-2,2.38.91.91,0,0,1-.82,0,1.66,1.66,0,0,1-.3-1.67,6.51,6.51,0,0,1,2.61-3.47c.44-.06.93,0,1.41,0Zm-.8.5a5.16,5.16,0,0,1-1.59,3.58.8.8,0,0,1-.59.13c-.61-.51-.19-1.44,0-2a3.55,3.55,0,0,1,1.72-2,.37.37,0,0,1,.46.31"
     id="path56"
     style="fill:#44263a;fill-opacity:1" />
  <path
     class="cls-1"
     d="M49.19,77.43c0,1.52-.19,3-.23,4.61.23.21.8-.29.69.15a9.33,9.33,0,0,1-1.47.48,14,14,0,0,0,.17-2.59c-.68.91-1.16,2.32-2.42,2.59a.78.78,0,0,1-.7-.61A3.88,3.88,0,0,1,46,79.2c.61-.67,1.14-1.75,2.13-1.85Zm-.78.55a5,5,0,0,1-.9,2.88c-.28.38-.68,1-1.25.89-.52-.42-.23-1.2-.08-1.77A3.71,3.71,0,0,1,48,77.66c.19,0,.34.19.42.32"
     id="path58"
     style="fill:#44263a;fill-opacity:1" />
  <path
     class="cls-1"
     d="M101.46,77.46a16.81,16.81,0,0,0-.4,3.38c.14,0,.17-.14.27-.23A12.39,12.39,0,0,1,103.27,78c.08-.25.23-.5.48-.54l.44,0c0,1.51-.23,3-.29,4.58.19.26.53-.12.74.11l0,.08c-.63.13-1.15.42-1.7.53l-.06-.08a19.06,19.06,0,0,0,.57-4.21l-.11-.09a11.84,11.84,0,0,0-2.57,4.23c-.15.13-.42.07-.59.07l-.06-.15a39.19,39.19,0,0,0,.36-4.51c-.28-.1-.65.13-.84,0l0-.12a8.41,8.41,0,0,0,1.79-.49Z"
     id="path60"
     style="fill:#44263a;fill-opacity:1" />
  <path
     class="cls-1"
     d="M99.08,77.83a4.27,4.27,0,0,1,0,3.2,2.85,2.85,0,0,1-1.18,1.54c-.8.12-1.83.4-2.37-.36a6.31,6.31,0,0,1,.37-3.43c.24-.46.55-1,1.12-1.18s1.6-.42,2.06.23m-.73.42A5.24,5.24,0,0,1,98,82a1,1,0,0,1-.85.5.8.8,0,0,1-.75-.46,5.84,5.84,0,0,1,.21-3.12c.17-.46.38-1,.9-1.13a.87.87,0,0,1,.87.48"
     id="path62"
     style="fill:#44263a;fill-opacity:1" />
  <path
     class="cls-1"
     d="M137.19,77.78a3.28,3.28,0,0,1,.34,2.44c-.23,1-.59,2.3-1.79,2.53-.65,0-1.6.17-2-.44a4.68,4.68,0,0,1,.05-2.57c.29-.78.44-1.79,1.34-2,.66-.17,1.5-.47,2,.08m-.67.49A4.75,4.75,0,0,1,136.2,82a1.11,1.11,0,0,1-.84.49.93.93,0,0,1-.8-.49,6.36,6.36,0,0,1,.21-3.13c.21-.45.38-1,.91-1.12a.8.8,0,0,1,.84.49"
     id="path64"
     style="fill:#44263a;fill-opacity:1" />
  <path
     class="cls-1"
     d="M110.59,77.58a18.42,18.42,0,0,0-.38,3.39l.06,0a31,31,0,0,1,2.5-3.41c.17,0,.47-.06.57,0,0,1.5-.19,3.08-.25,4.57.15.3.74-.23.67.21a14.34,14.34,0,0,0-1.64.55c-.15-.23.13-.55.13-.84a27.88,27.88,0,0,0,.31-3.52l-.08-.08a15.45,15.45,0,0,0-2.13,3.07,6.77,6.77,0,0,0-.42,1.22,1.23,1.23,0,0,1-.63,0l0-.12c.17-1.46.25-3,.34-4.44-.17-.28-.61.06-.85-.13l0-.11a7.45,7.45,0,0,0,1.76-.54Z"
     id="path66"
     style="fill:#44263a;fill-opacity:1" />
  <path
     class="cls-1"
     d="M125.74,77.68l-.27,4.44c.1.25.46-.1.69,0l0,.13a5.87,5.87,0,0,1-1.47.55c0-.47.12-.91.14-1.39a4.86,4.86,0,0,0,0-1.14l-.09,0a5.89,5.89,0,0,1-2.12,2.49.93.93,0,0,1-.61-.09,1.33,1.33,0,0,1-.43-1.09,6.26,6.26,0,0,1,2.49-4c.48-.31,1.09,0,1.62-.1Zm-.82.51a5.2,5.2,0,0,1-1.18,3.2c-.25.23-.48.56-.82.56s-.38-.21-.44-.42A4.41,4.41,0,0,1,124,78.17c.21-.3.85-.45.93,0"
     id="path68"
     style="fill:#44263a;fill-opacity:1" />
  <path
     class="cls-1"
     d="M130.87,77.78a21.54,21.54,0,0,1-.13,4c-.25,1.56-.5,3.14-1.77,4.15a2,2,0,0,1-1.87,0,1.8,1.8,0,0,1-.25-2c.17-.11.33,0,.52,0a4.9,4.9,0,0,1,.11,1.14c-.15.06-.4,0-.38.21a.71.71,0,0,0,.42.61,1.23,1.23,0,0,0,1.07-.15c1-.91,1-2.32,1.27-3.56a8.16,8.16,0,0,0,.08-1.41,6.93,6.93,0,0,1-2.23,2.34.65.65,0,0,1-.78-.53c-.31-1.58.67-2.84,1.45-4a2.38,2.38,0,0,1,2.49-.84m-.76.55a5,5,0,0,1-1.54,3.81.56.56,0,0,1-.59.19,2.63,2.63,0,0,1-.08-2.15c.32-.84.74-1.89,1.75-2.12.21,0,.42.08.46.27"
     id="path70"
     style="fill:#44263a;fill-opacity:1" />
  <path
     class="cls-1"
     d="M30.88,82.16s0,0-.08,0v-.13c.06,0,0,.09.08.11"
     id="path72"
     style="fill:#44263a;fill-opacity:1" />
  <polygon
     class="cls-1"
     points="140.85 82.56 140.85 82.58 140.82 82.6 140.8 82.6 140.85 82.56"
     id="polygon74"
     style="fill:#44263a;fill-opacity:1" />
  <path
     class="cls-1"
     d="M67.8,84.56a6.11,6.11,0,0,0,1.09.8c-.29.06-59.79,0-59.79,0a2.15,2.15,0,0,1,0-.8Z"
     id="path76"
     style="fill:#44263a;fill-opacity:1" />
  <path
     class="cls-1"
     d="M125.89,84.58a2.83,2.83,0,0,0,.13.78H85.74a9.84,9.84,0,0,1,1.22-.8Z"
     id="path78"
     style="fill:#44263a;fill-opacity:1" />
  <path
     class="cls-1"
     d="M145.05,84.58c0,.3,0,.57,0,.8l-14.65,0c.21-.24.67-.83.67-.83Z"
     id="path80"
     style="fill:#44263a;fill-opacity:1" />
  <polygon
     class="cls-3"
     points="91.08 77.91 91.1 77.86 91.1 77.93 91.08 77.91"
     id="polygon82" />
  <path
     class="cls-3"
     d="M81.83,80.61c1.28.46,2.56.92,3.87,1.28a.66.66,0,0,1-.4.3A14,14,0,0,1,80.08,80a7.72,7.72,0,0,0-1.75-.67c.44-.36.93-.09,1.39,0Z"
     id="path84" />
  <path
     class="cls-3"
     d="M70.12.38c-.1.17-.29,0-.52.09a8.4,8.4,0,0,1,2.29,1l.55.57,0,.07A6.12,6.12,0,0,0,69.49.82c.15.15.61.15.59.47-.29,0-.57-.21-.88-.21a4.62,4.62,0,0,0-2,.35c-.06,0-.11-.12-.06-.19A2.84,2.84,0,0,1,70.08.36Z"
     id="path86" />
  <path
     class="cls-3"
     d="M72.27,1.21l0,0c-.44,0-.74-.4-1.16-.49a2.55,2.55,0,0,1-.73-.27c.19-.15.5,0,.73,0,.42.21.91.3,1.18.72"
     id="path88" />
  <path
     class="cls-3"
     d="M68.3,1.56a.93.93,0,0,0-.34,1v.09a.6.6,0,0,1-.21-.46.7.7,0,0,1,.44-.61s.11,0,.11,0"
     id="path90" />
  <path
     class="cls-3"
     d="M68.85,1.66a.77.77,0,0,0-.47.42.52.52,0,0,0,.3.57.57.57,0,0,0,.59-.13.55.55,0,0,0,.17-.44c-.11,0-.3.14-.45.06s-.12-.25,0-.34a.4.4,0,0,1,.44-.06.69.69,0,0,1,.15.84.75.75,0,0,1-.67.34.7.7,0,0,1-.63-.46.73.73,0,0,1,.06-.57.61.61,0,0,1,.55-.23"
     id="path92" />
  <path
     class="cls-3"
     d="M71.1,1.93c.59-.08.94.42,1.28.8.06.17.23.34.11.46a3.55,3.55,0,0,1-.7-.54c.23.42.72.86.82,1.34l-.06,0c-.38-.28-.72-.68-1.09-.91.12.36.63.63.71,1.05-.08.11-.25,0-.34-.06s-.12-.11-.21-.17c0,.15.15.34.11.55l-.15,0a4.24,4.24,0,0,0-1.09-1l.52.92,0,.13-.12,0-1.1-1.1c0-.12.11-.21.21-.21l.19,0a.34.34,0,0,1,.06-.42c-.06-.25-.25-.48-.06-.73a.59.59,0,0,1,.32-.15c.25-.06.5.27.61,0"
     id="path94" />
  <path
     class="cls-3"
     d="M65.2,2.46c0,.14-.3.17-.17.35a2.32,2.32,0,0,1,1.43.57,15.57,15.57,0,0,0-2.15-.17,9.29,9.29,0,0,0-4.57,1.41,9.19,9.19,0,0,1,4.87-2.18c.19,0,.48-.19.59,0"
     id="path96" />
  <path
     class="cls-3"
     d="M66.07,3.56c-.61.29-1.33,0-2,0a11.62,11.62,0,0,0-3.7.86,7.94,7.94,0,0,1,5.15-1,1.38,1.38,0,0,1,.55.11"
     id="path98" />
  <path
     class="cls-3"
     d="M71.15,5.46a2.45,2.45,0,0,1,1.39,1.93,12.1,12.1,0,0,0-1.1-1.17c.07.29.38.56.38.9-.15.15-.21-.08-.34-.13a2.81,2.81,0,0,0-.63-.61.23.23,0,0,1-.06.19l-1-1c0,.13.15.32,0,.42l-.1,0A15.54,15.54,0,0,0,68,4.05V3.92a6.8,6.8,0,0,0,3.18,1.54"
     id="path100" />
  <path
     class="cls-3"
     d="M68.67,5.91V5.66c.36.1.46.56.7.88a2.54,2.54,0,0,1,.29.88l-.17,0-.61-.88L68.76,7h-.07a5.56,5.56,0,0,0-1-2l0-.06a4.46,4.46,0,0,1,1,1"
     id="path102" />
  <path
     class="cls-3"
     d="M72.92,6.08c-.17.09-.29-.1-.48-.1.06.19.27.42.21.63a13,13,0,0,1-1-1,.43.43,0,0,1-.25-.34c.25-.06.42.15.65.28.06-.09-.06-.3.08-.36a1.47,1.47,0,0,1,.8.86"
     id="path104" />
  <path
     class="cls-3"
     d="M70.5,7.86c-.09.08-.21,0-.28-.09-.19-.29-.52-.67-.33-1a1.44,1.44,0,0,1,.61,1.07"
     id="path106" />
  <path
     class="cls-3"
     d="M71.27,8.28c-.21,0-.4-.35-.42-.63l.09-.08a.66.66,0,0,1,.33.71"
     id="path108" />
  <path
     class="cls-3"
     d="M75.8,8.71c.59-.32,1,.44,1.45.71a6.49,6.49,0,0,1,1.24,2l-.06,0c-.4-.33-.78-.84-1.18-1.22.21.47.65.93.93,1.41s.52.93.73,1.39c-.73-.69-1.39-1.6-2.06-2.38l-.17,0a17.59,17.59,0,0,1,1.12,2.21h-.06a15,15,0,0,0-2.28-2.48,25.76,25.76,0,0,1,1.45,2.57l-.06,0c-.65-.53-1-1.24-1.58-1.79a21.84,21.84,0,0,1,1.29,2.61c.29.36.88.61.82,1.11a.26.26,0,0,1-.3-.06,5.87,5.87,0,0,1-.69-1.18c-1-.69-1.45-1.89-2.32-2.75-.1-.11-.14-.24-.27-.24a14.35,14.35,0,0,1,1,2c-.13.11-.21-.06-.34-.1a5.33,5.33,0,0,0-1.62-1.62c.06.42.38.84.36,1.34-.51,0-1-.4-1.31-.73a1.73,1.73,0,0,1-.46-1.5c.36-.23.72.09,1.07.21-.08-.29-.42-.48-.65-.69,0-.13.11-.15.19-.15.46.06.8.48,1.24.7a3,3,0,0,0-.92-.85c0-.12,0-.19.12-.23a5.58,5.58,0,0,1,1.33.61c-.21-.33-.65-.42-.93-.65,0-.23.25-.36.44-.46.7-.4,1.25.25,1.79.5-.19-.29-.61-.42-.84-.73,0-.09.17-.11.3-.11a2.59,2.59,0,0,1,1.28.59"
     id="path110" />
  <path
     class="cls-3"
     d="M78.12,9.78a2.08,2.08,0,0,1,.43.93l-.07,0A16.69,16.69,0,0,0,77.11,9.2c0-.07,0-.17.09-.19a1.83,1.83,0,0,1,.92.77"
     id="path112" />
  <path
     class="cls-3"
     d="M70.87,9.71a4.75,4.75,0,0,0-.33,2c0,.55.35,1,.42,1.51a4.83,4.83,0,0,0,1.32,3.5,6.28,6.28,0,0,0,2,2.23,2.64,2.64,0,0,0,2.09.5,2.17,2.17,0,0,0,1.83,0,3.18,3.18,0,0,0,2.35-.08A5,5,0,0,0,82,19.6c.11.13-.08.19-.14.21a14.29,14.29,0,0,1-1.62-.08,4.51,4.51,0,0,0,1.55.33c-.06.21-.33.17-.52.17-.87,0-1.75-.36-2.61-.44a4.8,4.8,0,0,0,1.22.36l0,.06a28.19,28.19,0,0,1-3.16-.42A27.23,27.23,0,0,0,81,20.7a1.87,1.87,0,0,1,.7.48c-.17,0-.32-.17-.51-.21a5.79,5.79,0,0,1-2.08-.4,17.31,17.31,0,0,1-4.4-1.26l-1-.66A1.85,1.85,0,0,1,72,18c0-.12.14-.12.25-.08a5.76,5.76,0,0,1,1.18.55c-.09-.32-.47-.26-.66-.47l.13-.14c-.13-.13-.21,0-.38-.07-.46-.19-1.07-.33-1.3-.9l0,0c.34.18.65.54,1.05.54-.19-.36-.69-.42-1-.76s-.44-.84-.94-1l0,0c.27.53.46,1.06.75,1.56A2.91,2.91,0,0,1,70,15.69c.33-.13,0-.55,0-.8s-.28-.36-.4-.57a18.92,18.92,0,0,1-.45-2c-.14.25,0,.61-.16.82-.24-.23-.17-.67-.26-1A1.93,1.93,0,0,1,68.81,11c.27.14.15.54.29.8l.11-.11a3.07,3.07,0,0,1,.19-1.45c.29.23.13.78.25,1.16l0,0a5.65,5.65,0,0,1,.36-1.47c.19,0,.13.23.19.38s0,.21,0,.31a3.41,3.41,0,0,1,.47-1.11c.12,0,.16.1.14.21"
     id="path114" />
  <path
     class="cls-3"
     d="M68.5,13.11a3,3,0,0,1-.11-2.57c.13.84-.06,1.77.11,2.57"
     id="path116" />
  <path
     class="cls-3"
     d="M72.35,12.74a2.32,2.32,0,0,1-.86-.72,1.48,1.48,0,0,1-.28-.8c.13-.17.21.06.32.13a3.61,3.61,0,0,1,.82,1.39"
     id="path118" />
  <path
     class="cls-3"
     d="M74.6,14l0,.15c-.61,0-.61-.68-.87-1v-.13a2.41,2.41,0,0,1,.89,1"
     id="path120" />
  <path
     class="cls-3"
     d="M76.25,14.54a.22.22,0,0,1-.11.21c-.63-.24-.77-.93-1-1.46a3.06,3.06,0,0,1,1.07,1.25"
     id="path122" />
  <path
     class="cls-3"
     d="M78.55,14.74c0,.1,0,.29-.15.29-.38-.19-.48-.61-.73-.93l-.32-.63a6.57,6.57,0,0,1,1.2,1.27"
     id="path124" />
  <path
     class="cls-3"
     d="M72.12,14.24a.73.73,0,0,0,.49-.45c.1.13,0,.28-.07.4a1,1,0,0,1-.84.15.86.86,0,0,1-.63-.63l0-.13c.25.28.55.68,1,.66"
     id="path126" />
  <path
     class="cls-3"
     d="M79.75,15.39c-.23,0-.42-.15-.55-.32-.25-.48-.63-1-.84-1.47.46.59,1.31,1,1.39,1.79"
     id="path128" />
  <path
     class="cls-3"
     d="M80.65,15.54c-.27,0-.46-.3-.59-.51l-.55-1.09c.47.46,1.14.9,1.14,1.6"
     id="path130" />
  <path
     class="cls-3"
     d="M69.7,16.09a2.54,2.54,0,0,1-.76-1.94c.06-.08.17,0,.21.06.46.53.25,1.31.55,1.88"
     id="path132" />
  <path
     class="cls-3"
     d="M73.32,14.84a.93.93,0,0,1-.16.9,1.06,1.06,0,0,1-1.06.06c-.17-.16-.42-.31-.42-.52a1,1,0,0,0,.89.36c.29,0,.48-.28.54-.55a1.15,1.15,0,0,0-.38-.68c.24-.16.51.26.59.43"
     id="path134" />
  <path
     class="cls-3"
     d="M81.75,15.64a.27.27,0,0,1-.34,0c-.4-.34-.46-.89-.67-1.33.38.38.91.8,1,1.31"
     id="path136" />
  <path
     class="cls-3"
     d="M74.72,14.84a.72.72,0,0,1-.75.21.82.82,0,0,1-.59-.45.12.12,0,0,1,0-.08,1.31,1.31,0,0,0,.86.36c.29,0,.38-.3.55-.47a.62.62,0,0,1-.09.43"
     id="path138" />
  <path
     class="cls-3"
     d="M82.48,15.61c-.49-.21-.61-.71-.8-1.13.27.33,1.09.63.8,1.13"
     id="path140" />
  <path
     class="cls-3"
     d="M77.07,15.29c0,.23-.16.38-.35.48a.47.47,0,0,1-.44-.1c.1-.17.46-.09.52-.38l0-.45c.21,0,.27.28.29.45"
     id="path142" />
  <path
     class="cls-3"
     d="M76.05,15.36a.78.78,0,0,1-.15.65.89.89,0,0,1-.78.19c-.06-.08-.21-.08-.25-.21.19,0,.55.17.65-.06a.71.71,0,0,0,.24-.67,4.2,4.2,0,0,0-.24-.38.64.64,0,0,1,.53.48"
     id="path144" />
  <path
     class="cls-3"
     d="M83.48,15.66a.36.36,0,0,1-.24,0,1,1,0,0,1-.4-.74,1.08,1.08,0,0,1,.64.78"
     id="path146" />
  <path
     class="cls-3"
     d="M74.72,16.09a1,1,0,0,1-.73.57,1.11,1.11,0,0,1-.93-.55V16a1.78,1.78,0,0,0,1,.26.61.61,0,0,0,.52-.55c0-.15-.1-.32,0-.4.32.12.23.52.21.78"
     id="path148" />
  <path
     class="cls-3"
     d="M85.58,16c0,.16-.11.42-.34.44a2,2,0,0,1-1-.09c.1-.12.31-.1.46-.1L84.59,16c.23,0,.4.16.63.23l-.13-.38.26.06v-.36a.44.44,0,0,1,.23.45"
     id="path150" />
  <path
     class="cls-3"
     d="M81.25,17a3.64,3.64,0,0,0,2.19,0,5.9,5.9,0,0,1-.67-.23,1.46,1.46,0,0,1,1,0c.25.15.06.36,0,.51a4.34,4.34,0,0,1-2.78,0c-1.37-.36-2.61-1-4-1.24a3.44,3.44,0,0,1,1.22.1Z"
     id="path152" />
  <path
     class="cls-3"
     d="M86.75,17a.91.91,0,0,1-.67.71A3.24,3.24,0,0,1,84,17.39a6.52,6.52,0,0,1,1.16,0c.15-.24.4.14.61,0a.44.44,0,0,1-.08-.26c.15,0,.31.15.46.13L86,17c.15-.13.28.1.43.12,0-.19-.19-.36-.26-.55l.38.19-.31-.65c.31.25.63.53.52.91"
     id="path154" />
  <path
     class="cls-3"
     d="M82.28,17.91l.17,0-.22-.19a7.62,7.62,0,0,1,1.37-.1c.09.21-.21.4-.38.54a5.81,5.81,0,0,1-3-.21c-1.43-.44-2.78-1-4.25-1.32v0a3.75,3.75,0,0,1,1.64.25,16.75,16.75,0,0,0,4.72,1.07"
     id="path156" />
  <path
     class="cls-3"
     d="M75.8,16.86c1.72.76,3.37,1.9,5.43,1.87,0-.12-.19-.08-.25-.18a11.31,11.31,0,0,1,1.36-.07c.09,0,.17.11.17.19-.69.82-2,.42-2.84.15a24.92,24.92,0,0,1-4.33-2Z"
     id="path158" />
  <path
     class="cls-3"
     d="M74.87,18.21a6.17,6.17,0,0,0,2.19,1l-.25-.25a2,2,0,0,1,1,.31.51.51,0,0,1,.19.17c-.19.15-.51.07-.74.07a7,7,0,0,1-3.11-1.56,3.91,3.91,0,0,1-.91-1.05c.09-.11.21,0,.34.08Z"
     id="path160" />
  <path
     class="cls-3"
     d="M76.5,18.21a8.37,8.37,0,0,0,2.57.91l-.28-.28a2.76,2.76,0,0,1,1.33.49v.08c-1.68.34-3.07-.67-4.38-1.45l-1.11-.86V17a9.3,9.3,0,0,1,1.87,1.18"
     id="path162" />
  <path
     class="cls-3"
     d="M88,17.89a1.22,1.22,0,0,1,0,.84,4.81,4.81,0,0,1-2.72.21,4.24,4.24,0,0,1-1.79-.61l0-.06c.7.1,1.41.33,2.15.38,0-.07-.08-.17,0-.24s.49.32.7.26l-.21-.28c.23,0,.48.19.73.28a.11.11,0,0,0,.09-.07l-.42-.46,0,0c.25.13.56.34.86.46-.11-.25-.4-.46-.53-.65l0,0c.25.08.48.31.73.31-.08-.14-.27-.29-.29-.46s.21.13.33,0c-.1-.27-.4-.46-.46-.69a1.6,1.6,0,0,1,.76.8"
     id="path164" />
  <path
     class="cls-3"
     d="M71.42,17.61c.3.42.55.87.82,1.33a2.23,2.23,0,0,1-1-1.24l.09-.17Z"
     id="path166" />
  <path
     class="cls-3"
     d="M89.63,19.86c0,.36-.46.51-.8.57a11.48,11.48,0,0,1-6-1.35v0c.67.09,1.26.49,2,.66a6.77,6.77,0,0,0,1.64.35l-.26-.23a3.2,3.2,0,0,1,.93.38l-.21-.34a5.3,5.3,0,0,1,.93.4c0-.19-.28-.33-.45-.46v0c.36.1.72.34,1.1.46-.13-.34-.53-.42-.74-.69a4.07,4.07,0,0,1,1.24.61c-.1-.32-.48-.59-.75-.82.38.14.75.42,1.15.54-.06-.16-.31-.31-.4-.52.17,0,.3.14.47.19-.07-.44-.47-.76-.72-1.14a1.8,1.8,0,0,1,.95,1.45"
     id="path168" />
  <path
     class="cls-3"
     d="M73.7,19.89a2,2,0,0,1-1.08-1.08c0-.12.21-.06.28,0,.33.34.5.82.8,1.12"
     id="path170" />
  <path
     class="cls-3"
     d="M74.6,19.64a1.52,1.52,0,0,1-1.39-.59c0-.13.21-.13.34-.07Z"
     id="path172" />
  <path
     class="cls-3"
     d="M85,20.49c1,.25,2,.52,3.11.71.06,0,0-.08,0-.12.36,0,.63.31,1,.4,0-.21-.34-.36-.38-.55l1.14.55c-.07-.28-.38-.49-.59-.7.42.07.73.42,1.13.63-.08-.29-.4-.54-.61-.82a6.81,6.81,0,0,1,1.06.66,3.71,3.71,0,0,0-.72-.91c.27.06.53.36.8.46,0-.29-.42-.48-.53-.75a1.54,1.54,0,0,1,.85.92c.08.21-.07.38-.21.51-.76.48-1.62.19-2.49.12a32.51,32.51,0,0,1-6-1.76c-.06-.11-.18-.11-.25-.19l.07-.07a14.82,14.82,0,0,1,2.65.91"
     id="path174" />
  <path
     class="cls-3"
     d="M75.2,20.61a1.35,1.35,0,0,1-1.2-.84c.15-.08.34.06.46.15Z"
     id="path176" />
  <path
     class="cls-3"
     d="M76.4,20.34l.08.08A1.68,1.68,0,0,1,74.93,20c.14-.33.54,0,.8.05Z"
     id="path178" />
  <path
     class="cls-3"
     d="M88,22a15.28,15.28,0,0,1,2.65.45l-.13-.28a4.05,4.05,0,0,0,.85.21c-.13-.06-.21-.27-.34-.17.06-.1-.08-.16-.06-.21.31.15.65.26,1,.38a1.89,1.89,0,0,0-.56-.48,1.93,1.93,0,0,1,1,.36,2.56,2.56,0,0,0-.61-.68c.26.05.53.34.8.42a1.66,1.66,0,0,0-.52-.8c.19-.1.33.21.52.32.24.27.45.63.24,1-.72.84-1.88.23-2.85.23a35.72,35.72,0,0,1-7.66-2.32l.07-.06C84.21,20.85,86,21.54,88,22"
     id="path180" />
  <path
     class="cls-3"
     d="M77.9,20.76c-.34.21-.61,0-1,0a.12.12,0,0,1,0-.17,1.15,1.15,0,0,1,1,.21"
     id="path182" />
  <path
     class="cls-3"
     d="M77.17,21.24a1.52,1.52,0,0,1-1.28-.49c.11-.16.36.05.59.05a2.59,2.59,0,0,1,.69.44"
     id="path184" />
  <path
     class="cls-3"
     d="M79.4,21.09c-.36,0-1,.15-1.2-.17.19-.19.57-.06.8,0Z"
     id="path186" />
  <path
     class="cls-3"
     d="M91.88,23.26l0-.1a1.67,1.67,0,0,1,.57.19c0-.11-.25-.17-.13-.3l.72.26-.23-.3a2.79,2.79,0,0,1,.78.23c-.09-.21-.4-.4-.53-.63a4.43,4.43,0,0,1,.67.23,2.52,2.52,0,0,0-.23-.57c.27.19.59.43.59.78a1,1,0,0,1-.53.57,11.53,11.53,0,0,1-3.93-.36,44.69,44.69,0,0,1-7.35-2.35v-.09c3.14,1,6.11,2.28,9.58,2.44"
     id="path188" />
  <path
     class="cls-3"
     d="M78.6,21.56a1,1,0,0,1-.95-.14c-.1-.07-.06-.15,0-.17a2.33,2.33,0,0,1,.93.31"
     id="path190" />
  <path
     class="cls-3"
     d="M93.45,24c0-.16.22,0,.3,0a1.72,1.72,0,0,1,.29.11c0-.11-.12-.17-.19-.25a4.49,4.49,0,0,1,.8.21c0-.13-.27-.26-.4-.42.26-.05.49.23.74.23a4.1,4.1,0,0,0-.67-.91,2.44,2.44,0,0,1,1.07,1.16.29.29,0,0,1-.27.32c-3.12.06-5.94-.91-8.82-1.54A34.78,34.78,0,0,1,82,21.45l-.06-.13A44.48,44.48,0,0,0,93.45,24"
     id="path192" />
  <path
     class="cls-3"
     d="M80.18,21.69a1.53,1.53,0,0,1-1-.17l.08-.08c.32,0,.76,0,.93.25"
     id="path194" />
  <path
     class="cls-3"
     d="M76.87,24.66c-.33-.1-.21-.56-.27-.8l0,0c.23.19.21.55.23.84"
     id="path196" />
  <path
     class="cls-3"
     d="M68.9,24.36c.21.17.54.11.75.21-.4-.06-.77.22-1.15,0-.42,0-.87.08-1.25.08l.72-.36a5.69,5.69,0,0,0,.93,0"
     id="path198" />
  <path
     class="cls-3"
     d="M69.85,24.84c.29,0,.63.1.92,0,.61.06,1.2,0,1.79.06a12.65,12.65,0,0,1,1.5,0,3.38,3.38,0,0,0,1.45,0c.29.15.59,0,.84.19-.15.27-.59.21-.93.17a49.76,49.76,0,0,0-5-.06c-.4.33-1,0-1.28-.09-.55.13-1-.21-1.49.15-.43-.15-.68.21-1.06.21-.12.19-.33.38-.52.34s-.15,0-.19-.09c.33-.69,1.24-.63,1.87-.84.4.15.78-.23,1.14,0a2.51,2.51,0,0,1,1,0"
     id="path200" />
  <path
     class="cls-3"
     d="M80.45,26a.37.37,0,0,1-.08.22c-.21-.32-.13-.8-.21-1.18.31.21.29.65.29,1"
     id="path202" />
  <path
     class="cls-3"
     d="M93.61,29.07a6,6,0,0,0-1.06-1.27,11.27,11.27,0,0,1-1.64-2.12,2.25,2.25,0,0,1,1,.71,51.4,51.4,0,0,1,3.89,4.27c.09.19-.12.3-.25.28-.4-.06-.65-.46-.9-.74.1.28.46.53.44.86-.59,0-1-.54-1.43-1l-4.09-4.84v-.06c1.37,1.31,2.61,2.72,4.07,3.92"
     id="path204" />
  <path
     class="cls-3"
     d="M77.1,25.61c0,.11-.11.17-.21.24a.37.37,0,0,1-.34-.26v-.06c.13,0,.32.06.32-.13.08.05.21.13.23.21"
     id="path206" />
  <path
     class="cls-3"
     d="M71.15,25.56c-.36.26,0,.85-.42,1.12a1,1,0,0,1,0,.91c-.26.18,0,.69-.38.75-.21-.29,0-.63.06-.92a1.49,1.49,0,0,1,.15-.87,1.27,1.27,0,0,1,.17-.84c.12-.1.27-.23.42-.15"
     id="path208" />
  <path
     class="cls-2"
     d="M68.3,26.21a1.06,1.06,0,0,1-.21.93.77.77,0,0,1-.91,0,1,1,0,0,1-.27-1,.87.87,0,0,1,.63-.4.9.9,0,0,1,.76.48"
     id="path210"
     style="fill:#ffffff;fill-opacity:1" />
  <path
     class="cls-3"
     d="M89.2,25.86c1.39,1.41,2.82,2.89,4.07,4.36,0,.11.12.21.06.34-.36,0-.63-.34-.89-.61-1.13-1.37-2.35-2.78-3.45-4.17Z"
     id="path212" />
  <path
     class="cls-3"
     d="M65.67,25.89a.28.28,0,0,1-.08.08s-.07,0-.07-.06.15-.1.15,0"
     id="path214" />
  <path
     class="cls-3"
     d="M66.32,26c0,.09-.08.05-.15.11a.14.14,0,0,1-.12-.06c0-.09.25-.26.27-.05"
     id="path216" />
  <path
     class="cls-1"
     d="M67.35,26a.78.78,0,0,0,.33.87.18.18,0,0,0,.15,0c0,.21-.27,0-.4,0a.72.72,0,0,1-.36-.59c0-.1.13-.29.28-.32"
     id="path218"
     style="fill:#44263a;fill-opacity:1" />
  <path
     class="cls-2"
     d="M75,26.39A.75.75,0,0,1,75,27c-.06.27-.38.21-.57.34-.25-.15-.59-.36-.57-.68s.07-.48.36-.54.55.12.76.29"
     id="path220"
     style="fill:#ffffff;fill-opacity:1" />
  <path
     class="cls-2"
     d="M73.52,26.44a.76.76,0,0,1,.15.86c-.15.26-.48.11-.63.07s-.53-.4-.44-.7.23-.27.38-.4a.81.81,0,0,1,.54.17"
     id="path222"
     style="fill:#ffffff;fill-opacity:1" />
  <path
     class="cls-1"
     d="M74.55,26.31c-.23.09-.17.38-.09.57l.13.09c0,.12-.21.12-.34.1a.5.5,0,0,1-.16-.59c.06-.08.1-.19.23-.21s.19,0,.23,0"
     id="path224"
     style="fill:#44263a;fill-opacity:1" />
  <path
     class="cls-1"
     d="M73.17,26.49c-.08.11-.23.32,0,.48l.15.15c-.11.13-.28,0-.4,0a.36.36,0,0,1-.06-.51c.06-.08.27-.25.35-.08"
     id="path226"
     style="fill:#44263a;fill-opacity:1" />
  <path
     class="cls-2"
     d="M69.6,26.94a.77.77,0,0,1-.17.59.63.63,0,0,1-.65.13.68.68,0,0,1-.32-.61.67.67,0,0,1,.46-.49.65.65,0,0,1,.68.38"
     id="path228"
     style="fill:#ffffff;fill-opacity:1" />
  <path
     class="cls-1"
     d="M69.17,27.47a.36.36,0,0,1-.29,0c-.11-.15-.26-.3-.17-.51l.12-.15c-.06.3.24.51.34.66"
     id="path230"
     style="fill:#44263a;fill-opacity:1" />
  <path
     class="cls-2"
     d="M67.17,27.47a.78.78,0,0,1-1.11.84.9.9,0,0,1-.3-.76.68.68,0,0,1,.36-.53c.38-.12,1,0,1,.45"
     id="path232"
     style="fill:#ffffff;fill-opacity:1" />
  <path
     class="cls-2"
     d="M75.8,27.52a.5.5,0,0,1-.29.52c-.07,0-.13,0-.13,0l.15-.17c-.13,0-.21-.17-.26-.29s0-.19.07-.26c-.15,0-.23.19-.34.28s0-.19,0-.28a.69.69,0,0,1,.34-.27c.27,0,.46.25.48.51"
     id="path234"
     style="fill:#ffffff;fill-opacity:1" />
  <path
     class="cls-3"
     d="M80.8,27.12a.81.81,0,0,1-.1.5c0,.25.1.55-.11.7a1.49,1.49,0,0,1-.08,1,1.5,1.5,0,0,1-.11.74c.11.34-.08.59-.15.88.15.55-.21,1-.31,1.44-.26,0-.13.27-.21.39-.25.22-.57.57-.93.49-.38.1-.82-.11-1.16.1a2.72,2.72,0,0,0-1.76.66.82.82,0,0,1-.66-.11c.21-.57.93-.42,1.31-.82.57,0,1.11-.27,1.62-.27.34.23.61-.15.95-.05.12-.25.5-.27.58-.52s.32-.46.13-.7c.07-.25,0-.48.23-.67a1.18,1.18,0,0,1,.07-.88,1.52,1.52,0,0,1,.1-.82,1.42,1.42,0,0,1,.13-.85c-.13-.21,0-.46,0-.67a1,1,0,0,1,0-.53c.12-.14.42-.12.46,0"
     id="path236" />
  <path
     class="cls-3"
     d="M81.38,27.59c0,.08,0,.21-.11.21s-.13-.06-.19-.17,0-.12-.06-.19.44-.08.36.15"
     id="path238" />
  <path
     class="cls-2"
     d="M74.92,27.89a1.08,1.08,0,0,1-.21.91c-.12.21-.33.16-.54.21s-.32-.34-.43-.53a1.21,1.21,0,0,1,.32-.95c.32-.33.76,0,.86.36"
     id="path240"
     style="fill:#ffffff;fill-opacity:1" />
  <path
     class="cls-1"
     d="M66.37,28.07c.11-.09.21,0,.3,0a.49.49,0,0,1-.47.06.43.43,0,0,1-.19-.55c.13.15.19.36.36.45"
     id="path242"
     style="fill:#44263a;fill-opacity:1" />
  <path
     class="cls-2"
     d="M68.6,28a1.48,1.48,0,0,1,0,.93c-.32.21-.68.46-1.06.21a.93.93,0,0,1-.38-.82.74.74,0,0,1,.53-.64.75.75,0,0,1,.93.32"
     id="path244"
     style="fill:#ffffff;fill-opacity:1" />
  <path
     class="cls-2"
     d="M73.3,28c.15.17.08.42.15.59a.7.7,0,0,1-.7.53,1.17,1.17,0,0,1-.57-.55c0-.25-.1-.59.13-.78a.8.8,0,0,1,1,.21"
     id="path246"
     style="fill:#ffffff;fill-opacity:1" />
  <path
     class="cls-2"
     d="M70.05,28.27a.75.75,0,0,1-.17.58.63.63,0,0,1-.63.11.6.6,0,0,1-.25-.78c.06-.17.29-.29.46-.36s.59.13.59.45"
     id="path248"
     style="fill:#ffffff;fill-opacity:1" />
  <path
     class="cls-1"
     d="M74.22,28.44a.39.39,0,0,0,.4,0c0,.13-.1.38-.31.34s-.36-.15-.38-.34,0-.4.15-.52c-.07.19.06.33.14.48"
     id="path250"
     style="fill:#44263a;fill-opacity:1" />
  <path
     class="cls-1"
     d="M67.77,28.54c.11.17.4.11.53,0a.45.45,0,0,1-.38.4c-.13.09-.25,0-.38-.06a.71.71,0,0,1-.11-.7l.24-.21c.06.11-.11.43.1.53"
     id="path252"
     style="fill:#44263a;fill-opacity:1" />
  <path
     class="cls-1"
     d="M72.65,28a.87.87,0,0,0,.4.8.31.31,0,0,1-.38,0,.7.7,0,0,1-.3-.55c0-.19.11-.32.28-.29"
     id="path254"
     style="fill:#44263a;fill-opacity:1" />
  <path
     class="cls-1"
     d="M69.42,28.79a.74.74,0,0,0,.21,0c-.1.11-.29,0-.42,0s-.13-.42,0-.53l.08-.1a2.63,2.63,0,0,0,.15.63"
     id="path256"
     style="fill:#44263a;fill-opacity:1" />
  <path
     class="cls-2"
     d="M75.85,28.62a1.16,1.16,0,0,1-.23.86.51.51,0,0,1-.59.12.6.6,0,0,1-.19-.61c.13-.23.21-.52.48-.61s.49,0,.53.24"
     id="path258"
     style="fill:#ffffff;fill-opacity:1" />
  <path
     class="cls-2"
     d="M62,29a.7.7,0,0,1-.36.8.71.71,0,0,1-.59-.05.92.92,0,0,1-.25-.67c0-.17.13-.29.21-.44A.65.65,0,0,1,62,29"
     id="path260"
     style="fill:#ffffff;fill-opacity:1" />
  <path
     class="cls-1"
     d="M75.47,28.62c-.1,0-.23.23-.29.35s.12.34.27.45c-.08.1-.27.06-.38,0a.73.73,0,0,1,0-.7c.11-.06.13-.15.3-.15,0,0,.08,0,.1.05"
     id="path262"
     style="fill:#44263a;fill-opacity:1" />
  <path
     class="cls-2"
     d="M67.17,29.09a.69.69,0,0,1-.36.86.87.87,0,0,1-.75-.14.77.77,0,0,1-.24-.61.85.85,0,0,1,.61-.55.76.76,0,0,1,.74.44"
     id="path264"
     style="fill:#ffffff;fill-opacity:1" />
  <path
     class="cls-1"
     d="M61.07,28.79a.53.53,0,0,0,.34.63c.08,0,.21,0,.25.09s-.19.19-.32.19a.5.5,0,0,1-.42-.4.45.45,0,0,1,.15-.51"
     id="path266"
     style="fill:#44263a;fill-opacity:1" />
  <path
     class="cls-1"
     d="M66.22,28.92a.83.83,0,0,0,0,.58.45.45,0,0,0,.59.13s.06,0,.11,0a.59.59,0,0,1-.7.09.35.35,0,0,1-.27-.3c0-.21,0-.48.23-.5"
     id="path268"
     style="fill:#44263a;fill-opacity:1" />
  <path
     class="cls-2"
     d="M63.57,29.27a.77.77,0,0,1,0,.65,1.05,1.05,0,0,1-1.1.12.6.6,0,0,1-.12-.73,1.07,1.07,0,0,1,.67-.4.62.62,0,0,1,.59.36"
     id="path270"
     style="fill:#ffffff;fill-opacity:1" />
  <path
     class="cls-1"
     d="M63,30c0,.11-.23,0-.36,0a.41.41,0,0,1-.19-.5l.15-.19c.19.19,0,.59.4.69"
     id="path272"
     style="fill:#44263a;fill-opacity:1" />
  <path
     class="cls-2"
     d="M74.07,29.82c.11.52-.46.69-.61,1.11.28.3.66.63.53,1.16a29.44,29.44,0,0,0-5.18,1,34,34,0,0,0-4.25,1.49c-.34,0-.38-.4-.53-.59s.22-.44-.1-.54-.55-.45-.74-.72-.38-.46-.27-.8c.29-.13.61.19.95.13a4.3,4.3,0,0,0,3.57-1.5l.4-.71c.34-.05.74-.3,1.1,0a3.93,3.93,0,0,0,4,0,2.52,2.52,0,0,0,.66-.46c.19.12.54.12.52.42"
     id="path274"
     style="fill:#ffffff;fill-opacity:1" />
  <path
     class="cls-2"
     d="M61.09,30.07a.82.82,0,0,1,0,.44c-.1.27-.35.21-.59.27s-.39-.21-.39-.42a.59.59,0,0,1,.37-.61.53.53,0,0,1,.61.32"
     id="path276"
     style="fill:#ffffff;fill-opacity:1" />
  <path
     class="cls-2"
     d="M62.59,30.52a1.08,1.08,0,0,1-.16.8.66.66,0,0,1-.7.12.78.78,0,0,1-.46-.48.91.91,0,0,1,.06-.67.51.51,0,0,1,.4-.3.87.87,0,0,1,.86.53"
     id="path278"
     style="fill:#ffffff;fill-opacity:1" />
  <path
     class="cls-1"
     d="M60.82,30.47c0,.08-.23.23-.36.1s-.25-.25-.17-.4c0,.25.36.21.53.3"
     id="path280"
     style="fill:#44263a;fill-opacity:1" />
  <path
     class="cls-2"
     d="M74.62,30.67a.52.52,0,0,1-.33.52.92.92,0,0,1-.47-.38c.13-.16.34-.56.64-.5Z"
     id="path282"
     style="fill:#ffffff;fill-opacity:1" />
  <path
     class="cls-2"
     d="M64.17,30.69c0,.17.1.38,0,.53a.7.7,0,0,1-.88.12.6.6,0,0,1-.32-.63.59.59,0,0,1,.51-.38c.29,0,.61.05.69.36"
     id="path284"
     style="fill:#ffffff;fill-opacity:1" />
  <path
     class="cls-1"
     d="M62,30.62l0,0c.19,0,.23.25.19.42s-.13.33-.31.27-.32-.21-.4-.36a.94.94,0,0,1,0-.44c.12.15.31.29.46.15"
     id="path286"
     style="fill:#44263a;fill-opacity:1" />
  <path
     class="cls-1"
     d="M72.72,30.79a.56.56,0,0,1,0,.57,1.38,1.38,0,0,1-1.31.48.71.71,0,0,1-.5-.42c-.07-.31.23-.54.42-.67a1.25,1.25,0,0,1,1.34,0"
     id="path288"
     style="fill:#44263a;fill-opacity:1" />
  <path
     class="cls-1"
     d="M63.75,31.19l.1,0c0,.09-.25.13-.38.07s-.27-.19-.27-.34l.08-.27c0,.21.19.5.47.52"
     id="path290"
     style="fill:#44263a;fill-opacity:1" />
  <path
     class="cls-2"
     d="M72.65,30.84a.61.61,0,0,1,0,.53,1.1,1.1,0,0,1-1.22.19A.47.47,0,0,1,71.3,31c.15-.26.46-.21.72-.32a1.28,1.28,0,0,1,.63.21"
     id="path292"
     style="fill:#ffffff;fill-opacity:1" />
  <path
     class="cls-1"
     d="M69.85,31.44l-1,1.14a9.81,9.81,0,0,1-1.52-.28,4.35,4.35,0,0,1,1-1.43l1.5.36Z"
     id="path294"
     style="fill:#44263a;fill-opacity:1" />
  <path
     class="cls-2"
     d="M69.67,31.37a4.64,4.64,0,0,1-.74,1l-1.3-.28c0-.19.17-.33.21-.48l.51-.59Z"
     id="path296"
     style="fill:#ffffff;fill-opacity:1" />
  <path
     class="cls-1"
     d="M72,31.44c-.11,0-.34.11-.42,0s-.13-.17-.07-.25l.09-.11a.52.52,0,0,0,.4.36"
     id="path298"
     style="fill:#44263a;fill-opacity:1" />
  <path
     class="cls-2"
     d="M61.39,31.59a.35.35,0,0,1-.14.42c-.09.07-.19,0-.21-.1H61a.47.47,0,0,0,.38.46c.19.08.38-.13.4-.29s0-.17,0-.19,0,.33,0,.46a.49.49,0,0,1-.52.21c-.24,0-.32-.25-.45-.4s-.12-.55.07-.72c.19-.33.4.07.54.15"
     id="path300"
     style="fill:#ffffff;fill-opacity:1" />
  <path
     class="cls-1"
     d="M68.67,32l.34-.15c-.06.15-.34.4-.57.23l-.5-.08c0-.09.06-.21.14-.26a.72.72,0,0,0,.59.26"
     id="path302"
     style="fill:#44263a;fill-opacity:1" />
  <path
     class="cls-1"
     d="M66.6,32.49a.89.89,0,0,1-.55.93,1.36,1.36,0,0,1-.91.06.54.54,0,0,1-.31-.42c0-.42.31-.65.65-.8s.91-.15,1.12.23"
     id="path304"
     style="fill:#44263a;fill-opacity:1" />
  <path
     class="cls-2"
     d="M66.45,32.44a.48.48,0,0,1,0,.49.86.86,0,0,1-.61.42.69.69,0,0,1-.62-.21.48.48,0,0,1-.06-.49c.11-.23.4-.31.65-.38a.7.7,0,0,1,.64.17"
     id="path306"
     style="fill:#ffffff;fill-opacity:1" />
  <path
     class="cls-3"
     d="M77.75,32.54c.17,0,.42-.08.61,0-.15.21-.51,0-.69.13l-1,.11c-.51.37-1.18.33-1.65.82-.1,0-.12,0-.16-.11s.23-.13.29-.19c.23-.4.76-.21,1-.61.4.09.57-.4,1-.19.17-.12.48-.19.63,0"
     id="path308" />
  <path
     class="cls-2"
     d="M74.32,32.64a2.46,2.46,0,0,1,.15.84,34.71,34.71,0,0,0-5.41,1c-1.41.38-2.73,1-4.06,1.39v-.08c.53-.34,1.07-.66,1.6-1-.13-.21-.4,0-.59,0l-1.26.38c-.11,0-.13-.11-.17-.13l.06-.08a21.61,21.61,0,0,1,8.82-2.42Z"
     id="path310"
     style="fill:#ffffff;fill-opacity:1" />
  <path
     class="cls-1"
     d="M65.82,33H66c-.17.11-.38.23-.57.11s-.23-.21-.12-.36l.08-.11a.36.36,0,0,0,.4.36"
     id="path312"
     style="fill:#44263a;fill-opacity:1" />
  <path
     class="cls-1"
     d="M74.3,33.27l0,0-1.45-.13v-.06a6.86,6.86,0,0,1,1.38-.23Z"
     id="path314"
     style="fill:#44263a;fill-opacity:1" />
  <path
     class="cls-3"
     d="M81.48,33.29c.33,0,.73-.1,1,.15a.63.63,0,0,1,.52.23c-.17.38-.44-.06-.65-.06a5.06,5.06,0,0,1-1.22-.23c-.23-.17-.76-.07-.72-.38.34.19.8,0,1.08.29"
     id="path316" />
  <path
     class="cls-2"
     d="M63.85,33.57a.49.49,0,0,1-.28.42.47.47,0,0,0-.36-.44c0-.3.47,0,.64,0"
     id="path318"
     style="fill:#ffffff;fill-opacity:1" />
  <path
     class="cls-3"
     d="M80.18,35.29a15,15,0,0,0-1.67-1.6c0-.25.32-.19.44-.08a3.5,3.5,0,0,1,1.23,1.68"
     id="path320" />
  <path
     class="cls-3"
     d="M81.1,34.57a6.71,6.71,0,0,1,.67,1.24A21.69,21.69,0,0,0,80,34a.23.23,0,0,1,0-.34c.48.07.78.61,1.07.91"
     id="path322" />
  <path
     class="cls-3"
     d="M83.78,34.24a3.22,3.22,0,0,0-.64-.42c0-.15.24-.1.3,0s.32.27.34.44"
     id="path324" />
  <path
     class="cls-3"
     d="M75.15,34.19a1.15,1.15,0,0,0-.61.7c-.19-.21,0-.49.06-.68a1.25,1.25,0,0,1,.44-.27c.09,0,.19.17.11.25"
     id="path326" />
  <path
     class="cls-3"
     d="M82.88,35.69c-.34-.52-.89-.92-1.33-1.47-.06-.11,0-.15.11-.19a2.43,2.43,0,0,1,1.22,1.66"
     id="path328" />
  <path
     class="cls-3"
     d="M74.27,34.92a3.38,3.38,0,0,1-1-.76c0-.15.25,0,.36,0a2,2,0,0,1,.69.78"
     id="path330" />
  <path
     class="cls-3"
     d="M73.55,35.34A10.25,10.25,0,0,1,72,34.29c0-.08.13-.06.19-.08.67,0,1,.71,1.41,1.13"
     id="path332" />
  <path
     class="cls-3"
     d="M72.52,35.82a9.21,9.21,0,0,0-1.83-1,.1.1,0,0,1,0-.17c.15-.19.42,0,.61,0a3.31,3.31,0,0,1,1.26,1.18"
     id="path334" />
  <polygon
     class="cls-1"
     points="76.67 34.57 76.67 34.57 76.72 34.61 76.72 34.65 76.67 34.57"
     id="polygon336" />
  <path
     class="cls-1"
     d="M84.33,35.27c-.15,0-.11-.23-.17-.32a.46.46,0,0,1,.17.32"
     id="path338" />
  <path
     class="cls-1"
     d="M85.05,35.44c-.1,0-.1-.21-.14-.31a.35.35,0,0,1,.14.31"
     id="path340" />
  <path
     class="cls-1"
     d="M70,35.47l0,0-.34-.21a.53.53,0,0,1,.36.17"
     id="path342" />
  <path
     class="cls-1"
     d="M85.93,35.69a.4.4,0,0,1-.34-.35Z"
     id="path344" />
  <path
     class="cls-1"
     d="M84.68,36l-.05,0a.56.56,0,0,1-.25-.57.56.56,0,0,1,.3.53"
     id="path346" />
  <polygon
     class="cls-1"
     points="69.02 35.94 68.69 35.73 68.98 35.9 69.02 35.94"
     id="polygon348" />
  <path
     class="cls-3"
     d="M78.43,34.37a11.83,11.83,0,0,1,1.66,2,3.38,3.38,0,0,1-3.37.12,13.46,13.46,0,0,1-1.66-1.89c.25-.21.59.08.86.19,0-.13-.08-.38,0-.51.3,0,.47.23.74.26,0-.17-.19-.34-.13-.55a2.17,2.17,0,0,1,.93.27c0-.19-.25-.38-.34-.59a.33.33,0,0,1,.38-.06Z"
     id="path350" />
  <path
     class="cls-3"
     d="M83.9,34.67l.17-.23c1.54.4,3.24,1.74,3.43,3.38,0,.11-.11.17-.19.15l-.1,0-.72-1.33a.26.26,0,0,0-.23-.08l0,0c0,.48.37.91.27,1.37-.13.12-.17-.09-.21-.15-.27-.42-.46-.88-.72-1.35,0,0-.06-.08-.12-.06-.09.59.25,1.1.17,1.64a1.13,1.13,0,0,1-.91-.33c-.21-.21-.17-.57-.5-.66a5.52,5.52,0,0,0-1.44-2.75c0-.07,0-.15.07-.17a1.51,1.51,0,0,1,1.07.59"
     id="path352" />
  <path
     class="cls-1"
     d="M79,35.69l.55.76c-.38.36-1,.23-1.5.17l-.84-.27a6.93,6.93,0,0,1-1-1.25c.53.24,1,.91,1.56,1.12l0-.08-.82-1.35c.76.38,1.16,1.05,1.83,1.47a6.76,6.76,0,0,0-1-1.7c.11-.11.19,0,.25.06Z"
     id="path354"
     style="fill:#44263a;fill-opacity:1" />
  <path
     class="cls-3"
     d="M72.25,36.57a4.83,4.83,0,0,1,.59.71,1.17,1.17,0,0,1-1.12.74,2.08,2.08,0,0,0,.82-.59,5.14,5.14,0,0,0-2.29-1.79c.46.61,1.32,1,1.32,1.9-.77-.47-1.55-1-2.35-1.46.5.53,1.2,1,1.39,1.75V38a16.26,16.26,0,0,0-2.3-1.31c.19.21.44.42.7.68l.36.63a1.82,1.82,0,0,1-.66,0,8.08,8.08,0,0,0-2.25-1.31c-.06-.08-.17-.19-.1-.31.29-.21.65,0,1,0,0,0,.14-.13,0-.15a2.28,2.28,0,0,1-.42-.38c.38-.21.86,0,1.24-.17L68,35.26c.38-.14.88.05,1.24-.16,0-.07,0-.22.13-.19,1.17,0,1.95,1,2.88,1.66"
     id="path356" />
  <path
     class="cls-1"
     d="M85.48,36.22c-.11,0-.28,0-.28-.17l-.08-.4a.78.78,0,0,1,.36.57"
     id="path358"
     style="fill:#44263a;fill-opacity:1" />
  <path
     class="cls-1"
     d="M86.33,36.24c0,.15-.17,0-.23,0a.33.33,0,0,1-.17-.33c.23,0,.31.17.4.31"
     id="path360"
     style="fill:#44263a;fill-opacity:1" />
  <path
     class="cls-3"
     d="M88.15,37.24c-.42-.25-.54-.8-.94-1.2.06-.14.25,0,.33,0a1.89,1.89,0,0,1,.61,1.2"
     id="path362" />
  <path
     class="cls-3"
     d="M81.33,36.79a1.36,1.36,0,0,1-.55-.35c-.06-.09-.13-.17-.06-.24.21.17.52.34.61.59"
     id="path364" />
  <path
     class="cls-3"
     d="M75.75,36.52c0,.08-.17.21-.23,0a.26.26,0,0,1-.13-.29c.15,0,.27.14.36.25"
     id="path366" />
  <path
     class="cls-3"
     d="M88.78,37a.53.53,0,0,1,0,.36c-.34-.19-.46-.59-.71-.92,0-.15.18-.15.25-.09Z"
     id="path368" />
  <path
     class="cls-1"
     d="M84.7,36.29a7.32,7.32,0,0,1,.59,1.54.52.52,0,0,1-.5-.19c-.23-.36-.11-.86-.13-1.35Z"
     id="path370"
     style="fill:#44263a;fill-opacity:1" />
  <path
     class="cls-1"
     d="M68.12,36.57l0,0-.34-.19a.49.49,0,0,1,.36.17"
     id="path372" />
  <path
     class="cls-3"
     d="M83.73,37.12a.45.45,0,0,1-.23,0,1.16,1.16,0,0,1-.17-.67.78.78,0,0,1,.4.63"
     id="path374" />
  <path
     class="cls-3"
     d="M75,37c-.09,0-.28.08-.34,0s-.19-.21-.12-.36A.78.78,0,0,1,75,37"
     id="path376" />
  <path
     class="cls-3"
     d="M82.48,37.12c-.15,0-.23-.09-.34-.21s-.08-.23-.06-.32c.19.11.44.32.4.53"
     id="path378" />
  <path
     class="cls-3"
     d="M73.85,37c-.11.08-.21,0-.34,0s-.19-.15-.12-.25a1.09,1.09,0,0,1,.46.25"
     id="path380" />
  <path
     class="cls-3"
     d="M66.77,37.19c0,.05,0,.09,0,.09-.48-.13-1.07-.09-1.54-.17-.12-.13.07-.23.17-.27a2.38,2.38,0,0,1,1.41.35"
     id="path382" />
  <path
     class="cls-3"
     d="M65.85,37.57a4.79,4.79,0,0,1-1.08,0,.41.41,0,0,1,.21-.25,2.23,2.23,0,0,1,.87.21"
     id="path384" />
  <path
     class="cls-3"
     d="M65.05,38c0,.09-.28.09-.4,0s-.07-.15,0-.19.27,0,.36.14"
     id="path386" />
  <path
     class="cls-3"
     d="M98.61,39.82c0,1.6.08,3.22,0,5A7.54,7.54,0,0,1,93,47a15.64,15.64,0,0,1-.11-1.69l-2.8-.06a9.09,9.09,0,0,0-5.57-1.51,11.28,11.28,0,0,0-4,1.51l-6.36,0a7,7,0,0,0-5.7-1.43,22.61,22.61,0,0,0-3.79,1.43H61.82l-.06,1.64a5.85,5.85,0,0,1-2.8-.53,9.52,9.52,0,0,1-2.66-1.91c-.1-2,0-4.63,0-4.63Z"
     id="path388" />
  <path
     class="cls-3"
     d="M73.2,45.27c-.42.17-.76-.25-1.2-.31a6,6,0,0,0-2.93-.45c-.94.24-1.89.47-2.77.76H66c0-.21.28-.29.47-.42,1.3-.34,2.61-1,4.1-.61a7.26,7.26,0,0,1,2.59,1"
     id="path390" />
  <path
     class="cls-3"
     d="M89,45.27c-.52.17-1-.29-1.47-.42a6.55,6.55,0,0,0-4.06,0c-.55.08-.91.48-1.5.46a1.77,1.77,0,0,1,.49-.38,14.57,14.57,0,0,1,2.21-.71A6.7,6.7,0,0,1,89,45.27"
     id="path392" />
  <path
     class="cls-3"
     d="M71,45.27H68.53c0-.08.12-.21.25-.21.69-.21,1.64-.38,2.17.21"
     id="path394" />
  <path
     class="cls-3"
     d="M86.6,45.27c-.73,0-1.64,0-2.35,0,.18-.27.63-.31,1-.44.53,0,1.16,0,1.39.42"
     id="path396" />
  <path
     class="cls-3"
     d="M61.22,47.75c.27,0,.74,0,.53.48a17.85,17.85,0,0,1-2.38-.38,9.79,9.79,0,0,1-3.26-1.7v-.4a13.65,13.65,0,0,0,5.11,2"
     id="path398" />
  <path
     class="cls-3"
     d="M98.58,46.42a11.15,11.15,0,0,1-5.53,2,.39.39,0,0,1,0-.48,11.17,11.17,0,0,0,4.48-1.37c.36-.06,1.07-1.09,1-.17"
     id="path400" />
  <path
     class="cls-3"
     d="M61.74,49a.61.61,0,0,1,0,.36l-.26.06A16.2,16.2,0,0,1,57.07,48c-.33-.31-1-.4-.92-.9A13.85,13.85,0,0,0,61.74,49"
     id="path402" />
  <path
     class="cls-3"
     d="M98.48,47.32a.7.7,0,0,1-.23.7A10.64,10.64,0,0,1,93,49.49a.51.51,0,0,1,0-.3,12.47,12.47,0,0,0,5.49-1.87"
     id="path404" />
  <path
     class="cls-3"
     d="M61.79,50.15v.38c-.54-.13-1.19-.17-1.78-.28a12,12,0,0,1-2.68-1c-.42-.27-1.13-.31-1.2-.92,0,0,0-.17.09-.17a13.84,13.84,0,0,0,5.57,2"
     id="path406" />
  <path
     class="cls-3"
     d="M98.51,48.5c.08.1,0,.23,0,.36a10.82,10.82,0,0,1-3,1.3,9.28,9.28,0,0,1-2.57.42c0-.08-.06-.23,0-.29a24.23,24.23,0,0,0,4.11-1,12.9,12.9,0,0,1,1.41-.76"
     id="path408" />
  <path
     class="cls-2"
     d="M67.75,50a2,2,0,0,1,.16,1.47,1.85,1.85,0,0,1-1.62,1.28,2,2,0,0,1-1.83-1A1.75,1.75,0,0,1,64.57,50a1.84,1.84,0,0,1,3.18,0"
     id="path410"
     style="fill:#ffffff;fill-opacity:1" />
  <path
     class="cls-2"
     d="M84.78,50a2,2,0,0,1,0,1.94,2.13,2.13,0,0,1-2,.88,2.24,2.24,0,0,1-1.37-1,2.11,2.11,0,0,1,0-1.85,2.18,2.18,0,0,1,1.73-1,1.81,1.81,0,0,1,1.64,1"
     id="path412"
     style="fill:#ffffff;fill-opacity:1" />
  <path
     class="cls-2"
     d="M90.7,50.3a1.9,1.9,0,0,1-.4,2,1.92,1.92,0,0,1-1.72.61,2,2,0,0,1-1.69-1.43,2.05,2.05,0,0,1,2.76-2.25,2.19,2.19,0,0,1,1,1"
     id="path414"
     style="fill:#ffffff;fill-opacity:1" />
  <path
     class="cls-2"
     d="M73.52,50.22a1.78,1.78,0,0,1-.17,1.88,1.92,1.92,0,0,1-1.8.73,1.89,1.89,0,0,1-1.18-.61,1.92,1.92,0,0,1-.32-2,2.06,2.06,0,0,1,1.71-1.15,2,2,0,0,1,1.76,1.11"
     id="path416"
     style="fill:#ffffff;fill-opacity:1" />
  <path
     class="cls-3"
     d="M56.84,49.65a15.57,15.57,0,0,0,4,1.45l.82.08,0,.42a13.17,13.17,0,0,1-4.85-1.47c-.25-.17-.77-.19-.77-.57l.06-.23a4.08,4.08,0,0,1,.67.32"
     id="path418" />
  <path
     class="cls-3"
     d="M98.51,50.05a13.75,13.75,0,0,1-5.39,1.66c-.15.06-.15-.15-.13-.25s.15-.17.25-.17a26.74,26.74,0,0,0,3.88-.93l1.37-.67a.54.54,0,0,1,0,.36"
     id="path420" />
  <path
     class="cls-3"
     d="M61.67,52.32c.08.09,0,.26,0,.36a7.9,7.9,0,0,1-2.44-.34A13.36,13.36,0,0,1,56.13,51v-.47a12.67,12.67,0,0,0,5.54,1.79"
     id="path422" />
  <path
     class="cls-3"
     d="M98.51,51.25a14.85,14.85,0,0,1-5.08,1.58c-.16,0-.35,0-.46,0s0-.4.23-.4a14.51,14.51,0,0,0,5.35-1.62c.06.11.1.4,0,.49"
     id="path424" />
  <path
     class="cls-3"
     d="M61.74,53.42c0,1.69,0,3.5,0,5.24a9.11,9.11,0,0,1-4.46-.82,2.31,2.31,0,0,1-.94-.82c-.09-1.66,0-3.26,0-5.15a10.76,10.76,0,0,0,5.43,1.55"
     id="path426" />
  <path
     class="cls-3"
     d="M98.61,51.9c0,1.81,0,3.66,0,5.49A9.32,9.32,0,0,1,93,59.05L93,58.78l0-5.07a10.25,10.25,0,0,0,5.59-1.9Z"
     id="path428" />
  <path
     class="cls-2"
     d="M81.45,54.67a1.93,1.93,0,0,1,.63,2.09,1.88,1.88,0,0,1-1.62,1.3,1.88,1.88,0,0,1-1.79-2.9,1.91,1.91,0,0,1,1.39-.84,2.28,2.28,0,0,1,1.39.35"
     id="path430"
     style="fill:#ffffff;fill-opacity:1" />
  <path
     class="cls-2"
     d="M70.17,55.4a2.13,2.13,0,0,1-.1,1.89,2,2,0,0,1-1.88.89,2,2,0,0,1-1.55-1,1.9,1.9,0,0,1,.29-2.05A2,2,0,0,1,69,54.43a1.67,1.67,0,0,1,1.13,1"
     id="path432"
     style="fill:#ffffff;fill-opacity:1" />
  <path
     class="cls-2"
     d="M87.85,55.5a1.93,1.93,0,0,1-.23,2,1.79,1.79,0,0,1-1.41.67,2,2,0,0,1-1.39-.5,1.94,1.94,0,0,1-.52-2,1.86,1.86,0,0,1,1-1.14,2,2,0,0,1,2.52,1"
     id="path434"
     style="fill:#ffffff;fill-opacity:1" />
  <path
     class="cls-3"
     d="M61.74,59.65c0,.11.15.44-.08.42a10.59,10.59,0,0,1-5.49-1.53c0-.13,0-.3.19-.36a12.2,12.2,0,0,0,5.38,1.47"
     id="path436" />
  <path
     class="cls-3"
     d="M98.58,58.48a.4.4,0,0,1-.27.5l-2.42,1a12.08,12.08,0,0,1-2.89.42c-.06-.08,0-.25,0-.36.69-.23,1.53-.16,2.25-.37a32,32,0,0,0,3.28-1.2"
     id="path438" />
  <path
     class="cls-3"
     d="M59.09,60.35a11.91,11.91,0,0,0,2.76.49c.13.08.08.23.08.35a3.06,3.06,0,0,1-1.24-.06,11.6,11.6,0,0,1-4.44-1.3c-.1-.11-.06-.26,0-.38s.25,0,.38,0a18,18,0,0,0,2.5.86"
     id="path440" />
  <path
     class="cls-3"
     d="M98.58,59.9a24.17,24.17,0,0,1-2.71,1,11.8,11.8,0,0,1-3,.44c-.09-.08,0-.21,0-.29l.21-.15a12.42,12.42,0,0,0,5.47-1.45Z"
     id="path442" />
  <path
     class="cls-2"
     d="M84.9,60.5a1.85,1.85,0,0,1,.17,1.58,2,2,0,0,1-1.18,1.14,2,2,0,0,1-2-.45,1.88,1.88,0,0,1-.4-2.06,2,2,0,0,1,1.58-1.13,2,2,0,0,1,1.85.92"
     id="path444"
     style="fill:#ffffff;fill-opacity:1" />
  <path
     class="cls-2"
     d="M73.15,60.5A1.62,1.62,0,0,1,73.36,62a2,2,0,0,1-1.54,1.35,1.82,1.82,0,0,1-1.91-.88A1.93,1.93,0,0,1,70,60.35a2,2,0,0,1,2-.69,1.88,1.88,0,0,1,1.14.84"
     id="path446"
     style="fill:#ffffff;fill-opacity:1" />
  <path
     class="cls-3"
     d="M98.58,60.4c.11.36-.21.59-.48.72a14.58,14.58,0,0,1-5.43,1.18c-.11-.36.25-.55.54-.51a13.58,13.58,0,0,0,4.36-.86c.34-.15.67-.38,1-.53"
     id="path448" />
  <path
     class="cls-3"
     d="M62,61.85a.74.74,0,0,1,.11.44,10.48,10.48,0,0,1-5.83-1.41c-.19-.08-.06-.27-.11-.42A12.39,12.39,0,0,0,62,61.85"
     id="path450" />
  <path
     class="cls-3"
     d="M98.51,61.53c.08.57-.64.52-.93.8a13.65,13.65,0,0,1-5.24,1l.13-.45H93a14,14,0,0,0,5.5-1.34"
     id="path452" />
  <path
     class="cls-3"
     d="M57.79,62.13a14.45,14.45,0,0,0,3.75.78c.31.06.92-.15.9.33l0,.09a11.25,11.25,0,0,1-3.62-.45,11.64,11.64,0,0,1-2.5-1c-.09-.05,0-.24,0-.3.54,0,1,.42,1.53.51"
     id="path454" />
  <path
     class="cls-3"
     d="M98,63.3a14.23,14.23,0,0,1-4.55,1A8.46,8.46,0,0,1,92,64.27c0-.17,0-.4.25-.4a12.58,12.58,0,0,0,4.4-.53,7.54,7.54,0,0,0,1.79-.8c.15.34-.19.62-.46.76"
     id="path456" />
  <path
     class="cls-3"
     d="M59.52,63.75a6.88,6.88,0,0,0,2.23.11,2.27,2.27,0,0,1,.78,0c.1.08.21.27.15.4-2.09.44-4-.38-5.75-1.06-.19-.19-.76-.12-.63-.54.1-.13.27-.07.38,0,.92.35,1.89.75,2.84,1.11"
     id="path458" />
  <path
     class="cls-3"
     d="M63,64.78c.74,1.58,1.45,3.18,2.31,4.69a11.43,11.43,0,0,1-6.92.11,21,21,0,0,1-1.94-6A10.64,10.64,0,0,0,63,64.78"
     id="path460" />
  <path
     class="cls-4"
     d="M61.3,70.08a8.22,8.22,0,0,1-2.94-.49h0a20.3,20.3,0,0,1-1.94-6v0h0A10.76,10.76,0,0,0,63,64.77h0c.11.23.22.46.32.69.62,1.33,1.26,2.71,2,4h0A14.85,14.85,0,0,1,61.3,70.08Zm-2.93-.51c2.51,1,5.65.25,6.9-.11-.74-1.29-1.37-2.66-2-4-.11-.22-.21-.45-.32-.68a10.69,10.69,0,0,1-6.52-1.17A20.39,20.39,0,0,0,58.37,69.57Z"
     id="path462" />
  <path
     class="cls-3"
     d="M98.31,63.78a26.91,26.91,0,0,1-1.94,5.93,6.45,6.45,0,0,1-1.68.47,11.76,11.76,0,0,1-5.24-.51c.84-1.49,1.57-3,2.29-4.57a9.49,9.49,0,0,0,6.52-1.34Z"
     id="path464" />
  <path
     class="cls-4"
     d="M93.14,70.28a10.92,10.92,0,0,1-3.7-.6h0v0c.73-1.3,1.44-2.71,2.29-4.56h0a9.61,9.61,0,0,0,6.52-1.34h0l.06,0h0a26.86,26.86,0,0,1-1.89,5.83l-.05.11h0a4.31,4.31,0,0,1-1.28.38l-.41.09A13.56,13.56,0,0,1,93.14,70.28Zm-3.68-.62a11.65,11.65,0,0,0,5.23.5l.41-.08a4.18,4.18,0,0,0,1.26-.38l0-.1a26.42,26.42,0,0,0,1.89-5.82h0a9.67,9.67,0,0,1-6.52,1.35C90.9,67,90.2,68.36,89.46,69.66Z"
     id="path466" />
  <path
     class="cls-2"
     d="M82.75,65.6a2.48,2.48,0,0,1,0,2.28,2.57,2.57,0,0,1-2,1.17,2.4,2.4,0,1,1-.27-4.79,2.53,2.53,0,0,1,2.31,1.34"
     id="path468"
     style="fill:#ffffff;fill-opacity:1" />
  <path
     class="cls-3"
     d="M92.1,71a22.78,22.78,0,0,0,3.62-.23.34.34,0,0,1-.21.38,12.66,12.66,0,0,1-6.75-.47,1,1,0,0,1,.31-.46c1,.27,2,.57,3,.78"
     id="path470" />
  <path
     class="cls-3"
     d="M65.87,70.5a25.91,25.91,0,0,1-2.9.66A14.28,14.28,0,0,1,59.09,71l-.19-.27.19-.13a19.46,19.46,0,0,0,6.63-.34.33.33,0,0,1,.15.25"
     id="path472" />
  <path
     class="cls-3"
     d="M66.62,71.5a13,13,0,0,1-3.83.66,10,10,0,0,1-3.13,0c-.11-.13-.4-.43,0-.49a16.38,16.38,0,0,0,2.23.15,22,22,0,0,0,4.42-.65.4.4,0,0,1,.36.35"
     id="path474" />
  <path
     class="cls-3"
     d="M95.16,72a.63.63,0,0,1-.11.38,9.68,9.68,0,0,1-2.74.15,13.6,13.6,0,0,1-4.25-.67c-.19-.17.15-.34.26-.51a13.9,13.9,0,0,0,6.84.65"
     id="path476" />
  <path
     class="cls-3"
     d="M67.37,72.51l-.1.1a23.07,23.07,0,0,1-6.86.67c-.24,0-.26-.25-.36-.4l.12-.06A18.52,18.52,0,0,0,67,72.15c.21,0,.26.25.36.36"
     id="path478" />
  <path
     class="cls-3"
     d="M94.51,73c0,.11-.09.29-.17.42a5.55,5.55,0,0,1-1.77.17,15,15,0,0,1-5.2-.84c-.19-.13-.08-.34.06-.44l.11-.09a12.62,12.62,0,0,0,7,.78"
     id="path480" />
  <path
     class="cls-3"
     d="M68.2,73.33v0a14.62,14.62,0,0,1-4.21.89,13.17,13.17,0,0,1-3,0c-.07-.13-.28-.21-.21-.36.86-.06,1.7.08,2.57,0a30.64,30.64,0,0,0,3.15-.44l1.35-.38c.19,0,.27.12.36.23"
     id="path482" />
  <path
     class="cls-3"
     d="M90.13,74.18c1.2,0,2.42.15,3.56,0a.81.81,0,0,1-.19.38,18.22,18.22,0,0,1-5.5-.44,5.73,5.73,0,0,1-1.53-.69c.1-.19.42-.43.63-.19a12.74,12.74,0,0,0,3,.9"
     id="path484" />
  <path
     class="cls-3"
     d="M68.92,74.08a11.94,11.94,0,0,1-7.15,1.31c-.07-.11-.19-.19-.19-.32.92.06,1.85-.19,2.82-.19a16.74,16.74,0,0,0,4.25-1c.1,0,.19.17.27.25"
     id="path486" />
  <path
     class="cls-3"
     d="M92.7,75.23l.3,0a1.17,1.17,0,0,1-.51.5c-2.35-.25-4.9-.12-6.81-1.34,0-.19.21-.32.33-.4a13.45,13.45,0,0,0,6.69,1.26"
     id="path488" />
  <path
     class="cls-3"
     d="M86.45,75.53a11.14,11.14,0,0,0,5.73.63l0,0a28.57,28.57,0,0,1-5,4.74,14.87,14.87,0,0,1-6.18-2c-.45-.21-.8-.61-1.29-.71A55.56,55.56,0,0,0,85,74.84c.5.17,1,.48,1.45.69"
     id="path490" />
  <path
     class="cls-5"
     d="M18.39,110v3.19A15.24,15.24,0,0,1,11,115a11.3,11.3,0,0,1-5.75-1.36,10,10,0,0,1-3.74-3.75,10.16,10.16,0,0,1-1.38-5.17,9.89,9.89,0,0,1,3.15-7.44,10.83,10.83,0,0,1,7.78-3,18.26,18.26,0,0,1,7.08,1.67V99a14,14,0,0,0-6.94-2,8,8,0,0,0-5.77,2.2,7.74,7.74,0,0,0,0,11,8.08,8.08,0,0,0,5.78,2.15A13.17,13.17,0,0,0,18.39,110"
     id="path492"
     style="fill:#44263a;fill-opacity:1" />
  <path
     class="cls-6"
     d="M18.39,110v3.19A15.24,15.24,0,0,1,11,115a11.3,11.3,0,0,1-5.75-1.36,10,10,0,0,1-3.74-3.75,10.16,10.16,0,0,1-1.38-5.17,9.89,9.89,0,0,1,3.15-7.44,10.83,10.83,0,0,1,7.78-3,18.26,18.26,0,0,1,7.08,1.67V99a14,14,0,0,0-6.94-2,8,8,0,0,0-5.77,2.2,7.74,7.74,0,0,0,0,11,8.08,8.08,0,0,0,5.78,2.15A13.17,13.17,0,0,0,18.39,110Z"
     id="path494"
     style="fill:#44263a;fill-opacity:1;stroke:#42273b;stroke-opacity:0" />
  <path
     class="cls-5"
     d="M30.3,94.19a10.88,10.88,0,0,1,7.81,3,9.85,9.85,0,0,1,3.12,7.45A9.7,9.7,0,0,1,38.08,112,11.18,11.18,0,0,1,30.14,115,10.53,10.53,0,0,1,22.52,112a9.76,9.76,0,0,1-3.05-7.35,10,10,0,0,1,3.07-7.51,10.69,10.69,0,0,1,7.76-3m.11,2.75a7.86,7.86,0,0,0-5.71,2.18,7.41,7.41,0,0,0-2.23,5.55,7.26,7.26,0,0,0,2.24,5.44,7.76,7.76,0,0,0,5.62,2.18A7.74,7.74,0,0,0,36,110.07a7.42,7.42,0,0,0,2.27-5.52A7.24,7.24,0,0,0,36,99.14a7.72,7.72,0,0,0-5.57-2.2"
     id="path496"
     style="fill:#44263a;fill-opacity:1" />
  <path
     class="cls-6"
     d="M30.3,94.19a10.88,10.88,0,0,1,7.81,3,9.85,9.85,0,0,1,3.12,7.45A9.7,9.7,0,0,1,38.08,112,11.18,11.18,0,0,1,30.14,115,10.53,10.53,0,0,1,22.52,112a9.76,9.76,0,0,1-3.05-7.35,10,10,0,0,1,3.07-7.51A10.69,10.69,0,0,1,30.3,94.19Zm.11,2.75a7.86,7.86,0,0,0-5.71,2.18,7.41,7.41,0,0,0-2.23,5.55,7.26,7.26,0,0,0,2.24,5.44,7.76,7.76,0,0,0,5.62,2.18A7.74,7.74,0,0,0,36,110.07a7.42,7.42,0,0,0,2.27-5.52A7.24,7.24,0,0,0,36,99.14,7.72,7.72,0,0,0,30.41,96.94Z"
     id="path498"
     style="fill:#44263a;fill-opacity:1;stroke:#42273b;stroke-opacity:0" />
  <path
     class="cls-5"
     d="M43.75,114.72V94.48h5.07A7.35,7.35,0,0,1,53.7,96a5.12,5.12,0,0,1,1.8,4.12,5.06,5.06,0,0,1-3.42,5,9.18,9.18,0,0,1,1.9,1.74,33.83,33.83,0,0,1,2.61,3.84c.71,1.15,1.27,2,1.7,2.59l1.07,1.45H55.91L55,113.39l-.18-.25-.56-.8-.9-1.47-1-1.59a15.64,15.64,0,0,0-1.64-2,6.15,6.15,0,0,0-1.35-1.06,4.5,4.5,0,0,0-2-.33h-.76v8.81Zm3.77-17.78h-.87v6.39h1.1a8.2,8.2,0,0,0,3-.37,2.83,2.83,0,0,0,1.28-1.14,3.36,3.36,0,0,0,.45-1.73,3,3,0,0,0-.5-1.73,2.72,2.72,0,0,0-1.43-1.1,10.35,10.35,0,0,0-3-.32"
     id="path500"
     style="fill:#44263a;fill-opacity:1" />
  <path
     class="cls-6"
     d="M43.75,114.72V94.48h5.07A7.35,7.35,0,0,1,53.7,96a5.12,5.12,0,0,1,1.8,4.12,5.06,5.06,0,0,1-3.42,5,9.18,9.18,0,0,1,1.9,1.74,33.83,33.83,0,0,1,2.61,3.84c.71,1.15,1.27,2,1.7,2.59l1.07,1.45H55.91L55,113.39l-.18-.25-.56-.8-.9-1.47-1-1.59a15.64,15.64,0,0,0-1.64-2,6.15,6.15,0,0,0-1.35-1.06,4.5,4.5,0,0,0-2-.33h-.76v8.81Zm3.77-17.78h-.87v6.39h1.1a8.2,8.2,0,0,0,3-.37,2.83,2.83,0,0,0,1.28-1.14,3.36,3.36,0,0,0,.45-1.73,3,3,0,0,0-.5-1.73,2.72,2.72,0,0,0-1.43-1.1A10.35,10.35,0,0,0,47.52,96.94Z"
     id="path502"
     style="fill:#44263a;fill-opacity:1;stroke:#42273b;stroke-opacity:0" />
  <polygon
     class="cls-5"
     points="76.56 94.48 79.31 94.48 79.31 114.72 76.82 114.72 63.29 99.13 63.29 114.72 60.57 114.72 60.57 94.48 62.91 94.48 76.56 110.2 76.56 94.48"
     id="polygon504"
     style="fill:#44263a;fill-opacity:1" />
  <polygon
     class="cls-6"
     points="76.56 94.48 79.31 94.48 79.31 114.72 76.82 114.72 63.29 99.13 63.29 114.72 60.57 114.72 60.57 94.48 62.91 94.48 76.56 110.2 76.56 94.48"
     id="polygon506"
     style="fill:#44263a;fill-opacity:1;stroke:#42273b;stroke-opacity:0" />
  <polygon
     class="cls-5"
     points="108.42 94.48 111.31 94.48 103.13 114.81 102.49 114.81 95.87 98.35 89.19 114.81 88.56 114.81 80.41 94.48 83.33 94.48 88.9 108.43 94.52 94.48 97.26 94.48 102.9 108.43 108.42 94.48"
     id="polygon508"
     style="fill:#44263a;fill-opacity:1" />
  <polygon
     class="cls-6"
     points="108.42 94.48 111.31 94.48 103.13 114.81 102.49 114.81 95.87 98.35 89.19 114.81 88.56 114.81 80.41 94.48 83.33 94.48 88.9 108.43 94.52 94.48 97.26 94.48 102.9 108.43 108.42 94.48"
     id="polygon510"
     style="fill:#44263a;fill-opacity:1;stroke:#42273b;stroke-opacity:0" />
  <path
     class="cls-5"
     d="M116.52,94.37h2l9.07,20.35h-3l-2.7-6h-8.64l-2.53,6h-3Zm4.26,11.77-3.27-7.33-3,7.33Z"
     id="path512"
     style="fill:#44263a;fill-opacity:1" />
  <path
     class="cls-6"
     d="M116.52,94.37h2l9.07,20.35h-3l-2.7-6h-8.64l-2.53,6h-3Zm4.26,11.77-3.27-7.33-3,7.33Z"
     id="path514"
     style="fill:#44263a;fill-opacity:1;stroke:#42273b;stroke-opacity:0" />
  <polygon
     class="cls-5"
     points="128.79 94.48 131.69 94.48 131.69 112.08 140.8 112.08 140.8 114.72 128.79 114.72 128.79 94.48"
     id="polygon516"
     style="fill:#44263a;fill-opacity:1" />
  <polygon
     class="cls-6"
     points="128.79 94.48 131.69 94.48 131.69 112.08 140.8 112.08 140.8 114.72 128.79 114.72 128.79 94.48"
     id="polygon518"
     style="fill:#44263a;fill-opacity:1;stroke:#42273b;stroke-opacity:0" />
  <polygon
     class="cls-5"
     points="142.09 94.48 144.99 94.48 144.99 112.08 154.1 112.08 154.1 114.72 142.09 114.72 142.09 94.48"
     id="polygon520"
     style="fill:#44263a;fill-opacity:1" />
  <polygon
     class="cls-6"
     points="142.09 94.48 144.99 94.48 144.99 112.08 154.1 112.08 154.1 114.72 142.09 114.72 142.09 94.48"
     id="polygon522"
     style="fill:#44263a;fill-opacity:1;stroke:#42273b;stroke-opacity:0" />
  <path
     d="M33.17,136.5v3.19a15.13,15.13,0,0,1-7.36,1.74,11.37,11.37,0,0,1-5.76-1.37,9.88,9.88,0,0,1-3.73-3.75,10.16,10.16,0,0,1-1.38-5.17,9.87,9.87,0,0,1,3.15-7.43,10.81,10.81,0,0,1,7.77-3A18.27,18.27,0,0,1,33,122.36v3.11a14,14,0,0,0-6.94-2,8,8,0,0,0-5.77,2.2,7.75,7.75,0,0,0,0,11A8.05,8.05,0,0,0,26,138.76a13.11,13.11,0,0,0,7.19-2.26"
     id="path524"
     style="fill:#44263a;fill-opacity:1" />
  <path
     d="M45.08,120.66a10.89,10.89,0,0,1,7.81,3A9.87,9.87,0,0,1,56,131.08a9.67,9.67,0,0,1-3.15,7.41,11.19,11.19,0,0,1-7.94,2.94,10.56,10.56,0,0,1-7.63-2.94,9.78,9.78,0,0,1-3-7.35,10,10,0,0,1,3.06-7.51,10.73,10.73,0,0,1,7.77-3m.11,2.76a7.86,7.86,0,0,0-5.71,2.17,7.41,7.41,0,0,0-2.24,5.55,7.27,7.27,0,0,0,2.25,5.45,8.33,8.33,0,0,0,11.27-.05A7.41,7.41,0,0,0,53,131a7.23,7.23,0,0,0-2.26-5.41,7.71,7.71,0,0,0-5.57-2.19"
     id="path526"
     style="fill:#44263a;fill-opacity:1" />
  <path
     d="M72.6,121h2.91v11.49a13.93,13.93,0,0,1-.34,3.52,7.8,7.8,0,0,1-.84,2,6.12,6.12,0,0,1-1.23,1.41,9.3,9.3,0,0,1-6.29,2.08,9.39,9.39,0,0,1-6.34-2.06,7,7,0,0,1-1.23-1.43,7.68,7.68,0,0,1-.82-1.93,14.2,14.2,0,0,1-.33-3.6V121H61v11.49a8.4,8.4,0,0,0,.66,4,4.57,4.57,0,0,0,2,1.79,6.9,6.9,0,0,0,3.15.68,6.36,6.36,0,0,0,4.2-1.35,4.25,4.25,0,0,0,1.23-1.71,10.55,10.55,0,0,0,.38-3.38Z"
     id="path528"
     style="fill:#44263a;fill-opacity:1" />
  <polygon
     points="94.81 120.95 97.57 120.95 97.57 141.19 95.08 141.19 81.54 125.61 81.54 141.19 78.82 141.19 78.82 120.95 81.17 120.95 94.81 136.67 94.81 120.95"
     id="polygon530"
     style="fill:#44263a;fill-opacity:1" />
  <path
     d="M118.21,136.5v3.19a15.15,15.15,0,0,1-7.37,1.74,11.35,11.35,0,0,1-5.75-1.37,10,10,0,0,1-3.74-3.75,10.25,10.25,0,0,1-1.37-5.17,9.87,9.87,0,0,1,3.15-7.43,10.81,10.81,0,0,1,7.77-3,18.27,18.27,0,0,1,7.09,1.67v3.11a14,14,0,0,0-6.94-2,8.05,8.05,0,0,0-5.78,2.2,7.76,7.76,0,0,0,0,11,8,8,0,0,0,5.78,2.14,13.11,13.11,0,0,0,7.19-2.26"
     id="path532"
     style="fill:#44263a;fill-opacity:1" />
  <rect
     x="120.87"
     y="120.95"
     width="2.9"
     height="20.24"
     id="rect534"
     style="fill:#44263a;fill-opacity:1" />
  <polygon
     points="127.31 120.95 130.21 120.95 130.21 138.56 139.33 138.56 139.33 141.19 127.31 141.19 127.31 120.95"
     id="polygon536"
     style="fill:#44263a;fill-opacity:1" />
</svg>
