<?xml version="1.0" encoding="UTF-8" standalone="no"?>
<!-- Created with Inkscape (http://www.inkscape.org/) -->

<svg
   xmlns:dc="http://purl.org/dc/elements/1.1/"
   xmlns:cc="http://creativecommons.org/ns#"
   xmlns:rdf="http://www.w3.org/1999/02/22-rdf-syntax-ns#"
   xmlns:svg="http://www.w3.org/2000/svg"
   xmlns="http://www.w3.org/2000/svg"
   xmlns:sodipodi="http://sodipodi.sourceforge.net/DTD/sodipodi-0.dtd"
   xmlns:inkscape="http://www.inkscape.org/namespaces/inkscape"
   width="30.858mm"
   height="30.858mm"
   viewBox="0 0 30.858 30.858"
   version="1.1"
   id="svg1933"
   inkscape:version="0.92.5 (2060ec1f9f, 2020-04-08)"
   sodipodi:docname="Access (&amp; equity in access) to goods &amp; services.svg">
  <defs
     id="defs1927">
    <mask
       maskUnits="userSpaceOnUse"
       id="mask2260">
      <rect
         style="opacity:1;fill:#ffffff;fill-opacity:1;stroke:none;stroke-width:0.56499994;stroke-miterlimit:4;stroke-dasharray:none;stroke-opacity:1"
         id="rect2262"
         width="86.248459"
         height="109.59391"
         x="10.399542"
         y="-2.1886201" />
    </mask>
  </defs>
  <sodipodi:namedview
     id="base"
     pagecolor="#ffffff"
     bordercolor="#666666"
     borderopacity="1.0"
     inkscape:pageopacity="0.0"
     inkscape:pageshadow="2"
     inkscape:zoom="2.8"
     inkscape:cx="75.6566"
     inkscape:cy="49.641564"
     inkscape:document-units="mm"
     inkscape:current-layer="layer1"
     showgrid="false"
     units="mm"
     showguides="true"
     inkscape:guide-bbox="true"
     inkscape:snap-global="true"
     inkscape:window-width="1090"
     inkscape:window-height="767"
     inkscape:window-x="1076"
     inkscape:window-y="156"
     inkscape:window-maximized="0"
     inkscape:snap-others="false"
     inkscape:snap-bbox="true"
     inkscape:bbox-nodes="true"
     inkscape:snap-nodes="false">
    <sodipodi:guide
       position="0,16.503893"
       orientation="1,0"
       id="guide2524"
       inkscape:locked="false"
       inkscape:label=""
       inkscape:color="rgb(0,0,255)" />
    <sodipodi:guide
       position="14.29892,0"
       orientation="0,1"
       id="guide2526"
       inkscape:locked="false"
       inkscape:label=""
       inkscape:color="rgb(0,0,255)" />
    <sodipodi:guide
       position="85.526248,30.858"
       orientation="0,1"
       id="guide7505"
       inkscape:locked="false"
       inkscape:label=""
       inkscape:color="rgb(0,0,255)" />
    <sodipodi:guide
       position="15.434815,33.542326"
       orientation="1,0"
       id="guide7585"
       inkscape:locked="false" />
  </sodipodi:namedview>
  <metadata
     id="metadata1930">
    <rdf:RDF>
      <cc:Work
         rdf:about="">
        <dc:format>image/svg+xml</dc:format>
        <dc:type
           rdf:resource="http://purl.org/dc/dcmitype/StillImage" />
        <dc:title></dc:title>
      </cc:Work>
    </rdf:RDF>
  </metadata>
  <g
     inkscape:label="Layer 1"
     inkscape:groupmode="layer"
     id="layer1"
     transform="translate(0,-266.14199)">
    <g
       style="fill:#ffffff"
       id="g1937"
       transform="matrix(0.05167643,0,0,0.05167643,2.2514744,267.80335)">
      <g
         id="g1924"
         style="fill:#ffffff">
        <path
           id="path1920"
           d="m 274.8,274.8 v 18.8 h -37.5 v -18.8 c 0,-10.3 8.4,-18.8 18.8,-18.8 10.4,0 18.7,8.4 18.7,18.8 z"
           inkscape:connector-curvature="0"
           style="fill:#ffffff" />
        <path
           id="path1922"
           d="m 256,68.5 -93.7,65.6 V 68.5 h -37.5 v 91.9 L 68.6,199.8 H 106 V 443.5 H 406 V 199.8 h 37.5 z m 56.3,318.7 H 199.8 c -10.4,0 -18.8,-8.4 -18.8,-18.8 v -75 h 18.8 v -15.7 c 0,-30.5 22.9,-57.7 53.3,-59.3 32.5,-1.6 59.2,24.1 59.2,56.2 v 18.8 H 331 v 75 c 0,10.5 -8.4,18.8 -18.7,18.8 z"
           inkscape:connector-curvature="0"
           style="fill:#ffffff" />
      </g>
    </g>
    <g
       transform="translate(-361.40063,-39.565074)"
       id="g10378">
      <circle
         r="15.429199"
         cy="321.13586"
         cx="376.82983"
         id="circle1093-0-8-8-7-4-8-4"
         style="fill:#40a073;fill-opacity:1;stroke-width:0.46499997" />
      <g
         style="fill:#ffffff;stroke-width:1.20494604"
         id="g4157"
         transform="matrix(0.21958105,0,0,0.21958105,365.28271,310.36306)">
        <g
           id="g4141"
           style="fill:#ffffff;stroke-width:1.20494604">
          <path
             id="path4131"
             d="M 53.681,39.207 H 37.023 c -0.953,0 -1.727,0.772 -1.727,1.727 v 0.063 l 6.875,8.042 c 0.814,0.951 1.208,2.162 1.11,3.41 -0.098,1.248 -0.675,2.382 -1.627,3.195 -0.849,0.725 -1.929,1.124 -3.042,1.124 -1.257,0 -2.437,-0.521 -3.316,-1.41 v 2.233 c 0,0.953 0.773,1.727 1.727,1.727 H 53.68 c 0.954,0 1.727,-0.773 1.727,-1.727 V 40.934 c 0,-0.955 -0.772,-1.727 -1.726,-1.727 z"
             inkscape:connector-curvature="0"
             style="fill:#ffffff;stroke-width:1.20494604" />
          <path
             id="path4133"
             d="m 27.9,61.902 h 2.637 l -1.096,-14.878 6.369,7.452 c 0.73,0.853 1.763,1.291 2.803,1.291 0.848,0 1.697,-0.291 2.393,-0.885 1.547,-1.321 1.729,-3.647 0.406,-5.194 L 28.526,34.614 28.243,30.779 c 0,-3.946 -3.423,-7.145 -7.646,-7.145 h -0.382 c -4.224,0 -7.647,3.199 -7.647,7.145 l -2.294,31.123 h 2.637 v 0.261 l -2.689,28.81 c -0.189,2.027 1.299,3.822 3.326,4.012 0.114,0.011 0.23,0.015 0.345,0.015 1.881,0 3.486,-1.432 3.664,-3.341 l 2.605,-27.892 h 0.489 l 2.604,27.892 c 0.178,1.909 1.783,3.341 3.663,3.341 0.115,0 0.23,-0.004 0.348,-0.016 C 29.291,94.795 30.78,93 30.592,90.972 L 27.9,62.162 Z"
             inkscape:connector-curvature="0"
             style="fill:#ffffff;stroke-width:1.20494604" />
          <circle
             id="circle4135"
             r="8.085"
             cy="13.085"
             cx="20.996"
             style="fill:#ffffff;stroke-width:1.20494604" />
          <path
             id="path4137"
             d="m 87.09,62.163 v -0.261 h 2.637 L 87.433,30.779 c 0,-3.946 -3.424,-7.145 -7.647,-7.145 h -0.382 c -4.224,0 -7.646,3.199 -7.646,7.145 l -0.283,3.835 -12.887,15.074 c -1.323,1.547 -1.141,3.873 0.406,5.194 0.695,0.594 1.545,0.885 2.393,0.885 1.04,0 2.072,-0.438 2.803,-1.291 l 6.369,-7.452 -1.096,14.878 H 72.1 v 0.26 l -2.691,28.811 c -0.188,2.027 1.301,3.822 3.326,4.012 0.117,0.011 0.232,0.015 0.347,0.015 1.88,0 3.485,-1.432 3.664,-3.341 L 79.35,63.767 h 0.489 l 2.604,27.892 c 0.178,1.909 1.784,3.341 3.664,3.341 0.114,0 0.23,-0.004 0.346,-0.016 2.027,-0.189 3.516,-1.984 3.326,-4.012 z"
             inkscape:connector-curvature="0"
             style="fill:#ffffff;stroke-width:1.20494604" />
          <circle
             id="circle4139"
             r="8.085"
             cy="13.085"
             cx="79.003998"
             style="fill:#ffffff;stroke-width:1.20494604" />
        </g>
      </g>
    </g>
  </g>
</svg>
