<?xml version="1.0" encoding="UTF-8" standalone="no"?>
<!-- Created with Inkscape (http://www.inkscape.org/) -->

<svg
   xmlns:dc="http://purl.org/dc/elements/1.1/"
   xmlns:cc="http://creativecommons.org/ns#"
   xmlns:rdf="http://www.w3.org/1999/02/22-rdf-syntax-ns#"
   xmlns:svg="http://www.w3.org/2000/svg"
   xmlns="http://www.w3.org/2000/svg"
   xmlns:sodipodi="http://sodipodi.sourceforge.net/DTD/sodipodi-0.dtd"
   xmlns:inkscape="http://www.inkscape.org/namespaces/inkscape"
   width="30.858mm"
   height="30.858mm"
   viewBox="0 0 30.858 30.858"
   version="1.1"
   id="svg1933"
   inkscape:version="0.92.5 (2060ec1f9f, 2020-04-08)"
   sodipodi:docname="Car accidents.svg">
  <defs
     id="defs1927">
    <mask
       maskUnits="userSpaceOnUse"
       id="mask2260">
      <rect
         style="opacity:1;fill:#ffffff;fill-opacity:1;stroke:none;stroke-width:0.56499994;stroke-miterlimit:4;stroke-dasharray:none;stroke-opacity:1"
         id="rect2262"
         width="86.248459"
         height="109.59391"
         x="10.399542"
         y="-2.1886201" />
    </mask>
  </defs>
  <sodipodi:namedview
     id="base"
     pagecolor="#ffffff"
     bordercolor="#666666"
     borderopacity="1.0"
     inkscape:pageopacity="0.0"
     inkscape:pageshadow="2"
     inkscape:zoom="1.979899"
     inkscape:cx="74.922616"
     inkscape:cy="74.025098"
     inkscape:document-units="mm"
     inkscape:current-layer="layer1"
     showgrid="false"
     units="mm"
     showguides="true"
     inkscape:guide-bbox="true"
     inkscape:snap-global="false"
     inkscape:window-width="1090"
     inkscape:window-height="767"
     inkscape:window-x="146"
     inkscape:window-y="94"
     inkscape:window-maximized="0"
     inkscape:snap-others="false"
     inkscape:snap-bbox="true"
     inkscape:bbox-nodes="true">
    <sodipodi:guide
       position="0,16.503893"
       orientation="1,0"
       id="guide2524"
       inkscape:locked="false"
       inkscape:label=""
       inkscape:color="rgb(0,0,255)" />
    <sodipodi:guide
       position="14.29892,0"
       orientation="0,1"
       id="guide2526"
       inkscape:locked="false"
       inkscape:label=""
       inkscape:color="rgb(0,0,255)" />
    <sodipodi:guide
       position="85.526248,30.858"
       orientation="0,1"
       id="guide7505"
       inkscape:locked="false"
       inkscape:label=""
       inkscape:color="rgb(0,0,255)" />
    <sodipodi:guide
       position="15.434815,33.542326"
       orientation="1,0"
       id="guide7585"
       inkscape:locked="false" />
  </sodipodi:namedview>
  <metadata
     id="metadata1930">
    <rdf:RDF>
      <cc:Work
         rdf:about="">
        <dc:format>image/svg+xml</dc:format>
        <dc:type
           rdf:resource="http://purl.org/dc/dcmitype/StillImage" />
        <dc:title></dc:title>
      </cc:Work>
    </rdf:RDF>
  </metadata>
  <g
     inkscape:label="Layer 1"
     inkscape:groupmode="layer"
     id="layer1"
     transform="translate(0,-266.14199)">
    <g
       style="fill:#ffffff;stroke-width:1.20943701"
       id="g1829"
       transform="matrix(0.04272767,0,0,0.04272767,4.3256279,270.19715)">
      <path
         id="path1806"
         d="m 405.7,165.4 -16.9,6.4 c -6.3,2.4 -12.9,3.6 -19.6,3.6 -1.4,0 -2.9,-0.1 -4.3,-0.2 -18.8,-1.4 -51.9,-4 -73.2,-5.6 L 256,206.4 220,169.2 c -15.6,-16 -37,-25.1 -59.3,-25.1 -0.2,0 -0.5,0 -0.7,0 -10.6,0.1 -21.1,2.2 -30.8,6.4 l -0.8,0.3 c -9.6,4.2 -18.3,10.4 -25.5,18.1 -30.9,33.6 -30.5,85.4 1,118.4 l 48.4,50 c 21.2,1.6 54.7,4.2 73.8,5.6 11.9,0.9 22.3,8.5 26.7,19.6 l 0.2,0.5 c 6.3,15.8 -1.4,33.7 -17.2,40 -2.1,0.8 -4.3,1.4 -6.5,1.8 l -23.7,3.9 24.9,10.6 c 6,2.6 12.8,2.6 18.9,0 l 53,-22.7 105.7,-109.3 c 31.5,-33 31.9,-84.8 1,-118.4 -1.1,-1.2 -2.2,-2.4 -3.4,-3.5 z M 240,280 h -32 v 32 h -32 v -32 h -32 v -32 h 32 v -32 h 32 v 32 h 32 z m 96,8 -16,8 v 48 h -32 v -48 l -16,-8 v -30.1 c 0,-6.1 3.4,-11.6 8.8,-14.3 L 304,232 l -7.2,-3.6 c -5.4,-2.7 -8.8,-8.3 -8.8,-14.3 v -4.2 c 0,-8.8 7.2,-16 16,-16 8.8,0 16,7.2 16,16 v 4.2 c 0,6.1 -3.4,11.6 -8.8,14.3 l -7.2,3.6 23.2,11.6 c 5.4,2.7 8.8,8.3 8.8,14.3 z"
         inkscape:connector-curvature="0"
         style="fill:#ffffff;stroke-width:1.20943701" />
      <rect
         id="rect1808"
         height="88"
         width="32"
         y="376"
         x="32"
         style="fill:#ffffff;stroke-width:1.20943701" />
      <path
         id="path1810"
         d="M 407.3,45.1 378.7,33.7 C 375.9,32.6 372.8,32 369.8,32 h -121 c -4.3,0 -8.6,1.2 -12.3,3.4 l -132.1,79.3 c -6.3,3.8 -8.4,12 -4.6,18.3 3.4,5.7 10.6,8 16.7,5.4 l 4.4,-1.9 c 1.2,-0.5 2.3,-1 3.5,-1.5 L 272,71.3 l 63.9,27.2 14.9,-2.4 2.6,15.8 -68.2,11.1 c -8.1,1.3 -13.5,8.9 -12.2,17 0.2,1.1 0.5,2.1 0.9,3.1 l 0.2,0.5 c 2.1,5.5 7.2,9.2 13,9.6 20.8,1.5 58.4,4.4 78.9,6 5.8,0.5 11.6,-0.4 17.1,-2.4 L 432,138.5 V 48 h -9.8 c -5.1,0 -10.2,-1 -14.9,-2.9 z"
         inkscape:connector-curvature="0"
         style="fill:#ffffff;stroke-width:1.20943701" />
      <rect
         id="rect1812"
         height="88"
         width="32"
         y="48"
         x="448"
         style="fill:#ffffff;stroke-width:1.20943701" />
      <path
         id="path1814"
         d="M 395.9,373.9 255.7,434 c -10,4.3 -21.4,4.3 -31.4,0 l -48.1,-20.5 -14.9,2.4 -2.6,-15.8 68.1,-11.1 c 8.1,-1.3 13.5,-8.9 12.2,-17 -0.2,-1.1 -0.5,-2.1 -0.9,-3.1 l -0.2,-0.5 c -2.1,-5.5 -7.2,-9.2 -13,-9.6 -20.8,-1.5 -58.4,-4.4 -78.9,-6 -5.8,-0.5 -11.6,0.4 -17.1,2.4 L 80,373.5 V 464 h 9.8 c 5.1,0 10.1,1 14.9,2.9 l 28.6,11.4 c 2.8,1.1 5.9,1.7 8.9,1.7 h 121 c 4.3,0 8.6,-1.2 12.3,-3.4 l 132.3,-79.4 c 6.2,-3.7 8.2,-11.8 4.5,-18 -3.4,-5.6 -10.4,-7.9 -16.4,-5.3 z"
         inkscape:connector-curvature="0"
         style="fill:#ffffff;stroke-width:1.20943701" />
    </g>
    <g
       style="fill:#ffffff;stroke-width:1.27491653"
       id="g3556"
       transform="matrix(0.42010107,0,0,0.42010107,7.9079933,271.42233)">
      <path
         id="path3545"
         transform="translate(-494,-327.3)"
         d="m 512,327.3 a 18,18 0 0 0 -18,18 c 0,8.7 13.8,26.6 17.2,31 a 1,1 0 0 0 1.6,0 c 3.5,-4.4 17.2,-22.3 17.2,-31 a 18,18 0 0 0 -18,-18 z m 1.6,29.9 a 12,12 0 0 1 -13.5,-13.5 12.8,12.8 0 0 1 10.3,-10.3 12,12 0 0 1 13.5,13.5 12.8,12.8 0 0 1 -10.3,10.3 z m -5.7,-17.1 a 4.1,4.1 0 1 1 4.1,4.1 4.1,4.1 0 0 1 -4.1,-4.1 z m 4.1,5.9 a 8.8,8.8 0 0 0 -7.4,4.7 0.9,0.9 0 0 0 0.9,1.5 h 13 a 0.9,0.9 0 0 0 0.9,-1.5 8.8,8.8 0 0 0 -7.4,-4.6 z"
         inkscape:connector-curvature="0"
         style="fill:#ffffff;stroke-width:1.27491653" />
    </g>
    <g
       transform="translate(-217.16267,-39.376078)"
       id="g7696">
      <circle
         r="15.429199"
         cy="320.94687"
         cx="232.59187"
         id="circle1093-0-75-5-6-2"
         style="fill:#40a073;fill-opacity:1;stroke-width:0.46499997" />
      <path
         style="fill:#ffffff;stroke-width:0.26458335"
         inkscape:connector-curvature="0"
         d="m 224.75301,321.35978 a 3.2004167,3.2004167 0 0 0 -0.0813,1.1621 l -1.2016,0.99011 a 0.30911795,0.30911795 0 0 1 -0.49971,-0.29982 l 0.52527,-2.60543 a 0.30911795,0.30911795 0 0 0 -0.27193,-0.36954 l -2.65888,-0.25799 a 0.30911795,0.30911795 0 0 1 -0.14177,-0.56478 l 2.22425,-1.47819 a 0.30911795,0.30911795 0 0 0 0.0674,-0.46483 l -1.69666,-2.06157 a 0.30911795,0.30911795 0 0 1 0.29982,-0.4997 l 2.61704,0.52759 a 0.30911795,0.30911795 0 0 0 0.36955,-0.2696 l 0.25799,-2.64958 a 0.30911795,0.30911795 0 0 1 0.56478,-0.13946 l 1.47819,2.22426 a 0.30911795,0.30911795 0 0 0 0.46483,0.0674 l 2.04762,-1.69899 a 0.30911795,0.30911795 0 0 1 0.4997,0.29982 l -0.38349,1.91747 c -0.093,0.10458 -0.18594,0.20917 -0.26961,0.32073 l -1.09702,1.46657 -0.37652,0.48808 a 3.2910603,3.2910603 0 0 0 -2.32419,2.3242 z m 16.88063,4.52289 a 2.1405837,2.1405837 0 0 1 -0.59964,1.00173 2.7657922,2.7657922 0 0 1 -0.29982,0.23241 l -0.47879,1.78266 a 1.0807507,1.0807507 0 0 1 -0.19291,0.38814 1.0923717,1.0923717 0 0 1 -1.14582,0.3835 l -1.05519,-0.28123 a 1.0923717,1.0923717 0 0 1 -0.77163,-1.33874 l 0.28123,-1.05518 -8.43451,-2.25447 -0.28355,1.05518 a 1.0923717,1.0923717 0 0 1 -1.33874,0.77163 l -1.05518,-0.28122 a 1.0946959,1.0946959 0 0 1 -0.80185,-0.90644 1.1179378,1.1179378 0 0 1 0.0279,-0.4323 l 0.47879,-1.78266 a 2.6890937,2.6890937 0 0 1 -0.13945,-0.35792 2.1219901,2.1219901 0 0 1 -0.0163,-1.1621 l 0.423,-1.59672 a 2.1638256,2.1638256 0 0 1 1.25971,-1.42938 2.6263405,2.6263405 0 0 1 0.63218,-0.16037 l 0.61824,-0.82742 1.09702,-1.46656 a 3.8349219,3.8349219 0 0 1 1.2969,-1.104 3.7814654,3.7814654 0 0 1 1.61532,-0.42765 3.8697848,3.8697848 0 0 1 1.14118,0.13016 l 4.18355,1.12258 a 3.8558397,3.8558397 0 0 1 1.05286,0.46484 4.5298562,4.5298562 0 0 1 1.18534,1.17837 3.8395703,3.8395703 0 0 1 0.56943,1.58975 l 0.21847,1.81984 0.12318,1.02497 a 2.5775324,2.5775324 0 0 1 0.77628,1.02265 2.1475563,2.1475563 0 0 1 0.0604,1.31085 z m -13.96144,-4.88081 a 1.0296184,1.0296184 0 0 0 0.77163,1.33409 c 0.63218,0.16966 1.55489,0.52991 1.72456,-0.10227 0.16966,-0.63218 -0.52527,-1.83146 -1.1621,-2.00113 a 1.0296184,1.0296184 0 0 0 -1.33177,0.77628 z m 11.03993,-1.62694 a 1.6594753,1.6594753 0 0 0 -0.13016,-0.46484 1.6408817,1.6408817 0 0 0 -1.07145,-0.91573 l -4.18355,-1.12259 a 1.9918352,1.9918352 0 0 0 -0.42533,-0.0558 1.8593561,1.8593561 0 0 0 -1.31085,0.65543 l -1.10166,1.46656 5.87091,1.57581 2.57056,0.69726 z m -1.1621,4.83898 c -0.16967,0.62985 0.80882,0.78092 1.44332,0.94827 a 1.0877233,1.0877233 0 1 0 0.56246,-2.09178 c -0.62753,-0.17431 -1.83844,0.5183 -1.99881,1.15048 z"
         id="path3757" />
    </g>
  </g>
</svg>
