<?xml version="1.0" encoding="UTF-8" standalone="no"?>
<!-- Created with Inkscape (http://www.inkscape.org/) -->

<svg
   xmlns:dc="http://purl.org/dc/elements/1.1/"
   xmlns:cc="http://creativecommons.org/ns#"
   xmlns:rdf="http://www.w3.org/1999/02/22-rdf-syntax-ns#"
   xmlns:svg="http://www.w3.org/2000/svg"
   xmlns="http://www.w3.org/2000/svg"
   xmlns:sodipodi="http://sodipodi.sourceforge.net/DTD/sodipodi-0.dtd"
   xmlns:inkscape="http://www.inkscape.org/namespaces/inkscape"
   width="30.858mm"
   height="30.858mm"
   viewBox="0 0 30.858 30.858"
   version="1.1"
   id="svg1933"
   inkscape:version="0.92.5 (2060ec1f9f, 2020-04-08)"
   sodipodi:docname="Community participation in planning.svg">
  <defs
     id="defs1927" />
  <sodipodi:namedview
     id="base"
     pagecolor="#ffffff"
     bordercolor="#666666"
     borderopacity="1.0"
     inkscape:pageopacity="0.0"
     inkscape:pageshadow="2"
     inkscape:zoom="2.8"
     inkscape:cx="89.474658"
     inkscape:cy="11.049758"
     inkscape:document-units="mm"
     inkscape:current-layer="layer1"
     showgrid="false"
     units="mm"
     showguides="true"
     inkscape:guide-bbox="true"
     inkscape:snap-global="true"
     inkscape:window-width="1090"
     inkscape:window-height="767"
     inkscape:window-x="144"
     inkscape:window-y="70"
     inkscape:window-maximized="0">
    <sodipodi:guide
       position="0,16.503893"
       orientation="1,0"
       id="guide2524"
       inkscape:locked="false"
       inkscape:label=""
       inkscape:color="rgb(0,0,255)" />
    <sodipodi:guide
       position="14.29892,0"
       orientation="0,1"
       id="guide2526"
       inkscape:locked="false"
       inkscape:label=""
       inkscape:color="rgb(0,0,255)" />
  </sodipodi:namedview>
  <metadata
     id="metadata1930">
    <rdf:RDF>
      <cc:Work
         rdf:about="">
        <dc:format>image/svg+xml</dc:format>
        <dc:type
           rdf:resource="http://purl.org/dc/dcmitype/StillImage" />
        <dc:title></dc:title>
      </cc:Work>
    </rdf:RDF>
  </metadata>
  <g
     inkscape:label="Layer 1"
     inkscape:groupmode="layer"
     id="layer1"
     transform="translate(0,-266.14199)">
    <g
       style="fill:#ffffff;stroke-width:1.20943701"
       id="g1829"
       transform="matrix(0.04272767,0,0,0.04272767,4.3256279,270.19715)">
      <path
         id="path1806"
         d="m 405.7,165.4 -16.9,6.4 c -6.3,2.4 -12.9,3.6 -19.6,3.6 -1.4,0 -2.9,-0.1 -4.3,-0.2 -18.8,-1.4 -51.9,-4 -73.2,-5.6 L 256,206.4 220,169.2 c -15.6,-16 -37,-25.1 -59.3,-25.1 -0.2,0 -0.5,0 -0.7,0 -10.6,0.1 -21.1,2.2 -30.8,6.4 l -0.8,0.3 c -9.6,4.2 -18.3,10.4 -25.5,18.1 -30.9,33.6 -30.5,85.4 1,118.4 l 48.4,50 c 21.2,1.6 54.7,4.2 73.8,5.6 11.9,0.9 22.3,8.5 26.7,19.6 l 0.2,0.5 c 6.3,15.8 -1.4,33.7 -17.2,40 -2.1,0.8 -4.3,1.4 -6.5,1.8 l -23.7,3.9 24.9,10.6 c 6,2.6 12.8,2.6 18.9,0 l 53,-22.7 105.7,-109.3 c 31.5,-33 31.9,-84.8 1,-118.4 -1.1,-1.2 -2.2,-2.4 -3.4,-3.5 z M 240,280 h -32 v 32 h -32 v -32 h -32 v -32 h 32 v -32 h 32 v 32 h 32 z m 96,8 -16,8 v 48 h -32 v -48 l -16,-8 v -30.1 c 0,-6.1 3.4,-11.6 8.8,-14.3 L 304,232 l -7.2,-3.6 c -5.4,-2.7 -8.8,-8.3 -8.8,-14.3 v -4.2 c 0,-8.8 7.2,-16 16,-16 8.8,0 16,7.2 16,16 v 4.2 c 0,6.1 -3.4,11.6 -8.8,14.3 l -7.2,3.6 23.2,11.6 c 5.4,2.7 8.8,8.3 8.8,14.3 z"
         inkscape:connector-curvature="0"
         style="fill:#ffffff;stroke-width:1.20943701" />
      <rect
         id="rect1808"
         height="88"
         width="32"
         y="376"
         x="32"
         style="fill:#ffffff;stroke-width:1.20943701" />
      <path
         id="path1810"
         d="M 407.3,45.1 378.7,33.7 C 375.9,32.6 372.8,32 369.8,32 h -121 c -4.3,0 -8.6,1.2 -12.3,3.4 l -132.1,79.3 c -6.3,3.8 -8.4,12 -4.6,18.3 3.4,5.7 10.6,8 16.7,5.4 l 4.4,-1.9 c 1.2,-0.5 2.3,-1 3.5,-1.5 L 272,71.3 l 63.9,27.2 14.9,-2.4 2.6,15.8 -68.2,11.1 c -8.1,1.3 -13.5,8.9 -12.2,17 0.2,1.1 0.5,2.1 0.9,3.1 l 0.2,0.5 c 2.1,5.5 7.2,9.2 13,9.6 20.8,1.5 58.4,4.4 78.9,6 5.8,0.5 11.6,-0.4 17.1,-2.4 L 432,138.5 V 48 h -9.8 c -5.1,0 -10.2,-1 -14.9,-2.9 z"
         inkscape:connector-curvature="0"
         style="fill:#ffffff;stroke-width:1.20943701" />
      <rect
         id="rect1812"
         height="88"
         width="32"
         y="48"
         x="448"
         style="fill:#ffffff;stroke-width:1.20943701" />
      <path
         id="path1814"
         d="M 395.9,373.9 255.7,434 c -10,4.3 -21.4,4.3 -31.4,0 l -48.1,-20.5 -14.9,2.4 -2.6,-15.8 68.1,-11.1 c 8.1,-1.3 13.5,-8.9 12.2,-17 -0.2,-1.1 -0.5,-2.1 -0.9,-3.1 l -0.2,-0.5 c -2.1,-5.5 -7.2,-9.2 -13,-9.6 -20.8,-1.5 -58.4,-4.4 -78.9,-6 -5.8,-0.5 -11.6,0.4 -17.1,2.4 L 80,373.5 V 464 h 9.8 c 5.1,0 10.1,1 14.9,2.9 l 28.6,11.4 c 2.8,1.1 5.9,1.7 8.9,1.7 h 121 c 4.3,0 8.6,-1.2 12.3,-3.4 l 132.3,-79.4 c 6.2,-3.7 8.2,-11.8 4.5,-18 -3.4,-5.6 -10.4,-7.9 -16.4,-5.3 z"
         inkscape:connector-curvature="0"
         style="fill:#ffffff;stroke-width:1.20943701" />
    </g>
    <g
       transform="translate(-300.54498,67.780217)"
       id="g7054">
      <circle
         style="fill:#40a073;fill-opacity:1;stroke-width:0.46499997"
         id="circle1093-0-75-5-8-6"
         cx="315.97418"
         cy="213.79057"
         r="15.429199" />
      <g
         transform="matrix(0.23713727,0,0,0.23713727,304.72163,201.42592)"
         id="g3401"
         style="fill:#ffffff;stroke-width:1.11573911">
        <g
           style="fill:#ffffff;stroke-width:1.11573911"
           id="g3350">
          <path
             style="fill:#ffffff;stroke-width:1.11573911"
             inkscape:connector-curvature="0"
             d="m 98.729,71.51 -12.8,-11.324 c -0.311,-0.276 -0.736,-0.374 -1.134,-0.27 l -8.471,2.234 c -0.492,0.13 -0.856,0.55 -0.913,1.057 l -0.208,1.857 -4.223,-1.035 -0.001,-9.892 4.448,4.062 3.999,-4.382 -25.68,-23.437 -25.911,23.206 3.957,4.418 4.439,-3.974 0.027,30.38 7.561,-10e-4 V 67.928 h 7.27 v 16.481 l 19.894,-0.001 -0.002,-18.984 4.069,0.998 -0.614,5.495 c -0.047,0.402 0.106,0.801 0.412,1.067 L 87.52,84.103 c 0.233,0.206 0.524,0.307 0.815,0.307 0.341,0 0.678,-0.14 0.922,-0.413 L 98.832,73.26 c 0.22,-0.245 0.331,-0.567 0.312,-0.896 -0.021,-0.33 -0.169,-0.635 -0.415,-0.854 z M 51.089,61.143 h -7.27 v -7.499 h 7.27 z m 12.562,0 H 56.38 v -7.499 h 7.271 z m 24.577,20.295 -11.267,-9.886 0.511,-4.538 1.89,0.464 c 0.067,0.824 0.641,1.551 1.487,1.757 1.057,0.26 2.126,-0.387 2.387,-1.446 0.26,-1.058 -0.388,-2.126 -1.446,-2.385 -0.806,-0.198 -1.615,0.133 -2.072,0.768 l -2.094,-0.515 0.15,-1.332 7.012,-1.852 11.378,10.065 z"
             id="path3348" />
        </g>
        <rect
           style="fill:#ffffff;stroke-width:1.11573911"
           x="13.353"
           y="34.025002"
           width="4.8369999"
           height="4.836"
           id="rect3352" />
        <rect
           style="fill:#ffffff;stroke-width:1.11573911"
           x="20.608"
           y="34.025002"
           width="4.8369999"
           height="4.836"
           id="rect3354" />
        <rect
           style="fill:#ffffff;stroke-width:1.11573911"
           x="27.863001"
           y="34.025002"
           width="4.8369999"
           height="4.836"
           id="rect3356" />
        <rect
           style="fill:#ffffff;stroke-width:1.11573911"
           x="6.027"
           y="41.290001"
           width="4.8369999"
           height="4.8369999"
           id="rect3358" />
        <rect
           style="fill:#ffffff;stroke-width:1.11573911"
           x="13.282"
           y="41.290001"
           width="4.8369999"
           height="4.8369999"
           id="rect3360" />
        <rect
           style="fill:#ffffff;stroke-width:1.11573911"
           x="20.538"
           y="41.290001"
           width="4.836"
           height="4.8369999"
           id="rect3362" />
        <rect
           style="fill:#ffffff;stroke-width:1.11573911"
           x="27.792"
           y="41.290001"
           width="4.8369999"
           height="4.8369999"
           id="rect3364" />
        <rect
           style="fill:#ffffff;stroke-width:1.11573911"
           x="6.098"
           y="48.544998"
           width="4.8369999"
           height="4.836"
           id="rect3366" />
        <rect
           style="fill:#ffffff;stroke-width:1.11573911"
           x="13.353"
           y="48.544998"
           width="4.8369999"
           height="4.836"
           id="rect3368" />
        <rect
           style="fill:#ffffff;stroke-width:1.11573911"
           x="20.608"
           y="48.544998"
           width="4.8369999"
           height="4.836"
           id="rect3370" />
        <path
           style="fill:#ffffff;stroke-width:1.11573911"
           inkscape:connector-curvature="0"
           d="m 12.841,23.177 v -5.691 c 0,-1.068 -0.867,-1.934 -1.934,-1.934 -1.068,0 -1.934,0.865 -1.934,1.934 v 5.691 z"
           id="path3372" />
        <path
           style="fill:#ffffff;stroke-width:1.11573911"
           inkscape:connector-curvature="0"
           d="m 29.769,23.177 v -5.691 c 0,-1.068 -0.866,-1.934 -1.934,-1.934 -1.067,0 -1.934,0.865 -1.934,1.934 v 5.691 z"
           id="path3374" />
        <path
           style="fill:#ffffff;stroke-width:1.11573911"
           inkscape:connector-curvature="0"
           d="M 25.445,55.944 H 5.227 c -0.8,0 -1.451,-0.65 -1.451,-1.451 V 31.848 c 0,-0.04 0.003,-0.081 0.006,-0.12 h 31.165 c 0.003,0.04 0.006,0.08 0.006,0.12 v 8.77 l 2.902,-2.646 V 23.173 H 0.873 v 0.004 31.316 c 0,2.4 1.953,4.354 4.354,4.354 h 20.218 z m 0.459,-29.321 v -1.725 -1.721 h 3.862 v 1.721 1.725 0.069 h -0.003 c -0.037,1.034 -0.884,1.862 -1.928,1.862 -1.043,0 -1.891,-0.828 -1.928,-1.862 h -0.003 z m -16.931,0 v -1.725 -1.721 h 3.862 v 1.721 1.725 0.069 h -0.003 c -0.037,1.034 -0.884,1.862 -1.927,1.862 -1.043,0 -1.892,-0.828 -1.928,-1.862 H 8.973 Z"
           id="path3376" />
      </g>
    </g>
  </g>
</svg>
