<?xml version="1.0" encoding="UTF-8" standalone="no"?>
<!-- Created with Inkscape (http://www.inkscape.org/) -->

<svg
   xmlns:i="http://ns.adobe.com/AdobeIllustrator/10.0/"
   xmlns:dc="http://purl.org/dc/elements/1.1/"
   xmlns:cc="http://creativecommons.org/ns#"
   xmlns:rdf="http://www.w3.org/1999/02/22-rdf-syntax-ns#"
   xmlns:svg="http://www.w3.org/2000/svg"
   xmlns="http://www.w3.org/2000/svg"
   xmlns:sodipodi="http://sodipodi.sourceforge.net/DTD/sodipodi-0.dtd"
   xmlns:inkscape="http://www.inkscape.org/namespaces/inkscape"
   width="30.858mm"
   height="30.858mm"
   viewBox="0 0 30.858 30.858"
   version="1.1"
   id="svg1933"
   inkscape:version="0.92.5 (2060ec1f9f, 2020-04-08)"
   sodipodi:docname="Community action to resolve minor antisocial behaviour.svg">
  <defs
     id="defs1927">
    <mask
       maskUnits="userSpaceOnUse"
       id="mask2260">
      <rect
         style="opacity:1;fill:#ffffff;fill-opacity:1;stroke:none;stroke-width:0.56499994;stroke-miterlimit:4;stroke-dasharray:none;stroke-opacity:1"
         id="rect2262"
         width="86.248459"
         height="109.59391"
         x="10.399542"
         y="-2.1886201" />
    </mask>
  </defs>
  <sodipodi:namedview
     id="base"
     pagecolor="#ffffff"
     bordercolor="#666666"
     borderopacity="1.0"
     inkscape:pageopacity="0.0"
     inkscape:pageshadow="2"
     inkscape:zoom="2.8"
     inkscape:cx="9.0494571"
     inkscape:cy="49.641564"
     inkscape:document-units="mm"
     inkscape:current-layer="layer1"
     showgrid="false"
     units="mm"
     showguides="true"
     inkscape:guide-bbox="true"
     inkscape:snap-global="true"
     inkscape:window-width="1090"
     inkscape:window-height="767"
     inkscape:window-x="830"
     inkscape:window-y="156"
     inkscape:window-maximized="0"
     inkscape:snap-others="false"
     inkscape:snap-bbox="true"
     inkscape:bbox-nodes="true"
     inkscape:snap-nodes="false">
    <sodipodi:guide
       position="0,16.503893"
       orientation="1,0"
       id="guide2524"
       inkscape:locked="false"
       inkscape:label=""
       inkscape:color="rgb(0,0,255)" />
    <sodipodi:guide
       position="14.29892,0"
       orientation="0,1"
       id="guide2526"
       inkscape:locked="false"
       inkscape:label=""
       inkscape:color="rgb(0,0,255)" />
    <sodipodi:guide
       position="85.526248,30.858"
       orientation="0,1"
       id="guide7505"
       inkscape:locked="false"
       inkscape:label=""
       inkscape:color="rgb(0,0,255)" />
    <sodipodi:guide
       position="15.434815,33.542326"
       orientation="1,0"
       id="guide7585"
       inkscape:locked="false" />
  </sodipodi:namedview>
  <metadata
     id="metadata1930">
    <rdf:RDF>
      <cc:Work
         rdf:about="">
        <dc:format>image/svg+xml</dc:format>
        <dc:type
           rdf:resource="http://purl.org/dc/dcmitype/StillImage" />
        <dc:title></dc:title>
      </cc:Work>
    </rdf:RDF>
  </metadata>
  <g
     inkscape:label="Layer 1"
     inkscape:groupmode="layer"
     id="layer1"
     transform="translate(0,-266.14199)">
    <g
       style="fill:#ffffff"
       id="g1937"
       transform="matrix(0.05167643,0,0,0.05167643,2.2514744,267.80335)">
      <g
         id="g1924"
         style="fill:#ffffff">
        <path
           id="path1920"
           d="m 274.8,274.8 v 18.8 h -37.5 v -18.8 c 0,-10.3 8.4,-18.8 18.8,-18.8 10.4,0 18.7,8.4 18.7,18.8 z"
           inkscape:connector-curvature="0"
           style="fill:#ffffff" />
        <path
           id="path1922"
           d="m 256,68.5 -93.7,65.6 V 68.5 h -37.5 v 91.9 L 68.6,199.8 H 106 V 443.5 H 406 V 199.8 h 37.5 z m 56.3,318.7 H 199.8 c -10.4,0 -18.8,-8.4 -18.8,-18.8 v -75 h 18.8 v -15.7 c 0,-30.5 22.9,-57.7 53.3,-59.3 32.5,-1.6 59.2,24.1 59.2,56.2 v 18.8 H 331 v 75 c 0,10.5 -8.4,18.8 -18.7,18.8 z"
           inkscape:connector-curvature="0"
           style="fill:#ffffff" />
      </g>
    </g>
    <g
       transform="translate(-300.7981,-320.73066)"
       id="g2018">
      <circle
         style="fill:#40a073;fill-opacity:1;stroke-width:0.46499997"
         id="circle1093-0-8-8-7-4-5"
         cx="316.22729"
         cy="602.30145"
         r="15.429199" />
      <g
         transform="matrix(0.21709809,0,0,0.21709809,304.71612,591.33426)"
         id="g4628"
         style="fill:#ffffff;stroke-width:1.21872711">
        <g
           style="fill:#ffffff;stroke-width:1.21872711"
           id="g4604">
          <g
             style="fill:#ffffff;stroke-width:1.21872711"
             i:extraneous="self"
             id="g4602">
            <g
               style="fill:#ffffff;stroke-width:1.21872711"
               id="g4600">
              <path
                 style="fill:#ffffff;stroke-width:1.21872711"
                 inkscape:connector-curvature="0"
                 d="m 62.8,41.2 -5.6,-1.7 c -0.7,-0.2 -1.5,0.2 -1.7,0.9 l -0.6,1.8 c 2.3,1.8 3.4,4.8 2.7,7.9 -0.8,3.2 -3.5,5.5 -6.7,5.8 0.1,0.4 0.5,0.8 0.9,0.9 l 5.6,1.7 c 0.7,0.2 1.5,-0.2 1.7,-0.9 L 63.8,43 c 0.2,-0.8 -0.2,-1.6 -1,-1.8 z"
                 id="path4578" />
              <path
                 style="fill:#ffffff;stroke-width:1.21872711"
                 inkscape:connector-curvature="0"
                 d="M 64.7,37.4 63.8,37.1 64,36.6 c 0.1,-0.4 -0.1,-0.9 -0.5,-1 L 60,34.5 c -0.4,-0.1 -0.9,0.1 -1,0.5 l -1,3 5,1.6 0.4,-1.3 0.9,0.3 c 0.2,0.1 0.4,0 0.4,-0.2 l 0.2,-0.6 c 0,-0.1 -0.1,-0.3 -0.2,-0.4 z"
                 id="path4580" />
              <circle
                 style="fill:#ffffff;stroke-width:1.21872711"
                 r="1.3"
                 transform="matrix(0.2971,-0.9548,0.9548,0.2971,10.2772,91.9445)"
                 cx="67.599998"
                 cy="39"
                 id="ellipse4582" />
              <circle
                 style="fill:#ffffff;stroke-width:1.21872711"
                 r="1.3"
                 transform="matrix(0.2971,-0.9548,0.9548,0.2971,9.0674,96.7296)"
                 cx="70.199997"
                 cy="42.200001"
                 id="ellipse4584" />
              <circle
                 style="fill:#ffffff;stroke-width:1.21872711"
                 r="1.3"
                 transform="matrix(0.2971,-0.9548,0.9548,0.2971,14.1848,94.9599)"
                 cx="71.599998"
                 cy="37.799999"
                 id="ellipse4586" />
              <circle
                 style="fill:#ffffff;stroke-width:1.21872711"
                 r="1.3"
                 transform="matrix(0.297,-0.9549,0.9549,0.297,7.8624,101.52)"
                 cx="72.900002"
                 cy="45.400002"
                 id="ellipse4588" />
              <circle
                 style="fill:#ffffff;stroke-width:1.21872711"
                 r="1.3"
                 transform="matrix(0.297,-0.9549,0.9549,0.297,12.9797,99.7496)"
                 cx="74.199997"
                 cy="41.099998"
                 id="ellipse4590" />
              <circle
                 style="fill:#ffffff;stroke-width:1.21872711"
                 r="1.3"
                 transform="matrix(0.2965,-0.955,0.955,0.2965,18.1296,98.0099)"
                 cx="75.599998"
                 cy="36.700001"
                 id="ellipse4592" />
              <path
                 style="fill:#ffffff;stroke-width:1.21872711"
                 inkscape:connector-curvature="0"
                 d="m 54.7,49.3 c 0.6,-2.5 -0.9,-5.1 -3.5,-5.7 l -8.5,-2.1 c -3,-8 -4,-9.3 -4.4,-9.7 -0.6,-0.8 -2.9,-3.5 -5.8,-5.3 l -3.3,-2 c -1.7,-1.1 -3.9,-1.4 -5.9,-0.8 -2,0.6 -3.6,2 -4.5,3.8 L 17,31.2 8.4,47.5 C 7.6,49 7.5,50.7 8.1,52.2 l 8,20.2 v 19.3 c 0,3.1 2.5,5.7 5.7,5.7 3.1,0 5.7,-2.5 5.7,-5.7 V 71.4 c 0,-0.7 -0.1,-1.4 -0.4,-2.1 L 22.6,57.8 32.4,41.1 c 0.7,1.8 1.6,4 2.3,6 0.5,1.5 1.8,2.6 3.3,3 l 11,2.7 c 0.4,0.1 0.8,0.1 1.1,0.1 2.1,0.1 4,-1.4 4.6,-3.6 z"
                 id="path4594" />
              <circle
                 style="fill:#ffffff;stroke-width:1.21872711"
                 r="10"
                 transform="matrix(0.9877,-0.1567,0.1567,0.9877,-1.8864,6.1862)"
                 cx="38.299999"
                 cy="15.1"
                 id="ellipse4596" />
              <path
                 style="fill:#ffffff;stroke-width:1.21872711"
                 inkscape:connector-curvature="0"
                 d="m 90.7,2.5 h -6.8 c -0.8,0 -1.5,0.7 -1.5,1.5 v 92 c 0,0.8 0.7,1.5 1.5,1.5 h 6.8 c 0.8,0 1.5,-0.7 1.5,-1.5 V 4 c 0,-0.8 -0.6,-1.5 -1.5,-1.5 z"
                 id="path4598" />
            </g>
          </g>
        </g>
      </g>
    </g>
  </g>
</svg>
