<?xml version="1.0" encoding="UTF-8" standalone="no"?>
<!-- Created with Inkscape (http://www.inkscape.org/) -->

<svg
   xmlns:dc="http://purl.org/dc/elements/1.1/"
   xmlns:cc="http://creativecommons.org/ns#"
   xmlns:rdf="http://www.w3.org/1999/02/22-rdf-syntax-ns#"
   xmlns:svg="http://www.w3.org/2000/svg"
   xmlns="http://www.w3.org/2000/svg"
   xmlns:sodipodi="http://sodipodi.sourceforge.net/DTD/sodipodi-0.dtd"
   xmlns:inkscape="http://www.inkscape.org/namespaces/inkscape"
   width="30.858mm"
   height="30.858mm"
   viewBox="0 0 30.858 30.858"
   version="1.1"
   id="svg1933"
   inkscape:version="0.92.5 (2060ec1f9f, 2020-04-08)"
   sodipodi:docname="Community capacity &amp; empowerment.svg">
  <defs
     id="defs1927">
    <mask
       maskUnits="userSpaceOnUse"
       id="mask2260">
      <rect
         style="opacity:1;fill:#ffffff;fill-opacity:1;stroke:none;stroke-width:0.56499994;stroke-miterlimit:4;stroke-dasharray:none;stroke-opacity:1"
         id="rect2262"
         width="86.248459"
         height="109.59391"
         x="10.399542"
         y="-2.1886201" />
    </mask>
  </defs>
  <sodipodi:namedview
     id="base"
     pagecolor="#ffffff"
     bordercolor="#666666"
     borderopacity="1.0"
     inkscape:pageopacity="0.0"
     inkscape:pageshadow="2"
     inkscape:zoom="2.8"
     inkscape:cx="59.624689"
     inkscape:cy="25.969666"
     inkscape:document-units="mm"
     inkscape:current-layer="layer1"
     showgrid="false"
     units="mm"
     showguides="true"
     inkscape:guide-bbox="true"
     inkscape:snap-global="true"
     inkscape:window-width="1090"
     inkscape:window-height="767"
     inkscape:window-x="824"
     inkscape:window-y="161"
     inkscape:window-maximized="0"
     inkscape:snap-others="false"
     inkscape:snap-bbox="true"
     inkscape:bbox-nodes="true"
     inkscape:snap-nodes="false">
    <sodipodi:guide
       position="0,16.503893"
       orientation="1,0"
       id="guide2524"
       inkscape:locked="false"
       inkscape:label=""
       inkscape:color="rgb(0,0,255)" />
    <sodipodi:guide
       position="14.29892,0"
       orientation="0,1"
       id="guide2526"
       inkscape:locked="false"
       inkscape:label=""
       inkscape:color="rgb(0,0,255)" />
    <sodipodi:guide
       position="85.526248,30.858"
       orientation="0,1"
       id="guide7505"
       inkscape:locked="false"
       inkscape:label=""
       inkscape:color="rgb(0,0,255)" />
    <sodipodi:guide
       position="15.434815,33.542326"
       orientation="1,0"
       id="guide7585"
       inkscape:locked="false" />
  </sodipodi:namedview>
  <metadata
     id="metadata1930">
    <rdf:RDF>
      <cc:Work
         rdf:about="">
        <dc:format>image/svg+xml</dc:format>
        <dc:type
           rdf:resource="http://purl.org/dc/dcmitype/StillImage" />
        <dc:title></dc:title>
      </cc:Work>
    </rdf:RDF>
  </metadata>
  <g
     inkscape:label="Layer 1"
     inkscape:groupmode="layer"
     id="layer1"
     transform="translate(0,-266.14199)">
    <g
       style="fill:#ffffff;stroke-width:1.20943701"
       id="g1829"
       transform="matrix(0.04272767,0,0,0.04272767,4.3256279,270.19715)">
      <path
         id="path1806"
         d="m 405.7,165.4 -16.9,6.4 c -6.3,2.4 -12.9,3.6 -19.6,3.6 -1.4,0 -2.9,-0.1 -4.3,-0.2 -18.8,-1.4 -51.9,-4 -73.2,-5.6 L 256,206.4 220,169.2 c -15.6,-16 -37,-25.1 -59.3,-25.1 -0.2,0 -0.5,0 -0.7,0 -10.6,0.1 -21.1,2.2 -30.8,6.4 l -0.8,0.3 c -9.6,4.2 -18.3,10.4 -25.5,18.1 -30.9,33.6 -30.5,85.4 1,118.4 l 48.4,50 c 21.2,1.6 54.7,4.2 73.8,5.6 11.9,0.9 22.3,8.5 26.7,19.6 l 0.2,0.5 c 6.3,15.8 -1.4,33.7 -17.2,40 -2.1,0.8 -4.3,1.4 -6.5,1.8 l -23.7,3.9 24.9,10.6 c 6,2.6 12.8,2.6 18.9,0 l 53,-22.7 105.7,-109.3 c 31.5,-33 31.9,-84.8 1,-118.4 -1.1,-1.2 -2.2,-2.4 -3.4,-3.5 z M 240,280 h -32 v 32 h -32 v -32 h -32 v -32 h 32 v -32 h 32 v 32 h 32 z m 96,8 -16,8 v 48 h -32 v -48 l -16,-8 v -30.1 c 0,-6.1 3.4,-11.6 8.8,-14.3 L 304,232 l -7.2,-3.6 c -5.4,-2.7 -8.8,-8.3 -8.8,-14.3 v -4.2 c 0,-8.8 7.2,-16 16,-16 8.8,0 16,7.2 16,16 v 4.2 c 0,6.1 -3.4,11.6 -8.8,14.3 l -7.2,3.6 23.2,11.6 c 5.4,2.7 8.8,8.3 8.8,14.3 z"
         inkscape:connector-curvature="0"
         style="fill:#ffffff;stroke-width:1.20943701" />
      <rect
         id="rect1808"
         height="88"
         width="32"
         y="376"
         x="32"
         style="fill:#ffffff;stroke-width:1.20943701" />
      <path
         id="path1810"
         d="M 407.3,45.1 378.7,33.7 C 375.9,32.6 372.8,32 369.8,32 h -121 c -4.3,0 -8.6,1.2 -12.3,3.4 l -132.1,79.3 c -6.3,3.8 -8.4,12 -4.6,18.3 3.4,5.7 10.6,8 16.7,5.4 l 4.4,-1.9 c 1.2,-0.5 2.3,-1 3.5,-1.5 L 272,71.3 l 63.9,27.2 14.9,-2.4 2.6,15.8 -68.2,11.1 c -8.1,1.3 -13.5,8.9 -12.2,17 0.2,1.1 0.5,2.1 0.9,3.1 l 0.2,0.5 c 2.1,5.5 7.2,9.2 13,9.6 20.8,1.5 58.4,4.4 78.9,6 5.8,0.5 11.6,-0.4 17.1,-2.4 L 432,138.5 V 48 h -9.8 c -5.1,0 -10.2,-1 -14.9,-2.9 z"
         inkscape:connector-curvature="0"
         style="fill:#ffffff;stroke-width:1.20943701" />
      <rect
         id="rect1812"
         height="88"
         width="32"
         y="48"
         x="448"
         style="fill:#ffffff;stroke-width:1.20943701" />
      <path
         id="path1814"
         d="M 395.9,373.9 255.7,434 c -10,4.3 -21.4,4.3 -31.4,0 l -48.1,-20.5 -14.9,2.4 -2.6,-15.8 68.1,-11.1 c 8.1,-1.3 13.5,-8.9 12.2,-17 -0.2,-1.1 -0.5,-2.1 -0.9,-3.1 l -0.2,-0.5 c -2.1,-5.5 -7.2,-9.2 -13,-9.6 -20.8,-1.5 -58.4,-4.4 -78.9,-6 -5.8,-0.5 -11.6,0.4 -17.1,2.4 L 80,373.5 V 464 h 9.8 c 5.1,0 10.1,1 14.9,2.9 l 28.6,11.4 c 2.8,1.1 5.9,1.7 8.9,1.7 h 121 c 4.3,0 8.6,-1.2 12.3,-3.4 l 132.3,-79.4 c 6.2,-3.7 8.2,-11.8 4.5,-18 -3.4,-5.6 -10.4,-7.9 -16.4,-5.3 z"
         inkscape:connector-curvature="0"
         style="fill:#ffffff;stroke-width:1.20943701" />
    </g>
    <g
       style="fill:#ffffff;stroke-width:1.27491653"
       id="g3556"
       transform="matrix(0.42010107,0,0,0.42010107,7.9079933,271.42233)">
      <path
         id="path3545"
         transform="translate(-494,-327.3)"
         d="m 512,327.3 a 18,18 0 0 0 -18,18 c 0,8.7 13.8,26.6 17.2,31 a 1,1 0 0 0 1.6,0 c 3.5,-4.4 17.2,-22.3 17.2,-31 a 18,18 0 0 0 -18,-18 z m 1.6,29.9 a 12,12 0 0 1 -13.5,-13.5 12.8,12.8 0 0 1 10.3,-10.3 12,12 0 0 1 13.5,13.5 12.8,12.8 0 0 1 -10.3,10.3 z m -5.7,-17.1 a 4.1,4.1 0 1 1 4.1,4.1 4.1,4.1 0 0 1 -4.1,-4.1 z m 4.1,5.9 a 8.8,8.8 0 0 0 -7.4,4.7 0.9,0.9 0 0 0 0.9,1.5 h 13 a 0.9,0.9 0 0 0 0.9,-1.5 8.8,8.8 0 0 0 -7.4,-4.6 z"
         inkscape:connector-curvature="0"
         style="fill:#ffffff;stroke-width:1.27491653" />
    </g>
    <g
       transform="translate(-370.99976,-87.83433)"
       id="g8570">
      <circle
         style="fill:#40a073;fill-opacity:1;stroke-width:0.46499997"
         id="circle1093-0-75-5-4-2-7"
         cx="386.42896"
         cy="369.40512"
         r="15.429199" />
      <g
         transform="matrix(0.34213959,0,0,0.34213959,375.57755,358.76066)"
         id="g5685"
         style="fill:#ffffff;stroke-width:1.20831227">
        <path
           style="fill:#ffffff;stroke-width:1.20831227"
           inkscape:connector-curvature="0"
           d="M 31,39.41 V 34.5 C 31,34.102 30.841,33.715 30.563,33.438 30.285,33.159 29.897,33 29.5,33 28.673,33 28,33.673 28,34.5 v 2 2.5 h 1.34 c 0.582,0 1.146,0.152 1.66,0.41 z"
           id="path5620" />
        <path
           style="fill:#ffffff;stroke-width:1.20831227"
           inkscape:connector-curvature="0"
           d="M 26,39 V 36.5 C 26,36.102 25.841,35.715 25.563,35.438 25.285,35.159 24.897,35 24.5,35 23.673,35 23,35.673 23,36.5 v 3.092 C 23.74,39.216 24.575,39 25.46,39 Z"
           id="path5622" />
        <path
           style="fill:#ffffff;stroke-width:1.20831227"
           inkscape:connector-curvature="0"
           d="M 41,51.84 V 45.649 C 40.544,45.867 40.039,46 39.5,46 38.52,46 37.636,45.593 37,44.942 36.364,45.593 35.48,46 34.5,46 c -0.978,0 -1.861,-0.406 -2.497,-1.055 -0.01,0.01 -0.016,0.022 -0.026,0.032 -0.494,0.494 -1.113,0.822 -1.787,0.955 C 29.965,45.977 29.734,46 29.5,46 H 27 v 0.577 c 0.312,0.266 0.706,0.443 1.149,0.518 C 31.539,47.654 34,50.559 34,54 h -2 c 0,-2.458 -1.757,-4.532 -4.179,-4.933 -0.917,-0.152 -1.732,-0.563 -2.357,-1.189 L 25.292,47.706 C 25.105,47.519 25,47.265 25,47 v -2 c 0,-0.553 0.448,-1 1,-1 h 3.5 c 0.397,0 0.785,-0.159 1.063,-0.438 0.12,-0.12 0.211,-0.261 0.284,-0.412 0.008,-0.017 0.019,-0.032 0.026,-0.05 0.063,-0.145 0.099,-0.302 0.114,-0.463 0.003,-0.03 0.008,-0.06 0.009,-0.091 C 31.005,42.185 30.867,41.83 30.598,41.544 30.271,41.198 29.813,41 29.34,41 H 25.46 C 23.552,41 22,42.552 22,44.46 v 6.24 c 0,0.634 0.261,1.251 0.717,1.692 l 2.979,2.89 C 25.89,55.471 26,55.729 26,56 v 4.954 c 1.879,0.665 3.893,1.046 6,1.046 2.107,0 4.121,-0.381 6,-1.046 V 56 c 0,-0.43 0.275,-0.812 0.683,-0.948 C 40.069,54.588 41,53.297 41,51.84 Z"
           id="path5624" />
        <path
           style="fill:#ffffff;stroke-width:1.20831227"
           inkscape:connector-curvature="0"
           d="m 36,42.5 v -5 -3 C 36,33.673 35.327,33 34.5,33 33.673,33 33,33.673 33,34.5 v 8 c 0,0.827 0.673,1.5 1.5,1.5 0.827,0 1.5,-0.673 1.5,-1.5 z"
           id="path5626" />
        <path
           style="fill:#ffffff;stroke-width:1.20831227"
           inkscape:connector-curvature="0"
           d="m 32,26 c -9.941,0 -18,8.059 -18,18 0,7.063 4.078,13.159 10,16.107 V 56.423 L 21.324,53.828 C 20.482,53.012 20,51.871 20,50.7 v -6.24 c 0,-1.169 0.372,-2.25 1,-3.139 V 36.5 c 0,-1.93 1.57,-3.5 3.5,-3.5 0.601,0 1.17,0.164 1.68,0.445 C 26.631,32.032 27.94,31 29.5,31 c 0.938,0 1.817,0.363 2.477,1.023 0.01,0.01 0.016,0.022 0.026,0.031 C 32.639,31.406 33.522,31 34.5,31 c 1.881,0 3.41,1.496 3.486,3.359 C 38.446,34.136 38.955,34 39.5,34 c 1.93,0 3.5,1.57 3.5,3.5 v 5 c 0,0.171 -0.027,0.335 -0.051,0.5 H 43 v 8.84 c 0,2.069 -1.18,3.928 -3,4.827 v 3.44 C 45.922,57.159 50,51.063 50,44 50,34.059 41.941,26 32,26 Z"
           id="path5628" />
        <path
           style="fill:#ffffff;stroke-width:1.20831227"
           inkscape:connector-curvature="0"
           d="m 41,42.5 v -5 C 41,36.673 40.327,36 39.5,36 38.673,36 38,36.673 38,37.5 v 5 c 0,0.827 0.673,1.5 1.5,1.5 0.827,0 1.5,-0.673 1.5,-1.5 z"
           id="path5630" />
        <path
           style="fill:#ffffff;stroke-width:1.20831227"
           inkscape:connector-curvature="0"
           d="m 53,2 c -4.971,0 -9,4.029 -9,9 0,3.329 1.812,6.229 4.5,7.786 V 15.39 c 0,-1.191 0.467,-2.321 1.314,-3.181 0.383,-0.377 0.823,-0.665 1.292,-0.884 C 50.142,10.7 49.5,9.621 49.5,8.39 c 0,-1.93 1.57,-3.5 3.5,-3.5 1.93,0 3.5,1.57 3.5,3.5 0,1.23 -0.641,2.309 -1.604,2.934 1.533,0.718 2.604,2.265 2.604,4.066 v 3.396 C 60.188,17.229 62,14.329 62,11 62,6.029 57.971,2 53,2 Z"
           id="path5632" />
        <path
           style="fill:#ffffff;stroke-width:1.20831227"
           inkscape:connector-curvature="0"
           d="m 49.5,15.39 v 3.904 C 50.576,19.748 51.759,20 53,20 c 1.241,0 2.424,-0.252 3.5,-0.706 V 15.39 c 0,-1.93 -1.57,-3.5 -3.5,-3.5 -0.928,0 -1.808,0.364 -2.479,1.026 -0.657,0.666 -1.021,1.547 -1.021,2.474 z"
           id="path5634" />
        <circle
           style="fill:#ffffff;stroke-width:1.20831227"
           cx="53"
           cy="8.3900003"
           r="2.5"
           id="circle5636" />
        <path
           style="fill:#ffffff;stroke-width:1.20831227"
           inkscape:connector-curvature="0"
           d="m 28.5,15.39 v 3.904 C 29.576,19.748 30.759,20 32,20 c 1.241,0 2.424,-0.252 3.5,-0.706 V 15.39 c 0,-1.93 -1.57,-3.5 -3.5,-3.5 -0.928,0 -1.808,0.364 -2.479,1.026 -0.657,0.666 -1.021,1.547 -1.021,2.474 z"
           id="path5638" />
        <path
           style="fill:#ffffff;stroke-width:1.20831227"
           inkscape:connector-curvature="0"
           d="m 41,11 c 0,-4.971 -4.029,-9 -9,-9 -4.971,0 -9,4.029 -9,9 0,3.329 1.812,6.229 4.5,7.786 V 15.39 c 0,-1.191 0.467,-2.321 1.314,-3.181 0.383,-0.377 0.823,-0.665 1.292,-0.884 C 29.142,10.7 28.5,9.621 28.5,8.39 c 0,-1.93 1.57,-3.5 3.5,-3.5 1.93,0 3.5,1.57 3.5,3.5 0,1.23 -0.641,2.309 -1.604,2.934 1.533,0.718 2.604,2.265 2.604,4.066 v 3.396 C 39.188,17.229 41,14.329 41,11 Z"
           id="path5640" />
        <circle
           style="fill:#ffffff;stroke-width:1.20831227"
           cx="32"
           cy="8.3900003"
           r="2.5"
           id="circle5642" />
        <path
           style="fill:#ffffff;stroke-width:1.20831227"
           inkscape:connector-curvature="0"
           d="m 7.5,15.39 v 3.904 C 8.576,19.748 9.759,20 11,20 c 1.241,0 2.424,-0.252 3.5,-0.706 V 15.39 c 0,-1.93 -1.57,-3.5 -3.5,-3.5 -0.928,0 -1.808,0.364 -2.479,1.026 C 7.864,13.582 7.5,14.463 7.5,15.39 Z"
           id="path5644" />
        <circle
           style="fill:#ffffff;stroke-width:1.20831227"
           cx="11"
           cy="8.3900003"
           r="2.5"
           id="circle5646" />
        <path
           style="fill:#ffffff;stroke-width:1.20831227"
           inkscape:connector-curvature="0"
           d="M 6.5,18.786 V 15.39 C 6.5,14.199 6.967,13.069 7.814,12.209 8.197,11.832 8.637,11.544 9.106,11.325 8.142,10.7 7.5,9.621 7.5,8.39 c 0,-1.93 1.57,-3.5 3.5,-3.5 1.93,0 3.5,1.57 3.5,3.5 0,1.23 -0.641,2.309 -1.604,2.934 1.533,0.718 2.604,2.265 2.604,4.066 v 3.396 C 18.188,17.229 20,14.329 20,11 20,6.029 15.971,2 11,2 6.029,2 2,6.029 2,11 c 0,3.329 1.812,6.229 4.5,7.786 z"
           id="path5648" />
        <path
           style="fill:#ffffff;stroke-width:1.20831227"
           inkscape:connector-curvature="0"
           d="m 2.293,25.707 4.95,4.95 c 0.245,0.245 0.6,0.344 0.937,0.267 0.337,-0.08 0.609,-0.329 0.719,-0.657 l 0.902,-2.708 3.806,3.806 1.414,-1.414 L 10.071,25 C 9.826,24.755 9.47,24.655 9.134,24.733 8.797,24.813 8.525,25.062 8.415,25.39 L 7.513,28.098 3.707,24.292 Z"
           id="path5650" />
        <path
           style="fill:#ffffff;stroke-width:1.20831227"
           inkscape:connector-curvature="0"
           d="m 56.487,28.099 -0.902,-2.708 c -0.109,-0.328 -0.382,-0.577 -0.719,-0.657 -0.34,-0.078 -0.693,0.021 -0.937,0.267 l -4.95,4.95 1.414,1.414 3.806,-3.806 0.902,2.708 c 0.109,0.328 0.382,0.577 0.719,0.657 0.337,0.077 0.692,-0.022 0.937,-0.267 l 4.95,-4.95 -1.414,-1.414 z"
           id="path5652" />
        <path
           style="fill:#ffffff;stroke-width:1.20831227"
           inkscape:connector-curvature="0"
           d="m 9.134,50.905 c -0.337,0.08 -0.609,0.329 -0.719,0.657 l -0.902,2.708 -3.806,-3.805 -1.414,1.414 4.95,4.949 c 0.245,0.245 0.6,0.344 0.937,0.267 0.337,-0.08 0.609,-0.329 0.719,-0.657 l 0.902,-2.707 3.806,3.805 1.414,-1.414 -4.95,-4.949 C 9.826,50.927 9.47,50.828 9.134,50.905 Z"
           id="path5654" />
        <path
           style="fill:#ffffff;stroke-width:1.20831227"
           inkscape:connector-curvature="0"
           d="m 56.487,54.27 -0.902,-2.707 c -0.11,-0.328 -0.382,-0.577 -0.719,-0.657 -0.338,-0.077 -0.693,0.021 -0.937,0.267 l -4.95,4.949 1.414,1.414 3.806,-3.805 0.902,2.707 c 0.11,0.328 0.382,0.577 0.719,0.657 0.335,0.076 0.692,-0.021 0.937,-0.267 l 4.95,-4.949 -1.414,-1.414 z"
           id="path5656" />
      </g>
    </g>
  </g>
</svg>
