<?xml version="1.0" encoding="UTF-8" standalone="no"?>
<!-- Created with Inkscape (http://www.inkscape.org/) -->

<svg
   xmlns:dc="http://purl.org/dc/elements/1.1/"
   xmlns:cc="http://creativecommons.org/ns#"
   xmlns:rdf="http://www.w3.org/1999/02/22-rdf-syntax-ns#"
   xmlns:svg="http://www.w3.org/2000/svg"
   xmlns="http://www.w3.org/2000/svg"
   xmlns:sodipodi="http://sodipodi.sourceforge.net/DTD/sodipodi-0.dtd"
   xmlns:inkscape="http://www.inkscape.org/namespaces/inkscape"
   width="30.858mm"
   height="30.858mm"
   viewBox="0 0 30.858 30.858"
   version="1.1"
   id="svg1933"
   inkscape:version="0.92.5 (2060ec1f9f, 2020-04-08)"
   sodipodi:docname="Dense mixed land use.svg">
  <defs
     id="defs1927">
    <mask
       maskUnits="userSpaceOnUse"
       id="mask2260">
      <rect
         style="opacity:1;fill:#ffffff;fill-opacity:1;stroke:none;stroke-width:0.56499994;stroke-miterlimit:4;stroke-dasharray:none;stroke-opacity:1"
         id="rect2262"
         width="86.248459"
         height="109.59391"
         x="10.399542"
         y="-2.1886201" />
    </mask>
  </defs>
  <sodipodi:namedview
     id="base"
     pagecolor="#ffffff"
     bordercolor="#666666"
     borderopacity="1.0"
     inkscape:pageopacity="0.0"
     inkscape:pageshadow="2"
     inkscape:zoom="1.979899"
     inkscape:cx="74.922616"
     inkscape:cy="74.025098"
     inkscape:document-units="mm"
     inkscape:current-layer="layer1"
     showgrid="false"
     units="mm"
     showguides="true"
     inkscape:guide-bbox="true"
     inkscape:snap-global="false"
     inkscape:window-width="1090"
     inkscape:window-height="767"
     inkscape:window-x="824"
     inkscape:window-y="161"
     inkscape:window-maximized="0"
     inkscape:snap-others="false"
     inkscape:snap-bbox="true"
     inkscape:bbox-nodes="true">
    <sodipodi:guide
       position="0,16.503893"
       orientation="1,0"
       id="guide2524"
       inkscape:locked="false"
       inkscape:label=""
       inkscape:color="rgb(0,0,255)" />
    <sodipodi:guide
       position="14.29892,0"
       orientation="0,1"
       id="guide2526"
       inkscape:locked="false"
       inkscape:label=""
       inkscape:color="rgb(0,0,255)" />
    <sodipodi:guide
       position="85.526248,30.858"
       orientation="0,1"
       id="guide7505"
       inkscape:locked="false"
       inkscape:label=""
       inkscape:color="rgb(0,0,255)" />
    <sodipodi:guide
       position="15.434815,33.542326"
       orientation="1,0"
       id="guide7585"
       inkscape:locked="false" />
  </sodipodi:namedview>
  <metadata
     id="metadata1930">
    <rdf:RDF>
      <cc:Work
         rdf:about="">
        <dc:format>image/svg+xml</dc:format>
        <dc:type
           rdf:resource="http://purl.org/dc/dcmitype/StillImage" />
        <dc:title></dc:title>
      </cc:Work>
    </rdf:RDF>
  </metadata>
  <g
     inkscape:label="Layer 1"
     inkscape:groupmode="layer"
     id="layer1"
     transform="translate(0,-266.14199)">
    <g
       style="fill:#ffffff;stroke-width:1.20943701"
       id="g1829"
       transform="matrix(0.04272767,0,0,0.04272767,4.3256279,270.19715)">
      <path
         id="path1806"
         d="m 405.7,165.4 -16.9,6.4 c -6.3,2.4 -12.9,3.6 -19.6,3.6 -1.4,0 -2.9,-0.1 -4.3,-0.2 -18.8,-1.4 -51.9,-4 -73.2,-5.6 L 256,206.4 220,169.2 c -15.6,-16 -37,-25.1 -59.3,-25.1 -0.2,0 -0.5,0 -0.7,0 -10.6,0.1 -21.1,2.2 -30.8,6.4 l -0.8,0.3 c -9.6,4.2 -18.3,10.4 -25.5,18.1 -30.9,33.6 -30.5,85.4 1,118.4 l 48.4,50 c 21.2,1.6 54.7,4.2 73.8,5.6 11.9,0.9 22.3,8.5 26.7,19.6 l 0.2,0.5 c 6.3,15.8 -1.4,33.7 -17.2,40 -2.1,0.8 -4.3,1.4 -6.5,1.8 l -23.7,3.9 24.9,10.6 c 6,2.6 12.8,2.6 18.9,0 l 53,-22.7 105.7,-109.3 c 31.5,-33 31.9,-84.8 1,-118.4 -1.1,-1.2 -2.2,-2.4 -3.4,-3.5 z M 240,280 h -32 v 32 h -32 v -32 h -32 v -32 h 32 v -32 h 32 v 32 h 32 z m 96,8 -16,8 v 48 h -32 v -48 l -16,-8 v -30.1 c 0,-6.1 3.4,-11.6 8.8,-14.3 L 304,232 l -7.2,-3.6 c -5.4,-2.7 -8.8,-8.3 -8.8,-14.3 v -4.2 c 0,-8.8 7.2,-16 16,-16 8.8,0 16,7.2 16,16 v 4.2 c 0,6.1 -3.4,11.6 -8.8,14.3 l -7.2,3.6 23.2,11.6 c 5.4,2.7 8.8,8.3 8.8,14.3 z"
         inkscape:connector-curvature="0"
         style="fill:#ffffff;stroke-width:1.20943701" />
      <rect
         id="rect1808"
         height="88"
         width="32"
         y="376"
         x="32"
         style="fill:#ffffff;stroke-width:1.20943701" />
      <path
         id="path1810"
         d="M 407.3,45.1 378.7,33.7 C 375.9,32.6 372.8,32 369.8,32 h -121 c -4.3,0 -8.6,1.2 -12.3,3.4 l -132.1,79.3 c -6.3,3.8 -8.4,12 -4.6,18.3 3.4,5.7 10.6,8 16.7,5.4 l 4.4,-1.9 c 1.2,-0.5 2.3,-1 3.5,-1.5 L 272,71.3 l 63.9,27.2 14.9,-2.4 2.6,15.8 -68.2,11.1 c -8.1,1.3 -13.5,8.9 -12.2,17 0.2,1.1 0.5,2.1 0.9,3.1 l 0.2,0.5 c 2.1,5.5 7.2,9.2 13,9.6 20.8,1.5 58.4,4.4 78.9,6 5.8,0.5 11.6,-0.4 17.1,-2.4 L 432,138.5 V 48 h -9.8 c -5.1,0 -10.2,-1 -14.9,-2.9 z"
         inkscape:connector-curvature="0"
         style="fill:#ffffff;stroke-width:1.20943701" />
      <rect
         id="rect1812"
         height="88"
         width="32"
         y="48"
         x="448"
         style="fill:#ffffff;stroke-width:1.20943701" />
      <path
         id="path1814"
         d="M 395.9,373.9 255.7,434 c -10,4.3 -21.4,4.3 -31.4,0 l -48.1,-20.5 -14.9,2.4 -2.6,-15.8 68.1,-11.1 c 8.1,-1.3 13.5,-8.9 12.2,-17 -0.2,-1.1 -0.5,-2.1 -0.9,-3.1 l -0.2,-0.5 c -2.1,-5.5 -7.2,-9.2 -13,-9.6 -20.8,-1.5 -58.4,-4.4 -78.9,-6 -5.8,-0.5 -11.6,0.4 -17.1,2.4 L 80,373.5 V 464 h 9.8 c 5.1,0 10.1,1 14.9,2.9 l 28.6,11.4 c 2.8,1.1 5.9,1.7 8.9,1.7 h 121 c 4.3,0 8.6,-1.2 12.3,-3.4 l 132.3,-79.4 c 6.2,-3.7 8.2,-11.8 4.5,-18 -3.4,-5.6 -10.4,-7.9 -16.4,-5.3 z"
         inkscape:connector-curvature="0"
         style="fill:#ffffff;stroke-width:1.20943701" />
    </g>
    <g
       style="fill:#ffffff;stroke-width:1.27491653"
       id="g3556"
       transform="matrix(0.42010107,0,0,0.42010107,7.9079933,271.42233)">
      <path
         id="path3545"
         transform="translate(-494,-327.3)"
         d="m 512,327.3 a 18,18 0 0 0 -18,18 c 0,8.7 13.8,26.6 17.2,31 a 1,1 0 0 0 1.6,0 c 3.5,-4.4 17.2,-22.3 17.2,-31 a 18,18 0 0 0 -18,-18 z m 1.6,29.9 a 12,12 0 0 1 -13.5,-13.5 12.8,12.8 0 0 1 10.3,-10.3 12,12 0 0 1 13.5,13.5 12.8,12.8 0 0 1 -10.3,10.3 z m -5.7,-17.1 a 4.1,4.1 0 1 1 4.1,4.1 4.1,4.1 0 0 1 -4.1,-4.1 z m 4.1,5.9 a 8.8,8.8 0 0 0 -7.4,4.7 0.9,0.9 0 0 0 0.9,1.5 h 13 a 0.9,0.9 0 0 0 0.9,-1.5 8.8,8.8 0 0 0 -7.4,-4.6 z"
         inkscape:connector-curvature="0"
         style="fill:#ffffff;stroke-width:1.27491653" />
    </g>
    <g
       transform="translate(-19.973873,-88.023295)"
       id="g8115">
      <circle
         style="fill:#40a073;fill-opacity:1;stroke-width:0.46499997"
         id="circle1093-0-75-5-4-4"
         cx="35.403072"
         cy="369.59409"
         r="15.429199" />
      <g
         transform="matrix(0.31095814,0,0,0.31095814,25.411132,359.4129)"
         id="g5154"
         style="fill:#ffffff;stroke-width:1.32947624">
        <path
           style="fill:#ffffff;stroke-width:1.32947624"
           inkscape:connector-curvature="0"
           d="m 29,21 h 6 c 1.654,0 3,-1.346 3,-3 0,-1.07 -0.591,-2.067 -1.542,-2.602 -0.35,-0.196 -0.548,-0.582 -0.505,-0.979 L 35.977,14.23 C 35.987,14.153 36,14.078 36,14 c 0,-2.206 -1.794,-4 -4,-4 -2.206,0 -4,1.794 -4,4 0,0.078 0.013,0.153 0.023,0.229 l 0.024,0.189 c 0.043,0.397 -0.155,0.783 -0.505,0.979 C 26.591,15.933 26,16.93 26,18 c 0,1.654 1.346,3 3,3 z"
           id="path5095" />
        <path
           style="fill:#ffffff;stroke-width:1.32947624"
           inkscape:connector-curvature="0"
           d="m 47,21 h 2 2 2 c 1.654,0 3,-1.346 3,-3 0,-1.07 -0.591,-2.067 -1.542,-2.602 -0.35,-0.196 -0.548,-0.582 -0.505,-0.979 L 53.977,14.23 C 53.987,14.153 54,14.078 54,14 c 0,-2.206 -1.794,-4 -4,-4 -2.206,0 -4,1.794 -4,4 0,0.078 0.013,0.153 0.023,0.229 l 0.024,0.189 c 0.043,0.397 -0.155,0.783 -0.505,0.979 C 44.591,15.933 44,16.93 44,18 c 0,1.654 1.346,3 3,3 z"
           id="path5097" />
        <path
           style="fill:#ffffff;stroke-width:1.32947624"
           inkscape:connector-curvature="0"
           d="M 2,32 H 62 V 2 H 2 Z M 44,14.021 c 0,-0.007 0,-0.014 0,-0.021 0,-3.309 2.691,-6 6,-6 3.309,0 6,2.691 6,6 0,0.008 0,0.015 0,0.021 1.248,0.938 2,2.409 2,3.979 0,2.757 -2.243,5 -5,5 h -2 v 6 h -2 v -6 h -2 c -2.757,0 -5,-2.243 -5,-5 0,-1.569 0.752,-3.04 2,-3.979 z m -18,0 c 0,-0.007 0,-0.014 0,-0.021 0,-3.309 2.691,-6 6,-6 3.309,0 6,2.691 6,6 0,0.008 0,0.015 0,0.021 1.248,0.938 2,2.409 2,3.979 0,2.757 -2.243,5 -5,5 h -2 v 6 h -2 v -6 h -2 c -2.757,0 -5,-2.243 -5,-5 0,-1.569 0.752,-3.04 2,-3.979 z m -18,0 C 8,14.015 8,14.008 8,14 c 0,-3.309 2.691,-6 6,-6 3.309,0 6,2.691 6,6 0,0.008 0,0.015 0,0.021 1.248,0.938 2,2.409 2,3.979 0,2.757 -2.243,5 -5,5 h -2 v 6 H 13 V 23 H 11 C 8.243,23 6,20.757 6,18 6,16.431 6.752,14.96 8,14.021 Z"
           id="path5099" />
        <path
           style="fill:#ffffff;stroke-width:1.32947624"
           inkscape:connector-curvature="0"
           d="m 11,21 h 6 c 1.654,0 3,-1.346 3,-3 0,-1.07 -0.591,-2.067 -1.542,-2.602 -0.35,-0.196 -0.548,-0.582 -0.505,-0.979 L 17.977,14.23 C 17.987,14.153 18,14.078 18,14 c 0,-2.206 -1.794,-4 -4,-4 -2.206,0 -4,1.794 -4,4 0,0.078 0.013,0.153 0.023,0.229 l 0.024,0.189 C 10.09,14.815 9.892,15.201 9.542,15.397 8.591,15.933 8,16.93 8,18 c 0,1.654 1.346,3 3,3 z"
           id="path5101" />
        <path
           style="fill:#ffffff;stroke-width:1.32947624"
           inkscape:connector-curvature="0"
           d="m 43,39 c -1.654,0 -3,1.346 -3,3 1.654,0 3,-1.346 3,-3 z"
           id="path5103" />
        <path
           style="fill:#ffffff;stroke-width:1.32947624"
           inkscape:connector-curvature="0"
           d="m 52,54 c 0,-1.654 -1.346,-3 -3,-3 0,1.654 1.346,3 3,3 z"
           id="path5105" />
        <path
           style="fill:#ffffff;stroke-width:1.32947624"
           inkscape:connector-curvature="0"
           d="m 38,54 c 0,-1.654 -1.346,-3 -3,-3 0,1.654 1.346,3 3,3 z"
           id="path5107" />
        <path
           style="fill:#ffffff;stroke-width:1.32947624"
           inkscape:connector-curvature="0"
           d="m 38,42 c 0,-1.654 -1.346,-3 -3,-3 0,1.654 1.346,3 3,3 z"
           id="path5109" />
        <path
           style="fill:#ffffff;stroke-width:1.32947624"
           inkscape:connector-curvature="0"
           d="m 43,51 c -1.654,0 -3,1.346 -3,3 1.654,0 3,-1.346 3,-3 z"
           id="path5111" />
        <path
           style="fill:#ffffff;stroke-width:1.32947624"
           inkscape:connector-curvature="0"
           d="m 52,42 c 0,-1.654 -1.346,-3 -3,-3 0,1.654 1.346,3 3,3 z"
           id="path5113" />
        <path
           style="fill:#ffffff;stroke-width:1.32947624"
           inkscape:connector-curvature="0"
           d="M 30,62 H 62 V 34 H 30 Z M 47,38 c 0,-0.553 0.448,-1 1,-1 h 1 c 1.641,0 3.088,0.806 4,2.031 C 53.912,37.806 55.359,37 57,37 h 1 c 0.552,0 1,0.447 1,1 v 1 c 0,2.757 -2.243,5 -5,5 v 4 h -2 v -4 c -2.757,0 -5,-2.243 -5,-5 z m 0,12 c 0,-0.553 0.448,-1 1,-1 h 1 c 1.641,0 3.088,0.806 4,2.031 C 53.912,49.806 55.359,49 57,49 h 1 c 0.552,0 1,0.447 1,1 v 1 c 0,2.757 -2.243,5 -5,5 v 4 h -2 v -4 c -2.757,0 -5,-2.243 -5,-5 z M 33,38 c 0,-0.553 0.448,-1 1,-1 h 1 c 1.641,0 3.088,0.806 4,2.031 C 39.912,37.806 41.359,37 43,37 h 1 c 0.552,0 1,0.447 1,1 v 1 c 0,2.757 -2.243,5 -5,5 v 4 h -2 v -4 c -2.757,0 -5,-2.243 -5,-5 z m 0,12 c 0,-0.553 0.448,-1 1,-1 h 1 c 1.641,0 3.088,0.806 4,2.031 C 39.912,49.806 41.359,49 43,49 h 1 c 0.552,0 1,0.447 1,1 v 1 c 0,2.757 -2.243,5 -5,5 v 4 h -2 v -4 c -2.757,0 -5,-2.243 -5,-5 z"
           id="path5115" />
        <path
           style="fill:#ffffff;stroke-width:1.32947624"
           inkscape:connector-curvature="0"
           d="m 57,39 c -1.654,0 -3,1.346 -3,3 1.654,0 3,-1.346 3,-3 z"
           id="path5117" />
        <path
           style="fill:#ffffff;stroke-width:1.32947624"
           inkscape:connector-curvature="0"
           d="m 57,51 c -1.654,0 -3,1.346 -3,3 1.654,0 3,-1.346 3,-3 z"
           id="path5119" />
        <path
           style="fill:#ffffff;stroke-width:1.32947624"
           inkscape:connector-curvature="0"
           d="m 11,56 h 2 v -3 c 0,-0.553 0.448,-1 1,-1 h 4 c 0.552,0 1,0.447 1,1 v 3 h 2 V 48 H 11 Z"
           id="path5121" />
        <rect
           style="fill:#ffffff;stroke-width:1.32947624"
           x="15"
           y="54"
           width="2"
           height="2"
           id="rect5123" />
        <path
           style="fill:#ffffff;stroke-width:1.32947624"
           inkscape:connector-curvature="0"
           d="M 28,34 H 2 V 62 H 28 Z M 25.935,47.355 C 25.787,47.743 25.415,48 25,48 h -2 v 9 c 0,0.553 -0.448,1 -1,1 H 10 C 9.448,58 9,57.553 9,57 V 48 H 7 C 6.585,48 6.213,47.743 6.065,47.355 5.917,46.967 6.025,46.528 6.335,46.252 l 9,-8 c 0.379,-0.338 0.95,-0.338 1.329,0 l 9,8 c 0.311,0.276 0.418,0.716 0.271,1.103 z"
           id="path5125" />
        <polygon
           style="fill:#ffffff;stroke-width:1.32947624"
           points="10,46 22,46 22.37,46 16,40.338 9.63,46 "
           id="polygon5127" />
      </g>
    </g>
  </g>
</svg>
