<?xml version="1.0" encoding="UTF-8" standalone="no"?>
<!-- Created with Inkscape (http://www.inkscape.org/) -->

<svg
   xmlns:i="http://ns.adobe.com/AdobeIllustrator/10.0/"
   xmlns:dc="http://purl.org/dc/elements/1.1/"
   xmlns:cc="http://creativecommons.org/ns#"
   xmlns:rdf="http://www.w3.org/1999/02/22-rdf-syntax-ns#"
   xmlns:svg="http://www.w3.org/2000/svg"
   xmlns="http://www.w3.org/2000/svg"
   xmlns:sodipodi="http://sodipodi.sourceforge.net/DTD/sodipodi-0.dtd"
   xmlns:inkscape="http://www.inkscape.org/namespaces/inkscape"
   width="30.858mm"
   height="30.858mm"
   viewBox="0 0 30.858 30.858"
   version="1.1"
   id="svg1933"
   inkscape:version="0.92.5 (2060ec1f9f, 2020-04-08)"
   sodipodi:docname="Direct environmental effects from cars.svg">
  <defs
     id="defs1927">
    <mask
       maskUnits="userSpaceOnUse"
       id="mask2260">
      <rect
         style="opacity:1;fill:#ffffff;fill-opacity:1;stroke:none;stroke-width:0.56499994;stroke-miterlimit:4;stroke-dasharray:none;stroke-opacity:1"
         id="rect2262"
         width="86.248459"
         height="109.59391"
         x="10.399542"
         y="-2.1886201" />
    </mask>
  </defs>
  <sodipodi:namedview
     id="base"
     pagecolor="#ffffff"
     bordercolor="#666666"
     borderopacity="1.0"
     inkscape:pageopacity="0.0"
     inkscape:pageshadow="2"
     inkscape:zoom="3.959798"
     inkscape:cx="56.436212"
     inkscape:cy="56.185413"
     inkscape:document-units="mm"
     inkscape:current-layer="layer1"
     showgrid="false"
     units="mm"
     showguides="true"
     inkscape:guide-bbox="true"
     inkscape:snap-global="true"
     inkscape:window-width="1090"
     inkscape:window-height="767"
     inkscape:window-x="1076"
     inkscape:window-y="156"
     inkscape:window-maximized="0"
     inkscape:snap-others="false"
     inkscape:snap-bbox="true"
     inkscape:bbox-nodes="true"
     inkscape:snap-nodes="false">
    <sodipodi:guide
       position="0,16.503893"
       orientation="1,0"
       id="guide2524"
       inkscape:locked="false"
       inkscape:label=""
       inkscape:color="rgb(0,0,255)" />
    <sodipodi:guide
       position="14.29892,0"
       orientation="0,1"
       id="guide2526"
       inkscape:locked="false"
       inkscape:label=""
       inkscape:color="rgb(0,0,255)" />
    <sodipodi:guide
       position="85.526248,30.858"
       orientation="0,1"
       id="guide7505"
       inkscape:locked="false"
       inkscape:label=""
       inkscape:color="rgb(0,0,255)" />
    <sodipodi:guide
       position="15.434815,33.542326"
       orientation="1,0"
       id="guide7585"
       inkscape:locked="false" />
  </sodipodi:namedview>
  <metadata
     id="metadata1930">
    <rdf:RDF>
      <cc:Work
         rdf:about="">
        <dc:format>image/svg+xml</dc:format>
        <dc:type
           rdf:resource="http://purl.org/dc/dcmitype/StillImage" />
        <dc:title></dc:title>
      </cc:Work>
    </rdf:RDF>
  </metadata>
  <g
     inkscape:label="Layer 1"
     inkscape:groupmode="layer"
     id="layer1"
     transform="translate(0,-266.14199)">
    <g
       style="fill:#ffffff"
       id="g1937"
       transform="matrix(0.05167643,0,0,0.05167643,2.2514744,267.80335)">
      <g
         id="g1924"
         style="fill:#ffffff">
        <path
           id="path1920"
           d="m 274.8,274.8 v 18.8 h -37.5 v -18.8 c 0,-10.3 8.4,-18.8 18.8,-18.8 10.4,0 18.7,8.4 18.7,18.8 z"
           inkscape:connector-curvature="0"
           style="fill:#ffffff" />
        <path
           id="path1922"
           d="m 256,68.5 -93.7,65.6 V 68.5 h -37.5 v 91.9 L 68.6,199.8 H 106 V 443.5 H 406 V 199.8 h 37.5 z m 56.3,318.7 H 199.8 c -10.4,0 -18.8,-8.4 -18.8,-18.8 v -75 h 18.8 v -15.7 c 0,-30.5 22.9,-57.7 53.3,-59.3 32.5,-1.6 59.2,24.1 59.2,56.2 v 18.8 H 331 v 75 c 0,10.5 -8.4,18.8 -18.7,18.8 z"
           inkscape:connector-curvature="0"
           style="fill:#ffffff" />
      </g>
    </g>
    <g
       transform="translate(-230.52077,-320.80857)"
       id="g10748">
      <circle
         style="fill:#40a073;fill-opacity:1;stroke-width:0.46499997"
         id="circle1093-0-75-5-6-0-1"
         cx="245.94997"
         cy="602.37976"
         r="15.429199" />
      <g
         transform="matrix(0.26458333,0,0,0.26458333,232.09861,589.21757)"
         id="g7394"
         style="fill:#ffffff">
        <g
           style="fill:#ffffff"
           id="g7374">
          <g
             style="fill:#ffffff"
             i:extraneous="self"
             id="g7372">
            <g
               style="fill:#ffffff"
               id="g7364">
              <path
                 style="fill:#ffffff"
                 inkscape:connector-curvature="0"
                 d="m 5273.1,2400.1 v -2 c 0,-2.8 -5,-4 -9.7,-4 -4.7,0 -9.7,1.3 -9.7,4 v 2 c 0,1.8 0.7,3.6 2,4.9 l 5,4.9 c 0.3,0.3 0.4,0.6 0.4,1 v 6.4 c 0,0.4 0.2,0.7 0.6,0.8 l 2.9,0.9 c 0.5,0.1 1,-0.2 1,-0.8 v -7.2 c 0,-0.4 0.2,-0.7 0.4,-1 l 5.1,-5 c 1.3,-1.3 2,-3.1 2,-4.9 z m -9.7,-0.1 c -4.8,0 -7.4,-1.3 -7.5,-1.8 v 0 c 0.1,-0.5 2.7,-1.8 7.5,-1.8 4.8,0 7.3,1.3 7.5,1.8 -0.2,0.5 -2.7,1.8 -7.5,1.8 z"
                 id="path7356" />
              <path
                 style="fill:#ffffff"
                 inkscape:connector-curvature="0"
                 d="m 5268.4,2410.3 c -0.6,0 -1,0.4 -1,1 0,0.6 0.4,1 1,1 h 4.3 c 0.6,0 1,-0.4 1,-1 0,-0.6 -0.4,-1 -1,-1 z"
                 id="path7358" />
              <path
                 style="fill:#ffffff"
                 inkscape:connector-curvature="0"
                 d="m 5272.7,2413.7 h -4.3 c -0.6,0 -1,0.4 -1,1 0,0.6 0.4,1 1,1 h 4.3 c 0.6,0 1,-0.4 1,-1 0,-0.6 -0.4,-1 -1,-1 z"
                 id="path7360" />
              <path
                 style="fill:#ffffff"
                 inkscape:connector-curvature="0"
                 d="m 5272.7,2417 h -4.3 c -0.6,0 -1,0.4 -1,1 0,0.6 0.4,1 1,1 h 4.3 c 0.6,0 1,-0.4 1,-1 0,-0.5 -0.4,-1 -1,-1 z"
                 id="path7362" />
            </g>
            <g
               style="fill:#ffffff"
               id="g7370">
              <path
                 style="fill:#ffffff"
                 inkscape:connector-curvature="0"
                 d="M 97,49.2 C 96.9,47.4 95.5,46 93.8,45.8 L 83.2,44.6 75,34.3 c -1.5,-1.9 -3.7,-3 -6.1,-3 H 46.7 c -2.4,0 -4.5,1.5 -5.4,3.7 l -4.2,11.1 c -0.4,1.1 -0.6,2.2 -0.6,3.4 v 7.8 c 0,2 1.6,3.7 3.7,3.7 H 42 c 0.4,4.3 3.9,7.7 8.3,7.7 4.4,0 8,-3.4 8.3,-7.7 h 16.7 c 0.4,4.3 3.9,7.7 8.3,7.7 4.4,0 8,-3.4 8.3,-7.7 h 1.8 c 2.1,0 3.7,-1.8 3.6,-3.9 z M 50.3,64.3 c -2.2,0 -4,-1.8 -4,-4 0,-2.2 1.8,-4 4,-4 2.2,0 4,1.8 4,4 0,2.2 -1.8,4 -4,4 z m 5,-20.2 H 44.1 l 2.6,-6.9 h 8.6 z m 5.9,0 v -6.9 h 7.7 c 0.6,0 1.2,0.3 1.5,0.7 l 4.9,6.2 z m 22.5,20.2 c -2.2,0 -4,-1.8 -4,-4 0,-2.2 1.8,-4 4,-4 2.2,0 4,1.8 4,4 0,2.2 -1.8,4 -4,4 z"
                 id="path7366" />
              <path
                 style="fill:#ffffff"
                 inkscape:connector-curvature="0"
                 d="m 29.3,51.5 c -0.3,-2 -1.5,-3.6 -3.2,-4.5 0,-0.2 0,-0.4 0,-0.6 C 26,44 24.3,42 22,41.4 c 0.4,-0.7 0.6,-1.5 0.6,-2.4 0,-3 -2.4,-5.5 -5.4,-5.6 -0.5,0 -1.1,0.1 -1.6,0.2 -1,-1 -2.4,-1.7 -3.9,-1.7 -2.9,0 -5.3,2.2 -5.5,5.1 -2.2,0.7 -3.7,2.7 -3.8,5.1 0,1.8 0.9,3.4 2.2,4.5 -0.2,0.5 -0.3,1.1 -0.3,1.7 0,3 2.4,5.5 5.4,5.6 0.4,0 0.9,-0.1 1.3,-0.2 0.4,2.6 2.6,4.6 5.3,4.6 1.3,0 2.5,-0.5 3.5,-1.2 1,0.7 2.1,1.1 3.4,1.1 0.9,0 1.7,-0.2 2.4,-0.5 0.7,1 1.8,1.6 3.1,1.6 2.2,0 4,-1.7 4,-3.9 0.2,-2.1 -1.4,-3.8 -3.4,-3.9 z"
                 id="path7368" />
            </g>
          </g>
        </g>
      </g>
    </g>
  </g>
</svg>
