<?xml version="1.0" encoding="UTF-8" standalone="no"?>
<!-- Created with Inkscape (http://www.inkscape.org/) -->

<svg
   xmlns:dc="http://purl.org/dc/elements/1.1/"
   xmlns:cc="http://creativecommons.org/ns#"
   xmlns:rdf="http://www.w3.org/1999/02/22-rdf-syntax-ns#"
   xmlns:svg="http://www.w3.org/2000/svg"
   xmlns="http://www.w3.org/2000/svg"
   xmlns:sodipodi="http://sodipodi.sourceforge.net/DTD/sodipodi-0.dtd"
   xmlns:inkscape="http://www.inkscape.org/namespaces/inkscape"
   width="30.858mm"
   height="30.858mm"
   viewBox="0 0 30.858 30.858"
   version="1.1"
   id="svg1933"
   inkscape:version="0.92.5 (2060ec1f9f, 2020-04-08)"
   sodipodi:docname="Greenhouse gas emissions.svg">
  <defs
     id="defs1927">
    <mask
       maskUnits="userSpaceOnUse"
       id="mask2260">
      <rect
         style="opacity:1;fill:#ffffff;fill-opacity:1;stroke:none;stroke-width:0.56499994;stroke-miterlimit:4;stroke-dasharray:none;stroke-opacity:1"
         id="rect2262"
         width="86.248459"
         height="109.59391"
         x="10.399542"
         y="-2.1886201" />
    </mask>
  </defs>
  <sodipodi:namedview
     id="base"
     pagecolor="#ffffff"
     bordercolor="#666666"
     borderopacity="1.0"
     inkscape:pageopacity="0.0"
     inkscape:pageshadow="2"
     inkscape:zoom="2.8"
     inkscape:cx="59.624689"
     inkscape:cy="25.969666"
     inkscape:document-units="mm"
     inkscape:current-layer="layer1"
     showgrid="false"
     units="mm"
     showguides="true"
     inkscape:guide-bbox="true"
     inkscape:snap-global="true"
     inkscape:window-width="1090"
     inkscape:window-height="767"
     inkscape:window-x="824"
     inkscape:window-y="161"
     inkscape:window-maximized="0"
     inkscape:snap-others="false"
     inkscape:snap-bbox="true"
     inkscape:bbox-nodes="true"
     inkscape:snap-nodes="false">
    <sodipodi:guide
       position="0,16.503893"
       orientation="1,0"
       id="guide2524"
       inkscape:locked="false"
       inkscape:label=""
       inkscape:color="rgb(0,0,255)" />
    <sodipodi:guide
       position="14.29892,0"
       orientation="0,1"
       id="guide2526"
       inkscape:locked="false"
       inkscape:label=""
       inkscape:color="rgb(0,0,255)" />
    <sodipodi:guide
       position="85.526248,30.858"
       orientation="0,1"
       id="guide7505"
       inkscape:locked="false"
       inkscape:label=""
       inkscape:color="rgb(0,0,255)" />
    <sodipodi:guide
       position="15.434815,33.542326"
       orientation="1,0"
       id="guide7585"
       inkscape:locked="false" />
  </sodipodi:namedview>
  <metadata
     id="metadata1930">
    <rdf:RDF>
      <cc:Work
         rdf:about="">
        <dc:format>image/svg+xml</dc:format>
        <dc:type
           rdf:resource="http://purl.org/dc/dcmitype/StillImage" />
        <dc:title></dc:title>
      </cc:Work>
    </rdf:RDF>
  </metadata>
  <g
     inkscape:label="Layer 1"
     inkscape:groupmode="layer"
     id="layer1"
     transform="translate(0,-266.14199)">
    <g
       style="fill:#ffffff;stroke-width:1.20943701"
       id="g1829"
       transform="matrix(0.04272767,0,0,0.04272767,4.3256279,270.19715)">
      <path
         id="path1806"
         d="m 405.7,165.4 -16.9,6.4 c -6.3,2.4 -12.9,3.6 -19.6,3.6 -1.4,0 -2.9,-0.1 -4.3,-0.2 -18.8,-1.4 -51.9,-4 -73.2,-5.6 L 256,206.4 220,169.2 c -15.6,-16 -37,-25.1 -59.3,-25.1 -0.2,0 -0.5,0 -0.7,0 -10.6,0.1 -21.1,2.2 -30.8,6.4 l -0.8,0.3 c -9.6,4.2 -18.3,10.4 -25.5,18.1 -30.9,33.6 -30.5,85.4 1,118.4 l 48.4,50 c 21.2,1.6 54.7,4.2 73.8,5.6 11.9,0.9 22.3,8.5 26.7,19.6 l 0.2,0.5 c 6.3,15.8 -1.4,33.7 -17.2,40 -2.1,0.8 -4.3,1.4 -6.5,1.8 l -23.7,3.9 24.9,10.6 c 6,2.6 12.8,2.6 18.9,0 l 53,-22.7 105.7,-109.3 c 31.5,-33 31.9,-84.8 1,-118.4 -1.1,-1.2 -2.2,-2.4 -3.4,-3.5 z M 240,280 h -32 v 32 h -32 v -32 h -32 v -32 h 32 v -32 h 32 v 32 h 32 z m 96,8 -16,8 v 48 h -32 v -48 l -16,-8 v -30.1 c 0,-6.1 3.4,-11.6 8.8,-14.3 L 304,232 l -7.2,-3.6 c -5.4,-2.7 -8.8,-8.3 -8.8,-14.3 v -4.2 c 0,-8.8 7.2,-16 16,-16 8.8,0 16,7.2 16,16 v 4.2 c 0,6.1 -3.4,11.6 -8.8,14.3 l -7.2,3.6 23.2,11.6 c 5.4,2.7 8.8,8.3 8.8,14.3 z"
         inkscape:connector-curvature="0"
         style="fill:#ffffff;stroke-width:1.20943701" />
      <rect
         id="rect1808"
         height="88"
         width="32"
         y="376"
         x="32"
         style="fill:#ffffff;stroke-width:1.20943701" />
      <path
         id="path1810"
         d="M 407.3,45.1 378.7,33.7 C 375.9,32.6 372.8,32 369.8,32 h -121 c -4.3,0 -8.6,1.2 -12.3,3.4 l -132.1,79.3 c -6.3,3.8 -8.4,12 -4.6,18.3 3.4,5.7 10.6,8 16.7,5.4 l 4.4,-1.9 c 1.2,-0.5 2.3,-1 3.5,-1.5 L 272,71.3 l 63.9,27.2 14.9,-2.4 2.6,15.8 -68.2,11.1 c -8.1,1.3 -13.5,8.9 -12.2,17 0.2,1.1 0.5,2.1 0.9,3.1 l 0.2,0.5 c 2.1,5.5 7.2,9.2 13,9.6 20.8,1.5 58.4,4.4 78.9,6 5.8,0.5 11.6,-0.4 17.1,-2.4 L 432,138.5 V 48 h -9.8 c -5.1,0 -10.2,-1 -14.9,-2.9 z"
         inkscape:connector-curvature="0"
         style="fill:#ffffff;stroke-width:1.20943701" />
      <rect
         id="rect1812"
         height="88"
         width="32"
         y="48"
         x="448"
         style="fill:#ffffff;stroke-width:1.20943701" />
      <path
         id="path1814"
         d="M 395.9,373.9 255.7,434 c -10,4.3 -21.4,4.3 -31.4,0 l -48.1,-20.5 -14.9,2.4 -2.6,-15.8 68.1,-11.1 c 8.1,-1.3 13.5,-8.9 12.2,-17 -0.2,-1.1 -0.5,-2.1 -0.9,-3.1 l -0.2,-0.5 c -2.1,-5.5 -7.2,-9.2 -13,-9.6 -20.8,-1.5 -58.4,-4.4 -78.9,-6 -5.8,-0.5 -11.6,0.4 -17.1,2.4 L 80,373.5 V 464 h 9.8 c 5.1,0 10.1,1 14.9,2.9 l 28.6,11.4 c 2.8,1.1 5.9,1.7 8.9,1.7 h 121 c 4.3,0 8.6,-1.2 12.3,-3.4 l 132.3,-79.4 c 6.2,-3.7 8.2,-11.8 4.5,-18 -3.4,-5.6 -10.4,-7.9 -16.4,-5.3 z"
         inkscape:connector-curvature="0"
         style="fill:#ffffff;stroke-width:1.20943701" />
    </g>
    <g
       style="fill:#ffffff;stroke-width:1.27491653"
       id="g3556"
       transform="matrix(0.42010107,0,0,0.42010107,7.9079933,271.42233)">
      <path
         id="path3545"
         transform="translate(-494,-327.3)"
         d="m 512,327.3 a 18,18 0 0 0 -18,18 c 0,8.7 13.8,26.6 17.2,31 a 1,1 0 0 0 1.6,0 c 3.5,-4.4 17.2,-22.3 17.2,-31 a 18,18 0 0 0 -18,-18 z m 1.6,29.9 a 12,12 0 0 1 -13.5,-13.5 12.8,12.8 0 0 1 10.3,-10.3 12,12 0 0 1 13.5,13.5 12.8,12.8 0 0 1 -10.3,10.3 z m -5.7,-17.1 a 4.1,4.1 0 1 1 4.1,4.1 4.1,4.1 0 0 1 -4.1,-4.1 z m 4.1,5.9 a 8.8,8.8 0 0 0 -7.4,4.7 0.9,0.9 0 0 0 0.9,1.5 h 13 a 0.9,0.9 0 0 0 0.9,-1.5 8.8,8.8 0 0 0 -7.4,-4.6 z"
         inkscape:connector-curvature="0"
         style="fill:#ffffff;stroke-width:1.27491653" />
    </g>
    <g
       transform="translate(-159.97617,-165.69783)"
       id="g8972">
      <circle
         style="fill:#40a073;fill-opacity:1;stroke-width:0.46499997"
         id="circle1093-0-75-5-4-1"
         cx="175.40536"
         cy="447.26862"
         r="15.429199" />
      <g
         transform="matrix(0.17330056,0,0,0.17330056,162.93286,436.34642)"
         id="g6377"
         style="fill:#ffffff;stroke-width:1.19275856">
        <path
           style="fill:#ffffff;stroke-width:1.19275856"
           inkscape:connector-curvature="0"
           d="m 57.5,59.5 c -3.6,-1.4 -7.7,0.4 -9,4 -1.4,3.6 0.4,7.7 4,9 3.6,1.4 7.7,-0.4 9,-4 0,0 0,0 0,0 1.4,-3.6 -0.4,-7.6 -4,-9 0,0 0,0 0,0 z m 0.3,7.6 c -0.6,1.5 -2.3,2.3 -3.9,1.7 -1.5,-0.6 -2.3,-2.3 -1.7,-3.9 0.6,-1.6 2.3,-2.3 3.9,-1.7 0,0 0,0 0,0 1.5,0.6 2.3,2.3 1.7,3.9 z"
           id="path6354" />
        <path
           style="fill:#ffffff;stroke-width:1.19275856"
           inkscape:connector-curvature="0"
           d="m 87.3,17.3 c 3.6,1.4 7.7,-0.4 9,-4 1.4,-3.6 -0.4,-7.7 -4,-9 -3.6,-1.4 -7.7,0.4 -9,4 0,0 0,0 0,0 -1.5,3.6 0.3,7.6 4,9 -0.1,0 -0.1,0 0,0 z M 86.9,9.7 c 0.6,-1.5 2.3,-2.3 3.9,-1.7 1.5,0.6 2.3,2.3 1.7,3.9 -0.6,1.5 -2.3,2.3 -3.9,1.7 0,0 0,0 0,0 C 87.1,13 86.4,11.2 86.9,9.7 Z"
           id="path6356" />
        <path
           style="fill:#ffffff;stroke-width:1.19275856"
           inkscape:connector-curvature="0"
           d="m 67,78 v 4 c 0,0.2 0,0.4 0,0.5 0,0.2 0.1,0.4 0.1,0.5 0,0.1 0.1,0.3 0.1,0.4 0,0.1 0,0.1 0.1,0.2 0.1,0.1 0.1,0.2 0.2,0.3 0,0 0,0 0,0.1 l 0.3,0.4 c 0.3,0.4 0.7,0.7 1.2,1 v 0 c 0.6,0.4 1.3,0.5 2,0.5 h 26 c 0.7,0 1.4,-0.2 2,-0.5 v 0 c 0.4,-0.3 0.8,-0.6 1.2,-1 l 0.3,-0.4 c 0,0 0,0 0,-0.1 0.1,-0.1 0.1,-0.2 0.2,-0.3 0,-0.1 0.1,-0.1 0.1,-0.2 0.1,-0.1 0.1,-0.3 0.1,-0.4 0.1,-0.2 0.1,-0.3 0.1,-0.5 0,-0.2 0,-0.4 0,-0.5 v -4 c 0,-2.2 -1.8,-4 -4,-4 0,0 0,0 0,0 H 71 c -2.2,0 -4,1.8 -4,4 0,0 0,0 0,0 z"
           id="path6358" />
        <path
           style="fill:#ffffff;stroke-width:1.19275856"
           inkscape:connector-curvature="0"
           d="M 104,125.8 99.5,89.6 C 98.7,89.9 97.9,90 97,90 H 71 c -0.9,0 -1.7,-0.1 -2.5,-0.4 L 67.7,96 H 78 c 1.1,0 2,0.9 2,2 0,1.1 -0.9,2 -2,2 H 67.2 l -0.8,6 H 77 c 1.1,0 2,0.9 2,2 0,1.1 -0.9,2 -2,2 H 66 l -0.7,6 H 76 c 1.1,0 2,0.9 2,2 0,1.1 -0.9,2 -2,2 H 64.7 l -0.7,5.8 c -0.1,1.1 0.6,2.1 1.7,2.2 1.1,0.1 35.3,0 36.3,0 0.1,0 0.2,0 0.2,0 1.1,-0.1 1.9,-1.1 1.8,-2.2 0,0 0,0 0,0 z"
           id="path6360" />
        <path
           style="fill:#ffffff;stroke-width:1.19275856"
           inkscape:connector-curvature="0"
           d="m 72.7,70 h 22 c 0,-1.9 -0.5,-3.8 -1.6,-5.5 5,-7 3.3,-16.7 -3.7,-21.7 -0.1,-0.1 -0.2,-0.1 -0.3,-0.2 0.4,-1.6 0.7,-3.3 0.7,-4.9 C 89.7,29.5 84.6,22.3 77,19.3 77.3,18.2 77.4,17 77.4,15.9 77.3,7 69.9,-0.1 61,0 56.1,0 51.4,2.2 48.2,5.9 45.8,4.6 43.1,3.9 40.3,3.9 31.5,3.8 24.1,11 24,19.9 c 0,5.2 2.6,10.1 7,13 -0.5,1.6 -0.8,3.2 -0.8,4.8 0.1,8.9 7.5,16 16.4,15.9 2.8,0 5.6,-0.7 8,-2 2.4,2.4 5.4,4.2 8.7,5.1 0.4,5.8 4.1,11 9.4,13.3 z"
           id="path6362" />
      </g>
    </g>
  </g>
</svg>
