<?xml version="1.0" encoding="UTF-8" standalone="no"?>
<!-- Created with Inkscape (http://www.inkscape.org/) -->

<svg
   xmlns:i="http://ns.adobe.com/AdobeIllustrator/10.0/"
   xmlns:dc="http://purl.org/dc/elements/1.1/"
   xmlns:cc="http://creativecommons.org/ns#"
   xmlns:rdf="http://www.w3.org/1999/02/22-rdf-syntax-ns#"
   xmlns:svg="http://www.w3.org/2000/svg"
   xmlns="http://www.w3.org/2000/svg"
   xmlns:sodipodi="http://sodipodi.sourceforge.net/DTD/sodipodi-0.dtd"
   xmlns:inkscape="http://www.inkscape.org/namespaces/inkscape"
   width="30.858mm"
   height="30.858mm"
   viewBox="0 0 30.858 30.858"
   version="1.1"
   id="svg1933"
   inkscape:version="0.92.5 (2060ec1f9f, 2020-04-08)"
   sodipodi:docname="Incorporation of culture &amp; indiginous biodiversity in design.svg">
  <defs
     id="defs1927">
    <mask
       maskUnits="userSpaceOnUse"
       id="mask2260">
      <rect
         style="opacity:1;fill:#ffffff;fill-opacity:1;stroke:none;stroke-width:0.56499994;stroke-miterlimit:4;stroke-dasharray:none;stroke-opacity:1"
         id="rect2262"
         width="86.248459"
         height="109.59391"
         x="10.399542"
         y="-2.1886201" />
    </mask>
  </defs>
  <sodipodi:namedview
     id="base"
     pagecolor="#ffffff"
     bordercolor="#666666"
     borderopacity="1.0"
     inkscape:pageopacity="0.0"
     inkscape:pageshadow="2"
     inkscape:zoom="2.8"
     inkscape:cx="75.6566"
     inkscape:cy="49.641564"
     inkscape:document-units="mm"
     inkscape:current-layer="layer1"
     showgrid="false"
     units="mm"
     showguides="true"
     inkscape:guide-bbox="true"
     inkscape:snap-global="true"
     inkscape:window-width="1090"
     inkscape:window-height="767"
     inkscape:window-x="1076"
     inkscape:window-y="156"
     inkscape:window-maximized="0"
     inkscape:snap-others="false"
     inkscape:snap-bbox="true"
     inkscape:bbox-nodes="true"
     inkscape:snap-nodes="false">
    <sodipodi:guide
       position="0,16.503893"
       orientation="1,0"
       id="guide2524"
       inkscape:locked="false"
       inkscape:label=""
       inkscape:color="rgb(0,0,255)" />
    <sodipodi:guide
       position="14.29892,0"
       orientation="0,1"
       id="guide2526"
       inkscape:locked="false"
       inkscape:label=""
       inkscape:color="rgb(0,0,255)" />
    <sodipodi:guide
       position="85.526248,30.858"
       orientation="0,1"
       id="guide7505"
       inkscape:locked="false"
       inkscape:label=""
       inkscape:color="rgb(0,0,255)" />
    <sodipodi:guide
       position="15.434815,33.542326"
       orientation="1,0"
       id="guide7585"
       inkscape:locked="false" />
  </sodipodi:namedview>
  <metadata
     id="metadata1930">
    <rdf:RDF>
      <cc:Work
         rdf:about="">
        <dc:format>image/svg+xml</dc:format>
        <dc:type
           rdf:resource="http://purl.org/dc/dcmitype/StillImage" />
        <dc:title></dc:title>
      </cc:Work>
    </rdf:RDF>
  </metadata>
  <g
     inkscape:label="Layer 1"
     inkscape:groupmode="layer"
     id="layer1"
     transform="translate(0,-266.14199)">
    <g
       style="fill:#ffffff"
       id="g1937"
       transform="matrix(0.05167643,0,0,0.05167643,2.2514744,267.80335)">
      <g
         id="g1924"
         style="fill:#ffffff">
        <path
           id="path1920"
           d="m 274.8,274.8 v 18.8 h -37.5 v -18.8 c 0,-10.3 8.4,-18.8 18.8,-18.8 10.4,0 18.7,8.4 18.7,18.8 z"
           inkscape:connector-curvature="0"
           style="fill:#ffffff" />
        <path
           id="path1922"
           d="m 256,68.5 -93.7,65.6 V 68.5 h -37.5 v 91.9 L 68.6,199.8 H 106 V 443.5 H 406 V 199.8 h 37.5 z m 56.3,318.7 H 199.8 c -10.4,0 -18.8,-8.4 -18.8,-18.8 v -75 h 18.8 v -15.7 c 0,-30.5 22.9,-57.7 53.3,-59.3 32.5,-1.6 59.2,24.1 59.2,56.2 v 18.8 H 331 v 75 c 0,10.5 -8.4,18.8 -18.7,18.8 z"
           inkscape:connector-curvature="0"
           style="fill:#ffffff" />
      </g>
    </g>
    <g
       transform="translate(-160.07175,-320.73316)"
       id="g10515">
      <circle
         style="fill:#40a073;fill-opacity:1;stroke-width:0.46499997"
         id="circle1093-0-8-8-7-4-5-9"
         cx="175.50095"
         cy="602.30396"
         r="15.429199" />
      <g
         transform="matrix(0.25167116,0,0,0.25167116,163.28557,589.75722)"
         id="g4411"
         style="fill:#ffffff;stroke-width:1.05130565">
        <g
           style="fill:#ffffff;stroke-width:1.05130565"
           id="g4382">
          <g
             style="fill:#ffffff;stroke-width:1.05130565"
             i:extraneous="self"
             id="g4380">
            <g
               style="fill:#ffffff;stroke-width:1.05130565"
               id="g4378">
              <circle
                 style="fill:#ffffff;stroke-width:1.05130565"
                 cx="14.5"
                 cy="22.200001"
                 r="4.8000002"
                 id="circle4346" />
              <path
                 style="fill:#ffffff;stroke-width:1.05130565"
                 inkscape:connector-curvature="0"
                 d="M 28.2,35.9 24.3,34.6 21.1,30.7 C 20,29.3 18.3,28.5 16.5,28.5 h -4.2 c -5,0 -8.7,8.5 -9.8,11.1 -0.4,1.1 0.1,2.4 1.2,2.8 0.3,0.1 0.5,0.2 0.8,0.2 0.9,0 1.7,-0.5 2,-1.4 0.9,-2.2 2.1,-4.4 3.2,-6 L 9.4,43.7 6.2,59.6 c -0.3,1.3 0.5,2.6 1.8,2.9 0.2,0 0.3,0.1 0.5,0.1 1.1,0 2.1,-0.8 2.3,-1.9 L 14.2,45 h 0.9 v 15.2 c 0,1.3 1.1,2.4 2.4,2.4 1.3,0 2.4,-1.1 2.4,-2.4 L 20,44 19.7,35.9 21.4,38 c 0.3,0.3 0.6,0.6 1,0.7 l 4.5,1.4 c 1.1,0.4 2.4,-0.3 2.7,-1.4 0.4,-1.2 -0.2,-2.4 -1.4,-2.8 z"
                 id="path4348" />
              <path
                 style="fill:#ffffff;stroke-width:1.05130565"
                 inkscape:connector-curvature="0"
                 d="m 23.6,74.1 c -0.4,-0.3 -1,-0.4 -1.4,-0.1 -0.5,0.2 -0.8,0.7 -0.8,1.2 V 77 h -4.1 c -1.6,0 -2.8,-1.3 -2.8,-2.8 v -6.5 c 0,-0.9 -0.7,-1.7 -1.7,-1.7 -1,0 -1.7,0.7 -1.7,1.7 v 6.5 c 0,3.4 2.8,6.2 6.2,6.2 h 4.1 V 82 c 0,0.5 0.3,1 0.8,1.2 0.2,0.1 0.4,0.1 0.6,0.1 0.3,0 0.6,-0.1 0.8,-0.3 l 4.6,-3.4 c 0.4,-0.3 0.6,-0.7 0.6,-1.1 0,-0.4 -0.2,-0.8 -0.6,-1.1 z"
                 id="path4350" />
              <path
                 style="fill:#ffffff;stroke-width:1.05130565"
                 inkscape:connector-curvature="0"
                 d="m 84.9,66 c -0.9,0 -1.7,0.7 -1.7,1.7 v 6.5 c 0,1.6 -1.3,2.8 -2.8,2.8 h -4.1 v -1.8 c 0,-0.5 -0.3,-1 -0.8,-1.2 -0.5,-0.2 -1,-0.2 -1.4,0.1 l -4.6,3.4 c -0.3,0.3 -0.6,0.7 -0.6,1.1 0,0.4 0.2,0.8 0.6,1.1 l 4.6,3.4 c 0.2,0.2 0.5,0.3 0.8,0.3 0.2,0 0.4,0 0.6,-0.1 0.5,-0.2 0.8,-0.7 0.8,-1.2 v -1.8 h 4.1 c 3.4,0 6.2,-2.8 6.2,-6.2 V 67.6 C 86.5,66.7 85.8,66 84.9,66 Z"
                 id="path4352" />
              <path
                 style="fill:#ffffff;stroke-width:1.05130565"
                 inkscape:connector-curvature="0"
                 d="m 44.2,52 c -0.2,0.5 -0.2,1 0.1,1.4 l 3.4,4.6 c 0.3,0.3 0.7,0.6 1.1,0.6 0.4,0 0.8,-0.2 1.1,-0.6 l 3.4,-4.6 c 0.3,-0.4 0.4,-1 0.1,-1.4 -0.2,-0.5 -0.7,-0.8 -1.2,-0.8 h -1.8 v -7.8 c 0,-0.9 -0.7,-1.7 -1.7,-1.7 -1,0 -1.7,0.7 -1.7,1.7 v 7.8 h -1.8 c -0.3,0.1 -0.8,0.4 -1,0.8 z"
                 id="path4354" />
              <path
                 style="fill:#ffffff;stroke-width:1.05130565"
                 inkscape:connector-curvature="0"
                 d="m 97.5,27.7 c 0,-3.7 -3,-6.7 -6.6,-6.8 -1,-2.6 -3.5,-4.4 -6.4,-4.4 -2.9,0 -5.4,1.8 -6.4,4.4 -3.7,0.1 -6.6,3.1 -6.6,6.8 0,2.4 1.3,4.6 3.2,5.8 -0.4,1.3 -0.5,2.8 0.5,4.5 1.2,1.8 3.2,2.8 5.3,2.8 h 1.6 l -1,20.3 c 0,0.8 0.6,1.5 1.4,1.5 h 3.8 c 0.8,0 1.5,-0.7 1.4,-1.5 l -1,-20.3 h 1.6 c 2.1,0 4.2,-1 5.3,-2.8 1.1,-1.7 1,-3.2 0.5,-4.5 2.1,-1.2 3.4,-3.4 3.4,-5.8 z"
                 id="path4356" />
              <circle
                 style="fill:#ffffff;stroke-width:1.05130565"
                 cx="48.799999"
                 cy="21.299999"
                 r="7.4000001"
                 id="circle4358" />
              <path
                 style="fill:#ffffff;stroke-width:1.05130565"
                 inkscape:connector-curvature="0"
                 d="m 48.8,11.6 c 1,0 1.8,-0.8 1.8,-1.8 v -3 C 50.6,5.8 49.8,5 48.8,5 47.8,5 47,5.8 47,6.8 v 3 c 0.1,1 0.9,1.8 1.8,1.8 z"
                 id="path4360" />
              <path
                 style="fill:#ffffff;stroke-width:1.05130565"
                 inkscape:connector-curvature="0"
                 d="m 39.4,14.4 c 0.3,0.4 0.8,0.5 1.3,0.5 0.5,0 0.9,-0.2 1.3,-0.5 0.7,-0.7 0.7,-1.8 0,-2.5 L 39.9,9.8 c -0.7,-0.7 -1.8,-0.7 -2.5,0 -0.7,0.7 -0.7,1.8 0,2.5 z"
                 id="path4362" />
              <path
                 style="fill:#ffffff;stroke-width:1.05130565"
                 inkscape:connector-curvature="0"
                 d="m 34.3,23.1 h 3 c 1,0 1.8,-0.8 1.8,-1.8 0,-1 -0.8,-1.8 -1.8,-1.8 h -3 c -1,0 -1.8,0.8 -1.8,1.8 0.1,1 0.9,1.8 1.8,1.8 z"
                 id="path4364" />
              <path
                 style="fill:#ffffff;stroke-width:1.05130565"
                 inkscape:connector-curvature="0"
                 d="m 39.4,28.2 -2.1,2.1 c -0.7,0.7 -0.7,1.8 0,2.5 0.3,0.4 0.8,0.5 1.3,0.5 0.5,0 0.9,-0.2 1.3,-0.5 L 42,30.7 c 0.7,-0.7 0.7,-1.8 0,-2.5 -0.8,-0.7 -1.9,-0.7 -2.6,0 z"
                 id="path4366" />
              <path
                 style="fill:#ffffff;stroke-width:1.05130565"
                 inkscape:connector-curvature="0"
                 d="m 48.8,37.6 c 1,0 1.8,-0.8 1.8,-1.8 v -3 c 0,-1 -0.8,-1.8 -1.8,-1.8 -1,0 -1.8,0.8 -1.8,1.8 v 3 c 0.1,1 0.9,1.8 1.8,1.8 z"
                 id="path4368" />
              <path
                 style="fill:#ffffff;stroke-width:1.05130565"
                 inkscape:connector-curvature="0"
                 d="m 58.3,28.2 c -0.7,-0.7 -1.8,-0.7 -2.5,0 -0.7,0.7 -0.7,1.8 0,2.5 l 2.1,2.1 c 0.3,0.3 0.8,0.5 1.3,0.5 0.5,0 0.9,-0.2 1.3,-0.5 0.7,-0.7 0.7,-1.8 0,-2.5 z"
                 id="path4370" />
              <path
                 style="fill:#ffffff;stroke-width:1.05130565"
                 inkscape:connector-curvature="0"
                 d="m 58.6,21.3 c 0,1 0.8,1.8 1.8,1.8 h 3 c 1,0 1.8,-0.8 1.8,-1.8 0,-1 -0.8,-1.8 -1.8,-1.8 h -3 c -1,0 -1.8,0.8 -1.8,1.8 z"
                 id="path4372" />
              <path
                 style="fill:#ffffff;stroke-width:1.05130565"
                 inkscape:connector-curvature="0"
                 d="m 57,14.9 c 0.5,0 0.9,-0.2 1.3,-0.5 l 2.1,-2.1 c 0.7,-0.7 0.7,-1.8 0,-2.5 -0.7,-0.7 -1.8,-0.7 -2.5,0 l -2.1,2.1 c -0.7,0.7 -0.7,1.8 0,2.5 0.3,0.4 0.7,0.5 1.2,0.5 z"
                 id="path4374" />
              <path
                 style="fill:#ffffff;stroke-width:1.05130565"
                 inkscape:connector-curvature="0"
                 d="m 48.8,62.2 c -9,0 -16.4,7.3 -16.4,16.4 0,9 7.3,16.4 16.4,16.4 9,0 16.4,-7.3 16.4,-16.4 0,-9 -7.3,-16.4 -16.4,-16.4 z m 0,29.4 c -2.5,0 -4.9,-0.7 -6.9,-2 l 0.7,-3.1 C 42.8,85.7 42.7,85 42.4,84.2 L 41.4,82 C 41.3,81.8 41.1,81.6 40.8,81.5 L 37.2,81 c -0.3,-0.1 -0.5,-0.5 -0.3,-0.7 l 0.6,-0.7 c 0.2,-0.2 0.4,-0.3 0.7,-0.3 l 1.4,0.2 c 0.2,0 0.3,0 0.5,0 l 1.8,-0.4 c 0.1,0 0.1,0 0.2,-0.1 l 1.2,-0.6 c 0.2,-0.1 0.4,-0.3 0.4,-0.6 l 0.5,-3.6 c 0,-0.4 -0.2,-0.7 -0.5,-0.8 l -0.6,-0.2 c -0.3,-0.1 -0.5,-0.4 -0.5,-0.7 0,-0.4 0.3,-0.8 0.7,-0.8 l 0.9,-0.1 c 0.4,0 0.7,-0.4 0.7,-0.8 l -0.1,-1.1 -0.1,-2.2 c 0,-0.3 -0.2,-0.6 -0.5,-0.7 l -0.5,-0.2 c 1.6,-0.7 3.3,-1.1 5.1,-1.1 1,0 2,0.1 2.9,0.3 l 0.1,1.9 c 0,0 0,0 0,0.1 l -0.3,2.4 c 0,0.1 0,0.2 0.1,0.2 l 0.3,0.4 c 0.1,0.2 0.4,0.2 0.5,0.1 l 0.7,-0.7 c 0.2,-0.2 0.5,-0.1 0.6,0.2 v 0.1 c 0,0.1 0.2,0.2 0.3,0.3 h 0.8 c 0,0 0.1,0 0.1,0 l 0.7,-0.3 c 0.3,-0.1 0.5,0.2 0.5,0.4 l -0.4,1.2 c 0,0.1 -0.2,0.2 -0.3,0.2 h -0.9 c 0,0 -0.1,0 -0.1,0 L 53.2,72 C 53.1,72 53,72 53,72 l -0.5,0.2 c -0.1,0 -0.2,0 -0.3,0 l -0.7,-0.3 c -0.1,0 -0.2,0 -0.3,0 l -0.9,0.6 c -0.1,0.1 -0.1,0.2 -0.1,0.3 l 0.1,1.1 c 0,0.1 -0.1,0.3 -0.2,0.4 l -0.7,0.3 c -0.2,0.1 -0.3,0.4 -0.1,0.6 l 0.5,0.5 c 0.1,0.1 0.2,0.1 0.3,0.1 L 51,75.6 c 0.1,0 0.2,0 0.2,0 l 0.4,0.2 c 0.1,0.1 0.4,0.3 0.7,0.5 0.2,0.1 0.4,0.1 0.5,-0.1 0.1,-0.1 0.1,-0.1 0.3,-0.2 l 0.7,-0.1 c 0.1,0 0.1,0 0.2,-0.1 V 76 c 0.2,-0.2 0.5,-0.1 0.6,0.1 l 0.4,1 c 0,0 0,0.1 0.1,0.1 l 0.4,0.5 c 0.1,0.1 0.1,0.3 0,0.5 l -1,0.9 c -0.1,0.1 -0.3,0.1 -0.5,0 l -0.9,-0.9 c 0,0 -0.1,0 -0.1,-0.1 l -1.3,-0.6 c 0,0 -0.1,0 -0.1,0 l -1.7,-0.2 c 0,0 -0.1,0 -0.1,0 l -1.4,0.4 c -0.5,0.1 -0.8,0.5 -1,0.9 L 47,79.7 c -0.1,0.3 -0.1,0.7 0.1,1 l 0.5,1.2 c 0.2,0.5 0.7,0.8 1.2,0.8 l 1.3,0.1 c 0.1,0 0.1,0 0.1,0 l 0.7,0.4 c 0.1,0.1 0.2,0.2 0.2,0.3 L 51,85 c 0,0.5 0.2,0.9 0.4,1.3 l 0.6,1.2 c 0,0.1 0.1,0.1 0.1,0.1 l 1,0.8 c 0.2,0.1 0.4,0.1 0.6,-0.1 L 54,87.8 c 0,-0.1 0.1,-0.1 0.1,-0.2 l 0.8,-1.9 c 0,0 0,-0.1 0,-0.1 l 0.3,-2.7 c 0,0 0,-0.1 0,-0.1 l 0.5,-1.1 c 0.1,-0.1 0.2,-0.2 0.4,-0.2 l 1.9,0.2 c 0.1,0 0.2,0 0.3,-0.1 l 0.4,-0.4 c 0.1,-0.1 0.1,-0.3 0,-0.5 l -0.9,-1.2 c -0.2,-0.2 0,-0.5 0.2,-0.6 l 0.3,-0.1 c 0.1,0 0.6,0 0.8,-0.1 0,0 0,0 0.1,0 l 0.8,0.1 c 0.2,0 0.4,0.2 0.3,0.4 l -0.2,2.4 c 0,0.1 0,0.1 0,0.2 l 0.6,1.7 c -1.9,4.9 -6.5,8.1 -11.9,8.1 z"
                 id="path4376" />
            </g>
          </g>
        </g>
      </g>
    </g>
  </g>
</svg>
