<?xml version="1.0" encoding="UTF-8" standalone="no"?>
<!-- Created with Inkscape (http://www.inkscape.org/) -->

<svg
   xmlns:dc="http://purl.org/dc/elements/1.1/"
   xmlns:cc="http://creativecommons.org/ns#"
   xmlns:rdf="http://www.w3.org/1999/02/22-rdf-syntax-ns#"
   xmlns:svg="http://www.w3.org/2000/svg"
   xmlns="http://www.w3.org/2000/svg"
   xmlns:sodipodi="http://sodipodi.sourceforge.net/DTD/sodipodi-0.dtd"
   xmlns:inkscape="http://www.inkscape.org/namespaces/inkscape"
   width="30.858mm"
   height="30.858mm"
   viewBox="0 0 30.858 30.858"
   version="1.1"
   id="svg1933"
   inkscape:version="0.92.5 (2060ec1f9f, 2020-04-08)"
   sodipodi:docname="Local vehicle speeds.svg">
  <defs
     id="defs1927">
    <mask
       maskUnits="userSpaceOnUse"
       id="mask2260">
      <rect
         style="opacity:1;fill:#ffffff;fill-opacity:1;stroke:none;stroke-width:0.56499994;stroke-miterlimit:4;stroke-dasharray:none;stroke-opacity:1"
         id="rect2262"
         width="86.248459"
         height="109.59391"
         x="10.399542"
         y="-2.1886201" />
    </mask>
  </defs>
  <sodipodi:namedview
     id="base"
     pagecolor="#ffffff"
     bordercolor="#666666"
     borderopacity="1.0"
     inkscape:pageopacity="0.0"
     inkscape:pageshadow="2"
     inkscape:zoom="2.8"
     inkscape:cx="59.624689"
     inkscape:cy="25.969666"
     inkscape:document-units="mm"
     inkscape:current-layer="layer1"
     showgrid="false"
     units="mm"
     showguides="true"
     inkscape:guide-bbox="true"
     inkscape:snap-global="true"
     inkscape:window-width="1090"
     inkscape:window-height="767"
     inkscape:window-x="824"
     inkscape:window-y="161"
     inkscape:window-maximized="0"
     inkscape:snap-others="false"
     inkscape:snap-bbox="true"
     inkscape:bbox-nodes="true"
     inkscape:snap-nodes="false">
    <sodipodi:guide
       position="0,16.503893"
       orientation="1,0"
       id="guide2524"
       inkscape:locked="false"
       inkscape:label=""
       inkscape:color="rgb(0,0,255)" />
    <sodipodi:guide
       position="14.29892,0"
       orientation="0,1"
       id="guide2526"
       inkscape:locked="false"
       inkscape:label=""
       inkscape:color="rgb(0,0,255)" />
    <sodipodi:guide
       position="85.526248,30.858"
       orientation="0,1"
       id="guide7505"
       inkscape:locked="false"
       inkscape:label=""
       inkscape:color="rgb(0,0,255)" />
    <sodipodi:guide
       position="15.434815,33.542326"
       orientation="1,0"
       id="guide7585"
       inkscape:locked="false" />
  </sodipodi:namedview>
  <metadata
     id="metadata1930">
    <rdf:RDF>
      <cc:Work
         rdf:about="">
        <dc:format>image/svg+xml</dc:format>
        <dc:type
           rdf:resource="http://purl.org/dc/dcmitype/StillImage" />
        <dc:title></dc:title>
      </cc:Work>
    </rdf:RDF>
  </metadata>
  <g
     inkscape:label="Layer 1"
     inkscape:groupmode="layer"
     id="layer1"
     transform="translate(0,-266.14199)">
    <g
       style="fill:#ffffff;stroke-width:1.20943701"
       id="g1829"
       transform="matrix(0.04272767,0,0,0.04272767,4.3256279,270.19715)">
      <path
         id="path1806"
         d="m 405.7,165.4 -16.9,6.4 c -6.3,2.4 -12.9,3.6 -19.6,3.6 -1.4,0 -2.9,-0.1 -4.3,-0.2 -18.8,-1.4 -51.9,-4 -73.2,-5.6 L 256,206.4 220,169.2 c -15.6,-16 -37,-25.1 -59.3,-25.1 -0.2,0 -0.5,0 -0.7,0 -10.6,0.1 -21.1,2.2 -30.8,6.4 l -0.8,0.3 c -9.6,4.2 -18.3,10.4 -25.5,18.1 -30.9,33.6 -30.5,85.4 1,118.4 l 48.4,50 c 21.2,1.6 54.7,4.2 73.8,5.6 11.9,0.9 22.3,8.5 26.7,19.6 l 0.2,0.5 c 6.3,15.8 -1.4,33.7 -17.2,40 -2.1,0.8 -4.3,1.4 -6.5,1.8 l -23.7,3.9 24.9,10.6 c 6,2.6 12.8,2.6 18.9,0 l 53,-22.7 105.7,-109.3 c 31.5,-33 31.9,-84.8 1,-118.4 -1.1,-1.2 -2.2,-2.4 -3.4,-3.5 z M 240,280 h -32 v 32 h -32 v -32 h -32 v -32 h 32 v -32 h 32 v 32 h 32 z m 96,8 -16,8 v 48 h -32 v -48 l -16,-8 v -30.1 c 0,-6.1 3.4,-11.6 8.8,-14.3 L 304,232 l -7.2,-3.6 c -5.4,-2.7 -8.8,-8.3 -8.8,-14.3 v -4.2 c 0,-8.8 7.2,-16 16,-16 8.8,0 16,7.2 16,16 v 4.2 c 0,6.1 -3.4,11.6 -8.8,14.3 l -7.2,3.6 23.2,11.6 c 5.4,2.7 8.8,8.3 8.8,14.3 z"
         inkscape:connector-curvature="0"
         style="fill:#ffffff;stroke-width:1.20943701" />
      <rect
         id="rect1808"
         height="88"
         width="32"
         y="376"
         x="32"
         style="fill:#ffffff;stroke-width:1.20943701" />
      <path
         id="path1810"
         d="M 407.3,45.1 378.7,33.7 C 375.9,32.6 372.8,32 369.8,32 h -121 c -4.3,0 -8.6,1.2 -12.3,3.4 l -132.1,79.3 c -6.3,3.8 -8.4,12 -4.6,18.3 3.4,5.7 10.6,8 16.7,5.4 l 4.4,-1.9 c 1.2,-0.5 2.3,-1 3.5,-1.5 L 272,71.3 l 63.9,27.2 14.9,-2.4 2.6,15.8 -68.2,11.1 c -8.1,1.3 -13.5,8.9 -12.2,17 0.2,1.1 0.5,2.1 0.9,3.1 l 0.2,0.5 c 2.1,5.5 7.2,9.2 13,9.6 20.8,1.5 58.4,4.4 78.9,6 5.8,0.5 11.6,-0.4 17.1,-2.4 L 432,138.5 V 48 h -9.8 c -5.1,0 -10.2,-1 -14.9,-2.9 z"
         inkscape:connector-curvature="0"
         style="fill:#ffffff;stroke-width:1.20943701" />
      <rect
         id="rect1812"
         height="88"
         width="32"
         y="48"
         x="448"
         style="fill:#ffffff;stroke-width:1.20943701" />
      <path
         id="path1814"
         d="M 395.9,373.9 255.7,434 c -10,4.3 -21.4,4.3 -31.4,0 l -48.1,-20.5 -14.9,2.4 -2.6,-15.8 68.1,-11.1 c 8.1,-1.3 13.5,-8.9 12.2,-17 -0.2,-1.1 -0.5,-2.1 -0.9,-3.1 l -0.2,-0.5 c -2.1,-5.5 -7.2,-9.2 -13,-9.6 -20.8,-1.5 -58.4,-4.4 -78.9,-6 -5.8,-0.5 -11.6,0.4 -17.1,2.4 L 80,373.5 V 464 h 9.8 c 5.1,0 10.1,1 14.9,2.9 l 28.6,11.4 c 2.8,1.1 5.9,1.7 8.9,1.7 h 121 c 4.3,0 8.6,-1.2 12.3,-3.4 l 132.3,-79.4 c 6.2,-3.7 8.2,-11.8 4.5,-18 -3.4,-5.6 -10.4,-7.9 -16.4,-5.3 z"
         inkscape:connector-curvature="0"
         style="fill:#ffffff;stroke-width:1.20943701" />
    </g>
    <g
       style="fill:#ffffff;stroke-width:1.27491653"
       id="g3556"
       transform="matrix(0.42010107,0,0,0.42010107,7.9079933,271.42233)">
      <path
         id="path3545"
         transform="translate(-494,-327.3)"
         d="m 512,327.3 a 18,18 0 0 0 -18,18 c 0,8.7 13.8,26.6 17.2,31 a 1,1 0 0 0 1.6,0 c 3.5,-4.4 17.2,-22.3 17.2,-31 a 18,18 0 0 0 -18,-18 z m 1.6,29.9 a 12,12 0 0 1 -13.5,-13.5 12.8,12.8 0 0 1 10.3,-10.3 12,12 0 0 1 13.5,13.5 12.8,12.8 0 0 1 -10.3,10.3 z m -5.7,-17.1 a 4.1,4.1 0 1 1 4.1,4.1 4.1,4.1 0 0 1 -4.1,-4.1 z m 4.1,5.9 a 8.8,8.8 0 0 0 -7.4,4.7 0.9,0.9 0 0 0 0.9,1.5 h 13 a 0.9,0.9 0 0 0 0.9,-1.5 8.8,8.8 0 0 0 -7.4,-4.6 z"
         inkscape:connector-curvature="0"
         style="fill:#ffffff;stroke-width:1.27491653" />
    </g>
    <g
       transform="translate(-89.805695,-165.69783)"
       id="g8898">
      <circle
         style="fill:#40a073;fill-opacity:1;stroke-width:0.46499997"
         id="circle1093-0-8-8-7-3-7-7"
         cx="105.23489"
         cy="447.26862"
         r="15.429199" />
      <g
         transform="matrix(0.34066088,0,0,0.34066088,95.036549,437.75065)"
         id="g6297"
         style="fill:#ffffff;stroke-width:1.29446101">
        <g
           style="fill:#ffffff;fill-rule:evenodd;stroke:none;stroke-width:1.29446101"
           id="g6282">
          <g
             style="fill:#ffffff;stroke-width:1.29446101"
             transform="translate(-360,-529)"
             id="g6280">
            <g
               style="fill:#ffffff;stroke-width:1.29446101"
               transform="translate(360,529)"
               id="g6278">
              <path
                 style="fill:#ffffff;stroke-width:1.29446101"
                 inkscape:connector-curvature="0"
                 d="m 40.8579,20.5146 -2.851,4.752 c -0.996,1.659 -1.852,3.456 -2.679,5.193 -0.276,0.578 -0.552,1.157 -0.833,1.733 -0.855,1.75 -2.612,2.805 -4.507,2.805 -0.38,0 -0.767,-0.043 -1.152,-0.13 -1.832,-0.418 -3.285,-1.871 -3.703,-3.703 -0.526,-2.305 0.574,-4.633 2.675,-5.659 0.576,-0.282 1.155,-0.558 1.734,-0.834 1.737,-0.827 3.534,-1.683 5.193,-2.678 l 4.751,-2.851 c 0.394,-0.235 0.898,-0.173 1.222,0.15 0.324,0.325 0.386,0.828 0.15,1.222 z m 11.768,20.096 c -0.502,-0.23 -0.724,-0.823 -0.494,-1.325 0.23,-0.502 0.825,-0.724 1.326,-0.494 l 4.5,2.059 c 1.213,-3.118 1.89,-6.428 2.001,-9.851 h -8.958 c -0.553,0 -1,-0.447 -1,-1 0,-0.552 0.447,-1 1,-1 h 8.974 c -0.112,-3.39 -0.786,-6.639 -1.937,-9.657 l -4.454,2.127 c -0.139,0.066 -0.286,0.098 -0.431,0.098 -0.373,0 -0.731,-0.21 -0.902,-0.57 -0.239,-0.498 -0.027,-1.095 0.471,-1.333 l 4.539,-2.167 c -1.384,-3.006 -3.25,-5.743 -5.5,-8.117 l -3.349,3.621 c -0.197,0.213 -0.465,0.321 -0.734,0.321 -0.243,0 -0.487,-0.088 -0.679,-0.266 -0.405,-0.375 -0.43,-1.008 -0.055,-1.414 l 3.395,-3.67 c -2.263,-2.091 -4.847,-3.837 -7.67,-5.158 l -2.056,4.555 c -0.167,0.371 -0.531,0.59 -0.912,0.59 -0.137,0 -0.277,-0.029 -0.41,-0.089 -0.504,-0.227 -0.728,-0.819 -0.501,-1.323 l 2.039,-4.517 c -3.066,-1.192 -6.374,-1.891 -9.828,-2.005 v 8.974 c 0,0.553 -0.448,1 -1,1 -0.553,0 -1,-0.447 -1,-1 v -8.974 c -3.24,0.107 -6.352,0.722 -9.255,1.781 l 1.758,4.69 c 0.194,0.517 -0.068,1.094 -0.585,1.288 -0.116,0.042 -0.234,0.063 -0.351,0.063 -0.405,0 -0.786,-0.248 -0.937,-0.649 l -1.738,-4.637 c -3.102,1.374 -5.927,3.257 -8.372,5.545 l 3.509,3.509 c 0.391,0.39 0.391,1.023 0,1.414 -0.195,0.195 -0.451,0.293 -0.707,0.293 -0.256,0 -0.512,-0.098 -0.707,-0.293 l -3.509,-3.509 c -2.15,2.297 -3.943,4.929 -5.291,7.811 l 4.555,2.056 c 0.503,0.227 0.727,0.819 0.5,1.322 -0.167,0.37 -0.531,0.59 -0.912,0.59 -0.138,0 -0.277,-0.029 -0.411,-0.089 l -4.517,-2.039 c -1.191,3.066 -1.891,6.374 -2.005,9.828 h 8.975 c 0.552,0 1,0.448 1,1 0,0.553 -0.448,1 -1,1 h -8.959 c 0.106,3.29 0.731,6.477 1.858,9.488 l 4.551,-1.973 c 0.505,-0.218 1.095,0.013 1.315,0.521 0.219,0.506 -0.013,1.095 -0.52,1.314 l -4.595,1.991 c 1.005,2.216 2.284,4.323 3.837,6.281 0.19,0.239 0.478,0.378 0.784,0.378 h 45.458 c 0.305,0 0.593,-0.139 0.783,-0.378 1.47,-1.854 2.683,-3.845 3.663,-5.93 z"
                 id="path6274" />
              <path
                 style="fill:#ffffff;stroke-width:1.29446101"
                 inkscape:connector-curvature="0"
                 d="m 30.4019,26.4775 c -0.573,0.273 -1.146,0.546 -1.716,0.825 -1.263,0.616 -1.922,2.022 -1.603,3.417 0.244,1.07 1.128,1.954 2.197,2.197 1.397,0.319 2.801,-0.34 3.418,-1.602 0.279,-0.57 0.552,-1.143 0.824,-1.715 0.848,-1.78 1.725,-3.621 2.77,-5.362 l 0.793,-1.322 -1.321,0.793 c -1.742,1.044 -3.582,1.921 -5.362,2.769"
                 id="path6276" />
            </g>
          </g>
        </g>
      </g>
    </g>
  </g>
</svg>
