<?xml version="1.0" encoding="UTF-8" standalone="no"?>
<!-- Created with Inkscape (http://www.inkscape.org/) -->

<svg
   xmlns:dc="http://purl.org/dc/elements/1.1/"
   xmlns:cc="http://creativecommons.org/ns#"
   xmlns:rdf="http://www.w3.org/1999/02/22-rdf-syntax-ns#"
   xmlns:svg="http://www.w3.org/2000/svg"
   xmlns="http://www.w3.org/2000/svg"
   xmlns:sodipodi="http://sodipodi.sourceforge.net/DTD/sodipodi-0.dtd"
   xmlns:inkscape="http://www.inkscape.org/namespaces/inkscape"
   width="30.858mm"
   height="30.858mm"
   viewBox="0 0 30.858 30.858"
   version="1.1"
   id="svg1933"
   inkscape:version="0.92.5 (2060ec1f9f, 2020-04-08)"
   sodipodi:docname="Non-communicable diseases.svg">
  <defs
     id="defs1927" />
  <sodipodi:namedview
     id="base"
     pagecolor="#ffffff"
     bordercolor="#666666"
     borderopacity="1.0"
     inkscape:pageopacity="0.0"
     inkscape:pageshadow="2"
     inkscape:zoom="2.8"
     inkscape:cx="89.474658"
     inkscape:cy="11.049758"
     inkscape:document-units="mm"
     inkscape:current-layer="layer1"
     showgrid="false"
     units="mm"
     showguides="true"
     inkscape:guide-bbox="true"
     inkscape:snap-global="true"
     inkscape:window-width="1090"
     inkscape:window-height="767"
     inkscape:window-x="144"
     inkscape:window-y="70"
     inkscape:window-maximized="0">
    <sodipodi:guide
       position="0,16.503893"
       orientation="1,0"
       id="guide2524"
       inkscape:locked="false"
       inkscape:label=""
       inkscape:color="rgb(0,0,255)" />
    <sodipodi:guide
       position="14.29892,0"
       orientation="0,1"
       id="guide2526"
       inkscape:locked="false"
       inkscape:label=""
       inkscape:color="rgb(0,0,255)" />
  </sodipodi:namedview>
  <metadata
     id="metadata1930">
    <rdf:RDF>
      <cc:Work
         rdf:about="">
        <dc:format>image/svg+xml</dc:format>
        <dc:type
           rdf:resource="http://purl.org/dc/dcmitype/StillImage" />
        <dc:title></dc:title>
      </cc:Work>
    </rdf:RDF>
  </metadata>
  <g
     inkscape:label="Layer 1"
     inkscape:groupmode="layer"
     id="layer1"
     transform="translate(0,-266.14199)">
    <g
       transform="translate(-90.165672,145.85657)"
       id="g6510">
      <circle
         style="fill:#44263a;fill-opacity:1;stroke-width:0.46499997"
         id="circle1093-0-8-1"
         cx="105.59487"
         cy="135.71422"
         r="15.429199" />
      <g
         transform="matrix(0.08507069,0,0,0.08507069,97.249773,124.77293)"
         id="g1333"
         style="fill:#ffffff;stroke-width:1.24529862">
        <g
           style="fill:#ffffff;stroke-width:1.24529862"
           id="g1315">
          <path
             style="fill:#ffffff;stroke-width:1.24529862"
             inkscape:connector-curvature="0"
             d="m 4.755,131.303 c 0,5.836 0.188,12.185 0.594,19.103 0.217,3.72 3.301,6.591 6.98,6.591 0.138,0 0.278,-0.005 0.417,-0.013 3.858,-0.228 6.805,-3.537 6.579,-7.396 -0.392,-6.671 -0.569,-12.748 -0.569,-18.284 -0.012,-8.959 0.461,-16.483 1.241,-22.78 -3.571,-0.196 -9.124,-0.782 -13.796,-2.501 -0.919,7.145 -1.441,15.488 -1.446,25.28 z"
             id="path1301" />
          <path
             style="fill:#ffffff;stroke-width:1.24529862"
             inkscape:connector-curvature="0"
             d="m 26.72,237.388 c 0,6.831 5.537,12.364 12.363,12.364 6.828,0 12.365,-5.533 12.365,-12.364 v -33.145 c -5.16,-0.156 -15.18,-0.822 -24.729,-2.868 v 36.013 z"
             id="path1303" />
          <path
             style="fill:#ffffff;stroke-width:1.24529862"
             inkscape:connector-curvature="0"
             d="m 56.083,237.388 c 0,6.831 5.537,12.364 12.363,12.364 6.828,0 12.365,-5.533 12.365,-12.364 v -36.013 c -9.551,2.046 -19.57,2.712 -24.728,2.868 z"
             id="path1305" />
          <path
             style="fill:#ffffff;stroke-width:1.24529862"
             inkscape:connector-curvature="0"
             d="m 191.265,16.332 c 0,-0.829 -0.671,-1.5 -1.498,-1.5 -0.829,0 -1.5,0.671 -1.5,1.5 -0.01,4.212 -3.066,7.691 -7.084,8.373 -0.052,-0.137 -0.093,-0.289 -0.148,-0.42 -0.373,-0.86 -0.828,-1.612 -1.439,-2.217 -0.598,-0.598 -1.441,-1.071 -2.412,-1.068 -0.975,-0.003 -1.815,0.471 -2.414,1.068 -0.705,0.729 -1.247,1.672 -1.654,2.766 H 162.934 V 3.5 c 0,-1.934 -1.566,-3.5 -3.5,-3.5 -1.932,0 -3.5,1.566 -3.5,3.5 v 21.333 l -10.203,-10e-4 c -0.067,-0.18 -0.122,-0.376 -0.195,-0.547 -0.374,-0.86 -0.828,-1.612 -1.439,-2.217 -0.601,-0.598 -1.44,-1.071 -2.413,-1.068 -0.975,-0.003 -1.814,0.471 -2.415,1.068 -0.676,0.699 -1.206,1.593 -1.607,2.631 -4.007,-0.688 -7.054,-4.162 -7.062,-8.367 0,-0.829 -0.674,-1.5 -1.5,-1.5 -0.829,0 -1.5,0.671 -1.5,1.5 0,5.608 4.013,10.27 9.322,11.289 -0.144,0.947 -0.227,1.949 -0.239,3.004 0.003,1.386 0.15,2.683 0.403,3.875 h -1.402 c -2.209,0 -4,1.791 -4,4 v 32 c 0,2.209 1.791,4 4,4 h 3.583 v 1.666 h -0.75 c -1.15,0 -2.083,0.934 -2.083,2.084 0,1.15 0.933,2.084 2.083,2.084 h 2.206 c 0.011,0.841 0.02,1.915 0.02,3.205 0,9.003 -0.441,28.026 -3.673,44.712 -1.61,8.339 -3.931,16.093 -7.169,21.662 -3.266,5.592 -7.279,8.872 -12.43,8.875 -4.124,0.011 -9.24,-2.149 -15.414,-7.443 0.061,-0.307 0.107,-0.619 0.127,-0.94 0.402,-6.917 0.589,-13.262 0.589,-19.1 -0.011,-9.786 -0.532,-18.129 -1.448,-25.28 -4.674,1.718 -10.229,2.304 -13.799,2.499 0.777,6.305 1.251,13.824 1.248,22.781 0,5.537 -0.178,11.612 -0.568,18.283 -0.225,3.858 2.721,7.17 6.581,7.398 0.138,0.008 0.274,0.012 0.41,0.012 2.626,0 4.943,-1.465 6.14,-3.652 6.132,5.123 11.441,7.432 16.135,7.444 0.002,0 0.004,0 0.006,0 6.107,0 10.758,-3.989 14.153,-9.871 10.198,-17.66 11.082,-53.745 11.112,-67.379 0,-1.283 -0.009,-2.359 -0.02,-3.205 h 2.128 c 1.15,0 2.083,-0.934 2.083,-2.084 0,-1.15 -0.933,-2.084 -2.083,-2.084 h -0.75 V 74.5 h 3.583 c 2.209,0 4,-1.791 4,-4 v -32 c 0,-2.209 -1.791,-4 -4,-4 h -1.387 c 0.244,-1.188 0.369,-2.492 0.386,-3.875 -0.001,-0.978 -0.085,-1.903 -0.212,-2.791 h 9.463 v 194.547 c -17.539,0.838 -22.815,8.274 -23.22,9.108 l -0.419,0.707 v 3.827 c -1.957,0.968 -3.306,2.978 -3.306,5.308 0,3.273 2.652,5.924 5.924,5.924 3.272,0 5.924,-2.65 5.924,-5.924 0,-2.015 -1.008,-3.791 -2.544,-4.861 v -2.378 c 1.314,-1.372 5.803,-4.997 17.641,-5.671 v 7.945 c -1.623,1.057 -2.698,2.884 -2.698,4.965 0,3.273 2.651,5.924 5.923,5.924 3.271,0 5.924,-2.65 5.924,-5.924 0,-1.837 -0.837,-3.478 -2.148,-4.565 v -8.378 c 7.414,0.381 11.984,1.971 14.687,3.418 1.551,0.831 2.5,1.62 3.039,2.147 0.044,0.044 0.086,0.086 0.125,0.126 v 2.253 c -1.654,1.051 -2.754,2.894 -2.754,4.998 0,3.273 2.652,5.924 5.924,5.924 3.271,0 5.924,-2.65 5.924,-5.924 0,-2.247 -1.252,-4.202 -3.096,-5.206 v -3.927 l -0.42,-0.709 c -0.404,-0.837 -5.725,-8.328 -23.43,-9.116 V 27.834 h 9.453 c -0.123,0.884 -0.193,1.816 -0.205,2.791 0.003,1.386 0.151,2.683 0.404,3.875 h -1.402 c -2.209,0 -4,1.791 -4,4 v 32 c 0,2.209 1.791,4 4,4 h 3.584 v 1.666 h -0.75 c -1.15,0 -2.084,0.934 -2.084,2.084 0,1.15 0.934,2.084 2.084,2.084 h 6.334 c 1.15,0 2.082,-0.934 2.082,-2.084 0,-1.15 -0.932,-2.084 -2.082,-2.084 h -0.75 V 74.5 h 3.582 c 2.209,0 4,-1.791 4,-4 v -32 c 0,-2.209 -1.791,-4 -4,-4 h -1.387 c 0.244,-1.188 0.369,-2.491 0.385,-3.875 h 0.002 c -0.002,-1.055 -0.094,-2.055 -0.242,-3.003 5.308,-1.019 9.323,-5.682 9.323,-11.29 z M 141.683,24 c 0,0 0.002,-0.001 0.004,-0.001 0.018,0 0.1,0.013 0.307,0.208 0.148,0.128 0.305,0.354 0.461,0.625 h -1.544 c 0.163,-0.277 0.325,-0.495 0.46,-0.625 0.237,-0.225 0.312,-0.203 0.312,-0.207 z m 8.001,27.668 V 70.5 c 0,1.104 -0.897,2.002 -2,2.002 h -11.999 c -1.105,0 -2.002,-0.898 -2.002,-2.002 V 51.668 c 0,0 1.494,0.892 7,0.99 V 55 h -2.5 v 1.168 h 2.5 v 3.166 h -2.5 V 60.5 h 2.5 v 3.166 h -2.5 v 1.168 h 2.5 v 2.916 h 2 v -2.916 h 2.5 v -1.168 h -2.5 V 60.5 h 2.5 v -1.166 h -2.5 v -3.166 h 2.5 V 55 h -2.5 v -2.342 c 5.506,-0.098 7.001,-0.99 7.001,-0.99 z m -6.003,-21.043 c 0.004,1.441 -0.182,2.78 -0.472,3.875 h -3.044 c -0.297,-1.096 -0.503,-2.435 -0.483,-3.875 -0.002,-0.994 0.087,-1.939 0.235,-2.791 h 3.523 c 0.157,0.854 0.255,1.796 0.241,2.791 z m 33.191,-6.418 c 0.238,-0.225 0.31,-0.203 0.31,-0.209 0,0.002 0.073,-0.016 0.311,0.209 0.148,0.128 0.307,0.354 0.463,0.628 h -1.547 c 0.164,-0.278 0.327,-0.497 0.463,-0.628 z m 8.313,18.436 V 70.5 c 0,1.104 -0.899,2.002 -2,2.002 h -12 c -1.104,0 -2.002,-0.898 -2.002,-2.002 V 42.643 c 0,0 1.494,0.892 7,0.99 v 2.701 h -2.5 v 1.168 h 2.5 v 3.166 h -2.5 v 1.166 h 2.5 V 55 h -2.5 v 1.168 h 2.5 v 3.166 h -2.5 V 60.5 h 2.5 v 3.166 h -2.5 v 1.168 h 2.5 v 2.916 h 2 v -2.916 h 2.5 v -1.168 h -2.5 V 60.5 h 2.5 v -1.166 h -2.5 v -3.166 h 2.5 V 55 h -2.5 v -3.166 h 2.5 v -1.166 h -2.5 v -3.166 h 2.5 v -1.168 h -2.5 v -2.701 c 5.505,-0.099 7.002,-0.99 7.002,-0.99 z M 175.663,34.5 c -0.297,-1.096 -0.502,-2.435 -0.482,-3.875 0,-0.994 0.088,-1.939 0.236,-2.791 h 3.523 c 0.156,0.854 0.254,1.796 0.24,2.791 h 0.002 c 0.002,1.441 -0.184,2.78 -0.475,3.875 z"
             id="path1307" />
          <path
             style="fill:#ffffff;stroke-width:1.24529862"
             inkscape:connector-curvature="0"
             d="m 107.016,100.116 c 0.177,-0.163 0.353,-0.327 0.516,-0.499 -5.759,-26.67 -24.187,-33.774 -27.487,-34.845 -2.744,-1.173 -5.099,-1.463 -6.578,-1.485 -0.128,-0.007 -0.254,-0.02 -0.383,-0.02 h -3.92 c -2.48,1.827 -5.299,3.22 -8.343,4.076 -1.224,9.406 -4.376,31.94 -6.487,31.94 -2.088,0 -5.195,-22.057 -6.447,-31.64 -3.495,-0.809 -6.721,-2.317 -9.519,-4.377 h -3.919 c -0.127,0 -0.249,0.013 -0.373,0.019 -1.48,0.021 -3.845,0.31 -6.6,1.49 C 24.141,65.861 5.751,72.982 0,99.617 c 0.163,0.172 0.339,0.336 0.516,0.499 6.704,6.148 23.151,5.834 23.151,5.834 0,0 -0.058,0.959 -0.155,2.669 -0.632,11.031 -2.976,53.691 -2.89,77.21 0.017,4.728 0.131,8.688 0.378,11.454 12.667,3.666 28.333,4.334 32.766,4.334 4.433,0 20.099,-0.668 32.766,-4.334 0.247,-2.767 0.361,-6.727 0.378,-11.454 0.086,-23.518 -2.258,-66.179 -2.89,-77.21 -0.098,-1.71 -0.155,-2.669 -0.155,-2.669 0,0 16.446,0.315 23.151,-5.834 z"
             id="path1309" />
          <path
             style="fill:#ffffff;stroke-width:1.24529862"
             inkscape:connector-curvature="0"
             d="m 76.257,36.575 c 0.002,-0.113 0.008,-0.226 0.008,-0.339 0,-12.428 -10.072,-22.5 -22.5,-22.5 -12.426,0 -22.5,10.072 -22.5,22.5 0,0.113 0.008,0.226 0.009,0.339 9.474,-6.699 35.508,-6.699 44.983,0 z"
             id="path1311" />
          <path
             style="fill:#ffffff;stroke-width:1.24529862"
             inkscape:connector-curvature="0"
             d="m 53.765,65.57 c 12.428,0 22.5,-10.074 22.5,-22.5 0,-12.428 -45,-12.428 -45,0 0,12.426 10.074,22.5 22.5,22.5 z"
             id="path1313" />
        </g>
      </g>
    </g>
  </g>
</svg>
