<?xml version="1.0" encoding="UTF-8" standalone="no"?>
<!-- Created with Inkscape (http://www.inkscape.org/) -->

<svg
   xmlns:i="http://ns.adobe.com/AdobeIllustrator/10.0/"
   xmlns:dc="http://purl.org/dc/elements/1.1/"
   xmlns:cc="http://creativecommons.org/ns#"
   xmlns:rdf="http://www.w3.org/1999/02/22-rdf-syntax-ns#"
   xmlns:svg="http://www.w3.org/2000/svg"
   xmlns="http://www.w3.org/2000/svg"
   xmlns:sodipodi="http://sodipodi.sourceforge.net/DTD/sodipodi-0.dtd"
   xmlns:inkscape="http://www.inkscape.org/namespaces/inkscape"
   width="30.858mm"
   height="30.858mm"
   viewBox="0 0 30.858 30.858"
   version="1.1"
   id="svg1933"
   inkscape:version="0.92.5 (2060ec1f9f, 2020-04-08)"
   sodipodi:docname="Number of walking &amp; cycling accidents.svg">
  <defs
     id="defs1927">
    <mask
       maskUnits="userSpaceOnUse"
       id="mask2260">
      <rect
         style="opacity:1;fill:#ffffff;fill-opacity:1;stroke:none;stroke-width:0.56499994;stroke-miterlimit:4;stroke-dasharray:none;stroke-opacity:1"
         id="rect2262"
         width="86.248459"
         height="109.59391"
         x="10.399542"
         y="-2.1886201" />
    </mask>
  </defs>
  <sodipodi:namedview
     id="base"
     pagecolor="#ffffff"
     bordercolor="#666666"
     borderopacity="1.0"
     inkscape:pageopacity="0.0"
     inkscape:pageshadow="2"
     inkscape:zoom="3.959798"
     inkscape:cx="79.004522"
     inkscape:cy="50.090754"
     inkscape:document-units="mm"
     inkscape:current-layer="layer1"
     showgrid="false"
     units="mm"
     showguides="true"
     inkscape:guide-bbox="true"
     inkscape:snap-global="true"
     inkscape:window-width="1090"
     inkscape:window-height="767"
     inkscape:window-x="824"
     inkscape:window-y="161"
     inkscape:window-maximized="0"
     inkscape:snap-others="false"
     inkscape:snap-bbox="true"
     inkscape:bbox-nodes="true"
     inkscape:snap-nodes="false">
    <sodipodi:guide
       position="0,16.503893"
       orientation="1,0"
       id="guide2524"
       inkscape:locked="false"
       inkscape:label=""
       inkscape:color="rgb(0,0,255)" />
    <sodipodi:guide
       position="14.29892,0"
       orientation="0,1"
       id="guide2526"
       inkscape:locked="false"
       inkscape:label=""
       inkscape:color="rgb(0,0,255)" />
    <sodipodi:guide
       position="85.526248,30.858"
       orientation="0,1"
       id="guide7505"
       inkscape:locked="false"
       inkscape:label=""
       inkscape:color="rgb(0,0,255)" />
    <sodipodi:guide
       position="15.434815,33.542326"
       orientation="1,0"
       id="guide7585"
       inkscape:locked="false" />
  </sodipodi:namedview>
  <metadata
     id="metadata1930">
    <rdf:RDF>
      <cc:Work
         rdf:about="">
        <dc:format>image/svg+xml</dc:format>
        <dc:type
           rdf:resource="http://purl.org/dc/dcmitype/StillImage" />
        <dc:title></dc:title>
      </cc:Work>
    </rdf:RDF>
  </metadata>
  <g
     inkscape:label="Layer 1"
     inkscape:groupmode="layer"
     id="layer1"
     transform="translate(0,-266.14199)">
    <g
       style="fill:#ffffff;stroke-width:1.20943701"
       id="g1829"
       transform="matrix(0.04272767,0,0,0.04272767,4.3256279,270.19715)">
      <path
         id="path1806"
         d="m 405.7,165.4 -16.9,6.4 c -6.3,2.4 -12.9,3.6 -19.6,3.6 -1.4,0 -2.9,-0.1 -4.3,-0.2 -18.8,-1.4 -51.9,-4 -73.2,-5.6 L 256,206.4 220,169.2 c -15.6,-16 -37,-25.1 -59.3,-25.1 -0.2,0 -0.5,0 -0.7,0 -10.6,0.1 -21.1,2.2 -30.8,6.4 l -0.8,0.3 c -9.6,4.2 -18.3,10.4 -25.5,18.1 -30.9,33.6 -30.5,85.4 1,118.4 l 48.4,50 c 21.2,1.6 54.7,4.2 73.8,5.6 11.9,0.9 22.3,8.5 26.7,19.6 l 0.2,0.5 c 6.3,15.8 -1.4,33.7 -17.2,40 -2.1,0.8 -4.3,1.4 -6.5,1.8 l -23.7,3.9 24.9,10.6 c 6,2.6 12.8,2.6 18.9,0 l 53,-22.7 105.7,-109.3 c 31.5,-33 31.9,-84.8 1,-118.4 -1.1,-1.2 -2.2,-2.4 -3.4,-3.5 z M 240,280 h -32 v 32 h -32 v -32 h -32 v -32 h 32 v -32 h 32 v 32 h 32 z m 96,8 -16,8 v 48 h -32 v -48 l -16,-8 v -30.1 c 0,-6.1 3.4,-11.6 8.8,-14.3 L 304,232 l -7.2,-3.6 c -5.4,-2.7 -8.8,-8.3 -8.8,-14.3 v -4.2 c 0,-8.8 7.2,-16 16,-16 8.8,0 16,7.2 16,16 v 4.2 c 0,6.1 -3.4,11.6 -8.8,14.3 l -7.2,3.6 23.2,11.6 c 5.4,2.7 8.8,8.3 8.8,14.3 z"
         inkscape:connector-curvature="0"
         style="fill:#ffffff;stroke-width:1.20943701" />
      <rect
         id="rect1808"
         height="88"
         width="32"
         y="376"
         x="32"
         style="fill:#ffffff;stroke-width:1.20943701" />
      <path
         id="path1810"
         d="M 407.3,45.1 378.7,33.7 C 375.9,32.6 372.8,32 369.8,32 h -121 c -4.3,0 -8.6,1.2 -12.3,3.4 l -132.1,79.3 c -6.3,3.8 -8.4,12 -4.6,18.3 3.4,5.7 10.6,8 16.7,5.4 l 4.4,-1.9 c 1.2,-0.5 2.3,-1 3.5,-1.5 L 272,71.3 l 63.9,27.2 14.9,-2.4 2.6,15.8 -68.2,11.1 c -8.1,1.3 -13.5,8.9 -12.2,17 0.2,1.1 0.5,2.1 0.9,3.1 l 0.2,0.5 c 2.1,5.5 7.2,9.2 13,9.6 20.8,1.5 58.4,4.4 78.9,6 5.8,0.5 11.6,-0.4 17.1,-2.4 L 432,138.5 V 48 h -9.8 c -5.1,0 -10.2,-1 -14.9,-2.9 z"
         inkscape:connector-curvature="0"
         style="fill:#ffffff;stroke-width:1.20943701" />
      <rect
         id="rect1812"
         height="88"
         width="32"
         y="48"
         x="448"
         style="fill:#ffffff;stroke-width:1.20943701" />
      <path
         id="path1814"
         d="M 395.9,373.9 255.7,434 c -10,4.3 -21.4,4.3 -31.4,0 l -48.1,-20.5 -14.9,2.4 -2.6,-15.8 68.1,-11.1 c 8.1,-1.3 13.5,-8.9 12.2,-17 -0.2,-1.1 -0.5,-2.1 -0.9,-3.1 l -0.2,-0.5 c -2.1,-5.5 -7.2,-9.2 -13,-9.6 -20.8,-1.5 -58.4,-4.4 -78.9,-6 -5.8,-0.5 -11.6,0.4 -17.1,2.4 L 80,373.5 V 464 h 9.8 c 5.1,0 10.1,1 14.9,2.9 l 28.6,11.4 c 2.8,1.1 5.9,1.7 8.9,1.7 h 121 c 4.3,0 8.6,-1.2 12.3,-3.4 l 132.3,-79.4 c 6.2,-3.7 8.2,-11.8 4.5,-18 -3.4,-5.6 -10.4,-7.9 -16.4,-5.3 z"
         inkscape:connector-curvature="0"
         style="fill:#ffffff;stroke-width:1.20943701" />
    </g>
    <g
       style="fill:#ffffff;stroke-width:1.27491653"
       id="g3556"
       transform="matrix(0.42010107,0,0,0.42010107,7.9079933,271.42233)">
      <path
         id="path3545"
         transform="translate(-494,-327.3)"
         d="m 512,327.3 a 18,18 0 0 0 -18,18 c 0,8.7 13.8,26.6 17.2,31 a 1,1 0 0 0 1.6,0 c 3.5,-4.4 17.2,-22.3 17.2,-31 a 18,18 0 0 0 -18,-18 z m 1.6,29.9 a 12,12 0 0 1 -13.5,-13.5 12.8,12.8 0 0 1 10.3,-10.3 12,12 0 0 1 13.5,13.5 12.8,12.8 0 0 1 -10.3,10.3 z m -5.7,-17.1 a 4.1,4.1 0 1 1 4.1,4.1 4.1,4.1 0 0 1 -4.1,-4.1 z m 4.1,5.9 a 8.8,8.8 0 0 0 -7.4,4.7 0.9,0.9 0 0 0 0.9,1.5 h 13 a 0.9,0.9 0 0 0 0.9,-1.5 8.8,8.8 0 0 0 -7.4,-4.6 z"
         inkscape:connector-curvature="0"
         style="fill:#ffffff;stroke-width:1.27491653" />
    </g>
    <g
       transform="translate(-371.28424,-243.22254)"
       id="g10139">
      <circle
         style="fill:#40a073;fill-opacity:1;stroke-width:0.46499997"
         id="circle1093-0-8-8-7-4-5-0-9"
         cx="386.71344"
         cy="524.79333"
         r="15.429199" />
      <g
         transform="matrix(0.28243112,0,0,0.28243112,372.62628,511.00689)"
         id="g4990"
         style="fill:#ffffff;stroke-width:0.9368065">
        <g
           style="fill:#ffffff;stroke-width:0.9368065"
           id="g4970">
          <g
             style="fill:#ffffff;stroke-width:0.9368065"
             i:extraneous="self"
             id="g4968">
            <g
               style="fill:#ffffff;stroke-width:0.9368065"
               id="g4954">
              <circle
                 style="fill:#ffffff;stroke-width:0.9368065"
                 cx="82.730003"
                 cy="50.604"
                 r="4.552"
                 id="circle4952" />
            </g>
            <path
               style="fill:#ffffff;stroke-width:0.9368065"
               inkscape:connector-curvature="0"
               d="m 94.804,42.653 c -0.453,0.91 -1.56,1.277 -2.469,0.823 -0.864,-0.432 -1.79,-0.755 -2.744,-0.956 -2.972,-0.627 -6.012,-0.061 -8.556,1.597 -0.944,0.614 -1.776,1.352 -2.485,2.188 -10e-4,10e-4 -0.004,0.003 -0.004,0.004 -0.286,0.335 -0.55,0.688 -0.791,1.055 -0.002,0.001 -0.003,0.004 -0.006,0.007 -0.777,1.178 -1.335,2.504 -1.636,3.926 -0.771,3.652 0.301,7.453 2.869,10.171 0.698,0.739 0.666,1.903 -0.074,2.602 -0.393,0.37 -0.902,0.535 -1.399,0.499 -0.442,-0.032 -0.874,-0.224 -1.202,-0.573 -3.398,-3.593 -4.817,-8.626 -3.795,-13.458 0.148,-0.7 0.342,-1.382 0.581,-2.043 -1.216,-0.926 -2.762,-2.108 -4.332,-3.329 -3.619,-2.816 -5.631,-4.479 -6.793,-5.516 -0.702,-0.1 -1.456,-0.218 -2.229,-0.354 -6.274,-1.104 -8.096,-2.399 -8.98,-3.405 -1.914,-2.172 -4.675,-10.669 -5.476,-13.222 -0.379,-1.212 0.294,-2.504 1.508,-2.884 1.211,-0.381 2.502,0.294 2.883,1.507 1.509,4.806 3.691,10.597 4.537,11.556 0.035,0.037 1.003,0.987 6.413,1.93 1.135,0.198 2.233,0.355 3.157,0.473 l 0.581,-0.427 C 63.894,34 63.377,33.074 62.865,32.105 59.68,26.087 59.496,23.966 59.733,22.686 c 0.51,-2.738 3.606,-10.386 3.958,-11.25 0.48,-1.178 1.822,-1.743 2.999,-1.264 1.178,0.48 1.743,1.822 1.263,3 -1.246,3.067 -3.34,8.547 -3.687,10.312 0.004,0.19 0.12,1.696 2.789,6.7 0.65,1.223 1.312,2.384 1.854,3.311 2.083,1.757 5.995,4.82 9.825,7.731 0.097,-0.065 0.192,-0.129 0.289,-0.193 3.369,-2.195 7.392,-2.945 11.326,-2.114 1.263,0.268 2.484,0.693 3.63,1.266 0.913,0.453 1.282,1.559 0.825,2.468 z"
               id="path4956" />
            <g
               style="fill:#ffffff;stroke-width:0.9368065"
               id="g4962">
              <g
                 style="fill:#ffffff;stroke-width:0.9368065"
                 id="g4960">
                <path
                   style="fill:#ffffff;stroke-width:0.9368065"
                   inkscape:connector-curvature="0"
                   d="m 28.758,67.31 c -0.012,-0.001 -0.024,-0.004 -0.035,-0.007 -0.012,-0.003 -0.022,-0.006 -0.032,-0.01 0.022,0.007 0.045,0.013 0.067,0.017 z"
                   id="path4958" />
              </g>
            </g>
            <g
               style="fill:#ffffff;stroke-width:0.9368065"
               id="g4966">
              <path
                 style="fill:#ffffff;stroke-width:0.9368065"
                 inkscape:connector-curvature="0"
                 d="m 56.702,62.153 2.15,-12.256 5.665,-2.23 c 0.384,-0.152 0.639,-0.52 0.643,-0.934 0.005,-0.412 -0.241,-0.787 -0.621,-0.946 L 58.596,43.29 c -0.517,-0.217 -1.112,0.027 -1.329,0.543 -0.217,0.517 0.025,1.112 0.542,1.329 l 3.643,1.529 -4.302,1.694 c -0.276,0.108 -0.479,0.326 -0.578,0.584 -0.084,0.133 -0.144,0.283 -0.172,0.447 l -0.597,3.399 -18.289,-5.976 2.319,-8.74 1.893,1.095 c 0.184,0.106 0.386,0.156 0.586,0.156 0.404,0 0.798,-0.209 1.015,-0.584 0.323,-0.561 0.131,-1.277 -0.428,-1.601 l -7.217,-4.172 c -0.561,-0.323 -1.277,-0.133 -1.601,0.428 -0.323,0.559 -0.133,1.276 0.428,1.601 l 3.47,2.007 c -0.111,0.123 -0.195,0.275 -0.241,0.445 l -2.511,9.461 -3.524,1.054 c -2.024,-5.216 -7.096,-8.921 -13.015,-8.921 -7.694,0 -13.954,6.259 -13.954,13.954 0,7.694 6.26,13.954 13.954,13.954 4.372,0 8.282,-2.022 10.843,-5.181 l 2.121,1.455 c 0.002,0.002 0.003,0.003 0.005,0.003 0.025,0.017 0.05,0.033 0.076,0.048 0.02,0.011 0.042,0.024 0.064,0.033 0.019,0.009 0.039,0.017 0.058,0.025 0.033,0.014 0.066,0.027 0.1,0.036 0.023,0.008 0.048,0.014 0.072,0.019 0.027,0.008 0.055,0.012 0.081,0.016 0.027,0.005 0.053,0.008 0.081,0.009 0.027,10e-4 0.053,0.003 0.081,0.003 0.03,0 0.061,-0.002 0.091,-0.003 0.059,-0.006 0.119,-0.016 0.175,-0.03 0.03,-0.008 0.058,-0.016 0.086,-0.025 l 22.641,-7.483 -1.021,5.817 c -0.394,-0.034 -0.792,-0.052 -1.195,-0.052 -7.695,0 -13.954,6.259 -13.954,13.954 0,7.694 6.259,13.954 13.954,13.954 C 60.74,89.573 67,83.313 67,75.62 67,69.189 62.629,63.763 56.702,62.153 Z m -38.014,2.323 c -6.316,0 -11.455,-5.139 -11.455,-11.455 0,-6.316 5.139,-11.455 11.455,-11.455 4.791,0 8.906,2.956 10.611,7.142 l -10.923,3.265 c -0.404,0.12 -0.703,0.462 -0.768,0.878 -0.064,0.417 0.114,0.832 0.462,1.071 l 9.396,6.452 c -2.104,2.507 -5.259,4.102 -8.778,4.102 z m 10.017,-5.904 -7.514,-5.159 8.735,-2.612 c 0.142,0.718 0.217,1.462 0.217,2.221 0,2.012 -0.521,3.904 -1.438,5.55 z m 2.906,1.996 -0.839,-0.576 c 1.188,-2.052 1.869,-4.433 1.869,-6.971 0,-1.007 -0.108,-1.991 -0.312,-2.939 l 2.241,-0.67 z m 2.235,0.108 3.109,-11.721 16.268,5.317 z m 19.2,26.399 c -6.316,0 -11.455,-5.139 -11.455,-11.455 0,-6.316 5.139,-11.455 11.455,-11.455 0.256,0 0.509,0.008 0.76,0.025 l -2.038,11.09 c -0.12,0.681 0.334,1.327 1.013,1.447 0.073,0.013 0.147,0.019 0.219,0.019 0.595,0 1.123,-0.428 1.229,-1.034 l 2.039,-11.087 c 4.753,1.393 8.234,5.795 8.234,10.993 0,6.318 -5.14,11.457 -11.456,11.457 z"
                 id="path4964" />
            </g>
          </g>
        </g>
      </g>
    </g>
  </g>
</svg>
