<?xml version="1.0" encoding="UTF-8" standalone="no"?>
<!-- Created with Inkscape (http://www.inkscape.org/) -->

<svg
   xmlns:dc="http://purl.org/dc/elements/1.1/"
   xmlns:cc="http://creativecommons.org/ns#"
   xmlns:rdf="http://www.w3.org/1999/02/22-rdf-syntax-ns#"
   xmlns:svg="http://www.w3.org/2000/svg"
   xmlns="http://www.w3.org/2000/svg"
   xmlns:sodipodi="http://sodipodi.sourceforge.net/DTD/sodipodi-0.dtd"
   xmlns:inkscape="http://www.inkscape.org/namespaces/inkscape"
   width="30.858mm"
   height="30.858mm"
   viewBox="0 0 30.858 30.858"
   version="1.1"
   id="svg1933"
   inkscape:version="0.92.5 (2060ec1f9f, 2020-04-08)"
   sodipodi:docname="Private vehicle use.svg">
  <defs
     id="defs1927">
    <mask
       maskUnits="userSpaceOnUse"
       id="mask2260">
      <rect
         style="opacity:1;fill:#ffffff;fill-opacity:1;stroke:none;stroke-width:0.56499994;stroke-miterlimit:4;stroke-dasharray:none;stroke-opacity:1"
         id="rect2262"
         width="86.248459"
         height="109.59391"
         x="10.399542"
         y="-2.1886201" />
    </mask>
  </defs>
  <sodipodi:namedview
     id="base"
     pagecolor="#ffffff"
     bordercolor="#666666"
     borderopacity="1.0"
     inkscape:pageopacity="0.0"
     inkscape:pageshadow="2"
     inkscape:zoom="2.8"
     inkscape:cx="59.624689"
     inkscape:cy="25.969666"
     inkscape:document-units="mm"
     inkscape:current-layer="layer1"
     showgrid="false"
     units="mm"
     showguides="true"
     inkscape:guide-bbox="true"
     inkscape:snap-global="true"
     inkscape:window-width="1090"
     inkscape:window-height="767"
     inkscape:window-x="824"
     inkscape:window-y="161"
     inkscape:window-maximized="0"
     inkscape:snap-others="false"
     inkscape:snap-bbox="true"
     inkscape:bbox-nodes="true"
     inkscape:snap-nodes="false">
    <sodipodi:guide
       position="0,16.503893"
       orientation="1,0"
       id="guide2524"
       inkscape:locked="false"
       inkscape:label=""
       inkscape:color="rgb(0,0,255)" />
    <sodipodi:guide
       position="14.29892,0"
       orientation="0,1"
       id="guide2526"
       inkscape:locked="false"
       inkscape:label=""
       inkscape:color="rgb(0,0,255)" />
    <sodipodi:guide
       position="85.526248,30.858"
       orientation="0,1"
       id="guide7505"
       inkscape:locked="false"
       inkscape:label=""
       inkscape:color="rgb(0,0,255)" />
    <sodipodi:guide
       position="15.434815,33.542326"
       orientation="1,0"
       id="guide7585"
       inkscape:locked="false" />
  </sodipodi:namedview>
  <metadata
     id="metadata1930">
    <rdf:RDF>
      <cc:Work
         rdf:about="">
        <dc:format>image/svg+xml</dc:format>
        <dc:type
           rdf:resource="http://purl.org/dc/dcmitype/StillImage" />
        <dc:title></dc:title>
      </cc:Work>
    </rdf:RDF>
  </metadata>
  <g
     inkscape:label="Layer 1"
     inkscape:groupmode="layer"
     id="layer1"
     transform="translate(0,-266.14199)">
    <g
       style="fill:#ffffff;stroke-width:1.20943701"
       id="g1829"
       transform="matrix(0.04272767,0,0,0.04272767,4.3256279,270.19715)">
      <path
         id="path1806"
         d="m 405.7,165.4 -16.9,6.4 c -6.3,2.4 -12.9,3.6 -19.6,3.6 -1.4,0 -2.9,-0.1 -4.3,-0.2 -18.8,-1.4 -51.9,-4 -73.2,-5.6 L 256,206.4 220,169.2 c -15.6,-16 -37,-25.1 -59.3,-25.1 -0.2,0 -0.5,0 -0.7,0 -10.6,0.1 -21.1,2.2 -30.8,6.4 l -0.8,0.3 c -9.6,4.2 -18.3,10.4 -25.5,18.1 -30.9,33.6 -30.5,85.4 1,118.4 l 48.4,50 c 21.2,1.6 54.7,4.2 73.8,5.6 11.9,0.9 22.3,8.5 26.7,19.6 l 0.2,0.5 c 6.3,15.8 -1.4,33.7 -17.2,40 -2.1,0.8 -4.3,1.4 -6.5,1.8 l -23.7,3.9 24.9,10.6 c 6,2.6 12.8,2.6 18.9,0 l 53,-22.7 105.7,-109.3 c 31.5,-33 31.9,-84.8 1,-118.4 -1.1,-1.2 -2.2,-2.4 -3.4,-3.5 z M 240,280 h -32 v 32 h -32 v -32 h -32 v -32 h 32 v -32 h 32 v 32 h 32 z m 96,8 -16,8 v 48 h -32 v -48 l -16,-8 v -30.1 c 0,-6.1 3.4,-11.6 8.8,-14.3 L 304,232 l -7.2,-3.6 c -5.4,-2.7 -8.8,-8.3 -8.8,-14.3 v -4.2 c 0,-8.8 7.2,-16 16,-16 8.8,0 16,7.2 16,16 v 4.2 c 0,6.1 -3.4,11.6 -8.8,14.3 l -7.2,3.6 23.2,11.6 c 5.4,2.7 8.8,8.3 8.8,14.3 z"
         inkscape:connector-curvature="0"
         style="fill:#ffffff;stroke-width:1.20943701" />
      <rect
         id="rect1808"
         height="88"
         width="32"
         y="376"
         x="32"
         style="fill:#ffffff;stroke-width:1.20943701" />
      <path
         id="path1810"
         d="M 407.3,45.1 378.7,33.7 C 375.9,32.6 372.8,32 369.8,32 h -121 c -4.3,0 -8.6,1.2 -12.3,3.4 l -132.1,79.3 c -6.3,3.8 -8.4,12 -4.6,18.3 3.4,5.7 10.6,8 16.7,5.4 l 4.4,-1.9 c 1.2,-0.5 2.3,-1 3.5,-1.5 L 272,71.3 l 63.9,27.2 14.9,-2.4 2.6,15.8 -68.2,11.1 c -8.1,1.3 -13.5,8.9 -12.2,17 0.2,1.1 0.5,2.1 0.9,3.1 l 0.2,0.5 c 2.1,5.5 7.2,9.2 13,9.6 20.8,1.5 58.4,4.4 78.9,6 5.8,0.5 11.6,-0.4 17.1,-2.4 L 432,138.5 V 48 h -9.8 c -5.1,0 -10.2,-1 -14.9,-2.9 z"
         inkscape:connector-curvature="0"
         style="fill:#ffffff;stroke-width:1.20943701" />
      <rect
         id="rect1812"
         height="88"
         width="32"
         y="48"
         x="448"
         style="fill:#ffffff;stroke-width:1.20943701" />
      <path
         id="path1814"
         d="M 395.9,373.9 255.7,434 c -10,4.3 -21.4,4.3 -31.4,0 l -48.1,-20.5 -14.9,2.4 -2.6,-15.8 68.1,-11.1 c 8.1,-1.3 13.5,-8.9 12.2,-17 -0.2,-1.1 -0.5,-2.1 -0.9,-3.1 l -0.2,-0.5 c -2.1,-5.5 -7.2,-9.2 -13,-9.6 -20.8,-1.5 -58.4,-4.4 -78.9,-6 -5.8,-0.5 -11.6,0.4 -17.1,2.4 L 80,373.5 V 464 h 9.8 c 5.1,0 10.1,1 14.9,2.9 l 28.6,11.4 c 2.8,1.1 5.9,1.7 8.9,1.7 h 121 c 4.3,0 8.6,-1.2 12.3,-3.4 l 132.3,-79.4 c 6.2,-3.7 8.2,-11.8 4.5,-18 -3.4,-5.6 -10.4,-7.9 -16.4,-5.3 z"
         inkscape:connector-curvature="0"
         style="fill:#ffffff;stroke-width:1.20943701" />
    </g>
    <g
       style="fill:#ffffff;stroke-width:1.27491653"
       id="g3556"
       transform="matrix(0.42010107,0,0,0.42010107,7.9079933,271.42233)">
      <path
         id="path3545"
         transform="translate(-494,-327.3)"
         d="m 512,327.3 a 18,18 0 0 0 -18,18 c 0,8.7 13.8,26.6 17.2,31 a 1,1 0 0 0 1.6,0 c 3.5,-4.4 17.2,-22.3 17.2,-31 a 18,18 0 0 0 -18,-18 z m 1.6,29.9 a 12,12 0 0 1 -13.5,-13.5 12.8,12.8 0 0 1 10.3,-10.3 12,12 0 0 1 13.5,13.5 12.8,12.8 0 0 1 -10.3,10.3 z m -5.7,-17.1 a 4.1,4.1 0 1 1 4.1,4.1 4.1,4.1 0 0 1 -4.1,-4.1 z m 4.1,5.9 a 8.8,8.8 0 0 0 -7.4,4.7 0.9,0.9 0 0 0 0.9,1.5 h 13 a 0.9,0.9 0 0 0 0.9,-1.5 8.8,8.8 0 0 0 -7.4,-4.6 z"
         inkscape:connector-curvature="0"
         style="fill:#ffffff;stroke-width:1.27491653" />
    </g>
    <g
       transform="translate(-300.65842,-87.83433)"
       id="g8473">
      <circle
         style="fill:#40a073;fill-opacity:1;stroke-width:0.46499997"
         id="circle1093-0-8-8-7-3-9"
         cx="316.08762"
         cy="369.40512"
         r="15.429199" />
      <g
         transform="matrix(0.16054525,0,0,0.16054525,305.58632,361.15878)"
         id="g5527"
         style="fill:#ffffff;stroke-width:1.25803792">
        <g
           style="fill:#ffffff;fill-rule:evenodd;stroke:none;stroke-width:1.25803792"
           id="g5514">
          <g
             style="fill:#ffffff;fill-rule:nonzero;stroke-width:1.25803792"
             transform="translate(-5116,-759)"
             id="g5512">
            <path
               style="fill:#ffffff;stroke-width:1.25803792"
               inkscape:connector-curvature="0"
               d="m 5185.552,799.57372 0.8116,-7.89083 c 0,-3.28919 2.6641,-5.95562 5.9504,-5.95562 h 5.9505 3.2231 6.1983 c 3.2864,0 5.9505,2.66643 5.9505,5.95562 l 0.7096,6.4843 c 7.734,-0.8538 12.8035,-2.09247 12.8035,-3.7157 0,-0.88288 -0.169,-1.98196 -0.1805,-2.05625 -1.5955,-6.42018 -7.7282,-19.68913 -7.7282,-19.68913 -1.4838,-3.77726 -5.2075,-6.70591 -7.4189,-6.70591 h -59.4207 c -2.2114,0 -5.9351,2.92865 -7.4218,6.71162 0,0 -5.3937,12.32892 -7.7368,19.68913 -0.023,0.0686 -0.189,1.17623 -0.189,2.0534 0,3.59939 24.8851,5.30474 48.4984,5.11937 z m 5.6985,-0.0822 c 0.461,-0.01 0.9207,-0.0203 1.3789,-0.0315 -0.085,-0.45182 -0.1294,-0.91794 -0.1294,-1.39443 0,-1.01055 0.1999,-1.97442 0.5622,-2.85424 l 5.0595,2.92111 0.6511,1.12769 c 0.8856,-0.0363 1.7612,-0.0756 2.6252,-0.11788 l 0.583,-1.00981 4.9764,-2.87311 c 0.3499,0.86683 0.5426,1.81403 0.5426,2.80624 0,0.24108 -0.011,0.4795 -0.034,0.71476 0.4642,-0.0332 0.9232,-0.0674 1.3764,-0.10258 0.014,-0.20227 0.021,-0.40641 0.021,-0.61218 0,-4.89526 -3.9684,-8.86364 -8.8636,-8.86364 -4.8952,0 -8.8636,3.96838 -8.8636,8.86364 0,0.48541 0.039,0.96171 0.1141,1.42593 z M 5247,798.30112 c 0,4.00583 -2.8673,7.2545 -6.3934,7.2545 h -1.5669 c 0,0.0114 0.01,0.0171 0.01,0.0286 0.8507,2.50578 1.3262,5.24015 1.3262,8.1088 v 8.50024 c 0,8.31167 -2.0309,15.48616 -6.6226,18.98055 v 9.33741 c 0,4.6887 -3.3571,8.48881 -7.4847,8.48881 h -6.8632 c -4.1276,0 -7.4819,-3.80582 -7.4819,-8.48881 v -7.08306 h -60.8214 v 7.08306 c 0,4.6887 -3.3543,8.48881 -7.4848,8.48881 h -6.8689 c -4.1305,0 -7.4848,-3.80582 -7.4848,-8.48881 v -9.33741 c -4.5859,-3.49439 -6.6168,-10.66316 -6.6168,-18.98055 v -8.50024 c 0,-2.86294 0.4698,-5.5973 1.3119,-8.09737 0,-0.0114 0.01,-0.0229 0.01,-0.04 h -1.5697 c -3.5318,0 -6.3934,-3.24867 -6.3934,-7.24878 0,-4.01155 2.8616,-7.26021 6.3934,-7.26021 h 6.2359 c 0.2263,0 0.4354,0.0514 0.6502,0.0743 l 8.1207,-20.66916 C 5139.9667,763.923 5146.1539,759 5151.7911,759 h 8.9542 41.5094 8.9542 c 5.5427,0 11.876,5.02872 14.3909,11.44604 l 8.1236,20.67488 c 0.2119,-0.0257 0.4182,-0.0743 0.6445,-0.0743 h 6.2387 c 3.5261,-0.006 6.3934,3.24009 6.3934,7.25449 z m -91.2321,26.03865 c 0,-5.14695 -4.1896,-9.33817 -9.3594,-9.33817 -5.1631,0 -9.3549,4.18209 -9.3549,9.33817 0,5.14999 4.1896,9.32903 9.3549,9.32903 5.1698,0.003 9.3594,-4.176 9.3594,-9.32903 z m 72.5178,0 c 0,-5.14695 -4.1851,-9.33817 -9.3549,-9.33817 -5.1653,0 -9.3594,4.18209 -9.3594,9.33817 0,5.14999 4.1874,9.32903 9.3594,9.32903 5.1721,0 9.3549,-4.176 9.3549,-9.32903 z M 5167.6261,822 c -0.8284,0 -1.5,0.67157 -1.5,1.5 0,0.82843 0.6716,1.5 1.5,1.5 h 29.0807 c 0.8285,0 1.5,-0.67157 1.5,-1.5 0,-0.82843 -0.6715,-1.5 -1.5,-1.5 z m 0,7 c -0.8284,0 -1.5,0.67157 -1.5,1.5 0,0.82843 0.6716,1.5 1.5,1.5 h 29.0807 c 0.8285,0 1.5,-0.67157 1.5,-1.5 0,-0.82843 -0.6715,-1.5 -1.5,-1.5 z m 32.2135,-45.04746 c -4.4301,0 -8.0214,-3.5711 -8.0214,-7.97627 0,-4.40517 3.5913,-7.97627 8.0214,-7.97627 4.4301,0 8.0214,3.5711 8.0214,7.97627 0,4.40517 -3.5913,7.97627 -8.0214,7.97627 z m 6.0997,9.53264 -4.981,2.87582 h -1.8139 l -5.0519,-2.91675 c 1.3729,-1.75251 3.5087,-2.8787 5.9075,-2.8787 2.4174,0 4.5678,1.14374 5.9393,2.91963 z M 5200,797.38373 c 0.3766,0 0.6818,0.30526 0.6818,0.68182 0,0.37655 -0.3052,0.68181 -0.6818,0.68181 -0.3766,0 -0.6818,-0.30526 -0.6818,-0.68181 0,-0.37656 0.3052,-0.68182 0.6818,-0.68182 z"
               id="path5510" />
          </g>
        </g>
      </g>
    </g>
  </g>
</svg>
