<?xml version="1.0" encoding="UTF-8" standalone="no"?>
<!-- Created with Inkscape (http://www.inkscape.org/) -->

<svg
   xmlns:dc="http://purl.org/dc/elements/1.1/"
   xmlns:cc="http://creativecommons.org/ns#"
   xmlns:rdf="http://www.w3.org/1999/02/22-rdf-syntax-ns#"
   xmlns:svg="http://www.w3.org/2000/svg"
   xmlns="http://www.w3.org/2000/svg"
   xmlns:sodipodi="http://sodipodi.sourceforge.net/DTD/sodipodi-0.dtd"
   xmlns:inkscape="http://www.inkscape.org/namespaces/inkscape"
   width="30.858mm"
   height="30.858mm"
   viewBox="0 0 30.858 30.858"
   version="1.1"
   id="svg1933"
   inkscape:version="0.92.5 (2060ec1f9f, 2020-04-08)"
   sodipodi:docname="Walk bike friendly &amp; safe environment FILE NAME.svg">
  <defs
     id="defs1927">
    <mask
       maskUnits="userSpaceOnUse"
       id="mask2260">
      <rect
         style="opacity:1;fill:#ffffff;fill-opacity:1;stroke:none;stroke-width:0.56499994;stroke-miterlimit:4;stroke-dasharray:none;stroke-opacity:1"
         id="rect2262"
         width="86.248459"
         height="109.59391"
         x="10.399542"
         y="-2.1886201" />
    </mask>
  </defs>
  <sodipodi:namedview
     id="base"
     pagecolor="#ffffff"
     bordercolor="#666666"
     borderopacity="1.0"
     inkscape:pageopacity="0.0"
     inkscape:pageshadow="2"
     inkscape:zoom="2.8"
     inkscape:cx="59.624689"
     inkscape:cy="25.969666"
     inkscape:document-units="mm"
     inkscape:current-layer="layer1"
     showgrid="false"
     units="mm"
     showguides="true"
     inkscape:guide-bbox="true"
     inkscape:snap-global="true"
     inkscape:window-width="1090"
     inkscape:window-height="767"
     inkscape:window-x="824"
     inkscape:window-y="161"
     inkscape:window-maximized="0"
     inkscape:snap-others="false"
     inkscape:snap-bbox="true"
     inkscape:bbox-nodes="true"
     inkscape:snap-nodes="false">
    <sodipodi:guide
       position="0,16.503893"
       orientation="1,0"
       id="guide2524"
       inkscape:locked="false"
       inkscape:label=""
       inkscape:color="rgb(0,0,255)" />
    <sodipodi:guide
       position="14.29892,0"
       orientation="0,1"
       id="guide2526"
       inkscape:locked="false"
       inkscape:label=""
       inkscape:color="rgb(0,0,255)" />
    <sodipodi:guide
       position="85.526248,30.858"
       orientation="0,1"
       id="guide7505"
       inkscape:locked="false"
       inkscape:label=""
       inkscape:color="rgb(0,0,255)" />
    <sodipodi:guide
       position="15.434815,33.542326"
       orientation="1,0"
       id="guide7585"
       inkscape:locked="false" />
  </sodipodi:namedview>
  <metadata
     id="metadata1930">
    <rdf:RDF>
      <cc:Work
         rdf:about="">
        <dc:format>image/svg+xml</dc:format>
        <dc:type
           rdf:resource="http://purl.org/dc/dcmitype/StillImage" />
        <dc:title></dc:title>
      </cc:Work>
    </rdf:RDF>
  </metadata>
  <g
     inkscape:label="Layer 1"
     inkscape:groupmode="layer"
     id="layer1"
     transform="translate(0,-266.14199)">
    <g
       style="fill:#ffffff;stroke-width:1.20943701"
       id="g1829"
       transform="matrix(0.04272767,0,0,0.04272767,4.3256279,270.19715)">
      <path
         id="path1806"
         d="m 405.7,165.4 -16.9,6.4 c -6.3,2.4 -12.9,3.6 -19.6,3.6 -1.4,0 -2.9,-0.1 -4.3,-0.2 -18.8,-1.4 -51.9,-4 -73.2,-5.6 L 256,206.4 220,169.2 c -15.6,-16 -37,-25.1 -59.3,-25.1 -0.2,0 -0.5,0 -0.7,0 -10.6,0.1 -21.1,2.2 -30.8,6.4 l -0.8,0.3 c -9.6,4.2 -18.3,10.4 -25.5,18.1 -30.9,33.6 -30.5,85.4 1,118.4 l 48.4,50 c 21.2,1.6 54.7,4.2 73.8,5.6 11.9,0.9 22.3,8.5 26.7,19.6 l 0.2,0.5 c 6.3,15.8 -1.4,33.7 -17.2,40 -2.1,0.8 -4.3,1.4 -6.5,1.8 l -23.7,3.9 24.9,10.6 c 6,2.6 12.8,2.6 18.9,0 l 53,-22.7 105.7,-109.3 c 31.5,-33 31.9,-84.8 1,-118.4 -1.1,-1.2 -2.2,-2.4 -3.4,-3.5 z M 240,280 h -32 v 32 h -32 v -32 h -32 v -32 h 32 v -32 h 32 v 32 h 32 z m 96,8 -16,8 v 48 h -32 v -48 l -16,-8 v -30.1 c 0,-6.1 3.4,-11.6 8.8,-14.3 L 304,232 l -7.2,-3.6 c -5.4,-2.7 -8.8,-8.3 -8.8,-14.3 v -4.2 c 0,-8.8 7.2,-16 16,-16 8.8,0 16,7.2 16,16 v 4.2 c 0,6.1 -3.4,11.6 -8.8,14.3 l -7.2,3.6 23.2,11.6 c 5.4,2.7 8.8,8.3 8.8,14.3 z"
         inkscape:connector-curvature="0"
         style="fill:#ffffff;stroke-width:1.20943701" />
      <rect
         id="rect1808"
         height="88"
         width="32"
         y="376"
         x="32"
         style="fill:#ffffff;stroke-width:1.20943701" />
      <path
         id="path1810"
         d="M 407.3,45.1 378.7,33.7 C 375.9,32.6 372.8,32 369.8,32 h -121 c -4.3,0 -8.6,1.2 -12.3,3.4 l -132.1,79.3 c -6.3,3.8 -8.4,12 -4.6,18.3 3.4,5.7 10.6,8 16.7,5.4 l 4.4,-1.9 c 1.2,-0.5 2.3,-1 3.5,-1.5 L 272,71.3 l 63.9,27.2 14.9,-2.4 2.6,15.8 -68.2,11.1 c -8.1,1.3 -13.5,8.9 -12.2,17 0.2,1.1 0.5,2.1 0.9,3.1 l 0.2,0.5 c 2.1,5.5 7.2,9.2 13,9.6 20.8,1.5 58.4,4.4 78.9,6 5.8,0.5 11.6,-0.4 17.1,-2.4 L 432,138.5 V 48 h -9.8 c -5.1,0 -10.2,-1 -14.9,-2.9 z"
         inkscape:connector-curvature="0"
         style="fill:#ffffff;stroke-width:1.20943701" />
      <rect
         id="rect1812"
         height="88"
         width="32"
         y="48"
         x="448"
         style="fill:#ffffff;stroke-width:1.20943701" />
      <path
         id="path1814"
         d="M 395.9,373.9 255.7,434 c -10,4.3 -21.4,4.3 -31.4,0 l -48.1,-20.5 -14.9,2.4 -2.6,-15.8 68.1,-11.1 c 8.1,-1.3 13.5,-8.9 12.2,-17 -0.2,-1.1 -0.5,-2.1 -0.9,-3.1 l -0.2,-0.5 c -2.1,-5.5 -7.2,-9.2 -13,-9.6 -20.8,-1.5 -58.4,-4.4 -78.9,-6 -5.8,-0.5 -11.6,0.4 -17.1,2.4 L 80,373.5 V 464 h 9.8 c 5.1,0 10.1,1 14.9,2.9 l 28.6,11.4 c 2.8,1.1 5.9,1.7 8.9,1.7 h 121 c 4.3,0 8.6,-1.2 12.3,-3.4 l 132.3,-79.4 c 6.2,-3.7 8.2,-11.8 4.5,-18 -3.4,-5.6 -10.4,-7.9 -16.4,-5.3 z"
         inkscape:connector-curvature="0"
         style="fill:#ffffff;stroke-width:1.20943701" />
    </g>
    <g
       style="fill:#ffffff;stroke-width:1.27491653"
       id="g3556"
       transform="matrix(0.42010107,0,0,0.42010107,7.9079933,271.42233)">
      <path
         id="path3545"
         transform="translate(-494,-327.3)"
         d="m 512,327.3 a 18,18 0 0 0 -18,18 c 0,8.7 13.8,26.6 17.2,31 a 1,1 0 0 0 1.6,0 c 3.5,-4.4 17.2,-22.3 17.2,-31 a 18,18 0 0 0 -18,-18 z m 1.6,29.9 a 12,12 0 0 1 -13.5,-13.5 12.8,12.8 0 0 1 10.3,-10.3 12,12 0 0 1 13.5,13.5 12.8,12.8 0 0 1 -10.3,10.3 z m -5.7,-17.1 a 4.1,4.1 0 1 1 4.1,4.1 4.1,4.1 0 0 1 -4.1,-4.1 z m 4.1,5.9 a 8.8,8.8 0 0 0 -7.4,4.7 0.9,0.9 0 0 0 0.9,1.5 h 13 a 0.9,0.9 0 0 0 0.9,-1.5 8.8,8.8 0 0 0 -7.4,-4.6 z"
         inkscape:connector-curvature="0"
         style="fill:#ffffff;stroke-width:1.27491653" />
    </g>
    <g
       transform="translate(-230.46875,-165.69783)"
       id="g9051">
      <circle
         style="fill:#40a073;fill-opacity:1;stroke-width:0.46499997"
         id="circle1093-0-8-8-7-3-5"
         cx="245.89795"
         cy="447.26862"
         r="15.429199" />
      <g
         transform="matrix(0.31722572,0,0,0.31722572,235.40504,438.19212)"
         id="g6463"
         style="fill:#ffffff;stroke-width:1.21068621">
        <path
           style="fill:#ffffff;stroke-width:1.21068621"
           inkscape:connector-curvature="0"
           d="m 35.34,27.149 c -0.289,-0.133 -0.685,-0.287 -1.104,-0.451 -0.308,-0.12 -0.63,-0.248 -0.954,-0.381 h -5.424 l -0.386,2.654 H 39.3 Z"
           id="path6434" />
        <path
           style="fill:#ffffff;stroke-width:1.21068621"
           inkscape:connector-curvature="0"
           d="M 5.654,51.82 C 4.747,50.3 4.216,48.532 4.216,46.636 c 0,-5.022 3.669,-9.193 8.465,-10.005 0.113,-0.957 0.226,-1.866 0.338,-2.726 -6.366,0.699 -11.451,6.21 -11.451,12.736 0,1.726 0.337,3.407 1.007,4.985 0.421,0.996 0.972,1.916 1.617,2.756 0.177,-0.652 0.505,-1.31 1.001,-1.941 0.161,-0.206 0.304,-0.414 0.461,-0.621 z"
           id="path6436" />
        <path
           style="fill:#ffffff;stroke-width:1.21068621"
           inkscape:connector-curvature="0"
           d="m 24.343,45.008 h -4.062 c -0.256,0.924 -0.582,1.811 -0.993,2.645 h 5.2 c -0.511,5.132 -4.85,9.146 -10.109,9.146 -0.618,0 -1.22,-0.064 -1.808,-0.171 l -0.4,0.51 c -0.558,0.711 -1.23,1.243 -1.97,1.589 1.328,0.466 2.736,0.724 4.178,0.724 5.094,0 9.82,-3.133 11.805,-7.823 0.209,-0.497 0.376,-1.006 0.521,-1.521 -0.029,-0.063 -0.059,-0.127 -0.088,-0.19 z"
           id="path6438" />
        <path
           style="fill:#ffffff;stroke-width:1.21068621"
           inkscape:connector-curvature="0"
           d="m 34.545,46.878 c 0.007,-0.014 0.019,-0.025 0.024,-0.04 L 45.746,30.05 c -0.595,0.315 -1.279,0.5 -1.996,0.5 -0.459,0 -0.914,-0.096 -1.364,-0.235 l -9.03,13.565 -0.195,-0.299 c 0.075,0.18 0.155,0.366 0.229,0.546 0.377,0.906 0.769,1.832 1.155,2.751 z"
           id="path6440" />
        <path
           style="fill:#ffffff;stroke-width:1.21068621"
           inkscape:connector-curvature="0"
           d="m 64.497,41.442 c -2.036,-4.576 -6.688,-7.617 -11.715,-7.617 -0.869,0 -1.728,0.089 -2.565,0.26 L 45.129,18.423 c -0.171,-0.56 -0.708,-0.947 -1.293,-0.939 h -6.515 c -0.73,0 -1.325,0.594 -1.325,1.324 0,0.33 0.132,0.622 0.33,0.854 0.152,0.125 0.312,0.248 0.48,0.37 0.158,0.067 0.332,0.104 0.515,0.104 h 5.574 l 1.103,3.394 c 0.525,0.217 1.027,0.429 1.456,0.625 1.969,0.905 2.404,2.444 2.155,3.583 -0.191,0.869 -0.773,1.614 -1.555,2.121 l 1.632,5.022 c -1.483,0.641 -2.816,1.549 -3.963,2.698 -7.242,7.24 -3.099,20.082 7.011,21.705 4.815,0.774 9.754,-1.316 12.551,-5.309 2.619,-3.73 2.891,-8.378 1.212,-12.533 z M 52.782,56.798 c -5.601,0 -10.159,-4.556 -10.159,-10.161 0,-4.073 2.414,-7.599 5.888,-9.215 l 3.012,9.274 c 0.513,1.567 3.102,0.969 2.523,-0.818 L 51.04,36.63 c 0.564,-0.099 1.15,-0.15 1.742,-0.15 5.532,0 10.16,4.633 10.16,10.161 0.002,5.531 -4.628,10.157 -10.16,10.157 z"
           id="path6442" />
        <circle
           style="fill:#ffffff;stroke-width:1.21068621"
           cx="25.188999"
           cy="-0.81699997"
           r="5.7199998"
           id="circle6444" />
        <path
           style="fill:#ffffff;stroke-width:1.21068621"
           inkscape:connector-curvature="0"
           d="m 33.758,47.586 c -1.231,-2.924 -2.439,-5.848 -3.708,-8.771 -0.527,-1.218 -1.056,-2.436 -1.62,-3.653 -0.898,-1.942 -2.31,-3.836 -2.003,-5.949 0.012,-0.081 0.023,-0.162 0.035,-0.242 0.128,-0.885 0.257,-1.769 0.385,-2.654 0.363,-2.498 0.726,-4.996 1.088,-7.494 0.831,1.424 1.557,3.373 2.673,4.577 0.791,1.359 3.781,2.212 5.148,2.841 0.056,0.025 0.11,0.051 0.166,0.076 1.924,0.885 3.847,1.77 5.771,2.654 l 1.263,0.486 c 0.271,0.062 0.537,0.093 0.793,0.093 2.655,0 4.349,-3.079 1.287,-4.486 C 44.839,24.974 44.628,24.88 44.405,24.785 41.291,23.444 35.889,21.583 34.338,18.927 32.126,15.138 30.232,6.33 22.492,6.33 c -0.022,0 -0.043,0 -0.065,0 -3.404,0.022 -8.945,5.65 -12.857,8.189 -1.821,1.18 -1.762,4.357 -2.083,6.256 -0.422,2.486 -0.842,4.972 -1.264,7.458 -0.31,1.825 0.743,2.914 2.138,2.914 0.495,0 1.032,-0.137 1.567,-0.426 1.121,-0.607 1.61,-2.142 1.807,-3.298 0.505,-2.981 1.18,-5.309 1.685,-8.29 l 3.592,-2.916 -2.974,17.629 c -0.111,0.842 -0.223,1.73 -0.334,2.666 -0.045,0.38 -0.09,0.754 -0.136,1.151 -0.331,2.911 -0.73,5.892 -1.417,6.787 -2.127,2.774 -3.789,5.503 -5.905,8.251 -0.091,0.119 -0.172,0.237 -0.265,0.355 -0.653,0.833 -0.928,1.624 -0.937,2.327 -0.02,1.646 1.449,2.798 3.131,2.798 0.196,0 0.395,-0.021 0.594,-0.054 0.922,-0.148 1.861,-0.647 2.616,-1.609 0.038,-0.048 0.075,-0.096 0.113,-0.144 1.956,-2.494 3.914,-4.988 5.871,-7.482 0.304,-0.388 0.568,-0.806 0.809,-1.241 0.452,-0.817 0.805,-1.706 1.081,-2.645 0.61,-2.073 0.868,-4.366 1.111,-6.552 0.113,-1.013 0.224,-1.999 0.364,-2.933 0.026,-0.174 0.051,-0.351 0.08,-0.521 0.122,0.264 0.244,0.527 0.366,0.791 l 9.452,20.413 c 0.726,1.566 2.019,2.242 3.242,2.242 2.04,0 3.891,-1.872 2.621,-4.612 -0.968,-2.081 -1.859,-4.164 -2.737,-6.248 z"
           id="path6446" />
      </g>
    </g>
  </g>
</svg>
