<?xml version="1.0" encoding="UTF-8" standalone="no"?>
<!-- Created with Inkscape (http://www.inkscape.org/) -->

<svg
   xmlns:dc="http://purl.org/dc/elements/1.1/"
   xmlns:cc="http://creativecommons.org/ns#"
   xmlns:rdf="http://www.w3.org/1999/02/22-rdf-syntax-ns#"
   xmlns:svg="http://www.w3.org/2000/svg"
   xmlns="http://www.w3.org/2000/svg"
   xmlns:sodipodi="http://sodipodi.sourceforge.net/DTD/sodipodi-0.dtd"
   xmlns:inkscape="http://www.inkscape.org/namespaces/inkscape"
   width="30.858mm"
   height="30.858mm"
   viewBox="0 0 30.858 30.858"
   version="1.1"
   id="svg1933"
   inkscape:version="0.92.5 (2060ec1f9f, 2020-04-08)"
   sodipodi:docname="Wellbeing.svg">
  <defs
     id="defs1927" />
  <sodipodi:namedview
     id="base"
     pagecolor="#ffffff"
     bordercolor="#666666"
     borderopacity="1.0"
     inkscape:pageopacity="0.0"
     inkscape:pageshadow="2"
     inkscape:zoom="2.8"
     inkscape:cx="89.474658"
     inkscape:cy="11.049758"
     inkscape:document-units="mm"
     inkscape:current-layer="layer1"
     showgrid="false"
     units="mm"
     showguides="true"
     inkscape:guide-bbox="true"
     inkscape:snap-global="true"
     inkscape:window-width="1090"
     inkscape:window-height="767"
     inkscape:window-x="144"
     inkscape:window-y="70"
     inkscape:window-maximized="0">
    <sodipodi:guide
       position="0,16.503893"
       orientation="1,0"
       id="guide2524"
       inkscape:locked="false"
       inkscape:label=""
       inkscape:color="rgb(0,0,255)" />
    <sodipodi:guide
       position="14.29892,0"
       orientation="0,1"
       id="guide2526"
       inkscape:locked="false"
       inkscape:label=""
       inkscape:color="rgb(0,0,255)" />
  </sodipodi:namedview>
  <metadata
     id="metadata1930">
    <rdf:RDF>
      <cc:Work
         rdf:about="">
        <dc:format>image/svg+xml</dc:format>
        <dc:type
           rdf:resource="http://purl.org/dc/dcmitype/StillImage" />
        <dc:title></dc:title>
      </cc:Work>
    </rdf:RDF>
  </metadata>
  <g
     inkscape:label="Layer 1"
     inkscape:groupmode="layer"
     id="layer1"
     transform="translate(0,-266.14199)">
    <g
       transform="translate(-230.46561,145.93464)"
       id="g6707">
      <circle
         style="fill:#44263a;fill-opacity:1;stroke-width:0.46499997"
         id="circle1093-0-85-7-6"
         cx="245.89481"
         cy="135.63615"
         r="15.429199" />
      <g
         transform="matrix(0.22023551,0,0,0.22023551,234.89144,127.06092)"
         id="g1713"
         style="fill:#ffffff;stroke-width:1.20136547">
        <path
           style="fill:#ffffff;stroke-width:1.20136547"
           inkscape:connector-curvature="0"
           d="m 50,90.4 c -0.5,0 -1,-0.2 -1.4,-0.5 L 12.5,57.6 C 4.6,50.4 0,40.3 0,29.6 0,21.7 3.1,14.3 8.6,8.7 14.3,3.1 21.7,0 29.6,0 37.3,0 44.5,2.9 50,8.2 55.5,2.9 62.7,0 70.4,0 c 0,0 0,0 0,0 7.9,0 15.3,3.1 20.9,8.7 l 0.1,0.1 c 5.6,5.6 8.6,13 8.6,20.9 0,10.7 -4.6,20.9 -12.5,28 L 51.3,89.9 c -0.4,0.4 -0.8,0.5 -1.3,0.5 z M 29.6,4.2 c -6.8,0 -13.1,2.6 -17.9,7.4 -4.8,4.8 -7.5,11.2 -7.5,18 0,9.5 4,18.5 11.1,24.9 L 50,85.5 84.7,54.4 C 91.8,48.1 95.8,39 95.8,29.6 95.8,22.8 93.2,16.5 88.4,11.7 L 88.3,11.6 C 83.5,6.8 77.2,4.2 70.4,4.2 c 0,0 0,0 0,0 -6.8,0 -13.1,2.6 -17.9,7.4 l -1,1 C 51.1,13 50.6,13.2 50,13.2 v 0 c -0.6,0 -1.1,-0.2 -1.5,-0.6 l -1,-1 C 42.7,6.8 36.4,4.2 29.6,4.2 Z"
           id="path1696" />
        <path
           style="fill:#ffffff;stroke-width:1.20136547"
           inkscape:connector-curvature="0"
           d="m 50,76.4 c -0.5,0 -1,-0.2 -1.4,-0.5 L 19.5,49.8 c -5.7,-5.1 -9,-12.5 -9,-20.2 0,-5.1 2,-9.9 5.6,-13.5 3.6,-3.6 8.4,-5.6 13.5,-5.6 5.1,0 9.9,2 13.5,5.6 L 50,23 57,16.1 c 3.6,-3.6 8.4,-5.6 13.5,-5.6 5.1,0 9.9,2 13.5,5.6 3.6,3.6 5.6,8.4 5.6,13.5 0,7.7 -3.3,15 -9,20.2 l -29.2,26 C 51,76.2 50.5,76.4 50,76.4 Z M 29.6,14.7 c -4,0 -7.7,1.6 -10.6,4.4 -2.8,2.8 -4.3,6.5 -4.3,10.5 0,6.5 2.8,12.7 7.6,17.1 v 0 L 50,71.5 77.7,46.7 c 4.8,-4.3 7.6,-10.5 7.6,-17 0,-4 -1.6,-7.7 -4.4,-10.6 -2.8,-2.8 -6.5,-4.4 -10.5,-4.4 -4,0 -7.7,1.5 -10.5,4.3 l -8.4,8.4 C 51.1,27.8 50.6,28 50,28 v 0 c -0.6,0 -1.1,-0.2 -1.5,-0.6 L 40.1,19 C 37.3,16.2 33.6,14.7 29.6,14.7 Z"
           id="path1698" />
        <path
           style="fill:#ffffff;stroke-width:1.20136547"
           inkscape:connector-curvature="0"
           d="m 50,62.3 c -0.5,0 -1,-0.2 -1.4,-0.5 L 26.5,42 C 23,38.8 21,34.3 21,29.6 c 0,-2.3 0.9,-4.4 2.5,-6.1 1.7,-1.7 3.8,-2.6 6.1,-2.6 2.3,0 4.4,0.9 6.1,2.5 L 50,37.8 64.4,23.5 C 66,21.9 68.1,21 70.5,21 c 2.3,0 4.4,0.9 6.1,2.5 1.7,1.7 2.6,3.8 2.6,6.1 0,4.7 -2,9.2 -5.5,12.4 L 51.4,61.8 C 51,62.1 50.5,62.3 50,62.3 Z M 29.3,38.8 50,57.4 70.7,38.9 c 2.6,-2.4 4.1,-5.7 4.1,-9.2 0,-1.2 -0.5,-2.3 -1.3,-3.2 -1.7,-1.7 -4.5,-1.7 -6.2,0 L 51.5,42.3 c -0.4,0.4 -0.9,0.6 -1.5,0.6 v 0 c -0.6,0 -1.1,-0.2 -1.5,-0.6 L 32.7,26.4 c -1.7,-1.7 -4.5,-1.7 -6.3,0.1 -0.8,0.8 -1.3,1.9 -1.3,3.1 0.1,3.5 1.6,6.9 4.2,9.2 z"
           id="path1700" />
      </g>
    </g>
  </g>
</svg>
