<?xml version="1.0" encoding="UTF-8" standalone="no"?>
<!-- Created with Inkscape (http://www.inkscape.org/) -->

<svg
   xmlns:dc="http://purl.org/dc/elements/1.1/"
   xmlns:cc="http://creativecommons.org/ns#"
   xmlns:rdf="http://www.w3.org/1999/02/22-rdf-syntax-ns#"
   xmlns:svg="http://www.w3.org/2000/svg"
   xmlns="http://www.w3.org/2000/svg"
   xmlns:sodipodi="http://sodipodi.sourceforge.net/DTD/sodipodi-0.dtd"
   xmlns:inkscape="http://www.inkscape.org/namespaces/inkscape"
   width="30.858mm"
   height="30.858mm"
   viewBox="0 0 30.858 30.858"
   version="1.1"
   id="svg1933"
   inkscape:version="0.92.5 (2060ec1f9f, 2020-04-08)"
   sodipodi:docname="wind speed.svg">
  <defs
     id="defs1927" />
  <sodipodi:namedview
     id="base"
     pagecolor="#ffffff"
     bordercolor="#666666"
     borderopacity="1.0"
     inkscape:pageopacity="0.0"
     inkscape:pageshadow="2"
     inkscape:zoom="2.8"
     inkscape:cx="89.474658"
     inkscape:cy="11.049758"
     inkscape:document-units="mm"
     inkscape:current-layer="layer1"
     showgrid="false"
     units="mm"
     showguides="true"
     inkscape:guide-bbox="true"
     inkscape:snap-global="true"
     inkscape:window-width="1848"
     inkscape:window-height="1016"
     inkscape:window-x="72"
     inkscape:window-y="27"
     inkscape:window-maximized="1">
    <sodipodi:guide
       position="0,16.503893"
       orientation="1,0"
       id="guide2524"
       inkscape:locked="false"
       inkscape:label=""
       inkscape:color="rgb(0,0,255)" />
    <sodipodi:guide
       position="14.29892,0"
       orientation="0,1"
       id="guide2526"
       inkscape:locked="false"
       inkscape:label=""
       inkscape:color="rgb(0,0,255)" />
  </sodipodi:namedview>
  <metadata
     id="metadata1930">
    <rdf:RDF>
      <cc:Work
         rdf:about="">
        <dc:format>image/svg+xml</dc:format>
        <dc:type
           rdf:resource="http://purl.org/dc/dcmitype/StillImage" />
        <dc:title></dc:title>
      </cc:Work>
    </rdf:RDF>
  </metadata>
  <g
     inkscape:label="Layer 1"
     inkscape:groupmode="layer"
     id="layer1"
     transform="translate(0,-266.14199)">
    <g
       id="g2522"
       transform="translate(-146.3446,135.76127)">
      <circle
         inkscape:export-ydpi="300"
         inkscape:export-xdpi="300"
         inkscape:export-filename="/home/amber/Desktop/ECEHH climate/icons/Final Icons/Complete/Wind speed.svg.png"
         style="fill:#254747;fill-opacity:1;stroke-width:0.46499997"
         id="circle1093-0"
         cx="161.7738"
         cy="145.80952"
         r="15.429199" />
      <g
         inkscape:export-ydpi="300"
         inkscape:export-xdpi="300"
         inkscape:export-filename="/home/amber/Desktop/ECEHH climate/icons/Final Icons/Complete/Wind speed.svg.png"
         transform="matrix(0.3604773,0,0,0.3604773,151.23077,138.18251)"
         id="g2107"
         style="fill:#ffffff;stroke-width:1.35922325">
        <g
           style="fill:#ffffff;fill-rule:evenodd;stroke:none;stroke-width:1.35922325"
           id="g2091">
          <g
             style="fill:#ffffff;stroke-width:1.35922325"
             transform="translate(-421,-188)"
             id="g2089">
            <g
               style="fill:#ffffff;stroke-width:1.35922325"
               transform="translate(421,188)"
               id="g2087">
              <path
                 style="fill:#ffffff;stroke-width:1.35922325"
                 inkscape:connector-curvature="0"
                 d="M 42,24 C 48.627417,24 54,18.627417 54,12 54,5.372583 48.627417,0 42,0 35.372583,0 30,5.372583 30,12 c 0,1.10457 0.89543,2 2,2 1.104569,0 2,-0.89543 2,-2 0,-4.418278 3.581722,-8 8,-8 4.418278,0 8,3.581722 8,8 0,4.418278 -3.581722,8 -8,8 H 4 c -1.1045695,0 -2,0.89543 -2,2 0,1.104569 0.8954305,2 2,2 z"
                 id="path2081" />
              <path
                 style="fill:#ffffff;stroke-width:1.35922325"
                 inkscape:connector-curvature="0"
                 d="m 20,17 c 3.865993,0 7,-3.134007 7,-7 0,-3.8659933 -3.134007,-7 -7,-7 -2.831036,0 -5.350093,1.696734 -6.441343,4.2564408 -0.433177,1.0160865 0.03937,2.1909464 1.055452,2.6241228 1.016086,0.4331764 2.190946,-0.039365 2.624123,-1.055452 C 17.706274,7.7272423 18.785974,7 20,7 c 1.656854,0 3,1.3431458 3,3 0,1.656854 -1.343146,3 -3,3 H 2 c -1.1045695,0 -2,0.895431 -2,2 0,1.104569 0.8954305,2 2,2 z"
                 id="path2083" />
              <path
                 style="fill:#ffffff;stroke-width:1.35922325"
                 inkscape:connector-curvature="0"
                 d="m 38,31 c 3.313708,0 6,2.686292 6,6 0,3.313708 -2.686292,6 -6,6 -3.313708,0 -6,-2.686292 -6,-6 0,-1.104569 -0.895431,-2 -2,-2 -1.10457,0 -2,0.895431 -2,2 0,5.522847 4.477153,10 10,10 5.522847,0 10,-4.477153 10,-10 C 48,31.477152 43.522847,27 38,27 H 7 c -1.1045695,0 -2,0.89543 -2,2 0,1.104569 0.8954305,2 2,2 z"
                 id="path2085" />
            </g>
          </g>
        </g>
      </g>
    </g>
  </g>
</svg>
